<svg width="550" height="134" viewBox="0 0 550 134" fill="none" xmlns="http://www.w3.org/2000/svg">
<path d="M64.5433 105.199C64.5671 105.318 64.5909 105.437 64.6386 105.556C64.4241 105.604 64.2334 105.675 64.0427 105.747C64.2096 105.556 64.3287 105.365 64.4479 105.151C64.4717 105.151 64.5194 105.151 64.5433 105.175V105.199ZM54.2945 95.1481C54.2945 95.1481 54.2945 95.0766 54.2945 95.029C54.2468 95.0528 54.223 95.1004 54.1753 95.1243C54.1992 95.1243 54.2468 95.1243 54.2707 95.1243L54.2945 95.1481ZM68.5951 108.009C68.6428 107.7 68.7381 107.414 68.8811 107.128C68.7142 107.199 68.5474 107.271 68.3806 107.318C68.4759 107.533 68.5474 107.771 68.5951 108.009ZM55.6769 99.7924C55.8676 99.7685 56.0582 99.7447 56.2489 99.7685C56.2489 99.6018 56.2489 99.4589 56.2489 99.2922C56.0821 99.5066 55.8914 99.6733 55.6769 99.8162V99.7924ZM55.1049 93.4809C55.1049 93.4809 55.2002 93.4095 55.2479 93.3618C55.2002 93.2666 55.1525 93.1713 55.1049 93.076C55.1049 93.1951 55.1049 93.338 55.1049 93.4571V93.4809ZM87.3765 110.986C87.5195 110.796 87.6863 110.605 87.8532 110.438C87.6863 110.319 87.5433 110.153 87.4003 110.01C87.4242 110.343 87.4003 110.677 87.3527 110.986H87.3765ZM86.4946 108.009C86.4946 108.009 86.5661 108.104 86.6138 108.152C86.6138 108.081 86.6138 108.009 86.6138 107.938C86.59 107.962 86.5423 108.009 86.5185 108.033L86.4946 108.009ZM81.3941 107.985C81.3941 107.985 81.4656 107.938 81.4894 107.89C81.4656 107.866 81.4179 107.819 81.3941 107.795C81.3941 107.866 81.3941 107.914 81.3941 107.985ZM80.25 110.891C80.2024 110.558 80.25 110.2 80.2977 109.891C80.1547 110.01 80.0117 110.105 79.8449 110.2C80.0117 110.415 80.1547 110.629 80.25 110.891ZM74.7205 109.795C74.9112 109.653 75.1018 109.51 75.2925 109.414C75.1733 109.248 75.078 109.081 75.0065 108.914C74.9588 109.224 74.8635 109.533 74.7205 109.819V109.795ZM56.7733 97.9108C56.7733 97.9108 56.8448 97.8156 56.8924 97.7679C56.8686 97.7679 56.8209 97.7679 56.7733 97.7679C56.7733 97.8156 56.7733 97.8632 56.7733 97.9108ZM45.3567 80.9771C45.5473 80.9056 45.7618 80.858 45.9525 80.858C45.8572 80.7866 45.7618 80.7151 45.6903 80.6437C45.595 80.7627 45.4997 80.8818 45.3567 81.0009V80.9771ZM45.452 77.9047C45.452 77.9047 45.452 77.7618 45.4282 77.6904C45.3328 77.6904 45.2375 77.6904 45.1421 77.6427C45.2613 77.7142 45.3567 77.8095 45.452 77.9047ZM52.0779 96.0293C52.2448 95.8388 52.4354 95.6721 52.6261 95.5292C52.4831 95.5292 52.3401 95.4815 52.1971 95.4577C52.1971 95.6482 52.1256 95.8388 52.0541 96.0293H52.0779ZM50.2903 92.7188C50.2903 92.5759 50.3619 92.433 50.4095 92.3139C50.2188 92.4568 50.0043 92.5521 49.7898 92.6235C49.9567 92.6235 50.1235 92.6711 50.2903 92.7188ZM46.7629 85.2403C46.7629 85.2403 46.882 85.0021 46.9535 84.9069C46.7629 84.9783 46.5484 85.0259 46.3577 85.0498C46.5007 85.0974 46.6437 85.1688 46.7629 85.2641V85.2403ZM47.5494 88.527C47.7401 88.3841 47.9308 88.2889 48.1453 88.2174C48.0261 88.1698 47.9069 88.1221 47.7877 88.0507C47.7162 88.2174 47.6447 88.3841 47.5256 88.527H47.5494ZM51.053 52.135L51.196 51.9682C51.6489 51.3966 51.6012 50.5631 51.053 50.0867C50.481 49.5866 49.6468 49.6342 49.1463 50.2058L48.9795 50.3963C48.9795 50.3963 48.9795 50.4202 48.9556 50.4202C48.4789 50.9918 48.5504 51.8492 49.1463 52.3255C49.7183 52.8018 50.5764 52.7304 51.053 52.135ZM53.4841 49.5627L53.651 49.396C54.1753 48.9197 54.223 48.1337 53.7702 47.586C53.3173 47.0382 52.4831 46.9667 51.9587 47.4192L51.7681 47.586C51.7681 47.586 51.7681 47.586 51.7442 47.6098C51.2199 48.0861 51.1722 48.9197 51.6489 49.4437C52.1256 49.9676 52.9598 50.0153 53.4841 49.5389V49.5627ZM55.1764 45.1566L54.9619 45.2757H54.938C54.366 45.6568 54.223 46.4189 54.5805 46.9905C54.9619 47.5621 55.7246 47.705 56.2966 47.3478L56.4873 47.2287C57.0355 46.8476 57.2023 46.1093 56.8448 45.5615C56.4873 44.9899 55.7246 44.7994 55.1525 45.1566H55.1764ZM59.395 45.6092L59.5857 45.5139C60.1577 45.2519 60.4199 44.585 60.1577 43.9896C59.8956 43.3942 59.2282 43.1084 58.6324 43.3704L58.4178 43.4656C58.4178 43.4656 58.394 43.4656 58.3702 43.4656C57.7743 43.7276 57.536 44.4421 57.7981 45.0137C58.0603 45.6092 58.7754 45.8473 59.3474 45.5853L59.395 45.6092ZM62.7318 44.3469L62.9464 44.2754C63.5184 44.1087 63.8521 43.5133 63.709 42.9417C63.566 42.3463 62.9464 41.989 62.3743 42.1557L62.136 42.2272C62.136 42.2272 62.1122 42.2272 62.0883 42.2272C61.4925 42.3939 61.1588 43.0131 61.3256 43.6085C61.4925 44.204 62.1122 44.5374 62.708 44.3707L62.7318 44.3469ZM66.2117 41.4889H65.9733L65.9495 41.5127C65.3774 41.5841 64.9723 42.1081 65.0438 42.6797C65.1153 43.2513 65.6396 43.6562 66.2117 43.5847L66.4262 43.5609C66.9743 43.4895 67.3795 42.9893 67.308 42.4177C67.2604 41.8461 66.736 41.4174 66.164 41.4889H66.2117ZM70.0966 41.3936H69.8583C69.8583 41.3936 69.8583 41.3936 69.8345 41.3936C69.2863 41.3936 68.8573 41.8223 68.8334 42.3701C68.8096 42.9179 69.2624 43.3466 69.8106 43.3704H70.0251C70.5495 43.3704 70.9785 42.9655 71.0023 42.4415C71.0262 41.8937 70.621 41.4412 70.0728 41.4174L70.0966 41.3936ZM73.3858 43.6324L73.6003 43.68C74.077 43.7514 74.5536 43.4418 74.649 42.9655C74.7443 42.4653 74.4345 41.989 73.934 41.8937L73.6956 41.8461C73.6956 41.8461 73.6956 41.8461 73.6718 41.8461C73.1713 41.7747 72.6946 42.1081 72.6231 42.6082C72.5516 43.1084 72.8853 43.5847 73.3858 43.6562V43.6324ZM77.6759 42.9179L77.4376 42.8464C77.4376 42.8464 77.4376 42.8464 77.4138 42.8464C76.9609 42.7035 76.4842 42.9417 76.3412 43.3942C76.1982 43.8467 76.4366 44.3231 76.8894 44.466L77.1039 44.5374C77.5329 44.6803 78.0096 44.4421 78.1765 44.0134C78.3433 43.5609 78.105 43.0846 77.6521 42.9179H77.6759ZM80.25 45.7997L80.4646 45.895C80.8459 46.0855 81.2988 45.9426 81.5133 45.5615C81.7278 45.1805 81.5848 44.7041 81.1796 44.4898L80.9651 44.3707C80.5599 44.1801 80.0832 44.3469 79.8925 44.7279C79.7019 45.1328 79.8687 45.6092 80.25 45.7997ZM84.2304 46.4427C83.8967 46.2046 83.4438 46.2998 83.2055 46.6333C82.9672 46.9667 83.0625 47.4192 83.3962 47.6574L83.5868 47.8003C83.8967 48.0385 84.3495 47.967 84.5879 47.6336C84.8262 47.3002 84.7547 46.8476 84.4449 46.6095L84.2542 46.4666L84.2304 46.4427ZM87.1382 48.9435C86.876 48.6815 86.447 48.7053 86.1848 48.9673C85.9226 49.2293 85.9464 49.658 86.2086 49.92L86.3755 50.0867C86.6376 50.3249 87.0428 50.3249 87.305 50.0867C87.5672 49.8247 87.5672 49.396 87.305 49.1579L87.1382 48.9911V48.9435ZM88.6874 52.5875L88.8304 52.778C89.0211 53.04 89.4024 53.0876 89.6646 52.8971C89.9268 52.7066 89.9983 52.3255 89.7838 52.0635L89.6408 51.873C89.4263 51.611 89.0449 51.5634 88.7827 51.7777C88.5205 51.9921 88.4729 52.3731 88.6874 52.6351V52.5875ZM91.6905 55.0644C91.5475 54.8024 91.2138 54.7072 90.9516 54.8501C90.6895 54.993 90.5941 55.3264 90.7371 55.5884L90.8563 55.8027C90.9993 56.0647 91.3092 56.16 91.5713 56.0171C91.8335 55.8742 91.9288 55.5408 91.8097 55.2788L91.6905 55.0644ZM93.0014 59.3991C93.2397 59.3038 93.3827 59.0418 93.2874 58.8037L93.2159 58.5893C93.1206 58.3511 92.8345 58.2082 92.5962 58.3035C92.3579 58.3988 92.2149 58.6846 92.3102 58.9227L92.3817 59.1371C92.477 59.3753 92.7392 59.4944 92.9776 59.4229L93.0014 59.3991ZM93.3827 62.4L93.4304 62.6382C93.4781 62.8525 93.6926 62.9954 93.9071 62.9716C94.1216 62.924 94.2884 62.7096 94.2408 62.4953L94.1931 62.2571C94.1454 62.0427 93.9309 61.8998 93.6926 61.9475C93.4781 61.9951 93.3351 62.2095 93.3827 62.4476V62.4ZM94.646 66.2345V65.9963C94.646 65.8058 94.4553 65.6629 94.2646 65.6629C94.0739 65.6629 93.9309 65.8534 93.9309 66.044V66.2821C93.9309 66.4727 94.0978 66.6156 94.2884 66.6156C94.4791 66.6156 94.646 66.4489 94.6221 66.2583L94.646 66.2345ZM93.9309 69.7356V69.9737C93.9309 70.1404 94.0263 70.2595 94.1931 70.2834C94.3599 70.2834 94.503 70.1881 94.503 70.0214V69.7832H94.5268C94.5268 69.6165 94.4076 69.4736 94.2646 69.4736C94.0978 69.4736 93.9548 69.5927 93.9548 69.7356H93.9309ZM93.3827 73.4034L93.3351 73.6177C93.3112 73.7368 93.3827 73.8559 93.5019 73.8797C93.6211 73.9035 93.7402 73.8321 93.7879 73.713L93.8594 73.4748C93.8833 73.3557 93.8118 73.2366 93.6926 73.189C93.5734 73.1652 93.4542 73.2366 93.4066 73.3557L93.3827 73.4034ZM92.5009 77.2855L92.5962 77.0711C92.62 76.9759 92.5962 76.8806 92.5009 76.8568C92.4055 76.833 92.3102 76.8568 92.2864 76.9521L92.191 77.1664C92.191 77.1664 92.191 77.3331 92.2864 77.3808C92.3579 77.4284 92.477 77.3808 92.5009 77.2855ZM90.5703 80.5008C90.5703 80.5008 90.5703 80.6198 90.5941 80.6437C90.6418 80.6675 90.7133 80.6437 90.7371 80.6198L90.8563 80.4293C90.8801 80.3817 90.8563 80.3102 90.8086 80.2864C90.761 80.2626 90.6895 80.2864 90.6656 80.334L90.5465 80.5246L90.5703 80.5008ZM88.449 83.5731V83.6208H88.4967L88.6397 83.454V83.4064H88.592L88.449 83.5969V83.5731ZM43.3546 56.7078C44.1173 57.065 44.9991 56.7078 45.3567 55.9695L45.452 55.7313C45.7857 54.9692 45.4758 54.1118 44.7608 53.7307C44.0219 53.3496 43.1162 53.6592 42.7349 54.3976L42.6157 54.6357C42.6157 54.6357 42.6157 54.6595 42.6157 54.6834C42.2582 55.4455 42.6157 56.3267 43.3546 56.684V56.7078ZM47.2396 52.516L47.3826 52.3017C47.8116 51.6348 47.6447 50.7774 47.0012 50.3249C46.3577 49.8724 45.452 50.0391 44.9991 50.6821L44.8323 50.8965C44.8323 50.8965 44.8323 50.9203 44.8085 50.9441C44.3794 51.611 44.5701 52.4922 45.2375 52.9447C45.9048 53.3734 46.7867 53.1829 47.2396 52.516ZM49.623 49.3722L49.7898 49.1817C50.2665 48.6101 50.2427 47.7765 49.6945 47.2763C49.1463 46.7524 48.2883 46.7762 47.7639 47.324L47.5732 47.5145C47.5732 47.5145 47.5732 47.5383 47.5494 47.5383C47.0489 48.1099 47.0966 48.9673 47.6686 49.4675C48.2406 49.9676 49.0986 49.92 49.5992 49.3484L49.623 49.3722ZM50.8147 44.585C50.8147 44.585 50.7909 44.585 50.7909 44.6089C50.2427 45.0614 50.1712 45.895 50.624 46.4427C51.0769 46.9905 51.9111 47.062 52.4593 46.6095L52.6499 46.4427C53.1743 45.9902 53.2696 45.2043 52.8406 44.6327C52.4116 44.0611 51.5774 43.9658 51.0292 44.4183L50.8147 44.585ZM54.652 42.0366L54.4137 42.1795C54.4137 42.1795 54.3898 42.1795 54.366 42.1795C53.794 42.5368 53.6033 43.2989 53.9608 43.8705C54.3183 44.4421 55.081 44.6327 55.6531 44.2754L55.8676 44.1325C56.4396 43.7753 56.6303 43.0608 56.2966 42.4653C55.9629 41.8699 55.224 41.6556 54.6282 41.989L54.652 42.0366ZM59.2044 42.4653L59.4427 42.3701C60.0147 42.1319 60.3007 41.465 60.0862 40.8934C59.8479 40.298 59.1805 39.9884 58.5847 40.2266L58.3225 40.3218C58.3225 40.3218 58.2987 40.3218 58.2748 40.3218C57.679 40.56 57.393 41.2507 57.6551 41.8461C57.8935 42.4415 58.5847 42.7273 59.1805 42.4653H59.2044ZM62.9702 41.1792L63.2085 41.1078C63.7806 40.9649 64.1381 40.3933 63.9951 39.8217C63.8759 39.2263 63.28 38.869 62.708 38.9881L62.4458 39.0357C62.4458 39.0357 62.422 39.0357 62.3982 39.0357C61.8023 39.1786 61.4686 39.774 61.6116 40.3695C61.7546 40.9649 62.3505 41.2983 62.9464 41.1554L62.9702 41.1792ZM68.0946 39.3453C68.0469 38.7737 67.5702 38.3689 66.9982 38.3927H66.736H66.7122C66.1402 38.4403 65.735 38.9405 65.8065 39.5121C65.8541 40.0837 66.3547 40.4885 66.9267 40.4171L67.165 40.3933C67.7132 40.3456 68.1184 39.8693 68.0707 39.3215L68.0946 39.3453ZM71.193 40.3456C71.6935 40.3456 72.1464 39.9884 72.1702 39.4644C72.2179 38.9405 71.8127 38.4879 71.3122 38.4403H71.05C71.05 38.4403 71.05 38.4403 71.0262 38.4165C70.5018 38.3927 70.049 38.7976 70.0251 39.3215C70.0013 39.8455 70.4065 40.298 70.9308 40.3218H71.193V40.3456ZM74.9112 40.7982L75.1495 40.8458C75.6024 40.9411 76.079 40.6553 76.1744 40.1789C76.2936 39.7026 75.9837 39.2263 75.5309 39.131L75.2687 39.0595C75.2687 39.0595 75.2687 39.0595 75.2449 39.0595C74.7682 38.9643 74.2915 39.2739 74.1961 39.7502C74.1008 40.2266 74.4106 40.7029 74.8873 40.7982H74.9112ZM79.6065 40.4409L79.3682 40.3456C79.3682 40.3456 79.3682 40.3456 79.3443 40.3456C78.9153 40.2027 78.4625 40.4171 78.2956 40.822C78.1526 41.2507 78.3671 41.7032 78.7723 41.8699L79.0107 41.9652C79.4159 42.1081 79.8687 41.9176 80.0355 41.5127C80.2024 41.1078 80.0117 40.6314 79.5827 40.4647L79.6065 40.4409ZM82.1806 42.4892C81.99 42.8464 82.1091 43.2989 82.4905 43.4895L82.705 43.6085C83.0625 43.7991 83.4915 43.68 83.6822 43.3466C83.8967 42.9893 83.7775 42.5368 83.42 42.3463L83.1817 42.2034C82.8242 42.0128 82.3713 42.1319 82.1806 42.513V42.4892ZM86.733 44.585C86.447 44.3707 86.018 44.4183 85.7796 44.7279C85.5651 45.0376 85.6128 45.4424 85.9226 45.6806L86.1371 45.8473C86.4231 46.0617 86.8283 46.014 87.0667 45.7282C87.305 45.4424 87.2573 45.0137 86.9713 44.7994L86.7568 44.6327L86.733 44.585ZM90.0221 47.6574L89.8314 47.4669C89.5931 47.2287 89.2117 47.2287 88.9734 47.4669C88.7351 47.705 88.7351 48.0861 88.9734 48.3243L89.1402 48.5148C89.3548 48.753 89.7361 48.753 89.9744 48.5386C90.2128 48.3243 90.2366 47.9432 89.9983 47.6812L90.0221 47.6574ZM92.5009 51.7301C92.7392 51.5634 92.8107 51.2299 92.6439 50.9918L92.5009 50.7774C92.334 50.5392 92.0004 50.4916 91.762 50.6583C91.5237 50.825 91.476 51.1585 91.6428 51.3966L91.7858 51.611C91.9527 51.8492 92.2625 51.8968 92.5009 51.7539V51.7301ZM93.7879 54.8501L93.9071 55.0882C94.0263 55.3026 94.2884 55.3979 94.503 55.3026C94.7413 55.1835 94.8366 54.9215 94.7175 54.6834L94.5983 54.4452C94.4791 54.207 94.1931 54.1356 93.9786 54.2547C93.7403 54.3737 93.6687 54.6595 93.7879 54.8739V54.8501ZM96.2429 58.6131L96.1713 58.3511C96.0998 58.1368 95.8853 58.0415 95.6708 58.113C95.4563 58.1844 95.361 58.3988 95.4325 58.6131L95.504 58.8513C95.5755 59.0418 95.79 59.1609 95.9807 59.0895C96.1952 59.018 96.3144 58.8037 96.2429 58.6131ZM96.7434 62.1856C96.5765 62.2095 96.4574 62.3762 96.4812 62.5667L96.5289 62.8287C96.5527 62.9954 96.7195 63.1145 96.8864 63.0907C97.0532 63.0669 97.1724 62.9002 97.1486 62.7334L97.1009 62.4714C97.0771 62.3047 96.9102 62.1856 96.7195 62.2095L96.7434 62.1856ZM97.4584 66.9014V66.6394C97.4584 66.4965 97.3392 66.3774 97.1962 66.4012C97.0532 66.4012 96.9341 66.5203 96.9579 66.6632V66.9252C96.9579 67.0681 97.0771 67.1634 97.2201 67.1634C97.3631 67.1634 97.4822 67.0443 97.4822 66.9014H97.4584ZM96.791 70.7597L96.7672 71.0217C96.7672 71.0217 96.8149 71.2122 96.9102 71.2122C97.0056 71.2122 97.1009 71.1646 97.1247 71.0693L97.1724 70.8073C97.1724 70.7121 97.1009 70.6168 97.0056 70.593C96.9102 70.593 96.8149 70.6644 96.791 70.7597ZM96.1713 75.142L96.2429 74.9038C96.2429 74.8324 96.2429 74.7847 96.1713 74.7609C96.0998 74.7371 96.0522 74.7609 96.0284 74.8324L95.9568 75.0705C95.9568 75.0705 95.9568 75.1896 96.0284 75.2134C96.076 75.2134 96.1475 75.2134 96.1713 75.142ZM94.646 79.0003L94.7651 78.7621C94.7651 78.7621 94.7651 78.7145 94.7413 78.6907C94.7175 78.6669 94.6936 78.6907 94.6698 78.7145L94.5745 78.9527V79.0003H94.6221H94.646ZM38.4447 63.0907C39.3504 63.2336 40.2323 62.6382 40.3753 61.7093L40.423 61.4235C40.566 60.5185 39.9939 59.6611 39.1121 59.4943C38.2064 59.3038 37.3245 59.8992 37.1338 60.8043L37.0623 61.1139V61.1615C36.9193 62.0666 37.5152 62.9478 38.4447 63.0907ZM41.4002 57.4699L41.4955 57.2079C41.7577 56.3744 41.3287 55.4931 40.5183 55.2073C39.6841 54.8977 38.7784 55.3264 38.4685 56.16L38.3732 56.4458V56.4934C38.111 57.327 38.5639 58.2321 39.3981 58.5179C40.2323 58.7798 41.138 58.3273 41.424 57.4937L41.4002 57.4699ZM43.0447 53.3973L43.1639 53.1353C43.5214 52.3969 43.2592 51.4919 42.5204 51.1108C41.7815 50.706 40.852 50.9918 40.4706 51.7301L40.3276 51.9921C40.3276 51.9921 40.3276 52.0159 40.3276 52.0397C39.9463 52.8018 40.2561 53.7069 41.0188 54.0879C41.7815 54.469 42.6872 54.1594 43.0686 53.3973H43.0447ZM45.2851 49.6104L45.452 49.3722C45.9048 48.7292 45.7618 47.8479 45.1421 47.3716C44.4986 46.8953 43.5929 47.0144 43.1162 47.6574L42.9256 47.8956C42.9256 47.8956 42.9256 47.9194 42.9017 47.9432C42.4489 48.5863 42.5919 49.4913 43.2592 49.9676C43.9028 50.4202 44.8085 50.2772 45.2851 49.6104ZM46.3339 44.0611L46.1193 44.2754C46.1193 44.2754 46.1193 44.2754 46.0955 44.2992C45.5712 44.847 45.595 45.7044 46.1432 46.2284C46.6914 46.7524 47.5494 46.7285 48.0738 46.1808L48.2644 45.9664C48.765 45.4186 48.765 44.585 48.2644 44.0611C47.7401 43.5133 46.882 43.5133 46.3339 44.0611ZM50.0282 40.9887L49.7898 41.1554C49.7898 41.1554 49.766 41.1554 49.766 41.1792C49.194 41.6079 49.0986 42.4177 49.5277 42.9893C49.9567 43.5609 50.767 43.6562 51.3391 43.2275L51.5536 43.0608C52.1018 42.6321 52.2209 41.8461 51.8157 41.2745C51.4106 40.7029 50.6002 40.56 50.0282 40.9887ZM54.1277 38.4879L53.8655 38.6308C53.8655 38.6308 53.8417 38.6308 53.8178 38.6308C53.222 38.9643 53.0313 39.7026 53.3411 40.2742C53.6748 40.8696 54.4137 41.0602 54.9857 40.7505L55.224 40.6076C55.7961 40.2742 56.0106 39.5835 55.7007 38.9881C55.3909 38.3927 54.6759 38.1545 54.08 38.4641L54.1277 38.4879ZM59.0375 38.869L59.2997 38.7737C59.8717 38.5594 60.1577 37.9163 59.9671 37.3447C59.7764 36.7493 59.1329 36.4397 58.537 36.6302L58.251 36.7255C58.251 36.7255 58.2272 36.7255 58.2033 36.7255C57.6075 36.9398 57.3215 37.6067 57.536 38.2021C57.7505 38.7976 58.4178 39.0834 59.0137 38.869H59.0375ZM63.3039 37.5829L63.566 37.5114C64.1142 37.3924 64.4717 36.8446 64.3764 36.2968C64.2811 35.7252 63.7329 35.3441 63.1609 35.4394L62.8749 35.487H62.851C62.279 35.6061 61.9215 36.1777 62.0407 36.7493C62.1598 37.3209 62.7318 37.6782 63.3039 37.5591V37.5829ZM66.6883 36.0348C66.7122 36.5826 67.1889 36.9875 67.737 36.9398H68.0231C68.5474 36.916 68.9526 36.4635 68.9288 35.9395C68.9288 35.3918 68.4521 34.9869 67.9277 34.9869H67.6417C67.6417 34.9869 67.6417 34.9869 67.6179 34.9869C67.0697 35.0107 66.6645 35.487 66.7122 36.0348H66.6883ZM72.2179 36.9875H72.5039V37.0113C72.9806 37.0589 73.4096 36.7017 73.4811 36.2253C73.5288 35.7252 73.1951 35.2965 72.6946 35.225H72.4086C72.4086 35.225 72.4086 35.1774 72.3847 35.1774C71.8842 35.1298 71.4552 35.5108 71.4075 36.011C71.3599 36.5111 71.7412 36.9398 72.2417 36.9875H72.2179ZM76.0314 36.6779C75.936 37.1304 76.1982 37.5591 76.6511 37.6782L76.9132 37.7496C77.3423 37.8449 77.7713 37.6067 77.8905 37.178C78.0096 36.7493 77.7474 36.2968 77.3184 36.1777L77.0324 36.1063C77.0324 36.1063 77.0324 36.1063 77.0086 36.1063C76.5557 36.011 76.1267 36.273 76.0075 36.7255L76.0314 36.6779ZM81.5133 37.6305C81.1319 37.4876 80.7029 37.6544 80.5361 38.0354C80.3931 38.4165 80.5599 38.8452 80.9412 39.0119L81.2034 39.1072C81.5848 39.2501 81.99 39.1072 82.1568 38.7261C82.3236 38.345 82.1568 37.9163 81.7754 37.7496L81.5133 37.6305ZM85.6843 39.8217C85.3744 39.6311 84.9454 39.7502 84.7547 40.0598C84.5641 40.3695 84.6832 40.7982 84.9931 40.9887L85.2314 41.1316C85.5413 41.3221 85.9464 41.2269 86.1371 40.9173C86.3278 40.6076 86.2325 40.2027 85.9226 39.9884L85.6843 39.8217ZM88.9496 43.7038C89.1879 43.9182 89.5454 43.8705 89.7599 43.6324C89.9744 43.3942 89.9506 43.0131 89.7123 42.7988L89.4977 42.6082C89.2356 42.3939 88.8781 42.4415 88.6636 42.7035C88.449 42.9655 88.4967 43.3227 88.7589 43.5371L88.9734 43.7276L88.9496 43.7038ZM92.8107 45.9188C92.62 45.7044 92.2864 45.7044 92.0719 45.895C91.8573 46.0855 91.8573 46.4189 92.048 46.6333L92.2387 46.8476C92.4294 47.062 92.7392 47.0858 92.9537 46.8953C93.1682 46.7047 93.1921 46.3951 93.0014 46.1808L92.8107 45.9664V45.9188ZM94.8605 50.1582L95.0273 50.3963C95.1465 50.5869 95.4087 50.6583 95.6232 50.5154C95.8377 50.3963 95.8853 50.1105 95.7662 49.92L95.5993 49.6818C95.4563 49.4913 95.1941 49.4198 94.9796 49.5627C94.789 49.7056 94.7175 49.9676 94.8605 50.182V50.1582ZM97.9113 54.0641L97.7921 53.8021C97.6967 53.6116 97.4822 53.5402 97.3154 53.6354C97.1247 53.7307 97.0532 53.945 97.1486 54.1118L97.2677 54.3737C97.3392 54.5405 97.5537 54.6357 97.7206 54.5405C97.9113 54.469 97.9828 54.2547 97.9113 54.0641ZM99.0076 57.9939C98.8646 58.0415 98.7693 58.2082 98.817 58.3511L98.8885 58.6369C98.9361 58.7798 99.0791 58.8751 99.2221 58.8275C99.3652 58.7798 99.4605 58.6369 99.4128 58.494L99.3413 58.2082C99.2936 58.0653 99.1268 57.9701 98.9838 58.0177L99.0076 57.9939ZM100.247 62.7573C100.247 62.7573 100.128 62.5667 100.009 62.5905C99.8895 62.5905 99.818 62.7096 99.8418 62.8287L99.8895 63.1145C99.8895 63.1145 100.009 63.305 100.104 63.2812C100.223 63.2812 100.295 63.1621 100.271 63.0669V62.7811H100.247V62.7573ZM100.199 67.6873C100.199 67.6873 100.247 67.8064 100.319 67.8064C100.39 67.8064 100.438 67.7588 100.438 67.6873V67.4015C100.438 67.3301 100.39 67.2824 100.319 67.2824C100.247 67.2824 100.199 67.3301 100.199 67.4015V67.6873ZM99.8657 72.3316C99.8657 72.3316 99.9133 72.3316 99.9133 72.284L99.961 71.9982C99.961 71.9743 99.961 71.9505 99.9133 71.9505C99.8657 71.9505 99.8657 71.9505 99.8657 71.9982L99.818 72.284C99.818 72.284 99.818 72.3316 99.8657 72.3316ZM36.7048 69.3307L36.681 69.0211C36.5856 67.9969 35.7276 67.2586 34.7266 67.3301C33.7017 67.4015 32.9152 68.2827 32.9867 69.3069V69.6403C32.9867 69.6403 32.9867 69.6879 33.0105 69.7118C33.1058 70.7359 34.0115 71.498 35.0364 71.4027C36.0613 71.3075 36.824 70.4024 36.7286 69.3783L36.7048 69.3307ZM36.5856 64.4482V64.1386C36.6333 63.186 35.9183 62.3762 34.9649 62.2809C33.9877 62.1856 33.1297 62.924 33.0343 63.9005V64.2339C33.0343 64.2339 33.0105 64.2815 33.0105 64.3053C32.9628 65.2818 33.7017 66.1154 34.7027 66.1631C35.6799 66.2107 36.5141 65.4724 36.5618 64.4721L36.5856 64.4482ZM37.1815 59.6134L37.253 59.3038C37.4437 58.3988 36.8716 57.5176 35.9898 57.3032C35.0841 57.0889 34.1784 57.6366 33.9639 58.5417L33.8924 58.8751V58.9227C33.7017 59.8278 34.2975 60.7328 35.2032 60.9234C36.1089 61.1139 37.0146 60.5185 37.2053 59.6134H37.1815ZM36.4188 55.8742C37.253 56.1838 38.1825 55.7551 38.4924 54.9215L38.5877 54.6119C38.8737 53.7783 38.4924 52.8971 37.682 52.5637C36.8716 52.2302 35.9183 52.6351 35.5846 53.4449L35.4654 53.7545C35.4654 53.7545 35.4654 53.7783 35.4654 53.8021C35.1556 54.6357 35.5846 55.5646 36.4188 55.8742ZM40.4945 50.444L40.6375 50.1582C41.0188 49.4198 40.7805 48.5386 40.0893 48.1099C39.3742 47.6812 38.4447 47.9194 38.0157 48.6339L37.8489 48.9197C37.8489 48.9197 37.8489 48.9435 37.825 48.9673C37.4198 49.7056 37.682 50.6345 38.4209 51.0394C39.1597 51.4443 40.0893 51.1823 40.4945 50.444ZM43.1401 46.3237L43.3307 46.0617C43.7836 45.4424 43.6883 44.5612 43.0924 44.0849C42.4727 43.5847 41.5908 43.68 41.0903 44.2992L40.8758 44.5612C40.8758 44.5612 40.8758 44.585 40.852 44.6089C40.3753 45.2281 40.4945 46.1331 41.138 46.6095C41.7577 47.0858 42.6634 46.9667 43.1401 46.3237ZM44.7846 40.4409L44.5463 40.6553C44.5463 40.6553 44.5463 40.6553 44.5224 40.6791C43.9981 41.2031 43.9743 42.0605 44.5224 42.5844C45.0468 43.1084 45.9048 43.1322 46.4292 42.5844L46.6437 42.3701C47.1681 41.8461 47.1919 41.0363 46.6914 40.4885C46.1908 39.9408 45.3328 39.8931 44.7846 40.3933V40.4409ZM48.9795 37.178L48.6935 37.3685C48.6935 37.3685 48.6696 37.3685 48.6696 37.3924C48.0976 37.7972 47.9784 38.5832 48.3836 39.1548C48.7888 39.7264 49.5753 39.8455 50.1473 39.4406L50.4095 39.2501C50.9577 38.8452 51.1007 38.0831 50.7194 37.5114C50.338 36.9398 49.5515 36.7731 48.9795 37.178ZM53.6033 34.582L53.2935 34.7249H53.2696C52.6976 35.0107 52.4593 35.7252 52.7691 36.3206C53.0551 36.8922 53.7702 37.1304 54.366 36.8208L54.652 36.6779C55.2002 36.3921 55.4386 35.7014 55.1764 35.1298C54.8904 34.5344 54.1992 34.2962 53.6271 34.582H53.6033ZM58.8945 34.8678L59.1805 34.7725C59.7287 34.582 60.0386 33.9866 59.8717 33.4388C59.7049 32.8672 59.0852 32.5337 58.5132 32.7243L58.2033 32.8195H58.1795C57.6075 33.0101 57.2976 33.6293 57.4883 34.2009C57.679 34.7725 58.2987 35.0821 58.8707 34.8916L58.8945 34.8678ZM63.709 33.6055L64.0189 33.5579C64.5433 33.4626 64.9008 32.9624 64.8293 32.4385C64.7578 31.8907 64.2334 31.5096 63.709 31.5811L63.3754 31.6287C63.3754 31.6287 63.3754 31.6287 63.3515 31.6287C62.8033 31.724 62.4458 32.2479 62.5412 32.7957C62.6365 33.3435 63.1609 33.7008 63.709 33.6055ZM68.6666 33.0815H68.9764C69.477 33.0815 69.8583 32.6766 69.8583 32.1765C69.8583 31.6763 69.4531 31.2714 68.9526 31.2476H68.6189C68.6189 31.2476 68.6189 31.2476 68.5951 31.2476C68.0946 31.2476 67.6894 31.6763 67.7132 32.2003C67.7132 32.7005 68.1422 33.1053 68.6666 33.0815ZM73.8625 31.6287C73.4096 31.5811 72.9806 31.8907 72.9329 32.367C72.8853 32.8434 73.1951 33.2482 73.6718 33.2959L73.9816 33.3435C74.4107 33.3911 74.8158 33.0815 74.8873 32.6528C74.9588 32.2003 74.649 31.7716 74.1961 31.7002L73.8625 31.6525C73.8625 31.6525 73.8625 31.6525 73.8386 31.6525L73.8625 31.6287ZM78.9868 32.7957C78.5816 32.6766 78.1765 32.9148 78.0811 33.3197C77.962 33.7246 78.2003 34.1295 78.6055 34.2247L78.9153 34.32C79.2967 34.4391 79.7019 34.2009 79.821 33.8198C79.9402 33.4388 79.7257 33.0101 79.3443 32.891L79.0345 32.7957C79.0345 32.7957 79.0345 32.7957 79.0107 32.7957H78.9868ZM83.8967 34.7011C83.563 34.5582 83.1817 34.7011 83.0148 35.0345C82.848 35.3679 83.0148 35.749 83.3485 35.9157L83.6345 36.0348C83.9444 36.1777 84.3257 36.0348 84.4926 35.7252C84.6594 35.3918 84.4926 35.0107 84.1827 34.844L83.8967 34.7011ZM88.4252 37.2971C88.163 37.1304 87.8055 37.2018 87.6387 37.4638C87.4718 37.7258 87.5433 38.083 87.8055 38.2498L88.0677 38.4165C88.3299 38.5832 88.6636 38.5118 88.8304 38.2736C88.9972 38.0116 88.9496 37.6544 88.6874 37.4876L88.4252 37.2971ZM91.8097 40.56C91.6428 40.7744 91.6428 41.0602 91.8573 41.2507L92.0957 41.465C92.2864 41.6318 92.5962 41.6318 92.763 41.4412C92.9537 41.2507 92.9299 40.9411 92.7392 40.7505L92.5009 40.5362C92.2864 40.3695 92.0004 40.3695 91.8097 40.5838V40.56ZM96.2667 44.5612L96.076 44.2992C95.933 44.1325 95.6708 44.1087 95.504 44.2516C95.3372 44.3945 95.3133 44.6565 95.4563 44.8232L95.6708 45.0614C95.8138 45.2281 96.0522 45.2519 96.219 45.109C96.3859 44.9661 96.4097 44.7279 96.2905 44.5612H96.2667ZM99.0076 48.5624C98.9123 48.4195 98.7216 48.3719 98.5786 48.4672C98.4356 48.5624 98.3879 48.753 98.4833 48.8959L98.6501 49.1579C98.7455 49.3008 98.9123 49.3484 99.0791 49.2531C99.2221 49.1579 99.2698 48.9673 99.1983 48.8244L99.0315 48.5386L99.0076 48.5624ZM100.986 53.6831C100.986 53.6831 101.153 53.8498 101.272 53.8021C101.391 53.7545 101.439 53.6354 101.391 53.5163L101.272 53.2067C101.224 53.0876 101.081 53.04 100.962 53.0876C100.843 53.1353 100.795 53.2782 100.843 53.3973L100.962 53.6831H100.986ZM102.559 58.2082L102.63 58.5179C102.63 58.5179 102.726 58.6369 102.797 58.6131C102.869 58.6131 102.916 58.5179 102.893 58.4464L102.821 58.1368C102.821 58.0653 102.726 58.0177 102.654 58.0415C102.583 58.0415 102.535 58.1368 102.559 58.2082ZM103.56 63.1621C103.56 63.1621 103.512 63.186 103.512 63.2336V63.5432C103.512 63.5432 103.584 63.5908 103.608 63.5908C103.631 63.5908 103.655 63.567 103.655 63.5432V63.2336H103.631C103.631 63.2098 103.608 63.186 103.56 63.186V63.1621ZM34.9411 78.524L34.8219 78.1905C34.4405 77.1188 33.2965 76.571 32.224 76.9282C31.1514 77.2855 30.5556 78.4525 30.9131 79.5481L31.0322 79.9053C31.0322 79.9053 31.0322 79.953 31.0322 79.9768C31.4374 81.0486 32.6291 81.5963 33.7017 81.1914C34.7742 80.7866 35.3224 79.5957 34.9172 78.524H34.9411ZM31.8903 75.6898C32.9628 75.4516 33.6302 74.4037 33.4157 73.3557L33.3442 73.0223C33.1297 71.9743 32.1286 71.2837 31.0799 71.4742C30.0074 71.6647 29.2923 72.6889 29.483 73.7606L29.5545 74.1179C29.5545 74.1179 29.5545 74.1655 29.5545 74.1893C29.7929 75.2611 30.8416 75.9279 31.8903 75.7136V75.6898ZM30.8892 69.9737C31.9379 69.9023 32.7245 69.0211 32.653 67.9731V67.6159C32.5815 66.5918 31.7473 65.8058 30.7224 65.8296C29.6975 65.8534 28.8633 66.7108 28.8872 67.7588V68.1398C28.8872 68.1398 28.8872 68.1875 28.8872 68.2113C28.9587 69.2592 29.8405 70.0452 30.8892 69.9737ZM31.1752 60.2565C30.198 60.1374 29.3162 60.8281 29.197 61.8046L29.1493 62.1856C29.1493 62.1856 29.1493 62.2333 29.1493 62.2571C29.054 63.2336 29.7929 64.1148 30.7701 64.1863C31.7473 64.2815 32.6291 63.5432 32.7006 62.5667L32.7245 62.2095C32.8198 61.233 32.1286 60.3756 31.1752 60.2565ZM33.5587 57.1841L33.6302 56.8507C33.8447 55.9456 33.3203 55.0644 32.4385 54.8024C31.5328 54.5405 30.6032 55.0644 30.3649 55.9695L30.2695 56.3267V56.3743C30.055 57.2794 30.6032 58.1844 31.5089 58.4226C32.4146 58.6369 33.3203 58.0892 33.5587 57.1841ZM35.2271 51.9921L35.3462 51.6586C35.6561 50.8489 35.2986 49.9438 34.5359 49.5866C33.7255 49.2293 32.796 49.5866 32.4385 50.3963L32.2955 50.7298C32.2955 50.7298 32.2955 50.7536 32.2955 50.7774C31.9618 51.5872 32.3431 52.516 33.1773 52.8495C33.9877 53.1829 34.9172 52.8018 35.2509 51.9682L35.2271 51.9921ZM35.5846 47.6098C36.2996 48.0385 37.2053 47.8003 37.6343 47.0858L37.8012 46.7762C38.2064 46.0617 37.9919 45.1805 37.3245 44.7518C36.6333 44.2992 35.7038 44.5136 35.2509 45.2043L35.0602 45.5139C35.0602 45.5139 35.0602 45.5377 35.0364 45.5615C34.6074 46.276 34.8457 47.1811 35.5608 47.6098H35.5846ZM38.8499 40.4885L38.6115 40.7744C38.6115 40.7744 38.6115 40.7982 38.5877 40.822C38.0872 41.4174 38.1825 42.2986 38.7784 42.7988C39.3742 43.2989 40.2561 43.2037 40.7566 42.6082L40.9711 42.3224C41.4478 41.727 41.3763 40.8696 40.8043 40.3695C40.2323 39.8693 39.3504 39.9169 38.8261 40.5124L38.8499 40.4885ZM43.0686 36.3682L42.7826 36.6064C42.7826 36.6064 42.7825 36.6064 42.7587 36.6302C42.2344 37.1066 42.1867 37.9402 42.6634 38.4641C43.1401 38.9881 43.9743 39.0357 44.4986 38.5594L44.7608 38.3212C45.2851 37.8449 45.3328 37.0351 44.88 36.5111C44.4033 35.9634 43.5929 35.8919 43.0447 36.3682H43.0686ZM47.8354 32.9386L47.5256 33.1292H47.5017C46.9535 33.5102 46.7867 34.2485 47.1681 34.8202C47.5494 35.3679 48.2883 35.5347 48.8603 35.1536L49.1463 34.9631C49.6945 34.6058 49.8375 33.8675 49.5038 33.3197C49.1463 32.7481 48.4074 32.5814 47.8354 32.9386ZM53.0551 30.2473L52.7214 30.3902H52.6976C52.1494 30.6522 51.8872 31.3191 52.1494 31.8669C52.4116 32.4147 53.079 32.6766 53.6271 32.4147L53.937 32.2718C54.4852 32.0098 54.7235 31.3667 54.4852 30.8189C54.2468 30.2473 53.6033 29.9853 53.0313 30.2473H53.0551ZM58.7992 30.4379L59.1329 30.3426C59.6572 30.1759 59.9671 29.6519 59.8241 29.1041C59.6811 28.5563 59.1329 28.2467 58.5847 28.3896L58.2272 28.4849C58.2272 28.4849 58.2272 28.4849 58.2033 28.4849C57.6551 28.6516 57.3453 29.2232 57.5121 29.7472C57.679 30.295 58.251 30.6046 58.7754 30.4379H58.7992ZM64.2096 29.2232L64.5433 29.1756C65.0199 29.1041 65.3774 28.6516 65.3298 28.1753C65.2821 27.6751 64.8293 27.3179 64.3049 27.3655L63.9474 27.4131C63.9474 27.4131 63.9474 27.4131 63.9236 27.4131C63.423 27.4846 63.0655 27.9609 63.137 28.4611C63.2085 28.9612 63.6852 29.3185 64.1857 29.247L64.2096 29.2232ZM69.763 28.8183H70.1205C70.5733 28.8183 70.9308 28.4849 70.9547 28.0324C70.9547 27.5798 70.621 27.1988 70.1681 27.175H69.8106C69.8106 27.175 69.8106 27.175 69.7868 27.175C69.3339 27.175 68.9526 27.5322 68.9526 28.0085C68.9526 28.4611 69.3101 28.8421 69.7868 28.8421L69.763 28.8183ZM75.936 27.8656L75.5785 27.7942C75.5785 27.7942 75.5785 27.7942 75.5547 27.7942C75.1495 27.7227 74.7682 28.0085 74.7205 28.4134C74.649 28.8183 74.935 29.1994 75.3402 29.247L75.6739 29.2947C76.0552 29.3661 76.4366 29.1041 76.5081 28.7231C76.5796 28.3182 76.3174 27.9371 75.936 27.8656ZM81.5371 29.4137L81.2034 29.2947C80.8697 29.1994 80.5122 29.3661 80.3931 29.6995C80.2977 30.033 80.4646 30.3902 80.7982 30.5093L81.1319 30.6284C81.4656 30.7237 81.7993 30.5569 81.9184 30.2473C82.0376 29.9139 81.8708 29.5566 81.5371 29.4376V29.4137ZM86.0179 32.5576L86.3278 32.7243C86.59 32.8434 86.8998 32.7481 87.0428 32.4861C87.1858 32.2241 87.0905 31.8907 86.8283 31.7716L86.5185 31.6049C86.2563 31.462 85.9226 31.6049 85.8034 31.8431C85.6604 32.105 85.8034 32.4385 86.0418 32.5576H86.0179ZM91.4045 34.6534C91.19 34.5105 90.9278 34.5582 90.7848 34.7725C90.6418 34.9869 90.6895 35.2489 90.904 35.3918L91.19 35.5823C91.3807 35.7252 91.6428 35.6776 91.7858 35.487C91.9288 35.2965 91.8812 35.0107 91.6905 34.8678L91.4045 34.6534ZM95.79 38.3927C95.647 38.2498 95.4325 38.2736 95.2895 38.3927C95.1465 38.5356 95.1703 38.7499 95.2895 38.8928L95.5517 39.131C95.6947 39.2501 95.9092 39.2501 96.0284 39.131C96.1714 38.9881 96.1714 38.7737 96.0284 38.6547L95.7662 38.3927H95.79ZM99.1506 43.0369L99.3651 43.3227C99.3651 43.3227 99.6035 43.4418 99.6988 43.3704C99.818 43.2989 99.8418 43.1322 99.7465 43.0131L99.532 42.7273C99.4366 42.6082 99.2936 42.6082 99.1745 42.6797C99.0553 42.775 99.0553 42.9179 99.1268 43.0369H99.1506ZM102.63 47.5621C102.63 47.5621 102.487 47.4669 102.416 47.5145C102.344 47.5621 102.321 47.6574 102.368 47.7289L102.535 48.0385C102.535 48.0385 102.678 48.1337 102.75 48.1099C102.821 48.0623 102.845 47.967 102.821 47.8956L102.654 47.586L102.63 47.5621ZM105.062 53.1353L104.942 52.8018C104.942 52.778 104.895 52.7542 104.871 52.778C104.847 52.778 104.823 52.8256 104.847 52.8495L104.966 53.1829C104.966 53.1829 105.014 53.2305 105.038 53.2067C105.062 53.2067 105.085 53.1591 105.062 53.1353ZM35.6323 88.9557L35.4178 88.6461C34.7027 87.622 33.3203 87.36 32.2716 88.0507C31.2229 88.7414 30.9131 90.1704 31.6281 91.2421L31.8664 91.5994C31.8664 91.5994 31.8903 91.647 31.9141 91.6708C32.653 92.7188 34.083 92.9569 35.1317 92.2186C36.1805 91.4803 36.4188 90.0513 35.6799 89.0033L35.6323 88.9557ZM28.5535 85.7643C28.5535 85.7643 28.5535 85.8119 28.5773 85.8357C29.1255 86.9075 30.4602 87.3362 31.5328 86.7884C32.6053 86.2406 33.0343 84.9069 32.4861 83.8351L32.3193 83.4779C31.7949 82.4061 30.5079 81.9774 29.4353 82.4776C28.339 82.9777 27.8623 84.2876 28.3866 85.3832L28.5535 85.7643ZM28.8157 80.9533C29.912 80.596 30.5079 79.4052 30.1265 78.3096L30.0074 77.9286C29.6499 76.833 28.5296 76.2614 27.4333 76.571C26.3369 76.9044 25.6934 78.0476 26.027 79.167L26.1462 79.5719C26.1462 79.5719 26.1462 79.6195 26.1462 79.6433C26.5037 80.7389 27.6954 81.3344 28.7918 80.9533H28.8157ZM28.625 72.4745L28.5535 72.0934C28.3628 71.0217 27.3856 70.3072 26.3369 70.4501C25.2643 70.593 24.5016 71.5933 24.6447 72.6889L24.6923 73.0937C24.6923 73.0937 24.6923 73.1414 24.6923 73.1652C24.883 74.2369 25.9079 74.9753 26.9804 74.7847C28.053 74.5942 28.7918 73.5701 28.6011 72.4983L28.625 72.4745ZM24.2633 66.4965C24.2633 66.4965 24.2633 66.5441 24.2633 66.5679C24.2633 67.6159 25.1452 68.4256 26.1939 68.4018C27.2426 68.378 28.053 67.5206 28.0291 66.4727V66.0916C28.0053 65.0675 27.1949 64.2577 26.17 64.2339C25.1452 64.2339 24.2871 65.0437 24.2871 66.0916V66.4965H24.2633ZM24.7877 59.923V59.9707C24.6685 60.9472 25.3597 61.8284 26.3131 61.9475C27.2903 62.0666 28.1721 61.3759 28.2913 60.4232L28.339 60.0421C28.4581 59.0895 27.8146 58.2082 26.8612 58.0653C25.9079 57.8986 25.0022 58.5655 24.8353 59.5182L24.7638 59.923H24.7877ZM26.4084 53.1114L26.2892 53.4925V53.5401C26.0509 54.4214 26.5514 55.3502 27.4333 55.5884C28.3151 55.8266 29.2447 55.3264 29.483 54.4452L29.5784 54.0641C29.8167 53.1829 29.34 52.3017 28.482 52.0159C27.6001 51.7301 26.6706 52.2302 26.4084 53.0876V53.1114ZM30.9607 46.3237C30.198 45.9426 29.2685 46.2522 28.8872 47.0382L28.6965 47.3954C28.6965 47.3954 28.6965 47.4192 28.6965 47.4431C28.339 48.229 28.6965 49.1579 29.483 49.4913C30.2695 49.8485 31.1991 49.4913 31.5328 48.7053L31.6996 48.3481C32.0333 47.5621 31.6996 46.6809 30.9607 46.2998V46.3237ZM31.9856 41.727C31.9856 41.727 31.9856 41.7508 31.9618 41.7747C31.5328 42.4415 31.7234 43.3466 32.3908 43.7753C33.0582 44.204 33.9639 44.0134 34.3929 43.3466L34.6074 43.0131C35.0364 42.3463 34.8457 41.465 34.2022 41.0363C33.5348 40.5838 32.653 40.7505 32.2001 41.3936L31.9618 41.727H31.9856ZM36.3473 36.3206L36.0613 36.6064C36.0613 36.6064 36.0613 36.6064 36.0374 36.6302C35.5369 37.178 35.6084 38.0354 36.1566 38.5356C36.7048 39.0357 37.5628 38.9643 38.0634 38.4165L38.3255 38.1307C38.8022 37.5829 38.7546 36.7493 38.2302 36.273C37.682 35.7728 36.8478 35.7966 36.3473 36.3206ZM41.1856 31.9383L40.8758 32.2003C40.8758 32.2003 40.8758 32.2003 40.852 32.2241C40.3276 32.6766 40.2561 33.4388 40.709 33.9627C41.1618 34.4867 41.9245 34.5582 42.4489 34.1056L42.7349 33.8437C43.2354 33.415 43.3307 32.6528 42.9017 32.1289C42.4727 31.6049 41.71 31.5096 41.1618 31.9145L41.1856 31.9383ZM46.2385 28.5325C46.2385 28.5325 46.2385 28.5325 46.2147 28.5325C45.6903 28.866 45.5235 29.5566 45.8333 30.0806C46.167 30.6046 46.8582 30.7713 47.3826 30.4617L47.7162 30.2473C48.2406 29.9139 48.4074 29.247 48.0976 28.7231C47.7878 28.1753 47.0966 27.9847 46.5722 28.2943L46.2147 28.4849L46.2385 28.5325ZM52.4593 25.5792L52.0779 25.7221C52.0779 25.7221 52.0779 25.7221 52.0541 25.7221C51.5297 25.9365 51.2914 26.5557 51.5059 27.0797C51.7204 27.6037 52.3401 27.8418 52.8645 27.6275L53.222 27.4608C53.7225 27.2464 53.9608 26.6748 53.7702 26.1508C53.5556 25.6269 52.9836 25.3649 52.4593 25.5792ZM58.7038 25.5792L59.0852 25.484C59.5619 25.3649 59.8479 24.8885 59.7526 24.3884C59.6334 23.8882 59.1567 23.5786 58.6562 23.6977L58.251 23.793C58.251 23.793 58.251 23.793 58.2272 23.793C57.7266 23.9121 57.4406 24.4122 57.5598 24.9124C57.679 25.4125 58.1795 25.6983 58.68 25.5792H58.7038ZM64.8054 24.436L65.1868 24.3884C65.6158 24.3408 65.9495 23.9597 65.9018 23.531C65.878 23.0785 65.4728 22.745 65.0438 22.7927H64.6386C64.6386 22.7927 64.6386 22.8165 64.6148 22.8165C64.1619 22.8641 63.8521 23.269 63.8997 23.7215C63.9474 24.174 64.3526 24.4837 64.8054 24.436ZM71.0262 24.2217H71.4075C71.7889 24.2217 72.0987 23.9597 72.1464 23.5786C72.1702 23.1976 71.8842 22.8641 71.5029 22.8165H71.0977V22.7927C70.7163 22.7927 70.3827 23.0785 70.3588 23.4595C70.3588 23.8406 70.6448 24.174 71.0262 24.1979V24.2217ZM77.8666 23.8406L77.4853 23.7453C77.1516 23.6739 76.8417 23.8882 76.7702 24.2217C76.6987 24.5551 76.9132 24.8647 77.2469 24.9362L77.6283 25.0076C77.9381 25.0791 78.248 24.8647 78.3195 24.5551C78.391 24.2455 78.2003 23.9121 77.8666 23.8406ZM83.992 25.7698L83.6107 25.6269C83.3485 25.5316 83.0625 25.6745 82.9672 25.9365C82.8718 26.1985 83.0148 26.4843 83.277 26.5795L83.6345 26.7224C83.8729 26.8177 84.1589 26.6986 84.2542 26.4366C84.3495 26.1747 84.2304 25.9127 83.9682 25.7936L83.992 25.7698ZM89.3786 28.3658C89.1879 28.2705 88.9496 28.342 88.8542 28.5325C88.7589 28.7231 88.8304 28.9612 89.0211 29.0565L89.3786 29.247C89.5693 29.3423 89.7838 29.2708 89.8791 29.1041C89.9744 28.9136 89.9268 28.6754 89.7361 28.5802L89.3786 28.3896V28.3658ZM94.6936 31.9383C94.5745 31.8431 94.3838 31.8669 94.2884 31.986C94.1931 32.105 94.2169 32.2956 94.3361 32.3908L94.646 32.629C94.646 32.629 94.932 32.7005 95.0273 32.5814C95.1226 32.4623 95.0988 32.2956 94.9796 32.2003L94.6698 31.9621L94.6936 31.9383ZM99.6512 36.7731C99.6512 36.7731 99.7227 36.6064 99.6512 36.535L99.389 36.2492C99.3175 36.1777 99.1983 36.1777 99.1506 36.2492C99.0791 36.3206 99.0791 36.4397 99.1506 36.4873L99.4367 36.7731C99.4367 36.7731 99.6035 36.8446 99.675 36.7731H99.6512ZM103.369 41.1792C103.369 41.1792 103.298 41.1316 103.274 41.1792C103.25 41.1792 103.226 41.2507 103.274 41.2745L103.512 41.5841C103.512 41.5841 103.56 41.6079 103.608 41.5841C103.631 41.5841 103.655 41.5127 103.608 41.4889L103.393 41.1554L103.369 41.1792ZM39.3742 99.8876L39.0644 99.6256H39.0406C37.9919 98.7444 36.4188 98.8397 35.5131 99.8876C34.5835 100.936 34.6789 102.555 35.7276 103.484L36.0851 103.794C36.0851 103.794 36.1328 103.841 36.1566 103.841C37.253 104.746 38.8499 104.58 39.7556 103.508C40.6613 102.412 40.4945 100.816 39.4219 99.9114L39.3742 99.8876ZM34.5359 95.291L34.2499 94.9814C33.368 93.9811 31.8903 93.8858 30.8892 94.7194C29.8644 95.5768 29.7214 97.1249 30.6032 98.149L30.8892 98.5063C30.8892 98.5063 30.9369 98.5539 30.9369 98.5777C31.8426 99.578 33.3918 99.6495 34.3929 98.7682C35.3939 97.8632 35.4654 96.3151 34.5836 95.3148L34.5359 95.291ZM30.4364 90.0275L30.198 89.6702C29.5068 88.6223 28.1245 88.2888 27.0519 88.9557C25.9555 89.6226 25.6219 91.0516 26.2892 92.1472L26.5276 92.5521C26.5276 92.5521 26.5514 92.5997 26.5752 92.6235C27.2903 93.6953 28.7203 93.9811 29.7929 93.2904C30.8654 92.5997 31.1514 91.1469 30.4602 90.0751L30.4364 90.0275ZM22.9286 85.5499L23.1193 85.9786C23.1193 85.9786 23.1193 86.0263 23.1431 86.0501C23.6436 87.1456 24.9545 87.6458 26.0747 87.1218C27.1949 86.5979 27.6716 85.3118 27.1473 84.1924L26.9804 83.7875C26.4799 82.6919 25.2167 82.2156 24.1441 82.6681C23.0239 83.1444 22.4996 84.4305 22.9763 85.5499H22.9286ZM22.1182 76.047C20.998 76.3328 20.3306 77.4522 20.6167 78.5716L20.7358 79.0241C20.7358 79.0241 20.7358 79.0717 20.7358 79.0956C21.0695 80.1911 22.2136 80.8342 23.3338 80.5008C24.4301 80.1673 25.0737 79.0241 24.74 77.9047L24.6208 77.476C24.311 76.3805 23.1908 75.7374 22.1182 76.0232V76.047ZM23.2623 70.9026C23.1193 69.8308 22.1659 69.0925 21.1172 69.1878C20.0446 69.3069 19.2581 70.2595 19.3773 71.3313L19.4249 71.7838C19.4249 71.7838 19.4249 71.8315 19.4249 71.8553C19.5679 72.927 20.569 73.6892 21.6415 73.5463C22.7141 73.4034 23.4768 72.4031 23.3338 71.3313L23.2861 70.9026H23.2623ZM21.1172 62.2809C20.0923 62.2333 19.2343 63.0192 19.1866 64.0434V64.4959C19.1866 64.4959 19.1866 64.5435 19.1866 64.5673C19.1866 65.5914 19.997 66.425 21.0218 66.4489C22.0467 66.4489 22.8809 65.6391 22.9048 64.615V64.1863C22.9048 63.186 22.1421 62.3524 21.141 62.3047L21.1172 62.2809ZM20.0208 57.2556V57.3032C19.8778 58.2559 20.5213 59.1371 21.4509 59.28C22.4042 59.4229 23.2861 58.7798 23.4291 57.851L23.5006 57.4223C23.6436 56.4934 23.0478 55.6122 22.1421 55.4455C21.2125 55.255 20.3068 55.8742 20.1161 56.8031L20.0208 57.2556ZM22.0706 49.8009L21.9275 50.2296V50.2773C21.6654 51.1347 22.1182 52.0397 22.9763 52.3017C23.8343 52.5637 24.74 52.1111 25.0022 51.2537L25.1213 50.825C25.3835 49.9914 24.9545 49.1102 24.1203 48.8006C23.2861 48.491 22.3566 48.9435 22.0706 49.7771V49.8009ZM27.0758 42.5606C26.3607 42.1795 25.455 42.4415 25.0498 43.156L24.8353 43.5609C24.8353 43.5609 24.8353 43.5847 24.8353 43.6085C24.4778 44.3469 24.7638 45.2519 25.5027 45.6092C26.2416 45.9664 27.1473 45.6806 27.5048 44.9423L27.6954 44.5612C28.053 43.8229 27.7669 42.9655 27.0758 42.5844V42.5606ZM28.7203 37.44C28.7203 37.44 28.7203 37.4638 28.6965 37.4876C28.2675 38.1069 28.4105 38.9643 29.0302 39.393C29.6499 39.8217 30.5079 39.6788 30.9369 39.0595L31.1752 38.7023C31.6043 38.0831 31.4613 37.2495 30.8654 36.8208C30.2695 36.3682 29.4115 36.4873 28.9587 37.1066L28.6965 37.4638L28.7203 37.44ZM33.7732 31.6525L33.4633 31.9621C33.4633 31.9621 33.4633 31.9621 33.4395 31.986C32.9628 32.4861 32.9867 33.2959 33.4872 33.7722C33.9877 34.2486 34.7981 34.2247 35.2747 33.7246L35.5608 33.415C36.0136 32.9148 36.0136 32.1527 35.5608 31.6763C35.0841 31.1762 34.2737 31.1762 33.797 31.6763L33.7732 31.6525ZM38.683 28.8898C39.0644 29.3899 39.7794 29.4614 40.2799 29.0803L40.6136 28.8183C41.0903 28.4373 41.1856 27.7466 40.8281 27.2464C40.4468 26.7463 39.7556 26.6272 39.2312 27.0082L38.8737 27.2702C38.8737 27.2702 38.8737 27.2702 38.8499 27.2702C38.3494 27.6513 38.2779 28.3658 38.6592 28.866L38.683 28.8898ZM44.9991 23.4357C44.9991 23.4357 44.9991 23.4357 44.9753 23.4357C44.4748 23.7215 44.3079 24.3408 44.594 24.8409C44.88 25.3411 45.4997 25.5078 46.0002 25.222L46.3815 25.0076C46.8582 24.7218 47.025 24.1264 46.7867 23.6501C46.5245 23.1499 45.9048 22.9594 45.4043 23.2214L44.9991 23.4357ZM52.0064 20.411L51.5774 20.5539C51.5774 20.5539 51.5774 20.5539 51.5536 20.5539C51.0769 20.7444 50.8624 21.2446 51.0292 21.7209C51.2199 22.1973 51.7204 22.4116 52.1971 22.2449L52.6023 22.0782C53.0551 21.9115 53.2935 21.4113 53.1266 20.935C52.9598 20.4586 52.4593 20.2205 51.9826 20.3872L52.0064 20.411ZM58.7992 20.2443L59.2282 20.149C59.6334 20.0537 59.8956 19.6489 59.8241 19.244C59.7526 18.8153 59.3474 18.5533 58.9184 18.6247L58.4893 18.6962C58.4893 18.6962 58.4893 18.6962 58.4655 18.6962C58.0365 18.7914 57.7743 19.2202 57.8697 19.625C57.965 20.0537 58.394 20.3157 58.7992 20.2205V20.2443ZM65.6635 19.2202L66.0925 19.1963C66.45 19.1725 66.7122 18.8629 66.7122 18.5056C66.7122 18.1484 66.4023 17.8626 66.021 17.8626H65.5681C65.2106 17.8864 64.9246 18.196 64.9484 18.5771C64.9723 18.9344 65.2821 19.2202 65.6635 19.1963V19.2202ZM73.1474 18.1722L72.6946 18.1246C72.3847 18.1008 72.1226 18.3151 72.0987 18.6247C72.0749 18.9344 72.2894 19.1963 72.5992 19.2202L73.0283 19.244C73.3143 19.244 73.5764 19.0534 73.6003 18.7676C73.6241 18.458 73.4096 18.196 73.1236 18.1722H73.1474ZM80.1309 19.5298L79.7019 19.4107C79.4635 19.3631 79.2252 19.506 79.1775 19.7441C79.1298 19.9823 79.2728 20.2205 79.5112 20.2681L79.9402 20.3634C80.1547 20.411 80.3931 20.2919 80.4407 20.0537C80.5122 19.8156 80.3692 19.6012 80.1309 19.5298ZM86.161 22.2925L86.5661 22.4592C86.7091 22.5307 86.8998 22.4592 86.9713 22.2925C87.0428 22.1258 86.9713 21.9591 86.8045 21.8876L86.3993 21.7209C86.2325 21.6495 86.0656 21.7209 85.9941 21.8876C85.9226 22.0543 85.9941 22.2211 86.161 22.2925ZM92.6677 24.9838C92.5724 24.9362 92.4532 24.9838 92.4055 25.0553C92.3579 25.1267 92.4055 25.2696 92.477 25.3173L92.8584 25.5316C92.8584 25.5316 93.0491 25.5554 93.1206 25.4601C93.1682 25.3649 93.1444 25.2458 93.0491 25.1982L92.6677 24.96V24.9838ZM98.3641 29.1518C98.3403 29.1279 98.2926 29.1518 98.2449 29.1518C98.1973 29.1518 98.2449 29.2232 98.2449 29.2708L98.5786 29.5566C98.5786 29.5566 98.6501 29.5566 98.674 29.5566C98.6978 29.5328 98.674 29.4852 98.674 29.4614L98.3403 29.1756L98.3641 29.1518ZM43.6644 115.511L44.1173 115.75C44.1173 115.75 44.1888 115.773 44.2126 115.797C45.6427 116.44 47.3349 115.821 47.9784 114.392C48.6219 112.963 48.0023 111.272 46.5722 110.629L46.1432 110.438H46.1193C44.737 109.795 43.0924 110.367 42.4012 111.725C41.71 113.13 42.282 114.821 43.6644 115.535V115.511ZM39.6603 106.818H39.6364C38.4209 106.009 36.7763 106.318 35.9421 107.509C35.0841 108.724 35.3939 110.415 36.6095 111.272L37.0385 111.558C37.0385 111.558 37.0862 111.605 37.11 111.605C38.3732 112.415 40.0416 112.058 40.852 110.82C41.6623 109.557 41.3048 107.89 40.0654 107.08L39.6841 106.818H39.6603ZM30.6509 106.413C30.6509 106.413 30.6986 106.461 30.7224 106.461C31.7949 107.414 33.4157 107.318 34.369 106.247C35.3224 105.175 35.2271 103.555 34.1545 102.603L33.797 102.293H33.7732C32.7483 101.364 31.1514 101.412 30.198 102.436C29.2208 103.46 29.2685 105.104 30.2934 106.08L30.6747 106.437L30.6509 106.413ZM25.1213 100.388C25.1213 100.388 25.169 100.435 25.169 100.459C26.027 101.507 27.5763 101.626 28.625 100.769C29.6737 99.9115 29.7929 98.3634 28.9348 97.3154L28.625 96.9343C27.7908 95.9102 26.2892 95.7435 25.2643 96.5533C24.1918 97.3869 24.0011 98.9111 24.8353 99.9829L25.1452 100.388H25.1213ZM20.569 93.6C20.569 93.6 20.5928 93.6476 20.6167 93.6714C21.284 94.767 22.7141 95.1243 23.8105 94.4574C24.9068 93.7905 25.2643 92.3615 24.597 91.266L24.3586 90.8611C23.7151 89.7893 22.3327 89.4082 21.2602 90.0275C20.14 90.6467 19.7586 92.0519 20.3783 93.1713L20.6405 93.6238L20.569 93.6ZM17.0653 86.2406C17.0653 86.2406 17.0653 86.2882 17.0892 86.3121C17.5659 87.4314 18.8291 87.9554 19.9493 87.4791C21.0695 87.0027 21.5939 85.7404 21.1172 84.6211L20.9265 84.1685C20.4737 83.073 19.2343 82.5252 18.1379 82.9539C17.0177 83.3826 16.4457 84.6449 16.8747 85.7643L17.0653 86.2406ZM14.7058 78.4763C14.7058 78.4763 14.7058 78.524 14.7058 78.5478C14.9918 79.6434 16.112 80.3102 17.2084 80.0244C18.3047 79.7386 18.9721 78.6192 18.6861 77.5237L18.5669 77.0473C18.3047 75.9518 17.2322 75.2849 16.1358 75.523C15.0394 75.7612 14.3244 76.8568 14.5628 77.9524L14.6819 78.4525L14.7058 78.4763ZM17.3514 70.1405L17.3037 69.6641C17.2084 68.6162 16.3027 67.854 15.2778 67.9255C14.2291 67.9969 13.4187 68.902 13.4902 69.9737V70.4739C13.4902 70.4739 13.5379 70.5215 13.5379 70.5453C13.657 71.5933 14.5866 72.3792 15.6591 72.2601C16.7078 72.1411 17.4944 71.2122 17.3752 70.1405H17.3514ZM15.2301 64.3053C16.2311 64.353 17.0653 63.5908 17.113 62.5905V62.1142C17.1607 61.1377 16.4457 60.3041 15.4685 60.2327C14.4912 60.1612 13.6332 60.8757 13.5379 61.876L13.4902 62.3762C13.4902 62.3762 13.4902 62.4238 13.4902 62.4476C13.4425 63.4479 14.2052 64.2815 15.2063 64.3292L15.2301 64.3053ZM14.7534 54.3976V54.4452C14.5627 55.3502 15.1586 56.2314 16.0643 56.3982C16.97 56.5887 17.8519 55.9933 18.0187 55.0882L18.1141 54.6119C18.2809 53.7307 17.7327 52.8733 16.8747 52.6589C15.9928 52.4446 15.0871 52.9924 14.8964 53.8974L14.7773 54.3976H14.7534ZM17.3275 46.2522L17.1369 46.7285C17.1369 46.7285 17.1369 46.7524 17.1369 46.7762C16.8508 47.5621 17.256 48.4434 18.0664 48.7292C18.8529 49.015 19.7348 48.6101 20.0208 47.8003L20.1876 47.3478C20.4737 46.5618 20.0923 45.7044 19.3296 45.3948C18.5431 45.0852 17.6612 45.4663 17.3514 46.2522H17.3275ZM21.1887 41.4174C21.8799 41.7747 22.7141 41.5365 23.0954 40.8458L23.3099 40.4171C23.6674 39.7502 23.4291 38.9166 22.7856 38.5356C22.1182 38.1545 21.2602 38.3689 20.8788 39.0357L20.6167 39.4644C20.6167 39.4644 20.6167 39.4882 20.6167 39.5121C20.2591 40.2027 20.4975 41.0363 21.1887 41.4174ZM25.4789 32.4623L25.169 32.8434C25.169 32.8434 25.169 32.8434 25.1452 32.8672C24.7162 33.4388 24.8353 34.2247 25.4074 34.6534C25.9794 35.0821 26.7659 34.9631 27.1711 34.3914L27.4571 34.0104C27.8623 33.4626 27.7669 32.7005 27.2426 32.2718C26.6944 31.8431 25.9079 31.9145 25.4789 32.4623ZM32.1763 28.6278L32.51 28.2943C32.939 27.8656 32.9628 27.175 32.5576 26.7224C32.1286 26.2699 31.4136 26.2461 30.9607 26.651L30.6032 26.9844C30.6032 26.9844 30.6032 26.9844 30.5794 27.0082C30.1265 27.4369 30.1265 28.1753 30.5794 28.604C31.0084 29.0565 31.7473 29.0565 32.1763 28.604V28.6278ZM36.5856 23.4357C36.9193 23.8882 37.539 23.9835 37.9919 23.6501L38.3732 23.3643C38.8022 23.0308 38.9214 22.4354 38.6115 21.9829C38.3017 21.5304 37.682 21.4113 37.2292 21.7209L36.824 22.0067C36.824 22.0067 36.824 22.0067 36.8001 22.0067C36.3473 22.3402 36.252 22.9594 36.5856 23.4119V23.4357ZM43.6883 18.0531C43.2592 18.2675 43.0924 18.7914 43.3069 19.2202C43.5214 19.6489 44.0458 19.8156 44.4748 19.6012L44.9038 19.3869C45.309 19.1725 45.4758 18.6724 45.2851 18.2437C45.0706 17.815 44.5701 17.6244 44.1411 17.8388L43.6883 18.0531C43.6883 18.0531 43.6882 18.0531 43.6644 18.0531H43.6883ZM51.5774 14.9808L51.1007 15.1237C50.7194 15.2666 50.5049 15.6714 50.6479 16.0763C50.7909 16.4574 51.196 16.6718 51.6012 16.5289L52.0541 16.3621C52.4354 16.2192 52.6261 15.8382 52.5069 15.4571C52.3878 15.076 51.9826 14.8617 51.5774 14.9808ZM59.0137 14.5521L59.4904 14.4568C59.8002 14.3853 60.0147 14.0995 59.9671 13.7661C59.9194 13.4327 59.6096 13.2183 59.2759 13.266L58.7754 13.3374C58.4417 13.4089 58.2272 13.7185 58.2748 14.0519C58.3225 14.3853 58.6562 14.5997 58.9899 14.5521H59.0137ZM66.7122 13.6708H67.1889C67.451 13.6708 67.6417 13.4565 67.6417 13.1945C67.6417 12.9325 67.4272 12.7182 67.165 12.7182H66.6645C66.4023 12.7182 66.1878 12.9563 66.2117 13.2183C66.2355 13.4803 66.45 13.6947 66.7122 13.6708ZM75.0303 13.3374L74.5537 13.266C74.363 13.266 74.1961 13.385 74.1723 13.5756C74.1723 13.7661 74.2915 13.9328 74.4821 13.9566L74.9588 14.0043C75.1495 14.0043 75.3164 13.909 75.3402 13.7185C75.364 13.5279 75.2449 13.3612 75.0542 13.3374H75.0303ZM82.6811 15.1237L82.2045 14.9808C82.0853 14.9569 81.9661 15.0284 81.9423 15.1475C81.9184 15.2666 81.99 15.3856 82.1091 15.4095L82.5858 15.5285C82.5858 15.5285 82.8003 15.5047 82.848 15.3856C82.8718 15.2666 82.8242 15.1475 82.705 15.1237H82.6811ZM89.5216 17.7911C89.4739 17.7911 89.4262 17.7911 89.4024 17.8388C89.4024 17.8864 89.4024 17.934 89.4501 17.9579L89.9029 18.1484C89.9029 18.1484 89.9983 18.1484 89.9983 18.1008C89.9983 18.0531 89.9983 18.0055 89.9506 18.0055L89.4977 17.7911H89.5216ZM59.9909 124.3C60.2769 122.585 59.1329 120.942 57.393 120.656L56.8924 120.561H56.8448C55.1764 120.275 53.5795 121.37 53.2458 123.038C52.8883 124.752 54.0085 126.396 55.7007 126.753L56.2728 126.872C56.2728 126.872 56.3443 126.872 56.3681 126.872C58.0842 127.158 59.7287 126.015 60.0147 124.276L59.9909 124.3ZM51.3391 121.918C51.8634 120.346 50.9815 118.631 49.4085 118.131L48.908 117.965H48.8603C47.3349 117.464 45.6665 118.25 45.1183 119.775C44.5463 121.323 45.3567 123.061 46.9297 123.609L47.4779 123.8C47.4779 123.8 47.5494 123.824 47.5732 123.824C49.1463 124.347 50.8624 123.466 51.3629 121.894L51.3391 121.918ZM43.0447 118.893C43.7598 117.488 43.1877 115.75 41.7577 115.059L41.3048 114.821H41.281C39.8986 114.13 38.2302 114.654 37.4913 116.012C36.7286 117.393 37.253 119.132 38.6354 119.894L39.1359 120.156C39.1359 120.156 39.2074 120.18 39.2312 120.203C40.6375 120.918 42.3774 120.346 43.0686 118.917L43.0447 118.893ZM35.2986 114.63C36.1566 113.392 35.8706 111.701 34.6312 110.843L34.2022 110.534H34.1784C32.9867 109.676 31.3421 109.938 30.4602 111.105C29.5545 112.296 29.7929 114.011 30.9846 114.892L31.4374 115.226C31.4374 115.226 31.4851 115.273 31.5089 115.273C32.7483 116.131 34.4405 115.845 35.2986 114.606V114.63ZM24.597 109.271C24.597 109.271 24.6447 109.319 24.6685 109.343C25.6934 110.319 27.3379 110.296 28.3151 109.271C29.2923 108.247 29.2685 106.604 28.2436 105.627L27.8623 105.246C26.8612 104.27 25.2882 104.27 24.2871 105.246C23.2623 106.247 23.2623 107.866 24.2395 108.867L24.6447 109.271H24.597ZM22.6187 99.4589L22.3089 99.054C21.5224 98.0061 20.0446 97.7918 18.9721 98.5539C17.8996 99.3398 17.6374 100.84 18.4239 101.936L18.7576 102.388C18.7576 102.388 18.7814 102.436 18.8053 102.46C19.6156 103.532 21.1648 103.722 22.2136 102.889C23.2861 102.079 23.4768 100.531 22.6426 99.4827L22.6187 99.4589ZM17.9949 92.5282L17.7327 92.0519C17.1369 90.9563 15.8021 90.5514 14.7058 91.123C13.5855 91.6946 13.1565 93.076 13.7286 94.1954L13.9907 94.6956C13.9907 94.6956 14.0146 94.7432 14.0384 94.767C14.6581 95.8626 16.0405 96.2675 17.1369 95.6482C18.2332 95.029 18.6384 93.6476 18.0187 92.5521L17.9949 92.5282ZM10.3918 86.4311C10.3918 86.4311 10.3917 86.4788 10.4156 86.5026C10.8446 87.5982 12.0602 88.1698 13.1804 87.7411C14.2767 87.3124 14.8488 86.0977 14.4197 84.9783L14.2291 84.4782C13.8239 83.3826 12.6322 82.8348 11.5596 83.1921C10.4394 83.5731 9.84356 84.7878 10.2249 85.8834L10.4156 86.4073L10.3918 86.4311ZM8.10366 77.8095C8.342 78.8812 9.39071 79.5719 10.4633 79.3337C11.5358 79.0956 12.227 78.0476 11.9886 76.9759L11.8695 76.4519C11.6311 75.3801 10.6301 74.7133 9.58138 74.9038C8.50884 75.0944 7.79381 76.1423 7.98449 77.214L8.07982 77.7618C8.07982 77.7618 8.07982 77.8095 8.07982 77.8333L8.10366 77.8095ZM7.10262 68.8305C7.10262 68.8305 7.10262 68.8782 7.10262 68.902C7.17412 69.9261 8.05599 70.6882 9.05703 70.6168C10.0819 70.5453 10.8446 69.6641 10.7731 68.6638L10.7493 68.116C10.6778 67.1157 9.84356 66.3536 8.86635 66.3774C7.84148 66.4012 7.05495 67.2586 7.07878 68.2589V68.8067L7.10262 68.8305ZM9.00936 61.7808C9.9389 61.8522 10.7731 61.1615 10.8446 60.2327L10.8923 59.6849C10.9638 58.756 10.3202 57.9463 9.41454 57.851C8.48501 57.7319 7.65081 58.3988 7.53164 59.3276L7.46013 59.8754V59.923C7.38863 60.8519 8.07982 61.6855 9.00936 61.7569V61.7808ZM9.12853 51.1823C8.93786 52.0159 9.43838 52.8495 10.2726 53.0638C11.1068 53.2544 11.941 52.7542 12.1555 51.9206L12.2747 51.3966C12.4653 50.5631 11.9886 49.7533 11.1783 49.5389C10.3441 49.3246 9.50988 49.8009 9.27154 50.6107L9.12853 51.1585V51.2061V51.1823ZM12.2985 42.2272L12.084 42.7273C12.084 42.7273 12.084 42.7511 12.084 42.775C11.798 43.4895 12.1555 44.3231 12.8705 44.6089C13.5855 44.8947 14.4197 44.5374 14.7058 43.8229L14.8964 43.3227C15.1824 42.6082 14.8488 41.8223 14.1576 41.5127C13.4425 41.2031 12.6322 41.5127 12.3223 42.2272H12.2985ZM16.6363 36.6302C17.2322 36.9875 18.0187 36.7731 18.3762 36.1777L18.6384 35.7014C18.9721 35.106 18.8053 34.3676 18.2332 33.9866C17.6374 33.6055 16.8747 33.796 16.4933 34.3676L16.2073 34.844C16.2073 34.844 16.2073 34.8678 16.2073 34.8916C15.8498 35.487 16.0643 36.273 16.6602 36.6302H16.6363ZM23.1669 29.1756L23.5006 28.7469C23.882 28.2705 23.8105 27.6037 23.3576 27.1988C22.9048 26.7939 22.1897 26.8415 21.7845 27.3179L21.427 27.7227C21.427 27.7227 21.427 27.7227 21.4032 27.7466C21.0218 28.2229 21.0933 28.9374 21.57 29.3185C22.0467 29.6995 22.7617 29.6281 23.1431 29.1518L23.1669 29.1756ZM28.9825 22.9356L29.3877 22.5783C29.769 22.2211 29.8167 21.6256 29.4592 21.2446C29.1255 20.8397 28.5058 20.7921 28.1006 21.1493L27.6716 21.5066C27.6716 21.5066 27.6716 21.5066 27.6478 21.5066C27.2426 21.8638 27.2188 22.4831 27.5763 22.8879C27.9338 23.2928 28.5535 23.3166 28.9587 22.9594L28.9825 22.9356ZM35.6799 17.6244L36.1328 17.3148C36.4903 17.0528 36.6095 16.5765 36.3711 16.1954C36.1328 15.8144 35.6323 15.6953 35.2509 15.9334L34.7742 16.2192C34.3929 16.4812 34.2975 16.9814 34.5597 17.3624C34.8219 17.7435 35.3224 17.8388 35.7038 17.5768L35.6799 17.6244ZM42.5204 12.1227C42.1867 12.2895 42.0437 12.6944 42.2105 13.0278C42.3774 13.3612 42.7825 13.5041 43.1162 13.3374L43.5929 13.0992C43.9266 12.9325 44.0696 12.5514 43.9266 12.218C43.7836 11.8846 43.3784 11.7179 43.0447 11.8608L42.5442 12.0751L42.5204 12.1227ZM51.1007 10.1936L51.6251 10.0269C51.8872 9.9316 52.0541 9.66962 51.9826 9.38382C51.9111 9.09801 51.6251 8.9313 51.3391 9.00275L50.8147 9.14565C50.5287 9.24092 50.3619 9.52672 50.4572 9.81252C50.5525 10.0983 50.8385 10.265 51.1245 10.1698L51.1007 10.1936ZM59.4904 8.26443L60.0147 8.19298C60.2054 8.16916 60.3484 7.97863 60.3246 7.76427C60.3246 7.54992 60.1101 7.40702 59.8956 7.43084L59.3474 7.50229C59.1329 7.52611 58.9899 7.74046 59.0137 7.95481C59.0375 8.16916 59.252 8.31206 59.4665 8.28824L59.4904 8.26443ZM68.1184 7.59756H68.6666C68.7858 7.59756 68.9049 7.50229 68.9049 7.38321C68.9049 7.26412 68.8096 7.14504 68.6904 7.14504H68.1422C67.9992 7.14504 67.9039 7.26412 67.9039 7.38321C67.9039 7.52611 68.0231 7.62137 68.1422 7.62137L68.1184 7.59756ZM76.7941 8.05008C76.7464 8.05008 76.6987 8.07389 76.6749 8.12153C76.6749 8.16916 76.6987 8.21679 76.7464 8.24061L77.2708 8.31206C77.2708 8.31206 77.3661 8.31206 77.3661 8.24061C77.3661 8.19298 77.3661 8.14534 77.2946 8.14534L76.7702 8.05008H76.7941ZM55.6769 127.777C55.5816 127.587 55.4624 127.42 55.3432 127.277C55.224 127.134 55.081 126.967 54.9142 126.848C54.6044 126.586 54.223 126.372 53.8178 126.253C53.7225 126.229 53.6033 126.205 53.508 126.181H53.4841L52.9121 126.062H52.8645C52.6499 126.015 52.4593 125.991 52.2448 125.991C51.6251 125.991 51.0292 126.158 50.5287 126.491C50.195 126.705 49.909 126.991 49.6707 127.301C49.4323 127.634 49.2655 128.015 49.1463 128.42C49.051 128.849 49.0271 129.278 49.0986 129.682C49.3131 130.897 50.2188 131.945 51.4821 132.255L52.1018 132.398C52.1018 132.398 52.1733 132.398 52.1971 132.398C52.3163 132.398 52.4116 132.445 52.5308 132.445C53.3888 132.54 54.223 132.255 54.8427 131.755C55.0095 131.635 55.1525 131.493 55.2717 131.326C55.6054 130.921 55.8437 130.445 55.9629 129.921C56.0344 129.587 56.0344 129.278 56.0106 128.968C56.0106 128.754 55.9391 128.563 55.8914 128.349C55.8199 128.158 55.7484 127.968 55.6531 127.777H55.6769ZM15.3969 101.722L15.0633 101.245C14.6819 100.697 14.1576 100.388 13.5617 100.293C13.4187 100.269 13.2757 100.245 13.1089 100.245C12.656 100.245 12.2032 100.388 11.8218 100.65C11.1544 101.102 10.7731 101.841 10.7731 102.603C10.7731 103.055 10.8923 103.508 11.1783 103.936L11.5358 104.46C11.5358 104.46 11.5596 104.508 11.5835 104.532C11.9648 105.056 12.5368 105.389 13.1327 105.485C13.2757 105.508 13.4425 105.508 13.5855 105.508C13.7285 105.508 13.8954 105.485 14.0384 105.461C14.1814 105.437 14.3482 105.365 14.4912 105.318C14.6343 105.246 14.7773 105.175 14.8964 105.08C15.3016 104.794 15.5876 104.413 15.7306 103.984C15.7783 103.841 15.826 103.698 15.8498 103.532C15.9451 102.936 15.826 102.293 15.4208 101.769L15.3969 101.722ZM6.81661 85.2403L6.72127 84.9545L6.62593 84.6687C6.57826 84.5496 6.53059 84.4067 6.45909 84.3114C6.31609 84.0733 6.14925 83.8827 5.95857 83.7398C5.7679 83.5731 5.52955 83.454 5.29121 83.3826C5.17204 83.335 5.05287 83.3111 4.90986 83.3111C4.79069 83.3111 4.64769 83.3111 4.52851 83.3111C4.38551 83.3111 4.26634 83.3588 4.12333 83.3826C3.71815 83.5017 3.38447 83.7398 3.12229 84.0495C3.05079 84.1447 2.95545 84.2638 2.90778 84.3829C2.66944 84.8354 2.59794 85.407 2.74094 85.931L2.93162 86.5264C2.93162 86.5264 2.93162 86.574 2.93162 86.5979C3.28913 87.6696 4.45701 88.2412 5.52955 87.884C5.79173 87.7887 6.03007 87.6458 6.24458 87.4791C6.84044 86.9551 7.10262 86.0977 6.81661 85.2879V85.2403ZM1.09638 68.5447C1.31089 68.6162 1.52539 68.6638 1.76374 68.6638C2.71711 68.64 3.47981 67.854 3.43214 66.8776V66.2821C3.43214 65.7105 3.12229 65.2104 2.66944 64.9008C2.40726 64.7102 2.07358 64.615 1.7399 64.615C1.38239 64.615 1.04871 64.7102 0.786532 64.9008C0.595857 65.0198 0.452851 65.1866 0.309846 65.3533C0.238343 65.4485 0.190674 65.5438 0.143006 65.6391C0.0476686 65.8534 0 66.0678 0 66.306V66.9252V66.9728C0 67.6873 0.476686 68.2827 1.09638 68.5447ZM3.88499 49.2055C4.62385 49.4198 5.41038 48.9673 5.60106 48.229L5.7679 47.6574C5.86323 47.2763 5.81557 46.9191 5.64873 46.6095C5.48189 46.2998 5.19587 46.0617 4.83836 45.9426C4.64769 45.895 4.45701 45.8711 4.29017 45.895C3.74198 45.9426 3.2653 46.3237 3.09846 46.8714L2.90778 47.4669C2.90778 47.4669 2.90778 47.4907 2.90778 47.5145C2.69327 48.2528 3.14613 49.0388 3.88499 49.2293V49.2055ZM41.2572 6.33527C41.3763 6.45435 41.567 6.47817 41.7338 6.43053L42.282 6.19237C42.282 6.19237 42.3774 6.14473 42.425 6.0971C42.4965 6.02565 42.5442 5.90656 42.5442 5.8113C42.5442 5.76366 42.5442 5.69221 42.5204 5.64458C42.4727 5.5255 42.4012 5.45405 42.3059 5.40641C42.2105 5.35878 42.0914 5.35878 41.9722 5.40641L41.4002 5.62076C41.2333 5.69221 41.138 5.85893 41.138 6.02565C41.138 6.07328 41.138 6.14473 41.1618 6.19237C41.1618 6.24 41.2095 6.28763 41.2572 6.33527ZM71.6697 126.967H71.6459L71.0738 127.015H71.0262C69.1671 127.205 67.7609 128.825 67.8801 130.707C67.9992 132.636 69.6676 134.112 71.5744 133.993L72.2179 133.946C72.2179 133.946 72.3132 133.946 72.3371 133.946C74.2676 133.755 75.6739 132.04 75.507 130.111C75.3164 128.182 73.6003 126.777 71.6697 126.944V126.967ZM62.5173 127.205H62.4935L61.9215 127.182H61.8738C60.0862 127.086 58.537 128.42 58.3702 130.23C58.2033 132.064 59.5619 133.684 61.3971 133.85L62.0407 133.898C62.0407 133.898 62.1122 133.898 62.1598 133.898C63.9951 133.993 65.592 132.588 65.6873 130.73C65.7826 128.896 64.3764 127.301 62.5173 127.205ZM44.5701 123.633L44.0219 123.419H43.9743C42.4489 122.847 40.7566 123.585 40.1369 125.11C40.0654 125.3 39.9939 125.491 39.9701 125.705C39.7794 126.682 40.1131 127.682 40.8043 128.373C41.0903 128.658 41.424 128.873 41.8053 129.039L42.4012 129.278C42.4012 129.278 42.4727 129.301 42.4965 129.325C42.6872 129.397 42.9017 129.444 43.0924 129.468C43.2831 129.492 43.4976 129.516 43.6883 129.492C43.8789 129.468 44.0696 129.444 44.2603 129.397C45.2136 129.158 46.024 128.492 46.3815 127.491C46.6675 126.705 46.6199 125.872 46.2862 125.181C45.9525 124.49 45.3566 123.895 44.594 123.609L44.5701 123.633ZM36.1566 119.87L35.6561 119.584H35.6323C34.7981 119.108 33.8209 119.108 33.0105 119.513C32.5338 119.751 32.1048 120.132 31.8188 120.632C31.7234 120.799 31.6281 120.965 31.5804 121.156C31.3421 121.871 31.3898 122.633 31.6996 123.3C31.8664 123.633 32.081 123.943 32.367 124.181C32.51 124.3 32.653 124.419 32.8436 124.514L33.3918 124.824C33.3918 124.824 33.4157 124.824 33.4395 124.848C33.4395 124.848 33.4633 124.848 33.4872 124.871C33.654 124.967 33.8447 125.038 34.0115 125.086C34.1784 125.133 34.369 125.181 34.5597 125.205C34.7504 125.205 34.9411 125.205 35.1079 125.205C36.0136 125.11 36.8716 124.586 37.3483 123.728C38.0157 122.514 37.7058 121.037 36.681 120.18C36.538 120.06 36.3711 119.941 36.2043 119.846L36.1566 119.87ZM28.3628 114.868L27.91 114.511H27.8861C27.4571 114.154 26.9566 113.987 26.4561 113.963C25.7887 113.916 25.0975 114.13 24.5493 114.559C24.4063 114.678 24.2871 114.797 24.168 114.94C23.6913 115.511 23.5006 116.226 23.5721 116.917C23.5721 117.083 23.6198 117.25 23.6674 117.417C23.8105 117.917 24.1203 118.369 24.5493 118.727L25.026 119.132C25.026 119.132 25.0737 119.179 25.0975 119.179C25.2405 119.298 25.4074 119.394 25.5742 119.465C25.9079 119.632 26.2416 119.703 26.5991 119.727C27.1234 119.751 27.6478 119.632 28.1006 119.37C28.4105 119.203 28.6726 118.965 28.911 118.655C29.3638 118.06 29.5307 117.345 29.4353 116.655C29.34 115.964 28.9825 115.321 28.3866 114.868H28.3628ZM21.4032 108.747L20.998 108.343C20.7597 108.081 20.4975 107.89 20.1876 107.771C19.9016 107.652 19.568 107.58 19.2581 107.557C18.9483 107.557 18.6146 107.604 18.3286 107.7C18.1856 107.747 18.0187 107.819 17.8996 107.914C17.7565 108.009 17.6135 108.104 17.4944 108.224C17.113 108.581 16.8508 109.009 16.7317 109.486C16.684 109.653 16.6602 109.795 16.6602 109.962C16.6363 110.605 16.8508 111.272 17.3275 111.772L17.7565 112.225C17.7565 112.225 17.8042 112.272 17.8042 112.296C18.1617 112.677 18.6384 112.915 19.1151 113.011C19.7586 113.154 20.426 113.011 20.998 112.653C21.141 112.558 21.284 112.463 21.4032 112.344C21.5224 112.225 21.6415 112.082 21.7369 111.939C22.4042 110.962 22.3089 109.629 21.4509 108.747H21.4032ZM10.4871 93.7667L10.2249 93.2427C9.67672 92.171 8.38967 91.7423 7.31713 92.2424C6.62593 92.5759 6.19691 93.1951 6.07774 93.9096C6.00624 94.3383 6.07774 94.767 6.26842 95.1719L6.53059 95.7435C6.53059 95.7435 6.53059 95.7911 6.55443 95.815C6.62593 95.9579 6.69743 96.0769 6.79277 96.196C7.24562 96.7676 7.96065 97.0772 8.67568 97.0058C8.96169 97.0058 9.2477 96.9105 9.50988 96.7676C9.65289 96.6962 9.77206 96.6247 9.89123 96.5295C10.1296 96.3389 10.2964 96.1246 10.4394 95.8626C10.5824 95.6006 10.6539 95.3386 10.7016 95.0528C10.7493 94.767 10.7016 94.4812 10.6301 94.1954C10.5824 94.0525 10.5348 93.9096 10.4633 93.7667H10.4871ZM4.12333 77.5713C4.26634 77.3808 4.36167 77.1426 4.40934 76.9044C4.45701 76.6663 4.48085 76.4043 4.40934 76.1661L4.31401 75.5707C4.14717 74.6895 3.43214 74.0464 2.5741 73.9988C2.45493 73.9988 2.33576 73.9988 2.19275 73.9988C2.07358 73.9988 1.93058 74.0464 1.81141 74.094C1.33472 74.2608 0.977206 74.618 0.762697 75.0467C0.595857 75.3801 0.548189 75.7374 0.595857 76.1423L0.691194 76.7615C0.691194 76.7615 0.691194 76.8092 0.691194 76.833C0.738863 77.095 0.8342 77.3331 0.977206 77.5237C1.16788 77.8333 1.45389 78.0714 1.78757 78.2143C2.12125 78.3572 2.5026 78.4049 2.88395 78.3573C3.4083 78.262 3.83732 77.9762 4.0995 77.5713H4.12333ZM1.26322 58.494C1.50156 58.6846 1.78757 58.8275 2.09742 58.8751C2.21659 58.8751 2.31193 58.8751 2.40726 58.8751C2.5026 58.8751 2.62177 58.8513 2.71711 58.8275C3.09846 58.7084 3.43214 58.4464 3.64665 58.0892C3.74198 57.9224 3.81349 57.7081 3.83732 57.4937L3.90882 56.8983C3.95649 56.5649 3.90882 56.2791 3.76582 56.0171C3.55131 55.5884 3.12229 55.255 2.59794 55.1835C1.7399 55.0644 0.953372 55.636 0.8342 56.4934L0.738863 57.1127C0.738863 57.1127 0.738863 57.1127 0.738863 57.1365C0.738863 57.1365 0.738863 57.1365 0.738863 57.1603C0.715029 57.3747 0.738863 57.589 0.786532 57.7795C0.881869 58.0653 1.04871 58.3273 1.26322 58.5417V58.494ZM7.12645 39.9646C7.12645 39.9646 7.29329 40.036 7.36479 40.036C7.93682 40.1551 8.53268 39.8693 8.77102 39.3215L9.00936 38.7737C9.27154 38.1545 9.00936 37.44 8.4135 37.1542C8.2705 37.0827 8.10366 37.0351 7.93682 37.0351C7.46013 37.0113 6.98345 37.2733 6.76894 37.7258L6.50676 38.2736C6.50676 38.2736 6.50676 38.2974 6.50676 38.3212C6.43526 38.4879 6.41142 38.6308 6.38759 38.7976C6.38759 39.131 6.50676 39.4406 6.72127 39.6788C6.84044 39.7979 6.95961 39.8931 7.12645 39.9646ZM11.4166 31.0095C11.4166 31.0095 11.6073 31.2238 11.7265 31.2953C11.798 31.3429 11.8456 31.3667 11.9171 31.3905C12.1793 31.4858 12.4892 31.4858 12.7275 31.3905C12.8467 31.3429 12.9659 31.2476 13.0612 31.1524C13.1089 31.1047 13.1565 31.0333 13.2042 30.9856L13.514 30.4855C13.514 30.4855 13.5855 30.3426 13.6094 30.295C13.6332 30.2473 13.657 30.1759 13.657 30.1044C13.7285 29.6995 13.5617 29.2708 13.2042 29.0327C13.0135 28.9136 12.8228 28.8421 12.6083 28.8421C12.4653 28.8421 12.3462 28.866 12.2032 28.9136C12.1317 28.9374 12.084 28.9612 12.0125 29.0089C11.8933 29.0803 11.798 29.1756 11.7026 29.2947L11.3451 29.7948C11.3451 29.7948 11.3451 29.7948 11.3451 29.8186C11.226 30.0092 11.1783 30.2235 11.1783 30.4379C11.1783 30.5808 11.2021 30.7237 11.2736 30.8427C11.2975 30.9142 11.3451 30.9618 11.369 31.0333L11.4166 31.0095ZM17.5897 23.4357C17.5897 23.4357 17.8042 23.5786 17.8996 23.6263C18.0187 23.6739 18.1379 23.6739 18.2571 23.6739C18.3762 23.6739 18.4954 23.6263 18.5907 23.5786C18.6861 23.531 18.8053 23.4595 18.8768 23.3643L19.2581 22.9118C19.568 22.5307 19.5441 21.9829 19.1866 21.6495C18.9959 21.4827 18.7576 21.3875 18.5431 21.4113C18.3047 21.4113 18.0902 21.5066 17.8996 21.6971L17.4944 22.1496C17.4467 22.1973 17.4229 22.2449 17.3752 22.2925C17.2799 22.4592 17.256 22.626 17.256 22.8165C17.256 22.8641 17.256 22.9356 17.2799 22.9832C17.3275 23.1499 17.4229 23.3166 17.5659 23.4357H17.5897ZM24.5493 16.5289C24.5493 16.5289 24.6923 16.6718 24.7877 16.7194C24.883 16.767 24.9783 16.7908 25.0737 16.7908C25.2643 16.7908 25.455 16.7432 25.6219 16.6241L26.0747 16.2431C26.0747 16.2431 26.2177 16.1002 26.2416 16.0049C26.2892 15.9096 26.3131 15.8382 26.3131 15.7429C26.3131 15.5524 26.2892 15.3618 26.1462 15.2189C26.0747 15.1475 26.0032 15.076 25.9079 15.0284C25.6457 14.8855 25.3358 14.9093 25.0975 15.0998L24.6208 15.4809C24.3825 15.6953 24.311 16.0049 24.3825 16.2907C24.4063 16.386 24.454 16.4812 24.5255 16.5527L24.5493 16.5289ZM32.8436 11.0034C32.8436 11.0034 32.9867 11.0034 33.082 11.0034C33.1535 11.0034 33.225 10.9557 33.2965 10.9319L33.797 10.6223C33.94 10.5508 34.0115 10.4079 34.0592 10.265C34.083 10.1221 34.0592 9.97924 33.9877 9.83634C33.8685 9.62198 33.6302 9.52672 33.4157 9.55053C33.3442 9.55053 33.2727 9.57435 33.2012 9.62198L32.6768 9.9316C32.6053 9.97924 32.5576 10.0269 32.51 10.0983C32.367 10.2889 32.367 10.5508 32.51 10.7652C32.6053 10.9081 32.7245 11.0034 32.8913 11.0272L32.8436 11.0034ZM50.8147 3.2629L51.3867 3.12C51.3867 3.12 51.4582 3.09618 51.4821 3.07237C51.5536 3.00092 51.6012 2.90565 51.5774 2.81038C51.5774 2.78656 51.5774 2.73893 51.5297 2.71511C51.4821 2.66748 51.4344 2.61985 51.3629 2.61985C51.3391 2.61985 51.2914 2.61985 51.2676 2.61985L50.6717 2.76275C50.6002 2.76275 50.5525 2.8342 50.5049 2.88183C50.481 2.95328 50.4572 3.02473 50.481 3.09618C50.481 3.16763 50.5525 3.21527 50.6002 3.2629C50.6717 3.28672 50.7432 3.31053 50.8147 3.28672V3.2629ZM60.2769 1.45282L60.8728 1.38137C60.8728 1.38137 60.9204 1.38137 60.9443 1.35756C60.9443 1.35756 60.9681 1.30992 60.9443 1.28611C60.9443 1.23847 60.8966 1.19084 60.8489 1.19084L60.2531 1.23847C60.2054 1.23847 60.1816 1.28611 60.1816 1.30992C60.1816 1.30992 60.1816 1.33374 60.1816 1.35756C60.1816 1.38137 60.1816 1.40519 60.2292 1.42901C60.2769 1.45282 60.2769 1.45282 60.3007 1.42901L60.2769 1.45282ZM87.448 2.92947C87.7578 3.02473 88.0677 3.12 88.3537 3.21527C88.0439 3.12 87.734 3.02473 87.448 2.92947ZM70.8355 0C76.8656 0.452519 82.3951 1.45282 87.448 2.92947C86.876 2.76275 86.3278 2.57221 85.7558 2.42931C77.8428 0.309618 70.8355 0 70.8355 0ZM135.26 70.4263C132.495 115.916 94.0501 129.206 92.3817 129.54C92.334 129.54 92.2864 129.587 92.2387 129.611C92.2149 129.611 92.1434 129.635 92.1195 129.659L91.6667 129.825C89.7361 130.564 87.4718 129.706 86.6615 127.801C85.8273 125.824 86.7568 123.585 88.7112 122.776H88.7589L88.9019 122.704C88.0439 122.347 87.3288 121.656 86.9237 120.727C86.2086 119.036 86.8521 117.107 88.3537 116.155C87.8055 115.797 87.3527 115.297 87.0667 114.654C86.733 113.916 86.6615 113.154 86.8045 112.415C86.5661 112.725 86.2801 113.011 85.9226 113.225C86.3516 113.606 86.6853 114.13 86.876 114.702C87.448 116.488 86.5423 118.393 84.8024 119.06C85.4459 119.513 85.9226 120.18 86.161 120.989C86.7091 122.895 85.6128 124.895 83.706 125.443C83.6822 125.443 83.6345 125.443 83.5868 125.467L83.0387 125.61C83.0387 125.61 83.0148 125.61 82.991 125.61C84.0159 126.038 84.8501 126.944 85.1361 128.111C85.6366 130.087 84.421 132.064 82.4666 132.564C82.4428 132.564 82.3713 132.564 82.3475 132.588L81.8708 132.683C80.0117 133.088 78.0811 132.088 77.4853 130.278C76.8179 128.206 78.0335 126.086 80.0832 125.562H80.1309L80.6791 125.419H80.7029C80.7029 125.419 80.7506 125.419 80.7744 125.419C79.7734 124.991 78.9868 124.133 78.7008 123.014C78.248 121.204 79.249 119.37 80.9889 118.751C80.3931 118.322 79.9402 117.679 79.7019 116.917C79.249 115.345 79.9402 113.725 81.2988 112.939C80.9889 112.653 80.7506 112.296 80.5599 111.891C80.7267 113.392 79.821 114.797 78.4148 115.297C78.8438 115.75 79.1537 116.345 79.2728 117.012C79.5827 118.846 78.3433 120.584 76.5081 120.894C76.4842 120.894 76.4366 120.894 76.3889 120.894H76.2935C76.9847 121.442 77.4853 122.252 77.6044 123.18C77.8666 125.062 76.5319 126.801 74.6252 127.063C74.6013 127.063 74.5537 127.063 74.506 127.063L74.077 127.11C72.3132 127.277 70.5972 126.158 70.2396 124.419C69.8345 122.418 71.193 120.561 73.1474 120.299H73.1951L73.3381 120.275C72.6707 119.751 72.2179 118.989 72.0987 118.084C71.8842 116.44 72.8853 114.916 74.4106 114.44C74.0293 114.011 73.7433 113.463 73.6479 112.82C73.5288 112.106 73.6479 111.391 73.9578 110.796C73.6718 111.034 73.3381 111.201 72.9806 111.32C73.2666 111.772 73.4573 112.272 73.4811 112.82C73.5764 114.511 72.3132 115.94 70.6448 116.107C71.0977 116.655 71.3837 117.345 71.4075 118.107C71.4314 119.894 70.0251 121.37 68.2376 121.394C68.2137 121.394 68.1661 121.394 68.1184 121.394H67.594C67.594 121.394 67.5702 121.394 67.5464 121.394C68.3329 122.013 68.8573 122.99 68.8334 124.062C68.8096 125.896 67.2842 127.348 65.4728 127.301C65.449 127.301 65.4013 127.301 65.3536 127.301H64.9246C63.2324 127.182 61.7546 125.872 61.6593 124.181C61.5401 122.228 63.1132 120.656 64.9961 120.704H65.0438H65.5443H65.5681C65.5681 120.704 65.6158 120.704 65.6396 120.704C64.8769 120.108 64.3764 119.179 64.4002 118.131C64.4241 116.44 65.7588 115.083 67.4034 114.964C66.9743 114.44 66.7122 113.797 66.7122 113.082C66.6883 111.605 67.6655 110.367 69.0241 109.986C68.8096 109.629 68.6666 109.248 68.6189 108.795C68.4521 110.176 67.3319 111.224 65.9495 111.344C66.2117 111.844 66.3547 112.439 66.2832 113.058C66.1163 114.725 64.6386 115.94 62.9702 115.797C62.9464 115.797 62.8987 115.797 62.8749 115.797H62.7795C63.2562 116.416 63.4945 117.226 63.3992 118.084C63.1847 119.775 61.6116 120.989 59.9194 120.751C59.8956 120.751 59.8479 120.751 59.8241 120.751L59.4427 120.68C57.8697 120.418 56.6303 119.036 56.7256 117.441C56.8209 115.607 58.4655 114.297 60.2054 114.535H60.2531H60.3723C59.9194 113.94 59.6811 113.154 59.8002 112.344C59.9909 110.867 61.2303 109.795 62.6603 109.724C62.422 109.248 62.3028 108.7 62.3505 108.128C62.422 107.485 62.6842 106.89 63.0894 106.437C62.7795 106.58 62.4458 106.652 62.1122 106.652C62.2552 107.104 62.3028 107.58 62.1837 108.081C61.8738 109.581 60.4438 110.534 58.9422 110.272C59.2044 110.843 59.2997 111.51 59.1329 112.177C58.7515 113.749 57.1785 114.702 55.6054 114.297C55.5816 114.297 55.5339 114.297 55.5101 114.273L55.0572 114.154C55.0572 114.154 55.0334 114.154 55.0095 114.154C55.5577 114.868 55.7961 115.845 55.5101 116.774C55.0572 118.346 53.4126 119.274 51.8396 118.798C51.8157 118.798 51.7681 118.798 51.7442 118.774L51.3629 118.655C49.909 118.179 48.9318 116.702 49.2655 115.202C49.623 113.487 51.3629 112.487 52.9836 112.939H53.0313L53.4841 113.082C53.4841 113.082 53.5318 113.106 53.5556 113.106C53.0313 112.415 52.8168 111.486 53.079 110.581C53.4841 109.129 54.9619 108.247 56.4396 108.533C56.2013 107.985 56.1059 107.366 56.2728 106.723C56.5826 105.437 57.7505 104.58 59.0137 104.58C58.9184 104.222 58.8945 103.841 58.9422 103.46C58.4655 104.627 57.25 105.27 56.0344 105.056C56.1536 105.556 56.1297 106.104 55.9391 106.628C55.4147 108.033 53.8417 108.747 52.4354 108.224C52.4116 108.224 52.3639 108.224 52.3401 108.2H52.2686C52.5308 108.819 52.5546 109.581 52.2686 110.296C51.6727 111.725 50.052 112.391 48.6219 111.82C48.5981 111.82 48.5504 111.796 48.5266 111.772L48.2168 111.629C46.9059 111.034 46.167 109.557 46.6199 108.176C47.1442 106.604 48.8603 105.866 50.338 106.461H50.3618L50.481 106.509C50.2188 105.866 50.2188 105.151 50.481 104.46C50.9815 103.222 52.3163 102.579 53.5795 102.841C53.4841 102.365 53.508 101.864 53.6748 101.388C53.8893 100.84 54.2468 100.388 54.7235 100.102C54.4375 100.15 54.1277 100.15 53.8178 100.078C53.8178 100.507 53.7702 100.936 53.5556 101.34C52.936 102.555 51.4582 103.055 50.2427 102.507C50.338 103.079 50.2427 103.674 49.9567 104.222C49.2655 105.485 47.6686 105.961 46.4054 105.246C46.4054 105.246 46.3577 105.223 46.3339 105.199L45.9763 104.984C45.9763 104.984 45.9525 104.984 45.9287 104.961C46.2385 105.723 46.2147 106.604 45.7618 107.366C44.9991 108.628 43.3546 109.033 42.0914 108.271C42.0914 108.271 42.0437 108.247 42.0198 108.224L41.71 108.033C40.5421 107.271 40.0654 105.77 40.6851 104.532C41.4002 103.127 43.1401 102.65 44.4509 103.436H44.4748L44.8323 103.674C44.8323 103.674 44.8561 103.722 44.88 103.722C44.594 102.984 44.6178 102.126 45.0468 101.412C45.738 100.245 47.2396 99.8162 48.4313 100.412C48.3598 99.8876 48.4313 99.316 48.7173 98.7921C49.2893 97.7441 50.5049 97.2678 51.6012 97.5536C51.6012 97.2201 51.6489 96.8867 51.7919 96.5533C51.1007 97.4583 49.909 97.7441 48.8841 97.2678C48.8841 97.7203 48.7173 98.1966 48.4313 98.6015C47.6447 99.6971 46.1193 99.9591 44.9991 99.1731C44.9991 99.1731 44.9515 99.1493 44.9276 99.1255L44.88 99.0779C44.9515 99.7209 44.8085 100.388 44.3794 100.936C43.5452 102.031 41.9483 102.245 40.852 101.412C40.852 101.412 40.8043 101.364 40.7805 101.364L40.566 101.174C39.5173 100.316 39.2312 98.7921 40.0178 97.6965C40.852 96.5295 42.4727 96.3151 43.5929 97.1725H43.6167L43.6883 97.2678C43.6167 96.6485 43.7598 96.0293 44.1649 95.5053C44.9038 94.5527 46.1908 94.2907 47.2396 94.8147C47.2634 94.386 47.4064 93.9573 47.6686 93.5762C47.9784 93.1475 48.4074 92.8617 48.8841 92.695C48.6219 92.6711 48.3598 92.5759 48.0976 92.4568C48.0261 92.8379 47.8592 93.1951 47.5732 93.4809C46.739 94.4098 45.3566 94.4812 44.4033 93.7191C44.3556 94.243 44.1411 94.7432 43.7598 95.1481C42.854 96.0769 41.3525 96.1246 40.423 95.2195L40.3753 95.1719L40.1131 94.9099C40.1131 94.9099 40.1131 94.9099 40.0893 94.8861C40.1846 95.6244 39.9463 96.3866 39.3742 96.9343C38.4209 97.8632 36.8955 97.8394 35.9659 96.8629L35.9183 96.8153L35.7276 96.6009C34.8696 95.6482 34.7981 94.1478 35.7038 93.2189C36.6571 92.2424 38.2302 92.2663 39.1597 93.2189L39.4219 93.5047C39.4219 93.5047 39.4219 93.5524 39.4457 93.5524C39.3504 92.8379 39.5888 92.0995 40.1369 91.5756C41.0188 90.7182 42.4012 90.6943 43.3069 91.5041C43.3546 91.0278 43.5691 90.5514 43.9266 90.1704C44.6655 89.4082 45.8333 89.2653 46.7152 89.7655C46.7867 89.4797 46.9297 89.1939 47.1204 88.9557C46.31 89.575 45.1898 89.5511 44.4271 88.8843C44.3079 89.2892 44.0696 89.6464 43.7359 89.9322C42.8064 90.7182 41.4002 90.5753 40.6136 89.6464C40.6136 89.6464 40.5898 89.5988 40.566 89.5988L40.5183 89.5511C40.4468 90.1227 40.1369 90.6705 39.6603 91.0516C38.6592 91.8137 37.253 91.6232 36.4903 90.6467C36.4903 90.6467 36.4665 90.5991 36.4426 90.5753L36.2996 90.3609C35.5846 89.3844 35.7038 87.9792 36.6333 87.1933C37.6343 86.3835 39.0882 86.5502 39.8509 87.5505L39.8986 87.6458C39.9701 87.098 40.2561 86.574 40.7328 86.2168C41.5908 85.5499 42.7825 85.6214 43.5691 86.3359C43.6883 85.9786 43.9028 85.6214 44.2364 85.3594C44.594 85.0498 45.0468 84.9069 45.4997 84.883C45.2851 84.7878 45.0706 84.6687 44.88 84.502C44.7131 84.8116 44.4986 85.0736 44.1888 85.2879C43.2592 85.8834 42.0199 85.6452 41.3763 84.764C41.2095 85.1927 40.9235 85.5975 40.4945 85.8595C39.4934 86.455 38.1825 86.1453 37.5867 85.145C37.5867 85.145 37.5628 85.0974 37.539 85.0736L37.3722 84.7878C37.3722 84.7878 37.3722 84.764 37.3722 84.7402C37.2768 85.407 36.8955 86.0024 36.2758 86.3597C35.2271 86.9313 33.9162 86.5502 33.3203 85.5023C33.3203 85.5023 33.2965 85.4547 33.2965 85.4308L33.1773 85.1927C32.653 84.1685 32.939 82.8348 33.94 82.2394C35.0126 81.5963 36.3473 82.0012 36.9431 83.0492L37.11 83.3588C37.11 83.3588 37.11 83.4064 37.11 83.4302C37.2053 82.7872 37.5628 82.2156 38.1587 81.8821C39.1359 81.3344 40.3276 81.644 40.9473 82.549C41.1141 82.1441 41.4002 81.7869 41.8053 81.5249C42.6395 81.0247 43.6644 81.1676 44.3318 81.8345C44.4748 81.5963 44.6416 81.382 44.88 81.2153C44.0458 81.5725 43.0686 81.2867 42.568 80.5246C42.3774 80.8342 42.0675 81.12 41.71 81.2867C40.709 81.7392 39.5411 81.2867 39.0644 80.3102C39.0644 80.3102 39.0644 80.2626 39.0406 80.2388V80.1911C38.8261 80.6675 38.4447 81.0724 37.9204 81.2867C36.8716 81.7154 35.6799 81.2153 35.2509 80.1911C35.2509 80.1911 35.2509 80.1435 35.2271 80.1197L35.1556 79.9053C34.7742 78.8812 35.1794 77.6904 36.1805 77.2379C37.2292 76.7615 38.4685 77.2379 38.8976 78.3096L38.9214 78.4049C39.1121 77.9524 39.4934 77.5713 39.9701 77.3569C40.8758 76.9759 41.9007 77.3331 42.4012 78.1191C42.5919 77.8333 42.854 77.5713 43.2116 77.4284C43.5929 77.2379 44.0219 77.214 44.4033 77.3093C44.2364 77.1902 44.0696 77.0235 43.9504 76.833C43.7359 77.0711 43.4737 77.2379 43.1639 77.3569C42.2105 77.6666 41.2095 77.1664 40.852 76.2375C40.6136 76.571 40.2561 76.8568 39.8271 76.9759C38.8022 77.2617 37.7535 76.6901 37.4675 75.666C37.4675 75.666 37.4675 75.6183 37.4675 75.5945L37.396 75.3087C37.396 75.3087 37.396 75.3087 37.396 75.2849C37.1577 75.8327 36.7048 76.2852 36.0613 76.4281C35.0126 76.6901 33.9639 76.047 33.7017 74.9991C33.7017 74.9991 33.7017 74.9514 33.7017 74.9276L33.654 74.6895C33.4395 73.6653 33.9877 72.5936 35.0126 72.3078C36.0851 71.9982 37.1577 72.665 37.4437 73.713L37.5152 74.0226V74.0702C37.7297 73.5463 38.2064 73.1176 38.8022 72.9508C39.7794 72.7127 40.7566 73.2605 41.0665 74.1893C41.3048 73.8797 41.6385 73.6177 42.0437 73.4986C42.8779 73.2605 43.7359 73.6177 44.1649 74.356C44.3318 74.1893 44.5463 74.0464 44.7846 73.9511C43.9743 74.0702 43.1877 73.5939 42.9256 72.8317C42.6872 73.0699 42.3535 73.2366 41.996 73.2843C41.0188 73.451 40.0893 72.7841 39.9224 71.8314C39.9224 71.8314 39.9224 71.7838 39.9224 71.76V71.7124C39.6364 72.0934 39.2074 72.3554 38.7069 72.4031C37.7058 72.546 36.7763 71.8314 36.6571 70.8311C36.6571 70.8311 36.6571 70.7835 36.6571 70.7597V70.5453C36.538 69.5689 37.1815 68.6162 38.1587 68.4733C39.1836 68.3066 40.1369 69.0211 40.2799 70.0214V70.1166C40.566 69.7594 40.9711 69.5212 41.4478 69.4498C42.3297 69.3307 43.1162 69.8785 43.3784 70.6882C43.6167 70.4739 43.9028 70.331 44.2364 70.2595C44.4748 70.2119 44.7131 70.2357 44.9276 70.2595C44.9276 70.1405 44.9276 70.0452 44.9276 69.9499C44.7131 70.069 44.4748 70.1404 44.2126 70.1643C43.3069 70.2119 42.5442 69.545 42.4727 68.6638C42.1867 68.902 41.8292 69.0687 41.4002 69.0687C40.4468 69.0687 39.6603 68.3304 39.6364 67.3777V67.3301V67.0443C39.6364 67.0443 39.6364 67.0443 39.6364 67.0205C39.3027 67.4492 38.8022 67.7111 38.2064 67.7111C37.2292 67.7111 36.4665 66.9014 36.4903 65.9249V65.8773V65.6629C36.5618 64.734 37.3007 63.9243 38.2302 63.9005C39.2312 63.9005 40.0178 64.7102 40.0178 65.6867V65.9725V66.0201C40.3276 65.6153 40.8281 65.3533 41.4002 65.3533C42.3059 65.3533 43.0209 66.0678 43.0924 66.949C43.3784 66.7347 43.7121 66.5918 44.0934 66.5679C44.5224 66.5679 44.9038 66.7108 45.2136 66.9728C45.2613 66.5918 45.3328 66.2345 45.3805 65.8773C45.0468 66.2107 44.594 66.4012 44.0934 66.3536C43.2116 66.2821 42.568 65.4962 42.6395 64.5911V64.5435V64.4959C42.3059 64.7579 41.8768 64.8769 41.424 64.8293C40.5183 64.7102 39.8748 63.8766 39.9939 62.9716V62.924V62.7334C40.1608 61.8522 40.9473 61.1853 41.8292 61.2806C42.7587 61.3759 43.4261 62.2095 43.3069 63.1383V63.2336C43.6406 62.9954 44.0458 62.8763 44.4748 62.924C45.0706 62.9954 45.5473 63.4003 45.7618 63.9481C45.7857 63.8528 45.8095 63.7337 45.8333 63.6385C45.595 63.3288 45.4758 62.9002 45.5473 62.4953C45.2375 62.6382 44.88 62.6858 44.5224 62.5905C43.6883 62.3762 43.1877 61.5426 43.4022 60.709V60.6614L43.4737 60.4232C43.4737 60.4232 43.4737 60.4232 43.4737 60.3994C43.0924 60.6852 42.568 60.8043 42.0675 60.6614C41.2333 60.4232 40.7328 59.542 40.995 58.7084V58.6608L41.0426 58.4702C41.3048 57.6605 42.139 57.1365 42.9494 57.3508C43.8313 57.5652 44.3318 58.4702 44.0696 59.3038L43.9981 59.5658C43.9981 59.5658 43.9981 59.5896 43.9981 59.6134C44.3794 59.3276 44.8561 59.2085 45.3567 59.3514C46.1432 59.5658 46.596 60.3518 46.453 61.1377C46.4769 61.1377 46.5245 61.1139 46.5484 61.0901C46.6437 60.8519 46.7152 60.6137 46.8105 60.3756C46.5245 59.9945 46.4292 59.4705 46.596 58.9942C46.596 58.9942 46.596 58.9704 46.596 58.9466V58.8989C46.2624 59.0418 45.8572 59.0656 45.4758 58.8989C44.7131 58.5893 44.3556 57.7081 44.6655 56.9698C44.6655 56.9698 44.6655 56.9459 44.6655 56.9221L44.737 56.7792C45.0468 56.0885 45.8333 55.6598 46.5722 55.898C47.4064 56.16 47.8116 57.0889 47.5017 57.8748V57.9463C47.6209 57.8986 47.7639 57.8748 47.9069 57.851C48.0261 57.6366 48.1214 57.4223 48.2406 57.2079C47.9546 56.7792 47.9069 56.2314 48.1691 55.7789C48.1691 55.7789 48.1691 55.7551 48.1691 55.7313L48.2883 55.5408C47.8831 55.7075 47.4064 55.6837 47.0251 55.4455C46.3577 55.0406 46.1432 54.1594 46.5484 53.4925C46.5484 53.4925 46.5484 53.4687 46.5722 53.4449L46.7152 53.2305C47.2396 52.4208 48.4551 52.3255 49.0986 53.2305C49.4085 53.6831 49.4085 54.2785 49.0986 54.731L48.9795 54.9453C48.9795 54.9453 48.9795 54.9692 48.9795 54.993C49.194 54.8977 49.4323 54.8739 49.6707 54.8977C49.8137 54.7072 49.9328 54.5166 50.0758 54.3261C49.8375 53.8736 49.8613 53.302 50.195 52.8733C50.195 52.8733 50.195 52.8495 50.2188 52.8495L50.3618 52.6827C50.7194 52.2302 51.3152 52.0873 51.8396 52.2779C52.0064 52.0873 52.1971 51.9206 52.3639 51.7301C52.1494 51.2537 52.2448 50.6821 52.6499 50.3011C52.6499 50.3011 52.6499 50.3011 52.6738 50.2773L52.8406 50.1343C53.2696 49.7533 53.8655 49.7056 54.3422 49.9914C54.5567 49.8247 54.7712 49.658 54.9857 49.4913C54.8427 48.9911 54.9857 48.4434 55.4386 48.1337H55.4624L55.6531 48.0147C56.1059 47.705 56.7018 47.7527 57.107 48.1099C57.3691 47.9432 57.6313 47.8003 57.8935 47.6574C57.7981 47.1572 58.0365 46.6571 58.5132 46.4189H58.537L58.7277 46.3237C59.2044 46.1093 59.7526 46.2284 60.0862 46.6095C60.3961 46.4666 60.7298 46.3475 61.0396 46.2284C61.0396 45.7521 61.3256 45.3234 61.8023 45.1566H61.8261L62.0407 45.0852C62.5173 44.9423 62.994 45.1328 63.2562 45.5139C63.6376 45.4186 64.0189 45.3234 64.4002 45.2281C64.4717 44.8232 64.8054 44.466 65.2583 44.3945H65.2821H65.4966C65.9256 44.2992 66.3308 44.5136 66.5453 44.8708C66.9982 44.8232 67.4272 44.7756 67.8801 44.7279C68.0469 44.3945 68.3567 44.1563 68.7619 44.1563H68.7858H69.0003C69.3816 44.1563 69.6915 44.3707 69.8583 44.6803C70.3827 44.6803 70.8832 44.7279 71.4075 44.7518C71.5982 44.5136 71.908 44.3707 72.2417 44.4183C72.2417 44.4183 72.2417 44.4183 72.2656 44.4183H72.4801C72.7899 44.5136 73.0521 44.7041 73.1713 44.9899C73.7433 45.0852 74.3153 45.2043 74.8635 45.3472C75.078 45.1805 75.364 45.1328 75.6262 45.2043C75.6262 45.2043 75.6262 45.2043 75.65 45.2043L75.8645 45.2757C76.1267 45.371 76.3174 45.5615 76.4127 45.7997C77.0086 46.014 77.6044 46.2284 78.1765 46.4904C78.391 46.3951 78.6293 46.3713 78.8677 46.4904C78.8677 46.4904 78.8677 46.4904 78.8915 46.4904L79.0822 46.5856C79.3205 46.7047 79.4635 46.9191 79.5112 47.1572C80.0832 47.4669 80.6552 47.8003 81.2034 48.1576C81.4179 48.0861 81.6563 48.0861 81.8708 48.229L82.0615 48.3481C82.276 48.491 82.3951 48.753 82.3713 49.015C82.848 49.3722 83.3008 49.7533 83.7537 50.182C83.7775 50.2058 83.8014 50.2534 83.849 50.2773C84.0874 50.182 84.3734 50.2058 84.5879 50.3963L84.7547 50.5392C84.9931 50.7536 85.0407 51.087 84.8977 51.349C85.3268 51.8253 85.7558 52.2779 86.1371 52.7542C86.3993 52.6351 86.733 52.6827 86.9237 52.9209L87.0667 53.0876C87.2573 53.3258 87.2335 53.6592 87.0667 53.8974C87.4718 54.4452 87.8294 54.9692 88.1869 55.5169C88.449 55.4217 88.7351 55.5169 88.8781 55.7551L88.9734 55.9456C89.1164 56.1838 89.0449 56.4696 88.8542 56.6602C89.2117 57.2794 89.5216 57.8986 89.8076 58.5179C90.0459 58.5179 90.2605 58.6131 90.3558 58.8513L90.4273 59.0418C90.5226 59.2562 90.4273 59.4944 90.2604 59.6373C90.5465 60.3518 90.761 61.0424 90.9516 61.7569C91.1423 61.7808 91.2853 61.9237 91.3568 62.1142L91.4045 62.3285C91.4522 62.5191 91.3807 62.7096 91.2377 62.8049C91.4045 63.5908 91.5237 64.353 91.5952 65.1389C91.7382 65.1866 91.8573 65.3295 91.8812 65.4962V65.7105C91.905 65.8773 91.8097 66.044 91.6667 66.1154C91.7143 66.9252 91.6905 67.7588 91.6667 68.5447C91.8097 68.6162 91.905 68.7353 91.905 68.902V69.1163C91.8812 69.2831 91.7382 69.4021 91.5952 69.4498C91.4998 70.2834 91.3568 71.0931 91.1662 71.9029C91.333 71.9505 91.4283 72.0934 91.4045 72.2601L91.3568 72.4745C91.3092 72.6412 91.1423 72.7603 90.9755 72.7127C90.761 73.5463 90.475 74.3798 90.1651 75.1658C90.1889 75.1658 90.2366 75.1658 90.2604 75.1658C90.4035 75.2134 90.475 75.3563 90.4273 75.4992L90.3558 75.6898C90.3081 75.8327 90.1413 75.8803 90.0221 75.8327C89.9744 75.8327 89.9506 75.785 89.9268 75.7612C89.9029 75.8327 89.8553 75.9041 89.8314 75.9756C89.8553 75.9041 89.8791 75.8089 89.9268 75.7374C89.8791 75.6659 89.8553 75.5707 89.8791 75.4992L89.9506 75.3087C89.9506 75.3087 90.0698 75.1658 90.1413 75.142C90.4511 74.2846 90.6656 73.4272 90.8325 72.5698C90.761 72.4983 90.7371 72.4031 90.761 72.3078L90.8086 72.0934C90.8086 72.0934 90.8801 71.9267 90.9755 71.8791C91.1185 70.9502 91.19 70.0452 91.2138 69.164C91.2138 69.1163 91.19 69.0687 91.2138 69.0211V68.8067C91.2138 68.8067 91.2138 68.7591 91.2138 68.7353C91.1662 60.185 85.5889 53.1353 83.1102 51.3728C75.65 44.7279 64.4956 43.2037 56.5111 49.1817C48.7649 54.7786 46.1194 62.4238 46.167 69.5212C46.2385 76.6424 49.194 83.4064 54.08 88.5746C65.1391 100.293 81.2511 99.7447 81.2511 99.7447C99.6273 100.531 113.809 90.4562 119.481 77.0235C130.636 49.015 118.075 13.1945 88.6874 3.16763C124.034 14.2424 135.736 48.3957 135.093 70.2357L135.26 70.4263ZM45.1898 77.6427C45.1898 77.6427 45.4043 77.8095 45.4997 77.9047C45.4997 77.8333 45.4997 77.7618 45.4758 77.6904C45.3805 77.6904 45.2851 77.6904 45.1898 77.6427ZM46.0002 80.8342C46.0002 80.8342 45.8095 80.6913 45.738 80.6198C45.6427 80.7389 45.5473 80.858 45.4043 80.9771C45.595 80.9056 45.8095 80.858 46.0002 80.858V80.8342ZM47.0012 84.9069C46.8105 84.9783 46.596 85.0259 46.4054 85.0498C46.5484 85.0974 46.6914 85.1688 46.8105 85.2641C46.8582 85.145 46.9297 85.0259 47.0012 84.9307V84.9069ZM48.1929 88.2412C48.0738 88.1936 47.9546 88.146 47.8354 88.0745C47.7639 88.2412 47.6924 88.4079 47.5732 88.5508C47.7639 88.4079 47.9546 88.3127 48.1691 88.2412H48.1929ZM50.4572 92.3139C50.2665 92.4568 50.052 92.5521 49.8375 92.6235C50.0043 92.6235 50.1712 92.6711 50.338 92.7188C50.338 92.5759 50.4095 92.433 50.4572 92.3139ZM52.6976 95.5292C52.5546 95.5292 52.4116 95.4815 52.2686 95.4577C52.2686 95.6482 52.1971 95.8388 52.1256 96.0293C52.2924 95.8388 52.4831 95.6721 52.6738 95.5292H52.6976ZM54.3422 95.0052C54.3422 95.0052 54.2707 95.0766 54.223 95.1005C54.2468 95.1005 54.2945 95.1005 54.3183 95.1005C54.3183 95.0528 54.3183 95.029 54.3183 94.9814L54.3422 95.0052ZM55.3194 93.338C55.3194 93.338 55.224 93.1475 55.1764 93.0522C55.1764 93.1713 55.1764 93.3142 55.1764 93.4333C55.224 93.3856 55.2717 93.3618 55.3194 93.3142V93.338ZM56.2966 99.7209C56.2966 99.5542 56.2966 99.4113 56.2966 99.2446C56.1297 99.4589 55.9391 99.6256 55.7246 99.7685C55.9152 99.7447 56.1059 99.7209 56.2966 99.7447V99.7209ZM56.9401 97.7441C56.9401 97.7441 56.8686 97.7441 56.8209 97.7441C56.8209 97.7918 56.8209 97.8394 56.8209 97.887C56.8686 97.8394 56.8924 97.7918 56.9401 97.7441ZM64.6863 105.532C64.6863 105.532 64.6148 105.294 64.5909 105.175C64.5671 105.175 64.5194 105.175 64.4956 105.151C64.3764 105.365 64.2572 105.58 64.0904 105.747C64.2811 105.651 64.4717 105.604 64.6863 105.556V105.532ZM68.9288 107.08C68.7619 107.152 68.5951 107.223 68.4282 107.271C68.5236 107.485 68.5951 107.723 68.6427 107.962C68.6904 107.652 68.7858 107.366 68.9288 107.08ZM75.364 109.367C75.2449 109.2 75.1495 109.033 75.078 108.867C75.0303 109.176 74.935 109.486 74.792 109.772C74.9827 109.629 75.1733 109.486 75.364 109.391V109.367ZM80.3454 109.843C80.2024 109.962 80.0594 110.057 79.8925 110.153C80.0594 110.367 80.2024 110.581 80.2977 110.843C80.25 110.51 80.2977 110.153 80.3454 109.843ZM81.5371 107.866C81.5371 107.866 81.4656 107.795 81.4418 107.771C81.4418 107.842 81.4418 107.89 81.4418 107.962C81.4656 107.938 81.5133 107.914 81.5371 107.866ZM86.6615 108.104C86.6615 108.104 86.6615 107.962 86.6615 107.89C86.6376 107.914 86.59 107.962 86.5661 107.985C86.6138 108.033 86.6376 108.081 86.6853 108.128L86.6615 108.104ZM87.9247 110.415C87.7579 110.296 87.6148 110.129 87.4718 109.986C87.4957 110.319 87.4718 110.653 87.4242 110.962C87.5672 110.772 87.734 110.581 87.9009 110.415H87.9247ZM88.8066 78.4763L88.7112 78.6669C88.7112 78.6669 88.7112 78.6907 88.7112 78.7145C87.5672 80.6913 86.1848 82.4776 84.7071 84.0018C85.5413 83.1682 86.2563 82.3108 86.9237 81.4772C86.876 81.5487 86.8998 81.6202 86.9475 81.6678C87.019 81.7154 87.1143 81.7154 87.162 81.6678L87.305 81.5011C87.3527 81.4296 87.3288 81.3344 87.2812 81.2867C87.2097 81.2391 87.1382 81.2629 87.0905 81.3105C87.7102 80.4769 88.2584 79.6672 88.7351 78.8336C88.7351 78.8812 88.7827 78.9289 88.8304 78.9527C88.9257 79.0003 89.0449 78.9527 89.1164 78.8812L89.2117 78.6907C89.2594 78.5954 89.2117 78.4763 89.1164 78.4049C89.0687 78.4049 89.0211 78.3811 88.9734 78.4049C89.3786 77.6427 89.7361 76.9044 90.0459 76.1423C89.7123 76.9282 89.3309 77.6904 88.9019 78.4287C88.8781 78.4287 88.8542 78.4763 88.8304 78.5001L88.8066 78.4763ZM84.8262 84.1209L84.9692 83.978C85.0169 83.9304 85.0169 83.8827 84.9692 83.8351C84.9216 83.7875 84.8739 83.7875 84.8262 83.8351L84.6832 83.978C84.6832 83.978 84.6356 84.0733 84.6832 84.0971C84.7071 84.1447 84.7786 84.1447 84.8024 84.0971L84.8262 84.1209ZM156.973 10.0269V74.094H198.373V69.0687H165.315V42.251H193.701V38.0354H165.315V15.076H198.373V10.0507H156.973V10.0269ZM263.774 10.0269V58.9942H263.417L212.578 8.9313H212.125V74.094H216.344V25.1267H216.701L267.54 75.1896H267.993V10.0269H263.774ZM293.638 10.0269V74.094H301.98V10.0269H293.638ZM385.972 45.5377H367.93V49.3008H378.179V65.8773C375.414 67.6397 372.601 68.9496 369.741 69.807C366.857 70.6644 363.592 71.0931 359.922 71.0931C355.083 71.0931 350.865 70.3548 347.266 68.902C343.667 67.4492 340.663 65.4009 338.28 62.8049C335.897 60.2089 334.109 57.1365 332.917 53.564C331.726 49.9914 331.13 46.0855 331.13 41.7985C331.13 37.5114 331.702 33.7246 332.822 30.1759C333.942 26.6272 335.634 23.5786 337.899 21.0302C340.163 18.458 342.928 16.4812 346.193 15.076C349.458 13.6708 353.272 12.9802 357.586 12.9802C360.446 12.9802 363.139 13.2898 365.642 13.8852C368.144 14.5044 370.385 15.2904 372.339 16.2669C374.294 17.2434 375.891 18.3627 377.154 19.6012C378.393 20.8635 379.204 22.1258 379.585 23.3881H386.187C385.639 22.0543 384.709 20.5301 383.398 18.8629C382.087 17.1957 380.3 15.6238 378.036 14.1472C375.771 12.6705 372.983 11.4559 369.646 10.4318C366.309 9.43145 362.4 8.9313 357.872 8.9313C352.676 8.9313 347.909 9.66962 343.547 11.1224C339.186 12.5991 335.42 14.695 332.226 17.4339C329.056 20.1728 326.577 23.5548 324.814 27.556C323.05 31.5572 322.168 36.0824 322.168 41.1554C322.168 45.4901 322.859 49.6818 324.242 53.7307C325.624 57.7795 327.721 61.4235 330.582 64.615C333.418 67.8302 337.041 70.3786 341.45 72.3078C345.859 74.2369 351.103 75.1896 357.228 75.1896C361.805 75.1896 365.88 74.6895 369.431 73.6892C372.983 72.6889 375.914 71.5695 378.25 70.3548V74.1179H386.044V45.5615L385.972 45.5377ZM408.687 10.0269H402.466V74.094H406.494V21.84H406.851L435.166 75.2134H436.811L465.746 22.2211H466.103V74.094H474.445V10.0269H468.129L438.456 65.0437H438.098L408.687 10.0269ZM532.077 55.255L540.871 74.1179H549.762L519.897 10.0507H515.321L488.198 74.1179H492.416L500.472 55.255H532.077ZM530.146 51.1347H502.212L515.393 20.2919H515.75L530.122 51.1347H530.146ZM171.869 111.486L178.995 122.442H183.262L176.278 111.415C178.114 111.129 179.615 110.319 180.759 109.009C181.903 107.7 182.475 106.151 182.475 104.389C182.475 102.198 181.76 100.483 180.306 99.2446C178.853 98.0061 176.85 97.3869 174.276 97.3869H156.973V122.442H160.905V111.486H171.845H171.869ZM160.929 101.007H174.276C175.635 101.007 176.66 101.293 177.375 101.864C178.09 102.436 178.447 103.27 178.447 104.389C178.447 105.508 178.09 106.318 177.375 106.914C176.66 107.509 175.635 107.795 174.276 107.795H160.929V101.007ZM231.479 122.442V118.822H210.767V110.891H223.661V107.271H210.767V101.007H230.382V97.3392H206.81V122.442H231.479ZM258.769 122.204C261.176 122.895 263.583 123.252 266.014 123.252C269.304 123.252 271.997 122.466 274.07 120.894C276.144 119.322 277.169 117.345 277.169 114.987C277.169 112.32 276.144 110.319 274.118 108.962C272.092 107.604 269.065 106.937 265.061 106.937C262.177 106.937 260.151 106.699 258.983 106.223C257.815 105.747 257.243 104.961 257.243 103.841C257.243 102.722 257.815 101.888 258.983 101.221C260.151 100.554 261.677 100.221 263.583 100.221C265.228 100.221 266.968 100.507 268.755 101.078C270.567 101.65 272.235 102.484 273.808 103.532L275.787 100.269C273.904 99.0779 271.949 98.1728 269.923 97.5536C267.897 96.9343 265.8 96.6486 263.631 96.6486C260.461 96.6486 257.958 97.3154 256.076 98.6253C254.193 99.9353 253.263 101.674 253.263 103.841C253.263 106.151 254.121 107.819 255.813 108.819C257.506 109.819 260.652 110.343 265.228 110.415C267.945 110.486 269.923 110.891 271.163 111.582C272.426 112.272 273.046 113.344 273.046 114.773C273.046 116.202 272.354 117.369 270.996 118.298C269.613 119.203 267.826 119.656 265.585 119.656C263.726 119.656 261.772 119.322 259.722 118.679C257.672 118.036 255.79 117.131 254.074 115.964L252.167 119.251C254.169 120.537 256.362 121.513 258.769 122.204ZM305.436 122.442V97.2678H301.432V122.442H305.436ZM331.392 97.3392V122.442H342.546C346.741 122.442 350.078 121.299 352.533 119.036C354.988 116.774 356.227 113.749 356.227 109.962C356.227 106.175 354.964 103.174 352.461 100.84C349.959 98.5063 346.646 97.3154 342.546 97.3154H331.392V97.3392ZM349.554 103.46C351.317 105.127 352.199 107.271 352.199 109.938C352.199 112.606 351.341 114.845 349.649 116.44C347.933 118.036 345.597 118.846 342.618 118.846H335.348V100.959H342.618C345.478 100.959 347.79 101.793 349.554 103.46ZM404.325 122.466V118.846H383.613V110.915H396.507V107.295H383.613V101.031H403.228V97.3631H379.656V122.466H404.325ZM431.091 122.466V104.889L447.036 122.466H449.086V97.3631H445.225V115.011L429.256 97.3631H427.206V122.466H431.091ZM498.375 114.154C497.088 116.012 495.586 117.393 493.87 118.274C492.154 119.155 490.2 119.608 487.959 119.608C484.766 119.608 482.096 118.703 479.975 116.869C477.854 115.035 476.805 112.749 476.805 109.986C476.805 107.223 477.854 104.913 479.975 103.103C482.096 101.269 484.742 100.364 487.959 100.364C490.033 100.364 491.916 100.745 493.632 101.531C495.324 102.293 496.707 103.413 497.731 104.842L500.854 102.674C499.471 100.793 497.684 99.3398 495.443 98.3157C493.203 97.2916 490.724 96.7676 487.959 96.7676C483.55 96.7676 479.903 98.0299 477.067 100.555C474.207 103.079 472.777 106.247 472.777 110.105C472.777 113.963 474.207 117.107 477.067 119.608C479.927 122.109 483.55 123.347 487.959 123.347C490.915 123.347 493.56 122.752 495.896 121.561C498.208 120.37 500.091 118.655 501.521 116.393L498.375 114.225V114.154ZM550 122.466V118.846H529.288V110.915H542.182V107.295H529.288V101.031H548.904V97.3631H525.332V122.466H550Z" fill="white"/>
</svg>
