<svg width="200" height="174" viewBox="0 0 200 174" fill="none" xmlns="http://www.w3.org/2000/svg">
<path d="M21.0817 118.014V120.597H4.24896V132.389H18.7081V134.552H4.24896V148.325H21.0817V150.908H0V118.014H21.0817ZM56.532 118.014V151.474H56.2964L30.4041 125.772H30.2138V150.917H28.0667V117.457H28.3022L54.1946 143.159H54.3849V118.014H56.532ZM73.8358 118.014V150.908H69.5959V118.014H73.8358ZM116.606 150.908H112.638V148.982C111.451 149.612 109.957 150.178 108.154 150.698C106.351 151.219 104.276 151.474 101.939 151.474C98.8223 151.474 96.1497 150.981 93.9029 149.996C91.6561 149.01 89.817 147.696 88.3675 146.044C86.9179 144.401 85.8489 142.539 85.1422 140.449C84.4447 138.368 84.0913 136.214 84.0913 133.987C84.0913 131.385 84.5443 129.058 85.4412 127.004C86.3472 124.951 87.6065 123.226 89.2191 121.811C90.8317 120.405 92.7523 119.319 94.981 118.571C97.2006 117.822 99.6376 117.439 102.283 117.439C104.584 117.439 106.577 117.695 108.28 118.215C109.975 118.735 111.397 119.365 112.548 120.122C113.698 120.871 114.604 121.683 115.275 122.541C115.945 123.399 116.416 124.175 116.697 124.869H113.336C113.146 124.211 112.738 123.563 112.104 122.915C111.469 122.276 110.645 121.701 109.658 121.199C108.661 120.697 107.529 120.287 106.251 119.976C104.974 119.666 103.606 119.511 102.147 119.511C99.9366 119.511 98.0069 119.867 96.3399 120.588C94.673 121.309 93.2687 122.322 92.1181 123.646C90.9676 124.96 90.1069 126.53 89.5271 128.346C88.9473 130.162 88.6664 132.152 88.6664 134.315C88.6664 136.478 88.9654 138.523 89.5815 140.357C90.1975 142.192 91.1035 143.771 92.3175 145.103C93.5314 146.436 95.0625 147.477 96.9016 148.225C98.7407 148.973 100.888 149.357 103.352 149.357C105.218 149.357 106.885 149.138 108.353 148.7C109.821 148.261 111.252 147.586 112.656 146.682V138.176H107.429V136.25H116.615V150.908H116.606ZM143.151 146.253H143.341L158.453 118.014H161.669V150.908H157.42V124.266H157.23L142.49 151.474H141.647L127.233 124.074H127.043V150.908H124.986V118.014H128.157L143.133 146.253H143.151ZM174.914 141.224L170.81 150.908H168.663L182.47 118.014H184.798L200 150.908H195.479L191.004 141.224H174.914ZM182.705 123.271H182.515L175.802 139.107H190.025L182.705 123.271ZM82.515 38.4162L82.6146 38.2884C82.9498 37.8685 82.9045 37.257 82.5059 36.9011C82.0982 36.536 81.4731 36.5725 81.1107 36.9832L80.9929 37.1201C80.9929 37.1201 80.9748 37.1384 80.9748 37.1475C80.6215 37.5765 80.6849 38.2063 81.1107 38.5531C81.5365 38.909 82.1616 38.8452 82.5059 38.4162H82.515ZM84.2997 36.5269L84.4175 36.4173C84.7889 36.0705 84.8342 35.4864 84.5081 35.0939C84.1729 34.6923 83.5749 34.6375 83.1763 34.9752L83.0404 35.0939C83.0404 35.0939 83.0223 35.1121 83.0132 35.1121C82.6237 35.4681 82.5965 36.0705 82.9408 36.463C83.285 36.8554 83.892 36.8828 84.2816 36.536L84.2997 36.5269ZM85.5318 33.2867L85.3778 33.378C85.3778 33.378 85.3597 33.3871 85.3506 33.3962C84.9339 33.6701 84.8252 34.2359 85.0969 34.6558C85.3687 35.0756 85.9304 35.1852 86.3472 34.9114L86.4831 34.8201H86.4921C86.8907 34.5463 87.0176 33.9986 86.7639 33.5879C86.5012 33.1589 85.9485 33.0312 85.5318 33.2867ZM88.6121 33.6244L88.757 33.5514H88.7661C89.1828 33.3506 89.3731 32.8577 89.1919 32.4379C89.0107 31.9998 88.5124 31.799 88.0776 31.9815L87.9145 32.0546C87.9145 32.0546 87.8964 32.0546 87.8873 32.0637C87.4615 32.2645 87.2713 32.7756 87.4706 33.2046C87.6699 33.6336 88.1772 33.8252 88.603 33.6244H88.6121ZM91.0491 32.6935L91.2031 32.6478H91.2122C91.6289 32.52 91.8735 32.0911 91.7648 31.6621C91.6561 31.224 91.2122 30.9684 90.7864 31.0779L90.6142 31.1236C90.6142 31.1236 90.5961 31.1236 90.5871 31.1236C90.1613 31.2514 89.9076 31.6986 90.0344 32.1367C90.1613 32.5657 90.6052 32.8212 91.04 32.6935H91.0491ZM93.5949 30.5851L93.4137 30.6033C93.4137 30.6033 93.3955 30.6033 93.3865 30.6033C92.9697 30.6581 92.6798 31.0506 92.7342 31.4704C92.7886 31.8903 93.1781 32.1823 93.5949 32.1276L93.7579 32.1002H93.767C94.1747 32.0454 94.4646 31.6712 94.4193 31.2605C94.374 30.8406 94.0025 30.5303 93.5858 30.576L93.5949 30.5851ZM96.4305 30.5212H96.2493C96.2493 30.5212 96.2312 30.5212 96.2221 30.5212C95.8235 30.5212 95.4974 30.8406 95.4974 31.2331C95.4974 31.6347 95.8145 31.9633 96.204 31.9633H96.3671C96.7476 31.9633 97.0737 31.6621 97.0919 31.2787C97.11 30.8772 96.802 30.5486 96.4124 30.5303L96.4305 30.5212ZM98.8313 32.1732L98.9944 32.2006C99.3477 32.2553 99.6829 32.0272 99.7554 31.6621C99.8279 31.297 99.5923 30.941 99.2299 30.868L99.0578 30.8315H99.0397C98.6773 30.7676 98.324 31.0232 98.2696 31.3883C98.2062 31.7534 98.4599 32.1093 98.8223 32.1641L98.8313 32.1732ZM101.395 32.7756L101.549 32.8304C101.866 32.9308 102.211 32.7665 102.328 32.447C102.446 32.1184 102.274 31.7625 101.948 31.6438L101.785 31.5799H101.767C101.44 31.4704 101.087 31.653 100.978 31.9907C100.87 32.3192 101.051 32.6752 101.386 32.7847L101.395 32.7756ZM103.85 33.7613L103.995 33.8343C104.276 33.9713 104.611 33.8709 104.756 33.5879C104.91 33.305 104.802 32.949 104.521 32.803L104.367 32.7208C104.367 32.7208 104.358 32.7208 104.349 32.7208C104.059 32.5748 103.714 32.6935 103.569 32.9855C103.425 33.2776 103.542 33.6244 103.832 33.7705L103.85 33.7613ZM106.142 35.1121L106.278 35.2034C106.514 35.3677 106.831 35.3221 107.003 35.0848C107.175 34.8475 107.13 34.5098 106.894 34.3363L106.749 34.2268C106.749 34.2268 106.74 34.2268 106.731 34.2177C106.487 34.0443 106.151 34.1082 105.988 34.3546C105.816 34.601 105.88 34.9387 106.124 35.103L106.142 35.1121ZM108.878 36.0796C108.679 35.8971 108.371 35.8971 108.19 36.0979C108.009 36.2987 108.009 36.609 108.208 36.7915L108.326 36.9102C108.516 37.0927 108.815 37.0927 108.996 36.9102C109.186 36.7185 109.186 36.4082 108.996 36.2165L108.869 36.0888C108.869 36.0888 108.869 36.0888 108.86 36.0796H108.878ZM110.011 38.7721L110.111 38.8999C110.255 39.0916 110.527 39.1281 110.718 38.9912C110.917 38.8452 110.953 38.5713 110.808 38.3705L110.708 38.2245C110.708 38.2245 110.708 38.2245 110.708 38.2154C110.554 38.0237 110.283 37.9872 110.083 38.1424C109.893 38.2975 109.857 38.5713 110.011 38.7721ZM112.194 40.5976C112.086 40.4059 111.841 40.342 111.651 40.4515C111.46 40.5611 111.397 40.8075 111.506 40.9992L111.587 41.1452C111.696 41.3369 111.922 41.4008 112.113 41.3004C112.303 41.2 112.375 40.9627 112.276 40.7619L112.194 40.6067C112.194 40.6067 112.194 40.6067 112.194 40.5976ZM112.856 42.9706C112.674 43.0436 112.584 43.2444 112.656 43.427L112.72 43.5821C112.783 43.7647 112.982 43.856 113.155 43.7921C113.336 43.7282 113.435 43.5274 113.372 43.3448L113.318 43.1806C113.318 43.1806 113.318 43.1805 113.318 43.1714C113.245 42.9889 113.046 42.8976 112.865 42.9706H112.856ZM113.435 46.01L113.472 46.1743C113.508 46.3385 113.662 46.4389 113.825 46.4116C113.988 46.3842 114.097 46.2199 114.07 46.0556L114.033 45.8822C114.033 45.8822 114.033 45.8822 114.033 45.8731C113.997 45.7088 113.834 45.5992 113.671 45.6358C113.508 45.6723 113.399 45.8366 113.435 46.0008V46.01ZM114.359 48.8394V48.666C114.35 48.5199 114.224 48.4104 114.079 48.4195C113.934 48.4287 113.825 48.5564 113.834 48.7025L113.843 48.8759C113.852 49.0128 113.97 49.1223 114.106 49.1223C114.251 49.1223 114.359 48.9945 114.35 48.8576L114.359 48.8394ZM113.834 51.4041L113.825 51.5775C113.825 51.6962 113.897 51.7966 114.015 51.8057C114.133 51.8148 114.233 51.7327 114.251 51.614L114.269 51.4406C114.278 51.322 114.187 51.2216 114.07 51.2124C113.952 51.2033 113.852 51.2946 113.843 51.4132L113.834 51.4041ZM113.517 54.4617C113.608 54.4891 113.698 54.4343 113.716 54.3431L113.762 54.1788C113.78 54.0875 113.725 53.9962 113.635 53.978C113.544 53.9597 113.454 54.0145 113.435 54.1057L113.399 54.27C113.381 54.3613 113.435 54.4435 113.517 54.4708V54.4617ZM112.801 56.9534L112.874 56.7983C112.901 56.7344 112.874 56.6614 112.801 56.6431C112.738 56.6157 112.665 56.6431 112.647 56.7161L112.584 56.8804C112.557 56.9443 112.584 57.0082 112.647 57.0356C112.711 57.0629 112.774 57.0356 112.801 56.9717V56.9534ZM111.469 59.1713L111.388 59.3174C111.388 59.3174 111.379 59.3995 111.415 59.4178C111.451 59.436 111.497 59.4269 111.515 59.3904L111.605 59.2443C111.623 59.2078 111.605 59.1622 111.578 59.1439C111.551 59.1257 111.497 59.1439 111.479 59.1713H111.469ZM109.83 61.5718C109.83 61.5718 109.83 61.5991 109.83 61.6083C109.839 61.6174 109.857 61.6083 109.866 61.6083L109.975 61.4805C109.984 61.4714 109.975 61.444 109.975 61.4348C109.966 61.4257 109.938 61.4348 109.929 61.4348L109.821 61.5718H109.83ZM76.9071 41.7841C77.4597 42.0397 78.112 41.7932 78.3657 41.2365L78.4381 41.0631C78.6827 40.5063 78.4562 39.8674 77.9308 39.6027C77.3872 39.3289 76.7259 39.5479 76.4541 40.0956L76.3635 40.2781C76.3635 40.2781 76.3544 40.3055 76.3454 40.3146C76.0917 40.8714 76.3363 41.5285 76.8889 41.7841H76.9071ZM79.7427 38.69L79.8424 38.5348C80.1504 38.0511 80.0236 37.4122 79.5615 37.0836C79.0904 36.7459 78.4291 36.8646 78.1029 37.3483L77.9851 37.5126C77.9851 37.5126 77.967 37.5308 77.967 37.54C77.6499 38.0328 77.7858 38.69 78.2751 39.0094C78.7643 39.3289 79.4166 39.192 79.7337 38.6991L79.7427 38.69ZM81.4731 36.3717L81.5909 36.2257C81.9442 35.8149 81.917 35.1943 81.5275 34.8201C81.1288 34.4367 80.4947 34.455 80.1142 34.8566L79.9783 35.0026C79.9783 35.0026 79.9601 35.0209 79.9511 35.03C79.5887 35.4499 79.6249 36.0888 80.0326 36.4538C80.4494 36.8189 81.0835 36.7824 81.4459 36.3717H81.4731ZM82.4968 32.7208L82.3428 32.8395C82.3428 32.8395 82.3247 32.8577 82.3156 32.8577C81.917 33.1954 81.8627 33.7978 82.1979 34.2086C82.5331 34.6102 83.131 34.6649 83.5387 34.3272L83.6746 34.2086H83.6836C84.0732 33.8709 84.1366 33.2867 83.8195 32.8851C83.4934 32.4653 82.9045 32.3923 82.4878 32.7208H82.4968ZM85.1422 30.9593L84.9701 31.0597C84.9701 31.0597 84.952 31.0688 84.9429 31.0779C84.5171 31.3335 84.3812 31.8994 84.644 32.3192C84.9067 32.7391 85.4593 32.8851 85.8761 32.6204L86.0301 32.52H86.0391C86.4468 32.2645 86.5918 31.726 86.3562 31.297C86.1116 30.8589 85.568 30.7037 85.1332 30.9502L85.1422 30.9593ZM88.4581 31.2787L88.6302 31.2057H88.6392C89.056 31.0232 89.2644 30.5394 89.1013 30.1105C88.9382 29.6724 88.449 29.4533 88.0141 29.6176L87.8329 29.6906C87.8329 29.6906 87.8148 29.6906 87.8058 29.6997C87.3709 29.8823 87.1716 30.3843 87.3528 30.8224C87.534 31.2605 88.0323 31.4613 88.4671 31.2787H88.4581ZM91.2122 30.3295L91.3843 30.2839H91.3934C91.8101 30.1744 92.0638 29.7545 91.9732 29.3347C91.8826 28.9057 91.4568 28.6319 91.031 28.7231L90.8407 28.7688C90.8407 28.7688 90.8226 28.7688 90.8136 28.7688C90.3878 28.8783 90.125 29.3164 90.2337 29.7454C90.3425 30.1744 90.7773 30.439 91.2031 30.3295H91.2122ZM94.9447 28.9878C94.9176 28.5771 94.5642 28.2668 94.1566 28.2942H93.9572C93.9572 28.2942 93.9391 28.3124 93.9301 28.3124C93.5224 28.3581 93.2234 28.7231 93.2597 29.1339C93.305 29.5446 93.6673 29.8458 94.075 29.8093L94.2562 29.791H94.2653C94.6639 29.7454 94.9538 29.3986 94.9266 28.997L94.9447 28.9878ZM97.2006 29.718C97.572 29.7363 97.8891 29.4533 97.9254 29.0791C97.9525 28.6958 97.6717 28.3581 97.2912 28.3307L97.0919 28.3124C97.0919 28.3124 97.0738 28.3124 97.0647 28.3124C96.6842 28.2942 96.358 28.5954 96.3399 28.9787C96.3218 29.362 96.6208 29.6906 97.0013 29.7089H97.1825L97.2006 29.718ZM99.9185 30.0557L100.1 30.0922C100.435 30.1652 100.77 29.9462 100.852 29.6085C100.933 29.2616 100.716 28.9148 100.371 28.8327L100.181 28.787H100.163C99.8098 28.714 99.4745 28.9422 99.4021 29.2982C99.3296 29.6541 99.5561 29.9918 99.9094 30.0648L99.9185 30.0557ZM103.352 29.791L103.171 29.718C103.171 29.718 103.162 29.718 103.153 29.718C102.845 29.6085 102.5 29.7636 102.392 30.074C102.283 30.3843 102.437 30.7311 102.745 30.8406L102.917 30.9045C103.216 31.0141 103.551 30.868 103.669 30.5668C103.787 30.2656 103.642 29.9188 103.343 29.791H103.352ZM105.445 32.0363L105.608 32.1276C105.862 32.2645 106.179 32.1823 106.333 31.9268C106.487 31.6712 106.396 31.3335 106.142 31.1783L105.97 31.0779C105.97 31.0779 105.961 31.0779 105.952 31.0779C105.689 30.9319 105.354 31.0323 105.218 31.297C105.082 31.5617 105.173 31.8994 105.436 32.0363H105.445ZM108.543 32.8486C108.543 32.8486 108.534 32.8486 108.534 32.8395C108.317 32.6752 108.009 32.7208 107.846 32.9399C107.683 33.1589 107.728 33.4693 107.945 33.6336L108.09 33.7522C108.299 33.9165 108.598 33.88 108.761 33.6701C108.933 33.4601 108.897 33.1498 108.688 32.9764L108.534 32.8577L108.543 32.8486ZM110.808 34.957C110.636 34.7836 110.355 34.7836 110.183 34.957C110.011 35.1304 110.011 35.4133 110.183 35.5868L110.31 35.7237C110.473 35.8971 110.745 35.9062 110.917 35.7419C111.098 35.5776 111.107 35.2947 110.944 35.1213L110.808 34.9752C110.808 34.9752 110.808 34.9752 110.799 34.9661L110.808 34.957ZM112.756 38.1059C112.937 37.9872 112.982 37.7408 112.856 37.5674L112.747 37.4031C112.747 37.4031 112.747 37.4031 112.747 37.3939C112.62 37.2205 112.375 37.1749 112.203 37.3027C112.031 37.4304 111.986 37.6769 112.113 37.8503L112.221 38.0055C112.339 38.1789 112.575 38.2245 112.747 38.1059H112.756ZM113.689 40.4059L113.771 40.5702C113.852 40.7345 114.051 40.7984 114.215 40.7253C114.378 40.6432 114.45 40.4424 114.369 40.2781L114.287 40.1047C114.287 40.1047 114.287 40.1047 114.287 40.0956C114.196 39.9313 113.997 39.8583 113.825 39.9495C113.662 40.0408 113.589 40.2416 113.68 40.415L113.689 40.4059ZM115.483 43.1714L115.429 42.9889C115.429 42.9889 115.429 42.9889 115.429 42.9798C115.374 42.8246 115.211 42.7516 115.066 42.7972C114.912 42.852 114.84 43.0163 114.885 43.1623L114.948 43.3448C115.003 43.4909 115.157 43.573 115.302 43.5274C115.456 43.4817 115.537 43.3175 115.492 43.1714H115.483ZM115.691 46.2655C115.718 46.3933 115.827 46.4755 115.954 46.4572C116.081 46.4389 116.171 46.3203 116.153 46.1925L116.126 46.0008C116.099 45.8731 115.981 45.7818 115.845 45.8092C115.709 45.8366 115.628 45.9552 115.655 46.0921L115.691 46.2838V46.2655ZM116.371 49.2684V49.0767C116.371 48.9763 116.28 48.8941 116.18 48.8941C116.081 48.8941 115.999 48.9854 115.999 49.0858V49.2775C115.999 49.3779 116.081 49.46 116.18 49.46C116.28 49.46 116.362 49.3779 116.362 49.2775L116.371 49.2684ZM115.891 52.116L115.872 52.3077C115.872 52.3807 115.918 52.4446 115.981 52.4537C116.054 52.4629 116.117 52.4172 116.135 52.3442L116.162 52.1525C116.162 52.0795 116.117 52.0065 116.045 51.9974C115.972 51.9974 115.9 52.043 115.891 52.116ZM115.338 55.1006L115.293 55.2832C115.293 55.2832 115.302 55.3744 115.347 55.3836C115.392 55.3927 115.438 55.3744 115.447 55.3288L115.501 55.1462C115.51 55.1006 115.483 55.055 115.438 55.0458C115.392 55.0367 115.347 55.0641 115.338 55.1097V55.1006ZM114.323 58.1765L114.405 58.003C114.405 57.9848 114.405 57.9665 114.387 57.9574C114.369 57.9483 114.35 57.9574 114.341 57.9757L114.269 58.1491C114.269 58.1491 114.269 58.1856 114.287 58.1856C114.305 58.1856 114.323 58.1856 114.332 58.1673L114.323 58.1765ZM73.2832 46.4572C73.9536 46.5667 74.5878 46.1195 74.6965 45.4441L74.7327 45.2342V45.2159C74.8415 44.5679 74.4247 43.9381 73.7724 43.8103C73.1111 43.6734 72.4678 44.1024 72.3319 44.7687L72.2867 44.9877C72.2867 44.9877 72.2867 45.0151 72.2867 45.0242C72.1779 45.6996 72.6219 46.3385 73.2923 46.4481L73.2832 46.4572ZM75.4394 42.3135L75.5028 42.1127V42.0944C75.7021 41.492 75.385 40.844 74.7962 40.625C74.1892 40.4059 73.5188 40.7162 73.3013 41.3277L73.2289 41.5377C73.2289 41.5377 73.2198 41.565 73.2198 41.5742C73.0205 42.1948 73.3557 42.8611 73.9717 43.0619C74.5878 43.2627 75.2491 42.925 75.4485 42.3043L75.4394 42.3135ZM76.6353 39.3198L76.7259 39.1281C76.9886 38.5805 76.7893 37.9233 76.2638 37.6312C75.7293 37.3392 75.0498 37.54 74.7599 38.0785L74.6512 38.2701C74.6512 38.2701 74.6421 38.2975 74.6331 38.3067C74.3613 38.8634 74.5787 39.5297 75.1314 39.8126C75.684 40.0956 76.3454 39.8674 76.6262 39.3106L76.6353 39.3198ZM76.7983 36.7915C77.2785 37.1292 77.9308 37.0106 78.266 36.536L78.3838 36.3626C78.7099 35.888 78.6103 35.2399 78.1573 34.8931C77.6952 34.5371 77.0339 34.6284 76.6806 35.103L76.5447 35.2764C76.5447 35.2764 76.5266 35.2947 76.5266 35.3038C76.1913 35.7876 76.3091 36.4447 76.7802 36.7824L76.7983 36.7915ZM80.3044 34.0169L80.4403 33.8617C80.8117 33.4601 80.8117 32.8486 80.4312 32.4562C80.0507 32.0637 79.4166 32.0546 79.027 32.4379L78.873 32.5931C78.873 32.5931 78.8549 32.6113 78.8458 32.6204C78.4653 33.022 78.4744 33.6609 78.882 34.0443C79.2807 34.4276 79.9148 34.4185 80.2953 34.0078L80.3044 34.0169ZM81.7358 30.1744L81.5546 30.3021C81.5546 30.3021 81.5365 30.3113 81.5275 30.3204C81.1198 30.6398 81.0382 31.2422 81.3553 31.653C81.6724 32.0637 82.2703 32.1458 82.678 31.8264L82.8411 31.6986H82.8502C83.2488 31.3791 83.3303 30.8041 83.0313 30.3934C82.7233 29.9736 82.1435 29.8732 81.7177 30.1835L81.7358 30.1744ZM84.7255 28.3398L84.5352 28.4402C84.5352 28.4402 84.5171 28.4493 84.5081 28.4585C84.0823 28.6958 83.9283 29.2434 84.1729 29.6724C84.4084 30.1013 84.952 30.2565 85.3778 30.0101L85.5499 29.9097H85.559C85.9757 29.6724 86.1297 29.143 85.9123 28.7231C85.6858 28.285 85.1513 28.1208 84.7255 28.3398ZM88.304 28.6136L88.4943 28.5406H88.5034C88.9201 28.3763 89.1375 27.92 88.9926 27.491C88.8476 27.0529 88.3765 26.8247 87.9417 26.9707L87.7333 27.0437C87.7333 27.0437 87.7152 27.0437 87.7061 27.0529C87.2803 27.2172 87.0629 27.7009 87.226 28.1299C87.389 28.5589 87.8692 28.7779 88.295 28.6136H88.304ZM91.4206 27.6644L91.6199 27.6188H91.6289C92.0275 27.5275 92.2993 27.135 92.2178 26.7243C92.1453 26.3044 91.7376 26.0215 91.3209 26.1037L91.1035 26.1402C91.1035 26.1402 91.0853 26.1402 91.0763 26.1402C90.6595 26.2314 90.3968 26.6422 90.4874 27.0711C90.578 27.491 90.9857 27.7557 91.4115 27.6644H91.4206ZM93.8848 26.5144C93.9119 26.916 94.2472 27.2172 94.6458 27.1898L94.8451 27.1807C95.2256 27.1533 95.5246 26.8338 95.5064 26.4414C95.4974 26.0489 95.1622 25.7294 94.7726 25.7477H94.5552C94.5552 25.7477 94.5371 25.7477 94.528 25.7477C94.1294 25.7751 93.8304 26.1128 93.8576 26.5144H93.8848ZM97.9163 27.208L98.1247 27.2263C98.478 27.2537 98.786 26.9981 98.8313 26.6422C98.8766 26.2771 98.6139 25.9485 98.2606 25.9029L98.0431 25.8755H98.025C97.6626 25.8481 97.3455 26.1128 97.3093 26.4779C97.2821 26.843 97.5449 27.1624 97.9072 27.1989L97.9163 27.208ZM101.151 27.7192L101.35 27.7648C101.667 27.8378 101.984 27.6553 102.066 27.3358C102.156 27.0164 101.966 26.6787 101.649 26.5965L101.44 26.5418H101.422C101.096 26.4596 100.77 26.6695 100.698 26.989C100.616 27.3176 100.824 27.6461 101.142 27.7192H101.151ZM105.182 28.495C105.3 28.2212 105.182 27.8926 104.901 27.7739L104.702 27.6826C104.702 27.6826 104.693 27.6826 104.684 27.6826C104.403 27.5731 104.086 27.71 103.977 27.993C103.868 28.2759 104.004 28.5954 104.285 28.7049L104.475 28.787C104.747 28.8966 105.055 28.7688 105.173 28.5041L105.182 28.495ZM107.248 30.147L107.429 30.2565C107.655 30.3934 107.945 30.3204 108.081 30.1013C108.226 29.8732 108.154 29.572 107.927 29.4259L107.746 29.3073C107.746 29.3073 107.737 29.3073 107.728 29.3073C107.492 29.1704 107.193 29.2525 107.057 29.4807C106.922 29.7089 107.003 30.0192 107.23 30.1561L107.248 30.147ZM110.138 32.1641C110.319 32.3101 110.582 32.2919 110.736 32.1093C110.89 31.9268 110.872 31.653 110.69 31.4978L110.527 31.3609C110.527 31.3609 110.527 31.3609 110.518 31.3518C110.328 31.1966 110.056 31.2331 109.911 31.4157C109.766 31.5982 109.793 31.8811 109.975 32.0272L110.138 32.1641ZM112.964 33.7978C112.964 33.7978 112.964 33.7978 112.964 33.7887C112.819 33.6336 112.584 33.6244 112.43 33.7613C112.276 33.9074 112.267 34.1447 112.403 34.2998L112.539 34.455C112.674 34.6102 112.901 34.6193 113.055 34.4915C113.209 34.3546 113.227 34.1173 113.1 33.9621L112.964 33.7978ZM114.468 36.9193L114.586 37.0927C114.677 37.2388 114.876 37.2753 115.021 37.184C115.166 37.0927 115.211 36.8919 115.12 36.7459L115.003 36.5634C114.903 36.4173 114.704 36.3808 114.559 36.4721C114.414 36.5634 114.378 36.7733 114.468 36.9193ZM116.135 39.8218L116.226 40.0134C116.289 40.1412 116.434 40.196 116.561 40.1412C116.697 40.0864 116.751 39.9313 116.697 39.7944L116.615 39.5936C116.552 39.4567 116.398 39.4019 116.262 39.4658C116.126 39.5297 116.072 39.6849 116.135 39.8218ZM117.757 42.8246C117.721 42.7151 117.612 42.6512 117.494 42.6877C117.385 42.7242 117.322 42.8337 117.358 42.9524L117.422 43.1532C117.458 43.2627 117.567 43.3266 117.666 43.2901C117.775 43.2627 117.838 43.144 117.811 43.0345L117.757 42.8246ZM118.137 46.4389C118.146 46.5211 118.219 46.5759 118.3 46.5667C118.382 46.5576 118.436 46.4846 118.427 46.4024L118.4 46.1925C118.391 46.1104 118.309 46.0556 118.228 46.0647C118.146 46.0739 118.092 46.156 118.101 46.2381L118.128 46.4481L118.137 46.4389ZM118.364 49.5969V49.8069C118.364 49.8525 118.4 49.8981 118.454 49.8981C118.509 49.8981 118.545 49.8616 118.545 49.8069V49.5969C118.545 49.5422 118.5 49.5057 118.454 49.5057C118.4 49.5057 118.364 49.5513 118.364 49.5969ZM118.155 53.193L118.192 52.9831C118.192 52.9649 118.183 52.9466 118.155 52.9375C118.137 52.9375 118.119 52.9466 118.11 52.974L118.074 53.1839C118.074 53.1839 118.083 53.2204 118.101 53.2204C118.119 53.2204 118.137 53.2204 118.137 53.193H118.155ZM70.7646 52.5085C71.5166 52.4355 72.0602 51.7692 71.9967 51.0116L71.9786 50.7835V50.7652C71.9061 50.035 71.272 49.4874 70.5381 49.533C69.7862 49.5787 69.2154 50.2267 69.2607 50.9843L69.2789 51.2307C69.2789 51.2307 69.2789 51.2672 69.2789 51.2763C69.3513 52.0339 70.0127 52.5815 70.7646 52.5176V52.5085ZM71.8971 47.4247V47.1965L71.9062 47.1782C71.9424 46.4754 71.4169 45.8731 70.7284 45.8092C70.0127 45.7453 69.3876 46.2747 69.3242 46.9957L69.306 47.2421C69.306 47.2421 69.306 47.2695 69.306 47.2878C69.2698 48.0088 69.8224 48.6295 70.5381 48.666C71.2539 48.7025 71.8699 48.1457 71.9062 47.4247H71.8971ZM72.3319 43.8651L72.3772 43.6369V43.6187C72.5131 42.9706 72.1055 42.3226 71.4622 42.1674C70.8009 42.0123 70.1395 42.423 69.9764 43.0893L69.9221 43.3266C69.9221 43.3266 69.9221 43.354 69.9221 43.3631C69.7862 44.0385 70.2211 44.6957 70.8824 44.8326C71.5528 44.9695 72.2051 44.5314 72.341 43.8651H72.3319ZM71.7793 41.1087C72.3863 41.3369 73.0658 41.0174 73.2832 40.4059L73.3557 40.1868V40.1686C73.5731 39.5753 73.2832 38.909 72.7034 38.6717C72.1055 38.4253 71.426 38.7174 71.1814 39.3198L71.0908 39.5479C71.0908 39.5479 71.0817 39.5753 71.0727 39.5845C70.8462 40.196 71.1633 40.8805 71.7703 41.0996L71.7793 41.1087ZM74.7509 37.1201L74.8596 36.9102C75.1404 36.3717 74.9683 35.7145 74.4519 35.4042C73.9264 35.0939 73.247 35.2673 72.9389 35.7967L72.8121 36.0066C72.8121 36.0066 72.803 36.034 72.794 36.0431C72.495 36.5816 72.6943 37.2662 73.2379 37.5582C73.7724 37.8594 74.4519 37.6586 74.7418 37.111L74.7509 37.1201ZM75.222 34.2816C75.684 34.6375 76.3363 34.5463 76.6896 34.0808L76.8255 33.8982C77.1607 33.4419 77.0882 32.7939 76.6534 32.4379C76.2095 32.0728 75.5481 32.1367 75.1857 32.5931L75.0317 32.7847C75.0317 32.7847 75.0136 32.803 75.0136 32.8121C74.6603 33.2776 74.7509 33.9347 75.2129 34.2907L75.222 34.2816ZM77.8855 29.7454L77.7043 29.9097C77.7043 29.9097 77.6862 29.9279 77.6771 29.9371C77.2876 30.3204 77.2785 30.9502 77.659 31.3426C78.0395 31.7351 78.6646 31.7442 79.0542 31.3609L79.2173 31.1966C79.5978 30.8133 79.6159 30.2109 79.2535 29.8184C78.8911 29.4168 78.266 29.3894 77.8674 29.7545L77.8855 29.7454ZM80.7483 27.4819C80.7483 27.4819 80.7302 27.491 80.7211 27.5001C80.3044 27.8013 80.2138 28.3854 80.5128 28.7962C80.8117 29.216 81.3916 29.3073 81.7992 29.0061L81.9804 28.8692H81.9895C82.3881 28.568 82.4878 28.0112 82.216 27.6005C81.9351 27.1807 81.3644 27.062 80.9386 27.3449L80.7393 27.4819H80.7483ZM84.3269 25.4282L84.1094 25.5286C84.1094 25.5286 84.0913 25.5286 84.0823 25.5378C83.6565 25.7568 83.4934 26.2771 83.7108 26.706C83.9283 27.135 84.4446 27.2993 84.8705 27.0803L85.0698 26.9707H85.0788C85.4865 26.7517 85.6586 26.2497 85.4593 25.8298C85.26 25.4009 84.7436 25.2183 84.3178 25.4191L84.3269 25.4282ZM88.1953 25.6473L88.4128 25.5743H88.4218C88.8204 25.4374 89.0469 24.9993 88.9292 24.5885C88.8023 24.1687 88.3584 23.9314 87.9417 24.05L87.7061 24.1231C87.7061 24.1231 87.688 24.1231 87.6789 24.1231C87.2622 24.2691 87.0357 24.7163 87.1807 25.1362C87.3256 25.556 87.7695 25.7842 88.1863 25.6382L88.1953 25.6473ZM91.7105 24.7255L91.937 24.6798C92.3175 24.6068 92.5892 24.2417 92.5258 23.8492C92.4715 23.4477 92.1 23.1647 91.7014 23.2286L91.4659 23.2651C91.4659 23.2651 91.4477 23.2651 91.4387 23.2651C91.04 23.3381 90.7773 23.7215 90.8407 24.1231C90.9132 24.5247 91.2937 24.7893 91.6923 24.7255H91.7105ZM95.3343 24.333H95.5608C95.9141 24.3239 96.204 24.0318 96.204 23.6667C96.204 23.2925 95.9051 22.9913 95.5427 22.9913H95.2981H95.2799C94.9085 23.0004 94.6186 23.3107 94.6277 23.685C94.6367 24.0592 94.9447 24.3512 95.3162 24.3421L95.3343 24.333ZM98.4508 23.8036C98.4146 24.1413 98.6501 24.4425 98.9853 24.4881L99.2118 24.5155C99.5289 24.552 99.8279 24.333 99.8822 24.0044C99.9366 23.6758 99.7101 23.3655 99.3749 23.3107L99.1393 23.2742H99.1212C98.786 23.2377 98.4871 23.475 98.4418 23.8127L98.4508 23.8036ZM102.192 24.5064C102.111 24.7985 102.283 25.0997 102.573 25.1818L102.79 25.2457C103.071 25.3278 103.361 25.1636 103.452 24.8806C103.542 24.5977 103.379 24.2873 103.098 24.1961L102.872 24.1231C102.872 24.1231 102.863 24.1231 102.854 24.1231C102.564 24.0409 102.265 24.2143 102.183 24.5064H102.192ZM106.034 26.414L106.242 26.5052C106.478 26.6148 106.749 26.5052 106.867 26.2771C106.985 26.0398 106.885 25.7477 106.65 25.629L106.432 25.5286C106.432 25.5286 106.423 25.5286 106.414 25.5286C106.17 25.4191 105.889 25.5286 105.78 25.7751C105.671 26.0215 105.78 26.3044 106.025 26.414H106.034ZM109.277 28.1573L109.467 28.285C109.658 28.4037 109.902 28.3581 110.029 28.1755C110.156 27.9838 110.111 27.7283 109.92 27.5914L109.721 27.4545C109.721 27.4545 109.721 27.4545 109.712 27.4545C109.513 27.3267 109.259 27.3906 109.132 27.5823C109.005 27.783 109.069 28.0386 109.259 28.1664L109.277 28.1573ZM112.24 30.366L112.412 30.5212C112.557 30.649 112.774 30.6398 112.901 30.4938C113.037 30.3478 113.028 30.1287 112.883 29.9918L112.711 29.8275C112.566 29.6997 112.339 29.7089 112.212 29.864C112.086 30.0101 112.095 30.2383 112.249 30.366H112.24ZM115.302 32.6204C115.193 32.4927 115.012 32.4835 114.885 32.5839C114.758 32.6935 114.749 32.876 114.849 33.0038L115.003 33.1863C115.102 33.305 115.284 33.3232 115.401 33.2228C115.528 33.1224 115.546 32.9399 115.447 32.8121L115.302 32.6296V32.6204ZM117.132 35.6872C117.023 35.7511 116.987 35.8971 117.059 36.0066L117.186 36.2074C117.25 36.3169 117.385 36.3443 117.494 36.2896C117.603 36.2257 117.639 36.0888 117.576 35.9792L117.458 35.7693C117.394 35.6598 117.25 35.6233 117.141 35.6963L117.132 35.6872ZM118.799 39.3106L118.889 39.5297C118.926 39.6118 119.016 39.6483 119.098 39.621C119.179 39.5845 119.225 39.4932 119.188 39.411L119.098 39.192C119.061 39.1098 118.962 39.0642 118.88 39.1007C118.799 39.1372 118.753 39.2376 118.79 39.3198L118.799 39.3106ZM120.239 42.7972C120.221 42.7424 120.167 42.7059 120.112 42.7242C120.058 42.7424 120.022 42.7972 120.04 42.852L120.103 43.0802C120.121 43.1349 120.167 43.1623 120.221 43.1532C120.275 43.144 120.312 43.0893 120.294 43.0345L120.239 42.8063V42.7972ZM120.819 46.5393C120.819 46.5393 120.792 46.5028 120.774 46.5028C120.747 46.5028 120.737 46.5302 120.737 46.5485L120.765 46.7858C120.765 46.7858 120.783 46.8223 120.801 46.8223C120.819 46.8223 120.837 46.804 120.837 46.7858L120.819 46.5485V46.5393ZM70.665 57.8114L70.5834 57.5649V57.5467C70.2935 56.78 69.4601 56.3784 68.6809 56.634C67.8927 56.8987 67.4669 57.7657 67.7297 58.5598L67.8203 58.8245C67.8203 58.8245 67.8293 58.861 67.8384 58.8701C68.1283 59.6551 68.998 60.0658 69.7862 59.7646C70.5653 59.4725 70.973 58.5963 70.674 57.8022L70.665 57.8114ZM69.5416 53.9871L69.4872 53.7407V53.7224C69.3242 52.9649 68.5903 52.4629 67.8203 52.5998C67.0411 52.7367 66.5157 53.4942 66.6516 54.2792L66.6969 54.553C66.6969 54.553 66.6969 54.5895 66.7059 54.5986C66.869 55.3835 67.6391 55.8855 68.4182 55.7213C69.1973 55.557 69.6956 54.7812 69.5325 53.9962L69.5416 53.9871ZM67.7025 51.5045C68.4635 51.4589 69.0342 50.8017 68.989 50.035L68.9708 49.7795V49.7612C68.9255 49.0219 68.3095 48.4469 67.5666 48.4652C66.8146 48.4834 66.2167 49.1223 66.2348 49.8799V50.1537C66.2348 50.1537 66.2348 50.1902 66.2439 50.1993C66.2892 50.966 66.9415 51.541 67.7025 51.4954V51.5045ZM69.0342 46.0373L69.0524 45.7909V45.7727C69.1158 45.0699 68.6175 44.4492 67.9199 44.358C67.2042 44.2667 66.561 44.7778 66.4704 45.4988L66.4341 45.7727C66.4341 45.7727 66.4341 45.8 66.4341 45.8183C66.3707 46.5393 66.8962 47.1782 67.6119 47.2421C68.3276 47.306 68.9618 46.7766 69.0252 46.0556L69.0342 46.0373ZM69.6684 42.0853L69.7318 41.8297V41.8115C69.8949 41.1635 69.5144 40.5063 68.8712 40.3238C68.2189 40.1412 67.5394 40.5245 67.3582 41.1817L67.2857 41.4464C67.2857 41.4464 67.2857 41.4738 67.2767 41.4829C67.1136 42.1492 67.5213 42.8246 68.1826 42.9889C68.844 43.1532 69.5144 42.7425 69.6775 42.0762L69.6684 42.0853ZM70.8824 38.261L70.973 38.0237C71.2085 37.4304 70.9458 36.7642 70.3751 36.5086C69.7862 36.2439 69.1067 36.5086 68.844 37.0927L68.7353 37.3392C68.7353 37.3392 68.7262 37.3666 68.7172 37.3757C68.4725 37.9781 68.7625 38.6626 69.3513 38.909C69.9402 39.1555 70.6287 38.8634 70.8734 38.2701L70.8824 38.261ZM71.1451 35.03C71.6615 35.3403 72.3319 35.1669 72.649 34.6467L72.7759 34.4185C73.0748 33.8982 72.9208 33.2411 72.4225 32.9216C71.9152 32.5931 71.2448 32.7391 70.9186 33.2502L70.7737 33.4784C70.7737 33.4784 70.7556 33.4966 70.7556 33.5058C70.4475 34.026 70.6197 34.7014 71.1361 35.0209L71.1451 35.03ZM73.5369 29.791L73.3557 29.9918C73.3557 29.9918 73.3376 30.0101 73.3376 30.0192C72.9842 30.4573 73.0477 31.1145 73.4825 31.4704C73.9174 31.8264 74.5697 31.7625 74.923 31.3244L75.077 31.1236C75.4213 30.6855 75.3669 30.0557 74.9592 29.6906C74.5334 29.3164 73.8902 29.362 73.5188 29.791H73.5369ZM76.6171 26.7608L76.4088 26.9342C76.4088 26.9342 76.3907 26.9525 76.3816 26.9525C75.992 27.3084 75.9649 27.92 76.3182 28.3124C76.6715 28.7049 77.2785 28.7323 77.6681 28.3763L77.8583 28.2029C78.2388 27.8469 78.2751 27.2628 77.9398 26.8703C77.6046 26.4687 76.9977 26.414 76.599 26.7608H76.6171ZM79.8786 24.3695C79.8786 24.3695 79.8605 24.3786 79.8514 24.3877C79.4437 24.6616 79.335 25.2183 79.6068 25.6199C79.8786 26.0215 80.4312 26.1402 80.8299 25.8663L81.0382 25.7203C81.4278 25.4465 81.5456 24.9171 81.301 24.5064C81.0473 24.0866 80.5037 23.9588 80.087 24.2235L79.8605 24.3695H79.8786ZM83.9192 22.252L83.6746 22.3615C83.6746 22.3615 83.6565 22.3615 83.6474 22.3706C83.2397 22.5623 83.0676 23.0552 83.2578 23.4659C83.4481 23.8766 83.9373 24.05 84.345 23.8584L84.5715 23.7488C84.961 23.5572 85.1422 23.0917 84.9701 22.681C84.798 22.2702 84.3178 22.0786 83.9101 22.252H83.9192ZM88.1138 22.3889L88.3584 22.3159C88.7389 22.1972 88.9654 21.7956 88.8657 21.4123C88.7661 21.0107 88.3584 20.7734 87.9598 20.8829L87.7061 20.9468C87.7061 20.9468 87.688 20.9468 87.6789 20.9468C87.2803 21.0655 87.0629 21.4853 87.1807 21.8778C87.2984 22.2794 87.7152 22.4984 88.1047 22.3798L88.1138 22.3889ZM92.0728 21.4944L92.3265 21.4579C92.6798 21.4032 92.9335 21.0746 92.8973 20.7186C92.861 20.3444 92.5258 20.0797 92.1544 20.1162L91.8917 20.1436H91.8735C91.5021 20.1984 91.2484 20.5452 91.3028 20.9103C91.3571 21.2845 91.7014 21.5401 92.0638 21.4853L92.0728 21.4944ZM96.1316 21.1932H96.3852C96.7114 21.1932 96.9741 20.9377 96.9922 20.6091C97.0013 20.2714 96.7476 19.9976 96.4124 19.9793H96.1497L96.1316 19.9702C95.7963 19.9702 95.5246 20.2349 95.5246 20.5726C95.5246 20.9103 95.7873 21.1841 96.1225 21.1841L96.1316 21.1932ZM99.7463 20.892C99.701 21.1841 99.9003 21.4671 100.19 21.5127L100.444 21.5492C100.725 21.5948 100.997 21.4032 101.051 21.1202C101.105 20.8282 100.915 20.5452 100.634 20.4905L100.371 20.4357C100.371 20.4357 100.362 20.4357 100.353 20.4357C100.063 20.3901 99.7826 20.5909 99.7373 20.8829L99.7463 20.892ZM104.176 22.4345L104.421 22.5167C104.657 22.5897 104.91 22.471 104.992 22.2337C105.073 21.9873 104.947 21.7226 104.711 21.6405L104.457 21.5492C104.457 21.5492 104.448 21.5492 104.439 21.5492C104.195 21.4671 103.932 21.604 103.859 21.8595C103.778 22.106 103.914 22.3706 104.167 22.4437L104.176 22.4345ZM107.991 23.9496L108.217 24.0683C108.407 24.1596 108.634 24.0866 108.733 23.904C108.833 23.7123 108.761 23.475 108.57 23.3746L108.335 23.2469C108.335 23.2469 108.335 23.2469 108.326 23.2469C108.126 23.1465 107.891 23.2286 107.8 23.4294C107.701 23.6302 107.782 23.8675 107.982 23.9588L107.991 23.9496ZM111.551 26.0215L111.759 26.1675C111.904 26.2679 112.095 26.2314 112.203 26.0945C112.312 25.9485 112.276 25.7477 112.14 25.6382L111.932 25.483C111.787 25.3826 111.578 25.4191 111.479 25.5651C111.379 25.7112 111.415 25.9211 111.56 26.0215H111.551ZM114.776 28.6045L114.966 28.7779C115.066 28.8692 115.22 28.8692 115.32 28.7779C115.419 28.6775 115.419 28.5223 115.32 28.4219L115.13 28.2394C115.03 28.139 114.867 28.1481 114.767 28.2485C114.668 28.3489 114.677 28.5132 114.776 28.6136V28.6045ZM117.884 31.4157C117.82 31.3335 117.702 31.3244 117.621 31.3883C117.539 31.4522 117.53 31.5708 117.594 31.653L117.757 31.8538C117.82 31.9359 117.929 31.945 118.011 31.8903C118.092 31.8264 118.11 31.7168 118.047 31.6347L117.893 31.4248L117.884 31.4157ZM120.058 35.3129C120.085 35.3677 120.158 35.386 120.212 35.3586C120.266 35.3312 120.284 35.2582 120.257 35.2034L120.14 34.9752C120.103 34.9205 120.04 34.9022 119.976 34.9296C119.922 34.9661 119.904 35.03 119.931 35.0939L120.058 35.3221V35.3129ZM121.879 39.119C121.879 39.119 121.915 39.0916 121.906 39.0642L121.816 38.8178C121.807 38.7904 121.779 38.7813 121.752 38.7904C121.725 38.7995 121.716 38.8269 121.725 38.8543L121.816 39.1007C121.816 39.1007 121.852 39.1372 121.87 39.1281L121.879 39.119ZM71.2086 65.4417L71.0455 65.2044V65.1861C70.511 64.4468 69.4963 64.2551 68.7443 64.7571C67.9743 65.2682 67.7568 66.3179 68.2732 67.0937L68.4454 67.3492C68.4454 67.3492 68.4635 67.3857 68.4816 67.3949C69.0161 68.1616 70.067 68.335 70.8281 67.7965C71.5891 67.258 71.7612 66.1992 71.2267 65.4325L71.2086 65.4417ZM65.9087 62.8131L66.0355 63.0869C66.0355 63.0869 66.0536 63.1234 66.0627 63.1325C66.4613 63.9266 67.4307 64.246 68.2189 63.8353C69.0071 63.4337 69.3242 62.4571 68.9165 61.663L68.7896 61.4075V61.3892C68.391 60.6225 67.4579 60.294 66.6787 60.6682C65.8815 61.0424 65.5372 62.0007 65.9087 62.8131ZM67.1951 57.5923L67.1046 57.3276V57.3094C66.8418 56.5336 66.0083 56.0955 65.2202 56.3236C64.4138 56.561 63.9518 57.4189 64.1964 58.2312L64.287 58.5233C64.287 58.5233 64.2961 58.5598 64.3051 58.5689C64.5679 59.3721 65.4376 59.8102 66.2348 59.5364C67.0321 59.2717 67.4669 58.3955 67.1951 57.5923ZM64.9212 54.982C65.7094 54.8451 66.2348 54.0875 66.0989 53.2934L66.0536 53.0105V52.9922C65.9177 52.2256 65.202 51.6962 64.432 51.8057C63.6438 51.9152 63.0911 52.6545 63.1999 53.4486L63.2452 53.7498C63.2452 53.7498 63.2452 53.7863 63.2452 53.7954C63.3811 54.5895 64.133 55.1189 64.9212 54.982ZM62.91 48.885C62.91 48.885 62.91 48.9215 62.91 48.9307C62.9281 49.6973 63.5532 50.2997 64.3142 50.2815C65.0752 50.2632 65.6731 49.6334 65.655 48.8668V48.5747V48.5564C65.6369 47.8171 65.039 47.2239 64.3051 47.2148C63.5532 47.2148 62.9281 47.8171 62.9281 48.5747V48.8759L62.91 48.885ZM63.2995 44.0476C63.2995 44.0476 63.2995 44.075 63.2995 44.0933C63.2089 44.8052 63.7072 45.4623 64.4229 45.5536C65.1296 45.6449 65.7818 45.1429 65.8724 44.4218L65.9087 44.1389V44.1206C65.9993 43.427 65.5282 42.7881 64.8396 42.6786C64.133 42.569 63.4716 43.0436 63.3629 43.7556L63.3176 44.0568L63.2995 44.0476ZM64.4863 39.0368L64.3957 39.3289C64.3957 39.3289 64.3957 39.3563 64.3867 39.3654C64.2055 40.0134 64.586 40.6888 65.2292 40.8805C65.8724 41.0631 66.5429 40.6797 66.7331 40.0317L66.8056 39.7487V39.7305C66.9868 39.1007 66.6335 38.4436 66.0083 38.2428C65.3742 38.042 64.6856 38.3979 64.4863 39.0368ZM67.8112 34.0351C67.2495 33.7613 66.57 33.9895 66.2982 34.5554L66.1624 34.8292C66.1624 34.8292 66.1533 34.8566 66.1442 34.8657C65.8906 35.4407 66.1442 36.1253 66.715 36.3808C67.2857 36.6364 67.9652 36.3808 68.2189 35.8058L68.3367 35.5411C68.5813 34.9661 68.3548 34.309 67.8021 34.0351H67.8112ZM68.7353 30.4117L68.5631 30.6581C68.5631 30.6581 68.545 30.6764 68.545 30.6855C68.2279 31.1783 68.3729 31.8446 68.8621 32.1641C69.3513 32.4835 70.0127 32.3375 70.3298 31.8446L70.4838 31.5982C70.7918 31.1053 70.665 30.4664 70.1939 30.1379C69.7137 29.8001 69.0524 29.9279 68.7262 30.4117H68.7353ZM71.7521 26.6878L71.5438 26.9068C71.5438 26.9068 71.5256 26.9251 71.5256 26.9342C71.1633 27.3449 71.2086 27.9747 71.6162 28.3307C72.0239 28.6958 72.649 28.6501 73.0024 28.2394L73.1835 28.0204C73.5278 27.6096 73.5006 27.0072 73.1201 26.6422C72.7306 26.2679 72.1055 26.2862 71.734 26.6878H71.7521ZM75.2854 23.4659L75.0498 23.6484C75.0498 23.6484 75.0317 23.6576 75.0227 23.6667C74.6422 23.9953 74.5878 24.5703 74.9139 24.9536C75.2401 25.337 75.8108 25.3917 76.1913 25.0632L76.4088 24.8806C76.7802 24.5612 76.8346 24.0044 76.5356 23.6211C76.2276 23.2286 75.6659 23.1556 75.2673 23.4659H75.2854ZM78.9817 20.9651C78.9817 20.9651 78.9636 20.9742 78.9545 20.9833C78.565 21.2206 78.4472 21.7409 78.6827 22.1333C78.9183 22.5258 79.4347 22.6445 79.8242 22.4072L80.0598 22.252C80.4312 22.0147 80.5581 21.5218 80.3406 21.1294C80.1142 20.7278 79.6159 20.5909 79.2173 20.819L78.9636 20.9651H78.9817ZM83.5296 18.7837L83.2578 18.8932C83.2578 18.8932 83.2397 18.8932 83.2307 18.9023C82.8502 19.0666 82.669 19.5138 82.832 19.8972C82.9951 20.2805 83.439 20.4631 83.8195 20.2988L84.0823 20.1801C84.4537 20.0158 84.6258 19.596 84.4809 19.2127C84.3359 18.8293 83.9011 18.6376 83.5206 18.7837H83.5296ZM88.0866 18.7928L88.3584 18.7198C88.7027 18.6285 88.9201 18.2726 88.8386 17.9166C88.757 17.5515 88.4037 17.3233 88.0413 17.4055L87.7514 17.4694H87.7333C87.3709 17.5606 87.1625 17.9349 87.2531 18.2999C87.3437 18.665 87.7152 18.8749 88.0776 18.7837L88.0866 18.7928ZM92.5349 17.9531L92.8157 17.9257C93.1328 17.8892 93.3684 17.6154 93.3412 17.296C93.314 16.9674 93.0332 16.7209 92.707 16.7483L92.4171 16.7666H92.399C92.0728 16.8031 91.8373 17.0952 91.8735 17.4237C91.9098 17.7523 92.1997 17.9896 92.5258 17.9531H92.5349ZM97.0738 17.7979L97.3546 17.8071C97.6264 17.8162 97.8619 17.6063 97.8891 17.3325C97.9072 17.0495 97.6989 16.8031 97.418 16.7757L97.1281 16.7483C97.1281 16.7483 97.119 16.7483 97.11 16.7483C96.8201 16.7392 96.5845 16.9582 96.5664 17.2503C96.5574 17.5424 96.7748 17.7797 97.0647 17.7979H97.0738ZM101.25 17.7979C101.205 18.0352 101.359 18.2726 101.594 18.3182L101.875 18.373C102.102 18.4186 102.328 18.2726 102.383 18.0444C102.437 17.8071 102.292 17.5698 102.057 17.515L101.767 17.4511C101.767 17.4511 101.758 17.4511 101.749 17.4511C101.513 17.4055 101.277 17.5606 101.232 17.7979H101.25ZM106.007 19.5047L106.278 19.6051C106.46 19.669 106.659 19.5777 106.731 19.3952C106.804 19.2127 106.713 19.0027 106.532 18.9297L106.26 18.8202C106.26 18.8202 106.26 18.8202 106.251 18.8202C106.061 18.7563 105.853 18.8567 105.789 19.0392C105.726 19.2218 105.825 19.4408 106.007 19.5047ZM110.201 21.3393L110.455 21.4762C110.591 21.5492 110.754 21.5036 110.826 21.3667C110.908 21.2298 110.853 21.0563 110.727 20.9833L110.473 20.8373C110.337 20.7643 110.165 20.819 110.092 20.9559C110.02 21.0928 110.074 21.2663 110.21 21.3393H110.201ZM114.088 23.7945L114.314 23.9679C114.405 24.0318 114.523 24.0227 114.595 23.9314C114.668 23.8401 114.649 23.7123 114.559 23.6484L114.332 23.4659C114.242 23.3929 114.115 23.4203 114.042 23.5115C113.97 23.6028 113.997 23.7306 114.088 23.8036V23.7945ZM117.784 27.0164C117.829 27.062 117.911 27.0711 117.956 27.0164C118.011 26.9707 118.011 26.8886 117.956 26.843L117.757 26.633C117.702 26.5783 117.621 26.5874 117.576 26.633C117.521 26.6878 117.53 26.7699 117.576 26.8156L117.775 27.0255L117.784 27.0164ZM120.765 30.5577C120.765 30.5577 120.81 30.5851 120.828 30.5668C120.846 30.5486 120.855 30.5212 120.837 30.5029L120.674 30.2656C120.656 30.2383 120.629 30.2383 120.602 30.2565C120.574 30.2748 120.574 30.3021 120.593 30.3295L120.765 30.5668V30.5577ZM73.9536 73.4918L73.7181 73.3001L73.7 73.2819C72.9299 72.643 71.7884 72.7251 71.118 73.4827C70.4385 74.2585 70.511 75.445 71.281 76.1296L71.5347 76.3577C71.5347 76.3577 71.5709 76.3851 71.58 76.4034C72.3773 77.0697 73.555 76.951 74.2073 76.1569C74.8686 75.3538 74.7509 74.1672 73.9627 73.5101H73.9536V73.4918ZM70.4204 70.1056L70.212 69.8775L70.1939 69.8592C69.5597 69.1473 68.4635 69.0651 67.7297 69.6858C66.9777 70.3247 66.8781 71.4473 67.5122 72.2049L67.7297 72.4696C67.7297 72.4696 67.7568 72.5061 67.7659 72.5152C68.4273 73.2545 69.5507 73.3093 70.2845 72.6521C71.0183 71.9858 71.0727 70.8541 70.4204 70.1148V70.1056ZM67.4216 66.2357L67.2495 65.971V65.9528C66.7331 65.1952 65.7275 64.9579 64.9484 65.4417C64.1511 65.9345 63.9065 66.9842 64.3957 67.7873L64.5679 68.0794C64.5679 68.0794 64.586 68.1159 64.595 68.1251C65.1114 68.91 66.1624 69.129 66.9415 68.6088C67.7206 68.0885 67.938 67.0298 67.4216 66.2449V66.2357ZM61.9406 62.95L62.0674 63.2603C62.0674 63.2603 62.0855 63.2968 62.0855 63.3059C62.457 64.1182 63.4173 64.4742 64.2236 64.1C65.0299 63.7258 65.3832 62.7583 65.0118 61.946L64.8849 61.6539V61.6356C64.5135 60.8507 63.5985 60.4856 62.8012 60.8325C61.9859 61.1793 61.6054 62.1285 61.9496 62.95H61.9406ZM61.3426 55.9586C60.5273 56.1685 60.0381 56.9991 60.2464 57.8205L60.328 58.1491C60.328 58.1491 60.337 58.1856 60.337 58.1947C60.5726 59.007 61.4151 59.4725 62.2305 59.2352C63.0368 58.9979 63.4988 58.1491 63.2633 57.3276L63.1727 57.0173V56.9991C62.9371 56.2141 62.1308 55.7486 61.3336 55.9494L61.3426 55.9586ZM60.9893 54.124C61.7775 54.0145 62.3301 53.2843 62.2214 52.4902L62.1761 52.1708V52.1525C62.0674 51.3859 61.3789 50.8382 60.6088 50.9112C59.8206 50.9934 59.2499 51.6962 59.3314 52.4902L59.3676 52.8279C59.3676 52.8279 59.3676 52.8645 59.3676 52.8736C59.4764 53.6676 60.2011 54.2244 60.9893 54.1149V54.124ZM59.2046 47.1235L59.1865 47.4612C59.1865 47.4612 59.1865 47.4977 59.1865 47.5068C59.1774 48.2552 59.7753 48.8759 60.5182 48.885C61.2611 48.8941 61.8772 48.2918 61.8862 47.5433V47.2239V47.2056C61.8862 46.4755 61.3336 45.8731 60.5998 45.8366C59.8569 45.8 59.2317 46.3842 59.1955 47.1326L59.2046 47.1235ZM61.3426 40.7984C60.6632 40.6615 60.0018 41.1087 59.8659 41.8023L59.8025 42.1309C59.8025 42.1309 59.8025 42.1583 59.8025 42.1766C59.6938 42.8702 60.1558 43.5274 60.8534 43.6369C61.5419 43.7464 62.1942 43.2809 62.303 42.5782L62.3483 42.2587V42.2405C62.457 41.565 62.0221 40.9261 61.3517 40.7984H61.3426ZM61.2973 36.6364L61.1886 36.9558C61.1886 36.9558 61.1796 36.9832 61.1796 36.9923C60.9803 37.613 61.3245 38.2884 61.9406 38.4892C62.5566 38.69 63.227 38.3432 63.4263 37.7225L63.5169 37.4122V37.3939C63.7163 36.7915 63.3992 36.1344 62.8012 35.9245C62.1942 35.7054 61.5238 36.0249 61.3064 36.6364H61.2973ZM64.9484 31.3153C64.4229 31.0323 63.7616 31.2331 63.4807 31.7625L63.3267 32.0546C63.3267 32.0546 63.3176 32.0819 63.3086 32.0911C63.0368 32.6387 63.2633 33.2958 63.8069 33.5697C64.3504 33.8435 65.0027 33.6153 65.2745 33.0677L65.4104 32.7756C65.6641 32.2371 65.4648 31.5982 64.9484 31.3153ZM66.3435 27.2811L66.1442 27.5457C66.1442 27.5457 66.1261 27.564 66.1261 27.5731C65.809 28.0295 65.9177 28.6684 66.3798 28.9878C66.8418 29.3073 67.4669 29.1978 67.784 28.7323L67.9652 28.4676C68.2732 28.0112 68.1736 27.3997 67.7478 27.0711C67.3039 26.7334 66.6787 26.8247 66.3435 27.2719V27.2811ZM69.8315 23.2925L69.5959 23.5298L69.5778 23.548C69.2245 23.9223 69.2426 24.5064 69.6141 24.8624C69.9855 25.2183 70.5653 25.2001 70.9186 24.8259L71.1361 24.5885C71.4713 24.2235 71.4713 23.6576 71.118 23.3016C70.7646 22.9365 70.1848 22.9365 69.8224 23.3016L69.8315 23.2925ZM73.4282 21.2571C73.709 21.6222 74.2345 21.6861 74.5968 21.394L74.8415 21.1932C75.1857 20.9103 75.2582 20.3992 74.9955 20.0432C74.7237 19.669 74.2073 19.5869 73.8358 19.8607L73.5731 20.0524C73.5731 20.0524 73.555 20.0615 73.555 20.0706C73.1926 20.3535 73.1292 20.8829 73.4191 21.248L73.4282 21.2571ZM78.0395 17.2321C78.0395 17.2321 78.0214 17.2321 78.0214 17.2412C77.659 17.442 77.5412 17.9075 77.7405 18.2634C77.9398 18.6285 78.4019 18.7472 78.7552 18.5464L79.027 18.3912C79.3713 18.1904 79.4981 17.7523 79.3169 17.3872C79.1267 17.0221 78.6827 16.8852 78.3113 17.0769L78.0214 17.2321H78.0395ZM83.1491 15.005L82.8411 15.1146H82.823C82.4787 15.2423 82.3156 15.6348 82.4425 15.9725C82.5693 16.3193 82.9589 16.4836 83.2941 16.3559L83.584 16.2372C83.9101 16.1094 84.0823 15.7352 83.9645 15.4066C83.8467 15.0598 83.4753 14.8773 83.131 14.9959L83.1491 15.005ZM88.1138 14.8773L88.4218 14.8042C88.7208 14.7403 88.911 14.4392 88.8567 14.138C88.8023 13.8276 88.5034 13.6177 88.1953 13.6816L87.8782 13.7455C87.8782 13.7455 87.8692 13.7455 87.8601 13.7455C87.5521 13.8185 87.3528 14.1197 87.4253 14.4392C87.4977 14.7495 87.7967 14.9503 88.1138 14.8773ZM93.1147 14.1288L93.4318 14.1106C93.6945 14.0923 93.8938 13.8733 93.8848 13.6086C93.8757 13.3439 93.6492 13.134 93.3865 13.1431H93.0603C93.0603 13.1431 93.0513 13.1522 93.0422 13.1522C92.7704 13.1705 92.5711 13.4078 92.5892 13.6816C92.6074 13.9554 92.8429 14.1562 93.1147 14.138V14.1288ZM98.1881 14.1288L98.5052 14.1562C98.7135 14.1745 98.9038 14.0193 98.931 13.8003C98.9581 13.5812 98.7951 13.3804 98.5776 13.3621L98.2515 13.3256H98.2424C98.025 13.3074 97.8257 13.4717 97.8076 13.6999C97.7895 13.9189 97.9525 14.1197 98.179 14.138L98.1881 14.1288ZM103.216 14.8864L103.524 14.9594C103.687 14.9959 103.85 14.8955 103.896 14.7403C103.941 14.5761 103.841 14.4026 103.678 14.357L103.361 14.2749C103.361 14.2749 103.361 14.2749 103.352 14.2749C103.18 14.2384 103.017 14.3388 102.972 14.5122C102.935 14.6856 103.035 14.8499 103.207 14.8955L103.216 14.8864ZM108.09 16.3924L108.389 16.511C108.498 16.5567 108.625 16.511 108.679 16.3924C108.724 16.2737 108.679 16.1459 108.561 16.0912L108.262 15.9634C108.145 15.9178 108.009 15.9725 107.963 16.0912C107.918 16.2098 107.972 16.3467 108.09 16.3924ZM112.973 18.7837C113.037 18.8202 113.118 18.8019 113.164 18.738C113.2 18.6742 113.182 18.5829 113.118 18.5464L112.847 18.373C112.774 18.3364 112.693 18.3547 112.647 18.4277C112.611 18.5007 112.629 18.5829 112.702 18.6285L112.982 18.7928L112.973 18.7837ZM117.186 21.7226C117.186 21.7226 117.24 21.7409 117.259 21.7226C117.277 21.7044 117.277 21.6679 117.259 21.6496L117.014 21.4397C116.987 21.4214 116.951 21.4214 116.932 21.4488C116.914 21.4762 116.914 21.5127 116.941 21.5309L117.195 21.7317L117.186 21.7226ZM77.0882 84.9738L77.4234 85.1472C77.4234 85.1472 77.4688 85.1654 77.4869 85.1746C78.5287 85.6583 79.7608 85.1928 80.241 84.1432C80.7211 83.0936 80.2591 81.8523 79.2173 81.3685H79.1991L78.8911 81.2225H78.8639C77.8583 80.7479 76.6534 81.1677 76.1551 82.1809C75.6478 83.2122 76.0645 84.4627 77.0792 84.9738H77.0882ZM74.162 78.5756L74.1439 78.5574C73.256 77.9733 72.0602 78.2105 71.4532 79.0868C70.8281 79.9903 71.0455 81.2316 71.9424 81.8523L72.2504 82.0713C72.2504 82.0713 72.2867 82.0987 72.3048 82.1078C73.2198 82.7102 74.4519 82.4455 75.0408 81.5237C75.6387 80.6019 75.376 79.3606 74.461 78.7673H74.4519L74.1711 78.5756H74.162ZM67.5756 78.2836C67.5756 78.2836 67.6119 78.311 67.6209 78.3292C68.4001 79.0229 69.5869 78.9499 70.2845 78.1649C70.973 77.38 70.9005 76.1843 70.1214 75.4815H70.1123L69.8587 75.2442L69.8406 75.226C69.0886 74.5506 67.929 74.5962 67.2314 75.3446C66.5157 76.1022 66.5519 77.2978 67.3039 78.0189L67.5756 78.2744V78.2836ZM63.5351 73.8386C63.5351 73.8386 63.5622 73.8752 63.5713 73.8843C64.2055 74.651 65.3289 74.7514 66.0899 74.1125C66.8509 73.4736 66.9505 72.3418 66.3164 71.5751L66.0989 71.3013L66.0808 71.283C65.4648 70.5437 64.3776 70.4251 63.6166 71.0184C62.8375 71.6299 62.7016 72.7525 63.3086 73.5375L63.5351 73.8386ZM60.2011 68.8461C60.2011 68.8461 60.2192 68.8826 60.2283 68.8917C60.7175 69.6949 61.7594 69.9505 62.5566 69.4667C63.3539 68.9739 63.6075 67.9242 63.1274 67.1211L62.9462 66.8199V66.8016C62.466 66.0258 61.4604 65.752 60.6722 66.2083C59.8569 66.6647 59.576 67.7052 60.029 68.5266L60.2102 68.8552L60.2011 68.8461ZM59.7663 64.3373C60.5816 63.9905 60.9621 63.0504 60.6179 62.2289L60.482 61.9003V61.8821C60.1468 61.088 59.2499 60.6955 58.4436 61.0059C57.6191 61.3253 57.2115 62.2472 57.5195 63.0777L57.6554 63.4246C57.6554 63.4246 57.6735 63.4611 57.6735 63.4793C58.0178 64.3008 58.9509 64.6841 59.7663 64.3373ZM56.994 55.5478C56.1877 55.7304 55.6804 56.5336 55.8525 57.3459L55.9341 57.711C55.9341 57.711 55.934 57.7475 55.9431 57.7566C56.1515 58.5689 56.9668 59.0527 57.7641 58.8519C58.5704 58.6419 59.0506 57.8205 58.8512 57.0173L58.7697 56.6705V56.6522C58.5704 55.8673 57.7822 55.3835 56.994 55.557V55.5478ZM55.0734 51.8057C55.0734 51.8057 55.0734 51.8422 55.0734 51.8513C55.1549 52.6272 55.8435 53.193 56.6135 53.12C57.3836 53.0379 57.9453 52.3442 57.8728 51.5684L57.8366 51.2124V51.1942C57.755 50.4458 57.1027 49.8799 56.3508 49.9346C55.5807 49.9894 55.0009 50.6557 55.0462 51.4406L55.0734 51.8148V51.8057ZM56.3327 47.2786C57.0574 47.3151 57.6644 46.7493 57.7007 46.0282L57.7188 45.6723V45.654C57.755 44.9512 57.2296 44.3397 56.5229 44.2849C55.8072 44.2302 55.173 44.7687 55.1187 45.4897L55.0915 45.8639C55.0915 45.8639 55.0915 45.8913 55.0915 45.9096C55.0553 46.6397 55.617 47.2513 56.3327 47.2878V47.2786ZM55.9793 39.9769C55.9793 39.9769 55.9793 40.0043 55.9793 40.0134C55.8435 40.6797 56.2783 41.3186 56.9306 41.4555C57.592 41.5924 58.2261 41.1543 58.362 40.4972L58.4254 40.1503V40.1321C58.5523 39.4932 58.1537 38.8634 57.5195 38.7082C56.8672 38.5531 56.224 38.9638 56.0699 39.6118L55.9884 39.9769H55.9793ZM57.8637 33.9713L57.7279 34.3181C57.7279 34.3181 57.7188 34.3455 57.7188 34.3546C57.5104 34.9387 57.8094 35.5868 58.3892 35.7967C58.969 36.0066 59.6123 35.7054 59.8206 35.1213L59.9384 34.7836C60.1377 34.2086 59.8659 33.5788 59.3042 33.3506C58.7335 33.1224 58.0902 33.3962 57.8547 33.9713H57.8637ZM60.6813 30.4208C61.1796 30.6946 61.7956 30.5029 62.0674 30.0009L62.2305 29.6815C62.4932 29.1886 62.3211 28.5771 61.85 28.3033C61.3698 28.0204 60.7447 28.1846 60.4639 28.6684L60.2827 28.9878C60.2827 28.9878 60.2736 29.0061 60.2645 29.0152C59.9928 29.5172 60.183 30.1379 60.6813 30.4117V30.4208ZM63.8069 23.831L63.5804 24.1139C63.5804 24.1139 63.5622 24.1322 63.5622 24.1413C63.2542 24.552 63.3358 25.1362 63.7525 25.4465C64.1602 25.7568 64.74 25.6747 65.048 25.2548L65.2564 24.9719C65.5554 24.5612 65.4829 23.9953 65.0933 23.685C64.6947 23.3655 64.1149 23.4294 63.7978 23.831H63.8069ZM68.69 21.0107L68.9346 20.7551C69.2517 20.4357 69.2607 19.9246 68.9618 19.596C68.6537 19.2583 68.1283 19.24 67.7931 19.5504L67.5213 19.7968C67.5213 19.7968 67.5032 19.8059 67.5032 19.815C67.177 20.1436 67.177 20.673 67.5032 21.0016C67.8293 21.3302 68.3548 21.3302 68.6809 21.0016L68.69 21.0107ZM71.9152 17.1864C72.1508 17.515 72.6128 17.588 72.9389 17.3507L73.2198 17.1408C73.5369 16.9035 73.6184 16.4563 73.3919 16.1277C73.1654 15.79 72.7124 15.7078 72.3772 15.9269L72.0783 16.1277C72.0783 16.1277 72.0602 16.1368 72.0602 16.1459C71.734 16.3832 71.6615 16.8487 71.8971 17.1773L71.9152 17.1864ZM77.1064 13.2161C76.7893 13.3804 76.6715 13.7729 76.8346 14.0832C76.9977 14.4026 77.3872 14.5213 77.6952 14.357L78.0033 14.1927C78.3022 14.0284 78.4291 13.6633 78.2841 13.353C78.1301 13.0336 77.7587 12.8967 77.4416 13.0518L77.1154 13.207C77.1154 13.207 77.0973 13.207 77.0973 13.2161H77.1064ZM82.8592 10.9526L82.515 11.0621C82.515 11.0621 82.5059 11.0621 82.4968 11.0621C82.216 11.1625 82.062 11.4728 82.1616 11.7558C82.2613 12.0387 82.5693 12.1939 82.8502 12.0935L83.1854 11.9748C83.4572 11.8744 83.6112 11.5824 83.5206 11.2994C83.43 11.0165 83.131 10.8522 82.8502 10.9435L82.8592 10.9526ZM88.295 10.6331L88.6392 10.5692C88.8748 10.5236 89.0288 10.3046 88.9926 10.0672C88.9563 9.82082 88.7299 9.65653 88.4943 9.69304L88.141 9.7478C88.141 9.7478 88.1319 9.7478 88.1228 9.7478C87.8782 9.79343 87.7242 10.0307 87.7605 10.268C87.8058 10.5145 88.0413 10.6696 88.2769 10.6331H88.295ZM93.9119 9.9851L94.2653 9.97598C94.4465 9.97598 94.6005 9.81169 94.6005 9.62914C94.6005 9.43747 94.4465 9.28231 94.2562 9.28231H93.8938C93.8938 9.28231 93.8938 9.28231 93.8848 9.28231C93.6945 9.28231 93.5405 9.45573 93.5496 9.6474C93.5496 9.83907 93.7217 9.99423 93.9119 9.9851ZM99.5742 10.1859L99.9275 10.2315C100.063 10.2498 100.181 10.1494 100.199 10.0216C100.217 9.8847 100.127 9.75692 99.991 9.73867L99.6376 9.68391C99.5017 9.66565 99.3749 9.76605 99.3568 9.91209C99.3387 10.049 99.4383 10.1768 99.5833 10.195L99.5742 10.1859ZM105.155 11.2446L105.499 11.3359C105.581 11.3542 105.662 11.3085 105.689 11.2355C105.717 11.1534 105.671 11.0712 105.59 11.0439L105.246 10.9343C105.164 10.9161 105.073 10.9617 105.055 11.053C105.037 11.1351 105.082 11.2264 105.173 11.2446H105.155ZM110.853 13.2709C110.853 13.2709 110.917 13.2709 110.926 13.2435C110.944 13.2161 110.926 13.1796 110.899 13.1705L110.573 13.0153C110.536 12.9971 110.5 13.0153 110.491 13.0518C110.473 13.0883 110.491 13.1248 110.527 13.134L110.853 13.28V13.2709ZM89.0107 91.4084C89.2191 90.1397 88.3765 88.9441 87.1172 88.725H87.0991L86.7277 88.6611H86.7005C85.4865 88.4512 84.3178 89.2544 84.0641 90.4774C83.8105 91.7279 84.6168 92.9509 85.8579 93.2065L86.2656 93.2886C86.2656 93.2886 86.32 93.2977 86.3381 93.3069C87.5974 93.5168 88.7842 92.668 89.0016 91.3993L89.0107 91.4084ZM82.6871 89.6651C83.0585 88.4968 82.4334 87.2464 81.2738 86.8722H81.2557L80.8933 86.7536H80.8661C79.7427 86.3793 78.5378 86.9726 78.1301 88.0953C77.7134 89.2453 78.3022 90.5139 79.4437 90.9247L79.8333 91.0707C79.8333 91.0707 79.8786 91.089 79.9058 91.0981C81.0654 91.4723 82.3066 90.8425 82.678 89.6743L82.6871 89.6651ZM76.6262 87.429C77.1426 86.3885 76.7259 85.1198 75.6931 84.5996H75.6749L75.3397 84.4261H75.3126C74.3069 83.915 73.0839 84.2984 72.5494 85.2932C71.9967 86.3155 72.3773 87.5933 73.3919 88.1409L73.7543 88.3417C73.7543 88.3417 73.7996 88.3691 73.8177 88.3782C74.8505 88.8984 76.1098 88.4786 76.6262 87.4381V87.429ZM70.973 84.2984C71.6072 83.3948 71.3897 82.1444 70.4928 81.5055H70.4838L70.1758 81.2773L70.1576 81.259C69.2879 80.6475 68.083 80.83 67.4398 81.688C66.7784 82.5642 66.9505 83.8146 67.8293 84.4809L68.1645 84.7365C68.1645 84.7365 68.2008 84.7638 68.2189 84.773C69.1158 85.4119 70.357 85.1928 70.9911 84.2892L70.973 84.2984ZM63.1546 80.3554C63.1546 80.3554 63.1817 80.3919 63.1999 80.4011C63.9518 81.1221 65.1386 81.0947 65.8634 80.3372C66.5791 79.5796 66.5519 78.384 65.8 77.6538H65.7909L65.5191 77.38L65.501 77.3617C64.7762 76.6589 63.6257 76.6681 62.9009 77.38C62.158 78.1102 62.1489 79.3058 62.8737 80.0542L63.1636 80.3554H63.1546ZM61.705 73.1267L61.4695 72.8255V72.8073C60.8715 72.0497 59.8025 71.8946 59.0234 72.4604C58.2352 73.0355 58.054 74.149 58.6248 74.943L58.8694 75.2807C58.8694 75.2807 58.8965 75.3172 58.9056 75.3264C59.5035 76.1113 60.6179 76.2482 61.397 75.6458C62.1761 75.0434 62.312 73.9208 61.7141 73.1359L61.705 73.1267ZM55.3905 69.6219C55.3905 69.6219 55.4086 69.6584 55.4176 69.6675C55.8706 70.4799 56.8853 70.7628 57.6916 70.3064C58.4979 69.8501 58.7788 68.8278 58.3258 68.0155L58.1355 67.6687V67.6504C57.6916 66.8655 56.7132 66.5734 55.9159 66.9842C55.1006 67.4131 54.7835 68.4171 55.2002 69.2386L55.3905 69.6036V69.6219ZM52.7813 63.5341C52.7813 63.5341 52.7904 63.5706 52.7994 63.5797C53.1074 64.392 54.0044 64.8028 54.8107 64.4924C55.617 64.1821 56.0246 63.2785 55.7166 62.4662L55.5807 62.092V62.0737C55.2727 61.2888 54.412 60.8781 53.6148 61.1519C52.7994 61.4349 52.3646 62.3202 52.6454 63.1416L52.7813 63.5341ZM51.0962 57.136C51.0962 57.136 51.0962 57.1725 51.1053 57.1816C51.2774 57.9757 52.0475 58.4777 52.8357 58.3042C53.6238 58.1308 54.1221 57.355 53.95 56.561L53.8685 56.1685V56.1502C53.6963 55.3836 52.9625 54.8816 52.1924 55.0276C51.4042 55.1736 50.8878 55.9312 51.0237 56.7252L51.0962 57.136ZM50.3714 50.5735C50.3714 50.5735 50.3714 50.6101 50.3714 50.6192C50.4167 51.3676 51.06 51.9335 51.8029 51.8879C52.5458 51.8422 53.1074 51.1942 53.0622 50.4458L53.035 50.0442V50.0259C52.9897 49.3049 52.3827 48.739 51.6579 48.7664C50.915 48.7846 50.3352 49.4144 50.3533 50.1628V50.5735H50.3714ZM51.7666 45.3893C52.4461 45.4441 53.0531 44.9421 53.1074 44.2484L53.1437 43.856V43.8377C53.198 43.1714 52.7269 42.5782 52.0565 42.496C51.3771 42.4139 50.761 42.8976 50.6795 43.5821L50.6342 43.9929C50.6342 43.9929 50.6342 44.0202 50.6342 44.0385C50.5798 44.723 51.0781 45.3346 51.7666 45.3893ZM51.8572 37.5765C51.7123 38.188 52.0928 38.8086 52.6998 38.9547C53.3068 39.1007 53.9228 38.7174 54.0678 38.1059L54.1584 37.7225C54.2943 37.1201 53.95 36.5177 53.3611 36.3534C52.7632 36.1892 52.1381 36.5451 51.975 37.1475L51.8663 37.54C51.8663 37.54 51.8663 37.5674 51.8572 37.5765ZM54.1765 30.9775L54.0134 31.3518C54.0134 31.3518 54.0044 31.37 54.0044 31.3883C53.796 31.9176 54.0497 32.52 54.5751 32.7391C55.1006 32.949 55.6985 32.6935 55.9159 32.1641L56.0609 31.7899C56.2602 31.2696 56.0246 30.6764 55.5264 30.4573C55.01 30.2291 54.403 30.4573 54.1765 30.9867V30.9775ZM57.3473 26.8703C57.7913 27.1259 58.353 26.9799 58.6066 26.5418L58.806 26.1949C59.0506 25.7568 58.9237 25.2092 58.507 24.9445C58.0812 24.6707 57.5104 24.7985 57.2477 25.2274L57.0303 25.5743C57.0303 25.5743 57.0212 25.5925 57.0121 25.6017C56.7585 26.0489 56.9034 26.6148 57.3383 26.8703H57.3473ZM60.9712 21.4944C61.3245 21.7774 61.8319 21.7226 62.1218 21.3758L62.3664 21.0655C62.6382 20.7186 62.5929 20.2166 62.2667 19.9337C61.9315 19.6416 61.4151 19.6781 61.1252 20.0158L60.8625 20.3262C60.8625 20.3262 60.8534 20.3444 60.8444 20.3444C60.5635 20.7004 60.6179 21.2115 60.9621 21.5036L60.9712 21.4944ZM66.3617 16.7848L66.6516 16.511C66.9324 16.2463 66.9596 15.8174 66.7059 15.5253C66.4523 15.2241 66.0083 15.1967 65.7184 15.4431L65.4104 15.7078C65.4104 15.7078 65.4013 15.717 65.3923 15.7261C65.1024 15.9908 65.0843 16.4471 65.347 16.7392C65.6097 17.0313 66.0627 17.0495 66.3526 16.7848H66.3617ZM71.2539 12.8693L71.58 12.6502C71.8427 12.4677 71.9243 12.1026 71.7521 11.8288C71.58 11.5458 71.2086 11.4637 70.9277 11.6371L70.5834 11.8562C70.5834 11.8562 70.5744 11.8562 70.5653 11.8653C70.2935 12.057 70.212 12.4312 70.4023 12.705C70.5925 12.9788 70.9639 13.061 71.2357 12.8693H71.2539ZM76.2457 8.81683C76.0011 8.93548 75.8924 9.23668 76.0102 9.48311C76.1279 9.72954 76.4269 9.83907 76.6715 9.72042L77.0248 9.547C77.2604 9.42835 77.3691 9.1454 77.2604 8.89897C77.1517 8.65254 76.8618 8.53389 76.6171 8.64341L76.2457 8.8077C76.2457 8.8077 76.2366 8.8077 76.2276 8.8077L76.2457 8.81683ZM82.515 7.40212L82.8864 7.28347C83.0857 7.21958 83.1944 7.01878 83.1401 6.80885C83.0857 6.59893 82.8773 6.48028 82.669 6.53504L82.2794 6.63544C82.2794 6.63544 82.2794 6.63544 82.2703 6.63544C82.062 6.69933 81.9442 6.91838 82.0076 7.1283C82.071 7.33823 82.2885 7.45688 82.4968 7.39299L82.515 7.40212ZM88.6483 5.97828L89.0379 5.92352C89.1828 5.90527 89.2915 5.76836 89.2734 5.6132C89.2553 5.45804 89.1194 5.34851 88.9654 5.36676L88.5668 5.4124C88.5668 5.4124 88.5668 5.4124 88.5577 5.4124C88.4037 5.43978 88.295 5.57669 88.3222 5.74098C88.3493 5.90527 88.4852 6.00567 88.6483 5.97828ZM94.9357 5.49454H95.3343C95.4249 5.49454 95.5064 5.42153 95.5064 5.33026C95.5064 5.23898 95.434 5.15684 95.3434 5.15684L94.9447 5.13859C94.8451 5.13859 94.7726 5.22073 94.7726 5.32113C94.7726 5.42153 94.8541 5.49454 94.9538 5.49454H94.9357ZM101.241 5.96003L101.631 6.02392C101.631 6.02392 101.694 6.00567 101.703 5.96916C101.703 5.93265 101.685 5.89614 101.649 5.89614L101.259 5.82312C101.223 5.82312 101.187 5.84138 101.178 5.88701C101.178 5.92352 101.196 5.96003 101.241 5.96916V5.96003ZM86.012 94.3747C85.9667 94.2287 85.9123 94.0918 85.8398 93.9549C85.7674 93.818 85.6858 93.6993 85.5952 93.5807C85.5046 93.462 85.3959 93.3525 85.2781 93.2612C85.0516 93.0696 84.7799 92.9144 84.4809 92.8231C84.4084 92.7957 84.3269 92.7775 84.2544 92.7592H84.2363L83.8286 92.668H83.8014C83.6474 92.6315 83.4934 92.6132 83.3484 92.6132C82.8955 92.6132 82.4697 92.741 82.0982 92.9783C81.8536 93.1334 81.6362 93.3342 81.464 93.5807C81.2919 93.818 81.1651 94.1009 81.0835 94.4021C81.0111 94.7124 81.002 95.0319 81.0473 95.3331C81.1922 96.2275 81.8627 96.9942 82.7958 97.2224L83.2488 97.3319C83.2488 97.3319 83.3031 97.3411 83.3213 97.3502C83.4028 97.3684 83.4753 97.3776 83.5568 97.3867C84.1819 97.4506 84.7889 97.2498 85.251 96.8756C85.3687 96.7843 85.4774 96.6748 85.568 96.5561C85.8127 96.2641 85.9848 95.9172 86.0663 95.5156C86.1116 95.2783 86.1207 95.041 86.1026 94.8128C86.0844 94.6577 86.0573 94.5116 86.012 94.3656V94.3747ZM56.4867 74.797L56.2421 74.4502V74.4319C55.9612 74.0577 55.5626 73.8204 55.1368 73.7382C55.0281 73.72 54.9194 73.7109 54.8107 73.7109C54.4845 73.7109 54.1584 73.8113 53.8685 74.0029C53.3702 74.3406 53.1074 74.8883 53.1074 75.445C53.1074 75.7827 53.198 76.1204 53.3974 76.4216L53.651 76.805C53.651 76.805 53.6782 76.8415 53.6873 76.8506C53.9681 77.2431 54.3758 77.4804 54.8197 77.5534C54.9284 77.5716 55.0371 77.5808 55.1549 77.5717C55.2727 77.5625 55.3814 77.5534 55.4901 77.526C55.5988 77.4986 55.7076 77.4621 55.8163 77.4165C55.925 77.3709 56.0246 77.307 56.1243 77.2431C56.4142 77.0331 56.6226 76.7411 56.7404 76.4308C56.7766 76.3212 56.8038 76.2208 56.8219 76.1022C56.8944 75.6641 56.7947 75.1895 56.5139 74.797H56.4867ZM50.2174 62.667L50.145 62.448L50.0725 62.2472V62.2289C50.0362 62.1376 50 62.0464 49.9547 61.9551C49.855 61.7908 49.7282 61.6448 49.5833 61.5261C49.4383 61.4075 49.2662 61.3253 49.085 61.2706C48.9944 61.2432 48.9038 61.2249 48.8041 61.2158C48.7135 61.2067 48.6139 61.2067 48.5142 61.2158C48.4146 61.2249 48.324 61.2432 48.2243 61.2706C47.9254 61.3618 47.6807 61.5352 47.4995 61.7543C47.4361 61.8273 47.3818 61.9095 47.3365 61.9916C47.1553 62.3293 47.1009 62.74 47.2187 63.1325L47.3455 63.5706C47.3455 63.5706 47.3546 63.6071 47.3637 63.6162C47.6264 64.4103 48.478 64.8301 49.2662 64.5655C49.4655 64.5016 49.6376 64.392 49.7826 64.2643C50.2174 63.8718 50.4077 63.242 50.2084 62.6488L50.2174 62.667ZM46.5302 50.4458C47.2278 50.4275 47.7713 49.8434 47.7532 49.1406V49.1315V48.7025L47.7442 48.6842C47.7351 48.2644 47.5086 47.8902 47.1825 47.6711C46.9832 47.5433 46.7476 47.4612 46.4939 47.4612C46.2312 47.4612 45.9957 47.5342 45.7873 47.6711C45.6514 47.7624 45.5336 47.881 45.443 48.0088C45.3977 48.0727 45.3615 48.1457 45.3252 48.2187C45.2618 48.3739 45.2256 48.5382 45.2256 48.7116V49.168C45.2256 49.168 45.2256 49.1953 45.2256 49.2136C45.2437 49.743 45.5699 50.1811 46.0319 50.3636C46.1859 50.4275 46.349 50.4549 46.5211 50.4458H46.5302ZM48.0703 36.1253C48.6139 36.2804 49.1846 35.9518 49.3296 35.4042L49.4474 34.9752C49.5198 34.7014 49.4836 34.4276 49.3568 34.1994C49.2299 33.9713 49.0306 33.7978 48.7679 33.7157C48.632 33.6701 48.4961 33.6609 48.3693 33.6701C47.9706 33.7066 47.6264 33.9804 47.4995 34.382L47.3637 34.811C47.3637 34.811 47.3637 34.8383 47.3546 34.8475C47.2006 35.3951 47.5267 35.9701 48.0703 36.1161V36.1253ZM75.3488 4.69136C75.4394 4.7735 75.5753 4.80088 75.6931 4.75525L76.0917 4.58183C76.0917 4.58183 76.1642 4.53619 76.1913 4.50881C76.2457 4.45405 76.2729 4.38103 76.2819 4.29889C76.2819 4.26238 76.2819 4.21674 76.2638 4.18023C76.2366 4.09809 76.1732 4.04333 76.1007 4.00682C76.0283 3.97944 75.9467 3.97031 75.8652 4.00682L75.4485 4.17111C75.4485 4.17111 75.4484 4.17111 75.4394 4.17111C75.3216 4.22587 75.2491 4.34452 75.2491 4.46318C75.2491 4.50881 75.2491 4.54532 75.2763 4.59096C75.3035 4.63659 75.3216 4.66397 75.3488 4.69136ZM97.563 93.4985H97.5448L97.1281 93.5442H97.0919C95.7239 93.6811 94.7001 94.8767 94.7907 96.2641C94.8723 97.6879 96.0863 98.7649 97.4996 98.6736L97.9616 98.6462C97.9616 98.6462 98.025 98.6462 98.0522 98.6462C99.4655 98.5093 100.498 97.2498 100.362 95.8351C100.226 94.4112 98.9763 93.3708 97.572 93.5077L97.563 93.4985ZM90.886 93.6719H90.8679L90.4512 93.6446H90.424C89.1194 93.5715 87.987 94.5664 87.8692 95.8807C87.7514 97.2315 88.748 98.4181 90.0888 98.5367L90.5508 98.5732C90.5508 98.5732 90.6052 98.5732 90.6324 98.5732C91.9822 98.6462 93.1328 97.5966 93.2053 96.2458C93.2778 94.8859 92.2359 93.7267 90.8951 93.6537L90.886 93.6719ZM77.7768 91.0433H77.7587L77.36 90.8882H77.3329C76.2276 90.4683 74.9864 91.0159 74.5425 92.1295C74.4881 92.2755 74.4428 92.4124 74.4157 92.5584C74.2798 93.2795 74.5153 94.0188 75.0227 94.5299C75.222 94.7307 75.4666 94.9041 75.7474 95.0136L76.1732 95.187C76.1732 95.187 76.2185 95.2053 76.2457 95.2144C76.3907 95.2692 76.5356 95.3057 76.6806 95.324C76.8255 95.3422 76.9705 95.3513 77.1154 95.3422C77.2604 95.3422 77.3963 95.3148 77.5412 95.2783C78.2298 95.1049 78.8277 94.6029 79.0904 93.8819C79.2988 93.3069 79.2626 92.6953 79.0179 92.1842C78.7824 91.664 78.3475 91.2441 77.7768 91.0342V91.0433ZM71.9877 88.5151C71.879 88.4238 71.7612 88.3417 71.6344 88.2778H71.6162L71.2448 88.0679H71.2176C70.6016 87.721 69.8949 87.721 69.306 88.0131C68.9527 88.1865 68.6447 88.4603 68.4273 88.8254C68.3548 88.9532 68.2914 89.081 68.2461 89.2088C68.0649 89.7381 68.1011 90.304 68.3367 90.7878C68.4544 91.0342 68.6084 91.2533 68.8168 91.4449C68.9165 91.5362 69.0342 91.6275 69.152 91.7005L69.5506 91.9378C69.5506 91.9378 69.5688 91.9469 69.5778 91.956C69.5869 91.956 69.5959 91.9652 69.605 91.9743C69.7318 92.0473 69.8587 92.1021 69.9946 92.1386C70.1305 92.1842 70.2664 92.2116 70.3932 92.2207C70.5291 92.239 70.665 92.239 70.8009 92.2207C71.4713 92.1568 72.0964 91.7735 72.4407 91.1346C72.9299 90.2401 72.7034 89.154 71.9605 88.5151H71.9877ZM65.963 84.5996H65.954L65.6188 84.3349L65.6007 84.3166C65.2836 84.0793 64.9212 83.9424 64.5497 83.9241C64.0605 83.8876 63.5622 84.0428 63.1636 84.3714C63.064 84.4535 62.9734 84.5448 62.8918 84.6543C62.5476 85.0742 62.4117 85.6035 62.457 86.1055C62.466 86.2333 62.4932 86.352 62.5294 86.4798C62.6382 86.8448 62.8556 87.1825 63.1727 87.4381L63.526 87.7302C63.526 87.7302 63.5622 87.7576 63.5804 87.7758C63.6891 87.8579 63.8069 87.931 63.9246 87.9857C64.1602 88.1044 64.4138 88.1591 64.6675 88.1774C65.048 88.1956 65.4285 88.1135 65.7637 87.9127C65.9902 87.7849 66.1895 87.6115 66.3526 87.3925C66.6787 86.9544 66.8056 86.425 66.7331 85.923C66.6606 85.421 66.407 84.9373 65.9721 84.6087L65.963 84.5996ZM60.8625 80.0999L60.5635 79.7987L60.5454 79.7804C60.3733 79.5979 60.1739 79.4701 59.9565 79.3697C59.7391 79.2784 59.5126 79.2237 59.277 79.2237C59.0415 79.2237 58.815 79.251 58.5885 79.3332C58.4798 79.3697 58.3711 79.4245 58.2714 79.4883C58.1718 79.5522 58.0721 79.6253 57.9815 79.7074C57.7007 79.963 57.5195 80.2915 57.4289 80.6384C57.4017 80.757 57.3836 80.8757 57.3745 80.9943C57.3564 81.4689 57.5104 81.9527 57.8547 82.336L58.1627 82.6737C58.1627 82.6737 58.1899 82.7102 58.208 82.7194C58.4798 82.9932 58.806 83.1757 59.1593 83.2396C59.6213 83.34 60.1196 83.2487 60.5363 82.9841C60.636 82.9202 60.7356 82.838 60.8262 82.7467C60.9168 82.6555 60.9984 82.5551 61.0709 82.4547C61.551 81.7336 61.4876 80.7479 60.8625 80.0999ZM52.8991 69.0743L52.6998 68.6818V68.6636C52.2921 67.8877 51.3589 67.5683 50.5708 67.9425C50.0725 68.1798 49.7463 68.6453 49.6648 69.1656C49.6195 69.4759 49.6648 69.7953 49.8007 70.1056L50 70.5164C50 70.5164 50.0181 70.5529 50.0272 70.562C50.0815 70.6624 50.1359 70.7537 50.2084 70.8358C50.5436 71.2557 51.069 71.4747 51.5945 71.4382C51.8029 71.42 52.0112 71.3652 52.2105 71.2648C52.3102 71.21 52.4008 71.1553 52.4823 71.0822C52.6454 70.9453 52.7813 70.7811 52.881 70.5985C52.9806 70.416 53.044 70.2152 53.0712 70.0052C53.0984 69.7953 53.0803 69.5854 53.0259 69.3755C52.9987 69.2751 52.9534 69.1656 52.9081 69.0651L52.8991 69.0743ZM48.2515 57.1451C48.3512 56.9991 48.4236 56.8348 48.4689 56.6614C48.5142 56.4879 48.5142 56.2963 48.478 56.1137L48.4055 55.6756V55.6574C48.2877 55.0185 47.7532 54.553 47.1281 54.5256C47.0375 54.5256 46.9469 54.5256 46.8563 54.5347C46.7657 54.5439 46.6751 54.5712 46.5845 54.5986C46.2403 54.7264 45.9685 54.982 45.8145 55.3014C45.6967 55.5387 45.6514 55.8125 45.6876 56.1046L45.751 56.561C45.751 56.561 45.751 56.5975 45.751 56.6066C45.7873 56.7983 45.8507 56.9717 45.9504 57.1177C46.0953 57.3459 46.3037 57.5193 46.5483 57.6288C46.7929 57.7384 47.0647 57.7749 47.3455 57.7292C47.717 57.6653 48.0341 57.4463 48.2334 57.1542L48.2515 57.1451ZM46.1406 43.0619C46.3037 43.2079 46.5211 43.3083 46.7567 43.3357C46.8382 43.3448 46.9107 43.3448 46.9922 43.3357C47.0737 43.3266 47.1462 43.3175 47.2096 43.2992C47.4995 43.2171 47.7351 43.0254 47.8891 42.7607C47.9616 42.6329 48.0159 42.4869 48.0341 42.3226L48.0884 41.8845C48.1156 41.6381 48.0703 41.419 47.9797 41.2273C47.8166 40.9079 47.5177 40.6615 47.1372 40.6067C46.5211 40.5063 45.9413 40.9353 45.8416 41.565L45.7692 42.0123C45.7692 42.0123 45.7692 42.0214 45.7692 42.0305C45.7692 42.0305 45.7692 42.0397 45.7692 42.0488C45.751 42.2039 45.7692 42.3591 45.8054 42.5051C45.8688 42.7242 45.9866 42.9159 46.1587 43.0619H46.1406ZM50.4167 29.4168C50.4711 29.4442 50.5345 29.4624 50.5889 29.4716C50.9966 29.5628 51.4314 29.3529 51.6126 28.9513L51.7847 28.5497C51.9841 28.0934 51.7847 27.5731 51.3589 27.3541C51.2502 27.2993 51.1325 27.2719 51.0147 27.2628C50.6614 27.2445 50.3171 27.4362 50.154 27.7739L49.9547 28.1755C49.9547 28.1755 49.9456 28.1938 49.9456 28.2029C49.8913 28.3215 49.8732 28.4402 49.8641 28.5589C49.8641 28.7962 49.9456 29.0243 50.1087 29.1978C50.1903 29.2799 50.2899 29.3529 50.3986 29.4077L50.4167 29.4168ZM53.5514 22.8179C53.6057 22.9 53.6873 22.9822 53.7779 23.0369C53.8232 23.0643 53.8685 23.0917 53.9228 23.1099C54.1221 23.183 54.3305 23.1738 54.5207 23.1008C54.6113 23.0643 54.7019 23.0004 54.7744 22.9274C54.8107 22.8909 54.8469 22.8453 54.8741 22.7996L55.1096 22.4254C55.1368 22.3706 55.164 22.325 55.1821 22.2794C55.2002 22.2337 55.2183 22.179 55.2183 22.1333C55.2727 21.8413 55.1549 21.531 54.8922 21.3484C54.7563 21.2571 54.6113 21.2115 54.4573 21.2115C54.3577 21.2115 54.258 21.2298 54.1674 21.2663C54.1221 21.2845 54.0768 21.3119 54.0315 21.3393C53.95 21.394 53.8685 21.4671 53.805 21.5583L53.5514 21.9325C53.5514 21.9325 53.5423 21.9508 53.5333 21.9508C53.4427 22.0877 53.4064 22.2429 53.4064 22.398C53.4064 22.4984 53.4336 22.5988 53.4698 22.6901C53.488 22.7357 53.5151 22.7814 53.5423 22.827L53.5514 22.8179ZM58.054 17.2412C58.1265 17.3051 58.1989 17.3507 58.2895 17.3781C58.3801 17.4055 58.4617 17.4146 58.5432 17.4055C58.6248 17.4055 58.7154 17.3781 58.7878 17.3416C58.8694 17.3051 58.9418 17.2503 58.9962 17.1773L59.277 16.8396C59.5126 16.5658 59.4945 16.1551 59.2317 15.9086C59.0959 15.7808 58.9237 15.7261 58.7607 15.7261C58.5976 15.7261 58.4254 15.7991 58.2986 15.936L57.9906 16.2646C57.9906 16.2646 57.9815 16.2737 57.9725 16.2828C57.9453 16.3193 57.9181 16.3559 57.8909 16.3924C57.8275 16.511 57.8003 16.6388 57.8094 16.7666C57.8094 16.8122 57.8185 16.8487 57.8275 16.8944C57.8637 17.0221 57.9272 17.1408 58.0359 17.2321L58.054 17.2412ZM63.1455 12.1574C63.1908 12.2121 63.2542 12.2578 63.3176 12.2943C63.3811 12.3308 63.4535 12.349 63.5169 12.349C63.6619 12.3582 63.8069 12.3217 63.9156 12.2213L64.2508 11.9383C64.3051 11.8836 64.3504 11.8288 64.3776 11.7649C64.4048 11.701 64.432 11.6371 64.432 11.5641C64.441 11.4272 64.4048 11.2812 64.3142 11.1716C64.2689 11.1169 64.2145 11.0621 64.1511 11.0347C63.9609 10.9343 63.7253 10.9435 63.5532 11.0895L63.2089 11.3724C63.2089 11.3724 63.1999 11.3724 63.1908 11.3816C63.0187 11.5276 62.9552 11.7649 63.0187 11.9748C63.0368 12.0478 63.073 12.1117 63.1274 12.1665L63.1455 12.1574ZM69.2064 8.09578C69.2607 8.10491 69.3151 8.11404 69.3695 8.09578C69.4238 8.07753 69.4782 8.0684 69.5325 8.03189L69.904 7.79459C70.0036 7.7307 70.067 7.63943 70.0942 7.53903C70.1214 7.43863 70.1033 7.31997 70.0489 7.21958C69.9583 7.06441 69.7953 6.9914 69.6231 7.00965C69.5688 7.00965 69.5144 7.03703 69.4601 7.06441L69.0795 7.29259C69.0795 7.29259 69.0795 7.29259 69.0705 7.29259C69.0161 7.31997 68.9799 7.36561 68.9436 7.41125C68.844 7.54815 68.8349 7.73982 68.9346 7.89499C68.998 7.99538 69.0977 8.0684 69.2064 8.08666V8.09578ZM82.1707 2.37306C82.1707 2.37306 82.2703 2.40957 82.3156 2.39131L82.7414 2.28179C82.7414 2.28179 82.7867 2.26353 82.8049 2.24528C82.8592 2.19964 82.8955 2.12663 82.8773 2.05361C82.8773 2.02623 82.8592 2.00797 82.8502 1.98059C82.823 1.94408 82.7777 1.9167 82.7324 1.90757C82.7052 1.90757 82.6871 1.90757 82.6599 1.90757L82.225 2.00797C82.1707 2.02623 82.1344 2.05361 82.1073 2.09924C82.0801 2.14488 82.071 2.19964 82.0891 2.24528C82.1073 2.29091 82.1344 2.33655 82.1797 2.36393L82.1707 2.37306ZM89.1647 1.04962C89.1647 1.04962 89.201 1.06788 89.2191 1.06788L89.6539 1.02224C89.6539 1.02224 89.6902 1.01311 89.6992 0.994859C89.7083 0.976605 89.7173 0.967478 89.7173 0.940096C89.7173 0.903588 89.6811 0.867079 89.6449 0.876206L89.2009 0.912715C89.1647 0.912715 89.1466 0.940096 89.1375 0.967478C89.1375 0.976605 89.1285 0.985732 89.1375 0.994859C89.1375 1.01311 89.1556 1.03137 89.1647 1.04962ZM96.9288 0C96.9288 0 102.057 0.219052 107.828 1.77979C130.902 8.02277 140.995 35.5229 132.578 56.8439C128.429 66.7377 118.083 74.1398 104.657 73.574C104.657 73.574 92.8973 73.9756 84.8161 65.3504C81.2466 61.5444 79.0814 56.561 79.0361 51.322C78.9908 46.0921 80.9295 40.4607 86.5827 36.3443C92.4262 31.9359 100.562 33.0585 106.016 37.9507C107.818 39.2376 111.886 44.431 111.932 50.7196C111.932 50.7378 111.922 50.7561 111.922 50.7743V50.9295C111.922 50.9295 111.922 51.0025 111.941 51.039C111.932 51.6962 111.877 52.3625 111.768 53.0379C111.714 53.0744 111.669 53.1291 111.651 53.193L111.623 53.3482C111.605 53.4212 111.633 53.4942 111.678 53.5399C111.56 54.1605 111.388 54.7994 111.171 55.4292C111.107 55.4383 111.053 55.484 111.026 55.5478L110.971 55.6939C110.953 55.7578 110.971 55.8308 111.007 55.8764C110.989 55.9312 110.971 55.9951 110.944 56.0498C110.971 55.9951 110.989 55.9403 111.016 55.8855C111.035 55.9038 111.062 55.9221 111.089 55.9403C111.189 55.9768 111.297 55.9312 111.334 55.8308L111.388 55.6847C111.424 55.5844 111.37 55.4748 111.27 55.4383C111.243 55.4383 111.225 55.4292 111.198 55.4292C111.424 54.845 111.623 54.2335 111.787 53.622C111.913 53.6494 112.031 53.5764 112.067 53.4486L112.104 53.2934C112.131 53.1748 112.049 53.0561 111.932 53.0196C112.067 52.4264 112.167 51.824 112.24 51.2124C112.357 51.1851 112.448 51.0938 112.457 50.966V50.8109C112.457 50.8109 112.466 50.8108 112.466 50.8017C112.466 50.6831 112.403 50.5827 112.294 50.537C112.33 49.9438 112.339 49.3505 112.312 48.7481C112.412 48.6933 112.484 48.5747 112.475 48.456V48.3009C112.475 48.3009 112.466 48.3009 112.466 48.2918C112.457 48.164 112.366 48.0727 112.258 48.0271C112.203 47.4612 112.113 46.8862 111.986 46.3112C112.095 46.229 112.149 46.0921 112.113 45.9552L112.076 45.8C112.076 45.8 112.076 45.8 112.076 45.7909C112.04 45.6449 111.922 45.5536 111.787 45.5262C111.651 45.0151 111.479 44.4949 111.279 43.9746C111.406 43.8651 111.451 43.6917 111.397 43.5274L111.343 43.3813C111.343 43.3813 111.343 43.3813 111.343 43.3722C111.27 43.2079 111.107 43.1167 110.944 43.1349C110.736 42.6786 110.509 42.2222 110.246 41.7658C110.391 41.6289 110.428 41.4099 110.328 41.2365L110.246 41.0996C110.246 41.0996 110.246 41.0996 110.246 41.0904C110.138 40.9079 109.92 40.844 109.73 40.9079C109.476 40.5154 109.205 40.1138 108.915 39.7214C109.051 39.5479 109.069 39.3015 108.933 39.119L108.833 38.9912C108.833 38.9912 108.833 38.9912 108.824 38.9821C108.679 38.8086 108.444 38.7721 108.253 38.8634C107.972 38.5166 107.664 38.1697 107.347 37.8229C107.438 37.6221 107.402 37.3848 107.239 37.2296L107.121 37.1201C107.121 37.1201 107.112 37.1201 107.112 37.111C106.958 36.9741 106.758 36.9558 106.577 37.0197C106.559 37.0015 106.532 36.9741 106.514 36.9558C106.188 36.6546 105.853 36.3717 105.508 36.107C105.508 35.9245 105.436 35.7328 105.273 35.6233L105.146 35.532C105.146 35.532 105.137 35.532 105.128 35.5229C104.974 35.4225 104.793 35.4133 104.639 35.4772C104.24 35.2125 103.832 34.9661 103.406 34.7379C103.37 34.5645 103.261 34.4002 103.089 34.3181L102.944 34.2451C102.944 34.2451 102.935 34.2451 102.926 34.2451C102.754 34.1721 102.573 34.1812 102.419 34.2451C101.993 34.0534 101.567 33.8891 101.132 33.7339C101.069 33.5605 100.924 33.4054 100.725 33.3506L100.571 33.305H100.553C100.353 33.2502 100.154 33.2958 99.991 33.4145C99.5833 33.305 99.1665 33.2137 98.7498 33.1407C98.6592 32.9399 98.4689 32.7939 98.2424 32.7482L98.0884 32.7208C98.0884 32.7208 98.0703 32.7208 98.0612 32.7208C97.8166 32.6935 97.5901 32.7938 97.4452 32.9673C97.0737 32.9308 96.6932 32.9125 96.3218 32.9034C96.204 32.6752 95.9685 32.5109 95.6876 32.5109H95.5246C95.5246 32.5109 95.5064 32.5109 95.4974 32.5109C95.2075 32.5109 94.9719 32.6935 94.8541 32.9399C94.528 32.9581 94.2019 32.9947 93.8848 33.0403C93.7308 32.7847 93.4318 32.6296 93.1238 32.6752L92.9607 32.6935C92.9607 32.6935 92.9426 32.6935 92.9335 32.6935C92.6074 32.7482 92.3718 33.0038 92.3084 33.3141C92.0275 33.378 91.7558 33.4419 91.484 33.5149C91.2847 33.2411 90.9404 33.1042 90.5961 33.2046L90.4421 33.2502C90.4421 33.2502 90.424 33.2502 90.4149 33.2502C90.0707 33.3689 89.8623 33.6883 89.8623 34.0351C89.6268 34.1264 89.4003 34.2177 89.1647 34.3181C88.9201 34.0443 88.5215 33.953 88.1772 34.1173L88.0323 34.1903C88.0323 34.1903 88.0141 34.1903 88.0051 34.1994C87.6608 34.3729 87.4977 34.7471 87.5521 35.1121C87.3528 35.2217 87.1625 35.3312 86.9723 35.4499C86.6824 35.2034 86.2475 35.1669 85.9123 35.386L85.7764 35.4772C85.7764 35.4772 85.7583 35.4864 85.7492 35.4955C85.4231 35.7237 85.3053 36.1344 85.414 36.4995C85.251 36.6181 85.0969 36.7459 84.9429 36.8737C84.5987 36.6729 84.1547 36.7003 83.8467 36.9832L83.7289 37.0927C83.7289 37.0927 83.7108 37.111 83.7018 37.111C83.4119 37.3939 83.3484 37.8138 83.4934 38.1606C83.3666 38.2884 83.2397 38.4253 83.1129 38.5622C82.7414 38.4344 82.3066 38.5348 82.0348 38.8634L81.9351 38.9912C81.9351 38.9912 81.917 39.0094 81.917 39.0186C81.6724 39.338 81.6543 39.7579 81.8355 40.0864C81.7358 40.2234 81.6362 40.3694 81.5365 40.5154C81.3644 40.488 81.1832 40.5154 81.0201 40.5884C81.0201 40.5884 81.0292 40.5793 81.0382 40.5702L81.1198 40.4242C81.3281 40.0682 81.3372 39.6301 81.1017 39.3015C80.6396 38.6444 79.7427 38.7082 79.3622 39.3015L79.2626 39.4567C79.2626 39.4567 79.2535 39.4749 79.2444 39.4841C78.9455 39.9769 79.1085 40.625 79.5978 40.917C79.8877 41.0904 80.2319 41.1087 80.5309 40.9809C80.5309 40.9809 80.5309 40.99 80.5218 40.9992L80.4403 41.1361C80.4403 41.1361 80.4312 41.1543 80.4222 41.1635C80.2319 41.5103 80.2682 41.9119 80.4675 42.2222C80.3859 42.3774 80.3044 42.5325 80.2319 42.6877C80.1323 42.6968 80.0326 42.7151 79.933 42.7607L79.9511 42.7151C80.1866 42.1218 79.8967 41.4464 79.2807 41.2456C78.7462 41.0722 78.1754 41.3734 77.9398 41.8845L77.8855 41.994C77.8855 41.994 77.8764 42.0214 77.8674 42.0305C77.6409 42.5873 77.9036 43.2262 78.4562 43.4544C78.728 43.573 79.027 43.5639 79.2807 43.4544V43.4817C79.2807 43.4817 79.2626 43.5091 79.2535 43.5183C79.1267 43.8742 79.1901 44.2484 79.4075 44.5314C79.3441 44.7048 79.2716 44.8782 79.2082 45.0607C79.181 45.0699 79.1538 45.079 79.1357 45.0973C79.2444 44.5222 78.9092 43.9472 78.3385 43.7829C77.9851 43.6825 77.6228 43.7647 77.351 43.9746C77.351 43.9746 77.351 43.9564 77.36 43.9472L77.4053 43.7647V43.7464C77.5865 43.1258 77.2241 42.4686 76.5809 42.3043C75.983 42.1492 75.376 42.5417 75.1857 43.1349L75.1404 43.2627C75.1404 43.2627 75.1404 43.2901 75.1314 43.2992C74.9592 43.9198 75.3126 44.5588 75.9196 44.7413C76.2819 44.8508 76.6534 44.7595 76.9342 44.5405C76.9342 44.5405 76.9342 44.5496 76.9342 44.5588L76.8889 44.7322C76.8889 44.7322 76.8889 44.7595 76.8799 44.7687C76.7259 45.3802 77.0973 46.0008 77.7043 46.1469C77.967 46.2108 78.2207 46.1743 78.4472 46.0739C78.3928 46.3842 78.4834 46.6854 78.6556 46.9227C78.6374 46.9957 78.6193 47.0687 78.6012 47.1509C78.4472 46.7584 78.1029 46.4572 77.659 46.4024C77.3419 46.3659 77.0429 46.4481 76.8074 46.6306V46.5758V46.5576C76.898 45.8913 76.4178 45.2615 75.7293 45.1977C75.0861 45.1338 74.5244 45.6266 74.4157 46.2747L74.3975 46.4116C74.3975 46.4116 74.3975 46.4389 74.3975 46.4481C74.3069 47.1144 74.778 47.7259 75.4394 47.808C75.7655 47.8537 76.0826 47.7533 76.3272 47.5707V47.6072C76.3272 47.6072 76.3272 47.6346 76.3272 47.6437C76.2638 48.2918 76.744 48.8759 77.3872 48.9307C77.7496 48.9672 78.0848 48.8303 78.3204 48.5838C78.2751 48.8485 78.2298 49.1132 78.1935 49.387C77.9761 49.1953 77.6862 49.0767 77.3782 49.0858C77.0973 49.0858 76.8436 49.1953 76.6443 49.3596C76.599 48.7116 76.0736 48.1914 75.4122 48.1822C75.0045 48.1822 74.6421 48.3739 74.4066 48.6751C74.4066 48.666 74.4066 48.6568 74.4066 48.6477V48.4378V48.4195C74.4157 47.6985 73.8358 47.0961 73.1111 47.1144C72.4225 47.1144 71.888 47.7167 71.8518 48.4104V48.5656C71.8518 48.5656 71.8427 48.593 71.8427 48.6112C71.8337 49.3231 72.3954 49.9164 73.102 49.9255C73.5278 49.9255 73.8993 49.7338 74.1348 49.4235C74.1348 49.4235 74.1348 49.4418 74.1348 49.4509V49.6517C74.1348 49.6517 74.1348 49.6791 74.1348 49.6973C74.1439 50.4001 74.7237 50.9478 75.4122 50.9386C75.7112 50.9386 75.9739 50.82 76.1913 50.6466C76.2548 51.2946 76.8165 51.7875 77.4688 51.7509C77.659 51.7418 77.8311 51.6871 77.9851 51.5958C77.9851 51.6779 77.9761 51.7509 77.967 51.8331C77.804 51.7966 77.6409 51.7875 77.4688 51.8148C77.2241 51.8605 77.0158 51.97 76.8436 52.1252C76.6534 51.5319 76.0645 51.1303 75.4303 51.2216C75.077 51.2672 74.7871 51.4497 74.5787 51.7144V51.6597L74.5697 51.6414C74.47 50.893 73.7815 50.3727 73.0295 50.4914C72.3229 50.6101 71.8608 51.3037 71.9243 52.0248L71.9424 52.1799C71.9424 52.1799 71.9424 52.2164 71.9424 52.2256C72.042 52.9649 72.7124 53.4851 73.4463 53.3847C73.8087 53.3391 74.1258 53.1474 74.3341 52.8736V52.9101C74.3341 52.9101 74.3432 52.9375 74.3432 52.9557C74.461 53.6768 75.1404 54.1514 75.8471 54.0327C76.1098 53.9871 76.3363 53.8684 76.5175 53.695C76.7168 54.2609 77.2785 54.6077 77.8764 54.5256C77.7043 54.5986 77.5503 54.699 77.4325 54.8268C77.1245 54.2974 76.4994 54.0236 75.8833 54.2061C75.5844 54.2974 75.3397 54.48 75.1767 54.7173C74.9411 54.0327 74.2345 53.6311 73.5278 53.8137C73.0839 53.9232 72.7577 54.2427 72.5947 54.626C72.5947 54.6169 72.5947 54.6077 72.5947 54.5895L72.5403 54.3613V54.3431C72.341 53.5672 71.5528 53.0926 70.7646 53.3117C70.0308 53.5216 69.6231 54.3157 69.7771 55.0641L69.8134 55.2284C69.8134 55.2284 69.8134 55.2649 69.8224 55.274C70.0127 56.0407 70.7828 56.5153 71.5528 56.3236C72.0058 56.2141 72.3501 55.8855 72.5222 55.484C72.5222 55.484 72.5222 55.5022 72.5222 55.5113L72.5766 55.7304C72.5766 55.7304 72.5766 55.7669 72.5856 55.776C72.803 56.5244 73.5731 56.9534 74.316 56.7344C74.6331 56.6431 74.8868 56.4423 75.0589 56.1959C75.3126 56.8804 76.0555 57.2455 76.744 57.0173C76.9705 56.9443 77.1607 56.8074 77.3147 56.634C77.4053 56.7709 77.514 56.8895 77.6409 56.9899C77.351 56.926 77.052 56.9534 76.7621 57.0812C76.5175 57.1999 76.3182 57.3733 76.1732 57.5923C75.8018 57.0082 75.0589 56.7526 74.3975 57.0264C74.0352 57.1816 73.7724 57.4645 73.6275 57.8022L73.6003 57.7475V57.7292C73.2741 56.9625 72.3863 56.5883 71.6072 56.9443C70.8824 57.2729 70.5834 58.1582 70.8643 58.9066L70.9186 59.0618C70.9186 59.0618 70.9277 59.0983 70.9368 59.1074C71.2539 59.8741 72.1236 60.2392 72.8846 59.9197C73.2651 59.7646 73.5459 59.4634 73.6909 59.1074L73.709 59.1439C73.709 59.1439 73.7271 59.1804 73.7271 59.1896C74.0623 59.9197 74.923 60.2483 75.6568 59.9106C75.9286 59.7828 76.137 59.5912 76.2819 59.3539C76.6534 59.9015 77.36 60.1114 77.9761 59.8559C77.813 59.9836 77.6771 60.1388 77.5865 60.3122C77.1064 59.8285 76.3544 59.7189 75.7474 60.0932C75.4485 60.2757 75.2491 60.5404 75.1314 60.8416C74.6874 60.1753 73.8087 59.9471 73.102 60.3487C72.6581 60.5951 72.3954 61.0241 72.3319 61.4987C72.3319 61.4896 72.3319 61.4714 72.3138 61.4622L72.1961 61.2341V61.2158C71.7612 60.44 70.7737 60.157 69.9946 60.6225C69.2698 61.0606 69.0524 62.0281 69.4329 62.7857L69.5144 62.9591C69.5144 62.9591 69.5325 62.9956 69.5416 63.0047C69.9674 63.7714 70.9277 64.0543 71.6978 63.6254C72.1508 63.3698 72.4316 62.9226 72.495 62.4388C72.495 62.4388 72.495 62.4571 72.5041 62.4662L72.6219 62.6853C72.6219 62.6853 72.64 62.7218 72.649 62.7309C73.093 63.4702 74.0442 63.7075 74.778 63.2603C75.0951 63.0686 75.3035 62.7857 75.4213 62.4571C75.8924 63.1142 76.7893 63.2968 77.4688 62.8496C77.6952 62.7035 77.8583 62.5027 77.9761 62.2745C78.112 62.4023 78.266 62.4936 78.4291 62.5575C78.1029 62.5757 77.7858 62.6853 77.514 62.9135C77.2785 63.1051 77.1245 63.3607 77.0339 63.6345C76.4631 63.1142 75.5934 63.0504 74.9683 63.5432C74.624 63.8079 74.4157 64.1912 74.3613 64.5928L74.316 64.5381V64.5198C73.7452 63.7897 72.6762 63.6527 71.9514 64.2551C71.272 64.821 71.1995 65.8524 71.7068 66.5826L71.8155 66.7377C71.8155 66.7377 71.8427 66.7742 71.8518 66.7834C72.4044 67.5135 73.4463 67.6504 74.1711 67.0846C74.5334 66.8016 74.7418 66.4091 74.8052 65.9802L74.8324 66.0167C74.8324 66.0167 74.8596 66.0441 74.8686 66.0623C75.4394 66.756 76.4541 66.8472 77.1426 66.2814C77.3963 66.0714 77.5684 65.7976 77.659 65.5056C78.2207 65.9802 79.0361 66.0076 79.6249 65.5512C79.48 65.7337 79.3894 65.9345 79.335 66.1536C78.6827 65.7794 77.8402 65.8798 77.2966 66.4457C77.0339 66.7286 76.8889 67.0754 76.8436 67.4314C76.1732 66.8473 75.1676 66.8564 74.5244 67.4953C74.1258 67.8877 73.9627 68.4262 74.0261 68.9465C74.017 68.9374 74.008 68.9282 73.9989 68.91H73.9899L73.7996 68.7001L73.7815 68.6818C73.102 67.9699 71.9605 67.9516 71.2629 68.6818C70.6106 69.3572 70.6559 70.4616 71.281 71.1644L71.426 71.3196C71.426 71.3196 71.4532 71.3469 71.4622 71.3652C72.1326 72.068 73.247 72.0862 73.9536 71.4108C74.3704 71.0092 74.5425 70.4433 74.47 69.9048C74.47 69.9048 74.4791 69.9231 74.4881 69.9322L74.6784 70.133C74.6784 70.133 74.7056 70.1604 74.7237 70.1787C75.4122 70.8449 76.4994 70.8176 77.1607 70.133C77.4416 69.841 77.5956 69.4667 77.6228 69.0834C78.3113 69.6493 79.326 69.5854 79.933 68.91C80.1323 68.6818 80.2501 68.4262 80.3135 68.1524C80.4947 68.2437 80.6849 68.3076 80.8842 68.3258C80.54 68.4354 80.2229 68.6544 80.0054 68.9739C79.8061 69.2477 79.7155 69.5671 79.6974 69.8866C78.9364 69.4941 77.9851 69.6767 77.4506 70.3886C77.1607 70.7719 77.0429 71.2465 77.0973 71.6938L77.0339 71.6481L77.0158 71.6299C76.2004 71.0001 75.0227 71.1644 74.4157 72.0223C73.8449 72.8255 74.0623 73.9573 74.8233 74.5871L74.9864 74.7149C74.9864 74.7149 75.0227 74.7422 75.0317 74.7514C75.838 75.372 76.9886 75.2168 77.6046 74.4045C77.9127 74.0029 78.0304 73.5101 77.967 73.0446L78.0033 73.072C78.0033 73.072 78.0395 73.0993 78.0486 73.1085C78.8549 73.6835 79.9783 73.4918 80.549 72.6795C80.7574 72.3783 80.8661 72.0406 80.8752 71.6938C81.609 72.0406 82.4968 71.8398 82.9951 71.1735C82.8955 71.4108 82.8502 71.6573 82.8502 71.9037C82.0439 71.6846 81.1651 72.0406 80.7483 72.8073C80.54 73.1815 80.4856 73.6013 80.549 73.9938C79.6702 73.5557 78.5831 73.866 78.0757 74.7331C77.7587 75.2716 77.7405 75.9014 77.9489 76.4399C77.9398 76.4399 77.9217 76.4216 77.9127 76.4125H77.9036L77.6409 76.2482H77.6228C76.6624 75.6549 75.4032 76.0018 74.8777 77.0423C74.4247 77.9459 74.778 79.0594 75.6297 79.6161L75.8471 79.7622C75.8471 79.7622 75.8833 79.7896 75.9014 79.7987C76.8255 80.3554 78.0304 80.0634 78.5831 79.1233C78.9183 78.5665 78.9364 77.9185 78.7099 77.3617C78.719 77.3617 78.728 77.38 78.7371 77.38L78.9998 77.5351C78.9998 77.5351 79.0361 77.5625 79.0542 77.5717C79.9783 78.0828 81.1469 77.7451 81.6543 76.8141C81.8717 76.4125 81.9261 75.9744 81.8536 75.5546C82.7596 75.9653 83.8286 75.6002 84.2816 74.6966C84.4356 74.3954 84.4899 74.076 84.4718 73.7656C84.6893 73.8113 84.9157 73.8204 85.1332 73.793C84.798 74.0121 84.5171 74.3315 84.3722 74.7422C84.2453 75.0982 84.2272 75.4633 84.2997 75.8101C83.3756 75.6002 82.4062 76.0839 82.0348 76.9966C81.8264 77.4986 81.8445 78.0371 82.0348 78.5026L81.9533 78.4661H81.9261C80.848 78.0098 79.5978 78.5665 79.2173 79.7165C78.8911 80.7205 79.4256 81.8158 80.3859 82.2539L80.6215 82.3634C80.6215 82.3634 80.6668 82.3817 80.6849 82.3908C81.7268 82.8289 82.9226 82.3269 83.3484 81.2773C83.5659 80.757 83.5478 80.1911 83.3484 79.7074L83.4028 79.7257C83.4028 79.7257 83.4481 79.7439 83.4662 79.753C84.499 80.1364 85.6405 79.607 86.0301 78.5665C86.175 78.1832 86.1841 77.7816 86.1026 77.4165C86.9904 77.5808 87.8782 77.097 88.2316 76.2482C88.1953 76.5312 88.2134 76.8141 88.2859 77.0697C87.3618 77.0697 86.5193 77.7086 86.2838 78.6487C86.175 79.1141 86.2294 79.5705 86.4106 79.9812C85.3416 79.7713 84.2635 80.4102 83.9645 81.4872C83.7742 82.1535 83.9373 82.838 84.3178 83.3491C84.2997 83.3491 84.2906 83.3309 84.2725 83.3309H84.2544L83.9283 83.2305H83.9011C82.7052 82.8745 81.4459 83.6138 81.1832 84.8825C80.9567 85.9869 81.6543 87.073 82.7233 87.429L82.9951 87.5202C82.9951 87.5202 83.0404 87.5385 83.0676 87.5385C84.2182 87.8762 85.4231 87.2008 85.7583 86.0416C85.9576 85.348 85.7945 84.6452 85.3868 84.1067C85.3959 84.1067 85.414 84.1158 85.4231 84.1249L85.7492 84.2162C85.7492 84.2162 85.7945 84.2253 85.8217 84.2345C86.9632 84.5174 88.1138 83.8146 88.3946 82.6646C88.5124 82.1717 88.449 81.688 88.2497 81.259C89.3368 81.4416 90.3787 80.7297 90.6142 79.6344C90.6867 79.2693 90.6595 78.9133 90.5508 78.5848C90.8045 78.5756 91.04 78.5209 91.2665 78.4205C90.9676 78.7582 90.7592 79.178 90.723 79.6618C90.6867 80.0816 90.7683 80.4832 90.9495 80.83C89.8985 80.8757 88.9926 81.6697 88.8567 82.765C88.7842 83.3583 88.9473 83.9333 89.2825 84.3805H89.1919L89.1647 84.3623C87.8782 84.198 86.6914 85.1563 86.619 86.498C86.5555 87.6754 87.4434 88.6885 88.603 88.8802L88.8839 88.9258C88.8839 88.9258 88.9382 88.9258 88.9563 88.935C90.1975 89.0992 91.339 88.2139 91.5021 86.9635C91.5836 86.3428 91.4024 85.7404 91.0582 85.2841H91.1216C91.1216 85.2841 91.1759 85.3024 91.1941 85.3024C92.4081 85.421 93.4952 84.5174 93.6039 83.2944C93.6492 82.838 93.5496 82.409 93.3503 82.0348C94.3468 81.9527 95.1712 81.1769 95.2981 80.1638C95.3343 80.4832 95.434 80.7753 95.588 81.0308C94.5914 81.3047 93.8757 82.2265 93.8938 83.3035C93.9029 83.8329 94.1022 84.3166 94.4012 84.7C93.1872 84.7821 92.2269 85.7861 92.2087 87.0274C92.1997 87.8032 92.5621 88.4786 93.1147 88.9258C93.0966 88.9258 93.0785 88.9258 93.0603 88.9258H93.0422H92.6708H92.6436C91.2665 88.8984 90.125 90.0576 90.1975 91.4906C90.27 92.741 91.33 93.7085 92.5711 93.7723L92.8882 93.7906C92.8882 93.7906 92.9426 93.7906 92.9697 93.7906C94.3015 93.818 95.4068 92.7501 95.4249 91.4084C95.443 90.6143 95.0716 89.9024 94.4918 89.4461C94.5008 89.4461 94.5099 89.4461 94.528 89.4461H94.9085C94.9085 89.4461 94.9629 89.4461 94.99 89.4461C96.2946 89.4187 97.3365 88.3326 97.3093 87.0182C97.3002 86.4524 97.0828 85.9504 96.7567 85.5488C97.9707 85.4301 98.8947 84.3714 98.8313 83.121C98.8132 82.7102 98.6773 82.336 98.4689 82.0074C98.7317 81.9253 98.9763 81.7884 99.1937 81.6241C98.9672 82.0713 98.8676 82.5825 98.9582 83.1118C99.0397 83.5682 99.239 83.9698 99.5198 84.2984C98.4055 84.6543 97.6717 85.777 97.8348 86.9817C97.9254 87.648 98.2696 88.2048 98.7498 88.5881H98.6501L98.6139 88.6064C97.1915 88.798 96.1859 90.1671 96.4939 91.6457C96.7567 92.9235 98.0069 93.7541 99.3024 93.6263L99.6195 93.5989C99.6195 93.5989 99.6829 93.5989 99.701 93.5898C101.078 93.4073 102.047 92.1295 101.866 90.7421C101.776 90.0485 101.413 89.4552 100.906 89.0627H100.969C100.969 89.0627 101.024 89.0445 101.051 89.0445C102.392 88.8163 103.289 87.5385 103.062 86.1877C102.981 85.6948 102.754 85.2567 102.437 84.919C103.461 84.5448 104.122 83.5134 104.004 82.409C104.131 82.7102 104.321 82.9658 104.539 83.1849C103.56 83.769 103.053 84.9646 103.379 86.1147C103.542 86.6805 103.878 87.1369 104.312 87.4564C103.044 87.9036 102.301 89.2544 102.636 90.587C102.845 91.4175 103.415 92.0473 104.14 92.3576C104.122 92.3576 104.113 92.3576 104.095 92.3576H104.077L103.669 92.4672H103.633C102.147 92.8505 101.25 94.4204 101.749 95.9355C102.183 97.2589 103.597 97.9891 104.947 97.697L105.291 97.624C105.291 97.624 105.354 97.6057 105.381 97.6057C106.822 97.2498 107.692 95.7803 107.338 94.3291C107.13 93.4712 106.523 92.814 105.78 92.4945C105.789 92.4945 105.807 92.4945 105.816 92.4945L106.224 92.3941C106.224 92.3941 106.287 92.3759 106.305 92.3668C107.701 91.9652 108.507 90.4957 108.099 89.0901C107.927 88.4968 107.565 88.004 107.103 87.6754C108.362 87.1917 109.041 85.7861 108.616 84.4718C108.471 84.0337 108.226 83.6686 107.918 83.3765C108.172 83.2122 108.389 83.0114 108.561 82.7741C108.453 83.3126 108.498 83.8876 108.743 84.4261C108.96 84.8916 109.286 85.2658 109.685 85.5305C108.589 86.2333 108.126 87.648 108.643 88.8984C108.924 89.583 109.458 90.085 110.083 90.3588L109.975 90.4044L109.938 90.4227C108.516 91.0159 107.837 92.6771 108.444 94.1283C109.051 95.5795 110.681 96.1545 112.104 95.616L112.439 95.4883C112.439 95.4883 112.502 95.4609 112.529 95.4517C112.566 95.4335 112.593 95.4244 112.629 95.4061C113.852 95.1688 141.91 85.3754 143.939 51.897C144.492 33.3506 133.031 2.71076 96.8926 0.0456358L96.9288 0ZM78.6193 59.3539C78.6827 59.4178 78.7462 59.4725 78.8096 59.5182C78.6646 59.5273 78.5197 59.5547 78.3747 59.6094C78.4653 59.5364 78.5468 59.4451 78.6193 59.3539ZM79.4075 62.7583C79.3079 62.6944 79.2082 62.6488 79.1085 62.6123C79.2535 62.6123 79.4075 62.5757 79.5525 62.5119C79.4981 62.594 79.4528 62.6761 79.4166 62.7583H79.4075ZM80.1595 64.8393C80.241 64.8849 80.3225 64.9305 80.4131 64.9579C80.2591 65.0127 80.1051 65.0857 79.9783 65.1861C80.0598 65.0766 80.1142 64.9579 80.1595 64.8393ZM83.6927 70.3338C83.5387 70.4342 83.4028 70.5529 83.285 70.6989C83.3394 70.562 83.3666 70.416 83.3847 70.2791C83.4843 70.3064 83.593 70.3247 83.6927 70.3338ZM85.4956 68.8096C85.4956 68.7092 85.5046 68.6179 85.4956 68.5266C85.5318 68.5905 85.559 68.6636 85.5952 68.7366C85.559 68.764 85.5227 68.7913 85.4865 68.8187L85.4956 68.8096ZM86.8001 71.9767C86.8001 71.9767 86.7458 72.0497 86.7096 72.0862C86.7096 72.0497 86.7096 72.0132 86.7096 71.9767C86.7367 71.9767 86.7639 71.9767 86.7911 71.9767H86.8001ZM92.3718 77.4439C92.3899 77.5351 92.4171 77.6264 92.4443 77.7177C92.2903 77.7542 92.1453 77.7998 92.0094 77.8637C92.1272 77.7359 92.2178 77.5808 92.2993 77.4256C92.3265 77.4256 92.3446 77.4439 92.3718 77.453V77.4439ZM95.5427 78.8586C95.443 79.0594 95.3705 79.2784 95.3343 79.5066C95.3071 79.3241 95.2528 79.1598 95.1803 78.9955C95.3071 78.959 95.4249 78.9225 95.5427 78.8586ZM100.027 80.1638C100.091 80.3007 100.163 80.4193 100.245 80.538C100.091 80.6201 99.9456 80.7114 99.8188 80.8209C99.9185 80.6201 99.991 80.3919 100.027 80.1638ZM103.887 80.8848C103.841 81.1221 103.832 81.3777 103.859 81.6241C103.778 81.4416 103.678 81.2682 103.56 81.1221C103.678 81.0491 103.796 80.9761 103.896 80.8848H103.887ZM104.693 79.3514C104.693 79.3514 104.738 79.4062 104.756 79.4245C104.729 79.4427 104.711 79.461 104.684 79.4883C104.684 79.4427 104.684 79.3971 104.684 79.3514H104.693ZM78.4381 57.1999C78.4381 57.2546 78.4562 57.3003 78.4653 57.355C78.4653 57.355 78.4653 57.3641 78.4562 57.3733C78.3838 57.3003 78.3113 57.2272 78.2298 57.1725C78.3022 57.1907 78.3747 57.1999 78.4472 57.1999H78.4381ZM81.6271 68.1981C81.7811 68.1433 81.9351 68.0703 82.071 67.9699C82.0348 68.0703 82.0076 68.1707 81.9895 68.2802C81.8717 68.2437 81.7449 68.2163 81.6271 68.2072V68.1981ZM84.8161 70.0326C84.8161 70.0326 84.8705 69.9779 84.8976 69.9596C84.8976 69.987 84.8886 70.0144 84.8886 70.0418C84.8614 70.0418 84.8433 70.0417 84.8161 70.0326ZM86.329 73.0811C86.32 73.1997 86.32 73.3184 86.329 73.4371C86.1932 73.4371 86.0482 73.437 85.9123 73.4644C86.0663 73.364 86.2022 73.2363 86.32 73.0902L86.329 73.0811ZM108.416 79.5157C108.416 79.5157 108.462 79.4701 108.489 79.4518C108.489 79.5066 108.489 79.5614 108.498 79.6161C108.471 79.5796 108.444 79.5522 108.407 79.5157H108.416ZM109.069 81.7063C109.114 81.4689 109.123 81.2316 109.096 80.9852C109.196 81.1039 109.304 81.2134 109.422 81.3047C109.286 81.4233 109.168 81.5602 109.069 81.7063ZM110.065 57.8022L109.993 57.9392C109.993 57.9392 109.993 57.9665 109.993 57.9757C109.159 59.436 108.154 60.7503 107.076 61.8638C107.683 61.2523 108.208 60.6317 108.688 60.0019C108.652 60.0475 108.661 60.1114 108.706 60.1479C108.752 60.1844 108.824 60.1753 108.86 60.1297L108.96 60.011C108.996 59.9654 108.987 59.8924 108.933 59.8559C108.887 59.8193 108.824 59.8285 108.788 59.8741C109.241 59.2717 109.648 58.6602 109.993 58.0487C110.002 58.0852 110.02 58.1126 110.056 58.1308C110.129 58.1765 110.219 58.1491 110.255 58.0761L110.337 57.9392C110.373 57.8661 110.346 57.7749 110.274 57.7292C110.237 57.711 110.21 57.711 110.174 57.7201C110.473 57.1633 110.736 56.6066 110.962 56.0498C110.708 56.634 110.428 57.1907 110.129 57.7384C110.111 57.7566 110.083 57.7657 110.074 57.7931L110.065 57.8022ZM107.184 61.7543L107.076 61.8638C107.076 61.8638 107.048 61.9277 107.076 61.9551C107.103 61.9825 107.139 61.9825 107.166 61.9551L107.275 61.8456C107.302 61.8182 107.302 61.7726 107.275 61.7452C107.248 61.7178 107.202 61.7178 107.175 61.7452L107.184 61.7543ZM16.4523 168.852V173.653H14.74V162.691H22.2504C23.3647 162.691 24.2345 162.965 24.8686 163.504C25.5028 164.042 25.8108 164.791 25.8108 165.758C25.8108 166.534 25.5572 167.209 25.0679 167.784C24.5697 168.35 23.9174 168.706 23.1201 168.834L26.146 173.653H24.2979L21.2086 168.852H16.4613H16.4523ZM16.4523 167.246H22.2504C22.8393 167.246 23.2832 167.118 23.6003 166.863C23.9083 166.607 24.0623 166.233 24.0623 165.758C24.0623 165.284 23.9083 164.909 23.6003 164.654C23.2923 164.398 22.8393 164.27 22.2504 164.27H16.4523V167.246ZM36.3653 173.653V162.664H46.5936V164.27H38.0776V167.009H43.6673V168.588H38.0776V172.065H47.0647V173.644H36.3653V173.653ZM56.0337 172.248L56.8672 170.805C57.6191 171.307 58.4345 171.709 59.3223 171.992C60.2102 172.275 61.0527 172.421 61.859 172.421C62.8284 172.421 63.6166 172.22 64.2055 171.819C64.8034 171.417 65.1024 170.906 65.1024 170.285C65.1024 169.665 64.8306 169.19 64.287 168.889C63.7434 168.588 62.8828 168.414 61.705 168.378C59.721 168.35 58.362 168.122 57.6191 167.684C56.8762 167.246 56.5048 166.525 56.5048 165.512C56.5048 164.572 56.9125 163.805 57.7279 163.239C58.5432 162.664 59.6304 162.381 61.0074 162.381C61.9406 162.381 62.8556 162.518 63.7344 162.783C64.6132 163.047 65.4648 163.44 66.2801 163.969L65.4285 165.393C64.7491 164.928 64.0152 164.572 63.2361 164.316C62.457 164.061 61.705 163.933 60.9893 163.933C60.1649 163.933 59.5035 164.079 58.9962 164.371C58.4889 164.663 58.2443 165.046 58.2443 165.512C58.2443 165.977 58.4979 166.351 59.0053 166.552C59.5126 166.762 60.3914 166.863 61.6416 166.863C63.3811 166.863 64.6856 167.155 65.5735 167.748C66.4613 168.341 66.9052 169.217 66.9052 170.386C66.9052 171.426 66.4523 172.284 65.5554 172.969C64.6585 173.653 63.4898 174 62.0674 174C61.0165 174 59.9656 173.845 58.9237 173.544C57.8819 173.242 56.9215 172.804 56.0609 172.248H56.0337ZM77.4144 173.653V162.646H79.1538V173.653H77.4144ZM95.2437 162.664C97.0194 162.664 98.4599 163.175 99.547 164.197C100.634 165.22 101.178 166.552 101.178 168.195C101.178 169.838 100.643 171.171 99.5742 172.165C98.5052 173.16 97.0647 173.653 95.2437 173.653H90.4059V162.664H95.2437ZM95.2709 164.243H92.1181V172.065H95.2709C96.5664 172.065 97.5811 171.718 98.324 171.015C99.0669 170.313 99.4383 169.363 99.4383 168.168C99.4383 166.972 99.0578 166.069 98.2877 165.338C97.5177 164.608 96.5211 164.243 95.2709 164.243ZM111.352 173.644V162.655H121.58V164.261H113.064V166.999H118.654V168.578H113.064V172.056H122.051V173.635H111.352V173.644ZM131.98 173.644V162.655H132.877L139.808 170.377V162.655H141.484V173.644H140.587L133.666 165.95V173.644H131.98ZM164.224 170.952C163.598 171.937 162.783 172.686 161.778 173.206C160.772 173.726 159.621 173.982 158.335 173.982C156.423 173.982 154.847 173.434 153.606 172.339C152.365 171.244 151.749 169.856 151.749 168.177C151.749 166.497 152.365 165.101 153.606 164.006C154.847 162.901 156.423 162.354 158.335 162.354C159.531 162.354 160.609 162.582 161.578 163.029C162.548 163.476 163.336 164.115 163.925 164.937L162.575 165.886C162.122 165.256 161.533 164.782 160.79 164.435C160.056 164.097 159.232 163.924 158.335 163.924C156.94 163.924 155.78 164.325 154.865 165.128C153.95 165.932 153.497 166.936 153.497 168.14C153.497 169.345 153.959 170.358 154.874 171.152C155.789 171.956 156.949 172.357 158.335 172.357C159.304 172.357 160.165 172.165 160.899 171.782C161.633 171.399 162.294 170.796 162.856 169.984L164.224 170.933V170.952ZM174.561 173.644V162.655H184.789V164.261H176.273V166.999H181.863V168.578H176.273V172.056H185.26V173.635H174.561V173.644Z" fill="white"/>
</svg>
