<svg width="17" height="12" viewBox="0 0 17 12" fill="none" xmlns="http://www.w3.org/2000/svg">
<rect width="17" height="12" rx="2" fill="white"/>
<mask id="mask0_703_427" style="mask-type:luminance" maskUnits="userSpaceOnUse" x="0" y="0" width="17" height="12">
<rect width="17" height="12" rx="2" fill="white"/>
</mask>
<g mask="url(#mask0_703_427)">
<path fill-rule="evenodd" clip-rule="evenodd" d="M17 0H0V0.6H17V0ZM0 1.8H17V2.4H0V1.8ZM17 3H0V3.6H17V3ZM0 4.8H17V5.4H0V4.8ZM17 6.6H0V7.2H17V6.6ZM0 7.8H17V8.4H0V7.8ZM17 9.6H0V10.2H17V9.6ZM17 11.4H0V12H17V11.4Z" fill="#D02F44"/>
<rect width="7.28571" height="5.4" fill="#46467F"/>
<g filter="url(#filter0_d_703_427)">
<path fill-rule="evenodd" clip-rule="evenodd" d="M6.07148 1.60005C6.29502 1.60005 6.47624 1.42096 6.47624 1.20005C6.47624 0.979135 6.29502 0.800049 6.07148 0.800049C5.84793 0.800049 5.66671 0.979135 5.66671 1.20005C5.66671 1.42096 5.84793 1.60005 6.07148 1.60005ZM4.04767 2.00005C4.04767 2.22096 3.86645 2.40005 3.6429 2.40005C3.41936 2.40005 3.23814 2.22096 3.23814 2.00005C3.23814 1.77913 3.41936 1.60005 3.6429 1.60005C3.86645 1.60005 4.04767 1.77913 4.04767 2.00005ZM2.83338 3.20005C3.05692 3.20005 3.23814 3.02096 3.23814 2.80005C3.23814 2.57914 3.05692 2.40005 2.83338 2.40005C2.60984 2.40005 2.42862 2.57914 2.42862 2.80005C2.42862 3.02096 2.60984 3.20005 2.83338 3.20005ZM6.07148 3.20005C6.29502 3.20005 6.47624 3.02096 6.47624 2.80005C6.47624 2.57914 6.29502 2.40005 6.07148 2.40005C5.84793 2.40005 5.66671 2.57914 5.66671 2.80005C5.66671 3.02096 5.84793 3.20005 6.07148 3.20005ZM4.04767 3.60005C4.04767 3.82096 3.86645 4.00005 3.6429 4.00005C3.41936 4.00005 3.23814 3.82096 3.23814 3.60005C3.23814 3.37914 3.41936 3.20005 3.6429 3.20005C3.86645 3.20005 4.04767 3.37914 4.04767 3.60005ZM6.47624 4.40005C6.47624 4.62096 6.29502 4.80005 6.07148 4.80005C5.84793 4.80005 5.66671 4.62096 5.66671 4.40005C5.66671 4.17914 5.84793 4.00005 6.07148 4.00005C6.29502 4.00005 6.47624 4.17914 6.47624 4.40005ZM4.85719 2.80005C4.85719 3.02096 4.67597 3.20005 4.45243 3.20005C4.22888 3.20005 4.04767 3.02096 4.04767 2.80005C4.04767 2.57914 4.22888 2.40005 4.45243 2.40005C4.67597 2.40005 4.85719 2.57914 4.85719 2.80005ZM5.26195 4.00005C5.48549 4.00005 5.66671 3.82096 5.66671 3.60005C5.66671 3.37914 5.48549 3.20005 5.26195 3.20005C5.03841 3.20005 4.85719 3.37914 4.85719 3.60005C4.85719 3.82096 5.03841 4.00005 5.26195 4.00005ZM4.85719 4.40005C4.85719 4.62096 4.67597 4.80005 4.45243 4.80005C4.22888 4.80005 4.04767 4.62096 4.04767 4.40005C4.04767 4.17914 4.22888 4.00005 4.45243 4.00005C4.67597 4.00005 4.85719 4.17914 4.85719 4.40005ZM2.42862 3.60005C2.42862 3.82096 2.2474 4.00005 2.02386 4.00005C1.80031 4.00005 1.61909 3.82096 1.61909 3.60005C1.61909 3.37914 1.80031 3.20005 2.02386 3.20005C2.2474 3.20005 2.42862 3.37914 2.42862 3.60005ZM2.83338 4.80005C3.05692 4.80005 3.23814 4.62096 3.23814 4.40005C3.23814 4.17914 3.05692 4.00005 2.83338 4.00005C2.60984 4.00005 2.42862 4.17914 2.42862 4.40005C2.42862 4.62096 2.60984 4.80005 2.83338 4.80005ZM1.61909 4.40005C1.61909 4.62096 1.43788 4.80005 1.21433 4.80005C0.990788 4.80005 0.80957 4.62096 0.80957 4.40005C0.80957 4.17914 0.990788 4.00005 1.21433 4.00005C1.43788 4.00005 1.61909 4.17914 1.61909 4.40005ZM1.21433 3.20005C1.43788 3.20005 1.61909 3.02096 1.61909 2.80005C1.61909 2.57914 1.43788 2.40005 1.21433 2.40005C0.990788 2.40005 0.80957 2.57914 0.80957 2.80005C0.80957 3.02096 0.990788 3.20005 1.21433 3.20005ZM4.85719 1.20005C4.85719 1.42096 4.67597 1.60005 4.45243 1.60005C4.22888 1.60005 4.04767 1.42096 4.04767 1.20005C4.04767 0.979135 4.22888 0.800049 4.45243 0.800049C4.67597 0.800049 4.85719 0.979135 4.85719 1.20005ZM5.26195 2.40005C5.48549 2.40005 5.66671 2.22096 5.66671 2.00005C5.66671 1.77913 5.48549 1.60005 5.26195 1.60005C5.03841 1.60005 4.85719 1.77913 4.85719 2.00005C4.85719 2.22096 5.03841 2.40005 5.26195 2.40005ZM3.23814 1.20005C3.23814 1.42096 3.05692 1.60005 2.83338 1.60005C2.60984 1.60005 2.42862 1.42096 2.42862 1.20005C2.42862 0.979135 2.60984 0.800049 2.83338 0.800049C3.05692 0.800049 3.23814 0.979135 3.23814 1.20005ZM2.02386 2.40005C2.2474 2.40005 2.42862 2.22096 2.42862 2.00005C2.42862 1.77913 2.2474 1.60005 2.02386 1.60005C1.80031 1.60005 1.61909 1.77913 1.61909 2.00005C1.61909 2.22096 1.80031 2.40005 2.02386 2.40005ZM1.61909 1.20005C1.61909 1.42096 1.43788 1.60005 1.21433 1.60005C0.990788 1.60005 0.80957 1.42096 0.80957 1.20005C0.80957 0.979135 0.990788 0.800049 1.21433 0.800049C1.43788 0.800049 1.61909 0.979135 1.61909 1.20005Z" fill="url(#paint0_linear_703_427)"/>
</g>
</g>
<defs>
<filter id="filter0_d_703_427" x="0.80957" y="0.800049" width="5.66663" height="5" filterUnits="userSpaceOnUse" color-interpolation-filters="sRGB">
<feFlood flood-opacity="0" result="BackgroundImageFix"/>
<feColorMatrix in="SourceAlpha" type="matrix" values="0 0 0 0 0 0 0 0 0 0 0 0 0 0 0 0 0 0 127 0" result="hardAlpha"/>
<feOffset dy="1"/>
<feColorMatrix type="matrix" values="0 0 0 0 0 0 0 0 0 0 0 0 0 0 0 0 0 0 0.06 0"/>
<feBlend mode="normal" in2="BackgroundImageFix" result="effect1_dropShadow_703_427"/>
<feBlend mode="normal" in="SourceGraphic" in2="effect1_dropShadow_703_427" result="shape"/>
</filter>
<linearGradient id="paint0_linear_703_427" x1="0.80957" y1="0.800049" x2="0.80957" y2="4.80005" gradientUnits="userSpaceOnUse">
<stop stop-color="white"/>
<stop offset="1" stop-color="#F0F0F0"/>
</linearGradient>
</defs>
</svg>
