<svg width="216" height="52" viewBox="0 0 216 52" fill="none" xmlns="http://www.w3.org/2000/svg">
<path d="M25.3479 40.8234C25.3573 40.8696 25.3666 40.9158 25.3853 40.962C25.3011 40.9805 25.2262 41.0083 25.1513 41.036C25.2169 40.962 25.2637 40.8881 25.3105 40.8049C25.3198 40.8049 25.3385 40.8049 25.3479 40.8142V40.8234ZM21.3229 36.9231C21.3229 36.9231 21.3229 36.8954 21.3229 36.8769C21.3042 36.8862 21.2949 36.9047 21.2761 36.9139C21.2855 36.9139 21.3042 36.9139 21.3136 36.9139L21.3229 36.9231ZM26.9392 41.914C26.9579 41.7938 26.9953 41.6829 27.0515 41.572C26.986 41.5998 26.9204 41.6275 26.8549 41.646C26.8924 41.7292 26.9204 41.8216 26.9392 41.914ZM21.8658 38.7254C21.9407 38.7162 22.0156 38.7069 22.0905 38.7162C22.0905 38.6515 22.0905 38.596 22.0905 38.5313C22.025 38.6145 21.9501 38.6792 21.8658 38.7346V38.7254ZM21.6412 36.2762C21.6412 36.2762 21.6786 36.2485 21.6973 36.23C21.6786 36.193 21.6599 36.156 21.6412 36.1191C21.6412 36.1653 21.6412 36.2207 21.6412 36.2669V36.2762ZM34.3151 43.0693C34.3713 42.9954 34.4368 42.9214 34.5023 42.8567C34.4368 42.8105 34.3807 42.7458 34.3245 42.6904C34.3339 42.8198 34.3245 42.9491 34.3058 43.0693H34.3151ZM33.9688 41.914C33.9688 41.914 33.9969 41.951 34.0156 41.9695C34.0156 41.9417 34.0156 41.914 34.0156 41.8863C34.0062 41.8955 33.9875 41.914 33.9782 41.9232L33.9688 41.914ZM31.9657 41.9048C31.9657 41.9048 31.9938 41.8863 32.0031 41.8678C31.9938 41.8585 31.975 41.8401 31.9657 41.8308C31.9657 41.8585 31.9657 41.877 31.9657 41.9048ZM31.5164 43.0323C31.4977 42.9029 31.5164 42.7643 31.5351 42.6441C31.4789 42.6904 31.4228 42.7273 31.3573 42.7643C31.4228 42.8475 31.4789 42.9307 31.5164 43.0323ZM29.3448 42.6072C29.4197 42.5517 29.4945 42.4963 29.5694 42.4593C29.5226 42.3946 29.4852 42.3299 29.4571 42.2652C29.4384 42.3854 29.4009 42.5055 29.3448 42.6164V42.6072ZM22.2964 37.9953C22.2964 37.9953 22.3245 37.9583 22.3432 37.9398C22.3339 37.9398 22.3151 37.9398 22.2964 37.9398C22.2964 37.9583 22.2964 37.9768 22.2964 37.9953ZM17.8128 31.4239C17.8877 31.3962 17.9719 31.3777 18.0468 31.3777C18.0094 31.35 17.9719 31.3223 17.9438 31.2946C17.9064 31.3408 17.869 31.387 17.8128 31.4332V31.4239ZM17.8502 30.2317C17.8502 30.2317 17.8502 30.1762 17.8409 30.1485C17.8034 30.1485 17.766 30.1485 17.7285 30.13C17.7754 30.1577 17.8128 30.1947 17.8502 30.2317ZM20.4524 37.2651C20.5179 37.1912 20.5928 37.1265 20.6677 37.071C20.6115 37.071 20.5554 37.0525 20.4992 37.0433C20.4992 37.1172 20.4711 37.1912 20.4431 37.2651H20.4524ZM19.7504 35.9804C19.7504 35.925 19.7785 35.8695 19.7972 35.8233C19.7223 35.8788 19.6381 35.9157 19.5538 35.9435C19.6193 35.9435 19.6849 35.9619 19.7504 35.9804ZM18.3651 33.0783C18.3651 33.0783 18.4119 32.9859 18.4399 32.9489C18.3651 32.9767 18.2808 32.9951 18.2059 33.0044C18.2621 33.0229 18.3183 33.0506 18.3651 33.0876V33.0783ZM18.6739 34.3538C18.7488 34.2983 18.8237 34.2613 18.908 34.2336C18.8612 34.2151 18.8144 34.1967 18.7676 34.1689C18.7395 34.2336 18.7114 34.2983 18.6646 34.3538H18.6739ZM20.0499 20.2315L20.1061 20.1668C20.2839 19.945 20.2652 19.6215 20.0499 19.4366C19.8253 19.2425 19.4977 19.261 19.3011 19.4828L19.2356 19.5568C19.2356 19.5568 19.2356 19.566 19.2262 19.566C19.039 19.7878 19.0671 20.1206 19.3011 20.3054C19.5257 20.4903 19.8627 20.4625 20.0499 20.2315ZM21.0047 19.2333L21.0702 19.1686C21.2761 18.9838 21.2949 18.6788 21.117 18.4662C20.9392 18.2536 20.6115 18.2259 20.4056 18.4015L20.3307 18.4662C20.3307 18.4662 20.3307 18.4662 20.3214 18.4754C20.1154 18.6603 20.0967 18.9838 20.2839 19.1871C20.4711 19.3904 20.7988 19.4089 21.0047 19.2241V19.2333ZM21.6693 17.5235L21.585 17.5697H21.5757C21.351 17.7176 21.2949 18.0133 21.4353 18.2351C21.585 18.4569 21.8846 18.5124 22.1092 18.3738L22.1841 18.3276C22.3994 18.1797 22.4649 17.8932 22.3245 17.6806C22.1841 17.4588 21.8846 17.3848 21.6599 17.5235H21.6693ZM23.3261 17.6991L23.4009 17.6621C23.6256 17.5604 23.7285 17.3017 23.6256 17.0706C23.5226 16.8395 23.2605 16.7286 23.0265 16.8303L22.9423 16.8673C22.9423 16.8673 22.9329 16.8673 22.9236 16.8673C22.6895 16.9689 22.5959 17.2462 22.6989 17.468C22.8019 17.6991 23.0827 17.7915 23.3073 17.6898L23.3261 17.6991ZM24.6365 17.2092L24.7207 17.1815C24.9454 17.1168 25.0764 16.8858 25.0203 16.6639C24.9641 16.4329 24.7208 16.2942 24.4961 16.3589L24.4025 16.3867C24.4025 16.3867 24.3931 16.3867 24.3838 16.3867C24.1498 16.4514 24.0187 16.6917 24.0842 16.9227C24.1498 17.1538 24.3931 17.2832 24.6271 17.2185L24.6365 17.2092ZM26.0031 16.1002H25.9095L25.9002 16.1094C25.6755 16.1371 25.5164 16.3405 25.5445 16.5623C25.5725 16.7841 25.7785 16.9412 26.0031 16.9135L26.0874 16.9042C26.3027 16.8765 26.4618 16.6824 26.4337 16.4606C26.415 16.2388 26.209 16.0724 25.9844 16.1002H26.0031ZM27.5289 16.0632H27.4353C27.4353 16.0632 27.4353 16.0632 27.4259 16.0632C27.2106 16.0632 27.0421 16.2295 27.0328 16.4421C27.0234 16.6547 27.2013 16.8211 27.4165 16.8303H27.5008C27.7067 16.8303 27.8752 16.6732 27.8846 16.4698C27.8939 16.2573 27.7348 16.0817 27.5195 16.0724L27.5289 16.0632ZM28.8206 16.932L28.9048 16.9504C29.092 16.9782 29.2793 16.858 29.3167 16.6732C29.3541 16.4791 29.2325 16.2942 29.0359 16.2573L28.9423 16.2388C28.9423 16.2388 28.9423 16.2388 28.9329 16.2388C28.7364 16.2111 28.5491 16.3405 28.5211 16.5345C28.493 16.7286 28.624 16.9135 28.8206 16.9412V16.932ZM30.5055 16.6547L30.4119 16.627C30.4119 16.627 30.4119 16.627 30.4025 16.627C30.2246 16.5715 30.0374 16.6639 29.9813 16.8395C29.9251 17.0151 30.0187 17.2 30.1966 17.2554L30.2808 17.2832C30.4493 17.3386 30.6365 17.2462 30.702 17.0798C30.7676 16.9042 30.674 16.7194 30.4961 16.6547H30.5055ZM31.5164 17.773L31.6006 17.81C31.7504 17.8839 31.9282 17.8285 32.0125 17.6806C32.0967 17.5327 32.0406 17.3479 31.8814 17.2647L31.7972 17.2185C31.6381 17.1445 31.4509 17.2092 31.376 17.3571C31.3011 17.5142 31.3666 17.6991 31.5164 17.773ZM33.0796 18.0226C32.9485 17.9301 32.7707 17.9671 32.6771 18.0965C32.5835 18.2259 32.6209 18.4015 32.752 18.4939L32.8268 18.5494C32.9485 18.6418 33.1264 18.6141 33.22 18.4847C33.3136 18.3553 33.2855 18.1797 33.1638 18.0873L33.0889 18.0318L33.0796 18.0226ZM34.2215 18.993C34.1186 18.8913 33.9501 18.9006 33.8471 19.0022C33.7442 19.1039 33.7535 19.2703 33.8565 19.3719L33.922 19.4366C34.025 19.5291 34.1841 19.5291 34.2871 19.4366C34.39 19.335 34.39 19.1686 34.2871 19.0762L34.2215 19.0115V18.993ZM34.83 20.4071L34.8861 20.481C34.961 20.5827 35.1108 20.6012 35.2137 20.5272C35.3167 20.4533 35.3448 20.3054 35.2605 20.2038L35.2044 20.1298C35.1201 20.0281 34.9704 20.0097 34.8674 20.0928C34.7644 20.176 34.7457 20.3239 34.83 20.4256V20.4071ZM36.0094 21.3683C35.9532 21.2666 35.8222 21.2297 35.7192 21.2851C35.6162 21.3406 35.5788 21.47 35.6349 21.5716L35.6817 21.6548C35.7379 21.7565 35.8596 21.7934 35.9626 21.738C36.0655 21.6825 36.103 21.5531 36.0562 21.4515L36.0094 21.3683ZM36.5242 23.0504C36.6178 23.0134 36.6739 22.9118 36.6365 22.8193L36.6084 22.7362C36.571 22.6437 36.4587 22.5883 36.3651 22.6252C36.2715 22.6622 36.2153 22.7731 36.2527 22.8655L36.2808 22.9487C36.3183 23.0411 36.4212 23.0874 36.5148 23.0596L36.5242 23.0504ZM36.674 24.2149L36.6927 24.3073C36.7114 24.3905 36.7956 24.446 36.8799 24.4367C36.9641 24.4183 37.0296 24.3351 37.0109 24.2519L36.9922 24.1595C36.9735 24.0763 36.8892 24.0208 36.7956 24.0393C36.7114 24.0578 36.6552 24.141 36.674 24.2334V24.2149ZM37.17 25.7029V25.6105C37.17 25.5366 37.0952 25.4811 37.0203 25.4811C36.9454 25.4811 36.8892 25.5551 36.8892 25.629V25.7214C36.8892 25.7954 36.9548 25.8508 37.0296 25.8508C37.1045 25.8508 37.17 25.7861 37.1607 25.7122L37.17 25.7029ZM36.8892 27.0616V27.154C36.8892 27.2187 36.9267 27.2649 36.9922 27.2741C37.0577 27.2741 37.1139 27.2372 37.1139 27.1725V27.08H37.1232C37.1232 27.0154 37.0764 26.9599 37.0203 26.9599C36.9548 26.9599 36.8986 27.0061 36.8986 27.0616H36.8892ZM36.674 28.4849L36.6552 28.5681C36.6459 28.6143 36.6739 28.6605 36.7207 28.6697C36.7676 28.679 36.8144 28.6512 36.8331 28.605L36.8612 28.5126C36.8705 28.4664 36.8424 28.4202 36.7956 28.4017C36.7488 28.3925 36.702 28.4202 36.6833 28.4664L36.674 28.4849ZM36.3276 29.9914L36.3651 29.9082C36.3744 29.8712 36.3651 29.8343 36.3276 29.825C36.2902 29.8158 36.2527 29.825 36.2434 29.862L36.2059 29.9452C36.2059 29.9452 36.2059 30.0099 36.2434 30.0284C36.2715 30.0468 36.3183 30.0284 36.3276 29.9914ZM35.5694 31.2391C35.5694 31.2391 35.5694 31.2853 35.5788 31.2946C35.5975 31.3038 35.6256 31.2946 35.6349 31.2853L35.6817 31.2114C35.6911 31.1929 35.6817 31.1652 35.663 31.1559C35.6443 31.1467 35.6162 31.1559 35.6069 31.1744L35.5601 31.2483L35.5694 31.2391ZM34.7364 32.4314V32.4498H34.7551L34.8112 32.3852V32.3667H34.7925L34.7364 32.4406V32.4314ZM17.0265 22.006C17.3261 22.1446 17.6724 22.006 17.8128 21.7195L17.8502 21.6271C17.9813 21.3313 17.8596 20.9986 17.5788 20.8507C17.2886 20.7028 16.9329 20.823 16.7832 21.1095L16.7363 21.2019C16.7363 21.2019 16.7363 21.2112 16.7363 21.2204C16.5959 21.5162 16.7364 21.8581 17.0265 21.9968V22.006ZM18.5523 20.3794L18.6084 20.2962C18.7769 20.0374 18.7114 19.7047 18.4587 19.5291C18.2059 19.3535 17.8502 19.4182 17.6724 19.6677L17.6069 19.7509C17.6069 19.7509 17.6069 19.7601 17.5975 19.7694C17.429 20.0281 17.5039 20.3701 17.766 20.5457C18.0281 20.7121 18.3744 20.6381 18.5523 20.3794ZM19.4883 19.1594L19.5538 19.0854C19.741 18.8636 19.7317 18.5401 19.5164 18.346C19.3011 18.1427 18.9641 18.152 18.7582 18.3645L18.6833 18.4385C18.6833 18.4385 18.6833 18.4477 18.6739 18.4477C18.4774 18.6695 18.4961 19.0022 18.7207 19.1963C18.9454 19.3904 19.2824 19.3719 19.4789 19.1501L19.4883 19.1594ZM19.9563 17.3017C19.9563 17.3017 19.947 17.3017 19.947 17.3109C19.7317 17.4865 19.7036 17.81 19.8814 18.0226C20.0593 18.2351 20.3869 18.2629 20.6022 18.0873L20.6771 18.0226C20.883 17.847 20.9204 17.542 20.752 17.3201C20.5835 17.0983 20.2559 17.0614 20.0406 17.237L19.9563 17.3017ZM21.4633 16.3127L21.3697 16.3682C21.3697 16.3682 21.3604 16.3682 21.351 16.3682C21.1264 16.5068 21.0515 16.8026 21.1919 17.0244C21.3323 17.2462 21.6318 17.3201 21.8565 17.1815L21.9407 17.1261C22.1654 16.9874 22.2403 16.7101 22.1092 16.4791C21.9782 16.248 21.688 16.1648 21.454 16.2942L21.4633 16.3127ZM23.2512 16.4791L23.3448 16.4421C23.5694 16.3497 23.6817 16.0909 23.5975 15.8691C23.5039 15.638 23.2418 15.5179 23.0078 15.6103L22.9048 15.6473C22.9048 15.6473 22.8955 15.6473 22.8861 15.6473C22.6521 15.7397 22.5398 16.0077 22.6427 16.2388C22.7364 16.4698 23.0078 16.5808 23.2418 16.4791H23.2512ZM24.7301 15.98L24.8237 15.9523C25.0484 15.8968 25.1888 15.675 25.1326 15.4532C25.0858 15.2221 24.8518 15.0835 24.6271 15.1297L24.5242 15.1482C24.5242 15.1482 24.5148 15.1482 24.5055 15.1482C24.2715 15.2036 24.1404 15.4347 24.1966 15.6658C24.2527 15.8968 24.4867 16.0262 24.7207 15.9708L24.7301 15.98ZM26.7426 15.2683C26.7239 15.0465 26.5367 14.8894 26.312 14.8986H26.209H26.1997C25.975 14.9171 25.8159 15.1112 25.844 15.333C25.8627 15.5549 26.0593 15.712 26.2839 15.6842L26.3775 15.675C26.5928 15.6565 26.752 15.4717 26.7332 15.2591L26.7426 15.2683ZM27.9594 15.6565C28.156 15.6565 28.3339 15.5179 28.3432 15.3146C28.3619 15.1112 28.2028 14.9356 28.0062 14.9171H27.9033C27.9033 14.9171 27.9033 14.9171 27.8939 14.9079C27.688 14.8986 27.5101 15.0558 27.5008 15.2591C27.4914 15.4624 27.6505 15.638 27.8565 15.6473H27.9594V15.6565ZM29.4197 15.8321L29.5133 15.8506C29.6911 15.8876 29.8783 15.7767 29.9158 15.5918C29.9626 15.407 29.8409 15.2221 29.663 15.1852L29.5601 15.1574C29.5601 15.1574 29.5601 15.1574 29.5507 15.1574C29.3635 15.1205 29.1763 15.2406 29.1388 15.4255C29.1014 15.6103 29.2231 15.7952 29.4103 15.8321H29.4197ZM31.2637 15.6935L31.17 15.6565C31.17 15.6565 31.17 15.6565 31.1607 15.6565C30.9922 15.6011 30.8144 15.6842 30.7488 15.8414C30.6927 16.0077 30.7769 16.1833 30.936 16.248L31.0296 16.285C31.1888 16.3405 31.3666 16.2665 31.4321 16.1094C31.4977 15.9523 31.4228 15.7674 31.2543 15.7027L31.2637 15.6935ZM32.2746 16.4883C32.1997 16.627 32.2465 16.8026 32.3963 16.8765L32.4805 16.9227C32.6209 16.9967 32.7894 16.9504 32.8643 16.8211C32.9485 16.6824 32.9017 16.5068 32.7613 16.4329L32.6677 16.3774C32.5273 16.3035 32.3495 16.3497 32.2746 16.4976V16.4883ZM34.0624 17.3017C33.9501 17.2185 33.7816 17.237 33.688 17.3571C33.6037 17.4773 33.6225 17.6344 33.7442 17.7268L33.8284 17.7915C33.9407 17.8747 34.0998 17.8562 34.1934 17.7453C34.2871 17.6344 34.2683 17.468 34.156 17.3848L34.0718 17.3201L34.0624 17.3017ZM35.3541 18.4939L35.2793 18.42C35.1856 18.3276 35.0359 18.3276 34.9423 18.42C34.8487 18.5124 34.8487 18.6603 34.9423 18.7527L35.0078 18.8266C35.092 18.9191 35.2418 18.9191 35.3354 18.8359C35.429 18.7527 35.4384 18.6048 35.3448 18.5032L35.3541 18.4939ZM36.3276 20.0744C36.4212 20.0097 36.4493 19.8803 36.3838 19.7878L36.3276 19.7047C36.2621 19.6122 36.131 19.5938 36.0374 19.6585C35.9438 19.7232 35.9251 19.8525 35.9906 19.945L36.0468 20.0281C36.1123 20.1206 36.234 20.1391 36.3276 20.0836V20.0744ZM36.8331 21.2851L36.8799 21.3775C36.9267 21.4607 37.0296 21.4977 37.1139 21.4607C37.2075 21.4145 37.2449 21.3128 37.1981 21.2204L37.1513 21.128C37.1045 21.0356 36.9922 21.0078 36.908 21.054C36.8144 21.1003 36.7863 21.2112 36.8331 21.2943V21.2851ZM37.7972 22.7454L37.7691 22.6437C37.741 22.5605 37.6568 22.5236 37.5725 22.5513C37.4883 22.579 37.4509 22.6622 37.4789 22.7454L37.507 22.8378C37.5351 22.9118 37.6193 22.958 37.6942 22.9302C37.7785 22.9025 37.8253 22.8193 37.7972 22.7454ZM37.9938 24.1317C37.9282 24.141 37.8814 24.2057 37.8908 24.2796L37.9095 24.3813C37.9189 24.446 37.9844 24.4922 38.0499 24.483C38.1154 24.4737 38.1622 24.409 38.1529 24.3443L38.1342 24.2427C38.1248 24.178 38.0593 24.1317 37.9844 24.141L37.9938 24.1317ZM38.2746 25.9617V25.8601C38.2746 25.8046 38.2278 25.7584 38.1716 25.7676C38.1154 25.7676 38.0686 25.8139 38.078 25.8693V25.971C38.078 26.0264 38.1248 26.0634 38.181 26.0634C38.2371 26.0634 38.2839 26.0172 38.2839 25.9617H38.2746ZM38.0125 27.459L38.0031 27.5607C38.0031 27.5607 38.0218 27.6346 38.0593 27.6346C38.0967 27.6346 38.1342 27.6161 38.1435 27.5791L38.1622 27.4775C38.1622 27.4405 38.1342 27.4035 38.0967 27.3943C38.0593 27.3943 38.0218 27.422 38.0125 27.459ZM37.7691 29.1596L37.7972 29.0672C37.7972 29.0394 37.7972 29.0209 37.7691 29.0117C37.741 29.0025 37.7223 29.0117 37.713 29.0394L37.6849 29.1318C37.6849 29.1318 37.6849 29.1781 37.713 29.1873C37.7317 29.1873 37.7598 29.1873 37.7691 29.1596ZM37.17 30.6568L37.2169 30.5644C37.2169 30.5644 37.2169 30.5459 37.2075 30.5367C37.1981 30.5274 37.1888 30.5367 37.1794 30.5459L37.142 30.6384V30.6568H37.1607H37.17ZM15.0983 24.483C15.454 24.5384 15.8003 24.3073 15.8565 23.9469L15.8752 23.836C15.9314 23.4848 15.7067 23.1521 15.3604 23.0874C15.0047 23.0134 14.6583 23.2445 14.5835 23.5957L14.5554 23.7158V23.7343C14.4992 24.0855 14.7332 24.4275 15.0983 24.483ZM16.259 22.3018L16.2964 22.2001C16.3994 21.8766 16.2309 21.5346 15.9126 21.4237C15.585 21.3036 15.2293 21.47 15.1076 21.7934L15.0702 21.9043V21.9228C14.9672 22.2463 15.1451 22.5975 15.4727 22.7084C15.8003 22.8101 16.156 22.6345 16.2683 22.311L16.259 22.3018ZM16.9048 20.7213L16.9516 20.6197C17.092 20.3331 16.9891 19.9819 16.6989 19.8341C16.4087 19.6769 16.0437 19.7878 15.8939 20.0744L15.8378 20.176C15.8378 20.176 15.8378 20.1853 15.8378 20.1945C15.688 20.4903 15.8097 20.8415 16.1092 20.9893C16.4087 21.1372 16.7644 21.0171 16.9142 20.7213H16.9048ZM17.7847 19.2518L17.8502 19.1594C18.0281 18.9098 17.9719 18.5679 17.7285 18.383C17.4758 18.1982 17.1201 18.2444 16.9329 18.4939L16.858 18.5863C16.858 18.5863 16.858 18.5956 16.8487 18.6048C16.6708 18.8544 16.727 19.2056 16.9891 19.3904C17.2418 19.566 17.5975 19.5106 17.7847 19.2518ZM18.1966 17.0983L18.1123 17.1815C18.1123 17.1815 18.1123 17.1815 18.103 17.1907C17.897 17.4033 17.9064 17.736 18.1217 17.9394C18.337 18.1427 18.6739 18.1335 18.8799 17.9209L18.9548 17.8377C19.1513 17.6251 19.1513 17.3017 18.9548 17.0983C18.7488 16.8858 18.4119 16.8858 18.1966 17.0983ZM19.6474 15.9061L19.5538 15.9708C19.5538 15.9708 19.5445 15.9708 19.5445 15.98C19.3198 16.1464 19.2824 16.4606 19.4509 16.6824C19.6193 16.9042 19.9376 16.9412 20.1622 16.7748L20.2465 16.7101C20.4618 16.5438 20.5086 16.2388 20.3495 16.017C20.1903 15.7952 19.8721 15.7397 19.6474 15.9061ZM21.2574 14.9356L21.1544 14.9911C21.1544 14.9911 21.1451 14.9911 21.1357 14.9911C20.9017 15.1205 20.8268 15.407 20.9485 15.6288C21.0796 15.8599 21.3697 15.9338 21.5944 15.8136L21.688 15.7582C21.9126 15.6288 21.9969 15.3608 21.8752 15.1297C21.7535 14.8986 21.4727 14.8062 21.2387 14.9264L21.2574 14.9356ZM23.1856 15.0835L23.2886 15.0465C23.5133 14.9633 23.6256 14.7138 23.5507 14.492C23.4758 14.2609 23.2231 14.1408 22.9891 14.2147L22.8768 14.2517C22.8768 14.2517 22.8674 14.2517 22.858 14.2517C22.624 14.3349 22.5117 14.5937 22.5959 14.8247C22.6802 15.0558 22.9423 15.1667 23.1763 15.0835H23.1856ZM24.8612 14.5844L24.9641 14.5567C25.1794 14.5105 25.3198 14.2979 25.2824 14.0853C25.2449 13.8635 25.0296 13.7156 24.805 13.7526L24.6927 13.7711H24.6833C24.4587 13.8173 24.3183 14.0391 24.3651 14.2609C24.4119 14.4827 24.6365 14.6214 24.8612 14.5752V14.5844ZM26.1903 13.9837C26.1997 14.1962 26.3869 14.3534 26.6022 14.3349H26.7145C26.9204 14.3256 27.0796 14.15 27.0702 13.9467C27.0702 13.7341 26.883 13.577 26.6771 13.577H26.5647C26.5647 13.577 26.5647 13.577 26.5554 13.577C26.3401 13.5862 26.181 13.7711 26.1997 13.9837H26.1903ZM28.3619 14.3534H28.4743V14.3626C28.6615 14.3811 28.83 14.2424 28.858 14.0576C28.8768 13.8635 28.7457 13.6971 28.5491 13.6694H28.4368C28.4368 13.6694 28.4368 13.6509 28.4275 13.6509C28.2309 13.6324 28.0624 13.7803 28.0437 13.9744C28.025 14.1685 28.1747 14.3349 28.3713 14.3534H28.3619ZM29.8596 14.2332C29.8222 14.4088 29.9251 14.5752 30.103 14.6214L30.2059 14.6491C30.3744 14.6861 30.5429 14.5937 30.5897 14.4273C30.6365 14.2609 30.5335 14.0853 30.3651 14.0391L30.2527 14.0114C30.2527 14.0114 30.2527 14.0114 30.2434 14.0114C30.0655 13.9744 29.897 14.0761 29.8502 14.2517L29.8596 14.2332ZM32.0125 14.6029C31.8627 14.5474 31.6942 14.6121 31.6287 14.76C31.5725 14.9079 31.6381 15.0743 31.7878 15.1389L31.8908 15.1759C32.0406 15.2314 32.1997 15.1759 32.2652 15.028C32.3307 14.8802 32.2652 14.7138 32.1154 14.6491L32.0125 14.6029ZM33.6505 15.4532C33.5289 15.3792 33.3604 15.4255 33.2855 15.5456C33.2106 15.6658 33.2574 15.8321 33.3791 15.9061L33.4727 15.9615C33.5944 16.0355 33.7535 15.9985 33.8284 15.8783C33.9033 15.7582 33.8658 15.6011 33.7442 15.5179L33.6505 15.4532ZM34.9329 16.9597C35.0265 17.0429 35.1669 17.0244 35.2512 16.932C35.3354 16.8395 35.3261 16.6917 35.2324 16.6085L35.1482 16.5345C35.0452 16.4514 34.9048 16.4698 34.8206 16.5715C34.7364 16.6732 34.7551 16.8118 34.858 16.895L34.9423 16.9689L34.9329 16.9597ZM36.4493 17.8192C36.3744 17.736 36.2434 17.736 36.1591 17.81C36.0749 17.8839 36.0749 18.0133 36.1498 18.0965L36.2247 18.1797C36.2995 18.2629 36.4212 18.2721 36.5055 18.1982C36.5897 18.1242 36.5991 18.0041 36.5242 17.9209L36.4493 17.8377V17.8192ZM37.2543 19.4644L37.3198 19.5568C37.3666 19.6307 37.4696 19.6585 37.5538 19.603C37.6381 19.5568 37.6568 19.4459 37.61 19.3719L37.5445 19.2795C37.4883 19.2056 37.3853 19.1779 37.3011 19.2333C37.2262 19.2888 37.1981 19.3904 37.2543 19.4736V19.4644ZM38.4524 20.9801L38.4056 20.8784C38.3682 20.8045 38.2839 20.7768 38.2184 20.8137C38.1435 20.8507 38.1154 20.9339 38.1529 20.9986L38.1997 21.1003C38.2278 21.165 38.312 21.2019 38.3775 21.165C38.4524 21.1372 38.4805 21.054 38.4524 20.9801ZM38.883 22.5051C38.8268 22.5236 38.7894 22.5883 38.8081 22.6437L38.8362 22.7546C38.8549 22.8101 38.9111 22.8471 38.9672 22.8286C39.0234 22.8101 39.0608 22.7546 39.0421 22.6992L39.014 22.5883C38.9953 22.5328 38.9298 22.4959 38.8736 22.5143L38.883 22.5051ZM39.3697 24.3536C39.3697 24.3536 39.3229 24.2796 39.2761 24.2889C39.2293 24.2889 39.2012 24.3351 39.2106 24.3813L39.2293 24.4922C39.2293 24.4922 39.2761 24.5661 39.3136 24.5569C39.3604 24.5569 39.3885 24.5107 39.3791 24.4737V24.3628H39.3697V24.3536ZM39.351 26.2667C39.351 26.2667 39.3697 26.3129 39.3978 26.3129C39.4259 26.3129 39.4446 26.2945 39.4446 26.2667V26.1558C39.4446 26.1281 39.4259 26.1096 39.3978 26.1096C39.3697 26.1096 39.351 26.1281 39.351 26.1558V26.2667ZM39.22 28.069C39.22 28.069 39.2387 28.069 39.2387 28.0505L39.2574 27.9396C39.2574 27.9303 39.2574 27.9211 39.2387 27.9211C39.22 27.9211 39.22 27.9211 39.22 27.9396L39.2013 28.0505C39.2013 28.0505 39.2013 28.069 39.22 28.069ZM14.415 26.9044L14.4056 26.7843C14.3682 26.3869 14.0312 26.1004 13.6381 26.1281C13.2356 26.1558 12.9267 26.4978 12.9548 26.8952V27.0246C12.9548 27.0246 12.9548 27.0431 12.9641 27.0523C13.0016 27.4497 13.3573 27.7455 13.7598 27.7085C14.1622 27.6716 14.4618 27.3204 14.4243 26.9229L14.415 26.9044ZM14.3682 25.0098V24.8896C14.3869 24.5199 14.1061 24.2057 13.7317 24.1687C13.3479 24.1317 13.0109 24.4183 12.9735 24.7972V24.9266C12.9735 24.9266 12.9641 24.9451 12.9641 24.9543C12.9454 25.3332 13.2356 25.6567 13.6287 25.6752C14.0125 25.6937 14.3401 25.4072 14.3588 25.019L14.3682 25.0098ZM14.6022 23.1336L14.6303 23.0134C14.7051 22.6622 14.4805 22.3202 14.1342 22.2371C13.7785 22.1539 13.4228 22.3665 13.3385 22.7177L13.3105 22.8471V22.8655C13.2356 23.2168 13.4696 23.568 13.8253 23.6419C14.181 23.7158 14.5367 23.4848 14.6115 23.1336H14.6022ZM14.3027 21.6825C14.6303 21.8027 14.9953 21.6363 15.117 21.3128L15.1544 21.1927C15.2668 20.8692 15.117 20.5272 14.7988 20.3978C14.4805 20.2684 14.1061 20.4256 13.975 20.7398L13.9282 20.86C13.9282 20.86 13.9282 20.8692 13.9282 20.8784C13.8066 21.2019 13.975 21.5624 14.3027 21.6825ZM15.9033 19.5753L15.9594 19.4644C16.1092 19.1779 16.0156 18.8359 15.7442 18.6695C15.4633 18.5032 15.0983 18.5956 14.9298 18.8729L14.8643 18.9838C14.8643 18.9838 14.8643 18.993 14.8549 19.0022C14.6958 19.2888 14.7988 19.6492 15.0889 19.8063C15.3791 19.9634 15.7442 19.8618 15.9033 19.5753ZM16.9423 17.9763L17.0172 17.8747C17.195 17.6344 17.1576 17.2924 16.9236 17.1076C16.6802 16.9135 16.3339 16.9504 16.1373 17.1907L16.053 17.2924C16.053 17.2924 16.053 17.3017 16.0437 17.3109C15.8565 17.5512 15.9033 17.9024 16.156 18.0873C16.3994 18.2721 16.7551 18.2259 16.9423 17.9763ZM17.5881 15.6935L17.4945 15.7767C17.4945 15.7767 17.4945 15.7767 17.4852 15.7859C17.2793 15.9892 17.2699 16.322 17.4852 16.5253C17.6911 16.7286 18.0281 16.7379 18.234 16.5253L18.3183 16.4421C18.5242 16.2388 18.5335 15.9245 18.337 15.712C18.1404 15.4994 17.8034 15.4809 17.5881 15.675V15.6935ZM19.2356 14.4273L19.1232 14.5012C19.1232 14.5012 19.1139 14.5012 19.1139 14.5105C18.8892 14.6676 18.8424 14.9726 19.0016 15.1944C19.1607 15.4162 19.4696 15.4624 19.6942 15.3053L19.7972 15.2314C20.0125 15.0743 20.0686 14.7785 19.9189 14.5567C19.7691 14.3349 19.4602 14.2702 19.2356 14.4273ZM21.0515 13.4199L20.9298 13.4753H20.9204C20.6958 13.5862 20.6022 13.8635 20.7239 14.0946C20.8362 14.3164 21.117 14.4088 21.351 14.2887L21.4633 14.2332C21.6786 14.1223 21.7722 13.8543 21.6693 13.6324C21.5569 13.4014 21.2855 13.309 21.0608 13.4199H21.0515ZM23.1295 13.5308L23.2418 13.4938C23.4571 13.4199 23.5788 13.1888 23.5133 12.9762C23.4477 12.7544 23.2044 12.625 22.9797 12.699L22.858 12.7359H22.8487C22.624 12.8099 22.5023 13.0502 22.5772 13.272C22.6521 13.4938 22.8955 13.614 23.1201 13.54L23.1295 13.5308ZM25.0203 13.0409L25.142 13.0225C25.3479 12.9855 25.4883 12.7914 25.4602 12.5881C25.4321 12.3755 25.2262 12.2276 25.0203 12.2553L24.8892 12.2738C24.8892 12.2738 24.8892 12.2738 24.8799 12.2738C24.6646 12.3108 24.5242 12.5141 24.5616 12.7267C24.5991 12.9393 24.805 13.0779 25.0203 13.0409ZM26.9672 12.8376H27.0889C27.2855 12.8376 27.4353 12.6805 27.4353 12.4864C27.4353 12.2923 27.2761 12.1352 27.0796 12.1259H26.9485C26.9485 12.1259 26.9485 12.1259 26.9392 12.1259C26.7426 12.1259 26.5835 12.2923 26.5928 12.4956C26.5928 12.6897 26.7613 12.8469 26.9672 12.8376ZM29.0078 12.2738C28.83 12.2553 28.6615 12.3755 28.6427 12.5603C28.624 12.7452 28.7457 12.9023 28.9329 12.9208L29.0546 12.9393C29.2231 12.9578 29.3822 12.8376 29.4103 12.6712C29.4384 12.4956 29.3167 12.3293 29.1388 12.3016L29.0078 12.2831C29.0078 12.2831 29.0078 12.2831 28.9984 12.2831L29.0078 12.2738ZM31.0203 12.7267C30.8612 12.6805 30.702 12.7729 30.6646 12.93C30.6178 13.0872 30.7114 13.2443 30.8705 13.2812L30.9922 13.3182C31.142 13.3644 31.3011 13.272 31.3479 13.1241C31.3947 12.9762 31.3105 12.8099 31.1607 12.7637L31.039 12.7267C31.039 12.7267 31.039 12.7267 31.0296 12.7267H31.0203ZM32.9485 13.4661C32.8175 13.4106 32.6677 13.4661 32.6022 13.5955C32.5367 13.7249 32.6022 13.8727 32.7332 13.9374L32.8456 13.9837C32.9672 14.0391 33.117 13.9837 33.1825 13.8635C33.2481 13.7341 33.1825 13.5862 33.0608 13.5215L32.9485 13.4661ZM34.727 14.4735C34.624 14.4088 34.4836 14.4365 34.4181 14.5382C34.3526 14.6399 34.3807 14.7785 34.4836 14.8432L34.5866 14.9079C34.6895 14.9726 34.8206 14.9449 34.8861 14.8524C34.9516 14.7508 34.9329 14.6121 34.83 14.5474L34.727 14.4735ZM36.0562 15.7397C35.9906 15.8229 35.9906 15.9338 36.0749 16.0077L36.1685 16.0909C36.2434 16.1556 36.3651 16.1556 36.4306 16.0817C36.5055 16.0077 36.4961 15.8876 36.4212 15.8136L36.3276 15.7305C36.2434 15.6658 36.131 15.6658 36.0562 15.7489V15.7397ZM37.8066 17.2924L37.7317 17.1907C37.6755 17.1261 37.5725 17.1168 37.507 17.1723C37.4415 17.2277 37.4321 17.3294 37.4883 17.3941L37.5725 17.4865C37.6287 17.5512 37.7223 17.5604 37.7878 17.505C37.8534 17.4495 37.8627 17.3571 37.8159 17.2924H37.8066ZM38.883 18.8451C38.8456 18.7897 38.7707 18.7712 38.7145 18.8082C38.6583 18.8451 38.6396 18.9191 38.6771 18.9745L38.7426 19.0762C38.78 19.1316 38.8456 19.1501 38.9111 19.1132C38.9672 19.0762 38.986 19.0022 38.9579 18.9468L38.8924 18.8359L38.883 18.8451ZM39.6599 20.8322C39.6599 20.8322 39.7254 20.8969 39.7722 20.8784C39.819 20.86 39.8378 20.8137 39.819 20.7675L39.7722 20.6474C39.7535 20.6012 39.6973 20.5827 39.6505 20.6012C39.6037 20.6197 39.585 20.6751 39.6037 20.7213L39.6505 20.8322H39.6599ZM40.2777 22.5883L40.3058 22.7084C40.3058 22.7084 40.3432 22.7546 40.3713 22.7454C40.3994 22.7454 40.4181 22.7084 40.4087 22.6807L40.3807 22.5605C40.3807 22.5328 40.3432 22.5143 40.3151 22.5236C40.2871 22.5236 40.2683 22.5605 40.2777 22.5883ZM40.6708 24.5107C40.6708 24.5107 40.6521 24.5199 40.6521 24.5384V24.6586C40.6521 24.6586 40.6802 24.677 40.6896 24.677C40.6989 24.677 40.7083 24.6678 40.7083 24.6586V24.5384H40.6989C40.6989 24.5292 40.6895 24.5199 40.6708 24.5199V24.5107ZM13.7223 30.472L13.6755 30.3426C13.5257 29.9267 13.0764 29.7141 12.6552 29.8528C12.234 29.9914 12 30.4443 12.1404 30.8694L12.1872 31.008C12.1872 31.008 12.1872 31.0265 12.1872 31.0358C12.3463 31.4517 12.8144 31.6642 13.2356 31.5071C13.6568 31.35 13.8721 30.8879 13.7129 30.472H13.7223ZM12.5242 29.3722C12.9454 29.2797 13.2075 28.8731 13.1232 28.4664L13.0952 28.337C13.0109 27.9303 12.6178 27.6623 12.2059 27.7363C11.7847 27.8102 11.5039 28.2076 11.5788 28.6235L11.6069 28.7622C11.6069 28.7622 11.6069 28.7806 11.6069 28.7899C11.7005 29.2058 12.1123 29.4646 12.5242 29.3814V29.3722ZM12.131 27.154C12.5429 27.1263 12.8518 26.7843 12.8237 26.3776V26.239C12.7956 25.8416 12.468 25.5366 12.0655 25.5458C11.663 25.5551 11.3354 25.8878 11.3448 26.2945V26.4423C11.3448 26.4423 11.3448 26.4608 11.3448 26.4701C11.3729 26.8767 11.7192 27.1817 12.131 27.154ZM12.2434 23.3831C11.8596 23.3369 11.5133 23.6049 11.4665 23.9839L11.4477 24.1317C11.4477 24.1317 11.4477 24.1502 11.4477 24.1595C11.4103 24.5384 11.7005 24.8804 12.0842 24.9081C12.468 24.9451 12.8144 24.6586 12.8424 24.2796L12.8518 24.141C12.8892 23.7621 12.6178 23.4293 12.2434 23.3831ZM13.1794 22.1909L13.2075 22.0615C13.2917 21.7103 13.0858 21.3683 12.7395 21.2666C12.3838 21.165 12.0187 21.3683 11.9251 21.7195L11.8877 21.8581V21.8766C11.8034 22.2278 12.0187 22.579 12.3744 22.6715C12.7301 22.7546 13.0858 22.5421 13.1794 22.1909ZM13.8346 20.176L13.8814 20.0466C14.0031 19.7324 13.8627 19.3812 13.5632 19.2425C13.2449 19.1039 12.8799 19.2425 12.7395 19.5568L12.6833 19.6862C12.6833 19.6862 12.6833 19.6954 12.6833 19.7047C12.5523 20.0189 12.702 20.3794 13.0296 20.5087C13.3479 20.6381 13.7129 20.4903 13.844 20.1668L13.8346 20.176ZM13.975 18.4754C14.2559 18.6418 14.6115 18.5494 14.78 18.2721L14.8456 18.152C15.0047 17.8747 14.9204 17.5327 14.6583 17.3664C14.3869 17.1908 14.0218 17.2739 13.844 17.542L13.7691 17.6621C13.7691 17.6621 13.7691 17.6713 13.7598 17.6806C13.5913 17.9579 13.6849 18.3091 13.9657 18.4754H13.975ZM15.2574 15.712L15.1638 15.8229C15.1638 15.8229 15.1638 15.8321 15.1544 15.8414C14.9579 16.0724 14.9953 16.4144 15.2293 16.6085C15.4633 16.8026 15.8097 16.7656 16.0062 16.5345L16.0905 16.4236C16.2777 16.1926 16.2496 15.8599 16.025 15.6658C15.8003 15.4717 15.454 15.4902 15.2481 15.7212L15.2574 15.712ZM16.9142 14.1131L16.8019 14.2055C16.8019 14.2055 16.8019 14.2055 16.7925 14.2147C16.5866 14.3996 16.5679 14.723 16.7551 14.9264C16.9423 15.1297 17.2699 15.1482 17.4758 14.9633L17.5788 14.8709C17.7847 14.6861 17.8034 14.3718 17.6256 14.1685C17.4384 13.9559 17.1201 13.9282 16.9048 14.1131H16.9142ZM18.7863 12.7822L18.6646 12.8561H18.6552C18.4399 13.004 18.3744 13.2905 18.5242 13.5123C18.6739 13.7249 18.9641 13.7896 19.1888 13.6417L19.3011 13.5678C19.5164 13.4291 19.5725 13.1426 19.4415 12.93C19.3011 12.7082 19.0109 12.6435 18.7863 12.7822ZM20.8362 11.7378L20.7052 11.7932H20.6958C20.4805 11.8949 20.3775 12.1537 20.4805 12.3662C20.5835 12.5788 20.8456 12.6805 21.0608 12.5788L21.1825 12.5234C21.3978 12.4217 21.4914 12.1722 21.3978 11.9596C21.3042 11.7378 21.0515 11.6361 20.8268 11.7378H20.8362ZM23.092 11.8117L23.2231 11.7747C23.429 11.71 23.5507 11.5067 23.4945 11.2941C23.4384 11.0816 23.2231 10.9614 23.0078 11.0169L22.8674 11.0538C22.8674 11.0538 22.8674 11.0538 22.858 11.0538C22.6427 11.1185 22.5211 11.3403 22.5866 11.5437C22.6521 11.7563 22.8768 11.8764 23.0827 11.8117H23.092ZM25.2169 11.3403L25.3479 11.3219C25.5351 11.2941 25.6755 11.1185 25.6568 10.9337C25.6381 10.7396 25.4602 10.601 25.2543 10.6194L25.1139 10.6379C25.1139 10.6379 25.1139 10.6379 25.1045 10.6379C24.908 10.6657 24.7676 10.8505 24.7956 11.0446C24.8237 11.2387 25.0109 11.3773 25.2075 11.3496L25.2169 11.3403ZM27.3978 11.1832H27.5382C27.7161 11.1832 27.8565 11.0538 27.8658 10.8782C27.8658 10.7026 27.7348 10.5547 27.5569 10.5455H27.4165C27.4165 10.5455 27.4165 10.5455 27.4072 10.5455C27.2293 10.5455 27.0796 10.6841 27.0796 10.869C27.0796 11.0446 27.22 11.1925 27.4072 11.1925L27.3978 11.1832ZM29.8222 10.8135L29.6817 10.7858C29.6817 10.7858 29.6817 10.7858 29.6724 10.7858C29.5133 10.7581 29.3635 10.869 29.3448 11.0261C29.3167 11.1832 29.429 11.3311 29.5881 11.3496L29.7192 11.3681C29.869 11.3958 30.0187 11.2941 30.0468 11.1463C30.0749 10.9891 29.9719 10.8413 29.8222 10.8135ZM32.0218 11.4143L31.8908 11.3681C31.7598 11.3311 31.6193 11.3958 31.5725 11.5252C31.5351 11.6546 31.6006 11.7932 31.7317 11.8394L31.8627 11.8856C31.9938 11.9226 32.1248 11.8579 32.1716 11.7378C32.2184 11.6084 32.1529 11.4697 32.0218 11.4235V11.4143ZM33.7816 12.6343L33.9033 12.699C34.0062 12.7452 34.1279 12.7082 34.1841 12.6065C34.2402 12.5049 34.2028 12.3755 34.0998 12.3293L33.9782 12.2646C33.8752 12.2091 33.7442 12.2646 33.6973 12.357C33.6412 12.4587 33.6973 12.5881 33.791 12.6343H33.7816ZM35.897 13.4476C35.8128 13.3921 35.7098 13.4106 35.6537 13.4938C35.5975 13.577 35.6162 13.6787 35.7005 13.7341L35.8128 13.8081C35.8877 13.8635 35.9906 13.845 36.0468 13.7711C36.103 13.6971 36.0842 13.5862 36.0094 13.5308L35.897 13.4476ZM37.6193 14.8986C37.5632 14.8432 37.4789 14.8524 37.4228 14.8986C37.3666 14.9541 37.376 15.0373 37.4228 15.0927L37.5257 15.1852C37.5819 15.2314 37.6661 15.2314 37.713 15.1852C37.7691 15.1297 37.7691 15.0465 37.713 15.0003L37.61 14.8986H37.6193ZM38.9392 16.7009L39.0234 16.8118C39.0234 16.8118 39.117 16.858 39.1544 16.8303C39.2013 16.8026 39.2106 16.7379 39.1732 16.6917L39.0889 16.5808C39.0515 16.5345 38.9953 16.5345 38.9485 16.5623C38.9017 16.5992 38.9017 16.6547 38.9298 16.7009H38.9392ZM40.3058 18.4569C40.3058 18.4569 40.2496 18.42 40.2215 18.4385C40.1935 18.4569 40.1841 18.4939 40.2028 18.5216L40.2683 18.6418C40.2683 18.6418 40.3245 18.6788 40.3526 18.6695C40.3807 18.651 40.39 18.6141 40.3807 18.5863L40.3151 18.4662L40.3058 18.4569ZM41.2605 20.6197L41.2137 20.4903C41.2137 20.481 41.195 20.4718 41.1856 20.481C41.1763 20.481 41.1669 20.4995 41.1763 20.5087L41.2231 20.6381C41.2231 20.6381 41.2418 20.6566 41.2512 20.6474C41.2605 20.6474 41.2699 20.6289 41.2605 20.6197ZM13.9938 34.5201L13.9095 34.4C13.6287 34.0026 13.0858 33.9009 12.6739 34.1689C12.2621 34.437 12.1404 34.9915 12.4212 35.4074L12.5148 35.546C12.5148 35.546 12.5242 35.5645 12.5335 35.5738C12.8237 35.9804 13.3853 36.0728 13.7972 35.7863C14.209 35.4998 14.3027 34.9453 14.0125 34.5386L13.9938 34.5201ZM11.2137 33.2817C11.2137 33.2817 11.2137 33.3001 11.2231 33.3094C11.4384 33.7253 11.9626 33.8917 12.3838 33.6791C12.805 33.4665 12.9735 32.9489 12.7582 32.533L12.6927 32.3944C12.4867 31.9785 11.9813 31.8121 11.5601 32.0062C11.1295 32.2003 10.9423 32.7086 11.1482 33.1338L11.2137 33.2817ZM11.3167 31.4147C11.7473 31.2761 11.9813 30.814 11.8315 30.3888L11.7847 30.2409C11.6443 29.8158 11.2044 29.594 10.7738 29.7141C10.3432 29.8435 10.0905 30.2871 10.2215 30.7215L10.2683 30.8787C10.2683 30.8787 10.2683 30.8971 10.2683 30.9064C10.4087 31.3315 10.8768 31.5626 11.3073 31.4147H11.3167ZM11.2418 28.1244L11.2137 27.9766C11.1388 27.5607 10.7551 27.2834 10.3432 27.3388C9.922 27.3943 9.62247 27.7825 9.67863 28.2076L9.69735 28.3647C9.69735 28.3647 9.69735 28.3832 9.69735 28.3925C9.77223 28.8084 10.1747 29.0949 10.5959 29.0209C11.0172 28.947 11.3073 28.5496 11.2324 28.1337L11.2418 28.1244ZM9.52886 25.8046C9.52886 25.8046 9.52886 25.8231 9.52886 25.8323C9.52886 26.239 9.8752 26.5532 10.2871 26.544C10.6989 26.5348 11.0172 26.202 11.0078 25.7954V25.6475C10.9984 25.2501 10.6802 24.9358 10.2777 24.9266C9.87519 24.9266 9.53822 25.2408 9.53822 25.6475V25.8046H9.52886ZM9.73479 23.2537V23.2722C9.68799 23.6511 9.95944 23.9931 10.3339 24.0393C10.7176 24.0855 11.064 23.8175 11.1108 23.4478L11.1295 23.2999C11.1763 22.9302 10.9236 22.5883 10.5491 22.5328C10.1747 22.4681 9.81903 22.7269 9.75351 23.0966L9.72543 23.2537H9.73479ZM10.3713 20.6104L10.3245 20.7583V20.7768C10.2309 21.1187 10.4275 21.4792 10.7738 21.5716C11.1201 21.664 11.4852 21.47 11.5788 21.128L11.6162 20.9801C11.7098 20.6381 11.5226 20.2962 11.1856 20.1853C10.8393 20.0744 10.4743 20.2684 10.3713 20.6012V20.6104ZM12.1591 17.9763C11.8596 17.8285 11.4945 17.9486 11.3448 18.2536L11.2699 18.3923C11.2699 18.3923 11.2699 18.4015 11.2699 18.4107C11.1295 18.7157 11.2699 19.0762 11.5788 19.2056C11.8877 19.3442 12.2527 19.2056 12.3838 18.9006L12.4493 18.7619C12.5803 18.4569 12.4493 18.115 12.1591 17.9671V17.9763ZM12.5616 16.1926C12.5616 16.1926 12.5616 16.2018 12.5523 16.2111C12.3838 16.4698 12.4587 16.8211 12.7207 16.9874C12.9828 17.1538 13.3385 17.0798 13.507 16.8211L13.5913 16.6917C13.7598 16.4329 13.6849 16.0909 13.4321 15.9245C13.17 15.7489 12.8237 15.8136 12.6459 16.0632L12.5523 16.1926H12.5616ZM14.2746 14.0946L14.1622 14.2055C14.1622 14.2055 14.1622 14.2055 14.1529 14.2147C13.9563 14.4273 13.9844 14.76 14.1997 14.9541C14.415 15.1482 14.752 15.1205 14.9485 14.9079L15.0515 14.797C15.2387 14.5844 15.22 14.2609 15.014 14.0761C14.7988 13.882 14.4711 13.8912 14.2746 14.0946ZM16.1747 12.394L16.053 12.4956C16.053 12.4956 16.053 12.4956 16.0437 12.5049C15.8378 12.6805 15.8097 12.9762 15.9875 13.1796C16.1654 13.3829 16.4649 13.4106 16.6708 13.235L16.7832 13.1334C16.9797 12.967 17.0172 12.6712 16.8487 12.4679C16.6802 12.2646 16.3807 12.2276 16.1654 12.3847L16.1747 12.394ZM18.1591 11.0723C18.1591 11.0723 18.1591 11.0723 18.1498 11.0723C17.9438 11.2017 17.8783 11.4697 18 11.6731C18.131 11.8764 18.4025 11.9411 18.6084 11.821L18.7395 11.7378C18.9454 11.6084 19.0109 11.3496 18.8892 11.1463C18.7676 10.9337 18.4961 10.8597 18.2902 10.9799L18.1498 11.0538L18.1591 11.0723ZM20.6022 9.92627L20.4524 9.98172C20.4524 9.98172 20.4524 9.98172 20.4431 9.98172C20.2371 10.0649 20.1435 10.3052 20.2278 10.5085C20.312 10.7119 20.5554 10.8043 20.7613 10.7211L20.9017 10.6564C21.0983 10.5732 21.1919 10.3514 21.117 10.1481C21.0328 9.94476 20.8081 9.84309 20.6022 9.92627ZM23.0546 9.92627L23.2044 9.8893C23.3916 9.84309 23.5039 9.65824 23.4665 9.46415C23.4197 9.27006 23.2325 9.14991 23.0359 9.19613L22.8768 9.2331C22.8768 9.2331 22.8768 9.2331 22.8674 9.2331C22.6708 9.27931 22.5585 9.4734 22.6053 9.66749C22.6521 9.86157 22.8487 9.97248 23.0452 9.92627H23.0546ZM25.4509 9.48264L25.6006 9.46415C25.7691 9.44567 25.9002 9.29779 25.8814 9.13143C25.8721 8.95583 25.7129 8.82643 25.5445 8.84492H25.3853C25.3853 8.84492 25.3853 8.85416 25.376 8.85416C25.1981 8.87264 25.0764 9.02976 25.0952 9.20537C25.1139 9.38097 25.273 9.50112 25.4509 9.48264ZM27.8939 9.39946H28.0437C28.1934 9.39946 28.3151 9.29779 28.3339 9.14991C28.3432 9.00204 28.2309 8.87264 28.0811 8.85416H27.922V8.84492C27.7722 8.84492 27.6412 8.95583 27.6318 9.1037C27.6318 9.25158 27.7442 9.38097 27.8939 9.39021V9.39946ZM30.5803 9.25158L30.4306 9.21461C30.2995 9.18688 30.1778 9.27007 30.1498 9.39946C30.1217 9.52885 30.2059 9.649 30.337 9.67673L30.4867 9.70445C30.6084 9.73218 30.7301 9.649 30.7582 9.52885C30.7863 9.4087 30.7114 9.27931 30.5803 9.25158ZM32.986 10.0002L32.8362 9.94476C32.7332 9.90779 32.6209 9.96324 32.5835 10.0649C32.546 10.1666 32.6022 10.2775 32.7051 10.3144L32.8456 10.3699C32.9392 10.4069 33.0515 10.3607 33.0889 10.259C33.1264 10.1573 33.0796 10.0557 32.9766 10.0095L32.986 10.0002ZM35.1014 11.0076C35.0265 10.9707 34.9329 10.9984 34.8955 11.0723C34.858 11.1463 34.8861 11.2387 34.961 11.2757L35.1014 11.3496C35.1763 11.3866 35.2605 11.3588 35.298 11.2941C35.3354 11.2202 35.3167 11.1278 35.2418 11.0908L35.1014 11.0169V11.0076ZM37.1888 12.394C37.142 12.357 37.0671 12.3662 37.0296 12.4125C36.9922 12.4587 37.0016 12.5326 37.0484 12.5696L37.17 12.662C37.17 12.662 37.2824 12.6897 37.3198 12.6435C37.3573 12.5973 37.3479 12.5326 37.3011 12.4956L37.1794 12.4032L37.1888 12.394ZM39.1357 14.2702C39.1357 14.2702 39.1638 14.2055 39.1357 14.1777L39.0328 14.0668C39.0047 14.0391 38.9579 14.0391 38.9392 14.0668C38.9111 14.0946 38.9111 14.1408 38.9392 14.1593L39.0515 14.2702C39.0515 14.2702 39.117 14.2979 39.1451 14.2702H39.1357ZM40.5959 15.98C40.5959 15.98 40.5679 15.9615 40.5585 15.98C40.5491 15.98 40.5398 16.0077 40.5585 16.017L40.6521 16.1371C40.6521 16.1371 40.6708 16.1464 40.6896 16.1371C40.6989 16.1371 40.7083 16.1094 40.6896 16.1002L40.6053 15.9708L40.5959 15.98ZM15.4633 38.7624L15.3417 38.6607H15.3323C14.9204 38.3187 14.3027 38.3557 13.947 38.7624C13.5819 39.169 13.6193 39.7975 14.0312 40.158L14.1716 40.2781C14.1716 40.2781 14.1903 40.2966 14.1997 40.2966C14.6303 40.6478 15.2574 40.5831 15.6131 40.1672C15.9688 39.7421 15.9033 39.1228 15.4821 38.7716L15.4633 38.7624ZM13.5632 36.9786L13.4509 36.8584C13.1045 36.4703 12.5242 36.4333 12.131 36.7568C11.7285 37.0895 11.6724 37.6903 12.0187 38.0877L12.131 38.2263C12.131 38.2263 12.1498 38.2448 12.1498 38.254C12.5055 38.6422 13.1139 38.6699 13.507 38.328C13.9002 37.9768 13.9282 37.376 13.5819 36.9878L13.5632 36.9786ZM11.9532 34.936L11.8596 34.7974C11.5881 34.3907 11.0452 34.2613 10.624 34.5201C10.1934 34.7789 10.0624 35.3335 10.3245 35.7586L10.4181 35.9157C10.4181 35.9157 10.4275 35.9342 10.4368 35.9435C10.7176 36.3594 11.2793 36.4703 11.7005 36.2022C12.1217 35.9342 12.234 35.3704 11.9626 34.9545L11.9532 34.936ZM9.00468 33.1985L9.07956 33.3648C9.07956 33.3648 9.07956 33.3833 9.08892 33.3926C9.28549 33.8177 9.80031 34.0118 10.2402 33.8085C10.6802 33.6051 10.8674 33.1061 10.6615 32.6717L10.5959 32.5145C10.3994 32.0894 9.90328 31.9046 9.48206 32.0802C9.04212 32.265 8.83619 32.7641 9.0234 33.1985H9.00468ZM8.68643 29.5108C8.24649 29.6217 7.9844 30.0561 8.09672 30.4905L8.14353 30.6661C8.14353 30.6661 8.14353 30.6846 8.14353 30.6938C8.27457 31.119 8.72387 31.3685 9.16381 31.2391C9.59438 31.1097 9.84711 30.6661 9.71607 30.2317L9.66927 30.0653C9.54758 29.6402 9.10764 29.3906 8.68643 29.5015V29.5108ZM9.13573 27.5144C9.07956 27.0985 8.70515 26.812 8.29329 26.849C7.87208 26.8952 7.56318 27.2649 7.60998 27.6808L7.62871 27.8564C7.62871 27.8564 7.62871 27.8749 7.62871 27.8841C7.68487 28.3 8.078 28.5958 8.49922 28.5403C8.92044 28.4849 9.21997 28.0967 9.16381 27.6808L9.14509 27.5144H9.13573ZM8.29329 24.1687C7.8908 24.1502 7.55382 24.4552 7.5351 24.8526V25.0283C7.5351 25.0283 7.5351 25.0467 7.5351 25.056C7.5351 25.4534 7.85335 25.7769 8.25585 25.7861C8.65835 25.7861 8.98596 25.4719 8.99532 25.0745V24.9081C8.99532 24.5199 8.69579 24.1964 8.30265 24.178L8.29329 24.1687ZM7.86271 22.2186V22.2371C7.80655 22.6068 8.05928 22.9487 8.42434 23.0042C8.79875 23.0596 9.14509 22.8101 9.20125 22.4496L9.22933 22.2833C9.28549 21.9228 9.05148 21.5809 8.69579 21.5162C8.33073 21.4422 7.97504 21.6825 7.90016 22.043L7.86271 22.2186ZM8.66771 19.3257L8.61154 19.4921V19.5106C8.50858 19.8433 8.68643 20.1945 9.0234 20.2962C9.36038 20.3978 9.71607 20.2222 9.81903 19.8895L9.86584 19.7232C9.9688 19.3997 9.80031 19.0577 9.4727 18.9375C9.14509 18.8174 8.78003 18.993 8.66771 19.3165V19.3257ZM10.6334 16.5161C10.3526 16.3682 9.99688 16.4698 9.83775 16.7471L9.75351 16.9042C9.75351 16.9042 9.75351 16.9135 9.75351 16.9227C9.6131 17.2092 9.72543 17.5604 10.0156 17.6991C10.3058 17.8377 10.6615 17.7268 10.8019 17.4403L10.8768 17.2924C11.0172 17.0059 10.9048 16.6732 10.6334 16.5253V16.5161ZM11.2793 14.529C11.2793 14.529 11.2793 14.5382 11.2699 14.5474C11.1014 14.7877 11.1576 15.1205 11.4009 15.2868C11.6443 15.4532 11.9813 15.3977 12.1498 15.1574L12.2434 15.0188C12.4119 14.7785 12.3557 14.455 12.1217 14.2887C11.8877 14.1131 11.5507 14.1593 11.3729 14.3996L11.2699 14.5382L11.2793 14.529ZM13.2637 12.2831L13.142 12.4032C13.142 12.4032 13.142 12.4032 13.1326 12.4125C12.9454 12.6065 12.9548 12.9208 13.1513 13.1056C13.3479 13.2905 13.6661 13.2812 13.8534 13.0872L13.9657 12.967C14.1435 12.7729 14.1435 12.4772 13.9657 12.2923C13.7785 12.0982 13.4602 12.0982 13.273 12.2923L13.2637 12.2831ZM15.1919 11.211C15.3417 11.405 15.6225 11.4328 15.819 11.2849L15.9501 11.1832C16.1373 11.0354 16.1747 10.7673 16.0343 10.5732C15.8846 10.3791 15.6131 10.3329 15.4072 10.4808L15.2668 10.5825C15.2668 10.5825 15.2668 10.5825 15.2574 10.5825C15.0608 10.7304 15.0328 11.0076 15.1825 11.2017L15.1919 11.211ZM17.6724 9.09446C17.6724 9.09446 17.6724 9.09446 17.663 9.09446C17.4665 9.20537 17.4009 9.44567 17.5133 9.63976C17.6256 9.83385 17.869 9.89854 18.0655 9.78764L18.2153 9.70445C18.4025 9.59355 18.468 9.36249 18.3744 9.17764C18.2715 8.98355 18.0281 8.90961 17.8315 9.01128L17.6724 9.09446ZM20.4243 7.92068L20.2558 7.97614C20.2558 7.97614 20.2558 7.97614 20.2465 7.97614C20.0593 8.05008 19.975 8.24417 20.0406 8.42901C20.1154 8.61386 20.312 8.69704 20.4992 8.63234L20.6583 8.56765C20.8362 8.50295 20.9298 8.30886 20.8643 8.12401C20.7988 7.93917 20.6022 7.84675 20.415 7.91144L20.4243 7.92068ZM23.092 7.85599L23.2605 7.81902C23.4197 7.78205 23.5226 7.62493 23.4945 7.46781C23.4665 7.30145 23.3073 7.19978 23.1388 7.22751L22.9704 7.25524C22.9704 7.25524 22.9704 7.25524 22.961 7.25524C22.7925 7.2922 22.6895 7.45857 22.727 7.61569C22.7644 7.78205 22.9329 7.88371 23.092 7.84674V7.85599ZM25.7878 7.45857L25.9563 7.44932C26.0967 7.44008 26.1997 7.31993 26.1997 7.1813C26.1997 7.04266 26.078 6.93175 25.9282 6.93175H25.7504C25.61 6.941 25.4977 7.06115 25.507 7.20902C25.5164 7.34766 25.6381 7.45857 25.7878 7.44932V7.45857ZM28.727 7.0519L28.5491 7.03342C28.4275 7.02418 28.3245 7.10736 28.3151 7.22751C28.3058 7.34766 28.39 7.44932 28.5117 7.45857L28.6802 7.46781C28.7925 7.46781 28.8955 7.39387 28.9048 7.28296C28.9142 7.16281 28.83 7.06115 28.7176 7.0519H28.727ZM31.4696 7.57872L31.3011 7.53251C31.2075 7.51402 31.1139 7.56947 31.0952 7.6619C31.0764 7.75432 31.1326 7.84675 31.2262 7.86523L31.3947 7.9022C31.4789 7.92068 31.5725 7.87447 31.5913 7.78205C31.6193 7.68963 31.5632 7.60644 31.4696 7.57872ZM33.8378 8.65083L33.9969 8.71552C34.053 8.74325 34.1279 8.71552 34.156 8.65083C34.1841 8.58613 34.156 8.52143 34.0905 8.49371L33.9314 8.42901C33.8658 8.40129 33.8003 8.42901 33.7722 8.49371C33.7442 8.5584 33.7722 8.6231 33.8378 8.65083ZM36.3931 9.69521C36.3557 9.67673 36.3089 9.69521 36.2902 9.72294C36.2715 9.75067 36.2902 9.80612 36.3183 9.8246L36.468 9.90779C36.468 9.90779 36.5429 9.91703 36.571 9.88006C36.5897 9.84309 36.5803 9.79688 36.5429 9.77839L36.3931 9.68597V9.69521ZM38.6303 11.3126C38.6209 11.3034 38.6022 11.3126 38.5835 11.3126C38.5647 11.3126 38.5835 11.3403 38.5835 11.3588L38.7145 11.4697C38.7145 11.4697 38.7426 11.4697 38.752 11.4697C38.7613 11.4605 38.752 11.442 38.752 11.4328L38.6209 11.3219L38.6303 11.3126ZM17.1482 44.8253L17.3261 44.9178C17.3261 44.9178 17.3541 44.927 17.3635 44.9362C17.9251 45.1858 18.5897 44.9455 18.8424 44.3909C19.0952 43.8364 18.8518 43.1802 18.2902 42.9307L18.1217 42.8567H18.1123C17.5694 42.6072 16.9236 42.829 16.6521 43.3558C16.3807 43.9011 16.6053 44.5573 17.1482 44.8346V44.8253ZM15.5757 41.4519H15.5663C15.0889 41.1376 14.4431 41.2578 14.1154 41.7199C13.7785 42.1913 13.9002 42.8475 14.3775 43.1802L14.546 43.2911C14.546 43.2911 14.5647 43.3096 14.5741 43.3096C15.0702 43.6238 15.7254 43.4852 16.0437 43.0046C16.3619 42.5148 16.2215 41.8678 15.7348 41.5536L15.585 41.4519H15.5757ZM12.0374 41.2948C12.0374 41.2948 12.0562 41.3133 12.0655 41.3133C12.4867 41.6829 13.1232 41.646 13.4977 41.2301C13.8721 40.8142 13.8346 40.1857 13.4134 39.816L13.273 39.6958H13.2637C12.8612 39.3354 12.234 39.3539 11.8596 39.7513C11.4758 40.1487 11.4945 40.7864 11.897 41.1654L12.0468 41.304L12.0374 41.2948ZM9.86584 38.9565C9.86584 38.9565 9.88456 38.9749 9.88456 38.9842C10.2215 39.3908 10.83 39.4371 11.2418 39.1043C11.6537 38.7716 11.7005 38.1709 11.3635 37.7642L11.2418 37.6163C10.9142 37.2189 10.3245 37.1542 9.922 37.4684C9.50078 37.7919 9.4259 38.3834 9.75351 38.7993L9.8752 38.9565H9.86584ZM8.078 36.3224C8.078 36.3224 8.08736 36.3409 8.09672 36.3501C8.35881 36.7753 8.92044 36.9139 9.35101 36.6551C9.78159 36.3963 9.922 35.8418 9.65991 35.4166L9.5663 35.2595C9.31357 34.8436 8.77067 34.6957 8.34945 34.936C7.90952 35.1763 7.75975 35.7216 8.00312 36.156L8.10608 36.3316L8.078 36.3224ZM6.70203 33.4665C6.70203 33.4665 6.70203 33.485 6.71139 33.4942C6.8986 33.9286 7.3947 34.132 7.83463 33.9471C8.27457 33.7623 8.4805 33.2724 8.29329 32.838L8.21841 32.6624C8.04056 32.2373 7.55382 32.0247 7.12325 32.1911C6.68331 32.3574 6.45866 32.8473 6.62715 33.2817L6.70203 33.4665ZM5.77535 30.4535C5.77535 30.4535 5.77535 30.472 5.77535 30.4812C5.88768 30.9064 6.32761 31.1652 6.75819 31.0543C7.18877 30.9433 7.45086 30.509 7.33853 30.0838L7.29173 29.899C7.18877 29.4738 6.76755 29.215 6.33697 29.3075C5.9064 29.3999 5.62559 29.825 5.71919 30.2502L5.76599 30.4443L5.77535 30.4535ZM6.81435 27.2187L6.79563 27.0338C6.75819 26.6272 6.4025 26.3314 6 26.3591C5.58814 26.3869 5.26989 26.7381 5.29797 27.154V27.3481C5.29797 27.3481 5.31669 27.3666 5.31669 27.3758C5.36349 27.7825 5.72855 28.0875 6.14977 28.0413C6.56162 27.995 6.87051 27.6346 6.82371 27.2187H6.81435ZM5.98128 24.9543C6.37441 24.9728 6.70203 24.677 6.72075 24.2889V24.104C6.73947 23.7251 6.45866 23.4016 6.07488 23.3739C5.69111 23.3461 5.35413 23.6234 5.31669 24.0116L5.29797 24.2057C5.29797 24.2057 5.29797 24.2242 5.29797 24.2334C5.27925 24.6216 5.57878 24.9451 5.97192 24.9636L5.98128 24.9543ZM5.79407 21.1095V21.128C5.71919 21.4792 5.9532 21.8212 6.30889 21.8859C6.66459 21.9598 7.01092 21.7287 7.07644 21.3775L7.11388 21.1927C7.17941 20.8507 6.96412 20.518 6.62715 20.4348C6.28081 20.3516 5.92512 20.5642 5.85023 20.9154L5.80343 21.1095H5.79407ZM6.80499 17.9486L6.73011 18.1335C6.73011 18.1335 6.73011 18.1427 6.73011 18.152C6.61778 18.4569 6.77691 18.7989 7.09516 18.9098C7.40406 19.0207 7.75039 18.8636 7.86271 18.5494L7.92824 18.3738C8.04056 18.0688 7.8908 17.736 7.59126 17.6159C7.28237 17.4957 6.93604 17.6436 6.81435 17.9486H6.80499ZM8.32137 16.0724C8.59282 16.2111 8.92044 16.1186 9.0702 15.8506L9.15445 15.6842C9.29485 15.4255 9.20125 15.102 8.94852 14.9541C8.68643 14.8062 8.34945 14.8894 8.19969 15.1482L8.09672 15.3146C8.09672 15.3146 8.09672 15.3238 8.09672 15.333C7.95632 15.6011 8.04992 15.9245 8.32137 16.0724ZM10.0062 12.5973L9.88456 12.7452C9.88456 12.7452 9.88456 12.7452 9.8752 12.7544C9.70671 12.9762 9.75351 13.2812 9.97816 13.4476C10.2028 13.614 10.5117 13.5678 10.6708 13.3459L10.7832 13.1981C10.9423 12.9855 10.9048 12.6897 10.6989 12.5234C10.4836 12.357 10.1747 12.3847 10.0062 12.5973ZM12.6365 11.1093L12.7676 10.9799C12.936 10.8135 12.9454 10.5455 12.7863 10.3699C12.6178 10.1943 12.337 10.1851 12.1591 10.3422L12.0187 10.4716C12.0187 10.4716 12.0187 10.4716 12.0094 10.4808C11.8315 10.6472 11.8315 10.9337 12.0094 11.1C12.1778 11.2757 12.468 11.2757 12.6365 11.1V11.1093ZM14.3682 9.09446C14.4992 9.27007 14.7426 9.30703 14.9204 9.17764L15.0702 9.06673C15.2387 8.93734 15.2855 8.70628 15.1638 8.53068C15.0421 8.35507 14.7988 8.30886 14.6209 8.42901L14.4618 8.53992C14.4618 8.53992 14.4618 8.53992 14.4524 8.53992C14.2746 8.66931 14.2371 8.90961 14.3682 9.08522V9.09446ZM17.1576 7.00569C16.9891 7.08887 16.9236 7.2922 17.0078 7.45857C17.092 7.62493 17.298 7.68962 17.4665 7.60644L17.6349 7.52326C17.7941 7.44008 17.8596 7.24599 17.7847 7.07963C17.7005 6.91327 17.5039 6.83933 17.3354 6.92251L17.1576 7.00569C17.1576 7.00569 17.1576 7.00569 17.1482 7.00569H17.1576ZM20.2558 5.81343L20.0686 5.86888C19.9189 5.92434 19.8346 6.08146 19.8908 6.23858C19.947 6.38646 20.1061 6.46964 20.2652 6.41418L20.4431 6.34949C20.5928 6.29403 20.6677 6.14615 20.6209 5.99828C20.5741 5.8504 20.415 5.76722 20.2558 5.81343ZM23.1763 5.64707L23.3635 5.6101C23.4852 5.58237 23.5694 5.47146 23.5507 5.34207C23.532 5.21268 23.4103 5.1295 23.2793 5.14798L23.0827 5.17571C22.9516 5.20344 22.8674 5.32359 22.8861 5.45298C22.9048 5.58237 23.0359 5.66555 23.1669 5.64707H23.1763ZM26.1997 5.3051H26.3869C26.4899 5.3051 26.5647 5.22192 26.5647 5.12025C26.5647 5.01859 26.4805 4.93541 26.3775 4.93541H26.181C26.078 4.93541 25.9938 5.02783 26.0031 5.1295C26.0125 5.23116 26.0967 5.31434 26.1997 5.3051ZM29.4665 5.17571L29.2793 5.14798C29.2044 5.14798 29.1388 5.19419 29.1295 5.26813C29.1295 5.34207 29.1763 5.40677 29.2512 5.41601L29.4384 5.43449C29.5133 5.43449 29.5788 5.39753 29.5881 5.32359C29.5975 5.24965 29.5507 5.18495 29.4758 5.17571H29.4665ZM32.4711 5.86888L32.2839 5.81343C32.2371 5.80419 32.1903 5.83192 32.181 5.87813C32.1716 5.92434 32.1997 5.97055 32.2465 5.97979L32.4337 6.026C32.4337 6.026 32.5179 6.01676 32.5367 5.97055C32.546 5.92434 32.5273 5.87813 32.4805 5.86888H32.4711ZM35.1576 6.90403C35.1388 6.90403 35.1201 6.90403 35.1108 6.92251C35.1108 6.941 35.1108 6.95948 35.1295 6.96872L35.3073 7.04266C35.3073 7.04266 35.3448 7.04266 35.3448 7.02418C35.3448 7.00569 35.3448 6.98721 35.3261 6.98721L35.1482 6.90403H35.1576ZM23.5601 48.2358C23.6724 47.5703 23.2231 46.9326 22.5398 46.8217L22.3432 46.7847H22.3245C21.6693 46.6738 21.0421 47.099 20.9111 47.7459C20.7707 48.4114 21.2106 49.0491 21.8752 49.1877L22.0998 49.2339C22.0998 49.2339 22.1279 49.2339 22.1373 49.2339C22.8112 49.3448 23.4571 48.9012 23.5694 48.2265L23.5601 48.2358ZM20.1622 47.3115C20.3682 46.7015 20.0218 46.0361 19.4041 45.842L19.2075 45.7773H19.1888C18.5897 45.5832 17.9345 45.8882 17.7192 46.4797C17.4945 47.0805 17.8128 47.7552 18.4306 47.9677L18.6459 48.0417C18.6459 48.0417 18.6739 48.0509 18.6833 48.0509C19.3011 48.2542 19.975 47.9123 20.1716 47.3023L20.1622 47.3115ZM16.9048 46.1377C17.1856 45.5925 16.961 44.9178 16.3994 44.6497L16.2215 44.5573H16.2122C15.6693 44.2893 15.014 44.4926 14.7239 45.0194C14.4243 45.5555 14.6303 46.2302 15.1732 46.5259L15.3697 46.6276C15.3697 46.6276 15.3978 46.6368 15.4072 46.6461C15.9594 46.9234 16.6427 46.7015 16.9142 46.147L16.9048 46.1377ZM13.8627 44.4834C14.1997 44.0028 14.0874 43.3466 13.6006 43.0138L13.4321 42.8937H13.4228C12.9548 42.561 12.3089 42.6626 11.9626 43.1155C11.6069 43.5776 11.7005 44.2431 12.1685 44.585L12.3463 44.7144C12.3463 44.7144 12.3651 44.7329 12.3744 44.7329C12.8612 45.0656 13.5257 44.9547 13.8627 44.4741V44.4834ZM9.65991 42.4038C9.65991 42.4038 9.67863 42.4223 9.68799 42.4316C10.0905 42.8105 10.7364 42.8013 11.1201 42.4038C11.5039 42.0064 11.4945 41.3687 11.092 40.9898L10.9423 40.8419C10.5491 40.463 9.93136 40.463 9.53822 40.8419C9.13573 41.2301 9.13573 41.8585 9.5195 42.2467L9.67863 42.4038H9.65991ZM8.883 38.596L8.76131 38.4389C8.45242 38.0322 7.87208 37.949 7.45086 38.2448C7.02964 38.5498 6.92668 39.1321 7.23557 39.5572L7.36661 39.7328C7.36661 39.7328 7.37598 39.7513 7.38534 39.7605C7.70359 40.1764 8.31201 40.2504 8.72387 39.9269C9.14509 39.6127 9.21997 39.0119 8.89236 38.6052L8.883 38.596ZM7.06708 35.9065L6.96412 35.7216C6.73011 35.2965 6.20593 35.1394 5.77535 35.3612C5.33541 35.583 5.16693 36.1191 5.39158 36.5534L5.49454 36.7475C5.49454 36.7475 5.5039 36.766 5.51326 36.7753C5.75663 37.2004 6.29953 37.3575 6.73011 37.1172C7.16069 36.8769 7.31981 36.3409 7.07644 35.9157L7.06708 35.9065ZM4.08112 33.5404C4.08112 33.5404 4.08112 33.5589 4.09048 33.5682C4.25897 33.9933 4.73635 34.2151 5.17629 34.0488C5.60686 33.8824 5.83151 33.4111 5.66303 32.9767L5.58814 32.7826C5.42902 32.3574 4.961 32.1449 4.53978 32.2835C4.09984 32.4314 3.86583 32.9027 4.0156 33.3279L4.09048 33.5312L4.08112 33.5404ZM3.18253 30.1947C3.27613 30.6106 3.68799 30.8787 4.1092 30.7862C4.53042 30.6938 4.80187 30.2871 4.70827 29.8712L4.66147 29.6679C4.56786 29.252 4.17473 28.9932 3.76287 29.0672C3.34165 29.1411 3.06084 29.5478 3.13573 29.9637L3.17317 30.1762C3.17317 30.1762 3.17317 30.1947 3.17317 30.204L3.18253 30.1947ZM2.78939 26.7104C2.78939 26.7104 2.78939 26.7288 2.78939 26.7381C2.81747 27.1355 3.16381 27.4313 3.55694 27.4035C3.95944 27.3758 4.25897 27.0338 4.23089 26.6457L4.22153 26.4331C4.19345 26.0449 3.86583 25.7492 3.48206 25.7584C3.07956 25.7676 2.77067 26.1004 2.78003 26.4885V26.7011L2.78939 26.7104ZM3.53822 23.9746C3.90328 24.0024 4.23089 23.7343 4.25897 23.3739L4.27769 23.1613C4.30577 22.8008 4.05304 22.4866 3.69735 22.4496C3.33229 22.4034 3.00468 22.6622 2.95788 23.0227L2.9298 23.2352V23.2537C2.90172 23.6142 3.17317 23.9377 3.53822 23.9654V23.9746ZM3.58502 19.8618C3.51014 20.1853 3.70671 20.5087 4.03432 20.5919C4.36193 20.6659 4.68955 20.4718 4.77379 20.1483L4.82059 19.945C4.89548 19.6215 4.70827 19.3072 4.39002 19.2241C4.0624 19.1409 3.73479 19.3257 3.64119 19.64L3.58502 19.8525V19.871V19.8618ZM4.82995 16.3867L4.74571 16.5808C4.74571 16.5808 4.74571 16.59 4.74571 16.5992C4.63339 16.8765 4.77379 17.2 5.0546 17.3109C5.33541 17.4218 5.66303 17.2832 5.77535 17.0059L5.85023 16.8118C5.96256 16.5345 5.83151 16.2295 5.56006 16.1094C5.27925 15.9892 4.961 16.1094 4.83931 16.3867H4.82995ZM6.53354 14.2147C6.76755 14.3534 7.07644 14.2702 7.21685 14.0391L7.31981 13.8543C7.45086 13.6232 7.38534 13.3367 7.16069 13.1888C6.92668 13.0409 6.62715 13.1149 6.47738 13.3367L6.36506 13.5215C6.36506 13.5215 6.36506 13.5308 6.36506 13.54C6.22465 13.7711 6.30889 14.0761 6.5429 14.2147H6.53354ZM9.09828 11.3219L9.22933 11.1555C9.3791 10.9707 9.35101 10.7119 9.17317 10.5548C8.99532 10.3976 8.71451 10.4161 8.55538 10.601L8.41498 10.7581C8.41498 10.7581 8.41498 10.7581 8.40562 10.7673C8.25585 10.9522 8.28393 11.2294 8.47114 11.3773C8.65835 11.5252 8.93916 11.4975 9.08892 11.3126L9.09828 11.3219ZM11.3822 8.90037L11.5413 8.76174C11.6911 8.6231 11.7098 8.39204 11.5694 8.24417C11.4384 8.08705 11.195 8.06856 11.0359 8.2072L10.8674 8.34583C10.8674 8.34583 10.8674 8.34583 10.858 8.34583C10.6989 8.48447 10.6895 8.72477 10.83 8.88189C10.9704 9.03901 11.2137 9.04825 11.3729 8.90961L11.3822 8.90037ZM14.0125 6.83933L14.1903 6.71918C14.3307 6.61751 14.3775 6.43267 14.2839 6.28479C14.1903 6.13691 13.9938 6.0907 13.844 6.18312L13.6568 6.29403C13.507 6.3957 13.4696 6.58979 13.5725 6.73766C13.6755 6.88554 13.8721 6.92251 14.0218 6.82085L14.0125 6.83933ZM16.6989 4.70435C16.5679 4.76905 16.5117 4.92617 16.5772 5.05556C16.6427 5.18495 16.8019 5.24041 16.9329 5.17571L17.1201 5.08329C17.2512 5.01859 17.3073 4.87071 17.2512 4.74132C17.195 4.61193 17.0359 4.54723 16.9048 4.60268L16.7083 4.68587L16.6989 4.70435ZM20.0686 3.95572L20.2746 3.89102C20.3775 3.85405 20.4431 3.75239 20.415 3.64148C20.3869 3.53057 20.2746 3.46588 20.1622 3.4936L19.9563 3.54906C19.844 3.58603 19.7785 3.69694 19.8159 3.80784C19.8534 3.91875 19.9657 3.98345 20.078 3.94648L20.0686 3.95572ZM23.3635 3.20709L23.5694 3.17936C23.6443 3.17012 23.7005 3.09618 23.6911 3.013C23.6911 2.92982 23.6069 2.87437 23.5226 2.88361L23.3073 2.91134C23.2231 2.92058 23.1669 3.00376 23.1763 3.08694C23.1856 3.17012 23.2699 3.22558 23.3541 3.21633L23.3635 3.20709ZM26.752 2.94831H26.9672C27.014 2.94831 27.0608 2.91134 27.0608 2.86512C27.0608 2.81891 27.0234 2.7727 26.9766 2.7727H26.7613C26.7051 2.7727 26.6677 2.81891 26.6677 2.86512C26.6677 2.92058 26.7145 2.95755 26.7613 2.95755L26.752 2.94831ZM30.1591 3.12391C30.1404 3.12391 30.1217 3.13315 30.1123 3.15164C30.1123 3.17012 30.1217 3.18861 30.1404 3.19785L30.3463 3.22558C30.3463 3.22558 30.3838 3.22558 30.3838 3.19785C30.3838 3.17936 30.3838 3.16088 30.3557 3.16088L30.1498 3.12391H30.1591ZM21.8658 49.5851C21.8284 49.5112 21.7816 49.4465 21.7348 49.3911C21.688 49.3356 21.6318 49.2709 21.5663 49.2247C21.4446 49.123 21.2949 49.0398 21.1357 48.9936C21.0983 48.9844 21.0515 48.9751 21.014 48.9659H21.0047L20.78 48.9197H20.7613C20.6771 48.9012 20.6022 48.892 20.5179 48.892C20.2746 48.892 20.0406 48.9567 19.844 49.0861C19.7129 49.1692 19.6006 49.2801 19.507 49.4003C19.4134 49.5297 19.3479 49.6776 19.3011 49.8347C19.2637 50.001 19.2543 50.1674 19.2824 50.3245C19.3666 50.7959 19.7223 51.2026 20.2184 51.3227L20.4618 51.3782C20.4618 51.3782 20.4899 51.3782 20.4992 51.3782C20.546 51.3782 20.5835 51.3966 20.6303 51.3966C20.9672 51.4336 21.2949 51.3227 21.5382 51.1286C21.6037 51.0824 21.6599 51.0269 21.7067 50.9622C21.8378 50.8051 21.9314 50.6203 21.9782 50.417C22.0062 50.2876 22.0062 50.1674 21.9969 50.0473C21.9969 49.9641 21.9688 49.8901 21.9501 49.807C21.922 49.733 21.8939 49.6591 21.8565 49.5851H21.8658ZM6.0468 39.474L5.91576 39.2892C5.76599 39.0766 5.56006 38.9565 5.32605 38.9195C5.26989 38.9102 5.21373 38.901 5.14821 38.901C4.97036 38.901 4.79251 38.9565 4.64275 39.0581C4.38066 39.2337 4.23089 39.5202 4.23089 39.816C4.23089 39.9916 4.27769 40.1672 4.39002 40.3336L4.53042 40.5369C4.53042 40.5369 4.53978 40.5554 4.54914 40.5646C4.69891 40.768 4.92356 40.8973 5.15757 40.9343C5.21373 40.9436 5.27925 40.9436 5.33541 40.9436C5.39158 40.9436 5.4571 40.9343 5.51326 40.9251C5.56942 40.9158 5.63495 40.8881 5.69111 40.8696C5.74727 40.8419 5.80343 40.8142 5.85023 40.7772C6.00936 40.6663 6.12169 40.5184 6.17785 40.352C6.19657 40.2966 6.21529 40.2411 6.22465 40.1764C6.26209 39.9454 6.21529 39.6958 6.05616 39.4925L6.0468 39.474ZM2.67707 33.0783L2.63963 32.9674L2.60218 32.8565C2.58346 32.8103 2.56474 32.7548 2.53666 32.7179C2.4805 32.6255 2.41498 32.5515 2.34009 32.4961C2.26521 32.4314 2.17161 32.3852 2.078 32.3574C2.0312 32.3389 1.9844 32.3297 1.92824 32.3297C1.88144 32.3297 1.82527 32.3297 1.77847 32.3297C1.72231 32.3297 1.67551 32.3482 1.61934 32.3574C1.46022 32.4036 1.32917 32.4961 1.22621 32.6162C1.19813 32.6532 1.16069 32.6994 1.14197 32.7456C1.04836 32.9212 1.02028 33.143 1.07644 33.3464L1.15133 33.5774C1.15133 33.5774 1.15133 33.5959 1.15133 33.6051C1.29173 34.021 1.75039 34.2429 2.17161 34.1042C2.27457 34.0673 2.36817 34.0118 2.45242 33.9471C2.68643 33.7438 2.78939 33.4111 2.67707 33.0968V33.0783ZM0.430577 26.5994C0.514821 26.6272 0.599064 26.6457 0.692668 26.6457C1.06708 26.6364 1.36661 26.3314 1.34789 25.9525V25.7214C1.34789 25.4996 1.22621 25.3055 1.04836 25.1854C0.945398 25.1114 0.814353 25.0745 0.683307 25.0745C0.542902 25.0745 0.411857 25.1114 0.308892 25.1854C0.234009 25.2316 0.177847 25.2963 0.121685 25.361C0.0936037 25.3979 0.074883 25.4349 0.0561622 25.4719C0.0187207 25.5551 0 25.6382 0 25.7307V25.971V25.9895C0 26.2667 0.187208 26.4978 0.430577 26.5994ZM1.52574 19.0947C1.81591 19.1779 2.1248 19.0022 2.19969 18.7157L2.26521 18.4939C2.30265 18.346 2.28393 18.2074 2.21841 18.0873C2.15289 17.9671 2.04056 17.8747 1.90016 17.8285C1.82527 17.81 1.75039 17.8007 1.68487 17.81C1.46958 17.8285 1.28237 17.9763 1.21685 18.1889L1.14197 18.42C1.14197 18.42 1.14197 18.4292 1.14197 18.4385C1.05772 18.725 1.23557 19.03 1.52574 19.1039V19.0947ZM16.2028 2.45846C16.2496 2.50467 16.3245 2.51392 16.39 2.49543L16.6053 2.40301C16.6053 2.40301 16.6427 2.38452 16.6615 2.36604C16.6895 2.33831 16.7083 2.2921 16.7083 2.25513C16.7083 2.23665 16.7083 2.20892 16.6989 2.19043C16.6802 2.14422 16.6521 2.1165 16.6147 2.09801C16.5772 2.07953 16.5304 2.07953 16.4836 2.09801L16.259 2.18119C16.1934 2.20892 16.156 2.27362 16.156 2.33831C16.156 2.3568 16.156 2.38452 16.1654 2.40301C16.1654 2.42149 16.1841 2.43998 16.2028 2.45846ZM28.1466 49.2709H28.1373L27.9126 49.2894H27.8939C27.1638 49.3633 26.6115 49.9918 26.6583 50.722C26.7051 51.4706 27.3604 52.0436 28.1092 51.9974L28.3619 51.9789C28.3619 51.9789 28.3994 51.9789 28.4087 51.9789C29.1669 51.905 29.7192 51.2395 29.6537 50.4909C29.5788 49.7423 28.9048 49.197 28.1466 49.2617V49.2709ZM24.5523 49.3633H24.5429L24.3183 49.3541H24.2995C23.5975 49.3171 22.9891 49.8347 22.9236 50.5371C22.858 51.2488 23.3916 51.8772 24.1123 51.9419L24.3651 51.9604C24.3651 51.9604 24.3931 51.9604 24.4119 51.9604C25.1326 51.9974 25.7598 51.4521 25.7972 50.7312C25.8346 50.0195 25.2824 49.4003 24.5523 49.3633ZM17.5039 47.977L17.2886 47.8938H17.2699C16.6708 47.672 16.0062 47.9585 15.7629 48.55C15.7348 48.6239 15.7067 48.6979 15.6973 48.7811C15.6225 49.16 15.7535 49.5482 16.025 49.8162C16.1373 49.9271 16.2683 50.0103 16.4181 50.075L16.6521 50.1674C16.6521 50.1674 16.6802 50.1767 16.6895 50.1859C16.7644 50.2136 16.8487 50.2321 16.9236 50.2413C16.9984 50.2506 17.0827 50.2598 17.1576 50.2506C17.2325 50.2413 17.3073 50.2321 17.3822 50.2136C17.7566 50.1212 18.0749 49.8624 18.2153 49.4742C18.3276 49.1692 18.3089 48.8458 18.1778 48.5777C18.0468 48.3097 17.8128 48.0786 17.5133 47.9677L17.5039 47.977ZM14.1997 46.5167L14.0031 46.4058H13.9938C13.6661 46.2209 13.2824 46.2209 12.9641 46.3781C12.7769 46.4705 12.6084 46.6184 12.4961 46.8124C12.4587 46.8771 12.4212 46.9418 12.4025 47.0158C12.3089 47.293 12.3276 47.5888 12.4493 47.8476C12.5148 47.977 12.5991 48.0971 12.7114 48.1895C12.7676 48.2358 12.8237 48.282 12.8986 48.3189L13.1139 48.4391C13.1139 48.4391 13.1232 48.4391 13.1326 48.4483C13.1326 48.4483 13.142 48.4483 13.1513 48.4576C13.2168 48.4945 13.2917 48.5223 13.3573 48.5408C13.4228 48.5592 13.4977 48.5777 13.5725 48.587C13.6474 48.587 13.7223 48.587 13.7878 48.587C14.1435 48.55 14.4805 48.3467 14.6677 48.0139C14.9298 47.5426 14.8081 46.9696 14.4056 46.6368C14.3495 46.5906 14.2839 46.5444 14.2184 46.5074L14.1997 46.5167ZM11.1388 44.5758L10.961 44.4372H10.9516C10.7832 44.2985 10.5866 44.2338 10.39 44.2246C10.1279 44.2061 9.85647 44.2893 9.64119 44.4556C9.58502 44.5019 9.53822 44.5481 9.49142 44.6035C9.30421 44.8253 9.22933 45.1026 9.25741 45.3706C9.25741 45.4353 9.27613 45.5 9.29485 45.5647C9.35102 45.7588 9.4727 45.9344 9.64119 46.0731L9.82839 46.2302C9.82839 46.2302 9.84711 46.2487 9.85647 46.2487C9.91264 46.2949 9.97816 46.3318 10.0437 46.3596C10.1747 46.4243 10.3058 46.452 10.4462 46.4612C10.6521 46.4705 10.858 46.4243 11.0359 46.3226C11.1576 46.2579 11.2605 46.1655 11.3541 46.0453C11.532 45.8143 11.5975 45.537 11.5601 45.269C11.5226 45.0009 11.3822 44.7514 11.1482 44.5758H11.1388ZM8.40562 42.2005L8.24649 42.0434C8.15289 41.9417 8.04992 41.8678 7.92824 41.8216C7.81591 41.7754 7.68487 41.7476 7.56318 41.7384C7.4415 41.7384 7.31045 41.7569 7.19813 41.7939C7.14197 41.8123 7.07644 41.8401 7.02964 41.877C6.97348 41.914 6.91732 41.951 6.87052 41.9972C6.72075 42.1358 6.61778 42.3022 6.57098 42.487C6.55226 42.5517 6.5429 42.6072 6.5429 42.6719C6.53354 42.9214 6.61778 43.1802 6.80499 43.3743L6.97348 43.5499C6.97348 43.5499 6.9922 43.5684 6.9922 43.5776C7.13261 43.7255 7.31981 43.8179 7.50702 43.8549C7.75975 43.9103 8.02184 43.8549 8.24649 43.7163C8.30265 43.6793 8.35881 43.6423 8.40562 43.5961C8.45242 43.5499 8.49922 43.4944 8.53666 43.439C8.79875 43.0601 8.76131 42.5425 8.42434 42.2005H8.40562ZM4.11857 36.3871L4.0156 36.1838C3.80031 35.7678 3.29485 35.6015 2.87364 35.7956C2.60218 35.925 2.4337 36.1653 2.3869 36.4425C2.35881 36.6089 2.3869 36.7753 2.46178 36.9324L2.56474 37.1542C2.56474 37.1542 2.56474 37.1727 2.5741 37.1819C2.60218 37.2374 2.63027 37.2836 2.66771 37.3298C2.84555 37.5516 3.12637 37.6718 3.40718 37.644C3.5195 37.644 3.63183 37.6071 3.73479 37.5516C3.79095 37.5239 3.83775 37.4962 3.88456 37.4592C3.97816 37.3853 4.04368 37.3021 4.09984 37.2004C4.15601 37.0987 4.18409 36.9971 4.20281 36.8862C4.22153 36.7753 4.20281 36.6644 4.17473 36.5534C4.15601 36.498 4.13729 36.4425 4.1092 36.3871H4.11857ZM1.61934 30.1023C1.67551 30.0284 1.71295 29.9359 1.73167 29.8435C1.75039 29.7511 1.75975 29.6494 1.73167 29.557L1.69423 29.3259C1.62871 28.984 1.34789 28.7344 1.01092 28.7159C0.964119 28.7159 0.917317 28.7159 0.861154 28.7159C0.814353 28.7159 0.75819 28.7344 0.711388 28.7529C0.524181 28.8176 0.383775 28.9562 0.299532 29.1226C0.234009 29.252 0.215289 29.3906 0.234009 29.5478L0.271451 29.7881C0.271451 29.7881 0.271451 29.8065 0.271451 29.8158C0.290172 29.9174 0.327613 30.0099 0.383775 30.0838C0.458658 30.204 0.570983 30.2964 0.702028 30.3518C0.833073 30.4073 0.982839 30.4258 1.13261 30.4073C1.33853 30.3703 1.50702 30.2594 1.60998 30.1023H1.61934ZM0.4961 22.6992C0.589704 22.7731 0.702028 22.8286 0.823713 22.8471C0.870515 22.8471 0.907956 22.8471 0.945398 22.8471C0.982839 22.8471 1.02964 22.8378 1.06708 22.8286C1.21685 22.7824 1.34789 22.6807 1.43214 22.5421C1.46958 22.4774 1.49766 22.3942 1.50702 22.311L1.5351 22.0799C1.55382 21.9506 1.5351 21.8396 1.47894 21.738C1.3947 21.5716 1.22621 21.4422 1.02028 21.4145C0.683307 21.3683 0.374415 21.5901 0.327613 21.9228L0.290172 22.1631C0.290172 22.1631 0.290172 22.1631 0.290172 22.1724C0.290172 22.1724 0.290172 22.1724 0.290172 22.1816C0.280811 22.2648 0.290172 22.348 0.308892 22.4219C0.346334 22.5328 0.411856 22.6345 0.4961 22.7177V22.6992ZM2.79875 15.5086C2.79875 15.5086 2.86427 15.5364 2.89236 15.5364C3.117 15.5826 3.35101 15.4717 3.44462 15.2591L3.53822 15.0465C3.64119 14.8062 3.53822 14.529 3.30421 14.418C3.24805 14.3903 3.18253 14.3718 3.117 14.3718C2.9298 14.3626 2.74259 14.4643 2.65835 14.6399L2.55538 14.8524C2.55538 14.8524 2.55538 14.8617 2.55538 14.8709C2.5273 14.9356 2.51794 14.9911 2.50858 15.0558C2.50858 15.1852 2.55538 15.3053 2.63963 15.3977C2.68643 15.4439 2.73323 15.4809 2.79875 15.5086ZM4.48362 12.0335C4.48362 12.0335 4.5585 12.1167 4.6053 12.1444C4.63339 12.1629 4.65211 12.1722 4.68019 12.1814C4.78315 12.2184 4.90484 12.2184 4.99844 12.1814C5.04524 12.1629 5.09204 12.1259 5.12949 12.089C5.14821 12.0705 5.16693 12.0428 5.18565 12.0243L5.30733 11.8302C5.30733 11.8302 5.33541 11.7747 5.34477 11.7563C5.35413 11.7378 5.36349 11.71 5.36349 11.6823C5.39158 11.5252 5.32605 11.3588 5.18565 11.2664C5.11076 11.2202 5.03588 11.1925 4.95164 11.1925C4.89548 11.1925 4.84867 11.2017 4.79251 11.2202C4.76443 11.2294 4.74571 11.2387 4.71763 11.2572C4.67083 11.2849 4.63339 11.3219 4.59594 11.3681L4.45554 11.5622C4.45554 11.5622 4.45554 11.5622 4.45554 11.5714C4.40874 11.6453 4.39002 11.7285 4.39002 11.8117C4.39002 11.8672 4.39938 11.9226 4.42746 11.9688C4.43682 11.9966 4.45554 12.015 4.4649 12.0428L4.48362 12.0335ZM6.90796 9.09446C6.90796 9.09446 6.9922 9.14991 7.02964 9.1684C7.07644 9.18688 7.12325 9.18688 7.17005 9.18688C7.21685 9.18688 7.26365 9.1684 7.30109 9.14991C7.33853 9.13143 7.38534 9.1037 7.41342 9.06673L7.56318 8.89113C7.68487 8.74325 7.67551 8.53068 7.5351 8.40129C7.46022 8.33659 7.36662 8.29962 7.28237 8.30886C7.18877 8.30886 7.10452 8.34583 7.02964 8.41977L6.87052 8.59537C6.85179 8.61386 6.84243 8.63234 6.82371 8.65083C6.78627 8.71552 6.77691 8.78022 6.77691 8.85416C6.77691 8.87264 6.77691 8.90037 6.78627 8.91886C6.80499 8.98355 6.84243 9.04825 6.8986 9.09446H6.90796ZM9.64119 6.41418C9.64119 6.41418 9.69735 6.46964 9.73479 6.48812C9.77223 6.50661 9.80967 6.51585 9.84711 6.51585C9.922 6.51585 9.99688 6.49736 10.0624 6.45115L10.2402 6.30327C10.2402 6.30327 10.2964 6.24782 10.3058 6.21085C10.3245 6.17388 10.3339 6.14615 10.3339 6.10919C10.3339 6.03525 10.3245 5.96131 10.2683 5.90585C10.2403 5.87813 10.2122 5.8504 10.1747 5.83192C10.0718 5.77646 9.95008 5.7857 9.85647 5.85964L9.66927 6.00752C9.57566 6.0907 9.54758 6.21085 9.57566 6.32176C9.58502 6.35873 9.60374 6.3957 9.63183 6.42342L9.64119 6.41418ZM12.8986 4.26996C12.8986 4.26996 12.9548 4.26996 12.9922 4.26996C13.0203 4.26996 13.0484 4.25148 13.0764 4.24223L13.273 4.12208C13.3292 4.09436 13.3573 4.0389 13.376 3.98345C13.3853 3.92799 13.376 3.87254 13.3479 3.81709C13.3011 3.7339 13.2075 3.69694 13.1232 3.70618C13.0952 3.70618 13.0671 3.71542 13.039 3.7339L12.8331 3.85405C12.805 3.87254 12.7863 3.89102 12.7676 3.91875C12.7114 3.99269 12.7114 4.09436 12.7676 4.17754C12.805 4.23299 12.8518 4.26996 12.9173 4.2792L12.8986 4.26996ZM19.9563 1.2662L20.181 1.21075C20.181 1.21075 20.209 1.2015 20.2184 1.19226C20.2465 1.16453 20.2652 1.12757 20.2558 1.0906C20.2558 1.08135 20.2559 1.06287 20.2371 1.05363C20.2184 1.03514 20.1997 1.01666 20.1716 1.01666C20.1622 1.01666 20.1435 1.01666 20.1342 1.01666L19.9002 1.07211C19.8721 1.07211 19.8534 1.09984 19.8346 1.11832C19.8253 1.14605 19.8159 1.17378 19.8253 1.2015C19.8253 1.22923 19.8534 1.24772 19.8721 1.2662C19.9002 1.27544 19.9282 1.28469 19.9563 1.27544V1.2662ZM23.6724 0.563783L23.9064 0.536056C23.9064 0.536056 23.9251 0.536056 23.9345 0.526813C23.9345 0.526813 23.9438 0.508329 23.9345 0.499086C23.9345 0.480602 23.9158 0.462117 23.897 0.462117L23.663 0.480602C23.6443 0.480602 23.6349 0.499086 23.6349 0.508329C23.6349 0.508329 23.6349 0.517571 23.6349 0.526813C23.6349 0.536056 23.6349 0.545298 23.6537 0.55454C23.6724 0.563783 23.6724 0.563783 23.6817 0.55454L23.6724 0.563783ZM34.3432 1.13681C34.4649 1.17378 34.5866 1.21075 34.6989 1.24772C34.5772 1.21075 34.4555 1.17378 34.3432 1.13681ZM27.819 0C30.1872 0.175604 32.3588 0.563783 34.3432 1.13681C34.1186 1.07211 33.9033 0.998172 33.6786 0.942718C30.571 0.12015 27.819 0 27.819 0ZM53.1201 27.3296C52.0343 44.9825 36.936 50.1397 36.2808 50.2691C36.2621 50.2691 36.2434 50.2876 36.2247 50.2968C36.2153 50.2968 36.1872 50.306 36.1778 50.3153L36 50.38C35.2418 50.6665 34.3526 50.3338 34.0343 49.5944C33.7067 48.8273 34.0718 47.9585 34.8393 47.6443H34.858L34.9142 47.6165C34.5772 47.4779 34.2964 47.2099 34.1373 46.8494C33.8565 46.1932 34.1092 45.4446 34.6989 45.0749C34.4836 44.9362 34.3058 44.7422 34.1934 44.4926C34.0624 44.2061 34.0343 43.9103 34.0905 43.6238C33.9969 43.744 33.8846 43.8549 33.7442 43.9381C33.9126 44.086 34.0437 44.2893 34.1186 44.5111C34.3432 45.2043 33.9875 45.9437 33.3042 46.2024C33.5569 46.3781 33.7442 46.6368 33.8378 46.9511C34.053 47.6905 33.6225 48.4668 32.8736 48.6794C32.8643 48.6794 32.8456 48.6794 32.8268 48.6886L32.6115 48.7441C32.6115 48.7441 32.6022 48.7441 32.5928 48.7441C32.9953 48.9105 33.3229 49.2617 33.4353 49.7145C33.6318 50.4817 33.1544 51.2488 32.3869 51.4429C32.3775 51.4429 32.3495 51.4429 32.3401 51.4521L32.1529 51.4891C31.4228 51.6462 30.6646 51.258 30.4306 50.5556C30.1685 49.7515 30.6459 48.9289 31.4509 48.7256H31.4696L31.6849 48.6702H31.6942C31.6942 48.6702 31.7129 48.6702 31.7223 48.6702C31.3292 48.5038 31.0203 48.1711 30.908 47.7367C30.7301 47.0343 31.1232 46.3226 31.8066 46.0823C31.5725 45.9159 31.3947 45.6664 31.3011 45.3706C31.1232 44.7606 31.3947 44.1322 31.9282 43.8272C31.8066 43.7163 31.7129 43.5776 31.6381 43.4205C31.7036 44.0028 31.3479 44.5481 30.7956 44.7422C30.9641 44.9178 31.0858 45.1488 31.1326 45.4076C31.2543 46.1193 30.7676 46.794 30.0468 46.9141C30.0374 46.9141 30.0187 46.9141 30 46.9141H29.9626C30.234 47.1267 30.4306 47.4409 30.4774 47.8014C30.5803 48.5315 30.0562 49.2062 29.3073 49.3079C29.298 49.3079 29.2793 49.3079 29.2605 49.3079L29.092 49.3264C28.3994 49.3911 27.7254 48.9567 27.585 48.282C27.4259 47.5056 27.9594 46.7847 28.727 46.683H28.7457L28.8019 46.6738C28.5398 46.4705 28.3619 46.1747 28.3151 45.8235C28.2309 45.1858 28.624 44.5943 29.2231 44.4094C29.0733 44.2431 28.961 44.0305 28.9236 43.781C28.8768 43.5037 28.9236 43.2264 29.0452 42.9954C28.9329 43.0878 28.8019 43.1525 28.6615 43.1987C28.7738 43.3743 28.8487 43.5684 28.858 43.781C28.8955 44.4372 28.3994 44.9917 27.7442 45.0564C27.922 45.269 28.0343 45.537 28.0437 45.8328C28.053 46.5259 27.5008 47.099 26.7988 47.1082C26.7894 47.1082 26.7707 47.1082 26.752 47.1082H26.546C26.546 47.1082 26.5367 47.1082 26.5273 47.1082C26.8362 47.3485 27.0421 47.7274 27.0328 48.1433C27.0234 48.855 26.4243 49.4188 25.7129 49.4003C25.7036 49.4003 25.6849 49.4003 25.6661 49.4003H25.4977C24.8331 49.3541 24.2527 48.8458 24.2153 48.1895C24.1685 47.4317 24.7863 46.8217 25.5257 46.8402H25.5445H25.741H25.7504C25.7504 46.8402 25.7691 46.8402 25.7785 46.8402C25.4789 46.6091 25.2824 46.2487 25.2917 45.842C25.3011 45.1858 25.8253 44.659 26.4711 44.6128C26.3027 44.4094 26.1997 44.1599 26.1997 43.8826C26.1903 43.3096 26.5741 42.829 27.1076 42.6811C27.0234 42.5425 26.9672 42.3946 26.9485 42.219C26.883 42.7551 26.4431 43.1617 25.9002 43.2079C26.0031 43.402 26.0593 43.6331 26.0312 43.8734C25.9657 44.5203 25.3853 44.9917 24.7301 44.9362C24.7208 44.9362 24.702 44.9362 24.6927 44.9362H24.6552C24.8424 45.1765 24.936 45.4908 24.8986 45.8235C24.8144 46.4797 24.1966 46.9511 23.532 46.8587C23.5226 46.8587 23.5039 46.8587 23.4945 46.8587L23.3448 46.8309C22.727 46.7293 22.2402 46.1932 22.2777 45.574C22.3151 44.8623 22.961 44.354 23.6443 44.4464H23.663H23.7098C23.532 44.2153 23.4384 43.9103 23.4852 43.5961C23.5601 43.0231 24.0468 42.6072 24.6084 42.5795C24.5148 42.3946 24.468 42.182 24.4867 41.9602C24.5148 41.7107 24.6178 41.4796 24.7769 41.304C24.6552 41.3595 24.5242 41.3872 24.3931 41.3872C24.4493 41.5628 24.468 41.7476 24.4212 41.9417C24.2995 42.524 23.7379 42.8937 23.1482 42.792C23.2512 43.0138 23.2886 43.2726 23.2231 43.5314C23.0733 44.1414 22.4555 44.5111 21.8378 44.354C21.8284 44.354 21.8097 44.354 21.8003 44.3447L21.6225 44.2985C21.6225 44.2985 21.6131 44.2985 21.6037 44.2985C21.819 44.5758 21.9126 44.9547 21.8003 45.3152C21.6225 45.9252 20.9766 46.2856 20.3588 46.1008C20.3495 46.1008 20.3307 46.1008 20.3214 46.0915L20.1716 46.0453C19.6006 45.8605 19.2169 45.2875 19.3479 44.7052C19.4883 44.0397 20.1716 43.6516 20.8081 43.8272H20.8268L21.0047 43.8826C21.0047 43.8826 21.0234 43.8919 21.0328 43.8919C20.8268 43.6238 20.7426 43.2634 20.8456 42.9122C21.0047 42.3484 21.585 42.0064 22.1654 42.1173C22.0718 41.9048 22.0343 41.6645 22.0998 41.4149C22.2215 40.9158 22.6802 40.5831 23.1763 40.5831C23.1388 40.4445 23.1295 40.2966 23.1482 40.1487C22.961 40.6016 22.4836 40.8511 22.0062 40.768C22.053 40.962 22.0437 41.1746 21.9688 41.3779C21.7629 41.9232 21.1451 42.2005 20.5928 41.9972C20.5835 41.9972 20.5647 41.9972 20.5554 41.9879H20.5273C20.6303 42.2282 20.6396 42.524 20.5273 42.8013C20.2933 43.3558 19.6568 43.6146 19.0952 43.3928C19.0858 43.3928 19.0671 43.3835 19.0577 43.3743L18.936 43.3188C18.4212 43.0878 18.131 42.5148 18.3089 41.9787C18.5148 41.3687 19.1888 41.0822 19.7691 41.3133H19.7785L19.8253 41.3317C19.7223 41.0822 19.7223 40.8049 19.8253 40.5369C20.0218 40.0563 20.546 39.8068 21.0421 39.9084C21.0047 39.7236 21.014 39.5295 21.0796 39.3446C21.1638 39.1321 21.3042 38.9565 21.4914 38.8455C21.3791 38.864 21.2574 38.864 21.1357 38.8363C21.1357 39.0027 21.117 39.169 21.0328 39.3261C20.7894 39.7975 20.209 39.9916 19.7317 39.779C19.7691 40.0008 19.7317 40.2319 19.6193 40.4445C19.3479 40.9343 18.7207 41.1192 18.2246 40.8419C18.2246 40.8419 18.2059 40.8326 18.1966 40.8234L18.0562 40.7402C18.0562 40.7402 18.0468 40.7402 18.0374 40.731C18.1591 41.0267 18.1498 41.3687 17.9719 41.6645C17.6724 42.1543 17.0265 42.3114 16.5304 42.0157C16.5304 42.0157 16.5117 42.0064 16.5023 41.9972L16.3807 41.9232C15.922 41.6275 15.7348 41.0452 15.9782 40.5646C16.259 40.0193 16.9423 39.8345 17.4571 40.1395H17.4665L17.6069 40.2319C17.6069 40.2319 17.6162 40.2504 17.6256 40.2504C17.5133 39.9639 17.5226 39.6311 17.6911 39.3539C17.9626 38.901 18.5523 38.7346 19.0203 38.9657C18.9922 38.7624 19.0203 38.5406 19.1326 38.3372C19.3573 37.9306 19.8346 37.7457 20.2652 37.8566C20.2652 37.7272 20.2839 37.5978 20.3401 37.4684C20.0686 37.8196 19.6006 37.9306 19.1981 37.7457C19.1981 37.9213 19.1326 38.1062 19.0203 38.2633C18.7114 38.6884 18.1123 38.7901 17.6724 38.4851C17.6724 38.4851 17.6537 38.4759 17.6443 38.4666L17.6256 38.4481C17.6537 38.6977 17.5975 38.9565 17.429 39.169C17.1014 39.5942 16.4743 39.6774 16.0437 39.3539C16.0437 39.3539 16.025 39.3354 16.0156 39.3354L15.9314 39.2615C15.5195 38.9287 15.4072 38.3372 15.7161 37.9121C16.0437 37.4592 16.6802 37.376 17.1201 37.7087H17.1295L17.1576 37.7457C17.1295 37.5054 17.1856 37.2651 17.3448 37.0618C17.6349 36.6921 18.1404 36.5904 18.5523 36.7937C18.5616 36.6274 18.6178 36.461 18.7207 36.3131C18.8424 36.1468 19.0109 36.0359 19.1981 35.9712C19.0952 35.9619 18.9922 35.925 18.8892 35.8788C18.8612 36.0266 18.7956 36.1653 18.6833 36.2762C18.3557 36.6366 17.8128 36.6644 17.4384 36.3686C17.4197 36.5719 17.3354 36.766 17.1856 36.9231C16.83 37.2836 16.2402 37.3021 15.8752 36.9509L15.8565 36.9324L15.7535 36.8307C15.7535 36.8307 15.7535 36.8307 15.7442 36.8215C15.7816 37.108 15.688 37.4037 15.4633 37.6163C15.0889 37.9768 14.4899 37.9675 14.1248 37.5886L14.1061 37.5701L14.0312 37.4869C13.6942 37.1172 13.6661 36.535 14.0218 36.1745C14.3963 35.7956 15.014 35.8048 15.3791 36.1745L15.4821 36.2854C15.4821 36.2854 15.4821 36.3039 15.4914 36.3039C15.454 36.0266 15.5476 35.7401 15.7629 35.5368C16.1092 35.2041 16.6521 35.1948 17.0078 35.5091C17.0265 35.3242 17.1108 35.1394 17.2512 34.9915C17.5413 34.6957 18 34.6403 18.3463 34.8344C18.3744 34.7235 18.4306 34.6126 18.5055 34.5201C18.1872 34.7604 17.7473 34.7512 17.4477 34.4924C17.4009 34.6495 17.3073 34.7882 17.1763 34.8991C16.8112 35.2041 16.259 35.1486 15.9501 34.7882C15.9501 34.7882 15.9407 34.7697 15.9314 34.7697L15.9126 34.7512C15.8846 34.973 15.7629 35.1856 15.5757 35.3335C15.1825 35.6292 14.6303 35.5553 14.3307 35.1763C14.3307 35.1763 14.3214 35.1579 14.312 35.1486L14.2559 35.0654C13.975 34.6865 14.0218 34.1412 14.3869 33.8362C14.78 33.522 15.351 33.5867 15.6505 33.9748L15.6693 34.0118C15.6973 33.7992 15.8097 33.5959 15.9969 33.4573C16.3339 33.1985 16.8019 33.2262 17.1108 33.5035C17.1576 33.3648 17.2418 33.2262 17.3729 33.1245C17.5133 33.0044 17.6911 32.9489 17.869 32.9397C17.7847 32.9027 17.7005 32.8565 17.6256 32.7918C17.5601 32.912 17.4758 33.0136 17.3541 33.0968C16.9891 33.3279 16.5023 33.2354 16.2496 32.8935C16.1841 33.0598 16.0718 33.217 15.9033 33.3186C15.5101 33.5497 14.9953 33.4295 14.7613 33.0414C14.7613 33.0414 14.752 33.0229 14.7426 33.0136L14.6771 32.9027C14.6771 32.9027 14.6771 32.8935 14.6771 32.8842C14.6396 33.143 14.4899 33.3741 14.2465 33.5127C13.8346 33.7345 13.3198 33.5867 13.0858 33.18C13.0858 33.18 13.0764 33.1615 13.0764 33.1523L13.0296 33.0598C12.8237 32.6624 12.936 32.1449 13.3292 31.9138C13.7504 31.6642 14.2746 31.8214 14.5086 32.228L14.5741 32.3482C14.5741 32.3482 14.5741 32.3667 14.5741 32.3759C14.6115 32.1264 14.752 31.9046 14.986 31.7752C15.3697 31.5626 15.8378 31.6827 16.0811 32.0339C16.1466 31.8768 16.259 31.7382 16.4181 31.6365C16.7457 31.4424 17.1482 31.4979 17.4103 31.7567C17.4665 31.6642 17.532 31.5811 17.6256 31.5164C17.298 31.655 16.9142 31.5441 16.7176 31.2483C16.6427 31.3685 16.5211 31.4794 16.3807 31.5441C15.9875 31.7197 15.5289 31.5441 15.3417 31.1652C15.3417 31.1652 15.3417 31.1467 15.3323 31.1374V31.1189C15.248 31.3038 15.0983 31.4609 14.8924 31.5441C14.4805 31.7105 14.0125 31.5164 13.844 31.1189C13.844 31.1189 13.844 31.1005 13.8346 31.0912L13.8066 31.008C13.6568 30.6106 13.8159 30.1485 14.209 29.9729C14.6209 29.7881 15.1076 29.9729 15.2761 30.3888L15.2855 30.4258C15.3604 30.2502 15.5101 30.1023 15.6973 30.0191C16.053 29.8712 16.4555 30.0099 16.6521 30.3149C16.727 30.204 16.83 30.1023 16.9704 30.0468C17.1201 29.9729 17.2886 29.9637 17.4384 30.0006C17.3729 29.9544 17.3073 29.8897 17.2605 29.8158C17.1763 29.9082 17.0733 29.9729 16.9516 30.0191C16.5772 30.1393 16.1841 29.9452 16.0437 29.5847C15.9501 29.7141 15.8097 29.825 15.6412 29.8712C15.2387 29.9821 14.8268 29.7603 14.7145 29.3629C14.7145 29.3629 14.7145 29.3444 14.7145 29.3352L14.6864 29.2243C14.6864 29.2243 14.6864 29.2243 14.6864 29.215C14.5928 29.4276 14.415 29.6032 14.1622 29.6587C13.7504 29.7603 13.3385 29.5108 13.2356 29.1041C13.2356 29.1041 13.2356 29.0856 13.2356 29.0764L13.2168 28.984C13.1326 28.5866 13.3479 28.1706 13.7504 28.0597C14.1716 27.9396 14.5928 28.1984 14.7051 28.605L14.7332 28.7252V28.7437C14.8175 28.5403 15.0047 28.374 15.2387 28.3093C15.6225 28.2169 16.0062 28.4294 16.1279 28.7899C16.2215 28.6697 16.3526 28.5681 16.5117 28.5219C16.8393 28.4294 17.1763 28.5681 17.3448 28.8546C17.4103 28.7899 17.4945 28.7344 17.5881 28.6975C17.2699 28.7437 16.961 28.5588 16.858 28.2631C16.7644 28.3555 16.6334 28.4202 16.493 28.4387C16.1092 28.5034 15.7442 28.2446 15.6786 27.8749C15.6786 27.8749 15.6786 27.8564 15.6786 27.8472V27.8287C15.5663 27.9766 15.3978 28.0782 15.2012 28.0967C14.8081 28.1522 14.4431 27.8749 14.3963 27.4867C14.3963 27.4867 14.3963 27.4682 14.3963 27.459V27.3758C14.3495 26.9969 14.6022 26.6272 14.986 26.5717C15.3885 26.507 15.7629 26.7843 15.819 27.1725V27.2094C15.9314 27.0708 16.0905 26.9784 16.2777 26.9507C16.624 26.9044 16.9329 27.117 17.0359 27.4313C17.1295 27.3481 17.2418 27.2926 17.3729 27.2649C17.4665 27.2464 17.5601 27.2557 17.6443 27.2649C17.6443 27.2187 17.6443 27.1817 17.6443 27.1447C17.5601 27.191 17.4665 27.2187 17.3635 27.2279C17.0078 27.2464 16.7083 26.9876 16.6802 26.6457C16.5679 26.7381 16.4275 26.8028 16.259 26.8028C15.8846 26.8028 15.5757 26.5163 15.5663 26.1466V26.1281V26.0172C15.5663 26.0172 15.5663 26.0172 15.5663 26.0079C15.4353 26.1743 15.2387 26.276 15.0047 26.276C14.6209 26.276 14.3214 25.9617 14.3307 25.5828V25.5643V25.4811C14.3588 25.1207 14.649 24.8064 15.014 24.7972C15.4072 24.7972 15.7161 25.1114 15.7161 25.4904V25.6013V25.6198C15.8378 25.4626 16.0343 25.361 16.259 25.361C16.6147 25.361 16.8955 25.6382 16.9236 25.9802C17.0359 25.897 17.1669 25.8416 17.3167 25.8323C17.4852 25.8323 17.6349 25.8878 17.7566 25.9895C17.7754 25.8416 17.8034 25.7029 17.8222 25.5643C17.6911 25.6937 17.5133 25.7676 17.3167 25.7492C16.9704 25.7214 16.7176 25.4164 16.7457 25.0652V25.0467V25.0283C16.6147 25.1299 16.4462 25.1761 16.2683 25.1576C15.9126 25.1114 15.6599 24.788 15.7067 24.4367V24.4183V24.3443C15.7722 24.0024 16.0811 23.7436 16.4275 23.7805C16.7925 23.8175 17.0546 24.141 17.0078 24.5014V24.5384C17.1388 24.446 17.298 24.3998 17.4665 24.4183C17.7005 24.446 17.8877 24.6031 17.9719 24.8157C17.9813 24.7787 17.9906 24.7325 18 24.6955C17.9064 24.5754 17.8596 24.409 17.8877 24.2519C17.766 24.3073 17.6256 24.3258 17.4852 24.2889C17.1576 24.2057 16.961 23.8822 17.0452 23.5587V23.5402L17.0733 23.4478C17.0733 23.4478 17.0733 23.4478 17.0733 23.4386C16.9236 23.5495 16.7176 23.5957 16.5211 23.5402C16.1934 23.4478 15.9969 23.1058 16.0998 22.7824V22.7639L16.1186 22.6899C16.2215 22.3757 16.5491 22.1724 16.8674 22.2556C17.2137 22.3387 17.4103 22.6899 17.3073 23.0134L17.2793 23.1151C17.2793 23.1151 17.2793 23.1243 17.2793 23.1336C17.429 23.0227 17.6162 22.9765 17.8128 23.0319C18.1217 23.1151 18.2995 23.4201 18.2434 23.7251C18.2527 23.7251 18.2715 23.7158 18.2808 23.7066C18.3183 23.6142 18.3463 23.5217 18.3838 23.4293C18.2715 23.2815 18.234 23.0781 18.2995 22.8933C18.2995 22.8933 18.2995 22.884 18.2995 22.8748V22.8563C18.1685 22.9118 18.0094 22.921 17.8596 22.8563C17.5601 22.7362 17.4197 22.3942 17.5413 22.1077C17.5413 22.1077 17.5413 22.0984 17.5413 22.0892L17.5694 22.0337C17.6911 21.7657 18 21.5993 18.2902 21.6918C18.6178 21.7934 18.7769 22.1539 18.6552 22.4589V22.4866C18.702 22.4681 18.7582 22.4589 18.8144 22.4496C18.8612 22.3665 18.8986 22.2833 18.9454 22.2001C18.8331 22.0337 18.8144 21.8212 18.9173 21.6456C18.9173 21.6456 18.9173 21.6363 18.9173 21.6271L18.9641 21.5531C18.805 21.6178 18.6178 21.6086 18.468 21.5162C18.2059 21.359 18.1217 21.0171 18.2808 20.7583C18.2808 20.7583 18.2808 20.749 18.2902 20.7398L18.3463 20.6566C18.5523 20.3424 19.0296 20.3054 19.2824 20.6566C19.4041 20.8322 19.4041 21.0633 19.2824 21.2389L19.2356 21.3221C19.2356 21.3221 19.2356 21.3313 19.2356 21.3406C19.3198 21.3036 19.4134 21.2943 19.507 21.3036C19.5632 21.2297 19.61 21.1557 19.6661 21.0818C19.5725 20.9062 19.5819 20.6844 19.7129 20.518C19.7129 20.518 19.7129 20.5087 19.7223 20.5087L19.7785 20.4441C19.9189 20.2684 20.1529 20.213 20.3588 20.2869C20.4243 20.213 20.4992 20.1483 20.5647 20.0744C20.4805 19.8895 20.5179 19.6677 20.6771 19.5198C20.6771 19.5198 20.6771 19.5198 20.6864 19.5106L20.752 19.4551C20.9204 19.3072 21.1544 19.2888 21.3417 19.3997C21.4259 19.335 21.5101 19.2703 21.5944 19.2056C21.5382 19.0115 21.5944 18.7989 21.7722 18.6788H21.7816L21.8565 18.6326C22.0343 18.5124 22.2683 18.5309 22.4275 18.6695C22.5304 18.6048 22.6334 18.5494 22.7364 18.4939C22.6989 18.2998 22.7925 18.1057 22.9797 18.0133H22.9891L23.064 17.9763C23.2512 17.8932 23.4665 17.9394 23.5975 18.0873C23.7192 18.0318 23.8502 17.9856 23.9719 17.9394C23.9719 17.7545 24.0842 17.5882 24.2715 17.5235H24.2808L24.3651 17.4957C24.5523 17.4403 24.7395 17.5142 24.8424 17.6621C24.9922 17.6251 25.142 17.5882 25.2917 17.5512C25.3198 17.3941 25.4509 17.2554 25.6287 17.2277H25.6381H25.7223C25.8908 17.1907 26.0499 17.2739 26.1342 17.4126C26.312 17.3941 26.4805 17.3756 26.6583 17.3571C26.7239 17.2277 26.8456 17.1353 27.0047 17.1353H27.014H27.0983C27.2481 17.1353 27.3697 17.2185 27.4353 17.3386C27.6412 17.3386 27.8378 17.3571 28.0437 17.3664C28.1186 17.2739 28.2402 17.2185 28.3713 17.237C28.3713 17.237 28.3713 17.237 28.3807 17.237H28.4649C28.5866 17.2739 28.6896 17.3479 28.7364 17.4588C28.961 17.4957 29.1856 17.542 29.4009 17.5974C29.4852 17.5327 29.5975 17.5142 29.7005 17.542C29.7005 17.542 29.7005 17.542 29.7098 17.542L29.7941 17.5697C29.897 17.6067 29.9719 17.6806 30.0094 17.773C30.2434 17.8562 30.4774 17.9394 30.702 18.041C30.7863 18.0041 30.8799 17.9948 30.9735 18.041C30.9735 18.041 30.9735 18.041 30.9828 18.041L31.0577 18.078C31.1513 18.1242 31.2075 18.2074 31.2262 18.2998C31.4509 18.42 31.6755 18.5494 31.8908 18.688C31.975 18.6603 32.0686 18.6603 32.1529 18.7157L32.2278 18.7619C32.312 18.8174 32.3588 18.9191 32.3495 19.0207C32.5367 19.1594 32.7145 19.3072 32.8924 19.4736C32.9017 19.4828 32.9111 19.5013 32.9298 19.5106C33.0234 19.4736 33.1357 19.4828 33.22 19.5568L33.2855 19.6122C33.3791 19.6954 33.3978 19.8248 33.3417 19.9265C33.5101 20.1113 33.6786 20.2869 33.8284 20.4718C33.9314 20.4256 34.0624 20.4441 34.1373 20.5365L34.1934 20.6012C34.2683 20.6936 34.259 20.823 34.1934 20.9154C34.3526 21.128 34.493 21.3313 34.6334 21.5439C34.7364 21.5069 34.8487 21.5439 34.9048 21.6363L34.9423 21.7103C34.9984 21.8027 34.9704 21.9136 34.8955 21.9875C35.0359 22.2278 35.1576 22.4681 35.2699 22.7084C35.3635 22.7084 35.4477 22.7454 35.4852 22.8378L35.5133 22.9118C35.5507 22.9949 35.5133 23.0874 35.4477 23.1428C35.5601 23.4201 35.6443 23.6881 35.7192 23.9654C35.7941 23.9746 35.8502 24.0301 35.8783 24.104L35.897 24.1872C35.9158 24.2611 35.8877 24.3351 35.8315 24.372C35.897 24.677 35.9438 24.9728 35.9719 25.2778C36.0281 25.2963 36.0749 25.3517 36.0842 25.4164V25.4996C36.0936 25.5643 36.0562 25.629 36 25.6567C36.0187 25.971 36.0094 26.2945 36 26.5994C36.0562 26.6272 36.0936 26.6734 36.0936 26.7381V26.8213C36.0842 26.886 36.0281 26.9322 35.9719 26.9507C35.9345 27.2741 35.8783 27.5884 35.8034 27.9026C35.869 27.9211 35.9064 27.9766 35.897 28.0413L35.8783 28.1244C35.8596 28.1891 35.7941 28.2353 35.7285 28.2169C35.6443 28.5403 35.532 28.8638 35.4103 29.1688C35.4197 29.1688 35.4384 29.1688 35.4477 29.1688C35.5039 29.1873 35.532 29.2428 35.5133 29.2982L35.4852 29.3722C35.4665 29.4276 35.4009 29.4461 35.3541 29.4276C35.3354 29.4276 35.3261 29.4091 35.3167 29.3999C35.3073 29.4276 35.2886 29.4553 35.2793 29.4831C35.2886 29.4553 35.298 29.4184 35.3167 29.3906C35.298 29.3629 35.2886 29.3259 35.298 29.2982L35.3261 29.2243C35.3261 29.2243 35.3729 29.1688 35.4009 29.1596C35.5226 28.8269 35.6069 28.4941 35.6724 28.1614C35.6443 28.1337 35.6349 28.0967 35.6443 28.0597L35.663 27.9766C35.663 27.9766 35.6911 27.9119 35.7285 27.8934C35.7847 27.5329 35.8128 27.1817 35.8222 26.8398C35.8222 26.8213 35.8128 26.8028 35.8222 26.7843V26.7011C35.8222 26.7011 35.8222 26.6826 35.8222 26.6734C35.8034 23.3554 33.6131 20.6197 32.6396 19.9357C29.7098 17.3571 25.3292 16.7656 22.1934 19.0854C19.1513 21.2574 18.1123 24.2242 18.131 26.9784C18.1591 29.7418 19.3198 32.3667 21.2387 34.3723C25.5819 38.9195 31.9095 38.7069 31.9095 38.7069C39.1264 39.0119 44.6958 35.1024 46.9236 29.8897C51.3042 19.0207 46.3713 5.12026 34.83 1.22923C48.7114 5.52692 53.3073 18.7804 53.0546 27.2557L53.1201 27.3296ZM17.7473 30.13C17.7473 30.13 17.8315 30.1947 17.869 30.2317C17.869 30.204 17.869 30.1762 17.8596 30.1485C17.8222 30.1485 17.7847 30.1485 17.7473 30.13ZM18.0655 31.3685C18.0655 31.3685 17.9906 31.313 17.9626 31.2853C17.9251 31.3315 17.8877 31.3777 17.8315 31.4239C17.9064 31.3962 17.9906 31.3777 18.0655 31.3777V31.3685ZM18.4587 32.9489C18.3838 32.9767 18.2995 32.9951 18.2246 33.0044C18.2808 33.0229 18.337 33.0506 18.3838 33.0876C18.4025 33.0414 18.4306 32.9951 18.4587 32.9582V32.9489ZM18.9267 34.2429C18.8799 34.2244 18.8331 34.2059 18.7863 34.1782C18.7582 34.2429 18.7301 34.3076 18.6833 34.363C18.7582 34.3076 18.8331 34.2706 18.9173 34.2429H18.9267ZM19.8159 35.8233C19.741 35.8788 19.6568 35.9157 19.5725 35.9435C19.6381 35.9435 19.7036 35.9619 19.7691 35.9804C19.7691 35.925 19.7972 35.8695 19.8159 35.8233ZM20.6958 37.071C20.6396 37.071 20.5835 37.0525 20.5273 37.0433C20.5273 37.1172 20.4992 37.1912 20.4711 37.2651C20.5367 37.1912 20.6115 37.1265 20.6864 37.071H20.6958ZM21.3417 36.8677C21.3417 36.8677 21.3136 36.8954 21.2949 36.9047C21.3042 36.9047 21.3229 36.9047 21.3323 36.9047C21.3323 36.8862 21.3323 36.8769 21.3323 36.8584L21.3417 36.8677ZM21.7254 36.2207C21.7254 36.2207 21.688 36.1468 21.6693 36.1098C21.6693 36.156 21.6693 36.2115 21.6693 36.2577C21.688 36.2392 21.7067 36.23 21.7254 36.2115V36.2207ZM22.1092 38.6977C22.1092 38.633 22.1092 38.5775 22.1092 38.5128C22.0437 38.596 21.9688 38.6607 21.8846 38.7162C21.9594 38.7069 22.0343 38.6977 22.1092 38.7069V38.6977ZM22.3619 37.9306C22.3619 37.9306 22.3339 37.9306 22.3151 37.9306C22.3151 37.949 22.3151 37.9675 22.3151 37.986C22.3339 37.9675 22.3432 37.949 22.3619 37.9306ZM25.4041 40.9528C25.4041 40.9528 25.376 40.8604 25.3666 40.8142C25.3573 40.8142 25.3385 40.8142 25.3292 40.8049C25.2824 40.8881 25.2356 40.9713 25.17 41.036C25.2449 40.999 25.3198 40.9805 25.4041 40.962V40.9528ZM27.0702 41.5536C27.0047 41.5813 26.9392 41.609 26.8736 41.6275C26.9111 41.7107 26.9392 41.8031 26.9579 41.8955C26.9766 41.7754 27.014 41.6645 27.0702 41.5536ZM29.5975 42.4408C29.5507 42.3761 29.5133 42.3114 29.4852 42.2467C29.4665 42.3669 29.429 42.487 29.3729 42.5979C29.4477 42.5425 29.5226 42.487 29.5975 42.4501V42.4408ZM31.5538 42.6257C31.4977 42.6719 31.4415 42.7088 31.376 42.7458C31.4415 42.829 31.4977 42.9122 31.5351 43.0138C31.5164 42.8844 31.5351 42.7458 31.5538 42.6257ZM32.0218 41.8586C32.0218 41.8586 31.9938 41.8308 31.9844 41.8216C31.9844 41.8493 31.9844 41.8678 31.9844 41.8955C31.9938 41.8863 32.0125 41.877 32.0218 41.8586ZM34.0343 41.951C34.0343 41.951 34.0343 41.8955 34.0343 41.8678C34.025 41.877 34.0062 41.8955 33.9969 41.9048C34.0156 41.9232 34.025 41.9417 34.0437 41.9602L34.0343 41.951ZM34.5304 42.8475C34.4649 42.8013 34.4087 42.7366 34.3526 42.6811C34.3619 42.8105 34.3526 42.9399 34.3339 43.0601C34.39 42.9861 34.4555 42.9122 34.5211 42.8475H34.5304ZM34.8768 30.4535L34.8393 30.5274C34.8393 30.5274 34.8393 30.5367 34.8393 30.5459C34.39 31.313 33.8471 32.0062 33.2668 32.5977C33.5944 32.2742 33.8752 31.9415 34.1373 31.618C34.1186 31.6458 34.1279 31.6735 34.1466 31.692C34.1747 31.7105 34.2122 31.7105 34.2309 31.692L34.2871 31.6273C34.3058 31.5996 34.2964 31.5626 34.2777 31.5441C34.2496 31.5256 34.2215 31.5349 34.2028 31.5533C34.4462 31.2299 34.6615 30.9156 34.8487 30.5921C34.8487 30.6106 34.8674 30.6291 34.8861 30.6384C34.9236 30.6568 34.9704 30.6383 34.9984 30.6106L35.0359 30.5367C35.0546 30.4997 35.0359 30.4535 34.9984 30.4258C34.9797 30.4258 34.961 30.4165 34.9423 30.4258C35.1014 30.13 35.2418 29.8435 35.3635 29.5478C35.2324 29.8528 35.0827 30.1485 34.9142 30.435C34.9048 30.435 34.8955 30.4535 34.8861 30.4627L34.8768 30.4535ZM33.3136 32.6439L33.3697 32.5885C33.3885 32.57 33.3885 32.5515 33.3697 32.533C33.351 32.5145 33.3323 32.5145 33.3136 32.533L33.2574 32.5885C33.2574 32.5885 33.2387 32.6255 33.2574 32.6347C33.2668 32.6532 33.2949 32.6532 33.3042 32.6347L33.3136 32.6439ZM61.6474 3.89102V28.7529H77.9064V26.8028H64.9236V16.3959H76.0718V14.76H64.9236V5.8504H77.9064V3.90027H61.6474V3.89102ZM103.591 3.89102V22.8933H103.451L83.4852 3.46588H83.3073V28.7529H84.9641V9.75067H85.1045L105.07 29.1781H105.248V3.89102H103.591ZM115.32 3.89102V28.7529H118.596V3.89102H115.32ZM151.582 17.6714H144.496V19.1316H148.521V25.5643C147.435 26.2482 146.331 26.7566 145.208 27.0893C144.075 27.422 142.793 27.5884 141.351 27.5884C139.451 27.5884 137.794 27.3019 136.381 26.7381C134.967 26.1743 133.788 25.3795 132.852 24.372C131.916 23.3646 131.214 22.1724 130.746 20.786C130.278 19.3997 130.044 17.8839 130.044 16.2203C130.044 14.5567 130.268 13.0872 130.708 11.71C131.148 10.3329 131.813 9.14991 132.702 8.16098C133.591 7.16281 134.677 6.3957 135.959 5.8504C137.242 5.3051 138.739 5.03707 140.434 5.03707C141.557 5.03707 142.615 5.15722 143.598 5.38828C144.58 5.62858 145.46 5.93358 146.228 6.31252C146.995 6.69145 147.622 7.12584 148.119 7.60644C148.605 8.09629 148.924 8.58613 149.073 9.07598H151.666C151.451 8.5584 151.086 7.9669 150.571 7.31993C150.056 6.67297 149.354 6.06297 148.465 5.48995C147.576 4.91692 146.48 4.44556 145.17 4.04814C143.86 3.65997 142.324 3.46588 140.546 3.46588C138.505 3.46588 136.633 3.75239 134.92 4.31617C133.207 4.8892 131.729 5.70252 130.474 6.76539C129.229 7.82826 128.256 9.14067 127.563 10.6934C126.871 12.2461 126.524 14.0021 126.524 15.9708C126.524 17.6529 126.796 19.2795 127.339 20.8507C127.881 22.4219 128.705 23.836 129.828 25.0745C130.942 26.3222 132.365 27.3111 134.097 28.0597C135.828 28.8084 137.888 29.1781 140.293 29.1781C142.09 29.1781 143.691 28.984 145.086 28.5958C146.48 28.2076 147.632 27.7732 148.549 27.3019V28.7622H151.61V17.6806L151.582 17.6714ZM160.502 3.89102H158.059V28.7529H159.641V8.47522H159.782L170.902 29.1873H171.548L182.911 8.6231H183.051V28.7529H186.328V3.89102H183.847L172.193 25.2408H172.053L160.502 3.89102ZM208.961 21.4422L212.415 28.7622H215.906L204.178 3.90027H202.381L191.729 28.7622H193.385L196.549 21.4422H208.961ZM208.203 19.8433H197.232L202.409 7.87447H202.549L208.193 19.8433H208.203ZM67.4977 43.2634L70.2964 47.5149H71.9719L69.2293 43.2357C69.9501 43.1247 70.5398 42.8105 70.9891 42.3022C71.4384 41.7939 71.663 41.1931 71.663 40.5092C71.663 39.6589 71.3822 38.9934 70.8112 38.5128C70.2403 38.0322 69.454 37.7919 68.4431 37.7919H61.6474V47.5149H63.1919V43.2634H67.4883H67.4977ZM63.2012 39.1968H68.4431C68.9766 39.1968 69.3791 39.3077 69.6599 39.5295C69.9407 39.7513 70.0811 40.0748 70.0811 40.5092C70.0811 40.9436 69.9407 41.2578 69.6599 41.4889C69.3791 41.7199 68.9766 41.8308 68.4431 41.8308H63.2012V39.1968ZM90.908 47.5149V46.11H82.7738V43.0323H87.8378V41.6275H82.7738V39.1968H90.4774V37.7734H81.22V47.5149H90.908ZM101.626 47.4224C102.571 47.6905 103.516 47.8291 104.471 47.8291C105.763 47.8291 106.821 47.5241 107.635 46.9141C108.449 46.3041 108.852 45.537 108.852 44.622C108.852 43.5869 108.449 42.8105 107.654 42.2837C106.858 41.7569 105.669 41.4981 104.097 41.4981C102.964 41.4981 102.168 41.4057 101.71 41.2208C101.251 41.036 101.027 40.731 101.027 40.2966C101.027 39.8622 101.251 39.5387 101.71 39.2799C102.168 39.0212 102.768 38.8918 103.516 38.8918C104.162 38.8918 104.846 39.0027 105.548 39.2245C106.259 39.4463 106.914 39.7698 107.532 40.1764L108.309 38.9102C107.569 38.4481 106.802 38.0969 106.006 37.8566C105.211 37.6163 104.387 37.5054 103.535 37.5054C102.29 37.5054 101.307 37.7642 100.568 38.2725C99.8284 38.7808 99.4633 39.4555 99.4633 40.2966C99.4633 41.1931 99.8003 41.8401 100.465 42.2282C101.129 42.6164 102.365 42.8198 104.162 42.8475C105.229 42.8752 106.006 43.0323 106.493 43.3004C106.989 43.5684 107.232 43.9843 107.232 44.5388C107.232 45.0934 106.961 45.5462 106.427 45.9067C105.885 46.2579 105.183 46.4335 104.303 46.4335C103.573 46.4335 102.805 46.3041 102 46.0546C101.195 45.805 100.456 45.4538 99.7816 45.0009L99.0328 46.2764C99.819 46.7755 100.68 47.1544 101.626 47.4224ZM119.953 47.5149V37.7457H118.381V47.5149H119.953ZM130.147 37.7734V47.5149H134.527C136.175 47.5149 137.485 47.0712 138.449 46.1932C139.413 45.3152 139.9 44.1414 139.9 42.6719C139.9 41.2023 139.404 40.0378 138.421 39.1321C137.438 38.2263 136.137 37.7642 134.527 37.7642H130.147V37.7734ZM137.279 40.1487C137.972 40.7957 138.318 41.6275 138.318 42.6626C138.318 43.6978 137.981 44.5666 137.317 45.1858C136.643 45.805 135.725 46.1193 134.555 46.1193H131.7V39.1783H134.555C135.679 39.1783 136.587 39.5018 137.279 40.1487ZM158.789 47.5241V46.1193H150.655V43.0416H155.719V41.6367H150.655V39.206H158.359V37.7827H149.101V47.5241H158.789ZM169.301 47.5241V40.7033L175.563 47.5241H176.368V37.7827H174.852V44.6313L168.58 37.7827H167.775V47.5241H169.301ZM195.725 44.2985C195.22 45.0194 194.63 45.5555 193.956 45.8974C193.282 46.2394 192.515 46.415 191.635 46.415C190.381 46.415 189.332 46.0638 188.499 45.3522C187.666 44.6405 187.254 43.7532 187.254 42.6811C187.254 41.609 187.666 40.7125 188.499 40.0101C189.332 39.2984 190.371 38.9472 191.635 38.9472C192.449 38.9472 193.189 39.0951 193.863 39.4001C194.527 39.6958 195.07 40.1302 195.473 40.6848L196.699 39.8437C196.156 39.1136 195.454 38.5498 194.574 38.1524C193.694 37.7549 192.721 37.5516 191.635 37.5516C189.903 37.5516 188.471 38.0415 187.357 39.0212C186.234 40.0008 185.672 41.2301 185.672 42.7273C185.672 44.2246 186.234 45.4446 187.357 46.415C188.481 47.3855 189.903 47.8661 191.635 47.8661C192.796 47.8661 193.835 47.635 194.752 47.1729C195.66 46.7108 196.399 46.0453 196.961 45.1673L195.725 44.3263V44.2985ZM216 47.5241V46.1193H207.866V43.0416H212.93V41.6367H207.866V39.206H215.569V37.7827H206.312V47.5241H216Z" fill="#001E49"/>
</svg>
