<svg width="38" height="38" viewBox="0 0 38 38" fill="none" xmlns="http://www.w3.org/2000/svg">
<path d="M18.508 27.7772C18.5137 27.8056 18.5194 27.834 18.5308 27.8624C18.4795 27.8738 18.4339 27.8909 18.3884 27.9079C18.4282 27.8624 18.4567 27.817 18.4852 27.7658C18.4909 27.7658 18.5023 27.7658 18.508 27.7715V27.7772ZM16.0584 25.3785C16.0584 25.3785 16.0584 25.3614 16.0584 25.3501C16.047 25.3557 16.0413 25.3671 16.0299 25.3728C16.0356 25.3728 16.047 25.3728 16.0527 25.3728L16.0584 25.3785ZM19.4765 28.4479C19.4879 28.374 19.5106 28.3058 19.5448 28.2376C19.5049 28.2546 19.4651 28.2717 19.4252 28.2831C19.448 28.3342 19.4651 28.3911 19.4765 28.4479ZM16.3888 26.4869C16.4344 26.4812 16.4799 26.4755 16.5255 26.4812C16.5255 26.4414 16.5255 26.4073 16.5255 26.3675C16.4856 26.4187 16.4401 26.4585 16.3888 26.4926V26.4869ZM16.2521 24.9806C16.2521 24.9806 16.2749 24.9635 16.2862 24.9522C16.2749 24.9294 16.2635 24.9067 16.2521 24.884C16.2521 24.9124 16.2521 24.9465 16.2521 24.9749V24.9806ZM23.9655 29.1584C23.9997 29.1129 24.0396 29.0675 24.0795 29.0277C24.0396 28.9993 24.0054 28.9595 23.9712 28.9254C23.9769 29.0049 23.9712 29.0845 23.9598 29.1584H23.9655ZM23.7548 28.4479C23.7548 28.4479 23.7719 28.4706 23.7832 28.482C23.7832 28.465 23.7832 28.4479 23.7832 28.4309C23.7775 28.4365 23.7662 28.4479 23.7605 28.4536L23.7548 28.4479ZM22.5356 28.4422C22.5356 28.4422 22.5527 28.4309 22.5584 28.4195C22.5527 28.4138 22.5413 28.4024 22.5356 28.3967C22.5356 28.4138 22.5356 28.4252 22.5356 28.4422ZM22.2622 29.1357C22.2508 29.0561 22.2622 28.9708 22.2736 28.8969C22.2394 28.9254 22.2052 28.9481 22.1654 28.9708C22.2052 29.022 22.2394 29.0732 22.2622 29.1357ZM20.9405 28.8742C20.9861 28.8401 21.0317 28.806 21.0773 28.7833C21.0488 28.7435 21.026 28.7037 21.0089 28.6639C20.9975 28.7378 20.9747 28.8117 20.9405 28.8799V28.8742ZM16.6508 26.0378C16.6508 26.0378 16.6679 26.0151 16.6793 26.0037C16.6736 26.0037 16.6622 26.0037 16.6508 26.0037C16.6508 26.0151 16.6508 26.0265 16.6508 26.0378ZM13.9221 21.9964C13.9676 21.9794 14.0189 21.968 14.0645 21.968C14.0417 21.951 14.0189 21.9339 14.0018 21.9168C13.979 21.9453 13.9563 21.9737 13.9221 22.0021V21.9964ZM13.9449 21.2632C13.9449 21.2632 13.9449 21.2291 13.9392 21.212C13.9164 21.212 13.8936 21.212 13.8708 21.2006C13.8993 21.2177 13.9221 21.2404 13.9449 21.2632ZM15.5286 25.5888C15.5685 25.5433 15.614 25.5035 15.6596 25.4694C15.6254 25.4694 15.5912 25.4581 15.5571 25.4524C15.5571 25.4978 15.54 25.5433 15.5229 25.5888H15.5286ZM15.1013 24.7987C15.1013 24.7646 15.1184 24.7305 15.1298 24.7021C15.0842 24.7362 15.033 24.7589 14.9817 24.776C15.0216 24.776 15.0614 24.7873 15.1013 24.7987ZM14.2582 23.0139C14.2582 23.0139 14.2867 22.957 14.3038 22.9343C14.2582 22.9514 14.2069 22.9627 14.1613 22.9684C14.1955 22.9798 14.2297 22.9968 14.2582 23.0196V23.0139ZM14.4462 23.7983C14.4918 23.7642 14.5373 23.7415 14.5886 23.7244C14.5601 23.713 14.5316 23.7017 14.5031 23.6846C14.4861 23.7244 14.469 23.7642 14.4405 23.7983H14.4462ZM15.2836 15.113L15.3178 15.0732C15.426 14.9367 15.4146 14.7378 15.2836 14.6241C15.1469 14.5048 14.9475 14.5161 14.8279 14.6525L14.788 14.698C14.788 14.698 14.788 14.7037 14.7823 14.7037C14.6684 14.8401 14.6854 15.0447 14.8279 15.1584C14.9646 15.2721 15.1697 15.2551 15.2836 15.113ZM15.8647 14.4991L15.9046 14.4593C16.0299 14.3456 16.0413 14.158 15.933 14.0273C15.8248 13.8966 15.6254 13.8795 15.5001 13.9875L15.4545 14.0273C15.4545 14.0273 15.4545 14.0273 15.4488 14.033C15.3235 14.1467 15.3121 14.3456 15.426 14.4706C15.54 14.5957 15.7394 14.6071 15.8647 14.4934V14.4991ZM16.2692 13.4475L16.2179 13.4759H16.2122C16.0755 13.5669 16.0413 13.7488 16.1267 13.8852C16.2179 14.0216 16.4002 14.0557 16.5369 13.9704L16.5825 13.942C16.7135 13.8511 16.7534 13.6749 16.6679 13.5441C16.5825 13.4077 16.4002 13.3622 16.2635 13.4475H16.2692ZM17.2775 13.5555L17.3231 13.5328C17.4598 13.4702 17.5225 13.3111 17.4598 13.169C17.3971 13.0269 17.2376 12.9587 17.0952 13.0212L17.0439 13.0439C17.0439 13.0439 17.0382 13.0439 17.0325 13.0439C16.8901 13.1065 16.8331 13.277 16.8958 13.4134C16.9585 13.5555 17.1294 13.6123 17.2661 13.5498L17.2775 13.5555ZM18.075 13.2542L18.1263 13.2372C18.263 13.1974 18.3428 13.0553 18.3086 12.9189C18.2744 12.7768 18.1263 12.6915 17.9896 12.7313L17.9326 12.7484C17.9326 12.7484 17.9269 12.7484 17.9212 12.7484C17.7788 12.7881 17.6991 12.9359 17.7389 13.078C17.7788 13.2201 17.9269 13.2997 18.0693 13.2599L18.075 13.2542ZM18.9068 12.5722H18.8498L18.8441 12.5778C18.7074 12.5949 18.6105 12.7199 18.6276 12.8564C18.6447 12.9928 18.7701 13.0894 18.9068 13.0724L18.9581 13.0667C19.0891 13.0496 19.1859 12.9303 19.1688 12.7938C19.1574 12.6574 19.0321 12.5551 18.8954 12.5722H18.9068ZM19.8354 12.5494H19.7784C19.7784 12.5494 19.7784 12.5494 19.7727 12.5494C19.6417 12.5494 19.5391 12.6517 19.5334 12.7825C19.5277 12.9132 19.636 13.0155 19.767 13.0212H19.8183C19.9436 13.0212 20.0461 12.9246 20.0518 12.7995C20.0575 12.6688 19.9607 12.5608 19.8297 12.5551L19.8354 12.5494ZM20.6215 13.0837L20.6728 13.0951C20.7867 13.1121 20.9007 13.0382 20.9234 12.9246C20.9462 12.8052 20.8722 12.6915 20.7525 12.6688L20.6956 12.6574C20.6956 12.6574 20.6956 12.6574 20.6899 12.6574C20.5702 12.6404 20.4563 12.7199 20.4392 12.8393C20.4221 12.9587 20.5019 13.0724 20.6215 13.0894V13.0837ZM21.6469 12.9132L21.59 12.8961C21.59 12.8961 21.59 12.8961 21.5843 12.8961C21.476 12.862 21.3621 12.9189 21.3279 13.0269C21.2937 13.1349 21.3507 13.2486 21.4589 13.2827L21.5102 13.2997C21.6128 13.3338 21.7267 13.277 21.7666 13.1747C21.8065 13.0667 21.7495 12.953 21.6412 12.9132H21.6469ZM22.2622 13.601L22.3135 13.6237C22.4046 13.6692 22.5129 13.6351 22.5641 13.5441C22.6154 13.4532 22.5812 13.3395 22.4844 13.2884L22.4331 13.2599C22.3363 13.2145 22.2223 13.2542 22.1767 13.3452C22.1312 13.4418 22.171 13.5555 22.2622 13.601ZM23.2136 13.7544C23.1338 13.6976 23.0256 13.7203 22.9686 13.7999C22.9116 13.8795 22.9344 13.9875 23.0142 14.0443L23.0597 14.0784C23.1338 14.1353 23.242 14.1182 23.299 14.0387C23.356 13.9591 23.3389 13.8511 23.2648 13.7942L23.2193 13.7601L23.2136 13.7544ZM23.9086 14.3513C23.8459 14.2888 23.7434 14.2944 23.6807 14.357C23.618 14.4195 23.6237 14.5218 23.6864 14.5843L23.7263 14.6241C23.7889 14.681 23.8858 14.681 23.9485 14.6241C24.0111 14.5616 24.0111 14.4593 23.9485 14.4024L23.9086 14.3626V14.3513ZM24.2789 15.221L24.313 15.2664C24.3586 15.329 24.4498 15.3403 24.5124 15.2948C24.5751 15.2494 24.5922 15.1584 24.5409 15.0959L24.5067 15.0504C24.4555 14.9879 24.3643 14.9765 24.3017 15.0277C24.239 15.0788 24.2276 15.1698 24.2789 15.2323V15.221ZM24.9967 15.8121C24.9625 15.7496 24.8827 15.7268 24.8201 15.7609C24.7574 15.795 24.7346 15.8746 24.7688 15.9372L24.7973 15.9883C24.8315 16.0508 24.9055 16.0736 24.9682 16.0395C25.0308 16.0054 25.0536 15.9258 25.0251 15.8633L24.9967 15.8121ZM25.31 16.8466C25.367 16.8239 25.4011 16.7613 25.3783 16.7045L25.3613 16.6534C25.3385 16.5965 25.2701 16.5624 25.2131 16.5851C25.1562 16.6079 25.122 16.6761 25.1448 16.7329L25.1619 16.7841C25.1847 16.8409 25.2473 16.8693 25.3043 16.8523L25.31 16.8466ZM25.4011 17.5628L25.4125 17.6197C25.4239 17.6708 25.4752 17.7049 25.5265 17.6992C25.5777 17.6879 25.6176 17.6367 25.6062 17.5855L25.5948 17.5287C25.5834 17.4775 25.5322 17.4434 25.4752 17.4548C25.4239 17.4662 25.3897 17.5173 25.4011 17.5742V17.5628ZM25.7031 18.478V18.4211C25.7031 18.3756 25.6575 18.3415 25.6119 18.3415C25.5663 18.3415 25.5322 18.387 25.5322 18.4325V18.4893C25.5322 18.5348 25.572 18.5689 25.6176 18.5689C25.6632 18.5689 25.7031 18.5291 25.6974 18.4836L25.7031 18.478ZM25.5322 19.3135V19.3704C25.5322 19.4101 25.555 19.4386 25.5948 19.4443C25.6347 19.4443 25.6689 19.4215 25.6689 19.3817V19.3249H25.6746C25.6746 19.2851 25.6461 19.251 25.6119 19.251C25.572 19.251 25.5379 19.2794 25.5379 19.3135H25.5322ZM25.4011 20.1889L25.3897 20.24C25.384 20.2685 25.4011 20.2969 25.4296 20.3026C25.4581 20.3082 25.4866 20.2912 25.498 20.2628L25.5151 20.2059C25.5208 20.1775 25.5037 20.1491 25.4752 20.1377C25.4467 20.132 25.4182 20.1491 25.4068 20.1775L25.4011 20.1889ZM25.1904 21.1154L25.2131 21.0642C25.2188 21.0415 25.2131 21.0188 25.1904 21.0131C25.1676 21.0074 25.1448 21.0131 25.1391 21.0358L25.1163 21.087C25.1163 21.087 25.1163 21.1268 25.1391 21.1381C25.1562 21.1495 25.1847 21.1381 25.1904 21.1154ZM24.7289 21.8827C24.7289 21.8827 24.7289 21.9112 24.7346 21.9168C24.746 21.9225 24.7631 21.9168 24.7688 21.9112L24.7973 21.8657C24.803 21.8543 24.7973 21.8373 24.7859 21.8316C24.7745 21.8259 24.7574 21.8316 24.7517 21.843L24.7232 21.8884L24.7289 21.8827ZM24.2219 22.616V22.6274H24.2333L24.2675 22.5876V22.5762H24.2561L24.2219 22.6217V22.616ZM13.4435 16.2043C13.6258 16.2896 13.8366 16.2043 13.9221 16.0281L13.9449 15.9713C14.0246 15.7894 13.9506 15.5847 13.7797 15.4938C13.6031 15.4028 13.3866 15.4767 13.2954 15.6529L13.2669 15.7098C13.2669 15.7098 13.2669 15.7155 13.2669 15.7212C13.1815 15.903 13.2669 16.1134 13.4435 16.1986V16.2043ZM14.3721 15.2039L14.4063 15.1527C14.5088 14.9936 14.469 14.789 14.3152 14.681C14.1613 14.573 13.9449 14.6128 13.8366 14.7662L13.7967 14.8174C13.7967 14.8174 13.7967 14.8231 13.791 14.8287C13.6885 14.9879 13.7341 15.1982 13.8936 15.3062C14.0531 15.4085 14.2639 15.3631 14.3721 15.2039ZM14.9418 14.4536L14.9817 14.4081C15.0956 14.2717 15.0899 14.0728 14.9589 13.9534C14.8279 13.8283 14.6228 13.834 14.4975 13.9648L14.4519 14.0102C14.4519 14.0102 14.4519 14.0159 14.4462 14.0159C14.3265 14.1523 14.3379 14.357 14.4747 14.4763C14.6114 14.5957 14.8165 14.5843 14.9361 14.4479L14.9418 14.4536ZM15.2266 13.3111C15.2266 13.3111 15.2209 13.3111 15.2209 13.3168C15.0899 13.4248 15.0728 13.6237 15.1811 13.7544C15.2893 13.8852 15.4887 13.9022 15.6197 13.7942L15.6653 13.7544C15.7906 13.6464 15.8134 13.4589 15.7109 13.3225C15.6083 13.186 15.4089 13.1633 15.2779 13.2713L15.2266 13.3111ZM16.1438 12.7029L16.0869 12.737C16.0869 12.737 16.0812 12.737 16.0755 12.737C15.9387 12.8223 15.8932 13.0041 15.9786 13.1406C16.0641 13.277 16.2464 13.3225 16.3831 13.2372L16.4344 13.2031C16.5711 13.1178 16.6167 12.9473 16.5369 12.8052C16.4572 12.6631 16.2806 12.6119 16.1381 12.6915L16.1438 12.7029ZM17.2319 12.8052L17.2889 12.7825C17.4256 12.7256 17.494 12.5665 17.4427 12.43C17.3857 12.2879 17.2262 12.2141 17.0838 12.2709L17.0211 12.2936C17.0211 12.2936 17.0154 12.2936 17.0097 12.2936C16.8673 12.3505 16.799 12.5153 16.8616 12.6574C16.9186 12.7995 17.0838 12.8677 17.2262 12.8052H17.2319ZM18.132 12.4983L18.189 12.4812C18.3257 12.4471 18.4112 12.3107 18.377 12.1743C18.3485 12.0322 18.2061 11.9469 18.0693 11.9753L18.0067 11.9867C18.0067 11.9867 18.001 11.9867 17.9953 11.9867C17.8529 12.0208 17.7731 12.1629 17.8073 12.305C17.8415 12.4471 17.9839 12.5267 18.1263 12.4926L18.132 12.4983ZM19.3568 12.0606C19.3454 11.9242 19.2315 11.8275 19.0948 11.8332H19.0321H19.0264C18.8897 11.8446 18.7928 11.964 18.8099 12.1004C18.8213 12.2368 18.941 12.3334 19.0777 12.3164L19.1347 12.3107C19.2657 12.2993 19.3625 12.1856 19.3511 12.0549L19.3568 12.0606ZM20.0974 12.2993C20.217 12.2993 20.3253 12.2141 20.331 12.089C20.3424 11.9639 20.2455 11.856 20.1259 11.8446H20.0632C20.0632 11.8446 20.0632 11.8446 20.0575 11.8389C19.9322 11.8332 19.824 11.9298 19.8183 12.0549C19.8126 12.1799 19.9094 12.2879 20.0347 12.2936H20.0974V12.2993ZM20.9861 12.4073L21.0431 12.4187C21.1513 12.4414 21.2653 12.3732 21.288 12.2595C21.3165 12.1458 21.2425 12.0322 21.1342 12.0094L21.0716 11.9924C21.0716 11.9924 21.0716 11.9924 21.0659 11.9924C20.9519 11.9696 20.838 12.0435 20.8152 12.1572C20.7924 12.2709 20.8665 12.3846 20.9804 12.4073H20.9861ZM22.1084 12.322L22.0514 12.2993C22.0514 12.2993 22.0514 12.2993 22.0457 12.2993C21.9432 12.2652 21.8349 12.3164 21.7951 12.413C21.7609 12.5153 21.8121 12.6233 21.909 12.6631L21.966 12.6858C22.0628 12.7199 22.171 12.6745 22.2109 12.5778C22.2508 12.4812 22.2052 12.3675 22.1027 12.3277L22.1084 12.322ZM22.7236 12.8109C22.6781 12.8961 22.7065 13.0041 22.7977 13.0496L22.849 13.078C22.9344 13.1235 23.037 13.0951 23.0825 13.0155C23.1338 12.9303 23.1053 12.8223 23.0199 12.7768L22.9629 12.7427C22.8775 12.6972 22.7692 12.7256 22.7236 12.8166V12.8109ZM23.8117 13.3111C23.7434 13.2599 23.6408 13.2713 23.5839 13.3452C23.5326 13.4191 23.544 13.5157 23.618 13.5726L23.6693 13.6123C23.7377 13.6635 23.8345 13.6521 23.8915 13.5839C23.9485 13.5157 23.9371 13.4134 23.8687 13.3622L23.8174 13.3225L23.8117 13.3111ZM24.5979 14.0443L24.5523 13.9989C24.4953 13.942 24.4042 13.942 24.3472 13.9989C24.2903 14.0557 24.2903 14.1467 24.3472 14.2035L24.3871 14.249C24.4384 14.3058 24.5295 14.3058 24.5865 14.2547C24.6435 14.2035 24.6492 14.1125 24.5922 14.05L24.5979 14.0443ZM25.1904 15.0163C25.2473 14.9765 25.2644 14.897 25.2245 14.8401L25.1904 14.789C25.1505 14.7321 25.0707 14.7207 25.0138 14.7605C24.9568 14.8003 24.9454 14.8799 24.9853 14.9367L25.0194 14.9879C25.0593 15.0447 25.1334 15.0561 25.1904 15.022V15.0163ZM25.498 15.7609L25.5265 15.8178C25.555 15.8689 25.6176 15.8917 25.6689 15.8689C25.7259 15.8405 25.7486 15.778 25.7202 15.7212L25.6917 15.6643C25.6632 15.6075 25.5948 15.5904 25.5436 15.6188C25.4866 15.6473 25.4695 15.7155 25.498 15.7666V15.7609ZM26.0848 16.659L26.0677 16.5965C26.0506 16.5454 25.9993 16.5226 25.948 16.5397C25.8968 16.5567 25.874 16.6079 25.8911 16.659L25.9082 16.7159C25.9252 16.7613 25.9765 16.7898 26.0221 16.7727C26.0734 16.7557 26.1018 16.7045 26.0848 16.659ZM26.2044 17.5117C26.1645 17.5173 26.136 17.5571 26.1417 17.6026L26.1531 17.6651C26.1588 17.7049 26.1987 17.7333 26.2386 17.7276C26.2784 17.722 26.3069 17.6822 26.3012 17.6424L26.2898 17.5799C26.2841 17.5401 26.2443 17.5117 26.1987 17.5173L26.2044 17.5117ZM26.3753 18.6371V18.5746C26.3753 18.5405 26.3468 18.5121 26.3126 18.5177C26.2784 18.5177 26.25 18.5462 26.2557 18.5803V18.6428C26.2557 18.6769 26.2841 18.6996 26.3183 18.6996C26.3525 18.6996 26.381 18.6712 26.381 18.6371H26.3753ZM26.2158 19.5579L26.2101 19.6205C26.2101 19.6205 26.2215 19.6659 26.2443 19.6659C26.2671 19.6659 26.2898 19.6546 26.2955 19.6318L26.3069 19.5693C26.3069 19.5466 26.2898 19.5238 26.2671 19.5181C26.2443 19.5181 26.2215 19.5352 26.2158 19.5579ZM26.0677 20.6038L26.0848 20.547C26.0848 20.5299 26.0848 20.5186 26.0677 20.5129C26.0506 20.5072 26.0392 20.5129 26.0335 20.5299L26.0164 20.5868C26.0164 20.5868 26.0164 20.6152 26.0335 20.6209C26.0449 20.6209 26.062 20.6209 26.0677 20.6038ZM25.7031 21.5246L25.7316 21.4678C25.7316 21.4678 25.7316 21.4564 25.7259 21.4507C25.7202 21.4451 25.7145 21.4507 25.7088 21.4564L25.686 21.5133V21.5246H25.6974H25.7031ZM12.27 17.7276C12.4865 17.7618 12.6973 17.6197 12.7314 17.398L12.7428 17.3298C12.777 17.1138 12.6403 16.9091 12.4295 16.8693C12.213 16.8239 12.0023 16.966 11.9567 17.182L11.9396 17.2559V17.2672C11.9054 17.4832 12.0478 17.6935 12.27 17.7276ZM12.9764 16.3862L12.9992 16.3237C13.0619 16.1247 12.9593 15.9144 12.7656 15.8462C12.5662 15.7723 12.3498 15.8746 12.2757 16.0736L12.2529 16.1418V16.1531C12.1902 16.3521 12.2985 16.5681 12.4979 16.6363C12.6973 16.6988 12.9137 16.5908 12.9821 16.3919L12.9764 16.3862ZM13.3695 15.4142L13.398 15.3517C13.4834 15.1755 13.4208 14.9595 13.2442 14.8685C13.0676 14.7719 12.8454 14.8401 12.7542 15.0163L12.72 15.0788C12.72 15.0788 12.72 15.0845 12.72 15.0902C12.6289 15.2721 12.703 15.4881 12.8853 15.5791C13.0676 15.67 13.284 15.5961 13.3752 15.4142H13.3695ZM13.905 14.5104L13.9449 14.4536C14.0531 14.3001 14.0189 14.0898 13.8708 13.9761C13.717 13.8624 13.5005 13.8909 13.3866 14.0443L13.341 14.1012C13.341 14.1012 13.341 14.1069 13.3353 14.1125C13.2271 14.266 13.2612 14.482 13.4208 14.5957C13.5746 14.7037 13.791 14.6696 13.905 14.5104ZM14.1556 13.186L14.1044 13.2372C14.1044 13.2372 14.1044 13.2372 14.0987 13.2429C13.9733 13.3736 13.979 13.5782 14.1101 13.7033C14.2411 13.8283 14.4462 13.8227 14.5715 13.6919L14.6171 13.6408C14.7367 13.51 14.7367 13.3111 14.6171 13.186C14.4918 13.0553 14.2867 13.0553 14.1556 13.186ZM15.0386 12.4528L14.9817 12.4926C14.9817 12.4926 14.976 12.4926 14.976 12.4983C14.8393 12.6006 14.8165 12.7938 14.919 12.9303C15.0216 13.0667 15.2152 13.0894 15.352 12.9871L15.4032 12.9473C15.5343 12.845 15.5628 12.6574 15.4659 12.521C15.3691 12.3846 15.1754 12.3505 15.0386 12.4528ZM16.0185 11.856L15.9558 11.8901C15.9558 11.8901 15.9501 11.8901 15.9444 11.8901C15.802 11.9696 15.7564 12.1458 15.8305 12.2823C15.9103 12.4244 16.0869 12.4698 16.2236 12.3959L16.2806 12.3618C16.4173 12.2823 16.4685 12.1174 16.3945 11.9753C16.3204 11.8332 16.1495 11.7764 16.0071 11.8503L16.0185 11.856ZM17.192 11.9469L17.2547 11.9242C17.3914 11.873 17.4598 11.7195 17.4142 11.5831C17.3686 11.441 17.2148 11.3671 17.0724 11.4126L17.004 11.4353C17.004 11.4353 16.9983 11.4353 16.9927 11.4353C16.8502 11.4865 16.7819 11.6456 16.8331 11.7877C16.8844 11.9298 17.0439 11.9981 17.1863 11.9469H17.192ZM18.2118 11.64L18.2744 11.6229C18.4055 11.5945 18.4909 11.4637 18.4681 11.333C18.4453 11.1966 18.3143 11.1056 18.1776 11.1284L18.1092 11.1398H18.1035C17.9668 11.1682 17.8814 11.3046 17.9098 11.441C17.9383 11.5774 18.075 11.6627 18.2118 11.6343V11.64ZM19.0207 11.2705C19.0264 11.4012 19.1403 11.4979 19.2714 11.4865H19.3397C19.4651 11.4808 19.5619 11.3728 19.5562 11.2478C19.5562 11.117 19.4423 11.0204 19.3169 11.0204H19.2486C19.2486 11.0204 19.2486 11.0204 19.2429 11.0204C19.1119 11.0261 19.015 11.1398 19.0264 11.2705H19.0207ZM20.3424 11.4979H20.4107V11.5035C20.5247 11.5149 20.6272 11.4296 20.6443 11.316C20.6557 11.1966 20.5759 11.0943 20.4563 11.0772H20.3879C20.3879 11.0772 20.3879 11.0659 20.3823 11.0659C20.2626 11.0545 20.1601 11.1454 20.1487 11.2648C20.1373 11.3842 20.2284 11.4865 20.3481 11.4979H20.3424ZM21.2539 11.424C21.2311 11.532 21.2937 11.6343 21.402 11.6627L21.4646 11.6797C21.5672 11.7025 21.6697 11.6456 21.6982 11.5433C21.7267 11.441 21.664 11.333 21.5615 11.3046L21.4931 11.2875C21.4931 11.2875 21.4931 11.2875 21.4874 11.2875C21.3792 11.2648 21.2766 11.3273 21.2482 11.4353L21.2539 11.424ZM22.5641 11.6513C22.473 11.6172 22.3704 11.657 22.3306 11.748C22.2964 11.8389 22.3363 11.9412 22.4274 11.981L22.4901 12.0037C22.5812 12.0378 22.6781 12.0037 22.7179 11.9128C22.7578 11.8218 22.7179 11.7195 22.6268 11.6797L22.5641 11.6513ZM23.5611 12.1743C23.487 12.1288 23.3845 12.1572 23.3389 12.2311C23.2933 12.305 23.3218 12.4073 23.3959 12.4528L23.4528 12.4869C23.5269 12.5324 23.6237 12.5096 23.6693 12.4357C23.7149 12.3618 23.6921 12.2652 23.618 12.2141L23.5611 12.1743ZM24.3415 13.1008C24.3985 13.1519 24.484 13.1406 24.5352 13.0837C24.5865 13.0269 24.5808 12.9359 24.5238 12.8848L24.4726 12.8393C24.4099 12.7881 24.3244 12.7995 24.2732 12.862C24.2219 12.9246 24.2333 13.0098 24.296 13.061L24.3472 13.1065L24.3415 13.1008ZM25.2644 13.6294C25.2188 13.5782 25.1391 13.5782 25.0878 13.6237C25.0365 13.6692 25.0365 13.7488 25.0821 13.7999L25.1277 13.8511C25.1733 13.9022 25.2473 13.9079 25.2986 13.8624C25.3499 13.817 25.3556 13.7431 25.31 13.6919L25.2644 13.6408V13.6294ZM25.7543 14.6412L25.7942 14.698C25.8227 14.7435 25.8854 14.7605 25.9366 14.7264C25.9879 14.698 25.9993 14.6298 25.9708 14.5843L25.9309 14.5275C25.8968 14.482 25.8341 14.465 25.7828 14.4991C25.7372 14.5332 25.7202 14.5957 25.7543 14.6469V14.6412ZM26.4835 15.5734L26.455 15.5108C26.4323 15.4654 26.381 15.4483 26.3411 15.4711C26.2955 15.4938 26.2784 15.5449 26.3012 15.5847L26.3297 15.6473C26.3468 15.687 26.3981 15.7098 26.438 15.687C26.4835 15.67 26.5006 15.6188 26.4835 15.5734ZM26.7456 16.5112C26.7114 16.5226 26.6886 16.5624 26.7 16.5965L26.7171 16.6647C26.7285 16.6988 26.7627 16.7216 26.7969 16.7102C26.831 16.6988 26.8538 16.6647 26.8424 16.6306L26.8253 16.5624C26.8139 16.5283 26.7741 16.5056 26.7399 16.5169L26.7456 16.5112ZM27.0418 17.6481C27.0418 17.6481 27.0133 17.6026 26.9848 17.6083C26.9564 17.6083 26.9393 17.6367 26.945 17.6651L26.9564 17.7333C26.9564 17.7333 26.9848 17.7788 27.0076 17.7731C27.0361 17.7731 27.0532 17.7447 27.0475 17.722V17.6538H27.0418V17.6481ZM27.0304 18.8247C27.0304 18.8247 27.0418 18.8531 27.0589 18.8531C27.076 18.8531 27.0874 18.8417 27.0874 18.8247V18.7565C27.0874 18.7394 27.076 18.7281 27.0589 18.7281C27.0418 18.7281 27.0304 18.7394 27.0304 18.7565V18.8247ZM26.9507 19.9331C26.9507 19.9331 26.9621 19.9331 26.9621 19.9217L26.9735 19.8535C26.9735 19.8478 26.9735 19.8421 26.9621 19.8421C26.9507 19.8421 26.9507 19.8421 26.9507 19.8535L26.9393 19.9217C26.9393 19.9217 26.9393 19.9331 26.9507 19.9331ZM11.8541 19.2169L11.8484 19.143C11.8257 18.8986 11.6206 18.7224 11.3813 18.7394C11.1363 18.7565 10.9483 18.9668 10.9654 19.2112V19.2908C10.9654 19.2908 10.9654 19.3022 10.9711 19.3078C10.9939 19.5523 11.2104 19.7341 11.4554 19.7114C11.7003 19.6887 11.8826 19.4727 11.8598 19.2283L11.8541 19.2169ZM11.8257 18.0516V17.9778C11.837 17.7504 11.6661 17.5571 11.4383 17.5344C11.2047 17.5117 10.9996 17.6879 10.9768 17.9209V18.0005C10.9768 18.0005 10.9711 18.0119 10.9711 18.0175C10.9597 18.2506 11.1363 18.4495 11.3756 18.4609C11.6092 18.4723 11.8086 18.2961 11.82 18.0573L11.8257 18.0516ZM11.9681 16.8978L11.9852 16.8239C12.0307 16.6079 11.894 16.3976 11.6832 16.3464C11.4668 16.2953 11.2503 16.426 11.199 16.642L11.1819 16.7216V16.7329C11.1363 16.9489 11.2788 17.1649 11.4952 17.2104C11.7117 17.2559 11.9282 17.1138 11.9738 16.8978H11.9681ZM11.7858 16.0054C11.9852 16.0793 12.2073 15.9769 12.2814 15.778L12.3042 15.7041C12.3725 15.5052 12.2814 15.2948 12.0877 15.2153C11.894 15.1357 11.6661 15.2323 11.5864 15.4256L11.5579 15.4995C11.5579 15.4995 11.5579 15.5052 11.5579 15.5108C11.4838 15.7098 11.5864 15.9315 11.7858 16.0054ZM12.7599 14.7094L12.7941 14.6412C12.8853 14.465 12.8283 14.2547 12.6631 14.1523C12.4922 14.05 12.27 14.1069 12.1675 14.2774L12.1276 14.3456C12.1276 14.3456 12.1276 14.3513 12.1219 14.357C12.025 14.5332 12.0877 14.7549 12.2643 14.8515C12.4409 14.9481 12.6631 14.8856 12.7599 14.7094ZM13.3923 13.726L13.4378 13.6635C13.5461 13.5157 13.5233 13.3054 13.3809 13.1917C13.2328 13.0724 13.022 13.0951 12.9023 13.2429L12.8511 13.3054C12.8511 13.3054 12.8511 13.3111 12.8454 13.3168C12.7314 13.4646 12.7599 13.6806 12.9137 13.7942C13.0619 13.9079 13.2783 13.8795 13.3923 13.726ZM13.7854 12.322L13.7284 12.3732C13.7284 12.3732 13.7284 12.3732 13.7227 12.3789C13.5974 12.5039 13.5917 12.7086 13.7227 12.8336C13.848 12.9587 14.0531 12.9644 14.1784 12.8336L14.2297 12.7825C14.355 12.6574 14.3607 12.4642 14.2411 12.3334C14.1215 12.2027 13.9164 12.1913 13.7854 12.3107V12.322ZM14.788 11.5433L14.7196 11.5888C14.7196 11.5888 14.7139 11.5888 14.7139 11.5945C14.5772 11.6911 14.5487 11.8787 14.6456 12.0151C14.7424 12.1515 14.9304 12.1799 15.0671 12.0833L15.1298 12.0378C15.2608 11.9412 15.295 11.7593 15.2039 11.6229C15.1127 11.4865 14.9247 11.4467 14.788 11.5433ZM15.8932 10.9238L15.8191 10.9579H15.8134C15.6767 11.0261 15.6197 11.1966 15.6938 11.3387C15.7621 11.4751 15.933 11.532 16.0755 11.4581L16.1438 11.424C16.2749 11.3557 16.3318 11.1909 16.2692 11.0545C16.2008 10.9124 16.0356 10.8555 15.8989 10.9238H15.8932ZM17.1579 10.992L17.2262 10.9692C17.3572 10.9238 17.4313 10.7817 17.3914 10.6509C17.3516 10.5145 17.2034 10.4349 17.0667 10.4804L16.9927 10.5031H16.987C16.8502 10.5486 16.7762 10.6964 16.8217 10.8328C16.8673 10.9692 17.0154 11.0431 17.1522 10.9976L17.1579 10.992ZM18.3086 10.6907L18.3827 10.6793C18.508 10.6566 18.5935 10.5372 18.5764 10.4122C18.5593 10.2814 18.4339 10.1905 18.3086 10.2076L18.2289 10.2189C18.2289 10.2189 18.2289 10.2189 18.2232 10.2189C18.0921 10.2417 18.0067 10.3667 18.0295 10.4974C18.0523 10.6282 18.1776 10.7134 18.3086 10.6907ZM19.4935 10.5657H19.5676C19.6872 10.5657 19.7784 10.469 19.7784 10.3497C19.7784 10.2303 19.6815 10.1337 19.5619 10.128H19.4822C19.4822 10.128 19.4822 10.128 19.4765 10.128C19.3568 10.128 19.26 10.2303 19.2657 10.3553C19.2657 10.4747 19.3682 10.5713 19.4935 10.5657ZM20.7355 10.2189C20.6272 10.2076 20.5247 10.2814 20.5133 10.3951C20.5019 10.5088 20.5759 10.6054 20.6899 10.6168L20.7639 10.6282C20.8665 10.6395 20.9633 10.5657 20.9804 10.4633C20.9975 10.3553 20.9234 10.253 20.8152 10.236L20.7355 10.2246C20.7355 10.2246 20.7355 10.2246 20.7298 10.2246L20.7355 10.2189ZM21.9603 10.4974C21.8634 10.469 21.7666 10.5259 21.7438 10.6225C21.7153 10.7191 21.7723 10.8158 21.8691 10.8385L21.9432 10.8612C22.0343 10.8897 22.1312 10.8328 22.1597 10.7419C22.1881 10.6509 22.1369 10.5486 22.0457 10.5202L21.9717 10.4974C21.9717 10.4974 21.9717 10.4974 21.966 10.4974H21.9603ZM23.1338 10.9522C23.0541 10.9181 22.9629 10.9522 22.923 11.0318C22.8832 11.1113 22.923 11.2023 23.0028 11.2421L23.0711 11.2705C23.1452 11.3046 23.2364 11.2705 23.2762 11.1966C23.3161 11.117 23.2762 11.0261 23.2022 10.9863L23.1338 10.9522ZM24.2162 11.5717C24.1535 11.532 24.0681 11.549 24.0282 11.6115C23.9883 11.6741 24.0054 11.7593 24.0681 11.7991L24.1307 11.8389C24.1934 11.8787 24.2732 11.8616 24.313 11.8048C24.3529 11.7423 24.3415 11.657 24.2789 11.6172L24.2162 11.5717ZM25.0251 12.3505C24.9853 12.4016 24.9853 12.4698 25.0365 12.5153L25.0935 12.5665C25.1391 12.6063 25.2131 12.6063 25.253 12.5608C25.2986 12.5153 25.2929 12.4414 25.2473 12.3959L25.1904 12.3448C25.1391 12.305 25.0707 12.305 25.0251 12.3562V12.3505ZM26.0904 13.3054L26.0449 13.2429C26.0107 13.2031 25.948 13.1974 25.9082 13.2315C25.8683 13.2656 25.8626 13.3281 25.8968 13.3679L25.948 13.4248C25.9822 13.4646 26.0392 13.4702 26.0791 13.4361C26.1189 13.402 26.1246 13.3452 26.0961 13.3054H26.0904ZM26.7456 14.2603C26.7228 14.2262 26.6772 14.2149 26.643 14.2376C26.6089 14.2603 26.5975 14.3058 26.6203 14.3399L26.6601 14.4024C26.6829 14.4365 26.7228 14.4479 26.7627 14.4252C26.7969 14.4024 26.8082 14.357 26.7912 14.3229L26.7513 14.2547L26.7456 14.2603ZM27.2184 15.4824C27.2184 15.4824 27.2583 15.5222 27.2868 15.5108C27.3153 15.4995 27.3267 15.4711 27.3153 15.4426L27.2868 15.3687C27.2754 15.3403 27.2412 15.329 27.2127 15.3403C27.1842 15.3517 27.1728 15.3858 27.1842 15.4142L27.2127 15.4824H27.2184ZM27.5944 16.5624L27.6115 16.6363C27.6115 16.6363 27.6343 16.6647 27.6514 16.659C27.6685 16.659 27.6799 16.6363 27.6742 16.6192L27.6571 16.5454C27.6571 16.5283 27.6343 16.5169 27.6172 16.5226C27.6001 16.5226 27.5887 16.5454 27.5944 16.5624ZM27.8337 17.7447C27.8337 17.7447 27.8223 17.7504 27.8223 17.7618V17.8356C27.8223 17.8356 27.8394 17.847 27.8451 17.847C27.8508 17.847 27.8565 17.8413 27.8565 17.8356V17.7618H27.8508C27.8508 17.7561 27.8451 17.7504 27.8337 17.7504V17.7447ZM11.4326 21.411L11.4041 21.3314C11.3129 21.0756 11.0395 20.9449 10.7831 21.0301C10.5268 21.1154 10.3844 21.3939 10.4698 21.6554L10.4983 21.7406C10.4983 21.7406 10.4983 21.752 10.4983 21.7577C10.5951 22.0135 10.88 22.1442 11.1363 22.0476C11.3927 21.951 11.5237 21.6667 11.4269 21.411H11.4326ZM10.7034 20.7346C10.9597 20.6777 11.1192 20.4276 11.068 20.1775L11.0509 20.0979C10.9996 19.8478 10.7603 19.683 10.5097 19.7285C10.2533 19.7739 10.0824 20.0184 10.128 20.2741L10.1451 20.3594C10.1451 20.3594 10.1451 20.3708 10.1451 20.3765C10.2021 20.6322 10.4527 20.7914 10.7034 20.7402V20.7346ZM10.4641 19.3704C10.7148 19.3533 10.9028 19.143 10.8857 18.8929V18.8076C10.8686 18.5632 10.6692 18.3756 10.4242 18.3813C10.1793 18.387 9.97989 18.5916 9.98558 18.8417V18.9327C9.98558 18.9327 9.98558 18.9441 9.98558 18.9497C10.0027 19.1998 10.2135 19.3874 10.4641 19.3704ZM10.5325 17.0512C10.2989 17.0228 10.0881 17.1877 10.0596 17.4207L10.0482 17.5117C10.0482 17.5117 10.0482 17.523 10.0482 17.5287C10.0255 17.7618 10.2021 17.9721 10.4356 17.9891C10.6692 18.0119 10.88 17.8356 10.8971 17.6026L10.9028 17.5173C10.9256 17.2843 10.7603 17.0797 10.5325 17.0512ZM11.1022 16.318L11.1192 16.2384C11.1705 16.0224 11.0452 15.8121 10.8344 15.7496C10.6179 15.6871 10.3958 15.8121 10.3388 16.0281L10.316 16.1134V16.1247C10.2647 16.3407 10.3958 16.5567 10.6122 16.6136C10.8287 16.6647 11.0452 16.534 11.1022 16.318ZM11.5009 15.0788L11.5294 14.9993C11.6035 14.806 11.518 14.59 11.3357 14.5048C11.142 14.4195 10.9199 14.5048 10.8344 14.698L10.8002 14.7776C10.8002 14.7776 10.8002 14.7833 10.8002 14.789C10.7205 14.9822 10.8116 15.2039 11.011 15.2835C11.2047 15.3631 11.4269 15.2721 11.5066 15.0732L11.5009 15.0788ZM11.5864 14.033C11.7573 14.1353 11.9738 14.0784 12.0763 13.9079L12.1162 13.834C12.213 13.6635 12.1618 13.4532 12.0023 13.3509C11.837 13.2429 11.6149 13.294 11.5066 13.4589L11.4611 13.5328C11.4611 13.5328 11.4611 13.5385 11.4554 13.5441C11.3528 13.7147 11.4098 13.9307 11.5807 14.033H11.5864ZM12.3668 12.3334L12.3099 12.4016C12.3099 12.4016 12.3099 12.4073 12.3042 12.413C12.1845 12.5551 12.2073 12.7654 12.3498 12.8848C12.4922 13.0041 12.703 12.9814 12.8226 12.8393L12.8739 12.7711C12.9878 12.629 12.9707 12.4244 12.834 12.305C12.6973 12.1856 12.4865 12.197 12.3612 12.3391L12.3668 12.3334ZM13.3752 11.3501L13.3068 11.4069C13.3068 11.4069 13.3068 11.4069 13.3011 11.4126C13.1758 11.5263 13.1644 11.7252 13.2783 11.8503C13.3923 11.9753 13.5917 11.9867 13.717 11.873L13.7797 11.8162C13.905 11.7025 13.9164 11.5092 13.8081 11.3842C13.6942 11.2534 13.5005 11.2364 13.3695 11.3501H13.3752ZM14.5145 10.5316L14.4405 10.577H14.4348C14.3038 10.668 14.2639 10.8442 14.355 10.9806C14.4462 11.1113 14.6228 11.1511 14.7595 11.0602L14.8279 11.0147C14.9589 10.9294 14.9931 10.7532 14.9133 10.6225C14.8279 10.4861 14.6513 10.4463 14.5145 10.5316ZM15.7621 9.88924L15.6824 9.92335H15.6767C15.5457 9.98588 15.483 10.145 15.5457 10.2758C15.6083 10.4065 15.7678 10.469 15.8989 10.4065L15.9729 10.3724C16.104 10.3099 16.1609 10.1564 16.104 10.0257C16.047 9.88925 15.8932 9.82672 15.7564 9.88924H15.7621ZM17.1351 9.93472L17.2148 9.91198C17.3402 9.87219 17.4142 9.74714 17.38 9.61641C17.3459 9.48567 17.2148 9.41178 17.0838 9.44588L16.9983 9.46862C16.9983 9.46862 16.9983 9.46862 16.9927 9.46862C16.8616 9.50841 16.7876 9.64483 16.8274 9.76988C16.8673 9.90061 17.004 9.97451 17.1294 9.93472H17.1351ZM18.4282 9.64483L18.508 9.63346C18.6219 9.61641 18.7074 9.50841 18.696 9.39473C18.6846 9.27536 18.5764 9.1901 18.451 9.20147L18.3656 9.21283C18.3656 9.21283 18.3656 9.21283 18.3599 9.21283C18.2403 9.22989 18.1548 9.34357 18.1719 9.46294C18.189 9.5823 18.3029 9.66756 18.4226 9.65051L18.4282 9.64483ZM19.7556 9.5482H19.8411C19.9493 9.5482 20.0347 9.46862 20.0404 9.36062C20.0404 9.25262 19.9607 9.16168 19.8524 9.15599H19.767C19.767 9.15599 19.767 9.15599 19.7613 9.15599C19.6531 9.15599 19.5619 9.24126 19.5619 9.35494C19.5619 9.46294 19.6474 9.55388 19.7613 9.55388L19.7556 9.5482ZM21.2311 9.32083L21.1456 9.30378C21.1456 9.30378 21.1456 9.30378 21.1399 9.30378C21.0431 9.28673 20.9519 9.35494 20.9405 9.45157C20.9234 9.5482 20.9918 9.63914 21.0887 9.65051L21.1684 9.66188C21.2596 9.67893 21.3507 9.61641 21.3678 9.52546C21.3849 9.42883 21.3222 9.33789 21.2311 9.32083ZM22.5698 9.6903L22.4901 9.66188C22.4103 9.63914 22.3249 9.67893 22.2964 9.75851C22.2736 9.83809 22.3135 9.92335 22.3932 9.95177L22.473 9.98019C22.5527 10.0029 22.6325 9.96314 22.661 9.88924C22.6895 9.80967 22.6496 9.72441 22.5698 9.69598V9.6903ZM23.6408 10.4406L23.7149 10.4804C23.7775 10.5088 23.8516 10.4861 23.8858 10.4236C23.92 10.361 23.8972 10.2814 23.8345 10.253L23.7605 10.2132C23.6978 10.1791 23.618 10.2132 23.5896 10.2701C23.5554 10.3326 23.5896 10.4122 23.6465 10.4406H23.6408ZM24.9283 10.9408C24.877 10.9067 24.8144 10.9181 24.7802 10.9692C24.746 11.0204 24.7574 11.0829 24.8087 11.117L24.877 11.1625C24.9226 11.1966 24.9853 11.1852 25.0194 11.1398C25.0536 11.0943 25.0422 11.0261 24.9967 10.992L24.9283 10.9408ZM25.9765 11.8332C25.9423 11.7991 25.8911 11.8048 25.8569 11.8332C25.8227 11.8673 25.8284 11.9185 25.8569 11.9526L25.9195 12.0094C25.9537 12.0378 26.005 12.0378 26.0335 12.0094C26.0677 11.9753 26.0677 11.9242 26.0335 11.8957L25.9708 11.8332H25.9765ZM26.7798 12.9416L26.831 13.0098C26.831 13.0098 26.888 13.0382 26.9108 13.0212C26.9393 13.0041 26.945 12.9644 26.9222 12.9359L26.8709 12.8677C26.8481 12.8393 26.8139 12.8393 26.7855 12.8564C26.757 12.8791 26.757 12.9132 26.7741 12.9416H26.7798ZM27.6115 14.0216C27.6115 14.0216 27.5773 13.9989 27.5602 14.0102C27.5431 14.0216 27.5374 14.0443 27.5488 14.0614L27.5887 14.1353C27.5887 14.1353 27.6229 14.158 27.64 14.1523C27.6571 14.141 27.6628 14.1182 27.6571 14.1012L27.6172 14.0273L27.6115 14.0216ZM28.1926 15.3517L28.1641 15.2721C28.1641 15.2664 28.1527 15.2607 28.147 15.2664C28.1413 15.2664 28.1356 15.2778 28.1413 15.2835L28.1698 15.3631C28.1698 15.3631 28.1812 15.3744 28.1869 15.3687C28.1926 15.3687 28.1983 15.3574 28.1926 15.3517ZM11.5978 23.9006L11.5465 23.8267C11.3756 23.5823 11.0452 23.5198 10.7945 23.6846C10.5439 23.8494 10.4698 24.1905 10.6407 24.4463L10.6977 24.5315C10.6977 24.5315 10.7034 24.5429 10.7091 24.5486C10.8857 24.7987 11.2275 24.8555 11.4781 24.6793C11.7288 24.5031 11.7858 24.1621 11.6092 23.912L11.5978 23.9006ZM9.90583 23.1389C9.90583 23.1389 9.90583 23.1503 9.91152 23.156C10.0426 23.4118 10.3616 23.5141 10.6179 23.3834C10.8743 23.2526 10.9768 22.9343 10.8458 22.6785L10.8059 22.5933C10.6806 22.3375 10.373 22.2352 10.1166 22.3545C9.85456 22.4739 9.74062 22.7865 9.86595 23.048L9.90583 23.1389ZM9.96849 21.9907C10.2305 21.9055 10.373 21.6213 10.2818 21.3598L10.2533 21.2689C10.1679 21.0074 9.90013 20.871 9.63808 20.9449C9.37602 21.0244 9.22221 21.2973 9.30197 21.5644L9.33045 21.6611C9.33045 21.6611 9.33045 21.6724 9.33045 21.6781C9.4159 21.9396 9.70074 22.0817 9.9628 21.9907H9.96849ZM9.92292 19.9672L9.90583 19.8762C9.86025 19.6205 9.62668 19.4499 9.37602 19.484C9.11967 19.5181 8.93737 19.7569 8.97155 20.0184L8.98294 20.115C8.98294 20.115 8.98294 20.1263 8.98294 20.132C9.02852 20.3878 9.27348 20.564 9.52984 20.5186C9.78619 20.4731 9.9628 20.2287 9.91722 19.9729L9.92292 19.9672ZM8.8804 18.5405C8.8804 18.5405 8.8804 18.5518 8.8804 18.5575C8.8804 18.8076 9.09118 19.0009 9.34184 18.9952C9.5925 18.9895 9.78619 18.7849 9.7805 18.5348V18.4438C9.7748 18.1994 9.58111 18.0062 9.33615 18.0005C9.09118 18.0005 8.8861 18.1937 8.8861 18.4438V18.5405H8.8804ZM9.00573 16.9717V16.983C8.97725 17.2161 9.14246 17.4264 9.37033 17.4548C9.6039 17.4832 9.81468 17.3184 9.84316 17.091L9.85456 17.0001C9.88304 16.7727 9.72923 16.5624 9.50135 16.5283C9.27348 16.4885 9.057 16.6477 9.01713 16.875L9.00004 16.9717H9.00573ZM9.39311 15.346L9.36463 15.4369V15.4483C9.30766 15.6586 9.4273 15.8803 9.63808 15.9372C9.84886 15.994 10.071 15.8746 10.128 15.6643L10.1508 15.5734C10.2078 15.3631 10.0938 15.1527 9.88874 15.0845C9.67796 15.0163 9.45578 15.1357 9.39311 15.3403V15.346ZM10.4812 13.726C10.2989 13.6351 10.0767 13.709 9.98558 13.8966L9.94001 13.9818C9.94001 13.9818 9.94001 13.9875 9.94001 13.9932C9.85456 14.1808 9.94001 14.4024 10.128 14.482C10.316 14.5673 10.5382 14.482 10.6179 14.2944L10.6578 14.2092C10.7376 14.0216 10.6578 13.8113 10.4812 13.7203V13.726ZM10.7262 12.629C10.7262 12.629 10.7262 12.6347 10.7205 12.6404C10.6179 12.7995 10.6635 13.0155 10.823 13.1178C10.9825 13.2201 11.199 13.1747 11.3015 13.0155L11.3528 12.9359C11.4554 12.7768 11.4098 12.5665 11.256 12.4642C11.0965 12.3562 10.8857 12.3959 10.7774 12.5494L10.7205 12.629H10.7262ZM11.7687 11.3387L11.7003 11.4069C11.7003 11.4069 11.7003 11.4069 11.6946 11.4126C11.575 11.5433 11.5921 11.748 11.7231 11.8673C11.8541 11.9867 12.0592 11.9696 12.1789 11.8389L12.2415 11.7707C12.3555 11.64 12.3441 11.441 12.2187 11.3273C12.0877 11.208 11.8883 11.2136 11.7687 11.3387ZM12.9251 10.2928L12.8511 10.3553C12.8511 10.3553 12.8511 10.3553 12.8454 10.361C12.72 10.469 12.703 10.6509 12.8112 10.776C12.9194 10.901 13.1017 10.9181 13.2271 10.8101L13.2954 10.7475C13.4151 10.6452 13.4378 10.4633 13.3353 10.3383C13.2328 10.2132 13.0505 10.1905 12.9194 10.2871L12.9251 10.2928ZM14.1329 9.47999C14.1329 9.47999 14.1329 9.47999 14.1272 9.47999C14.0018 9.55957 13.962 9.72441 14.036 9.84946C14.1158 9.97451 14.281 10.0143 14.4063 9.9404L14.4861 9.88924C14.6114 9.80967 14.6513 9.65051 14.5772 9.52546C14.5031 9.39473 14.3379 9.34925 14.2126 9.42315L14.1272 9.46862L14.1329 9.47999ZM15.6197 8.77516L15.5286 8.80926C15.5286 8.80926 15.5286 8.80926 15.5229 8.80926C15.3975 8.86042 15.3406 9.00821 15.3919 9.13326C15.4431 9.25831 15.5912 9.31515 15.7166 9.26399L15.802 9.2242C15.9217 9.17305 15.9786 9.03663 15.933 8.91158C15.8818 8.78653 15.7451 8.724 15.6197 8.77516ZM17.1123 8.77516L17.2034 8.75242C17.3174 8.724 17.3857 8.61032 17.3629 8.49095C17.3345 8.37158 17.2205 8.29769 17.1009 8.32611L17.004 8.34885C17.004 8.34885 17.004 8.34885 16.9983 8.34885C16.8787 8.37727 16.8104 8.49664 16.8388 8.616C16.8673 8.73537 16.987 8.80358 17.1066 8.77516H17.1123ZM18.5707 8.50232L18.6618 8.49095C18.7644 8.47958 18.8441 8.38864 18.8327 8.28632C18.827 8.17832 18.7302 8.09875 18.6276 8.11011H18.5308C18.5308 8.11011 18.5308 8.1158 18.5251 8.1158C18.4169 8.12717 18.3428 8.2238 18.3542 8.3318C18.3656 8.43979 18.4624 8.51369 18.5707 8.50232ZM20.0575 8.45116H20.1487C20.2398 8.45116 20.3139 8.38864 20.3253 8.29769C20.331 8.20675 20.2626 8.12717 20.1715 8.1158H20.0746V8.11011C19.9835 8.11011 19.9037 8.17832 19.898 8.26927C19.898 8.36022 19.9664 8.43979 20.0575 8.44548V8.45116ZM21.6925 8.36022L21.6014 8.33748C21.5216 8.32043 21.4476 8.37158 21.4305 8.45116C21.4134 8.53074 21.4646 8.60463 21.5444 8.62169L21.6355 8.63874C21.7096 8.65579 21.7837 8.60463 21.8008 8.53074C21.8178 8.45685 21.7723 8.37727 21.6925 8.36022ZM23.1566 8.82063L23.0654 8.78653C23.0028 8.76379 22.9344 8.79789 22.9116 8.86042C22.8888 8.92294 22.923 8.99115 22.9857 9.01389L23.0711 9.048C23.1281 9.07073 23.1965 9.04231 23.2193 8.97979C23.242 8.91726 23.2136 8.85473 23.1509 8.82631L23.1566 8.82063ZM24.4441 9.4402C24.3985 9.41746 24.3415 9.43451 24.3187 9.47999C24.296 9.52546 24.313 9.5823 24.3586 9.60504L24.4441 9.65051C24.4896 9.67325 24.5409 9.6562 24.5637 9.61641C24.5865 9.57093 24.5751 9.51409 24.5295 9.49136L24.4441 9.44588V9.4402ZM25.7145 10.2928C25.686 10.2701 25.6404 10.2758 25.6176 10.3042C25.5948 10.3326 25.6005 10.3781 25.629 10.4008L25.7031 10.4577C25.7031 10.4577 25.7714 10.4747 25.7942 10.4463C25.817 10.4179 25.8113 10.3781 25.7828 10.3553L25.7088 10.2985L25.7145 10.2928ZM26.8994 11.4467C26.8994 11.4467 26.9165 11.4069 26.8994 11.3899L26.8367 11.3216C26.8196 11.3046 26.7912 11.3046 26.7798 11.3216C26.7627 11.3387 26.7627 11.3671 26.7798 11.3785L26.8481 11.4467C26.8481 11.4467 26.888 11.4637 26.9051 11.4467H26.8994ZM27.7881 12.4983C27.7881 12.4983 27.771 12.4869 27.7653 12.4983C27.7596 12.4983 27.7539 12.5153 27.7653 12.521L27.8223 12.5949C27.8223 12.5949 27.8337 12.6006 27.8451 12.5949C27.8508 12.5949 27.8565 12.5778 27.8451 12.5722L27.7938 12.4926L27.7881 12.4983ZM12.4922 26.5096L12.4181 26.4471H12.4124C12.1618 26.2368 11.7858 26.2595 11.5693 26.5096C11.3471 26.7597 11.3699 27.1462 11.6206 27.3679L11.706 27.4418C11.706 27.4418 11.7174 27.4532 11.7231 27.4532C11.9852 27.6692 12.3668 27.6294 12.5833 27.3736C12.7998 27.1121 12.7599 26.7313 12.5036 26.5153L12.4922 26.5096ZM11.3357 25.4126L11.2674 25.3387C11.0566 25.1 10.7034 25.0772 10.4641 25.2762C10.2192 25.4808 10.185 25.8503 10.3958 26.0947L10.4641 26.1799C10.4641 26.1799 10.4755 26.1913 10.4755 26.197C10.692 26.4357 11.0623 26.4528 11.3015 26.2425C11.5408 26.0265 11.5579 25.657 11.3471 25.4183L11.3357 25.4126ZM10.3559 24.1564L10.2989 24.0711C10.1337 23.821 9.80328 23.7414 9.54693 23.9006C9.28488 24.0598 9.20512 24.4008 9.36463 24.6623L9.4216 24.7589C9.4216 24.7589 9.4273 24.7703 9.43299 24.776C9.6039 25.0317 9.9457 25.1 10.2021 24.9351C10.4584 24.7703 10.5268 24.4235 10.3616 24.1678L10.3559 24.1564ZM8.56138 23.0878L8.60696 23.1901C8.60696 23.1901 8.60696 23.2015 8.61265 23.2071C8.73229 23.4686 9.04561 23.588 9.31336 23.4629C9.58111 23.3379 9.69505 23.0309 9.56972 22.7638L9.52984 22.6672C9.4102 22.4057 9.10827 22.292 8.85192 22.4C8.58417 22.5137 8.45884 22.8206 8.57278 23.0878H8.56138ZM8.36769 20.8198C8.09994 20.888 7.94043 21.1552 8.00879 21.4223L8.03727 21.5303C8.03727 21.5303 8.03727 21.5417 8.03727 21.5474C8.11703 21.8088 8.39048 21.9623 8.65823 21.8827C8.92028 21.8032 9.07409 21.5303 8.99434 21.2632L8.96585 21.1609C8.8918 20.8994 8.62405 20.7459 8.36769 20.8141V20.8198ZM8.64114 19.592C8.60696 19.3363 8.37908 19.16 8.12842 19.1828C7.87207 19.2112 7.68407 19.4386 7.71256 19.6944L7.72395 19.8024C7.72395 19.8024 7.72395 19.8137 7.72395 19.8194C7.75813 20.0752 7.9974 20.2571 8.25375 20.223C8.51011 20.1889 8.69241 19.9501 8.65823 19.6944L8.64683 19.592H8.64114ZM8.12842 17.5344C7.88346 17.523 7.67838 17.7106 7.66698 17.955V18.063C7.66698 18.063 7.66698 18.0744 7.66698 18.0801C7.66698 18.3245 7.86067 18.5234 8.10564 18.5291C8.3506 18.5291 8.54999 18.3358 8.55568 18.0914V17.9891C8.55568 17.7504 8.37339 17.5514 8.13412 17.5401L8.12842 17.5344ZM7.86637 16.335V16.3464C7.83219 16.5738 7.986 16.7841 8.20818 16.8182C8.43605 16.8523 8.64683 16.6988 8.68101 16.4771L8.6981 16.3748C8.73229 16.1531 8.58987 15.9428 8.37339 15.903C8.15121 15.8576 7.93473 16.0054 7.88916 16.227L7.86637 16.335ZM8.3563 14.5559L8.32212 14.6582V14.6696C8.25945 14.8742 8.36769 15.0902 8.57278 15.1527C8.77786 15.2153 8.99434 15.1073 9.057 14.9026L9.08549 14.8003C9.14815 14.6014 9.04561 14.3911 8.84622 14.3172C8.64683 14.2433 8.42466 14.3513 8.3563 14.5502V14.5559ZM9.55262 12.8279C9.38172 12.737 9.16524 12.7995 9.0684 12.97L9.01713 13.0667C9.01713 13.0667 9.01713 13.0724 9.01713 13.078C8.93167 13.2542 9.00004 13.4702 9.17664 13.5555C9.35324 13.6408 9.56972 13.5726 9.65517 13.3963L9.70074 13.3054C9.78619 13.1292 9.71783 12.9246 9.55262 12.8336V12.8279ZM9.9457 11.6059C9.9457 11.6059 9.9457 11.6115 9.94001 11.6172C9.83747 11.765 9.87165 11.9696 10.0198 12.0719C10.1679 12.1743 10.373 12.1402 10.4755 11.9924L10.5325 11.9071C10.635 11.7593 10.6008 11.5604 10.4584 11.4581C10.316 11.3501 10.1109 11.3785 10.0027 11.5263L9.94001 11.6115L9.9457 11.6059ZM11.1534 10.2246L11.0794 10.2985C11.0794 10.2985 11.0794 10.2985 11.0737 10.3042C10.9597 10.4236 10.9654 10.6168 11.0851 10.7305C11.2047 10.8442 11.3984 10.8385 11.5123 10.7191L11.5807 10.6452C11.6889 10.5259 11.6889 10.344 11.5807 10.2303C11.4668 10.1109 11.2731 10.1109 11.1591 10.2303L11.1534 10.2246ZM12.327 9.56525C12.4181 9.68462 12.589 9.70167 12.7087 9.61072L12.7884 9.5482C12.9023 9.45725 12.9251 9.29241 12.8397 9.17305C12.7485 9.05368 12.5833 9.02526 12.458 9.1162L12.3725 9.17873C12.3725 9.17873 12.3725 9.17873 12.3668 9.17873C12.2472 9.26968 12.2301 9.4402 12.3213 9.55957L12.327 9.56525ZM13.8366 8.26359C13.8366 8.26359 13.8366 8.26359 13.8309 8.26359C13.7113 8.3318 13.6714 8.47958 13.7398 8.59895C13.8081 8.71832 13.9563 8.7581 14.0759 8.6899L14.167 8.63874C14.281 8.57053 14.3209 8.42843 14.2639 8.31474C14.2012 8.19538 14.0531 8.1499 13.9335 8.21243L13.8366 8.26359ZM15.5115 7.5417L15.4089 7.57581C15.4089 7.57581 15.4089 7.57581 15.4032 7.57581C15.2893 7.62128 15.238 7.74065 15.2779 7.85433C15.3235 7.96801 15.4431 8.01917 15.5571 7.97938L15.6539 7.93959C15.7621 7.8998 15.8191 7.78044 15.7792 7.66675C15.7394 7.55307 15.6197 7.49623 15.5058 7.53602L15.5115 7.5417ZM17.1351 7.50191L17.2376 7.47918C17.3345 7.45644 17.3971 7.35981 17.38 7.26318C17.3629 7.16087 17.2661 7.09834 17.1636 7.11539L17.061 7.13245C17.061 7.13245 17.061 7.13245 17.0553 7.13245C16.9528 7.15518 16.8901 7.2575 16.9129 7.35413C16.9357 7.45644 17.0382 7.51897 17.1351 7.49623V7.50191ZM18.7758 7.2575L18.8783 7.25181C18.9637 7.24613 19.0264 7.17223 19.0264 7.08697C19.0264 7.00171 18.9524 6.9335 18.8612 6.9335H18.753C18.6675 6.93919 18.5992 7.01308 18.6048 7.10403C18.6105 7.18929 18.6846 7.2575 18.7758 7.25181V7.2575ZM20.5645 7.0074L20.4563 6.99603C20.3823 6.99034 20.3196 7.0415 20.3139 7.11539C20.3082 7.18929 20.3595 7.25181 20.4335 7.2575L20.5361 7.26318C20.6044 7.26318 20.6671 7.21771 20.6728 7.1495C20.6785 7.07561 20.6272 7.01308 20.5589 7.0074H20.5645ZM22.2337 7.33139L22.1312 7.30297C22.0742 7.2916 22.0172 7.32571 22.0058 7.38255C21.9944 7.43939 22.0286 7.49623 22.0856 7.5076L22.1881 7.53033C22.2394 7.5417 22.2964 7.51328 22.3078 7.45644C22.3249 7.3996 22.2907 7.34844 22.2337 7.33139ZM23.675 7.99075L23.7718 8.03054C23.806 8.04759 23.8516 8.03054 23.8687 7.99075C23.8858 7.95096 23.8687 7.91117 23.8288 7.89412L23.732 7.85433C23.6921 7.83728 23.6522 7.85433 23.6351 7.89412C23.618 7.93391 23.6351 7.9737 23.675 7.99075ZM25.2302 8.63305C25.2074 8.62169 25.179 8.63305 25.1676 8.65011C25.1562 8.66716 25.1676 8.70126 25.1847 8.71263L25.2758 8.76379C25.2758 8.76379 25.3214 8.76947 25.3385 8.74674C25.3499 8.724 25.3442 8.69558 25.3214 8.68421L25.2302 8.62737V8.63305ZM26.5918 9.62778C26.5861 9.62209 26.5747 9.62778 26.5633 9.62778C26.5519 9.62778 26.5633 9.64483 26.5633 9.6562L26.643 9.72441C26.643 9.72441 26.6601 9.72441 26.6658 9.72441C26.6715 9.71872 26.6658 9.70735 26.6658 9.70167L26.5861 9.63346L26.5918 9.62778ZM13.5176 30.2384L13.6258 30.2952C13.6258 30.2952 13.6429 30.3009 13.6486 30.3066C13.9904 30.4601 14.3949 30.3123 14.5487 29.9712C14.7025 29.6302 14.5544 29.2266 14.2126 29.0732L14.1101 29.0277H14.1044C13.774 28.8742 13.3809 29.0106 13.2157 29.3346C13.0505 29.67 13.1872 30.0736 13.5176 30.2441V30.2384ZM12.5605 28.1637H12.5548C12.2643 27.9704 11.8712 28.0443 11.6718 28.3285C11.4668 28.6184 11.5408 29.022 11.8313 29.2266L11.9339 29.2948C11.9339 29.2948 11.9453 29.3062 11.951 29.3062C12.2529 29.4995 12.6517 29.4142 12.8454 29.1186C13.0391 28.8174 12.9536 28.4195 12.6574 28.2262L12.5662 28.1637H12.5605ZM10.4071 28.0671C10.4071 28.0671 10.4185 28.0784 10.4242 28.0784C10.6806 28.3058 11.068 28.2831 11.2958 28.0273C11.5237 27.7715 11.5009 27.385 11.2446 27.1576L11.1591 27.0837H11.1534C10.9085 26.862 10.5268 26.8734 10.2989 27.1178C10.0653 27.3622 10.0767 27.7544 10.3217 27.9875L10.4128 28.0728L10.4071 28.0671ZM9.08549 26.629C9.08549 26.629 9.09688 26.6404 9.09688 26.646C9.30197 26.8961 9.67226 26.9246 9.92292 26.7199C10.1736 26.5153 10.2021 26.1458 9.99698 25.8957L9.92292 25.8048C9.72353 25.5604 9.36463 25.5206 9.11967 25.7138C8.86331 25.9128 8.81774 26.2766 9.01713 26.5324L9.09118 26.629H9.08549ZM7.9974 25.009C7.9974 25.009 8.00309 25.0204 8.00879 25.0261C8.1683 25.2875 8.51011 25.3728 8.77216 25.2136C9.03422 25.0545 9.11967 24.7134 8.96016 24.452L8.90319 24.3553C8.74938 24.0996 8.41896 24.0086 8.1626 24.1564C7.89485 24.3042 7.80371 24.6395 7.95182 24.9067L8.01449 25.0147L7.9974 25.009ZM7.15997 23.2526C7.15997 23.2526 7.15997 23.264 7.16566 23.2697C7.2796 23.5368 7.58153 23.6619 7.84928 23.5482C8.11703 23.4345 8.24236 23.1332 8.12842 22.8661L8.08285 22.7581C7.97461 22.4966 7.67838 22.3659 7.41632 22.4682C7.14857 22.5705 7.01185 22.8718 7.11439 23.1389L7.15997 23.2526ZM6.59598 21.3996C6.59598 21.3996 6.59598 21.411 6.59598 21.4166C6.66435 21.6781 6.93209 21.8373 7.19415 21.7691C7.4562 21.7009 7.61571 21.4337 7.54735 21.1722L7.51887 21.0585C7.4562 20.7971 7.19984 20.6379 6.93779 20.6948C6.67574 20.7516 6.50483 21.0131 6.5618 21.2745L6.59029 21.3939L6.59598 21.3996ZM7.22833 19.4102L7.21694 19.2965C7.19415 19.0464 6.97767 18.8645 6.73271 18.8815C6.48205 18.8986 6.28836 19.1146 6.30545 19.3704V19.4897C6.30545 19.4897 6.31684 19.5011 6.31684 19.5068C6.34532 19.7569 6.5675 19.9445 6.82386 19.916C7.07452 19.8876 7.26251 19.6659 7.23403 19.4102H7.22833ZM6.72131 18.0175C6.96058 18.0289 7.15997 17.847 7.17136 17.6083V17.4946C7.18275 17.2616 7.01185 17.0626 6.77828 17.0456C6.54471 17.0285 6.33963 17.199 6.31684 17.4378L6.30545 17.5571C6.30545 17.5571 6.30545 17.5685 6.30545 17.5742C6.29405 17.8129 6.47635 18.0119 6.71562 18.0232L6.72131 18.0175ZM6.60738 15.6529V15.6643C6.5618 15.8803 6.70422 16.0906 6.9207 16.1304C7.13718 16.1759 7.34796 16.0338 7.38784 15.8178L7.41063 15.7041C7.4505 15.4938 7.31948 15.2892 7.11439 15.238C6.90361 15.1868 6.68713 15.3176 6.64156 15.5336L6.61307 15.6529H6.60738ZM7.22263 13.709L7.17706 13.8227C7.17706 13.8227 7.17706 13.8283 7.17706 13.834C7.1087 14.0216 7.20554 14.2319 7.39923 14.3001C7.58723 14.3683 7.79801 14.2717 7.86637 14.0784L7.90625 13.9704C7.97461 13.7829 7.88346 13.5782 7.70116 13.5043C7.51317 13.4305 7.30239 13.5214 7.22833 13.709H7.22263ZM8.14551 12.5551C8.31072 12.6404 8.51011 12.5835 8.60126 12.4187L8.65253 12.3164C8.73798 12.1572 8.68101 11.9583 8.5272 11.8673C8.36769 11.7764 8.1626 11.8275 8.07146 11.9867L8.00879 12.089C8.00879 12.089 8.00879 12.0947 8.00879 12.1004C7.92334 12.2652 7.98031 12.4642 8.14551 12.5551ZM9.17094 10.4179L9.09688 10.5088C9.09688 10.5088 9.09688 10.5088 9.09118 10.5145C8.98864 10.6509 9.01713 10.8385 9.15385 10.9408C9.29057 11.0431 9.47857 11.0147 9.57541 10.8783L9.64377 10.7873C9.74062 10.6566 9.71783 10.4747 9.5925 10.3724C9.46148 10.2701 9.27348 10.2871 9.17094 10.4179ZM10.7717 9.50273L10.8515 9.42315C10.954 9.32083 10.9597 9.15599 10.8629 9.048C10.7603 8.94 10.5894 8.93431 10.4812 9.03094L10.3958 9.11052C10.3958 9.11052 10.3958 9.11052 10.3901 9.1162C10.2818 9.21852 10.2818 9.39473 10.3901 9.49704C10.4926 9.60504 10.6692 9.60504 10.7717 9.49704V9.50273ZM11.8257 8.26359C11.9054 8.37158 12.0535 8.39432 12.1618 8.31474L12.2529 8.24653C12.3555 8.16696 12.3839 8.02485 12.3099 7.91685C12.2358 7.80886 12.0877 7.78044 11.9795 7.85433L11.8826 7.92254C11.8826 7.92254 11.8826 7.92254 11.8769 7.92254C11.7687 8.00212 11.7459 8.1499 11.8257 8.2579V8.26359ZM13.5233 6.97897C13.4208 7.03013 13.3809 7.15518 13.4321 7.2575C13.4834 7.35981 13.6088 7.3996 13.7113 7.34844L13.8138 7.29729C13.9107 7.24613 13.9506 7.12676 13.905 7.02445C13.8537 6.92213 13.7341 6.87666 13.6315 6.92782L13.5233 6.97897C13.5233 6.97897 13.5233 6.97897 13.5176 6.97897H13.5233ZM15.4089 6.24572L15.295 6.27983C15.2039 6.31393 15.1526 6.41056 15.1868 6.50719C15.2209 6.59814 15.3178 6.6493 15.4146 6.61519L15.5229 6.5754C15.614 6.5413 15.6596 6.45035 15.6311 6.35941C15.6026 6.26846 15.5058 6.2173 15.4089 6.24572ZM17.1863 6.14341L17.3003 6.12067C17.3743 6.10362 17.4256 6.03541 17.4142 5.95583C17.4028 5.87626 17.3288 5.8251 17.249 5.83647L17.1294 5.85352C17.0496 5.87057 16.9983 5.94446 17.0097 6.02404C17.0211 6.10362 17.1009 6.15478 17.1806 6.14341H17.1863ZM19.0264 5.9331H19.1403C19.203 5.9331 19.2486 5.88194 19.2486 5.81941C19.2486 5.75689 19.1973 5.70573 19.1347 5.70573H19.015C18.9524 5.70573 18.9011 5.76257 18.9068 5.8251C18.9125 5.88762 18.9637 5.93878 19.0264 5.9331ZM21.0146 5.85352L20.9007 5.83647C20.8551 5.83647 20.8152 5.86489 20.8095 5.91036C20.8095 5.95583 20.838 5.99562 20.8836 6.00131L20.9975 6.01267C21.0431 6.01267 21.083 5.98994 21.0887 5.94446C21.0944 5.89899 21.0659 5.8592 21.0203 5.85352H21.0146ZM22.8433 6.27983L22.7293 6.24572C22.7009 6.24004 22.6724 6.25709 22.6667 6.28551C22.661 6.31393 22.6781 6.34235 22.7065 6.34804L22.8205 6.37646C22.8205 6.37646 22.8718 6.37077 22.8831 6.34235C22.8888 6.31393 22.8775 6.28551 22.849 6.27983H22.8433ZM24.4783 6.91645C24.4669 6.91645 24.4555 6.91645 24.4498 6.92782C24.4498 6.93919 24.4498 6.95055 24.4612 6.95624L24.5694 7.00171C24.5694 7.00171 24.5922 7.00171 24.5922 6.99034C24.5922 6.97897 24.5922 6.96761 24.5808 6.96761L24.4726 6.91645H24.4783ZM17.4199 32.3358C17.4883 31.9266 17.2148 31.5344 16.799 31.4662L16.6793 31.4434H16.6679C16.2692 31.3752 15.8875 31.6367 15.8077 32.0346C15.7223 32.4438 15.99 32.836 16.3945 32.9213L16.5312 32.9497C16.5312 32.9497 16.5483 32.9497 16.554 32.9497C16.9642 33.0179 17.3572 32.7451 17.4256 32.3302L17.4199 32.3358ZM15.352 31.7674C15.4773 31.3923 15.2665 30.983 14.8905 30.8637L14.7709 30.8239H14.7595C14.3949 30.7045 13.9961 30.8921 13.8651 31.2559C13.7284 31.6253 13.9221 32.0403 14.2981 32.171L14.4291 32.2165C14.4291 32.2165 14.4462 32.2222 14.4519 32.2222C14.8279 32.3472 15.238 32.1369 15.3577 31.7617L15.352 31.7674ZM13.3695 31.0455C13.5404 30.7102 13.4037 30.2952 13.0619 30.1304L12.9536 30.0736H12.9479C12.6175 29.9087 12.2187 30.0338 12.0421 30.3578C11.8598 30.6874 11.9852 31.1024 12.3156 31.2843L12.4352 31.3468C12.4352 31.3468 12.4523 31.3525 12.458 31.3582C12.7941 31.5287 13.21 31.3923 13.3752 31.0512L13.3695 31.0455ZM11.518 30.0281C11.7231 29.7325 11.6547 29.3289 11.3585 29.1243L11.256 29.0504H11.2503C10.9654 28.8458 10.5724 28.9083 10.3616 29.1868C10.1451 29.471 10.2021 29.8803 10.4869 30.0906L10.5951 30.1702C10.5951 30.1702 10.6065 30.1816 10.6122 30.1816C10.9085 30.3862 11.3129 30.318 11.518 30.0224V30.0281ZM8.96016 28.7492C8.96016 28.7492 8.97155 28.7605 8.97725 28.7662C9.22221 28.9993 9.61529 28.9936 9.84886 28.7492C10.0824 28.5047 10.0767 28.1125 9.83177 27.8795L9.74062 27.7885C9.50135 27.5555 9.12536 27.5555 8.8861 27.7885C8.64114 28.0273 8.64114 28.4138 8.87471 28.6525L8.97155 28.7492H8.96016ZM8.48732 26.4073L8.41326 26.3107C8.22527 26.0606 7.87207 26.0094 7.61571 26.1913C7.35936 26.3789 7.29669 26.737 7.48468 26.9985L7.56444 27.1065C7.56444 27.1065 7.57014 27.1178 7.57583 27.1235C7.76953 27.3793 8.13982 27.4248 8.39048 27.2258C8.64683 27.0326 8.69241 26.6631 8.49302 26.413L8.48732 26.4073ZM7.38214 24.7532L7.31948 24.6395C7.17706 24.3781 6.85804 24.2814 6.59598 24.4179C6.32823 24.5543 6.22569 24.884 6.36241 25.1511L6.42508 25.2705C6.42508 25.2705 6.43078 25.2818 6.43647 25.2875C6.58459 25.549 6.915 25.6456 7.17706 25.4978C7.43911 25.3501 7.53596 25.0204 7.38784 24.7589L7.38214 24.7532ZM5.56486 23.2981C5.56486 23.2981 5.56486 23.3095 5.57056 23.3151C5.6731 23.5766 5.96364 23.713 6.23139 23.6107C6.49344 23.5084 6.63016 23.2185 6.52762 22.9514L6.48205 22.832C6.3852 22.5705 6.10036 22.4398 5.84401 22.525C5.57626 22.616 5.43384 22.9059 5.52498 23.1674L5.57056 23.2924L5.56486 23.2981ZM5.01797 21.2404C5.07494 21.4962 5.3256 21.6611 5.58195 21.6042C5.83831 21.5474 6.00352 21.2973 5.94655 21.0415L5.91806 20.9164C5.8611 20.6607 5.62183 20.5015 5.37117 20.547C5.11481 20.5924 4.94391 20.8425 4.98948 21.0983L5.01227 21.2291C5.01227 21.2291 5.01227 21.2404 5.01227 21.2461L5.01797 21.2404ZM4.7787 19.0975C4.7787 19.0975 4.7787 19.1089 4.7787 19.1146C4.79579 19.359 5.00657 19.5409 5.24584 19.5238C5.4908 19.5068 5.6731 19.2965 5.65601 19.0577L5.65031 18.927C5.63322 18.6883 5.43384 18.5064 5.20027 18.5121C4.9553 18.5177 4.76731 18.7224 4.77301 18.9611V19.0918L4.7787 19.0975ZM5.23445 17.415C5.45662 17.4321 5.65601 17.2672 5.6731 17.0456L5.68449 16.9148C5.70159 16.6931 5.54777 16.4999 5.33129 16.4771C5.10912 16.4487 4.90973 16.6079 4.88125 16.8296L4.86415 16.9603V16.9717C4.84706 17.1933 5.01227 17.3923 5.23445 17.4093V17.415ZM5.26293 14.8856C5.21736 15.0845 5.33699 15.2835 5.53638 15.3346C5.73577 15.3801 5.93515 15.2607 5.98643 15.0618L6.01491 14.9367C6.06048 14.7378 5.94655 14.5445 5.75286 14.4934C5.55347 14.4422 5.35408 14.5559 5.29711 14.7492L5.26293 14.8799V14.8913V14.8856ZM6.02061 12.7484L5.96933 12.8677C5.96933 12.8677 5.96933 12.8734 5.96933 12.8791C5.90097 13.0496 5.98643 13.2486 6.15733 13.3168C6.32823 13.385 6.52762 13.2997 6.59598 13.1292L6.64156 13.0098C6.70992 12.8393 6.63016 12.6517 6.46496 12.5778C6.29405 12.5039 6.10036 12.5778 6.0263 12.7484H6.02061ZM7.05742 11.4126C7.19984 11.4979 7.38784 11.4467 7.47329 11.3046L7.53596 11.1909C7.61571 11.0488 7.57583 10.8726 7.43911 10.7817C7.29669 10.6907 7.11439 10.7362 7.02324 10.8726L6.95488 10.9863C6.95488 10.9863 6.95488 10.992 6.95488 10.9976C6.86943 11.1398 6.9207 11.3273 7.06312 11.4126H7.05742ZM8.61835 9.63346L8.6981 9.53115C8.78925 9.41746 8.77216 9.25831 8.66392 9.16168C8.55568 9.06505 8.38478 9.07642 8.28793 9.1901L8.20248 9.28673C8.20248 9.28673 8.20248 9.28673 8.19679 9.29241C8.10564 9.40609 8.12273 9.57662 8.23666 9.66756C8.3506 9.75851 8.5215 9.74146 8.61265 9.62778L8.61835 9.63346ZM10.0084 8.14422L10.1052 8.05896C10.1964 7.9737 10.2078 7.83159 10.1223 7.74065C10.0426 7.64402 9.89443 7.63265 9.79759 7.71791L9.69504 7.80317C9.69504 7.80317 9.69505 7.80317 9.68935 7.80317C9.5925 7.88843 9.58681 8.03622 9.67226 8.13285C9.75771 8.22948 9.90583 8.23517 10.0027 8.1499L10.0084 8.14422ZM11.6092 6.87666L11.7174 6.80277C11.8029 6.74024 11.8313 6.62656 11.7744 6.53561C11.7174 6.44467 11.5978 6.41625 11.5066 6.47309L11.3927 6.5413C11.3015 6.60382 11.2788 6.72319 11.3414 6.81414C11.4041 6.90508 11.5237 6.92782 11.6149 6.86529L11.6092 6.87666ZM13.2442 5.56363C13.1644 5.60342 13.1302 5.70005 13.1701 5.77962C13.21 5.8592 13.3068 5.89331 13.3866 5.85352L13.5005 5.79668C13.5803 5.75689 13.6144 5.66594 13.5803 5.58636C13.5461 5.50679 13.4492 5.467 13.3695 5.5011L13.2499 5.55226L13.2442 5.56363ZM15.295 5.10321L15.4203 5.06343C15.483 5.04069 15.5229 4.97816 15.5058 4.90995C15.4887 4.84174 15.4203 4.80196 15.352 4.81901L15.2266 4.85311C15.1583 4.87585 15.1184 4.94406 15.1412 5.01227C15.164 5.08048 15.2323 5.12027 15.3007 5.09753L15.295 5.10321ZM17.3003 4.6428L17.4256 4.62575C17.4712 4.62006 17.5054 4.57459 17.4997 4.52343C17.4997 4.47228 17.4484 4.43817 17.3971 4.44386L17.2661 4.46091C17.2148 4.46659 17.1806 4.51775 17.1863 4.56891C17.192 4.62006 17.2433 4.65417 17.2946 4.64848L17.3003 4.6428ZM19.3625 4.48365H19.4935C19.522 4.48365 19.5505 4.46091 19.5505 4.43249C19.5505 4.40407 19.5277 4.37565 19.4992 4.37565H19.3682C19.334 4.37565 19.3113 4.40407 19.3113 4.43249C19.3113 4.46659 19.3397 4.48933 19.3682 4.48933L19.3625 4.48365ZM21.4362 4.59164C21.4248 4.59164 21.4134 4.59733 21.4077 4.6087C21.4077 4.62006 21.4134 4.63143 21.4248 4.63712L21.5501 4.65417C21.5501 4.65417 21.5729 4.65417 21.5729 4.63712C21.5729 4.62575 21.5729 4.61438 21.5558 4.61438L21.4305 4.59164H21.4362ZM16.3888 33.1657C16.366 33.1203 16.3375 33.0805 16.309 33.0464C16.2806 33.0123 16.2464 32.9725 16.2065 32.944C16.1324 32.8815 16.0413 32.8304 15.9444 32.8019C15.9217 32.7963 15.8932 32.7906 15.8704 32.7849H15.8647L15.728 32.7565H15.7166C15.6653 32.7451 15.6197 32.7394 15.5685 32.7394C15.4203 32.7394 15.2779 32.7792 15.1583 32.8588C15.0785 32.9099 15.0102 32.9781 14.9532 33.052C14.8962 33.1316 14.8564 33.2226 14.8279 33.3192C14.8051 33.4215 14.7994 33.5238 14.8165 33.6205C14.8677 33.9103 15.0842 34.1604 15.3862 34.2343L15.5343 34.2684C15.5343 34.2684 15.5514 34.2684 15.5571 34.2684C15.5855 34.2684 15.6083 34.2798 15.6368 34.2798C15.8419 34.3026 16.0413 34.2343 16.1894 34.115C16.2293 34.0866 16.2635 34.0524 16.2919 34.0127C16.3717 33.916 16.4287 33.8023 16.4572 33.6773C16.4742 33.5977 16.4742 33.5238 16.4685 33.4499C16.4685 33.3988 16.4515 33.3533 16.4401 33.3021C16.423 33.2567 16.4059 33.2112 16.3831 33.1657H16.3888ZM6.76119 26.9473L6.68144 26.8336C6.59029 26.7029 6.46496 26.629 6.32254 26.6062C6.28836 26.6006 6.25418 26.5949 6.2143 26.5949C6.10606 26.5949 5.99782 26.629 5.90667 26.6915C5.74716 26.7995 5.65601 26.9757 5.65601 27.1576C5.65601 27.2656 5.68449 27.3736 5.75286 27.4759L5.83831 27.601C5.83831 27.601 5.84401 27.6123 5.8497 27.618C5.94085 27.7431 6.07757 27.8227 6.21999 27.8454C6.25418 27.8511 6.29405 27.8511 6.32823 27.8511C6.36241 27.8511 6.40229 27.8454 6.43647 27.8397C6.47065 27.834 6.51053 27.817 6.54471 27.8056C6.57889 27.7885 6.61307 27.7715 6.64156 27.7488C6.7384 27.6805 6.80677 27.5896 6.84095 27.4873C6.85234 27.4532 6.86373 27.4191 6.86943 27.3793C6.89222 27.2372 6.86373 27.0837 6.76689 26.9587L6.76119 26.9473ZM4.71034 23.0139L4.68755 22.9457L4.66477 22.8775C4.65337 22.849 4.64198 22.8149 4.62489 22.7922C4.59071 22.7354 4.55083 22.6899 4.50526 22.6558C4.45968 22.616 4.40271 22.5876 4.34575 22.5705C4.31726 22.5592 4.28878 22.5535 4.2546 22.5535C4.22611 22.5535 4.19193 22.5535 4.16345 22.5535C4.12927 22.5535 4.10078 22.5648 4.0666 22.5705C3.96976 22.5989 3.89 22.6558 3.82734 22.7297C3.81025 22.7524 3.78746 22.7808 3.77606 22.8093C3.7191 22.9173 3.70201 23.0537 3.73619 23.1787L3.78176 23.3208C3.78176 23.3208 3.78176 23.3322 3.78176 23.3379C3.86721 23.5937 4.14636 23.7301 4.40271 23.6448C4.46538 23.6221 4.52235 23.588 4.57362 23.5482C4.71604 23.4231 4.7787 23.2185 4.71034 23.0253V23.0139ZM3.34311 19.0293C3.39438 19.0464 3.44565 19.0577 3.50262 19.0577C3.73049 19.052 3.91279 18.8645 3.90139 18.6314V18.4893C3.90139 18.3529 3.82734 18.2335 3.7191 18.1596C3.65643 18.1142 3.57668 18.0914 3.49692 18.0914C3.41147 18.0914 3.33171 18.1142 3.26905 18.1596C3.22347 18.1881 3.18929 18.2279 3.15511 18.2676C3.13802 18.2904 3.12663 18.3131 3.11524 18.3358C3.09245 18.387 3.08105 18.4382 3.08105 18.495V18.6428V18.6542C3.08105 18.8247 3.19499 18.9668 3.34311 19.0293ZM4.00963 14.4138C4.18623 14.465 4.37423 14.357 4.4198 14.1808L4.45968 14.0443C4.48247 13.9534 4.47108 13.8681 4.4312 13.7942C4.39132 13.7203 4.32296 13.6635 4.23751 13.6351C4.19193 13.6237 4.14636 13.618 4.10648 13.6237C3.97545 13.6351 3.86152 13.726 3.82164 13.8568L3.77606 13.9989C3.77606 13.9989 3.77606 14.0045 3.77606 14.0102C3.72479 14.1864 3.83303 14.374 4.00963 14.4195V14.4138ZM12.9422 4.18239C12.9707 4.21081 13.0163 4.21649 13.0562 4.20512L13.1872 4.14828C13.1872 4.14828 13.21 4.13691 13.2214 4.12555C13.2385 4.10849 13.2499 4.08007 13.2499 4.05734C13.2499 4.04597 13.2499 4.02892 13.2442 4.01755C13.2328 3.98913 13.2157 3.97207 13.1929 3.96071C13.1701 3.94934 13.1416 3.94934 13.1131 3.96071L12.9764 4.01186C12.9365 4.02892 12.9137 4.0687 12.9137 4.10849C12.9137 4.11986 12.9137 4.13691 12.9194 4.14828C12.9194 4.15965 12.9308 4.17102 12.9422 4.18239ZM20.2113 32.9725H20.2056L20.0689 32.9838H20.0575C19.6132 33.0293 19.2771 33.4158 19.3056 33.8649C19.334 34.3253 19.7328 34.6777 20.1886 34.6493L20.3424 34.6379C20.3424 34.6379 20.3652 34.6379 20.3709 34.6379C20.8323 34.5924 21.1684 34.1832 21.1285 33.7228C21.083 33.2624 20.6728 32.927 20.2113 32.9668V32.9725ZM18.0238 33.0293H18.0181L17.8814 33.0236H17.87C17.4427 33.0009 17.0724 33.3192 17.0325 33.7512C16.9927 34.1889 17.3174 34.5754 17.756 34.6152L17.9098 34.6265C17.9098 34.6265 17.9269 34.6265 17.9383 34.6265C18.377 34.6493 18.7587 34.3139 18.7814 33.8706C18.8042 33.4329 18.4681 33.052 18.0238 33.0293ZM13.7341 32.1767L13.6031 32.1255H13.5917C13.2271 31.9891 12.8226 32.1653 12.6745 32.5291C12.6574 32.5746 12.6403 32.62 12.6346 32.6712C12.589 32.9043 12.6688 33.143 12.834 33.3078C12.9023 33.376 12.9821 33.4272 13.0733 33.467L13.2157 33.5238C13.2157 33.5238 13.2328 33.5295 13.2385 33.5352C13.284 33.5522 13.3353 33.5636 13.3809 33.5693C13.4265 33.575 13.4777 33.5807 13.5233 33.575C13.5689 33.5693 13.6144 33.5636 13.66 33.5522C13.8879 33.4954 14.0816 33.3362 14.167 33.0975C14.2354 32.9099 14.224 32.711 14.1442 32.5462C14.0645 32.3813 13.9221 32.2392 13.7398 32.171L13.7341 32.1767ZM11.7231 31.2786L11.6035 31.2104H11.5978C11.3984 31.0967 11.1648 31.0967 10.9711 31.1933C10.8572 31.2502 10.7547 31.3411 10.6863 31.4605C10.6635 31.5003 10.6407 31.5401 10.6293 31.5855C10.5724 31.7561 10.5837 31.938 10.6578 32.0971C10.6977 32.1767 10.749 32.2506 10.8173 32.3074C10.8515 32.3358 10.8857 32.3643 10.9313 32.387L11.0623 32.4609C11.0623 32.4609 11.068 32.4609 11.0737 32.4666C11.0737 32.4666 11.0794 32.4666 11.0851 32.4723C11.1249 32.495 11.1705 32.5121 11.2104 32.5234C11.2503 32.5348 11.2958 32.5462 11.3414 32.5518C11.387 32.5518 11.4326 32.5518 11.4724 32.5518C11.6889 32.5291 11.894 32.4041 12.0079 32.1994C12.1675 31.9095 12.0934 31.5571 11.8484 31.3525C11.8143 31.3241 11.7744 31.2956 11.7345 31.2729L11.7231 31.2786ZM9.86025 30.0849L9.75201 29.9997H9.74632C9.64377 29.9144 9.52414 29.8746 9.40451 29.8689C9.245 29.8576 9.07979 29.9087 8.94876 30.011C8.91458 30.0395 8.8861 30.0679 8.85761 30.102C8.74368 30.2384 8.6981 30.4089 8.7152 30.5738C8.7152 30.6136 8.72659 30.6533 8.73798 30.6931C8.77216 30.8125 8.84622 30.9205 8.94876 31.0058L9.0627 31.1024C9.0627 31.1024 9.07409 31.1138 9.07979 31.1138C9.11397 31.1422 9.15385 31.1649 9.19373 31.182C9.27348 31.2218 9.35324 31.2388 9.43869 31.2445C9.56402 31.2502 9.68935 31.2218 9.79759 31.1592C9.87165 31.1194 9.93431 31.0626 9.99128 30.9887C10.0995 30.8466 10.1394 30.6761 10.1166 30.5112C10.0938 30.3464 10.0084 30.1929 9.86595 30.0849H9.86025ZM8.19679 28.6241L8.09994 28.5275C8.04297 28.465 7.98031 28.4195 7.90625 28.3911C7.83789 28.3626 7.75813 28.3456 7.68407 28.3399C7.61001 28.3399 7.53026 28.3513 7.4619 28.374C7.42772 28.3854 7.38784 28.4024 7.35936 28.4252C7.32517 28.4479 7.29099 28.4706 7.26251 28.4991C7.17136 28.5843 7.1087 28.6866 7.08021 28.8003C7.06882 28.8401 7.06312 28.8742 7.06312 28.914C7.05742 29.0675 7.1087 29.2266 7.22263 29.346L7.32517 29.454C7.32517 29.454 7.33657 29.4654 7.33657 29.471C7.42202 29.562 7.53596 29.6188 7.64989 29.6416C7.80371 29.6757 7.96322 29.6416 8.09994 29.5563C8.13412 29.5336 8.1683 29.5108 8.19679 29.4824C8.22527 29.454 8.25375 29.4199 8.27654 29.3858C8.43605 29.1527 8.41326 28.8344 8.20818 28.6241H8.19679ZM5.58765 25.0488L5.52498 24.9237C5.39396 24.668 5.08633 24.5656 4.82997 24.685C4.66477 24.7646 4.56222 24.9124 4.53374 25.0829C4.51665 25.1852 4.53374 25.2875 4.57931 25.3842L4.64198 25.5206C4.64198 25.5206 4.64198 25.5319 4.64768 25.5376C4.66477 25.5717 4.68186 25.6002 4.70464 25.6286C4.81288 25.765 4.98379 25.8389 5.15469 25.8218C5.22305 25.8218 5.29141 25.7991 5.35408 25.765C5.38826 25.7479 5.41674 25.7309 5.44523 25.7082C5.5022 25.6627 5.54207 25.6115 5.57626 25.549C5.61044 25.4865 5.62753 25.424 5.63892 25.3557C5.65031 25.2875 5.63892 25.2193 5.62183 25.1511C5.61044 25.117 5.59904 25.0829 5.58195 25.0488H5.58765ZM4.0666 21.1836C4.10078 21.1381 4.12357 21.0813 4.13496 21.0244C4.14636 20.9676 4.15205 20.9051 4.13496 20.8482L4.11218 20.7061C4.0723 20.4958 3.90139 20.3423 3.69631 20.331C3.66783 20.331 3.63934 20.331 3.60516 20.331C3.57668 20.331 3.5425 20.3423 3.51401 20.3537C3.40008 20.3935 3.31462 20.4788 3.26335 20.5811C3.22347 20.6607 3.21208 20.7459 3.22347 20.8425L3.24626 20.9903C3.24626 20.9903 3.24626 21.0017 3.24626 21.0074C3.25766 21.0699 3.28044 21.1268 3.31462 21.1722C3.3602 21.2461 3.42856 21.303 3.50832 21.3371C3.58807 21.3712 3.67922 21.3825 3.77037 21.3712C3.8957 21.3484 3.99824 21.2802 4.06091 21.1836H4.0666ZM3.38299 16.6306C3.43995 16.6761 3.50832 16.7102 3.58237 16.7216C3.61086 16.7216 3.63364 16.7216 3.65643 16.7216C3.67922 16.7216 3.7077 16.7159 3.73049 16.7102C3.82164 16.6818 3.90139 16.6192 3.95267 16.534C3.97545 16.4942 3.99254 16.443 3.99824 16.3919L4.01533 16.2498C4.02672 16.1702 4.01533 16.102 3.98115 16.0395C3.92988 15.9372 3.82734 15.8576 3.70201 15.8405C3.49692 15.8121 3.30893 15.9485 3.28044 16.1531L3.25766 16.3009C3.25766 16.3009 3.25766 16.3009 3.25766 16.3066C3.25766 16.3066 3.25766 16.3066 3.25766 16.3123C3.25196 16.3635 3.25766 16.4146 3.26905 16.4601C3.29184 16.5283 3.33171 16.5908 3.38299 16.642V16.6306ZM4.7844 12.2084C4.7844 12.2084 4.82428 12.2254 4.84137 12.2254C4.97809 12.2538 5.12051 12.1856 5.17748 12.0549L5.23445 11.9242C5.29711 11.7764 5.23445 11.6059 5.09203 11.5376C5.05785 11.5206 5.01797 11.5092 4.97809 11.5092C4.86415 11.5035 4.75022 11.5661 4.69895 11.6741L4.63628 11.8048C4.63628 11.8048 4.63628 11.8105 4.63628 11.8162C4.61919 11.856 4.6135 11.8901 4.6078 11.9298C4.6078 12.0094 4.63628 12.0833 4.68755 12.1402C4.71604 12.1686 4.74452 12.1913 4.7844 12.2084ZM5.80982 10.0711C5.80982 10.0711 5.8554 10.1223 5.88388 10.1393C5.90097 10.1507 5.91237 10.1564 5.92946 10.1621C5.99212 10.1848 6.06618 10.1848 6.12315 10.1621C6.15163 10.1507 6.18012 10.128 6.2029 10.1052C6.2143 10.0939 6.22569 10.0768 6.23708 10.0655L6.31114 9.94609C6.31114 9.94609 6.32823 9.91198 6.33393 9.90061C6.33963 9.88925 6.34532 9.87219 6.34532 9.85514C6.36241 9.75851 6.32254 9.6562 6.23708 9.59935C6.19151 9.57093 6.14594 9.55388 6.09466 9.55388C6.06048 9.55388 6.032 9.55957 5.99782 9.57093C5.98073 9.57662 5.96933 9.5823 5.95224 9.59367C5.92376 9.61072 5.90097 9.63346 5.87819 9.66188L5.79273 9.78125C5.79273 9.78125 5.79273 9.78125 5.79273 9.78693C5.76425 9.8324 5.75286 9.88356 5.75286 9.93472C5.75286 9.96882 5.75855 10.0029 5.77564 10.0313C5.78134 10.0484 5.79273 10.0598 5.79843 10.0768L5.80982 10.0711ZM7.2853 8.26359C7.2853 8.26359 7.33657 8.29769 7.35936 8.30906C7.38784 8.32043 7.41632 8.32043 7.44481 8.32043C7.47329 8.32043 7.50178 8.30906 7.52456 8.29769C7.54735 8.28632 7.57583 8.26927 7.59292 8.24653L7.68407 8.13854C7.75813 8.04759 7.75243 7.91686 7.66698 7.83728C7.62141 7.79749 7.56444 7.77475 7.51317 7.78044C7.4562 7.78044 7.40493 7.80317 7.35936 7.84865L7.26251 7.95664C7.25112 7.96801 7.24542 7.97938 7.23403 7.99075C7.21124 8.03054 7.20554 8.07033 7.20554 8.1158C7.20554 8.12717 7.20554 8.14422 7.21124 8.15559C7.22263 8.19538 7.24542 8.23517 7.2796 8.26359H7.2853ZM8.94876 6.61519C8.94876 6.61519 8.98294 6.6493 9.00573 6.66066C9.02852 6.67203 9.05131 6.67772 9.07409 6.67772C9.11967 6.67772 9.16524 6.66635 9.20512 6.63793L9.31336 6.54698C9.31336 6.54698 9.34754 6.51288 9.35324 6.49014C9.36463 6.4674 9.37033 6.45035 9.37033 6.42762C9.37033 6.38214 9.36463 6.33667 9.33045 6.30256C9.31336 6.28551 9.29627 6.26846 9.27348 6.25709C9.21082 6.22299 9.13676 6.22867 9.07979 6.27414L8.96585 6.36509C8.90889 6.41625 8.8918 6.49014 8.90889 6.55835C8.91458 6.58109 8.92598 6.60382 8.94307 6.62087L8.94876 6.61519ZM10.9313 5.29647C10.9313 5.29647 10.9654 5.29647 10.9882 5.29647C11.0053 5.29647 11.0224 5.28511 11.0395 5.27942L11.1591 5.20553C11.1933 5.18848 11.2104 5.15437 11.2218 5.12027C11.2275 5.08616 11.2218 5.05206 11.2047 5.01795C11.1762 4.9668 11.1192 4.94406 11.068 4.94974C11.0509 4.94974 11.0338 4.95543 11.0167 4.9668L10.8914 5.04069C10.8743 5.05206 10.8629 5.06343 10.8515 5.08048C10.8173 5.12595 10.8173 5.18848 10.8515 5.23963C10.8743 5.27374 10.9028 5.29647 10.9426 5.30216L10.9313 5.29647ZM15.2266 3.44913L15.3634 3.41503C15.3634 3.41503 15.3805 3.40935 15.3862 3.40366C15.4032 3.38661 15.4146 3.36387 15.4089 3.34114C15.4089 3.33545 15.4089 3.32408 15.3975 3.3184C15.3862 3.30703 15.3748 3.29566 15.3577 3.29566C15.352 3.29566 15.3406 3.29566 15.3349 3.29566L15.1925 3.32977C15.1754 3.32977 15.164 3.34682 15.1526 3.35819C15.1469 3.37524 15.1412 3.39229 15.1469 3.40935C15.1469 3.4264 15.164 3.43777 15.1754 3.44913C15.1925 3.45482 15.2096 3.4605 15.2266 3.45482V3.44913ZM17.4883 3.01714L17.6307 3.00009C17.6307 3.00009 17.6421 3.00009 17.6478 2.99441C17.6478 2.99441 17.6535 2.98304 17.6478 2.97735C17.6478 2.96598 17.6364 2.95462 17.625 2.95462L17.4826 2.96598C17.4712 2.96598 17.4655 2.97735 17.4655 2.98304C17.4655 2.98304 17.4655 2.98872 17.4655 2.99441C17.4655 3.00009 17.4655 3.00577 17.4769 3.01146C17.4883 3.01714 17.4883 3.01714 17.494 3.01146L17.4883 3.01714ZM23.9826 3.36956C24.0567 3.39229 24.1307 3.41503 24.1991 3.43777C24.1251 3.41503 24.051 3.39229 23.9826 3.36956ZM20.012 2.67041C21.4533 2.77841 22.7749 3.01714 23.9826 3.36956C23.8459 3.32977 23.7149 3.2843 23.5782 3.25019C21.6868 2.7443 20.012 2.67041 20.012 2.67041ZM35.4104 19.4784C34.7496 30.335 25.5606 33.5068 25.1619 33.5864C25.1505 33.5864 25.1391 33.5977 25.1277 33.6034C25.122 33.6034 25.1049 33.6091 25.0992 33.6148L24.991 33.6546C24.5295 33.8308 23.9883 33.6261 23.7946 33.1714C23.5952 32.6996 23.8174 32.1653 24.2846 31.9721H24.296L24.3301 31.955C24.1251 31.8697 23.9541 31.7049 23.8573 31.4832C23.6864 31.0797 23.8402 30.6192 24.1991 30.3919C24.0681 30.3066 23.9598 30.1872 23.8915 30.0338C23.8117 29.8576 23.7946 29.6757 23.8288 29.4995C23.7718 29.5734 23.7035 29.6416 23.618 29.6927C23.7206 29.7837 23.8003 29.9087 23.8459 30.0451C23.9826 30.4715 23.7662 30.9262 23.3503 31.0853C23.5041 31.1933 23.618 31.3525 23.675 31.5457C23.806 32.0005 23.544 32.4779 23.0882 32.6087C23.0825 32.6087 23.0711 32.6087 23.0597 32.6144L22.9287 32.6485C22.9287 32.6485 22.923 32.6485 22.9173 32.6485C23.1623 32.7508 23.3617 32.9668 23.43 33.2453C23.5497 33.7171 23.2591 34.1889 22.792 34.3082C22.7863 34.3082 22.7692 34.3082 22.7635 34.3139L22.6496 34.3367C22.2052 34.4333 21.7438 34.1946 21.6014 33.7626C21.4419 33.268 21.7324 32.7622 22.2223 32.6371H22.2337L22.3647 32.603H22.3704C22.3704 32.603 22.3818 32.603 22.3875 32.603C22.1483 32.5007 21.9603 32.2961 21.8919 32.0289C21.7837 31.5969 22.0229 31.1592 22.4388 31.0114C22.2964 30.9091 22.1881 30.7557 22.1312 30.5738C22.0229 30.1986 22.1881 29.8121 22.5129 29.6245C22.4388 29.5563 22.3818 29.471 22.3363 29.3744C22.3761 29.7325 22.1597 30.0679 21.8235 30.1872C21.9261 30.2952 22.0001 30.4373 22.0286 30.5965C22.1027 31.0342 21.8065 31.4491 21.3678 31.523C21.3621 31.523 21.3507 31.523 21.3393 31.523H21.3165C21.4817 31.6537 21.6014 31.847 21.6299 32.0687C21.6925 32.5177 21.3735 32.9327 20.9178 32.9952C20.9121 32.9952 20.9007 32.9952 20.8893 32.9952L20.7867 33.0066C20.3652 33.0464 19.955 32.7792 19.8695 32.3643C19.7727 31.8868 20.0974 31.4434 20.5645 31.3809H20.5759L20.6101 31.3752C20.4506 31.2502 20.3424 31.0683 20.3139 30.8523C20.2626 30.4601 20.5019 30.0963 20.8665 29.9826C20.7753 29.8803 20.707 29.7496 20.6842 29.5961C20.6557 29.4256 20.6842 29.2551 20.7582 29.1129C20.6899 29.1698 20.6101 29.2096 20.5247 29.238C20.593 29.346 20.6386 29.4654 20.6443 29.5961C20.6671 29.9997 20.3652 30.3407 19.9664 30.3805C20.0746 30.5112 20.143 30.6761 20.1487 30.858C20.1544 31.2843 19.8183 31.6367 19.391 31.6424C19.3853 31.6424 19.3739 31.6424 19.3625 31.6424H19.2372C19.2372 31.6424 19.2315 31.6424 19.2258 31.6424C19.4138 31.7902 19.5391 32.0232 19.5334 32.279C19.5277 32.7167 19.1631 33.0634 18.7302 33.052C18.7245 33.052 18.7131 33.052 18.7017 33.052H18.5992C18.1947 33.0236 17.8415 32.711 17.8187 32.3074C17.7902 31.8413 18.1662 31.4662 18.6162 31.4775H18.6276H18.7473H18.753C18.753 31.4775 18.7644 31.4775 18.7701 31.4775C18.5878 31.3354 18.4681 31.1138 18.4738 30.8637C18.4795 30.4601 18.7985 30.1361 19.1916 30.1077C19.0891 29.9826 19.0264 29.8291 19.0264 29.6586C19.0207 29.3062 19.2543 29.0106 19.579 28.9197C19.5277 28.8344 19.4936 28.7435 19.4822 28.6355C19.4423 28.9652 19.1745 29.2153 18.8441 29.2437C18.9068 29.363 18.941 29.5052 18.9239 29.6529C18.884 30.0508 18.5308 30.3407 18.132 30.3066C18.1263 30.3066 18.1149 30.3066 18.1092 30.3066H18.0864C18.2004 30.4544 18.2573 30.6477 18.2346 30.8523C18.1833 31.2559 17.8073 31.5458 17.4028 31.4889C17.3971 31.4889 17.3857 31.4889 17.38 31.4889L17.2889 31.4719C16.9129 31.4093 16.6167 31.0797 16.6394 30.6988C16.6622 30.2611 17.0553 29.9485 17.4712 30.0054H17.4826H17.5111C17.4028 29.8632 17.3459 29.6757 17.3743 29.4824C17.4199 29.13 17.7161 28.8742 18.058 28.8572C18.001 28.7435 17.9725 28.6127 17.9839 28.4763C18.001 28.3229 18.0637 28.1807 18.1605 28.0728C18.0864 28.1069 18.0067 28.1239 17.9269 28.1239C17.9611 28.2319 17.9725 28.3456 17.944 28.465C17.87 28.8231 17.5282 29.0504 17.1693 28.9879C17.2319 29.1243 17.2547 29.2835 17.2148 29.4426C17.1237 29.8178 16.7477 30.0451 16.3717 29.9485C16.366 29.9485 16.3546 29.9485 16.3489 29.9428L16.2407 29.9144C16.2407 29.9144 16.235 29.9144 16.2293 29.9144C16.3603 30.0849 16.4173 30.318 16.3489 30.5397C16.2407 30.9148 15.8476 31.1365 15.4716 31.0228C15.4659 31.0228 15.4545 31.0228 15.4488 31.0171L15.3577 30.9887C15.0102 30.875 14.7766 30.5226 14.8564 30.1645C14.9418 29.7553 15.3577 29.5165 15.7451 29.6245H15.7564L15.8647 29.6586C15.8647 29.6586 15.8761 29.6643 15.8818 29.6643C15.7564 29.4995 15.7052 29.2778 15.7678 29.0618C15.8647 28.7151 16.2179 28.5047 16.5711 28.573C16.5141 28.4422 16.4913 28.2944 16.5312 28.141C16.6053 27.834 16.8844 27.6294 17.1863 27.6294C17.1636 27.5441 17.1579 27.4532 17.1693 27.3622C17.0553 27.6408 16.7648 27.7942 16.4742 27.7431C16.5027 27.8624 16.497 27.9932 16.4515 28.1182C16.3261 28.4536 15.9501 28.6241 15.614 28.4991C15.6083 28.4991 15.5969 28.4991 15.5912 28.4934H15.5741C15.6368 28.6412 15.6425 28.8231 15.5741 28.9936C15.4317 29.3346 15.0443 29.4938 14.7025 29.3574C14.6968 29.3574 14.6854 29.3517 14.6798 29.346L14.6057 29.3119C14.2924 29.1698 14.1158 28.8174 14.224 28.4877C14.3493 28.1125 14.7595 27.9363 15.1127 28.0784H15.1184L15.1469 28.0898C15.0842 27.9363 15.0842 27.7658 15.1469 27.601C15.2665 27.3054 15.5855 27.1519 15.8875 27.2144C15.8647 27.1008 15.8704 26.9814 15.9103 26.8677C15.9615 26.737 16.047 26.629 16.1609 26.5608C16.0926 26.5721 16.0185 26.5721 15.9444 26.5551C15.9444 26.6574 15.933 26.7597 15.8818 26.8563C15.7337 27.1462 15.3805 27.2656 15.0899 27.1349C15.1127 27.2713 15.0899 27.4134 15.0216 27.5441C14.8564 27.8454 14.4747 27.9591 14.1727 27.7885C14.1727 27.7885 14.1613 27.7829 14.1556 27.7772L14.0702 27.726C14.0702 27.726 14.0645 27.726 14.0588 27.7203C14.1329 27.9022 14.1272 28.1125 14.0189 28.2944C13.8366 28.5957 13.4435 28.6923 13.1416 28.5104C13.1416 28.5104 13.1302 28.5047 13.1245 28.4991L13.0505 28.4536C12.7713 28.2717 12.6574 27.9136 12.8055 27.618C12.9764 27.2827 13.3923 27.169 13.7056 27.3566H13.7113L13.7967 27.4134C13.7967 27.4134 13.8024 27.4248 13.8081 27.4248C13.7398 27.2486 13.7455 27.0439 13.848 26.8734C14.0132 26.5949 14.3721 26.4926 14.657 26.6347C14.6399 26.5096 14.657 26.3732 14.7253 26.2481C14.862 25.998 15.1526 25.8844 15.4146 25.9526C15.4146 25.873 15.426 25.7934 15.4602 25.7138C15.295 25.9298 15.0102 25.998 14.7652 25.8844C14.7652 25.9924 14.7253 26.106 14.657 26.2027C14.469 26.4641 14.1044 26.5267 13.8366 26.3391C13.8366 26.3391 13.8252 26.3334 13.8195 26.3277L13.8081 26.3164C13.8252 26.4698 13.791 26.629 13.6885 26.7597C13.4891 27.0212 13.1074 27.0723 12.8454 26.8734C12.8454 26.8734 12.834 26.862 12.8283 26.862L12.777 26.8166C12.5264 26.6119 12.458 26.2481 12.646 25.9867C12.8454 25.7082 13.2328 25.657 13.5005 25.8616H13.5062L13.5233 25.8844C13.5062 25.7366 13.5404 25.5888 13.6372 25.4637C13.8138 25.2364 14.1215 25.1739 14.3721 25.2989C14.3778 25.1966 14.412 25.0943 14.4747 25.0033C14.5487 24.901 14.6513 24.8328 14.7652 24.793C14.7025 24.7873 14.6399 24.7646 14.5772 24.7362C14.5601 24.8271 14.5202 24.9124 14.4519 24.9806C14.2525 25.2023 13.9221 25.2193 13.6942 25.0374C13.6828 25.1625 13.6315 25.2818 13.5404 25.3785C13.3239 25.6002 12.965 25.6115 12.7428 25.3955L12.7314 25.3842L12.6688 25.3216C12.6688 25.3216 12.6688 25.3216 12.6631 25.316C12.6859 25.4922 12.6289 25.6741 12.4922 25.8048C12.2643 26.0265 11.8997 26.0208 11.6775 25.7877L11.6661 25.7764L11.6206 25.7252C11.4155 25.4978 11.3984 25.1397 11.6149 24.9181C11.8427 24.685 12.2187 24.6907 12.4409 24.9181L12.5036 24.9863C12.5036 24.9863 12.5036 24.9976 12.5093 24.9976C12.4865 24.8271 12.5434 24.6509 12.6745 24.5259C12.8853 24.3212 13.2157 24.3155 13.4321 24.5088C13.4435 24.3951 13.4948 24.2814 13.5803 24.1905C13.7569 24.0086 14.036 23.9745 14.2468 24.0939C14.2639 24.0257 14.2981 23.9574 14.3436 23.9006C14.1499 24.0484 13.8822 24.0427 13.6999 23.8836C13.6714 23.9802 13.6144 24.0654 13.5347 24.1337C13.3125 24.3212 12.9764 24.2871 12.7884 24.0654C12.7884 24.0654 12.7827 24.0541 12.777 24.0541L12.7656 24.0427C12.7485 24.1791 12.6745 24.3099 12.5605 24.4008C12.3213 24.5827 11.9852 24.5372 11.8029 24.3042C11.8029 24.3042 11.7972 24.2928 11.7915 24.2871L11.7573 24.236C11.5864 24.0029 11.6149 23.6676 11.837 23.48C12.0763 23.2867 12.4238 23.3265 12.6061 23.5652L12.6175 23.588C12.6346 23.4572 12.703 23.3322 12.8169 23.2469C13.022 23.0878 13.3068 23.1048 13.4948 23.2754C13.5233 23.1901 13.5746 23.1048 13.6543 23.0423C13.7398 22.9684 13.848 22.9343 13.9563 22.9286C13.905 22.9059 13.8537 22.8775 13.8081 22.8377C13.7683 22.9116 13.717 22.9741 13.6429 23.0253C13.4208 23.1674 13.1245 23.1105 12.9707 22.9002C12.9308 23.0025 12.8625 23.0991 12.7599 23.1617C12.5207 23.3038 12.2073 23.2299 12.0649 22.9911C12.0649 22.9911 12.0592 22.9798 12.0535 22.9741L12.0136 22.9059C12.0136 22.9059 12.0136 22.9002 12.0136 22.8945C11.9909 23.0537 11.8997 23.1958 11.7516 23.281C11.5009 23.4175 11.1876 23.3265 11.0452 23.0764C11.0452 23.0764 11.0395 23.065 11.0395 23.0594L11.011 23.0025C10.8857 22.7581 10.954 22.4398 11.1933 22.2977C11.4497 22.1442 11.7687 22.2408 11.9111 22.4909L11.951 22.5648C11.951 22.5648 11.951 22.5762 11.951 22.5819C11.9738 22.4284 12.0592 22.292 12.2016 22.2124C12.4352 22.0817 12.72 22.1556 12.8682 22.3716C12.908 22.2749 12.9764 22.1897 13.0733 22.1272C13.2726 22.0078 13.5176 22.0419 13.6771 22.2011C13.7113 22.1442 13.7512 22.0931 13.8081 22.0533C13.6088 22.1385 13.3752 22.0703 13.2555 21.8884C13.21 21.9623 13.1359 22.0305 13.0505 22.0703C12.8112 22.1783 12.5321 22.0703 12.4181 21.8373C12.4181 21.8373 12.4181 21.8259 12.4124 21.8202V21.8088C12.3611 21.9225 12.27 22.0192 12.1447 22.0703C11.894 22.1726 11.6092 22.0533 11.5066 21.8088C11.5066 21.8088 11.5066 21.7975 11.5009 21.7918L11.4838 21.7406C11.3927 21.4962 11.4895 21.212 11.7288 21.104C11.9795 20.9903 12.2757 21.104 12.3782 21.3598L12.3839 21.3825C12.4295 21.2745 12.5207 21.1836 12.6346 21.1324C12.8511 21.0415 13.096 21.1268 13.2157 21.3143C13.2612 21.2461 13.3239 21.1836 13.4094 21.1495C13.5005 21.104 13.6031 21.0983 13.6942 21.1211C13.6543 21.0926 13.6144 21.0529 13.586 21.0074C13.5347 21.0642 13.472 21.104 13.398 21.1324C13.1701 21.2063 12.9308 21.087 12.8454 20.8653C12.7884 20.9449 12.703 21.0131 12.6004 21.0415C12.3555 21.1097 12.1048 20.9733 12.0364 20.7289C12.0364 20.7289 12.0364 20.7175 12.0364 20.7118L12.0193 20.6436C12.0193 20.6436 12.0193 20.6436 12.0193 20.6379C11.9624 20.7687 11.8541 20.8767 11.7003 20.9108C11.4497 20.9733 11.199 20.8198 11.1363 20.5697C11.1363 20.5697 11.1363 20.5583 11.1363 20.5527L11.1249 20.4958C11.0737 20.2514 11.2047 19.9956 11.4497 19.9274C11.706 19.8535 11.9624 20.0127 12.0307 20.2628L12.0478 20.3367V20.348C12.0991 20.223 12.213 20.1207 12.3555 20.0809C12.589 20.024 12.8226 20.1548 12.8966 20.3765C12.9536 20.3026 13.0334 20.24 13.1302 20.2116C13.3296 20.1548 13.5347 20.24 13.6372 20.4162C13.6771 20.3765 13.7284 20.3423 13.7854 20.3196C13.5917 20.348 13.4037 20.2343 13.341 20.0525C13.284 20.1093 13.2043 20.1491 13.1188 20.1605C12.8853 20.2002 12.6631 20.0411 12.6232 19.8137C12.6232 19.8137 12.6232 19.8024 12.6232 19.7967V19.7853C12.5548 19.8762 12.4523 19.9388 12.3327 19.9501C12.0934 19.9842 11.8712 19.8137 11.8427 19.575C11.8427 19.575 11.8427 19.5636 11.8427 19.5579V19.5068C11.8143 19.2737 11.9681 19.0464 12.2016 19.0123C12.4466 18.9725 12.6745 19.143 12.7087 19.3817V19.4045C12.777 19.3192 12.8739 19.2624 12.9878 19.2453C13.1986 19.2169 13.3866 19.3476 13.4492 19.5409C13.5062 19.4897 13.5746 19.4556 13.6543 19.4386C13.7113 19.4272 13.7683 19.4329 13.8195 19.4386C13.8195 19.4101 13.8195 19.3874 13.8195 19.3647C13.7683 19.3931 13.7113 19.4101 13.6486 19.4158C13.4321 19.4272 13.2499 19.268 13.2328 19.0577C13.1644 19.1146 13.0789 19.1544 12.9764 19.1544C12.7485 19.1544 12.5605 18.9782 12.5548 18.7508V18.7394V18.6712C12.5548 18.6712 12.5548 18.6712 12.5548 18.6655C12.4751 18.7678 12.3555 18.8304 12.213 18.8304C11.9795 18.8304 11.7972 18.6371 11.8029 18.4041V18.3927V18.3415C11.82 18.1199 11.9966 17.9266 12.2187 17.9209C12.458 17.9209 12.646 18.1142 12.646 18.3472V18.4154V18.4268C12.72 18.3302 12.8397 18.2676 12.9764 18.2676C13.1929 18.2676 13.3638 18.4382 13.3809 18.6485C13.4492 18.5973 13.529 18.5632 13.6201 18.5575C13.7227 18.5575 13.8138 18.5916 13.8879 18.6542C13.8993 18.5632 13.9164 18.478 13.9278 18.3927C13.848 18.4723 13.7398 18.5177 13.6201 18.5064C13.4094 18.4893 13.2555 18.3017 13.2726 18.0858V18.0744V18.063C13.1929 18.1255 13.0903 18.154 12.9821 18.1426C12.7656 18.1142 12.6118 17.9152 12.6403 17.6992V17.6879V17.6424C12.6802 17.4321 12.8682 17.2729 13.0789 17.2957C13.3011 17.3184 13.4606 17.5173 13.4321 17.739V17.7618C13.5119 17.7049 13.6088 17.6765 13.7113 17.6879C13.8537 17.7049 13.9676 17.8015 14.0189 17.9323C14.0246 17.9095 14.0303 17.8811 14.036 17.8584C13.979 17.7845 13.9506 17.6822 13.9676 17.5855C13.8936 17.6197 13.8081 17.631 13.7227 17.6083C13.5233 17.5571 13.4037 17.3582 13.4549 17.1592V17.1479L13.472 17.091C13.472 17.091 13.472 17.091 13.472 17.0853C13.3809 17.1536 13.2555 17.182 13.1359 17.1479C12.9365 17.091 12.8169 16.8807 12.8796 16.6818V16.6704L12.891 16.6249C12.9536 16.4317 13.153 16.3066 13.3467 16.3578C13.5575 16.4089 13.6771 16.6249 13.6144 16.8239L13.5974 16.8864C13.5974 16.8864 13.5974 16.8921 13.5974 16.8978C13.6885 16.8296 13.8024 16.8011 13.9221 16.8352C14.1101 16.8864 14.2183 17.074 14.1841 17.2616C14.1898 17.2616 14.2012 17.2559 14.2069 17.2502C14.2297 17.1933 14.2468 17.1365 14.2696 17.0797C14.2012 16.9887 14.1784 16.8637 14.2183 16.75C14.2183 16.75 14.2183 16.7443 14.2183 16.7386V16.7272C14.1386 16.7613 14.0417 16.767 13.9506 16.7272C13.7683 16.6534 13.6828 16.443 13.7569 16.2668C13.7569 16.2668 13.7569 16.2611 13.7569 16.2555L13.774 16.2214C13.848 16.0565 14.036 15.9542 14.2126 16.011C14.412 16.0736 14.5088 16.2952 14.4348 16.4828V16.4999C14.4633 16.4885 14.4975 16.4828 14.5316 16.4771C14.5601 16.426 14.5829 16.3748 14.6114 16.3237C14.543 16.2214 14.5316 16.0906 14.5943 15.9826C14.5943 15.9826 14.5943 15.9769 14.5943 15.9713L14.6228 15.9258C14.5259 15.9656 14.412 15.9599 14.3209 15.903C14.1613 15.8064 14.1101 15.5961 14.2069 15.4369C14.2069 15.4369 14.2069 15.4313 14.2126 15.4256L14.2468 15.3744C14.3721 15.1812 14.6627 15.1584 14.8165 15.3744C14.8905 15.4824 14.8905 15.6245 14.8165 15.7325L14.788 15.7837C14.788 15.7837 14.788 15.7894 14.788 15.795C14.8393 15.7723 14.8962 15.7666 14.9532 15.7723C14.9874 15.7268 15.0159 15.6814 15.05 15.6359C14.9931 15.5279 14.9988 15.3915 15.0785 15.2892C15.0785 15.2892 15.0785 15.2835 15.0842 15.2835L15.1184 15.2437C15.2039 15.1357 15.3463 15.1016 15.4716 15.1471C15.5115 15.1016 15.5571 15.0618 15.5969 15.0163C15.5457 14.9026 15.5685 14.7662 15.6653 14.6753C15.6653 14.6753 15.6653 14.6753 15.671 14.6696L15.7109 14.6355C15.8134 14.5445 15.9558 14.5332 16.0698 14.6014C16.121 14.5616 16.1723 14.5218 16.2236 14.482C16.1894 14.3626 16.2236 14.2319 16.3318 14.158H16.3375L16.3831 14.1296C16.4913 14.0557 16.6338 14.0671 16.7306 14.1523C16.7933 14.1125 16.8559 14.0784 16.9186 14.0443C16.8958 13.925 16.9528 13.8056 17.0667 13.7488H17.0724L17.118 13.726C17.2319 13.6749 17.3629 13.7033 17.4427 13.7942C17.5168 13.7601 17.5965 13.7317 17.6706 13.7033C17.6706 13.5896 17.7389 13.4873 17.8529 13.4475H17.8586L17.9098 13.4305C18.0238 13.3963 18.1377 13.4418 18.2004 13.5328C18.2915 13.51 18.3827 13.4873 18.4738 13.4646C18.4909 13.3679 18.5707 13.2827 18.6789 13.2656H18.6846H18.7359C18.8384 13.2429 18.9353 13.294 18.9865 13.3793C19.0948 13.3679 19.1973 13.3566 19.3056 13.3452C19.3454 13.2656 19.4195 13.2088 19.5163 13.2088H19.522H19.5733C19.6645 13.2088 19.7385 13.2599 19.7784 13.3338C19.9037 13.3338 20.0234 13.3452 20.1487 13.3509C20.1943 13.294 20.2683 13.2599 20.3481 13.2713C20.3481 13.2713 20.3481 13.2713 20.3538 13.2713H20.405C20.4791 13.294 20.5418 13.3395 20.5702 13.4077C20.707 13.4305 20.8437 13.4589 20.9747 13.493C21.026 13.4532 21.0944 13.4418 21.157 13.4589C21.157 13.4589 21.157 13.4589 21.1627 13.4589L21.214 13.4759C21.2766 13.4987 21.3222 13.5441 21.345 13.601C21.4874 13.6521 21.6299 13.7033 21.7666 13.7658C21.8178 13.7431 21.8748 13.7374 21.9318 13.7658C21.9318 13.7658 21.9318 13.7658 21.9375 13.7658L21.9831 13.7886C22.04 13.817 22.0742 13.8681 22.0856 13.925C22.2223 13.9989 22.359 14.0784 22.4901 14.1637C22.5413 14.1467 22.5983 14.1467 22.6496 14.1808L22.6952 14.2092C22.7464 14.2433 22.7749 14.3058 22.7692 14.3683C22.8831 14.4536 22.9914 14.5445 23.0996 14.6469C23.1053 14.6525 23.111 14.6639 23.1224 14.6696C23.1794 14.6469 23.2477 14.6525 23.299 14.698L23.3389 14.7321C23.3959 14.7833 23.4073 14.8629 23.3731 14.9254C23.4756 15.0391 23.5782 15.1471 23.6693 15.2607C23.732 15.2323 23.8117 15.2437 23.8573 15.3005L23.8915 15.3403C23.9371 15.3972 23.9314 15.4767 23.8915 15.5336C23.9883 15.6643 24.0738 15.7894 24.1592 15.9201C24.2219 15.8974 24.2903 15.9201 24.3244 15.9769L24.3472 16.0224C24.3814 16.0793 24.3643 16.1475 24.3187 16.1929C24.4042 16.3407 24.4783 16.4885 24.5466 16.6363C24.6036 16.6363 24.6549 16.659 24.6776 16.7159L24.6947 16.7613C24.7175 16.8125 24.6947 16.8693 24.6549 16.9035C24.7232 17.074 24.7745 17.2388 24.8201 17.4093C24.8656 17.415 24.8998 17.4491 24.9169 17.4946L24.9283 17.5458C24.9397 17.5912 24.9226 17.6367 24.8884 17.6594C24.9283 17.847 24.9568 18.0289 24.9739 18.2165C25.0081 18.2279 25.0365 18.262 25.0422 18.3017V18.3529C25.0479 18.3927 25.0251 18.4325 24.991 18.4495C25.0024 18.6428 24.9967 18.8417 24.991 19.0293C25.0251 19.0464 25.0479 19.0748 25.0479 19.1146V19.1657C25.0422 19.2055 25.0081 19.2339 24.9739 19.2453C24.9511 19.4443 24.9169 19.6375 24.8713 19.8308C24.9112 19.8421 24.934 19.8762 24.9283 19.916L24.9169 19.9672C24.9055 20.007 24.8656 20.0354 24.8258 20.024C24.7745 20.223 24.7061 20.4219 24.6321 20.6095C24.6378 20.6095 24.6492 20.6095 24.6549 20.6095C24.689 20.6209 24.7061 20.655 24.6947 20.6891L24.6776 20.7346C24.6662 20.7687 24.6264 20.78 24.5979 20.7687C24.5865 20.7687 24.5808 20.7573 24.5751 20.7516C24.5694 20.7687 24.558 20.7857 24.5523 20.8028C24.558 20.7857 24.5637 20.763 24.5751 20.7459C24.5637 20.7289 24.558 20.7061 24.5637 20.6891L24.5808 20.6436C24.5808 20.6436 24.6093 20.6095 24.6264 20.6038C24.7004 20.3992 24.7517 20.1946 24.7916 19.9899C24.7745 19.9729 24.7688 19.9501 24.7745 19.9274L24.7859 19.8762C24.7859 19.8762 24.803 19.8365 24.8258 19.8251C24.8599 19.6034 24.877 19.3874 24.8827 19.1771C24.8827 19.1657 24.877 19.1544 24.8827 19.143V19.0918C24.8827 19.0918 24.8827 19.0805 24.8827 19.0748C24.8713 17.0342 23.5383 15.3517 22.9458 14.9311C21.1627 13.3452 18.4966 12.9814 16.5882 14.4081C14.7367 15.7439 14.1044 17.5685 14.1158 19.2624C14.1329 20.9619 14.8393 22.5762 16.0071 23.8097C18.6504 26.6062 22.5015 26.4755 22.5015 26.4755C26.8937 26.6631 30.2833 24.2587 31.6391 21.0529C34.3052 14.3683 31.303 5.81941 24.2789 3.4264C32.7272 6.06952 35.5244 14.2205 35.3705 19.4329L35.4104 19.4784ZM13.8822 21.2006C13.8822 21.2006 13.9335 21.2404 13.9563 21.2632C13.9563 21.2461 13.9563 21.2291 13.9506 21.212C13.9278 21.212 13.905 21.212 13.8822 21.2006ZM14.0759 21.9623C14.0759 21.9623 14.0303 21.9282 14.0132 21.9112C13.9904 21.9396 13.9676 21.968 13.9335 21.9964C13.979 21.9794 14.0303 21.968 14.0759 21.968V21.9623ZM14.3152 22.9343C14.2696 22.9514 14.2183 22.9627 14.1727 22.9684C14.2069 22.9798 14.2411 22.9968 14.2696 23.0196C14.281 22.9911 14.2981 22.9627 14.3152 22.94V22.9343ZM14.6 23.7301C14.5715 23.7187 14.543 23.7073 14.5145 23.6903C14.4975 23.7301 14.4804 23.7699 14.4519 23.804C14.4975 23.7699 14.543 23.7471 14.5943 23.7301H14.6ZM15.1412 24.7021C15.0956 24.7362 15.0443 24.7589 14.9931 24.776C15.033 24.776 15.0728 24.7873 15.1127 24.7987C15.1127 24.7646 15.1298 24.7305 15.1412 24.7021ZM15.6767 25.4694C15.6425 25.4694 15.6083 25.4581 15.5741 25.4524C15.5741 25.4978 15.5571 25.5433 15.54 25.5888C15.5798 25.5433 15.6254 25.5035 15.671 25.4694H15.6767ZM16.0698 25.3444C16.0698 25.3444 16.0527 25.3614 16.0413 25.3671C16.047 25.3671 16.0584 25.3671 16.0641 25.3671C16.0641 25.3557 16.0641 25.3501 16.0641 25.3387L16.0698 25.3444ZM16.3033 24.9465C16.3033 24.9465 16.2806 24.901 16.2692 24.8783C16.2692 24.9067 16.2692 24.9408 16.2692 24.9692C16.2806 24.9579 16.2919 24.9522 16.3033 24.9408V24.9465ZM16.5369 26.4698C16.5369 26.43 16.5369 26.3959 16.5369 26.3561C16.497 26.4073 16.4515 26.4471 16.4002 26.4812C16.4458 26.4755 16.4913 26.4698 16.5369 26.4755V26.4698ZM16.6907 25.998C16.6907 25.998 16.6736 25.998 16.6622 25.998C16.6622 26.0094 16.6622 26.0208 16.6622 26.0322C16.6736 26.0208 16.6793 26.0094 16.6907 25.998ZM18.5422 27.8568C18.5422 27.8568 18.5251 27.7999 18.5194 27.7715C18.5137 27.7715 18.5023 27.7715 18.4966 27.7658C18.4681 27.817 18.4396 27.8681 18.3998 27.9079C18.4453 27.8852 18.4909 27.8738 18.5422 27.8624V27.8568ZM19.5562 28.2262C19.5163 28.2433 19.4765 28.2603 19.4366 28.2717C19.4594 28.3229 19.4765 28.3797 19.4879 28.4365C19.4992 28.3626 19.522 28.2944 19.5562 28.2262ZM21.0944 28.7719C21.0659 28.7321 21.0431 28.6923 21.026 28.6525C21.0146 28.7264 20.9918 28.8003 20.9576 28.8685C21.0032 28.8344 21.0488 28.8003 21.0944 28.7776V28.7719ZM22.285 28.8856C22.2508 28.914 22.2166 28.9367 22.1767 28.9595C22.2166 29.0106 22.2508 29.0618 22.2736 29.1243C22.2622 29.0447 22.2736 28.9595 22.285 28.8856ZM22.5698 28.4138C22.5698 28.4138 22.5527 28.3967 22.547 28.3911C22.547 28.4081 22.547 28.4195 22.547 28.4365C22.5527 28.4309 22.5641 28.4252 22.5698 28.4138ZM23.7946 28.4706C23.7946 28.4706 23.7946 28.4365 23.7946 28.4195C23.7889 28.4252 23.7775 28.4365 23.7718 28.4422C23.7832 28.4536 23.7889 28.465 23.8003 28.4763L23.7946 28.4706ZM24.0966 29.022C24.0567 28.9936 24.0225 28.9538 23.9883 28.9197C23.994 28.9993 23.9883 29.0788 23.9769 29.1527C24.0111 29.1073 24.051 29.0618 24.0909 29.022H24.0966ZM24.3073 21.3996L24.2846 21.4451C24.2846 21.4451 24.2846 21.4507 24.2846 21.4564C24.0111 21.9282 23.6807 22.3545 23.3275 22.7183C23.5269 22.5194 23.6978 22.3147 23.8573 22.1158C23.8459 22.1328 23.8516 22.1499 23.863 22.1613C23.8801 22.1726 23.9029 22.1726 23.9143 22.1613L23.9485 22.1215C23.9598 22.1044 23.9541 22.0817 23.9428 22.0703C23.9257 22.059 23.9086 22.0646 23.8972 22.076C24.0453 21.8771 24.1763 21.6838 24.2903 21.4849C24.2903 21.4962 24.3017 21.5076 24.313 21.5133C24.3358 21.5246 24.3643 21.5133 24.3814 21.4962L24.4042 21.4507C24.4156 21.428 24.4042 21.3996 24.3814 21.3825C24.37 21.3825 24.3586 21.3769 24.3472 21.3825C24.4441 21.2006 24.5295 21.0244 24.6036 20.8425C24.5238 21.0301 24.4327 21.212 24.3301 21.3882C24.3244 21.3882 24.3187 21.3996 24.313 21.4053L24.3073 21.3996ZM23.356 22.7467L23.3902 22.7126C23.4016 22.7013 23.4016 22.6899 23.3902 22.6785C23.3788 22.6672 23.3674 22.6672 23.356 22.6785L23.3218 22.7126C23.3218 22.7126 23.3104 22.7354 23.3218 22.741C23.3275 22.7524 23.3446 22.7524 23.3503 22.741L23.356 22.7467Z" fill="#001E49"/>
</svg>
