<svg width="389" height="337" viewBox="0 0 389 337" fill="none" xmlns="http://www.w3.org/2000/svg">
<path d="M41.0039 228.567V233.57H8.26422V256.409H36.3873V260.599H8.26422V287.274H41.0039V292.276H0V228.567H41.0039ZM109.955 228.567V293.372H109.497L59.1359 243.593H58.7659V292.294H54.5897V227.489H55.0478L105.409 277.268H105.779V228.567H109.955ZM143.611 228.567V292.276H135.364V228.567H143.611ZM226.799 292.276H219.081V288.547C216.773 289.766 213.865 290.862 210.359 291.87C206.852 292.877 202.817 293.372 198.271 293.372C192.209 293.372 187.011 292.418 182.641 290.509C178.271 288.6 174.694 286.054 171.875 282.854C169.055 279.673 166.976 276.066 165.602 272.018C164.245 267.988 163.558 263.816 163.558 259.503C163.558 254.465 164.439 249.957 166.183 245.98C167.945 242.002 170.395 238.661 173.531 235.921C176.668 233.199 180.403 231.095 184.738 229.646C189.055 228.196 193.795 227.454 198.94 227.454C203.416 227.454 207.293 227.949 210.606 228.956C213.901 229.964 216.667 231.184 218.905 232.651C221.143 234.1 222.905 235.674 224.209 237.335C225.513 238.997 226.429 240.5 226.975 241.843H220.438C220.068 240.57 219.275 239.315 218.042 238.06C216.808 236.823 215.205 235.709 213.284 234.737C211.346 233.765 209.143 232.969 206.658 232.368C204.174 231.767 201.513 231.467 198.676 231.467C194.377 231.467 190.623 232.156 187.381 233.552C184.139 234.949 181.408 236.911 179.17 239.474C176.932 242.02 175.258 245.06 174.13 248.578C173.002 252.096 172.456 255.95 172.456 260.139C172.456 264.329 173.038 268.288 174.236 271.841C175.434 275.395 177.196 278.453 179.557 281.034C181.919 283.615 184.897 285.63 188.474 287.079C192.051 288.529 196.227 289.271 201.02 289.271C204.65 289.271 207.892 288.847 210.747 287.999C213.601 287.15 216.385 285.842 219.116 284.092V267.617H208.949V263.887H226.817V292.276H226.799ZM278.429 283.261H278.799L308.19 228.567H314.446V292.276H306.182V240.676H305.812L277.142 293.372H275.504L247.469 240.305H247.099V292.276H243.099V228.567H249.266L278.393 283.261H278.429ZM340.208 273.521L332.225 292.276H328.049L354.903 228.567H359.432L389 292.276H380.207L371.502 273.521H340.208ZM355.362 238.75H354.992L341.934 269.42H369.599L355.362 238.75ZM160.492 74.4037L160.685 74.1563C161.337 73.3431 161.249 72.1587 160.474 71.4693C159.681 70.7622 158.465 70.8329 157.76 71.6284L157.531 71.8936C157.531 71.8936 157.496 71.9289 157.496 71.9466C156.809 72.7774 156.932 73.9972 157.76 74.6689C158.589 75.3583 159.804 75.2346 160.474 74.4037H160.492ZM163.963 70.7445L164.192 70.5324C164.914 69.8607 165.003 68.7293 164.368 67.9692C163.716 67.1914 162.553 67.0853 161.778 67.7394L161.514 67.9692C161.514 67.9692 161.478 68.0046 161.461 68.0046C160.703 68.694 160.65 69.8607 161.32 70.6208C161.989 71.3809 163.17 71.434 163.928 70.7622L163.963 70.7445ZM166.359 64.4691L166.06 64.6459C166.06 64.6459 166.025 64.6636 166.007 64.6812C165.196 65.2115 164.985 66.3075 165.514 67.1207C166.042 67.9339 167.135 68.146 167.945 67.6157L168.21 67.4389H168.227C169.003 66.9086 169.249 65.8479 168.756 65.0525C168.245 64.2216 167.17 63.9741 166.359 64.4691ZM172.35 65.1232L172.632 64.9818H172.65C173.461 64.5928 173.831 63.6383 173.478 62.8251C173.126 61.9766 172.157 61.5877 171.311 61.9413L170.994 62.0827C170.994 62.0827 170.958 62.0827 170.941 62.1003C170.113 62.4893 169.743 63.4792 170.13 64.31C170.518 65.1408 171.505 65.5121 172.333 65.1232H172.35ZM177.091 63.3201L177.39 63.2317H177.408C178.218 62.9842 178.694 62.1534 178.483 61.3225C178.271 60.474 177.408 59.9791 176.579 60.1912L176.245 60.2796C176.245 60.2796 176.209 60.2796 176.192 60.2796C175.364 60.5271 174.87 61.3933 175.117 62.2418C175.364 63.0726 176.227 63.5676 177.073 63.3201H177.091ZM182.042 59.2366L181.69 59.272C181.69 59.272 181.654 59.272 181.637 59.272C180.826 59.378 180.262 60.1382 180.368 60.9513C180.474 61.7645 181.231 62.3302 182.042 62.2241L182.359 62.1711H182.377C183.17 62.065 183.734 61.3402 183.646 60.5447C183.557 59.7316 182.835 59.1306 182.024 59.2189L182.042 59.2366ZM187.557 59.1129H187.205C187.205 59.1129 187.17 59.1129 187.152 59.1129C186.377 59.1129 185.742 59.7316 185.742 60.4917C185.742 61.2695 186.359 61.9059 187.117 61.9059H187.434C188.174 61.9059 188.808 61.3225 188.844 60.5801C188.879 59.8023 188.28 59.1659 187.522 59.1306L187.557 59.1129ZM192.227 62.3125L192.544 62.3655C193.231 62.4716 193.883 62.0296 194.024 61.3225C194.165 60.6155 193.707 59.926 193.002 59.7846L192.667 59.7139H192.632C191.927 59.5902 191.24 60.0851 191.134 60.7922C191.011 61.4993 191.504 62.1887 192.209 62.2948L192.227 62.3125ZM197.214 63.4792L197.513 63.5852C198.13 63.7797 198.8 63.4615 199.029 62.8428C199.258 62.2064 198.923 61.517 198.288 61.2872L197.971 61.1635H197.936C197.302 60.9513 196.615 61.3049 196.403 61.9589C196.192 62.5953 196.544 63.2847 197.196 63.4969L197.214 63.4792ZM201.989 65.3883L202.271 65.5297C202.817 65.7949 203.469 65.6004 203.751 65.0525C204.051 64.5045 203.839 63.815 203.293 63.5322L202.993 63.3731C202.993 63.3731 202.976 63.3731 202.958 63.3731C202.394 63.0903 201.725 63.3201 201.443 63.8858C201.161 64.4514 201.39 65.1232 201.954 65.406L201.989 65.3883ZM206.447 68.0046L206.711 68.1813C207.169 68.4995 207.786 68.4111 208.121 67.9515C208.456 67.4919 208.368 66.8379 207.91 66.502L207.628 66.2899C207.628 66.2899 207.61 66.2899 207.592 66.2722C207.117 65.9363 206.465 66.0601 206.147 66.5373C205.813 67.0146 205.936 67.6687 206.412 67.9869L206.447 68.0046ZM211.769 69.8784C211.381 69.5248 210.782 69.5248 210.429 69.9137C210.077 70.3026 210.077 70.9036 210.465 71.2572L210.694 71.487C211.064 71.8405 211.645 71.8405 211.998 71.487C212.368 71.1158 212.368 70.5147 211.998 70.1435L211.751 69.896C211.751 69.896 211.751 69.896 211.733 69.8784H211.769ZM213.971 75.0932L214.165 75.3406C214.447 75.7119 214.976 75.7826 215.346 75.5174C215.733 75.2346 215.804 74.7043 215.522 74.3154L215.328 74.0325C215.328 74.0325 215.328 74.0325 215.328 74.0148C215.028 73.6436 214.5 73.5729 214.112 73.8734C213.742 74.1739 213.672 74.7043 213.971 75.0932ZM218.218 78.6286C218.006 78.2574 217.531 78.1337 217.161 78.3458C216.79 78.5579 216.667 79.0352 216.879 79.4064L217.037 79.6893C217.249 80.0605 217.689 80.1842 218.059 79.9898C218.429 79.7953 218.57 79.3357 218.376 78.9468L218.218 78.6463C218.218 78.6463 218.218 78.6463 218.218 78.6286ZM219.504 83.2247C219.152 83.3661 218.975 83.755 219.116 84.1086L219.24 84.4091C219.363 84.7626 219.751 84.9394 220.086 84.8157C220.438 84.6919 220.632 84.303 220.509 83.9495L220.403 83.6313C220.403 83.6313 220.403 83.6313 220.403 83.6136C220.262 83.2601 219.874 83.0833 219.522 83.2247H219.504ZM220.632 89.1113L220.702 89.4295C220.773 89.7476 221.072 89.9421 221.39 89.8891C221.707 89.836 221.918 89.5178 221.865 89.1996L221.795 88.8638C221.795 88.8638 221.795 88.8638 221.795 88.8461C221.724 88.5279 221.407 88.3158 221.09 88.3865C220.773 88.4572 220.561 88.7754 220.632 89.0936V89.1113ZM222.429 94.5912V94.2553C222.412 93.9725 222.165 93.7604 221.883 93.7781C221.601 93.7957 221.39 94.0432 221.407 94.3261L221.425 94.6619C221.442 94.9271 221.671 95.1392 221.936 95.1392C222.218 95.1392 222.429 94.8917 222.412 94.6266L222.429 94.5912ZM221.407 99.5585L221.39 99.8944C221.39 100.124 221.531 100.319 221.76 100.336C221.989 100.354 222.183 100.195 222.218 99.9651L222.253 99.6292C222.271 99.3994 222.094 99.205 221.865 99.1873C221.636 99.1696 221.442 99.3464 221.425 99.5762L221.407 99.5585ZM220.79 105.48C220.967 105.533 221.143 105.427 221.178 105.251L221.266 104.932C221.301 104.756 221.196 104.579 221.02 104.544C220.843 104.508 220.667 104.614 220.632 104.791L220.561 105.109C220.526 105.286 220.632 105.445 220.79 105.498V105.48ZM219.398 110.306L219.539 110.006C219.592 109.882 219.539 109.741 219.398 109.705C219.275 109.652 219.134 109.705 219.099 109.847L218.975 110.165C218.923 110.289 218.975 110.412 219.099 110.465C219.222 110.518 219.346 110.465 219.398 110.342V110.306ZM216.808 114.602L216.65 114.885C216.65 114.885 216.632 115.044 216.702 115.079C216.773 115.115 216.861 115.097 216.896 115.026L217.072 114.743C217.108 114.673 217.072 114.584 217.02 114.549C216.967 114.514 216.861 114.549 216.826 114.602H216.808ZM213.619 119.251C213.619 119.251 213.619 119.304 213.619 119.322C213.636 119.339 213.672 119.322 213.689 119.322L213.901 119.074C213.918 119.057 213.901 119.004 213.901 118.986C213.883 118.968 213.83 118.986 213.813 118.986L213.601 119.251H213.619ZM149.584 80.9267C150.659 81.4216 151.928 80.9443 152.421 79.866L152.562 79.5302C153.038 78.4519 152.597 77.2144 151.575 76.7018C150.518 76.1715 149.232 76.5957 148.703 77.6564L148.527 78.0099C148.527 78.0099 148.509 78.063 148.492 78.0806C147.998 79.1589 148.474 80.4317 149.549 80.9267H149.584ZM155.1 74.9341L155.293 74.6336C155.893 73.6967 155.646 72.4592 154.747 71.8229C153.831 71.1688 152.545 71.3986 151.91 72.3355L151.681 72.6537C151.681 72.6537 151.646 72.689 151.646 72.7067C151.029 73.6613 151.293 74.9341 152.245 75.5528C153.197 76.1715 154.465 75.9063 155.082 74.9517L155.1 74.9341ZM158.465 70.444L158.694 70.1612C159.381 69.3657 159.329 68.1637 158.571 67.4389C157.796 66.6964 156.562 66.7318 155.822 67.5096L155.558 67.7924C155.558 67.7924 155.522 67.8278 155.505 67.8455C154.8 68.6586 154.87 69.896 155.663 70.6031C156.474 71.3102 157.707 71.2395 158.412 70.444H158.465ZM160.456 63.3731L160.157 63.6029C160.157 63.6029 160.122 63.6383 160.104 63.6383C159.329 64.2923 159.223 65.459 159.875 66.2545C160.527 67.0323 161.69 67.1384 162.483 66.4843L162.747 66.2545H162.765C163.522 65.6004 163.646 64.4691 163.029 63.6913C162.395 62.8781 161.249 62.7367 160.439 63.3731H160.456ZM165.602 59.9614L165.267 60.1558C165.267 60.1558 165.232 60.1735 165.214 60.1912C164.386 60.6862 164.121 61.7822 164.633 62.5953C165.144 63.4085 166.218 63.6913 167.029 63.1787L167.329 62.9842H167.346C168.139 62.4893 168.421 61.4463 167.963 60.6155C167.487 59.7669 166.43 59.4664 165.584 59.9437L165.602 59.9614ZM172.051 60.5801L172.386 60.4387H172.403C173.214 60.0851 173.619 59.1482 173.302 58.3174C172.985 57.4689 172.033 57.0446 171.188 57.3628L170.835 57.5042C170.835 57.5042 170.8 57.5042 170.782 57.5219C169.936 57.8755 169.549 58.8477 169.901 59.6962C170.254 60.5447 171.223 60.9336 172.069 60.5801H172.051ZM177.408 58.7417L177.742 58.6533H177.76C178.571 58.4411 179.064 57.628 178.888 56.8148C178.712 55.984 177.883 55.4537 177.055 55.6305L176.685 55.7188C176.685 55.7188 176.65 55.7188 176.632 55.7188C175.804 55.931 175.293 56.7795 175.505 57.6103C175.716 58.4411 176.562 58.9538 177.39 58.7417H177.408ZM184.668 56.1431C184.615 55.3476 183.927 54.7466 183.134 54.7996H182.747C182.747 54.7996 182.712 54.835 182.694 54.835C181.901 54.9234 181.32 55.6305 181.39 56.4259C181.478 57.2214 182.183 57.8048 182.976 57.7341L183.328 57.6987H183.346C184.121 57.6103 184.685 56.9386 184.632 56.1608L184.668 56.1431ZM189.055 57.5573C189.778 57.5926 190.394 57.0446 190.465 56.3199C190.518 55.5774 189.971 54.9234 189.231 54.8703L188.844 54.835C188.844 54.835 188.808 54.835 188.791 54.835C188.051 54.7996 187.416 55.383 187.381 56.1254C187.346 56.8679 187.927 57.5042 188.667 57.5396H189.02L189.055 57.5573ZM194.341 58.2113L194.694 58.2821C195.346 58.4235 195.998 57.9992 196.156 57.3451C196.315 56.6734 195.892 56.0017 195.222 55.8426L194.852 55.7542H194.817C194.13 55.6128 193.478 56.0547 193.337 56.7441C193.196 57.4335 193.637 58.0876 194.324 58.229L194.341 58.2113ZM201.02 57.6987L200.667 57.5573C200.667 57.5573 200.65 57.5573 200.632 57.5573C200.033 57.3452 199.363 57.6457 199.152 58.2467C198.94 58.8477 199.24 59.5195 199.839 59.7316L200.174 59.8553C200.755 60.0675 201.407 59.7846 201.636 59.2013C201.866 58.6179 201.584 57.9462 201.002 57.6987H201.02ZM205.09 62.0473L205.407 62.2241C205.901 62.4893 206.517 62.3302 206.817 61.8352C207.117 61.3402 206.94 60.6862 206.447 60.3856L206.112 60.1912C206.112 60.1912 206.095 60.1912 206.077 60.1912C205.566 59.9084 204.914 60.1028 204.65 60.6155C204.385 61.1281 204.562 61.7822 205.073 62.0473H205.09ZM211.117 63.6206C211.117 63.6206 211.099 63.6206 211.099 63.6029C210.676 63.2847 210.077 63.3731 209.76 63.7974C209.443 64.2216 209.531 64.8227 209.954 65.1408L210.236 65.3706C210.641 65.6888 211.222 65.6181 211.539 65.2115C211.874 64.805 211.804 64.2039 211.398 63.8681L211.099 63.6383L211.117 63.6206ZM215.522 67.704C215.187 67.3682 214.641 67.3682 214.306 67.704C213.971 68.0399 213.971 68.5879 214.306 68.9238L214.553 69.1889C214.87 69.5248 215.398 69.5425 215.733 69.2243C216.086 68.9061 216.103 68.3581 215.786 68.0222L215.522 67.7394C215.522 67.7394 215.522 67.7394 215.504 67.7217L215.522 67.704ZM219.31 73.8027C219.663 73.5729 219.751 73.0956 219.504 72.7598L219.293 72.4416C219.293 72.4416 219.293 72.4416 219.293 72.4239C219.046 72.088 218.57 71.9996 218.235 72.2471C217.901 72.4946 217.813 72.9719 218.059 73.3078L218.271 73.6083C218.5 73.9441 218.958 74.0325 219.293 73.8027H219.31ZM221.125 78.2574L221.284 78.5756C221.442 78.8938 221.83 79.0175 222.147 78.8761C222.464 78.717 222.605 78.3281 222.447 78.0099L222.288 77.674C222.288 77.674 222.288 77.674 222.288 77.6564C222.112 77.3382 221.724 77.1968 221.39 77.3735C221.072 77.5503 220.931 77.9392 221.108 78.2751L221.125 78.2574ZM224.614 83.6136L224.508 83.2601C224.508 83.2601 224.508 83.2601 224.508 83.2424C224.403 82.9419 224.086 82.8005 223.804 82.8888C223.504 82.9949 223.363 83.3131 223.451 83.5959L223.575 83.9495C223.68 84.2323 223.98 84.3914 224.262 84.303C224.561 84.2146 224.72 83.8965 224.632 83.6136H224.614ZM225.019 89.6062C225.072 89.8537 225.284 90.0128 225.53 89.9774C225.777 89.9421 225.953 89.7123 225.918 89.4648L225.865 89.0936C225.812 88.8461 225.583 88.6693 225.319 88.7224C225.055 88.7754 224.896 89.0052 224.949 89.2704L225.019 89.6416V89.6062ZM226.341 95.4221V95.0508C226.341 94.8564 226.165 94.6973 225.971 94.6973C225.777 94.6973 225.619 94.8741 225.619 95.0685V95.4397C225.619 95.6342 225.777 95.7933 225.971 95.7933C226.165 95.7933 226.323 95.6342 226.323 95.4397L226.341 95.4221ZM225.407 100.937L225.372 101.309C225.372 101.45 225.46 101.574 225.583 101.591C225.724 101.609 225.848 101.521 225.883 101.379L225.936 101.008C225.936 100.867 225.848 100.725 225.707 100.708C225.566 100.708 225.425 100.796 225.407 100.937ZM224.332 106.718L224.244 107.071C224.244 107.071 224.262 107.248 224.35 107.266C224.438 107.284 224.526 107.248 224.544 107.16L224.649 106.806C224.667 106.718 224.614 106.629 224.526 106.612C224.438 106.594 224.35 106.647 224.332 106.736V106.718ZM222.359 112.675L222.517 112.339C222.517 112.304 222.517 112.269 222.482 112.251C222.447 112.233 222.412 112.251 222.394 112.286L222.253 112.622C222.253 112.622 222.253 112.693 222.288 112.693C222.323 112.693 222.359 112.693 222.376 112.657L222.359 112.675ZM142.536 89.9774C143.84 90.1896 145.073 89.3234 145.285 88.0153L145.355 87.6087V87.5733C145.567 86.3182 144.756 85.0985 143.487 84.851C142.201 84.5859 140.95 85.4167 140.686 86.7071L140.598 87.1314C140.598 87.1314 140.598 87.1844 140.598 87.2021C140.386 88.5102 141.25 89.7476 142.553 89.9598L142.536 89.9774ZM146.73 81.952L146.853 81.563V81.5277C147.241 80.361 146.624 79.1059 145.479 78.6817C144.298 78.2574 142.994 78.8584 142.571 80.0428L142.43 80.4494C142.43 80.4494 142.412 80.5024 142.412 80.5201C142.025 81.7221 142.677 83.0126 143.875 83.4015C145.073 83.7904 146.36 83.1363 146.747 81.9343L146.73 81.952ZM149.056 76.1538L149.232 75.7826C149.743 74.7219 149.355 73.4492 148.333 72.8835C147.293 72.3178 145.972 72.7067 145.408 73.7497L145.197 74.1209C145.197 74.1209 145.179 74.1739 145.161 74.1916C144.633 75.2699 145.056 76.5604 146.131 77.1084C147.205 77.6564 148.492 77.2144 149.038 76.1361L149.056 76.1538ZM149.373 71.2572C150.307 71.9112 151.575 71.6814 152.227 70.7622L152.456 70.4264C153.091 69.5071 152.897 68.252 152.016 67.5803C151.117 66.8909 149.831 67.0677 149.144 67.9869L148.879 68.3228C148.879 68.3228 148.844 68.3581 148.844 68.3758C148.192 69.3127 148.421 70.5854 149.338 71.2395L149.373 71.2572ZM156.192 65.8833L156.456 65.5828C157.179 64.805 157.179 63.6206 156.439 62.8605C155.699 62.1003 154.465 62.0827 153.708 62.8251L153.408 63.1256C153.408 63.1256 153.373 63.161 153.355 63.1787C152.615 63.9565 152.633 65.1939 153.426 65.9363C154.201 66.6788 155.434 66.6611 156.174 65.8656L156.192 65.8833ZM158.976 58.4411L158.624 58.6886C158.624 58.6886 158.589 58.7063 158.571 58.724C157.778 59.3427 157.619 60.5094 158.236 61.3049C158.853 62.1003 160.016 62.2594 160.809 61.6407L161.126 61.3933H161.144C161.919 60.7745 162.077 59.6609 161.496 58.8654C160.897 58.0522 159.769 57.8578 158.941 58.4588L158.976 58.4411ZM164.791 54.888L164.421 55.0825C164.421 55.0825 164.386 55.1001 164.368 55.1178C163.54 55.5774 163.24 56.6381 163.716 57.4689C164.174 58.2997 165.232 58.6002 166.06 58.123L166.395 57.9285H166.412C167.223 57.4689 167.522 56.4436 167.099 55.6305C166.659 54.7819 165.619 54.4638 164.791 54.888ZM171.751 55.4183L172.121 55.2769H172.139C172.95 54.9587 173.372 54.0749 173.091 53.244C172.809 52.3955 171.892 51.9536 171.047 52.2364L170.641 52.3778C170.641 52.3778 170.606 52.3778 170.588 52.3955C169.76 52.7137 169.337 53.6506 169.654 54.4814C169.972 55.3123 170.906 55.7365 171.734 55.4183H171.751ZM177.813 53.5799L178.201 53.4915H178.218C178.994 53.3147 179.522 52.5546 179.364 51.7591C179.223 50.946 178.43 50.398 177.619 50.5571L177.196 50.6278C177.196 50.6278 177.161 50.6278 177.143 50.6278C176.333 50.8046 175.822 51.6 175.998 52.4309C176.174 53.244 176.967 53.7567 177.795 53.5799H177.813ZM182.606 51.3526C182.659 52.1304 183.311 52.7137 184.086 52.6607L184.474 52.643C185.214 52.59 185.795 51.9713 185.76 51.2111C185.742 50.451 185.09 49.8323 184.333 49.8677H183.91C183.91 49.8677 183.875 49.8677 183.857 49.8677C183.082 49.9207 182.5 50.5747 182.553 51.3526H182.606ZM190.447 52.696L190.852 52.7314C191.54 52.7844 192.139 52.2894 192.227 51.6C192.315 50.8929 191.804 50.2566 191.117 50.1682L190.694 50.1151H190.659C189.954 50.0621 189.337 50.5747 189.267 51.2818C189.214 51.9889 189.725 52.6076 190.43 52.6783L190.447 52.696ZM196.738 53.686L197.126 53.7743C197.742 53.9158 198.359 53.5622 198.518 52.9435C198.694 52.3248 198.324 51.6707 197.707 51.5116L197.302 51.4056H197.266C196.632 51.2465 195.998 51.6531 195.857 52.2718C195.698 52.9081 196.104 53.5445 196.72 53.686H196.738ZM204.579 55.1885C204.808 54.6582 204.579 54.0218 204.033 53.792L203.645 53.6152C203.645 53.6152 203.628 53.6152 203.61 53.6152C203.064 53.4031 202.447 53.6683 202.236 54.2163C202.024 54.7643 202.288 55.383 202.835 55.5951L203.205 55.7542C203.733 55.9663 204.332 55.7188 204.562 55.2062L204.579 55.1885ZM208.597 58.3881L208.949 58.6002C209.39 58.8654 209.954 58.724 210.218 58.2997C210.5 57.8578 210.359 57.2744 209.918 56.9916L209.566 56.7618C209.566 56.7618 209.548 56.7618 209.531 56.7618C209.073 56.4966 208.491 56.6557 208.227 57.0977C207.962 57.5396 208.121 58.1406 208.562 58.4058L208.597 58.3881ZM214.218 62.2948C214.57 62.5776 215.081 62.5423 215.381 62.1887C215.68 61.8352 215.645 61.3049 215.293 61.0044L214.976 60.7392C214.976 60.7392 214.976 60.7392 214.958 60.7215C214.588 60.421 214.059 60.4917 213.777 60.8453C213.495 61.1988 213.548 61.7468 213.901 62.0296L214.218 62.2948ZM219.716 65.459C219.716 65.459 219.716 65.459 219.716 65.4414C219.434 65.1408 218.975 65.1232 218.676 65.3883C218.376 65.6712 218.359 66.1308 218.623 66.4313L218.887 66.7318C219.152 67.0323 219.592 67.05 219.892 66.8025C220.191 66.5374 220.227 66.0777 219.98 65.7772L219.716 65.459ZM222.641 71.5047L222.87 71.8405C223.046 72.1234 223.434 72.1941 223.716 72.0173C223.997 71.8405 224.086 71.4516 223.909 71.1688L223.68 70.8153C223.486 70.5324 223.099 70.4617 222.817 70.6385C222.535 70.8153 222.464 71.2218 222.641 71.5047ZM225.883 77.1261L226.059 77.4973C226.182 77.7448 226.464 77.8508 226.711 77.7448C226.975 77.6387 227.081 77.3382 226.975 77.073L226.817 76.6841C226.693 76.419 226.394 76.3129 226.13 76.4366C225.865 76.5604 225.76 76.8609 225.883 77.1261ZM229.037 82.9419C228.967 82.7298 228.755 82.606 228.526 82.6767C228.315 82.7474 228.191 82.9596 228.262 83.1894L228.385 83.5783C228.456 83.7904 228.667 83.9141 228.861 83.8434C229.072 83.7904 229.196 83.5606 229.143 83.3485L229.037 82.9419ZM229.777 89.9421C229.795 90.1012 229.936 90.2073 230.094 90.1896C230.253 90.1719 230.359 90.0305 230.341 89.8714L230.288 89.4648C230.271 89.3057 230.112 89.1996 229.953 89.2173C229.795 89.235 229.689 89.3941 229.707 89.5532L229.76 89.9598L229.777 89.9421ZM230.218 96.0584V96.465C230.218 96.5534 230.288 96.6418 230.394 96.6418C230.5 96.6418 230.57 96.5711 230.57 96.465V96.0584C230.57 95.9524 230.482 95.8817 230.394 95.8817C230.288 95.8817 230.218 95.97 230.218 96.0584ZM229.812 103.023L229.883 102.617C229.883 102.581 229.865 102.546 229.812 102.528C229.777 102.528 229.742 102.546 229.724 102.599L229.654 103.006C229.654 103.006 229.671 103.076 229.707 103.076C229.742 103.076 229.777 103.076 229.777 103.023H229.812ZM137.637 101.697C139.1 101.556 140.157 100.266 140.034 98.7984L139.998 98.3565V98.3211C139.857 96.9069 138.624 95.8463 137.197 95.9347C135.734 96.0231 134.624 97.2782 134.712 98.7454L134.747 99.2227C134.747 99.2227 134.747 99.2934 134.747 99.3111C134.888 100.778 136.175 101.839 137.637 101.715V101.697ZM139.84 91.8512V91.4093L139.857 91.3739C139.928 90.0128 138.906 88.8461 137.567 88.7224C136.175 88.5986 134.959 89.6239 134.835 91.0204L134.8 91.4977C134.8 91.4977 134.8 91.5507 134.8 91.5861C134.73 92.9826 135.805 94.1846 137.197 94.2553C138.589 94.3261 139.787 93.2477 139.857 91.8512H139.84ZM140.686 84.9571L140.774 84.5152V84.4798C141.038 83.2247 140.245 81.9696 138.994 81.6691C137.708 81.3686 136.421 82.1641 136.104 83.4545L135.998 83.9141C135.998 83.9141 135.998 83.9672 135.998 83.9848C135.734 85.293 136.58 86.5657 137.866 86.8309C139.17 87.096 140.439 86.2475 140.703 84.9571H140.686ZM139.611 79.6186C140.791 80.0605 142.113 79.4418 142.536 78.2574L142.677 77.8331V77.7978C143.1 76.6488 142.536 75.3583 141.408 74.8987C140.245 74.4214 138.924 74.9871 138.448 76.1538L138.272 76.5957C138.272 76.5957 138.254 76.6488 138.236 76.6664C137.796 77.8508 138.413 79.1766 139.593 79.6009L139.611 79.6186ZM145.39 71.8936L145.602 71.487C146.148 70.444 145.813 69.1713 144.809 68.5702C143.787 67.9692 142.465 68.3051 141.866 69.3304L141.62 69.7369C141.62 69.7369 141.602 69.79 141.584 69.8076C141.003 70.8506 141.39 72.1764 142.448 72.7421C143.487 73.3254 144.809 72.9365 145.373 71.8759L145.39 71.8936ZM146.307 66.3959C147.205 67.0854 148.474 66.9086 149.161 66.007L149.426 65.6535C150.078 64.7696 149.937 63.5145 149.091 62.8251C148.227 62.118 146.941 62.2418 146.236 63.1256L145.937 63.4969C145.937 63.4969 145.901 63.5322 145.901 63.5499C145.214 64.4514 145.39 65.7242 146.289 66.4136L146.307 66.3959ZM151.487 57.6103L151.135 57.9285C151.135 57.9285 151.1 57.9639 151.082 57.9815C150.324 58.724 150.307 59.9437 151.047 60.7038C151.787 61.464 153.003 61.4816 153.76 60.7392L154.078 60.421C154.818 59.6786 154.853 58.5119 154.148 57.7517C153.443 56.9739 152.227 56.9209 151.452 57.628L151.487 57.6103ZM157.055 53.2263C157.055 53.2263 157.02 53.244 157.003 53.2617C156.192 53.8451 156.016 54.9764 156.597 55.7719C157.179 56.585 158.307 56.7618 159.1 56.1785L159.452 55.9133H159.47C160.245 55.3299 160.439 54.2516 159.91 53.4561C159.364 52.643 158.254 52.4132 157.426 52.9612L157.038 53.2263H157.055ZM164.016 49.249L163.593 49.4434C163.593 49.4434 163.558 49.4434 163.54 49.4611C162.712 49.8853 162.395 50.8929 162.818 51.7238C163.24 52.5546 164.245 52.8728 165.073 52.4485L165.461 52.2364H165.478C166.271 51.8122 166.606 50.8399 166.218 50.0268C165.831 49.1959 164.826 48.8424 163.998 49.2313L164.016 49.249ZM171.54 49.6732L171.963 49.5318H171.98C172.756 49.2666 173.196 48.4181 172.967 47.6226C172.721 46.8095 171.857 46.3499 171.047 46.5797L170.588 46.7211C170.588 46.7211 170.553 46.7211 170.536 46.7211C169.725 47.0039 169.284 47.8701 169.566 48.6833C169.848 49.4964 170.712 49.9384 171.522 49.6555L171.54 49.6732ZM178.377 47.8878L178.817 47.7994C179.557 47.658 180.086 46.9509 179.963 46.1908C179.857 45.413 179.135 44.865 178.359 44.9887L177.901 45.0594C177.901 45.0594 177.866 45.0594 177.848 45.0594C177.073 45.2009 176.562 45.9433 176.685 46.7211C176.826 47.4989 177.566 48.0115 178.342 47.8878H178.377ZM185.425 47.1277H185.866C186.553 47.11 187.117 46.5443 187.117 45.8372C187.117 45.1125 186.535 44.5291 185.83 44.5291H185.355H185.319C184.597 44.5468 184.033 45.1478 184.051 45.8726C184.068 46.5974 184.668 47.163 185.39 47.1454L185.425 47.1277ZM191.487 46.1024C191.416 46.7565 191.874 47.3398 192.526 47.4282L192.967 47.4812C193.584 47.5519 194.165 47.1277 194.271 46.4913C194.377 45.8549 193.936 45.2539 193.284 45.1478L192.826 45.0771H192.791C192.139 45.0064 191.557 45.466 191.469 46.1201L191.487 46.1024ZM198.764 47.4635C198.606 48.0292 198.94 48.6126 199.504 48.7717L199.927 48.8954C200.473 49.0545 201.037 48.7363 201.214 48.1883C201.39 47.6403 201.073 47.0393 200.526 46.8625L200.086 46.7211C200.086 46.7211 200.068 46.7211 200.051 46.7211C199.487 46.562 198.905 46.8979 198.747 47.4635H198.764ZM206.236 51.1581L206.641 51.3349C207.099 51.547 207.628 51.3349 207.857 50.8929C208.086 50.4333 207.892 49.8677 207.434 49.6379L207.011 49.4434C207.011 49.4434 206.993 49.4434 206.976 49.4434C206.5 49.2313 205.954 49.4434 205.742 49.9207C205.531 50.398 205.742 50.946 206.218 51.1581H206.236ZM212.544 54.5345L212.914 54.7819C213.284 55.0117 213.76 54.9234 214.006 54.5698C214.253 54.1986 214.165 53.7036 213.795 53.4385L213.407 53.1733C213.407 53.1733 213.407 53.1733 213.39 53.1733C213.002 52.9258 212.509 53.0496 212.262 53.4208C212.015 53.8097 212.139 54.3047 212.509 54.5521L212.544 54.5345ZM218.306 58.8124L218.641 59.1129C218.923 59.3604 219.346 59.3427 219.592 59.0599C219.857 58.777 219.839 58.3528 219.557 58.0876L219.222 57.7694C218.94 57.5219 218.5 57.5396 218.253 57.8401C218.006 58.123 218.024 58.5649 218.324 58.8124H218.306ZM224.262 63.1787C224.05 62.9312 223.698 62.9135 223.451 63.108C223.205 63.3201 223.187 63.6736 223.381 63.9211L223.68 64.2747C223.874 64.5045 224.227 64.5398 224.456 64.3454C224.702 64.1509 224.738 63.7974 224.544 63.5499L224.262 63.1963V63.1787ZM227.821 69.1182C227.61 69.242 227.539 69.5248 227.68 69.7369L227.927 70.1258C228.05 70.338 228.315 70.391 228.526 70.2849C228.738 70.1612 228.808 69.896 228.685 69.6839L228.456 69.2773C228.332 69.0652 228.05 68.9945 227.839 69.1359L227.821 69.1182ZM231.063 76.1361L231.24 76.5604C231.31 76.7195 231.486 76.7902 231.645 76.7372C231.804 76.6664 231.892 76.4897 231.821 76.3306L231.645 75.9063C231.574 75.7472 231.381 75.6588 231.222 75.7295C231.063 75.8003 230.975 75.9947 231.046 76.1538L231.063 76.1361ZM233.865 82.8888C233.83 82.7828 233.724 82.7121 233.619 82.7474C233.513 82.7828 233.442 82.8888 233.478 82.9949L233.601 83.4368C233.636 83.5429 233.724 83.5959 233.83 83.5783C233.936 83.5606 234.006 83.4545 233.971 83.3485L233.865 82.9065V82.8888ZM234.993 90.1365C234.993 90.1365 234.94 90.0658 234.905 90.0658C234.852 90.0658 234.834 90.1189 234.834 90.1542L234.887 90.6138C234.887 90.6138 234.922 90.6845 234.958 90.6845C234.993 90.6845 235.028 90.6492 235.028 90.6138L234.993 90.1542V90.1365ZM137.443 111.968L137.285 111.491V111.455C136.721 109.97 135.1 109.193 133.584 109.688C132.051 110.2 131.223 111.88 131.734 113.418L131.91 113.93C131.91 113.93 131.928 114.001 131.946 114.019C132.51 115.539 134.201 116.334 135.734 115.751C137.25 115.185 138.042 113.488 137.461 111.95L137.443 111.968ZM135.258 104.561L135.153 104.084V104.049C134.835 102.581 133.408 101.609 131.91 101.874C130.395 102.139 129.373 103.607 129.637 105.127L129.725 105.657C129.725 105.657 129.725 105.728 129.743 105.746C130.06 107.266 131.558 108.238 133.073 107.92C134.589 107.602 135.558 106.099 135.241 104.579L135.258 104.561ZM131.681 99.753C133.161 99.6646 134.272 98.3918 134.184 96.9069L134.148 96.412V96.3766C134.06 94.9448 132.862 93.8311 131.417 93.8665C129.954 93.9018 128.792 95.1392 128.827 96.6064V97.1367C128.827 97.1367 128.827 97.2075 128.844 97.2251C128.932 98.71 130.201 99.8237 131.681 99.7353V99.753ZM134.272 89.1643L134.307 88.687V88.6516C134.43 87.2905 133.461 86.0884 132.104 85.9117C130.712 85.7349 129.461 86.7248 129.285 88.1213L129.214 88.6516C129.214 88.6516 129.214 88.7047 129.214 88.74C129.091 90.1365 130.113 91.374 131.505 91.4977C132.897 91.6214 134.131 90.5961 134.254 89.1996L134.272 89.1643ZM135.505 81.51L135.628 81.0151V80.9797C135.946 79.7246 135.206 78.4519 133.954 78.0983C132.686 77.7448 131.364 78.4872 131.012 79.76L130.871 80.2726C130.871 80.2726 130.871 80.3256 130.853 80.3433C130.536 81.6338 131.329 82.9419 132.615 83.2601C133.902 83.5783 135.206 82.7828 135.523 81.4923L135.505 81.51ZM137.866 74.1032L138.042 73.6436C138.501 72.4946 137.99 71.2042 136.88 70.7092C135.734 70.1965 134.413 70.7092 133.902 71.8405L133.69 72.3178C133.69 72.3178 133.673 72.3709 133.655 72.3885C133.179 73.5552 133.743 74.881 134.888 75.3583C136.034 75.8356 137.373 75.2699 137.849 74.1209L137.866 74.1032ZM138.377 67.8455C139.382 68.4465 140.686 68.1106 141.302 67.103L141.549 66.6611C142.131 65.6535 141.831 64.3807 140.862 63.762C139.875 63.1256 138.571 63.4085 137.937 64.3984L137.655 64.8403C137.655 64.8403 137.62 64.8757 137.62 64.8934C137.02 65.901 137.355 67.2091 138.36 67.8278L138.377 67.8455ZM143.029 57.6987L142.677 58.0876C142.677 58.0876 142.642 58.123 142.642 58.1406C141.954 58.9891 142.078 60.2619 142.923 60.9513C143.769 61.6407 145.038 61.517 145.725 60.6685L146.025 60.2796C146.694 59.4311 146.589 58.2113 145.796 57.5042C144.968 56.7795 143.716 56.8679 142.994 57.6987H143.029ZM149.02 51.8298L148.615 52.1657C148.615 52.1657 148.58 52.2011 148.562 52.2011C147.804 52.8905 147.752 54.0749 148.439 54.835C149.126 55.5951 150.307 55.6481 151.064 54.9587L151.434 54.6228C152.174 53.9334 152.245 52.8021 151.593 52.042C150.941 51.2642 149.76 51.1581 148.985 51.8298H149.02ZM155.364 47.1984C155.364 47.1984 155.329 47.2161 155.311 47.2337C154.518 47.7641 154.307 48.8424 154.835 49.6202C155.364 50.398 156.439 50.6278 157.214 50.0975L157.619 49.8146C158.377 49.2843 158.606 48.259 158.13 47.4635C157.637 46.6504 156.58 46.4029 155.769 46.9156L155.329 47.1984H155.364ZM163.223 43.0973L162.747 43.3094C162.747 43.3094 162.712 43.3094 162.694 43.3271C161.901 43.6983 161.566 44.6529 161.936 45.4483C162.307 46.2438 163.258 46.5797 164.051 46.2085L164.492 45.9963C165.249 45.6251 165.602 44.7236 165.267 43.9281C164.932 43.1326 163.998 42.7614 163.205 43.0973H163.223ZM171.381 43.3624L171.857 43.221C172.597 42.9912 173.038 42.2134 172.844 41.4709C172.65 40.6931 171.857 40.2335 171.082 40.4457L170.588 40.5694C170.588 40.5694 170.553 40.5694 170.536 40.5694C169.76 40.7992 169.337 41.6124 169.566 42.3725C169.795 43.1503 170.606 43.5745 171.364 43.3447L171.381 43.3624ZM179.082 41.63L179.575 41.5593C180.262 41.4533 180.756 40.8169 180.685 40.1275C180.615 39.4027 179.963 38.8901 179.24 38.9608L178.729 39.0138H178.694C177.972 39.1199 177.478 39.7916 177.584 40.4987C177.69 41.2235 178.359 41.7184 179.064 41.6124L179.082 41.63ZM186.976 41.0467H187.469C188.104 41.0467 188.615 40.5517 188.65 39.9153C188.667 39.2613 188.174 38.731 187.522 38.6956H187.011L186.976 38.6779C186.324 38.6779 185.795 39.1906 185.795 39.8446C185.795 40.4987 186.306 41.029 186.958 41.029L186.976 41.0467ZM194.007 40.4633C193.919 41.029 194.306 41.577 194.87 41.6654L195.363 41.7361C195.91 41.8245 196.438 41.4533 196.544 40.9053C196.65 40.3396 196.28 39.7916 195.733 39.6855L195.222 39.5795C195.222 39.5795 195.205 39.5795 195.187 39.5795C194.623 39.4911 194.077 39.88 193.989 40.4457L194.007 40.4633ZM202.623 43.4508L203.099 43.6099C203.557 43.7513 204.051 43.5215 204.209 43.0619C204.368 42.5846 204.121 42.072 203.663 41.9129L203.17 41.7361C203.17 41.7361 203.152 41.7361 203.134 41.7361C202.658 41.577 202.147 41.8422 202.007 42.3371C201.848 42.8144 202.112 43.3271 202.606 43.4685L202.623 43.4508ZM210.042 46.3852L210.482 46.615C210.852 46.7918 211.293 46.6504 211.487 46.2968C211.68 45.9256 211.539 45.466 211.169 45.2716L210.711 45.0241C210.711 45.0241 210.711 45.0241 210.694 45.0241C210.306 44.8296 209.848 44.9887 209.672 45.3776C209.478 45.7665 209.636 46.2261 210.024 46.4029L210.042 46.3852ZM216.967 50.398L217.372 50.6808C217.654 50.8753 218.024 50.8046 218.235 50.5394C218.447 50.2566 218.376 49.8677 218.112 49.6555L217.707 49.355C217.425 49.1606 217.02 49.2313 216.826 49.5141C216.632 49.7969 216.702 50.2035 216.984 50.398H216.967ZM223.24 55.4007L223.61 55.7365C223.804 55.9133 224.103 55.9133 224.297 55.7365C224.491 55.5421 224.491 55.2416 224.297 55.0471L223.927 54.6936C223.733 54.4991 223.416 54.5168 223.222 54.7112C223.028 54.9057 223.046 55.2239 223.24 55.4183V55.4007ZM229.284 60.8453C229.16 60.6862 228.931 60.6685 228.773 60.7922C228.614 60.916 228.597 61.1458 228.72 61.3049L229.037 61.6938C229.16 61.8529 229.372 61.8705 229.53 61.7645C229.689 61.6407 229.724 61.4286 229.601 61.2695L229.301 60.8629L229.284 60.8453ZM233.513 68.3935C233.566 68.4995 233.707 68.5349 233.812 68.4819C233.918 68.4288 233.953 68.2874 233.9 68.1813L233.671 67.7394C233.601 67.6333 233.478 67.598 233.354 67.651C233.248 67.7217 233.213 67.8455 233.266 67.9692L233.513 68.4111V68.3935ZM237.055 75.7649C237.055 75.7649 237.125 75.7119 237.107 75.6588L236.931 75.1815C236.914 75.1285 236.861 75.1108 236.808 75.1285C236.755 75.1462 236.737 75.1992 236.755 75.2523L236.931 75.7295C236.931 75.7295 237.002 75.8002 237.037 75.7826L237.055 75.7649ZM138.501 126.746L138.183 126.287V126.251C137.144 124.819 135.17 124.448 133.708 125.42C132.21 126.41 131.787 128.443 132.791 129.946L133.126 130.441C133.126 130.441 133.161 130.511 133.197 130.529C134.236 132.014 136.28 132.35 137.761 131.307C139.241 130.264 139.576 128.213 138.536 126.729L138.501 126.746ZM128.192 121.655L128.439 122.185C128.439 122.185 128.474 122.256 128.492 122.274C129.267 123.812 131.153 124.43 132.686 123.635C134.219 122.857 134.835 120.966 134.043 119.428L133.796 118.933V118.897C133.021 117.413 131.206 116.776 129.69 117.501C128.14 118.226 127.47 120.082 128.192 121.655ZM130.695 111.544L130.518 111.031V110.996C130.007 109.493 128.386 108.645 126.853 109.087C125.285 109.546 124.386 111.208 124.862 112.781L125.038 113.347C125.038 113.347 125.056 113.418 125.073 113.435C125.584 114.991 127.276 115.839 128.827 115.309C130.377 114.796 131.223 113.099 130.695 111.544ZM126.272 106.488C127.805 106.223 128.827 104.756 128.562 103.218L128.474 102.67V102.634C128.21 101.149 126.818 100.124 125.32 100.336C123.787 100.548 122.712 101.98 122.924 103.518L123.012 104.102C123.012 104.102 123.012 104.172 123.012 104.19C123.276 105.728 124.739 106.753 126.272 106.488ZM122.36 94.6796C122.36 94.6796 122.36 94.7503 122.36 94.768C122.395 96.2529 123.611 97.4196 125.091 97.3842C126.571 97.3489 127.734 96.1291 127.699 94.6443V94.0786V94.0432C127.664 92.6114 126.501 91.4623 125.073 91.4447C123.611 91.4447 122.395 92.6114 122.395 94.0786V94.6619L122.36 94.6796ZM123.118 85.3106C123.118 85.3106 123.118 85.3637 123.118 85.399C122.941 86.7779 123.91 88.0506 125.303 88.2274C126.677 88.4042 127.946 87.4319 128.122 86.0354L128.192 85.4874V85.4521C128.369 84.1086 127.452 82.8712 126.113 82.659C124.739 82.4469 123.452 83.3661 123.241 84.745L123.153 85.3283L123.118 85.3106ZM125.426 75.6058L125.25 76.1715C125.25 76.1715 125.25 76.2245 125.232 76.2422C124.88 77.4973 125.62 78.8054 126.871 79.1766C128.122 79.5302 129.426 78.7877 129.796 77.5326L129.937 76.9846V76.9493C130.289 75.7295 129.602 74.4568 128.386 74.0679C127.153 73.679 125.814 74.3684 125.426 75.6058ZM131.893 65.9186C130.8 65.3883 129.479 65.8303 128.95 66.9262L128.686 67.4566C128.686 67.4566 128.668 67.5096 128.651 67.5273C128.157 68.6409 128.651 69.9667 129.761 70.4617C130.871 70.9567 132.192 70.4617 132.686 69.348L132.915 68.8354C133.391 67.7217 132.95 66.449 131.875 65.9186H131.893ZM133.69 58.9008L133.355 59.378C133.355 59.378 133.32 59.4134 133.32 59.4311C132.703 60.3856 132.985 61.6761 133.937 62.2948C134.888 62.9135 136.175 62.6307 136.791 61.6761L137.091 61.1988C137.69 60.2442 137.443 59.0068 136.527 58.3704C135.593 57.7164 134.307 57.9639 133.673 58.9008H133.69ZM139.558 51.6884L139.153 52.1127C139.153 52.1127 139.117 52.148 139.117 52.1657C138.413 52.9612 138.501 54.1809 139.294 54.8703C140.087 55.5774 141.302 55.489 141.99 54.6936L142.342 54.2693C143.012 53.4738 142.959 52.3071 142.219 51.6C141.461 50.8753 140.245 50.9106 139.523 51.6884H139.558ZM146.43 45.4483L145.972 45.8019C145.972 45.8019 145.937 45.8196 145.919 45.8372C145.179 46.4736 145.073 47.5873 145.708 48.3297C146.342 49.0722 147.452 49.1782 148.192 48.5419L148.615 48.1883C149.338 47.5696 149.443 46.4913 148.862 45.7488C148.263 44.9887 147.17 44.8473 146.395 45.4483H146.43ZM153.619 40.6048C153.619 40.6048 153.584 40.6224 153.567 40.6401C152.809 41.0997 152.58 42.1073 153.038 42.8674C153.496 43.6276 154.5 43.8574 155.258 43.3978L155.716 43.0973C156.439 42.6376 156.685 41.6831 156.263 40.9229C155.822 40.1451 154.853 39.88 154.078 40.3219L153.584 40.6048H153.619ZM162.465 36.3799L161.936 36.592C161.936 36.592 161.901 36.592 161.884 36.6097C161.144 36.9279 160.791 37.7941 161.108 38.5365C161.425 39.279 162.289 39.6325 163.029 39.3143L163.54 39.0845C164.262 38.7663 164.597 37.9532 164.315 37.2107C164.033 36.4683 163.188 36.097 162.448 36.3799H162.465ZM171.328 36.3976L171.857 36.2561C172.527 36.0794 172.95 35.3899 172.791 34.7005C172.632 33.9934 171.945 33.5515 171.24 33.7106L170.676 33.8344H170.641C169.936 34.0111 169.531 34.7359 169.707 35.443C169.884 36.1501 170.606 36.5567 171.311 36.3799L171.328 36.3976ZM179.98 34.7712L180.527 34.7182C181.143 34.6475 181.601 34.1172 181.549 33.4985C181.496 32.8621 180.949 32.3848 180.315 32.4378L179.751 32.4732H179.716C179.082 32.5439 178.624 33.1096 178.694 33.746C178.765 34.3823 179.328 34.842 179.963 34.7712H179.98ZM188.808 34.4707L189.355 34.4884C189.883 34.5061 190.341 34.0995 190.394 33.5692C190.43 33.0212 190.024 32.5439 189.478 32.4909L188.914 32.4378C188.914 32.4378 188.897 32.4378 188.879 32.4378C188.315 32.4202 187.857 32.8444 187.822 33.4101C187.804 33.9758 188.227 34.4354 188.791 34.4707H188.808ZM196.932 34.4707C196.844 34.9303 197.143 35.3899 197.601 35.4783L198.148 35.5844C198.588 35.6728 199.029 35.3899 199.134 34.948C199.24 34.4884 198.958 34.0288 198.5 33.9227L197.936 33.799C197.936 33.799 197.918 33.799 197.901 33.799C197.443 33.7106 196.985 34.0111 196.896 34.4707H196.932ZM206.183 37.7764L206.711 37.9708C207.064 38.0946 207.451 37.9178 207.592 37.5643C207.733 37.2107 207.557 36.8041 207.205 36.6627L206.676 36.4506C206.676 36.4506 206.676 36.4506 206.658 36.4506C206.288 36.3268 205.883 36.5213 205.76 36.8748C205.636 37.2284 205.83 37.6526 206.183 37.7764ZM214.341 41.3295L214.835 41.5947C215.099 41.7361 215.416 41.6477 215.557 41.3826C215.716 41.1174 215.61 40.7815 215.363 40.6401L214.87 40.3573C214.606 40.2159 214.271 40.3219 214.13 40.5871C213.989 40.8522 214.094 41.1881 214.359 41.3295H214.341ZM221.901 46.0847L222.341 46.4206C222.517 46.5443 222.746 46.5266 222.887 46.3499C223.028 46.1731 222.993 45.9256 222.817 45.8019L222.376 45.4483C222.2 45.3069 221.953 45.3599 221.812 45.5367C221.671 45.7135 221.724 45.961 221.901 46.1024V46.0847ZM229.09 52.3248C229.178 52.4132 229.337 52.4309 229.425 52.3248C229.53 52.2364 229.53 52.0773 229.425 51.9889L229.037 51.5824C228.931 51.4763 228.773 51.494 228.685 51.5824C228.579 51.6884 228.597 51.8475 228.685 51.9359L229.072 52.3425L229.09 52.3248ZM234.887 59.1836C234.887 59.1836 234.975 59.2366 235.011 59.2013C235.046 59.1659 235.063 59.1129 235.028 59.0775L234.711 58.6179C234.676 58.5649 234.623 58.5649 234.57 58.6002C234.517 58.6356 234.517 58.6886 234.552 58.7417L234.887 59.2013V59.1836ZM143.84 142.338L143.382 141.966L143.346 141.931C141.849 140.694 139.628 140.853 138.324 142.32C137.003 143.822 137.144 146.121 138.642 147.446L139.135 147.888C139.135 147.888 139.205 147.941 139.223 147.977C140.774 149.267 143.064 149.037 144.333 147.499C145.62 145.944 145.39 143.646 143.857 142.373H143.84V142.338ZM136.968 135.779L136.562 135.337L136.527 135.302C135.294 133.923 133.161 133.764 131.734 134.966C130.272 136.204 130.078 138.378 131.311 139.845L131.734 140.358C131.734 140.358 131.787 140.428 131.805 140.446C133.091 141.878 135.276 141.984 136.703 140.711C138.131 139.421 138.236 137.229 136.968 135.797V135.779ZM131.135 128.284L130.8 127.772V127.736C129.796 126.269 127.84 125.809 126.325 126.746C124.774 127.701 124.298 129.734 125.25 131.289L125.584 131.855C125.584 131.855 125.62 131.926 125.637 131.943C126.642 133.464 128.686 133.888 130.201 132.88C131.717 131.873 132.139 129.822 131.135 128.302V128.284ZM120.474 121.92L120.721 122.521C120.721 122.521 120.756 122.592 120.756 122.61C121.479 124.183 123.347 124.872 124.915 124.148C126.483 123.423 127.17 121.549 126.448 119.976L126.201 119.41V119.375C125.479 117.855 123.699 117.147 122.148 117.819C120.563 118.491 119.822 120.329 120.492 121.92H120.474ZM119.311 108.38C117.726 108.786 116.774 110.395 117.179 111.986L117.338 112.622C117.338 112.622 117.355 112.693 117.355 112.71C117.814 114.284 119.452 115.185 121.038 114.726C122.607 114.266 123.505 112.622 123.047 111.031L122.871 110.43V110.395C122.413 108.874 120.844 107.973 119.294 108.362L119.311 108.38ZM118.624 104.826C120.157 104.614 121.232 103.2 121.021 101.662L120.933 101.043V101.008C120.721 99.5232 119.382 98.4625 117.884 98.604C116.351 98.7631 115.241 100.124 115.4 101.662L115.47 102.316C115.47 102.316 115.47 102.387 115.47 102.405C115.682 103.943 117.091 105.021 118.624 104.809V104.826ZM115.153 91.2679L115.118 91.922C115.118 91.922 115.118 91.9927 115.118 92.0103C115.1 93.4599 116.263 94.6619 117.708 94.6796C119.153 94.6973 120.351 93.5306 120.369 92.081V91.4623V91.427C120.369 90.0128 119.294 88.8461 117.867 88.7754C116.422 88.7047 115.206 89.836 115.135 91.2856L115.153 91.2679ZM119.311 79.0175C117.99 78.7524 116.704 79.6185 116.439 80.962L116.316 81.5984C116.316 81.5984 116.316 81.6514 116.316 81.6868C116.104 83.0303 117.003 84.303 118.36 84.5152C119.699 84.7273 120.968 83.8257 121.179 82.4646L121.267 81.8459V81.8105C121.479 80.5024 120.633 79.265 119.329 79.0175H119.311ZM119.223 70.9567L119.012 71.5754C119.012 71.5754 118.994 71.6284 118.994 71.6461C118.607 72.8481 119.276 74.1563 120.474 74.5452C121.673 74.9341 122.977 74.2623 123.364 73.0603L123.54 72.4592V72.4239C123.928 71.2572 123.311 69.9844 122.148 69.5778C120.968 69.1536 119.664 69.7723 119.241 70.9567H119.223ZM126.325 60.6508C125.303 60.1028 124.016 60.4917 123.47 61.517L123.17 62.0827C123.17 62.0827 123.153 62.1357 123.135 62.1534C122.607 63.214 123.047 64.4868 124.104 65.0171C125.162 65.5474 126.43 65.1055 126.959 64.0448L127.223 63.4792C127.717 62.4362 127.329 61.1988 126.325 60.6508ZM129.038 52.8374L128.651 53.3501C128.651 53.3501 128.615 53.3854 128.615 53.4031C127.999 54.287 128.21 55.5244 129.109 56.1431C130.007 56.7618 131.223 56.5497 131.84 55.6481L132.192 55.1355C132.791 54.2516 132.598 53.0672 131.769 52.4309C130.906 51.7768 129.69 51.9536 129.038 52.8198V52.8374ZM135.822 45.1125L135.364 45.5721L135.329 45.6074C134.642 46.3322 134.677 47.4635 135.399 48.153C136.122 48.8424 137.25 48.807 137.937 48.0823L138.36 47.6226C139.012 46.9156 139.012 45.8196 138.324 45.1301C137.637 44.423 136.509 44.423 135.805 45.1301L135.822 45.1125ZM142.818 41.1704C143.364 41.8775 144.386 42.0013 145.091 41.4356L145.567 41.0467C146.236 40.4987 146.377 39.5088 145.866 38.8193C145.338 38.0946 144.333 37.9355 143.611 38.4658L143.1 38.837C143.1 38.837 143.064 38.8547 143.064 38.8724C142.36 39.4204 142.236 40.4457 142.8 41.1527L142.818 41.1704ZM151.787 33.3747C151.787 33.3747 151.752 33.3747 151.752 33.3924C151.047 33.7813 150.818 34.6829 151.205 35.3723C151.593 36.0794 152.492 36.3092 153.179 35.9203L153.708 35.6198C154.377 35.2309 154.624 34.3823 154.271 33.6753C153.901 32.9682 153.038 32.703 152.315 33.0742L151.752 33.3747H151.787ZM161.725 29.0615L161.126 29.2736H161.091C160.421 29.5211 160.104 30.2812 160.351 30.9353C160.597 31.607 161.355 31.9252 162.007 31.6777L162.571 31.4479C163.205 31.2004 163.54 30.4757 163.311 29.8393C163.082 29.1675 162.359 28.814 161.69 29.0438L161.725 29.0615ZM171.381 28.814L171.98 28.6726C172.562 28.5488 172.932 27.9655 172.826 27.3821C172.721 26.7811 172.139 26.3745 171.54 26.4983L170.923 26.622C170.923 26.622 170.906 26.622 170.888 26.622C170.289 26.7634 169.901 27.3468 170.042 27.9655C170.183 28.5665 170.765 28.9554 171.381 28.814ZM181.108 27.3645L181.725 27.3291C182.236 27.2937 182.623 26.8695 182.606 26.3569C182.588 25.8442 182.148 25.4376 181.637 25.4553H181.002C181.002 25.4553 180.985 25.473 180.967 25.473C180.438 25.5083 180.051 25.968 180.086 26.4983C180.121 27.0286 180.579 27.4175 181.108 27.3821V27.3645ZM190.976 27.3645L191.593 27.4175C191.998 27.4528 192.368 27.1523 192.421 26.7281C192.474 26.3038 192.156 25.9149 191.734 25.8796L191.099 25.8089H191.082C190.659 25.7735 190.271 26.0917 190.236 26.5336C190.2 26.9579 190.518 27.3468 190.958 27.3821L190.976 27.3645ZM200.755 28.8317L201.355 28.9731C201.672 29.0438 201.989 28.8493 202.077 28.5488C202.165 28.2306 201.971 27.8948 201.654 27.8064L201.037 27.6473C201.037 27.6473 201.037 27.6473 201.02 27.6473C200.685 27.5766 200.368 27.771 200.28 28.1069C200.209 28.4428 200.403 28.761 200.738 28.8493L200.755 28.8317ZM210.236 31.7484L210.817 31.9782C211.028 32.0666 211.275 31.9782 211.381 31.7484C211.469 31.5186 211.381 31.2711 211.152 31.1651L210.57 30.9176C210.341 30.8292 210.077 30.9353 209.989 31.1651C209.901 31.3949 210.006 31.66 210.236 31.7484ZM219.733 36.3799C219.857 36.4506 220.015 36.4152 220.103 36.2915C220.174 36.1678 220.138 35.991 220.015 35.9203L219.486 35.5844C219.346 35.5137 219.187 35.549 219.099 35.6905C219.028 35.8319 219.064 35.991 219.205 36.0794L219.751 36.3976L219.733 36.3799ZM227.927 42.072C227.927 42.072 228.033 42.1073 228.068 42.072C228.103 42.0366 228.103 41.9659 228.068 41.9306L227.592 41.524C227.539 41.4886 227.469 41.4886 227.434 41.5416C227.398 41.5947 227.398 41.6654 227.451 41.7007L227.945 42.0896L227.927 42.072ZM149.937 164.576L150.589 164.911C150.589 164.911 150.677 164.947 150.712 164.965C152.738 165.901 155.135 165 156.069 162.967C157.003 160.934 156.104 158.53 154.078 157.593H154.042L153.443 157.31H153.39C151.434 156.391 149.091 157.204 148.122 159.166C147.135 161.164 147.945 163.586 149.919 164.576H149.937ZM144.245 152.184L144.21 152.148C142.483 151.017 140.157 151.477 138.976 153.174C137.761 154.924 138.183 157.328 139.928 158.53L140.527 158.954C140.527 158.954 140.598 159.007 140.633 159.025C142.412 160.192 144.809 159.679 145.954 157.894C147.117 156.108 146.606 153.704 144.827 152.555H144.809L144.263 152.184H144.245ZM131.435 151.618C131.435 151.618 131.505 151.671 131.523 151.707C133.038 153.05 135.346 152.909 136.703 151.388C138.042 149.868 137.902 147.552 136.386 146.191H136.368L135.875 145.732L135.84 145.696C134.377 144.388 132.122 144.477 130.765 145.926C129.373 147.393 129.443 149.709 130.906 151.106L131.435 151.6V151.618ZM123.576 143.009C123.576 143.009 123.629 143.08 123.646 143.098C124.88 144.583 127.065 144.777 128.545 143.54C130.025 142.302 130.219 140.11 128.985 138.625L128.562 138.095L128.527 138.06C127.329 136.628 125.214 136.398 123.734 137.547C122.219 138.731 121.955 140.906 123.135 142.426L123.576 143.009ZM117.091 133.34C117.091 133.34 117.126 133.411 117.144 133.428C118.096 134.984 120.122 135.479 121.673 134.542C123.223 133.587 123.717 131.554 122.783 129.999L122.43 129.415V129.38C121.496 127.878 119.541 127.347 118.007 128.231C116.422 129.115 115.875 131.13 116.756 132.721L117.109 133.358L117.091 133.34ZM116.245 124.607C117.831 123.936 118.571 122.115 117.902 120.524L117.637 119.887V119.852C116.985 118.314 115.241 117.554 113.673 118.155C112.069 118.774 111.276 120.559 111.875 122.168L112.14 122.84C112.14 122.84 112.175 122.91 112.175 122.946C112.845 124.537 114.66 125.279 116.245 124.607ZM110.853 107.584C109.285 107.938 108.298 109.493 108.633 111.066L108.792 111.774C108.792 111.774 108.792 111.844 108.809 111.862C109.215 113.435 110.801 114.372 112.351 113.983C113.919 113.577 114.853 111.986 114.466 110.43L114.307 109.758V109.723C113.919 108.203 112.386 107.266 110.853 107.602V107.584ZM107.118 100.336C107.118 100.336 107.118 100.407 107.118 100.425C107.276 101.927 108.616 103.023 110.113 102.882C111.611 102.723 112.704 101.379 112.563 99.8767L112.492 99.1873V99.152C112.334 97.7024 111.065 96.6064 109.602 96.7125C108.105 96.8186 106.977 98.109 107.065 99.6292L107.118 100.354V100.336ZM109.567 91.5684C110.977 91.6391 112.157 90.5431 112.228 89.1466L112.263 88.4572V88.4218C112.334 87.0607 111.312 85.8763 109.937 85.7702C108.545 85.6642 107.312 86.7071 107.206 88.1037L107.153 88.8284C107.153 88.8284 107.153 88.8815 107.153 88.9168C107.082 90.331 108.175 91.5154 109.567 91.5861V91.5684ZM108.88 77.4266C108.88 77.4266 108.88 77.4796 108.88 77.4973C108.616 78.7877 109.461 80.0251 110.73 80.2903C112.016 80.5555 113.25 79.7069 113.514 78.4342L113.637 77.7624V77.7271C113.884 76.4897 113.109 75.2699 111.875 74.9694C110.607 74.6689 109.356 75.4644 109.056 76.7195L108.897 77.4266H108.88ZM112.545 65.7949L112.281 66.4666C112.281 66.4666 112.263 66.5197 112.263 66.5373C111.858 67.6687 112.439 68.9238 113.567 69.3304C114.695 69.7369 115.946 69.1536 116.351 68.0222L116.58 67.3682C116.968 66.2545 116.439 65.0348 115.347 64.5928C114.237 64.1509 112.986 64.6812 112.527 65.7949H112.545ZM118.025 58.9184C118.994 59.4488 120.192 59.0775 120.721 58.1053L121.038 57.4866C121.549 56.532 121.214 55.3476 120.298 54.8173C119.364 54.2693 118.148 54.5875 117.602 55.5244L117.25 56.1431C117.25 56.1431 117.232 56.1785 117.215 56.1961C116.686 57.1684 117.056 58.3704 118.025 58.9008V58.9184ZM124.104 46.1554L123.664 46.7034C123.664 46.7034 123.629 46.7388 123.629 46.7565C123.029 47.5519 123.188 48.6833 123.999 49.2843C124.792 49.8853 125.919 49.7262 126.518 48.9131L126.924 48.3651C127.505 47.5696 127.364 46.4736 126.606 45.8726C125.831 45.2539 124.703 45.3776 124.087 46.1554H124.104ZM133.602 40.6931L134.078 40.1982C134.695 39.5795 134.712 38.5895 134.131 37.9532C133.532 37.2991 132.51 37.2637 131.858 37.8648L131.329 38.3421C131.329 38.3421 131.294 38.3597 131.294 38.3774C130.659 39.0138 130.659 40.0391 131.294 40.6755C131.928 41.3118 132.95 41.3118 133.584 40.6755L133.602 40.6931ZM139.875 33.2864C140.333 33.9227 141.232 34.0642 141.866 33.6045L142.412 33.198C143.029 32.7384 143.188 31.8722 142.747 31.2358C142.307 30.5817 141.426 30.4226 140.774 30.8469L140.192 31.2358C140.192 31.2358 140.157 31.2535 140.157 31.2711C139.523 31.7308 139.382 32.6323 139.84 33.2687L139.875 33.2864ZM149.972 25.5967C149.355 25.9149 149.126 26.675 149.443 27.2761C149.76 27.8948 150.518 28.1246 151.117 27.8064L151.716 27.4882C152.298 27.17 152.545 26.4629 152.263 25.8619C151.963 25.2432 151.241 24.978 150.624 25.2785L149.99 25.5791C149.99 25.5791 149.954 25.5791 149.954 25.5967H149.972ZM161.161 21.2128L160.492 21.4249C160.492 21.4249 160.474 21.4249 160.456 21.4249C159.91 21.6193 159.611 22.2204 159.804 22.7684C159.998 23.3164 160.597 23.6169 161.144 23.4224L161.796 23.1926C162.324 22.9982 162.624 22.4325 162.448 21.8845C162.271 21.3365 161.69 21.0183 161.144 21.1951L161.161 21.2128ZM171.734 20.5941L172.403 20.4703C172.861 20.3819 173.161 19.9577 173.091 19.4981C173.02 19.0208 172.58 18.7026 172.121 18.7733L171.434 18.8794C171.434 18.8794 171.417 18.8794 171.399 18.8794C170.923 18.9677 170.624 19.4274 170.694 19.887C170.782 20.3642 171.24 20.6648 171.699 20.5941H171.734ZM182.659 19.339L183.346 19.3213C183.698 19.3213 183.998 19.0031 183.998 18.6495C183.998 18.2783 183.698 17.9778 183.328 17.9778H182.623C182.623 17.9778 182.623 17.9778 182.606 17.9778C182.236 17.9778 181.936 18.3137 181.954 18.6849C181.954 19.0561 182.289 19.3566 182.659 19.339ZM193.672 19.7279L194.359 19.8162C194.623 19.8516 194.852 19.6572 194.888 19.4097C194.923 19.1445 194.747 18.897 194.482 18.8617L193.795 18.7556C193.531 18.7203 193.284 18.9147 193.249 19.1975C193.214 19.4627 193.408 19.7102 193.689 19.7455L193.672 19.7279ZM204.526 21.7784L205.196 21.9552C205.355 21.9906 205.513 21.9022 205.566 21.7608C205.619 21.6017 205.531 21.4426 205.372 21.3895L204.703 21.1774C204.544 21.142 204.368 21.2304 204.332 21.4072C204.297 21.5663 204.385 21.7431 204.562 21.7784H204.526ZM215.61 25.7028C215.61 25.7028 215.733 25.7028 215.751 25.6498C215.786 25.5967 215.751 25.526 215.698 25.5083L215.064 25.2078C214.993 25.1725 214.923 25.2078 214.905 25.2785C214.87 25.3492 214.905 25.42 214.976 25.4376L215.61 25.7205V25.7028ZM173.126 177.038C173.531 174.581 171.892 172.265 169.443 171.841H169.408L168.685 171.717H168.632C166.271 171.311 163.998 172.866 163.505 175.235C163.011 177.657 164.58 180.026 166.994 180.521L167.787 180.68C167.787 180.68 167.892 180.697 167.928 180.715C170.377 181.122 172.685 179.478 173.108 177.02L173.126 177.038ZM160.826 173.662C161.549 171.399 160.333 168.977 158.077 168.253H158.042L157.337 168.023H157.285C155.1 167.298 152.756 168.447 151.963 170.621C151.152 172.849 152.298 175.306 154.518 176.101L155.276 176.384C155.276 176.384 155.364 176.419 155.417 176.437C157.672 177.162 160.086 175.942 160.809 173.679L160.826 173.662ZM149.038 169.331C150.042 167.316 149.232 164.858 147.223 163.851H147.188L146.536 163.515H146.483C144.527 162.525 142.148 163.268 141.109 165.194C140.034 167.174 140.774 169.649 142.747 170.71L143.452 171.099C143.452 171.099 143.54 171.152 143.575 171.169C145.584 172.177 148.034 171.364 149.038 169.348V169.331ZM138.042 163.268C139.276 161.517 138.853 159.096 137.109 157.858H137.091L136.492 157.416L136.457 157.381C134.765 156.197 132.421 156.55 131.17 158.212C129.884 159.909 130.219 162.331 131.928 163.621L132.58 164.116C132.58 164.116 132.65 164.169 132.686 164.187C134.43 165.424 136.844 165 138.078 163.25L138.042 163.268ZM122.836 155.631C122.836 155.631 122.888 155.702 122.924 155.719C124.386 157.116 126.695 157.063 128.104 155.596C129.496 154.128 129.443 151.813 127.981 150.398H127.963L127.435 149.868L127.399 149.833C125.99 148.472 123.752 148.489 122.342 149.868C120.897 151.282 120.88 153.598 122.289 155.048L122.853 155.631H122.836ZM120.016 141.63L119.558 141.047V141.012C118.395 139.545 116.316 139.244 114.8 140.34C113.267 141.454 112.915 143.61 114.025 145.148L114.501 145.802C114.501 145.802 114.554 145.873 114.571 145.891C115.734 147.411 117.902 147.676 119.417 146.509C120.933 145.343 121.197 143.168 120.034 141.648L120.016 141.63ZM107.734 134.842C107.734 134.842 107.77 134.913 107.787 134.931C108.668 136.504 110.642 137.052 112.21 136.168C113.778 135.284 114.325 133.304 113.444 131.731L113.074 131.059V131.024C112.21 129.504 110.307 128.938 108.756 129.734C107.171 130.565 106.554 132.509 107.364 134.1L107.734 134.807V134.842ZM102.66 123.052C102.66 123.052 102.677 123.122 102.695 123.14C103.294 124.713 105.038 125.509 106.607 124.908C108.175 124.307 108.968 122.557 108.369 120.983L108.104 120.259V120.223C107.505 118.703 105.831 117.908 104.281 118.438C102.695 118.986 101.849 120.701 102.395 122.292L102.66 123.052ZM99.3821 110.66C99.3821 110.66 99.3821 110.731 99.3998 110.748C99.7346 112.286 101.232 113.258 102.765 112.923C104.298 112.587 105.268 111.084 104.933 109.546L104.774 108.786V108.751C104.439 107.266 103.012 106.294 101.514 106.576C99.9812 106.859 98.9769 108.326 99.2412 109.864L99.3821 110.66ZM97.9725 97.9499C97.9725 97.9499 97.9725 98.0206 97.9725 98.0383C98.0606 99.4878 99.3117 100.584 100.757 100.495C102.201 100.407 103.294 99.152 103.206 97.7024L103.153 96.9246V96.8893C103.065 95.4928 101.884 94.3968 100.475 94.4498C99.0297 94.4852 97.902 95.7049 97.9372 97.1544V97.9499H97.9725ZM100.686 87.9092C102.008 88.0153 103.188 87.043 103.294 85.6995L103.364 84.9394V84.9041C103.47 83.6136 102.554 82.4646 101.25 82.3055C99.9284 82.1464 98.7302 83.0833 98.5716 84.4091L98.4835 85.2046C98.4835 85.2046 98.4835 85.2576 98.4835 85.293C98.3777 86.6188 99.3469 87.8031 100.686 87.9092ZM100.862 72.7774C100.58 73.9618 101.32 75.1639 102.501 75.4467C103.682 75.7295 104.88 74.9871 105.162 73.8027L105.338 73.0603C105.602 71.8936 104.933 70.7269 103.787 70.4087C102.624 70.0905 101.409 70.7799 101.091 71.9466L100.88 72.7067C100.88 72.7067 100.88 72.7598 100.862 72.7774ZM105.373 59.9967L105.056 60.7215C105.056 60.7215 105.038 60.7569 105.038 60.7922C104.633 61.8175 105.127 62.9842 106.149 63.4085C107.171 63.815 108.334 63.3201 108.756 62.2948L109.038 61.57C109.426 60.5624 108.968 59.4134 107.999 58.9891C106.994 58.5472 105.814 58.9891 105.373 60.0144V59.9967ZM111.541 52.042C112.404 52.5369 113.497 52.2541 113.99 51.4056L114.378 50.7338C114.853 49.8853 114.607 48.8247 113.796 48.3121C112.968 47.7817 111.858 48.0292 111.347 48.8601L110.924 49.5318C110.924 49.5318 110.906 49.5671 110.889 49.5848C110.395 50.451 110.677 51.547 111.523 52.042H111.541ZM118.589 41.63C119.276 42.178 120.263 42.072 120.827 41.4002L121.303 40.7992C121.831 40.1275 121.743 39.1552 121.109 38.6072C120.457 38.0415 119.452 38.1123 118.889 38.7663L118.378 39.3673C118.378 39.3673 118.36 39.4027 118.342 39.4027C117.796 40.0921 117.902 41.082 118.571 41.6477L118.589 41.63ZM129.073 32.5086L129.637 31.9782C130.184 31.4656 130.236 30.6348 129.743 30.0691C129.25 29.4857 128.386 29.4327 127.822 29.91L127.223 30.4226C127.223 30.4226 127.206 30.4403 127.188 30.458C126.624 30.9706 126.589 31.8545 127.1 32.4202C127.611 32.9858 128.492 33.0212 129.056 32.5086H129.073ZM138.589 24.925L139.223 24.5007C139.734 24.1472 139.893 23.4401 139.558 22.9098C139.223 22.3618 138.501 22.2027 137.954 22.5386L137.285 22.9628C137.285 22.9628 137.267 22.9628 137.25 22.9805C136.721 23.3517 136.562 24.0765 136.932 24.6068C137.302 25.1371 138.025 25.2962 138.553 24.925H138.589ZM148.298 17.0763C147.822 17.3061 147.611 17.8894 147.84 18.3667C148.069 18.844 148.65 19.0561 149.126 18.8263L149.813 18.4905C150.271 18.2606 150.483 17.7127 150.271 17.2354C150.06 16.7581 149.496 16.5283 149.02 16.7404L148.298 17.0586C148.298 17.0586 148.28 17.0586 148.263 17.0586L148.298 17.0763ZM160.492 14.3363L161.214 14.1065C161.602 13.9827 161.813 13.5938 161.707 13.1873C161.602 12.7807 161.196 12.5509 160.791 12.6569L160.033 12.8514C160.033 12.8514 160.033 12.8514 160.016 12.8514C159.611 12.9751 159.381 13.3994 159.505 13.806C159.628 14.2125 160.051 14.4424 160.456 14.3186L160.492 14.3363ZM172.421 11.5786L173.179 11.4726C173.461 11.4372 173.672 11.1721 173.637 10.8715C173.602 10.571 173.337 10.3589 173.038 10.3943L172.262 10.4826C172.262 10.4826 172.262 10.4826 172.245 10.4826C171.945 10.5357 171.734 10.8008 171.787 11.119C171.839 11.4372 172.104 11.6317 172.421 11.5786ZM184.65 10.6417H185.425C185.601 10.6417 185.76 10.5003 185.76 10.3235C185.76 10.1468 185.619 9.98767 185.443 9.98767L184.668 9.95232C184.474 9.95232 184.333 10.1114 184.333 10.3059C184.333 10.5003 184.491 10.6417 184.685 10.6417H184.65ZM196.914 11.5433L197.672 11.667C197.672 11.667 197.795 11.6317 197.813 11.561C197.813 11.4902 197.777 11.4195 197.707 11.4195L196.949 11.2781C196.879 11.2781 196.808 11.3135 196.791 11.4019C196.791 11.4726 196.826 11.5433 196.914 11.561V11.5433ZM167.293 182.783C167.205 182.5 167.099 182.235 166.958 181.97C166.818 181.705 166.659 181.475 166.483 181.245C166.307 181.016 166.095 180.803 165.866 180.627C165.425 180.255 164.897 179.955 164.315 179.778C164.174 179.725 164.016 179.69 163.875 179.654H163.84L163.047 179.478H162.994C162.694 179.407 162.395 179.372 162.113 179.372C161.232 179.372 160.403 179.619 159.681 180.079C159.205 180.379 158.782 180.768 158.448 181.245C158.113 181.705 157.866 182.253 157.707 182.836C157.566 183.437 157.549 184.056 157.637 184.639C157.919 186.372 159.223 187.857 161.038 188.299L161.919 188.511C161.919 188.511 162.025 188.528 162.06 188.546C162.218 188.581 162.359 188.599 162.518 188.617C163.734 188.74 164.914 188.352 165.813 187.627C166.042 187.45 166.254 187.238 166.43 187.008C166.906 186.442 167.24 185.771 167.399 184.993C167.487 184.533 167.505 184.074 167.469 183.632C167.434 183.331 167.381 183.048 167.293 182.766V182.783ZM109.867 144.865L109.391 144.194V144.158C108.845 143.434 108.069 142.974 107.241 142.815C107.03 142.78 106.818 142.762 106.607 142.762C105.972 142.762 105.338 142.956 104.774 143.328C103.805 143.982 103.294 145.042 103.294 146.121C103.294 146.775 103.47 147.429 103.858 148.012L104.351 148.754C104.351 148.754 104.404 148.825 104.422 148.843C104.968 149.603 105.761 150.063 106.624 150.204C106.836 150.239 107.047 150.257 107.276 150.239C107.505 150.222 107.717 150.204 107.928 150.151C108.14 150.098 108.351 150.027 108.563 149.939C108.774 149.85 108.968 149.727 109.162 149.603C109.726 149.196 110.131 148.631 110.36 148.03C110.43 147.818 110.483 147.623 110.519 147.393C110.66 146.545 110.466 145.626 109.919 144.865H109.867ZM97.6729 121.372L97.5319 120.948L97.391 120.559V120.524C97.3205 120.347 97.25 120.17 97.1619 119.993C96.9681 119.675 96.7214 119.392 96.4394 119.163C96.1575 118.933 95.8227 118.774 95.4703 118.668C95.2941 118.615 95.1179 118.579 94.924 118.562C94.7478 118.544 94.554 118.544 94.3602 118.562C94.1663 118.579 93.9901 118.615 93.7963 118.668C93.2148 118.844 92.739 119.18 92.3866 119.605C92.2633 119.746 92.1575 119.905 92.0694 120.064C91.717 120.718 91.6113 121.514 91.8404 122.274L92.0871 123.122C92.0871 123.122 92.1047 123.193 92.1223 123.211C92.6333 124.749 94.2897 125.562 95.8227 125.049C96.2104 124.925 96.5452 124.713 96.8271 124.466C97.6729 123.706 98.0429 122.486 97.6553 121.337L97.6729 121.372ZM90.5012 97.7024C91.858 97.6671 92.9152 96.5357 92.88 95.1746V95.1569V94.3261L92.8624 94.2907C92.8448 93.4775 92.4042 92.7528 91.7699 92.3285C91.3822 92.081 90.9241 91.922 90.4307 91.922C89.9197 91.922 89.4615 92.0634 89.0563 92.3285C88.7919 92.5053 88.5629 92.7351 88.3867 92.9826C88.2986 93.1063 88.2281 93.2477 88.1576 93.3892C88.0342 93.6897 87.9638 94.0079 87.9638 94.3437V95.2276C87.9638 95.2276 87.9638 95.2806 87.9638 95.316C87.999 96.3413 88.6334 97.1898 89.532 97.5433C89.8316 97.6671 90.1488 97.7201 90.4836 97.7024H90.5012ZM93.4967 69.9667C94.554 70.2673 95.6641 69.6309 95.9461 68.5702L96.1751 67.7394C96.3161 67.2091 96.2456 66.6788 95.9989 66.2368C95.7522 65.7949 95.3646 65.459 94.8536 65.2999C94.5892 65.2115 94.3249 65.1939 94.0782 65.2115C93.3029 65.2823 92.6333 65.8126 92.3866 66.5904L92.1223 67.4212C92.1223 67.4212 92.1223 67.4742 92.1047 67.4919C91.8051 68.5526 92.4395 69.6662 93.4967 69.9491V69.9667ZM146.553 9.08613C146.73 9.24523 146.994 9.29826 147.223 9.20987L147.998 8.874C147.998 8.874 148.139 8.78562 148.192 8.73258C148.298 8.62652 148.351 8.4851 148.368 8.32601C148.368 8.2553 148.368 8.16691 148.333 8.0962C148.28 7.93711 148.157 7.83104 148.016 7.76033C147.875 7.7073 147.716 7.68962 147.558 7.76033L146.747 8.07853C146.747 8.07853 146.747 8.07853 146.73 8.07853C146.501 8.18459 146.36 8.41439 146.36 8.6442C146.36 8.73258 146.36 8.80329 146.412 8.89168C146.465 8.98007 146.501 9.0331 146.553 9.08613ZM189.76 181.086H189.725L188.914 181.175H188.844C186.183 181.44 184.192 183.755 184.368 186.442C184.527 189.2 186.888 191.286 189.637 191.109L190.535 191.056C190.535 191.056 190.659 191.056 190.712 191.056C193.46 190.791 195.469 188.352 195.205 185.612C194.941 182.854 192.509 180.839 189.778 181.104L189.76 181.086ZM176.773 181.422H176.738L175.928 181.369H175.875C173.337 181.228 171.135 183.154 170.906 185.7C170.676 188.316 172.615 190.614 175.223 190.844L176.121 190.915C176.121 190.915 176.227 190.915 176.28 190.915C178.905 191.056 181.143 189.023 181.284 186.407C181.425 183.773 179.399 181.528 176.791 181.387L176.773 181.422ZM151.276 176.331H151.241L150.465 176.031H150.412C148.263 175.217 145.849 176.278 144.985 178.435C144.879 178.717 144.791 178.983 144.738 179.265C144.474 180.662 144.932 182.094 145.919 183.084C146.307 183.473 146.782 183.809 147.329 184.021L148.157 184.357C148.157 184.357 148.245 184.392 148.298 184.41C148.58 184.516 148.862 184.586 149.144 184.622C149.426 184.657 149.708 184.675 149.99 184.657C150.271 184.657 150.536 184.604 150.818 184.533C152.157 184.197 153.32 183.225 153.831 181.829C154.236 180.715 154.166 179.531 153.69 178.541C153.232 177.533 152.386 176.72 151.276 176.313V176.331ZM140.016 171.434C139.805 171.258 139.576 171.099 139.329 170.975H139.294L138.571 170.568H138.518C137.32 169.896 135.946 169.897 134.8 170.462C134.113 170.798 133.514 171.328 133.091 172.035C132.95 172.283 132.827 172.53 132.739 172.778C132.386 173.803 132.457 174.899 132.915 175.836C133.144 176.313 133.443 176.738 133.849 177.109C134.043 177.286 134.272 177.462 134.501 177.604L135.276 178.063C135.276 178.063 135.311 178.081 135.329 178.099C135.346 178.099 135.364 178.116 135.382 178.134C135.628 178.276 135.875 178.382 136.139 178.452C136.404 178.541 136.668 178.594 136.915 178.611C137.179 178.647 137.443 178.647 137.708 178.611C139.012 178.488 140.227 177.745 140.897 176.508C141.849 174.775 141.408 172.672 139.963 171.434H140.016ZM128.298 163.851H128.28L127.629 163.338L127.593 163.303C126.977 162.843 126.272 162.578 125.549 162.543C124.598 162.472 123.629 162.773 122.853 163.409C122.659 163.568 122.483 163.745 122.325 163.957C121.655 164.77 121.391 165.795 121.479 166.768C121.496 167.015 121.549 167.245 121.62 167.492C121.831 168.199 122.254 168.854 122.871 169.348L123.558 169.914C123.558 169.914 123.629 169.967 123.664 170.003C123.875 170.162 124.104 170.303 124.333 170.409C124.792 170.639 125.285 170.745 125.778 170.78C126.518 170.816 127.258 170.657 127.91 170.268C128.351 170.02 128.739 169.684 129.056 169.26C129.69 168.412 129.937 167.386 129.796 166.414C129.655 165.442 129.162 164.505 128.316 163.869L128.298 163.851ZM118.378 155.136L117.796 154.553L117.761 154.517C117.426 154.164 117.038 153.916 116.615 153.722C116.193 153.545 115.752 153.439 115.294 153.439C114.836 153.439 114.395 153.492 113.955 153.651C113.743 153.722 113.532 153.828 113.338 153.952C113.144 154.075 112.95 154.217 112.774 154.376C112.228 154.871 111.875 155.507 111.699 156.179C111.646 156.409 111.611 156.639 111.593 156.868C111.558 157.788 111.858 158.724 112.527 159.467L113.126 160.121C113.126 160.121 113.179 160.192 113.215 160.209C113.743 160.74 114.378 161.093 115.065 161.217C115.963 161.411 116.933 161.235 117.743 160.722C117.937 160.598 118.131 160.439 118.307 160.262C118.483 160.086 118.642 159.891 118.783 159.697C119.717 158.3 119.593 156.391 118.378 155.136ZM102.889 133.782L102.501 133.022V132.986C101.708 131.484 99.8931 130.865 98.3601 131.59C97.391 132.049 96.7566 132.951 96.598 133.959C96.5099 134.56 96.598 135.178 96.8623 135.779L97.25 136.575C97.25 136.575 97.2852 136.646 97.3029 136.663C97.4086 136.858 97.5143 137.034 97.6553 137.193C98.3073 138.007 99.3293 138.431 100.351 138.36C100.757 138.325 101.162 138.219 101.55 138.024C101.743 137.918 101.92 137.812 102.078 137.671C102.395 137.406 102.66 137.087 102.853 136.734C103.047 136.38 103.171 135.991 103.224 135.585C103.276 135.178 103.241 134.772 103.135 134.365C103.083 134.171 102.994 133.959 102.906 133.764L102.889 133.782ZM93.8492 110.678C94.043 110.395 94.184 110.077 94.2721 109.741C94.3602 109.405 94.3602 109.034 94.2897 108.68L94.1487 107.832V107.796C93.9196 106.559 92.88 105.657 91.6642 105.604C91.488 105.604 91.3117 105.604 91.1355 105.622C90.9593 105.64 90.7831 105.693 90.6069 105.746C89.9373 105.993 89.4087 106.488 89.1091 107.107C88.8801 107.566 88.7919 108.097 88.8624 108.662L88.9858 109.546C88.9858 109.546 88.9858 109.617 88.9858 109.635C89.0563 110.006 89.1796 110.342 89.3734 110.625C89.6554 111.066 90.0607 111.402 90.5364 111.614C91.0122 111.827 91.5408 111.897 92.0871 111.809C92.8095 111.685 93.4263 111.261 93.8139 110.695L93.8492 110.678ZM89.7435 83.4015C90.0607 83.6843 90.4836 83.8788 90.9417 83.9318C91.1003 83.9495 91.2413 83.9495 91.3998 83.9318C91.5584 83.9141 91.6994 83.8965 91.8228 83.8611C92.3866 83.702 92.8448 83.3308 93.1443 82.8181C93.2853 82.5707 93.391 82.2878 93.4263 81.9696L93.532 81.1211C93.5848 80.6438 93.4967 80.2196 93.3205 79.8484C93.0033 79.2297 92.4219 78.7524 91.6818 78.6463C90.4836 78.4519 89.3558 79.2827 89.162 80.5024L89.021 81.3686C89.021 81.3686 89.021 81.3863 89.021 81.404C89.021 81.404 89.021 81.4216 89.021 81.4393C88.9858 81.7398 89.021 82.0403 89.0915 82.3232C89.2149 82.7474 89.4439 83.1187 89.7787 83.4015H89.7435ZM98.0606 56.9739C98.1663 57.027 98.2896 57.0623 98.3954 57.08C99.1883 57.2568 100.034 56.8502 100.387 56.0724L100.721 55.2946C101.109 54.4107 100.721 53.4031 99.8931 52.9789C99.6817 52.8728 99.4526 52.8198 99.2235 52.8021C98.5363 52.7667 97.8667 53.138 97.5496 53.792L97.1619 54.5698C97.1619 54.5698 97.1443 54.6052 97.1443 54.6228C97.0386 54.8527 97.0033 55.0825 96.9857 55.3123C96.9857 55.7719 97.1443 56.2138 97.4615 56.5497C97.62 56.7088 97.8139 56.8502 98.0253 56.9563L98.0606 56.9739ZM104.157 44.1932C104.263 44.3523 104.422 44.5114 104.598 44.6175C104.686 44.6705 104.774 44.7236 104.88 44.7589C105.268 44.9003 105.673 44.8827 106.043 44.7412C106.219 44.6705 106.395 44.5468 106.536 44.4054C106.607 44.3347 106.677 44.2463 106.73 44.1579L107.188 43.4331C107.241 43.3271 107.294 43.2387 107.329 43.1503C107.364 43.0619 107.4 42.9558 107.4 42.8674C107.505 42.3018 107.276 41.7007 106.765 41.3472C106.501 41.1704 106.219 41.082 105.92 41.082C105.726 41.082 105.532 41.1174 105.356 41.1881C105.268 41.2235 105.179 41.2765 105.091 41.3295C104.933 41.4356 104.774 41.577 104.651 41.7538L104.157 42.4785C104.157 42.4785 104.14 42.5139 104.122 42.5139C103.946 42.7791 103.875 43.0796 103.875 43.3801C103.875 43.5745 103.928 43.769 103.999 43.9458C104.034 44.0341 104.087 44.1225 104.14 44.2109L104.157 44.1932ZM112.915 33.3924C113.056 33.5162 113.197 33.6045 113.373 33.6576C113.549 33.7106 113.708 33.7283 113.867 33.7106C114.025 33.7106 114.201 33.6576 114.342 33.5869C114.501 33.5162 114.642 33.4101 114.748 33.2687L115.294 32.6146C115.752 32.0843 115.717 31.2888 115.206 30.8115C114.941 30.564 114.607 30.458 114.289 30.458C113.972 30.458 113.637 30.5994 113.391 30.8646L112.792 31.5009C112.792 31.5009 112.774 31.5186 112.756 31.5363C112.704 31.607 112.651 31.6777 112.598 31.7484C112.475 31.9782 112.422 32.2257 112.439 32.4732C112.439 32.5616 112.457 32.6323 112.475 32.7207C112.545 32.9682 112.668 33.198 112.88 33.3747L112.915 33.3924ZM122.818 23.5462C122.906 23.6522 123.029 23.7406 123.153 23.8113C123.276 23.882 123.417 23.9174 123.54 23.9174C123.822 23.9351 124.104 23.8644 124.316 23.6699L124.968 23.1219C125.073 23.0158 125.162 22.9098 125.214 22.786C125.267 22.6623 125.32 22.5386 125.32 22.3971C125.338 22.132 125.267 21.8491 125.091 21.637C125.003 21.531 124.897 21.4249 124.774 21.3719C124.404 21.1774 123.946 21.1951 123.611 21.4779L122.941 22.0259C122.941 22.0259 122.924 22.0259 122.906 22.0436C122.571 22.3264 122.448 22.786 122.571 23.1926C122.607 23.334 122.677 23.4578 122.783 23.5638L122.818 23.5462ZM134.606 15.6798C134.712 15.6974 134.818 15.7151 134.924 15.6798C135.029 15.6444 135.135 15.6267 135.241 15.556L135.963 15.0964C136.157 14.9727 136.28 14.7959 136.333 14.6014C136.386 14.407 136.351 14.1772 136.245 13.9827C136.069 13.6822 135.752 13.5408 135.417 13.5762C135.311 13.5762 135.206 13.6292 135.1 13.6822L134.36 14.1242C134.36 14.1242 134.36 14.1242 134.342 14.1242C134.236 14.1772 134.166 14.2656 134.095 14.354C133.902 14.6191 133.884 14.9903 134.078 15.2909C134.201 15.4853 134.395 15.6267 134.606 15.6621V15.6798ZM159.822 4.5961C159.822 4.5961 160.016 4.66681 160.104 4.63145L160.932 4.41932C160.932 4.41932 161.02 4.38397 161.055 4.34862C161.161 4.26023 161.232 4.11881 161.196 3.97739C161.196 3.92436 161.161 3.88901 161.144 3.83597C161.091 3.76526 161.003 3.71223 160.914 3.69456C160.862 3.69456 160.826 3.69456 160.774 3.69456L159.928 3.88901C159.822 3.92436 159.751 3.97739 159.699 4.06578C159.646 4.15416 159.628 4.26023 159.663 4.34862C159.699 4.437 159.751 4.52539 159.84 4.57842L159.822 4.5961ZM173.425 2.03289C173.425 2.03289 173.496 2.06824 173.531 2.06824L174.377 1.97986C174.377 1.97986 174.447 1.96218 174.465 1.92683C174.483 1.89147 174.5 1.87379 174.5 1.82076C174.5 1.75005 174.43 1.67934 174.359 1.69702L173.496 1.76773C173.425 1.76773 173.39 1.82076 173.372 1.87379C173.372 1.89147 173.355 1.90915 173.372 1.92683C173.372 1.96218 173.408 1.99753 173.425 2.03289ZM188.527 0C188.527 0 198.5 0.424255 209.725 3.44707C254.605 15.5383 274.235 68.8 257.865 110.094C249.795 129.256 229.671 143.593 203.557 142.497C203.557 142.497 180.685 143.274 164.967 126.569C158.025 119.198 153.813 109.546 153.725 99.3994C153.637 89.2704 157.408 78.3635 168.403 70.391C179.769 61.8529 195.592 64.0272 206.2 73.5022C209.707 75.9947 217.619 86.0531 217.707 98.2327C217.707 98.2681 217.689 98.3035 217.689 98.3388V98.6393C217.689 98.6393 217.689 98.7807 217.724 98.8514C217.707 100.124 217.601 101.415 217.39 102.723C217.284 102.793 217.196 102.9 217.161 103.023L217.108 103.324C217.072 103.465 217.125 103.607 217.213 103.695C216.984 104.897 216.65 106.134 216.227 107.354C216.103 107.372 215.998 107.46 215.945 107.584L215.839 107.867C215.804 107.991 215.839 108.132 215.909 108.22C215.874 108.326 215.839 108.45 215.786 108.556C215.839 108.45 215.874 108.344 215.927 108.238C215.962 108.273 216.015 108.309 216.068 108.344C216.262 108.415 216.473 108.326 216.544 108.132L216.65 107.849C216.72 107.655 216.614 107.443 216.42 107.372C216.368 107.372 216.332 107.354 216.279 107.354C216.72 106.223 217.108 105.039 217.425 103.854C217.672 103.907 217.901 103.766 217.971 103.518L218.042 103.218C218.094 102.988 217.936 102.758 217.707 102.687C217.971 101.538 218.165 100.372 218.306 99.1873C218.535 99.1343 218.711 98.9575 218.729 98.71V98.4095C218.729 98.4095 218.746 98.4095 218.746 98.3918C218.746 98.162 218.623 97.9676 218.412 97.8792C218.482 96.7302 218.5 95.5811 218.447 94.4144C218.641 94.3084 218.782 94.0786 218.764 93.8488V93.5483C218.764 93.5483 218.746 93.5483 218.746 93.5306C218.729 93.2831 218.553 93.1063 218.341 93.0179C218.235 91.9219 218.059 90.8083 217.813 89.6946C218.024 89.5355 218.13 89.2704 218.059 89.0052L217.989 88.7047C217.989 88.7047 217.989 88.7047 217.989 88.687C217.918 88.4042 217.689 88.2274 217.425 88.1744C217.161 87.1844 216.826 86.1768 216.438 85.1692C216.685 84.9571 216.773 84.6212 216.667 84.303L216.561 84.0202C216.561 84.0202 216.561 84.0202 216.561 84.0025C216.42 83.6843 216.103 83.5076 215.786 83.5429C215.381 82.659 214.94 81.7752 214.429 80.8913C214.711 80.6262 214.782 80.2019 214.588 79.866L214.429 79.6009C214.429 79.6009 214.429 79.6009 214.429 79.5832C214.218 79.2297 213.795 79.1059 213.425 79.2296C212.932 78.4695 212.403 77.6917 211.839 76.9316C212.103 76.5957 212.139 76.1184 211.874 75.7649L211.68 75.5174C211.68 75.5174 211.68 75.5174 211.663 75.4997C211.381 75.1639 210.923 75.0932 210.553 75.2699C210.006 74.5982 209.407 73.9265 208.791 73.2547C208.967 72.8658 208.896 72.4062 208.579 72.1057L208.35 71.8936C208.35 71.8936 208.332 71.8936 208.332 71.8759C208.033 71.6107 207.645 71.5754 207.293 71.6991C207.258 71.6638 207.205 71.6107 207.169 71.5754C206.535 70.992 205.883 70.444 205.214 69.9314C205.214 69.5778 205.073 69.2066 204.755 68.9945L204.509 68.8177C204.509 68.8177 204.491 68.8177 204.473 68.8C204.174 68.6056 203.821 68.5879 203.522 68.7117C202.747 68.199 201.954 67.7217 201.125 67.2798C201.055 66.9439 200.844 66.6257 200.509 66.4666L200.227 66.3252C200.227 66.3252 200.209 66.3252 200.192 66.3252C199.857 66.1838 199.504 66.2015 199.205 66.3252C198.377 65.954 197.548 65.6358 196.703 65.3353C196.579 64.9994 196.297 64.6989 195.91 64.5928L195.61 64.5045H195.575C195.187 64.3984 194.8 64.4868 194.482 64.7166C193.689 64.5045 192.879 64.3277 192.068 64.1863C191.892 63.7974 191.522 63.5145 191.082 63.4261L190.782 63.3731C190.782 63.3731 190.747 63.3731 190.729 63.3731C190.253 63.3201 189.813 63.5145 189.531 63.8504C188.808 63.7797 188.068 63.7443 187.346 63.7267C187.117 63.2847 186.659 62.9665 186.112 62.9665H185.795C185.795 62.9665 185.76 62.9665 185.742 62.9665C185.179 62.9665 184.72 63.3201 184.491 63.7974C183.857 63.8327 183.223 63.9034 182.606 63.9918C182.306 63.4969 181.725 63.1963 181.126 63.2847L180.809 63.3201C180.809 63.3201 180.773 63.3201 180.756 63.3201C180.121 63.4261 179.663 63.9211 179.54 64.5221C178.994 64.6459 178.465 64.7696 177.936 64.911C177.549 64.3807 176.879 64.1156 176.209 64.31L175.91 64.3984C175.91 64.3984 175.875 64.3984 175.857 64.3984C175.187 64.6282 174.782 65.2469 174.782 65.9186C174.324 66.0954 173.883 66.2722 173.425 66.4666C172.95 65.9363 172.174 65.7596 171.505 66.0777L171.223 66.2192C171.223 66.2192 171.187 66.2192 171.17 66.2368C170.5 66.5727 170.183 67.2975 170.289 68.0046C169.901 68.2167 169.531 68.4288 169.161 68.6586C168.597 68.1813 167.751 68.1106 167.099 68.5349L166.835 68.7117C166.835 68.7117 166.8 68.7293 166.782 68.747C166.148 69.1889 165.919 69.9844 166.13 70.6915C165.813 70.9213 165.514 71.1688 165.214 71.4163C164.544 71.0274 163.681 71.0804 163.082 71.6284L162.853 71.8405C162.853 71.8405 162.818 71.8759 162.8 71.8759C162.236 72.4239 162.113 73.237 162.395 73.9088C162.148 74.1563 161.901 74.4214 161.655 74.6866C160.932 74.4391 160.086 74.6336 159.558 75.2699L159.364 75.5174C159.364 75.5174 159.329 75.5528 159.329 75.5704C158.853 76.1892 158.818 77.0023 159.17 77.6387C158.976 77.9039 158.782 78.1867 158.589 78.4695C158.254 78.4165 157.901 78.4695 157.584 78.6109C157.584 78.6109 157.602 78.5933 157.619 78.5756L157.778 78.2928C158.183 77.6033 158.201 76.7548 157.743 76.1184C156.844 74.8457 155.1 74.9694 154.359 76.1184L154.166 76.419C154.166 76.419 154.148 76.4543 154.13 76.472C153.549 77.4266 153.866 78.6817 154.818 79.2473C155.382 79.5832 156.051 79.6186 156.633 79.3711C156.633 79.3711 156.633 79.3887 156.615 79.4064L156.456 79.6716C156.456 79.6716 156.439 79.7069 156.421 79.7246C156.051 80.3964 156.122 81.1742 156.509 81.7752C156.351 82.0757 156.192 82.3762 156.051 82.6767C155.857 82.6944 155.663 82.7298 155.47 82.8181L155.505 82.7298C155.963 81.5807 155.399 80.2726 154.201 79.8837C153.161 79.5478 152.051 80.1312 151.593 81.1211L151.487 81.3333C151.487 81.3333 151.47 81.3863 151.452 81.404C151.012 82.4823 151.523 83.7197 152.597 84.1616C153.126 84.3914 153.708 84.3737 154.201 84.1616V84.2146C154.201 84.2146 154.166 84.2677 154.148 84.2854C153.901 84.9748 154.025 85.6995 154.448 86.2475C154.324 86.5834 154.183 86.9193 154.06 87.2728C154.007 87.2905 153.954 87.3082 153.919 87.3435C154.13 86.2299 153.478 85.1162 152.368 84.798C151.681 84.6035 150.976 84.7626 150.448 85.1692C150.448 85.1692 150.448 85.1339 150.465 85.1162L150.553 84.7626V84.7273C150.906 83.5252 150.201 82.2525 148.95 81.9343C147.787 81.6338 146.606 82.3939 146.236 83.5429L146.148 83.7904C146.148 83.7904 146.148 83.8434 146.131 83.8611C145.796 85.0632 146.483 86.3006 147.664 86.6541C148.368 86.8662 149.091 86.6895 149.637 86.2652C149.637 86.2652 149.637 86.2829 149.637 86.3006L149.549 86.6364C149.549 86.6364 149.549 86.6895 149.531 86.7071C149.232 87.8915 149.954 89.0936 151.135 89.3764C151.646 89.5002 152.139 89.4295 152.58 89.235C152.474 89.836 152.65 90.4194 152.985 90.879C152.95 91.0204 152.915 91.1618 152.879 91.3209C152.58 90.5608 151.91 89.9774 151.047 89.8714C150.43 89.8007 149.849 89.9598 149.39 90.3133V90.2072V90.1719C149.567 88.8815 148.633 87.6617 147.293 87.538C146.042 87.4142 144.95 88.3688 144.738 89.6239L144.703 89.8891C144.703 89.8891 144.703 89.9421 144.703 89.9598C144.527 91.2502 145.443 92.4346 146.73 92.5937C147.364 92.6821 147.981 92.4876 148.456 92.1341V92.2048C148.456 92.2048 148.456 92.2578 148.456 92.2755C148.333 93.5306 149.267 94.6619 150.518 94.768C151.223 94.8387 151.875 94.5735 152.333 94.0963C152.245 94.6089 152.157 95.1215 152.086 95.6519C151.663 95.2806 151.1 95.0508 150.501 95.0685C149.954 95.0685 149.461 95.2806 149.073 95.5988C148.985 94.3437 147.963 93.3361 146.677 93.3185C145.884 93.3185 145.179 93.6897 144.721 94.273C144.721 94.2554 144.721 94.2377 144.721 94.22V93.8134V93.7781C144.738 92.3816 143.611 91.2149 142.201 91.2502C140.862 91.2502 139.822 92.4169 139.752 93.7604V94.0609C139.752 94.0609 139.734 94.1139 139.734 94.1493C139.716 95.5281 140.809 96.6771 142.183 96.6948C143.012 96.6948 143.734 96.3236 144.192 95.7226C144.192 95.7226 144.192 95.7579 144.192 95.7756V96.1645C144.192 96.1645 144.192 96.2175 144.192 96.2529C144.21 97.614 145.338 98.6747 146.677 98.657C147.258 98.657 147.769 98.4272 148.192 98.0913C148.316 99.3464 149.408 100.301 150.677 100.23C151.047 100.213 151.382 100.107 151.681 99.9298C151.681 100.089 151.663 100.23 151.646 100.389C151.329 100.319 151.012 100.301 150.677 100.354C150.201 100.442 149.796 100.655 149.461 100.955C149.091 99.806 147.945 99.0282 146.712 99.205C146.025 99.2934 145.461 99.6469 145.056 100.16V100.054L145.038 100.018C144.844 98.5686 143.505 97.561 142.042 97.7908C140.668 98.0206 139.769 99.3641 139.893 100.761L139.928 101.061C139.928 101.061 139.928 101.132 139.928 101.149C140.122 102.581 141.426 103.589 142.853 103.395C143.558 103.306 144.175 102.935 144.58 102.405V102.475C144.58 102.475 144.597 102.528 144.597 102.564C144.827 103.96 146.148 104.879 147.523 104.65C148.034 104.561 148.474 104.331 148.827 103.996C149.214 105.092 150.307 105.763 151.47 105.604C151.135 105.746 150.835 105.94 150.606 106.188C150.007 105.162 148.791 104.632 147.593 104.985C147.012 105.162 146.536 105.516 146.219 105.975C145.76 104.65 144.386 103.872 143.012 104.225C142.148 104.437 141.514 105.056 141.197 105.799C141.197 105.781 141.197 105.763 141.197 105.728L141.091 105.286V105.251C140.703 103.748 139.17 102.829 137.637 103.253C136.21 103.66 135.417 105.198 135.717 106.647L135.787 106.965C135.787 106.965 135.787 107.036 135.805 107.054C136.175 108.539 137.672 109.458 139.17 109.087C140.051 108.874 140.721 108.238 141.056 107.46C141.056 107.46 141.056 107.496 141.056 107.513L141.161 107.938C141.161 107.938 141.161 108.008 141.179 108.026C141.602 109.476 143.1 110.306 144.545 109.882C145.161 109.705 145.655 109.316 145.99 108.839C146.483 110.165 147.928 110.872 149.267 110.43C149.708 110.289 150.078 110.023 150.377 109.688C150.553 109.953 150.765 110.183 151.012 110.377C150.448 110.253 149.866 110.306 149.302 110.554C148.827 110.784 148.439 111.119 148.157 111.544C147.434 110.412 145.99 109.917 144.703 110.448C143.998 110.748 143.487 111.296 143.205 111.95L143.153 111.844V111.809C142.518 110.324 140.791 109.599 139.276 110.289C137.866 110.925 137.285 112.64 137.831 114.089L137.937 114.39C137.937 114.39 137.954 114.46 137.972 114.478C138.589 115.963 140.28 116.67 141.761 116.051C142.501 115.751 143.047 115.168 143.329 114.478L143.364 114.549C143.364 114.549 143.399 114.62 143.399 114.637C144.051 116.051 145.725 116.688 147.153 116.034C147.681 115.786 148.086 115.415 148.368 114.955C149.091 116.016 150.465 116.423 151.663 115.928C151.346 116.175 151.082 116.476 150.906 116.812C149.972 115.875 148.509 115.663 147.329 116.387C146.747 116.741 146.36 117.254 146.131 117.837C145.267 116.546 143.558 116.104 142.183 116.882C141.32 117.36 140.809 118.19 140.686 119.11C140.686 119.092 140.686 119.057 140.65 119.039L140.421 118.597V118.562C139.576 117.059 137.655 116.511 136.139 117.413C134.73 118.261 134.307 120.135 135.047 121.602L135.206 121.938C135.206 121.938 135.241 122.009 135.258 122.026C136.087 123.511 137.954 124.059 139.452 123.228C140.333 122.733 140.879 121.867 141.003 120.93C141.003 120.93 141.003 120.966 141.02 120.983L141.25 121.408C141.25 121.408 141.285 121.478 141.302 121.496C142.166 122.928 144.016 123.388 145.443 122.521C146.06 122.15 146.465 121.602 146.694 120.966C147.611 122.239 149.355 122.592 150.677 121.726C151.117 121.443 151.434 121.054 151.663 120.612C151.928 120.86 152.227 121.036 152.545 121.16C151.91 121.196 151.293 121.408 150.765 121.85C150.307 122.221 150.007 122.716 149.831 123.246C148.721 122.239 147.029 122.115 145.813 123.069C145.144 123.582 144.738 124.324 144.633 125.102L144.545 124.996V124.961C143.434 123.547 141.355 123.281 139.946 124.448C138.624 125.544 138.483 127.542 139.47 128.956L139.681 129.256C139.681 129.256 139.734 129.327 139.752 129.345C140.827 130.759 142.853 131.024 144.263 129.928C144.968 129.38 145.373 128.62 145.496 127.789L145.549 127.86C145.549 127.86 145.602 127.913 145.619 127.948C146.73 129.292 148.703 129.469 150.042 128.373C150.536 127.966 150.871 127.436 151.047 126.87C152.139 127.789 153.725 127.842 154.87 126.958C154.589 127.312 154.412 127.701 154.307 128.125C153.038 127.4 151.399 127.595 150.342 128.691C149.831 129.239 149.549 129.91 149.461 130.6C148.157 129.469 146.201 129.486 144.95 130.724C144.175 131.484 143.857 132.527 143.981 133.534C143.963 133.517 143.946 133.499 143.928 133.464H143.91L143.54 133.057L143.505 133.022C142.183 131.643 139.963 131.607 138.606 133.022C137.338 134.33 137.426 136.469 138.642 137.83L138.924 138.13C138.924 138.13 138.976 138.183 138.994 138.219C140.298 139.58 142.465 139.615 143.84 138.307C144.65 137.529 144.985 136.433 144.844 135.39C144.844 135.39 144.862 135.426 144.879 135.443L145.249 135.832C145.249 135.832 145.302 135.885 145.338 135.921C146.677 137.211 148.791 137.158 150.078 135.832C150.624 135.267 150.923 134.542 150.976 133.799C152.315 134.895 154.289 134.772 155.47 133.464C155.857 133.022 156.086 132.527 156.21 131.996C156.562 132.173 156.932 132.297 157.32 132.332C156.65 132.544 156.033 132.969 155.611 133.587C155.223 134.118 155.047 134.736 155.011 135.355C153.531 134.595 151.681 134.948 150.641 136.327C150.078 137.07 149.849 137.989 149.954 138.855L149.831 138.767L149.796 138.731C148.21 137.512 145.919 137.83 144.738 139.492C143.628 141.047 144.051 143.239 145.531 144.459L145.849 144.706C145.849 144.706 145.919 144.759 145.937 144.777C147.505 145.979 149.743 145.679 150.941 144.105C151.54 143.328 151.769 142.373 151.646 141.471L151.716 141.524C151.716 141.524 151.787 141.577 151.804 141.595C153.373 142.709 155.558 142.338 156.668 140.764C157.073 140.181 157.285 139.527 157.302 138.855C158.729 139.527 160.456 139.138 161.425 137.848C161.232 138.307 161.144 138.784 161.144 139.262C159.575 138.837 157.866 139.527 157.055 141.012C156.65 141.737 156.544 142.55 156.668 143.31C154.959 142.461 152.844 143.062 151.857 144.742C151.241 145.785 151.205 147.004 151.611 148.047C151.593 148.047 151.558 148.012 151.54 147.994H151.523L151.012 147.676H150.976C149.108 146.527 146.659 147.199 145.637 149.214C144.756 150.964 145.443 153.121 147.1 154.199L147.523 154.482C147.523 154.482 147.593 154.535 147.628 154.553C149.426 155.631 151.769 155.065 152.844 153.244C153.496 152.166 153.531 150.911 153.091 149.833C153.108 149.833 153.126 149.868 153.144 149.868L153.655 150.169C153.655 150.169 153.725 150.222 153.76 150.239C155.558 151.229 157.831 150.575 158.818 148.772C159.24 147.994 159.346 147.146 159.205 146.333C160.967 147.128 163.047 146.421 163.928 144.671C164.227 144.088 164.333 143.469 164.298 142.868C164.721 142.956 165.161 142.974 165.584 142.921C164.932 143.345 164.386 143.964 164.104 144.759C163.857 145.449 163.822 146.156 163.963 146.828C162.166 146.421 160.28 147.358 159.558 149.126C159.152 150.098 159.188 151.141 159.558 152.042L159.399 151.972H159.346C157.249 151.088 154.818 152.166 154.078 154.394C153.443 156.338 154.483 158.459 156.351 159.308L156.809 159.52C156.809 159.52 156.897 159.555 156.932 159.573C158.959 160.421 161.285 159.449 162.113 157.416C162.536 156.409 162.5 155.313 162.113 154.376L162.218 154.411C162.218 154.411 162.307 154.447 162.342 154.464C164.351 155.207 166.571 154.181 167.329 152.166C167.61 151.424 167.628 150.646 167.469 149.939C169.196 150.257 170.923 149.32 171.61 147.676C171.54 148.224 171.575 148.772 171.716 149.267C169.919 149.267 168.28 150.505 167.822 152.325C167.61 153.227 167.716 154.111 168.069 154.906C165.989 154.5 163.892 155.737 163.311 157.823C162.941 159.113 163.258 160.439 163.998 161.429C163.963 161.429 163.945 161.394 163.91 161.394H163.875L163.24 161.199H163.188C160.862 160.51 158.412 161.942 157.901 164.399C157.461 166.538 158.818 168.641 160.897 169.331L161.425 169.508C161.425 169.508 161.514 169.543 161.566 169.543C163.804 170.197 166.148 168.889 166.8 166.644C167.188 165.3 166.87 163.939 166.077 162.896C166.095 162.896 166.13 162.914 166.148 162.932L166.782 163.108C166.782 163.108 166.87 163.126 166.923 163.144C169.143 163.692 171.381 162.331 171.928 160.103C172.157 159.149 172.033 158.212 171.646 157.381C173.76 157.735 175.787 156.356 176.245 154.234C176.386 153.527 176.333 152.838 176.121 152.202C176.615 152.184 177.073 152.078 177.513 151.883C176.932 152.537 176.527 153.351 176.456 154.287C176.386 155.101 176.544 155.878 176.897 156.55C174.853 156.639 173.091 158.176 172.826 160.298C172.685 161.447 173.002 162.56 173.654 163.427H173.478L173.425 163.391C170.923 163.073 168.615 164.929 168.474 167.528C168.351 169.808 170.077 171.77 172.333 172.142L172.879 172.23C172.879 172.23 172.985 172.23 173.02 172.248C175.434 172.566 177.654 170.851 177.972 168.429C178.13 167.227 177.778 166.061 177.108 165.177H177.231C177.231 165.177 177.337 165.212 177.372 165.212C179.734 165.442 181.848 163.692 182.06 161.323C182.148 160.439 181.954 159.608 181.566 158.884C183.505 158.724 185.108 157.222 185.355 155.26C185.425 155.878 185.619 156.444 185.919 156.939C183.98 157.469 182.588 159.255 182.623 161.341C182.641 162.366 183.029 163.303 183.61 164.045C181.249 164.204 179.381 166.149 179.346 168.553C179.328 170.056 180.033 171.364 181.108 172.23C181.073 172.23 181.038 172.23 181.002 172.23H180.967H180.245H180.192C177.513 172.177 175.293 174.422 175.434 177.197C175.575 179.619 177.637 181.493 180.051 181.617L180.668 181.652C180.668 181.652 180.773 181.652 180.826 181.652C183.416 181.705 185.566 179.637 185.601 177.038C185.637 175.5 184.914 174.121 183.786 173.238C183.804 173.238 183.822 173.238 183.857 173.238H184.597C184.597 173.238 184.703 173.238 184.756 173.238C187.293 173.184 189.319 171.081 189.267 168.535C189.249 167.439 188.826 166.467 188.192 165.689C190.553 165.46 192.35 163.409 192.227 160.987C192.192 160.192 191.927 159.467 191.522 158.831C192.033 158.671 192.509 158.406 192.932 158.088C192.491 158.954 192.297 159.944 192.474 160.969C192.632 161.853 193.02 162.631 193.566 163.268C191.399 163.957 189.971 166.131 190.289 168.465C190.465 169.755 191.134 170.833 192.068 171.576H191.874L191.804 171.611C189.038 171.982 187.082 174.634 187.681 177.498C188.192 179.973 190.623 181.581 193.143 181.334L193.76 181.281C193.76 181.281 193.883 181.281 193.919 181.263C196.597 180.909 198.482 178.435 198.13 175.748C197.954 174.404 197.249 173.255 196.262 172.495H196.385C196.385 172.495 196.491 172.46 196.544 172.46C199.152 172.018 200.896 169.543 200.456 166.927C200.297 165.972 199.857 165.124 199.24 164.47C201.231 163.745 202.518 161.747 202.288 159.608C202.535 160.192 202.905 160.687 203.328 161.111C201.425 162.242 200.438 164.558 201.073 166.785C201.39 167.881 202.042 168.765 202.888 169.384C200.421 170.25 198.976 172.866 199.628 175.447C200.033 177.056 201.143 178.276 202.553 178.877C202.518 178.877 202.5 178.877 202.465 178.877H202.429L201.636 179.089H201.566C198.676 179.831 196.932 182.872 197.901 185.806C198.747 188.369 201.496 189.783 204.121 189.218L204.791 189.076C204.791 189.076 204.914 189.041 204.967 189.041C207.769 188.352 209.46 185.506 208.773 182.695C208.368 181.033 207.187 179.76 205.742 179.142C205.76 179.142 205.795 179.142 205.813 179.142L206.606 178.947C206.606 178.947 206.729 178.912 206.764 178.894C209.478 178.116 211.046 175.27 210.253 172.548C209.918 171.399 209.214 170.445 208.315 169.808C210.764 168.871 212.086 166.149 211.258 163.603C210.976 162.755 210.5 162.048 209.901 161.482C210.394 161.164 210.817 160.775 211.152 160.315C210.94 161.358 211.028 162.472 211.504 163.515C211.927 164.417 212.561 165.141 213.337 165.654C211.205 167.015 210.306 169.755 211.31 172.177C211.857 173.503 212.896 174.475 214.112 175.005L213.901 175.094L213.83 175.129C211.064 176.278 209.742 179.495 210.923 182.306C212.103 185.117 215.275 186.23 218.042 185.187L218.694 184.94C218.694 184.94 218.817 184.887 218.87 184.869C218.94 184.834 218.993 184.816 219.064 184.781C221.442 184.321 276.014 165.353 279.962 100.513C281.036 64.5928 258.746 5.25016 188.456 0.0883865L188.527 0ZM152.915 114.955C153.038 115.079 153.161 115.185 153.285 115.274C153.003 115.291 152.721 115.344 152.439 115.45C152.615 115.309 152.774 115.132 152.915 114.955ZM154.448 121.549C154.254 121.425 154.06 121.337 153.866 121.266C154.148 121.266 154.448 121.196 154.73 121.072C154.624 121.231 154.536 121.39 154.465 121.549H154.448ZM155.91 125.58C156.069 125.668 156.227 125.756 156.404 125.809C156.104 125.915 155.804 126.057 155.558 126.251C155.716 126.039 155.822 125.809 155.91 125.58ZM162.782 136.221C162.483 136.416 162.218 136.646 161.989 136.928C162.095 136.663 162.148 136.38 162.183 136.115C162.377 136.168 162.588 136.204 162.782 136.221ZM166.289 133.269C166.289 133.075 166.306 132.898 166.289 132.721C166.359 132.845 166.412 132.986 166.483 133.128C166.412 133.181 166.342 133.234 166.271 133.287L166.289 133.269ZM168.826 139.403C168.826 139.403 168.721 139.545 168.65 139.615C168.65 139.545 168.65 139.474 168.65 139.403C168.703 139.403 168.756 139.403 168.809 139.403H168.826ZM179.663 149.992C179.698 150.169 179.751 150.345 179.804 150.522C179.505 150.593 179.223 150.681 178.958 150.805C179.187 150.558 179.364 150.257 179.522 149.957C179.575 149.957 179.61 149.992 179.663 150.01V149.992ZM185.83 152.732C185.637 153.121 185.496 153.545 185.425 153.987C185.372 153.633 185.267 153.315 185.126 152.997C185.372 152.926 185.601 152.856 185.83 152.732ZM194.553 155.26C194.676 155.525 194.817 155.755 194.976 155.984C194.676 156.144 194.394 156.32 194.148 156.532C194.341 156.144 194.482 155.702 194.553 155.26ZM202.059 156.656C201.971 157.116 201.954 157.611 202.007 158.088C201.848 157.735 201.654 157.399 201.425 157.116C201.654 156.974 201.883 156.833 202.077 156.656H202.059ZM203.628 153.686C203.628 153.686 203.716 153.792 203.751 153.828C203.698 153.863 203.663 153.899 203.61 153.952C203.61 153.863 203.61 153.775 203.61 153.686H203.628ZM152.562 110.784C152.562 110.89 152.597 110.978 152.615 111.084C152.615 111.084 152.615 111.102 152.597 111.119C152.456 110.978 152.315 110.837 152.157 110.731C152.298 110.766 152.439 110.784 152.58 110.784H152.562ZM158.765 132.085C159.064 131.979 159.364 131.837 159.628 131.643C159.558 131.837 159.505 132.032 159.47 132.244C159.24 132.173 158.994 132.12 158.765 132.102V132.085ZM164.967 135.638C164.967 135.638 165.073 135.532 165.126 135.496C165.126 135.55 165.108 135.603 165.108 135.656C165.055 135.656 165.02 135.656 164.967 135.638ZM167.91 141.542C167.892 141.772 167.892 142.002 167.91 142.232C167.646 142.232 167.364 142.232 167.099 142.285C167.399 142.09 167.663 141.843 167.892 141.56L167.91 141.542ZM210.87 154.005C210.87 154.005 210.958 153.916 211.011 153.881C211.011 153.987 211.011 154.093 211.028 154.199C210.976 154.128 210.923 154.075 210.852 154.005H210.87ZM212.139 158.247C212.227 157.788 212.244 157.328 212.191 156.851C212.385 157.08 212.597 157.293 212.826 157.469C212.561 157.699 212.332 157.964 212.139 158.247ZM214.077 111.95L213.936 112.215C213.936 112.215 213.936 112.269 213.936 112.286C212.315 115.115 210.359 117.66 208.262 119.817C209.443 118.632 210.465 117.43 211.398 116.211C211.328 116.299 211.346 116.423 211.434 116.493C211.522 116.564 211.663 116.546 211.733 116.458L211.927 116.228C211.998 116.14 211.98 115.998 211.874 115.928C211.786 115.857 211.663 115.875 211.592 115.963C212.473 114.796 213.266 113.612 213.936 112.428C213.954 112.498 213.989 112.551 214.059 112.587C214.2 112.675 214.376 112.622 214.447 112.481L214.605 112.215C214.676 112.074 214.623 111.897 214.482 111.809C214.412 111.774 214.359 111.774 214.288 111.791C214.87 110.713 215.381 109.635 215.821 108.556C215.328 109.688 214.782 110.766 214.2 111.827C214.165 111.862 214.112 111.88 214.094 111.933L214.077 111.95ZM208.473 119.605L208.262 119.817C208.262 119.817 208.209 119.94 208.262 119.993C208.315 120.047 208.385 120.047 208.438 119.993L208.65 119.781C208.702 119.728 208.702 119.64 208.65 119.587C208.597 119.534 208.509 119.534 208.456 119.587L208.473 119.605ZM31.9996 327.03V336.328H28.6693V315.098H43.277C45.4444 315.098 47.136 315.628 48.3695 316.671C49.603 317.714 50.2021 319.164 50.2021 321.037C50.2021 322.54 49.7087 323.848 48.7572 324.962C47.788 326.058 46.5193 326.747 44.9687 326.995L50.8541 336.328H47.2594L41.2506 327.03H32.0173H31.9996ZM31.9996 323.919H43.277C44.4224 323.919 45.2858 323.671 45.9026 323.176C46.5017 322.681 46.8012 321.957 46.8012 321.037C46.8012 320.118 46.5017 319.393 45.9026 318.898C45.3035 318.404 44.4224 318.156 43.277 318.156H31.9996V323.919ZM70.7305 336.328V315.045H90.6245V318.156H74.0608V323.459H84.933V326.517H74.0608V333.252H91.5408V336.311H70.7305V336.328ZM108.986 333.606L110.607 330.813C112.069 331.785 113.655 332.563 115.382 333.111C117.109 333.659 118.748 333.942 120.316 333.942C122.201 333.942 123.734 333.553 124.88 332.775C126.043 331.997 126.624 331.007 126.624 329.805C126.624 328.603 126.095 327.684 125.038 327.101C123.981 326.517 122.307 326.182 120.016 326.111C116.157 326.058 113.514 325.616 112.069 324.767C110.624 323.919 109.902 322.522 109.902 320.56C109.902 318.739 110.695 317.254 112.281 316.158C113.867 315.045 115.981 314.497 118.659 314.497C120.474 314.497 122.254 314.762 123.963 315.275C125.673 315.787 127.329 316.547 128.915 317.573L127.258 320.33C125.937 319.429 124.51 318.739 122.994 318.244C121.479 317.749 120.016 317.502 118.624 317.502C117.021 317.502 115.734 317.785 114.748 318.35C113.761 318.916 113.285 319.659 113.285 320.56C113.285 321.462 113.778 322.186 114.765 322.575C115.752 322.982 117.461 323.176 119.893 323.176C123.276 323.176 125.814 323.742 127.54 324.891C129.267 326.04 130.131 327.737 130.131 330C130.131 332.015 129.25 333.677 127.505 335.002C125.761 336.328 123.488 337 120.721 337C118.677 337 116.633 336.699 114.607 336.116C112.58 335.533 110.712 334.684 109.038 333.606H108.986ZM150.571 336.328V315.009H153.954V336.328H150.571ZM185.249 315.045C188.703 315.045 191.504 316.035 193.619 318.015C195.733 319.994 196.791 322.575 196.791 325.757C196.791 328.939 195.751 331.52 193.672 333.447C191.593 335.374 188.791 336.328 185.249 336.328H175.839V315.045H185.249ZM185.302 318.103H179.17V333.252H185.302C187.822 333.252 189.795 332.581 191.24 331.22C192.685 329.858 193.408 328.02 193.408 325.704C193.408 323.388 192.667 321.638 191.17 320.224C189.672 318.81 187.734 318.103 185.302 318.103ZM216.579 336.311V315.027H236.473V318.138H219.909V323.442H230.782V326.5H219.909V333.235H237.389V336.293H216.579V336.311ZM256.702 336.311V315.027H258.446L271.926 329.982V315.027H275.186V336.311H273.442L259.979 321.409V336.311H256.702ZM319.415 331.096C318.199 333.005 316.613 334.454 314.657 335.462C312.701 336.47 310.463 336.965 307.961 336.965C304.243 336.965 301.177 335.904 298.763 333.783C296.349 331.661 295.151 328.975 295.151 325.722C295.151 322.469 296.349 319.765 298.763 317.643C301.177 315.504 304.243 314.444 307.961 314.444C310.287 314.444 312.384 314.886 314.27 315.752C316.155 316.618 317.688 317.855 318.833 319.446L316.208 321.285C315.327 320.065 314.181 319.146 312.737 318.474C311.309 317.82 309.706 317.484 307.961 317.484C305.248 317.484 302.992 318.262 301.212 319.818C299.433 321.373 298.552 323.318 298.552 325.651C298.552 327.985 299.45 329.947 301.23 331.485C303.01 333.04 305.265 333.818 307.961 333.818C309.847 333.818 311.521 333.447 312.948 332.704C314.375 331.962 315.662 330.795 316.754 329.222L319.415 331.06V331.096ZM339.52 336.311V315.027H359.414V318.138H342.851V323.442H353.723V326.5H342.851V333.235H360.331V336.293H339.52V336.311Z" fill="url(#paint0_linear_516_2047)"/>
<defs>
<linearGradient id="paint0_linear_516_2047" x1="119.153" y1="388.741" x2="310.673" y2="58.0692" gradientUnits="userSpaceOnUse">
<stop stop-color="#F2D36D"/>
<stop offset="0.25" stop-color="#FDD782"/>
<stop offset="0.49" stop-color="white"/>
<stop offset="0.76" stop-color="#FDD782"/>
<stop offset="1" stop-color="#F2D36D"/>
</linearGradient>
</defs>
</svg>
