<svg width="174" height="152" viewBox="0 0 174 152" fill="none" xmlns="http://www.w3.org/2000/svg">
<path d="M18.3411 103.093V105.349H3.69659V115.65H16.276V117.54H3.69659V129.572H18.3411V131.828H0V103.093H18.3411ZM49.1828 103.093V132.322H48.9779L26.4515 109.87H26.286V131.836H24.418V102.606H24.6229L47.1493 125.059H47.3148V103.093H49.1828ZM64.2372 103.093V131.828H60.5485V103.093H64.2372ZM101.447 131.828H97.9952V130.146C96.9627 130.696 95.6622 131.19 94.0937 131.645C92.5252 132.099 90.7202 132.322 88.6867 132.322C85.9754 132.322 83.6502 131.892 81.6955 131.031C79.7408 130.17 78.1408 129.021 76.8797 127.578C75.6186 126.143 74.6885 124.517 74.0738 122.691C73.4669 120.873 73.1595 118.991 73.1595 117.046C73.1595 114.773 73.5535 112.74 74.3338 110.946C75.122 109.152 76.2176 107.645 77.6206 106.41C79.0236 105.182 80.6945 104.233 82.6335 103.579C84.5645 102.925 86.6847 102.59 88.9862 102.59C90.9882 102.59 92.7222 102.814 94.204 103.268C95.6779 103.723 96.9154 104.273 97.9164 104.935C98.9174 105.588 99.7056 106.298 100.289 107.047C100.872 107.797 101.282 108.475 101.526 109.081H98.6021C98.4366 108.507 98.0819 107.94 97.5302 107.374C96.9784 106.816 96.2612 106.314 95.4021 105.875C94.5351 105.437 93.5498 105.078 92.4385 104.807C91.3271 104.536 90.137 104.4 88.868 104.4C86.9448 104.4 85.266 104.711 83.8157 105.341C82.3655 105.971 81.1438 106.856 80.1428 108.012C79.1418 109.16 78.393 110.532 77.8886 112.118C77.3841 113.705 77.1398 115.443 77.1398 117.333C77.1398 119.222 77.3999 121.008 77.9359 122.611C78.4718 124.214 79.26 125.593 80.3162 126.757C81.3724 127.921 82.7044 128.83 84.3044 129.484C85.9044 130.138 87.7724 130.473 89.9163 130.473C91.54 130.473 92.9902 130.281 94.2671 129.898C95.5439 129.516 96.7893 128.926 98.011 128.136V120.705H93.4631V119.023H101.455V131.828H101.447ZM124.541 127.762H124.707L137.854 103.093H140.652V131.828H136.955V108.554H136.79L123.966 132.322H123.233L110.693 108.387H110.527V131.828H108.738V103.093H111.497L124.526 127.762H124.541ZM152.175 123.368L148.605 131.828H146.737L158.749 103.093H160.774L174 131.828H170.067L166.173 123.368H152.175ZM158.954 107.685H158.788L152.948 121.519H165.322L158.954 107.685ZM71.788 33.559L71.8747 33.4473C72.1663 33.0806 72.1269 32.5464 71.7801 32.2354C71.4254 31.9165 70.8816 31.9484 70.5663 32.3072L70.4639 32.4268C70.4639 32.4268 70.4481 32.4427 70.4481 32.4507C70.1407 32.8254 70.1959 33.3756 70.5663 33.6786C70.9368 33.9895 71.4806 33.9337 71.7801 33.559H71.788ZM73.3407 31.9085L73.4432 31.8128C73.7664 31.5099 73.8058 30.9996 73.522 30.6567C73.2304 30.3059 72.7102 30.2581 72.3634 30.5531L72.2452 30.6567C72.2452 30.6567 72.2294 30.6727 72.2215 30.6727C71.8826 30.9836 71.8589 31.5099 72.1585 31.8527C72.458 32.1956 72.9861 32.2195 73.325 31.9165L73.3407 31.9085ZM74.4127 29.0781L74.2787 29.1578C74.2787 29.1578 74.2629 29.1658 74.255 29.1737C73.8925 29.4129 73.7979 29.9073 74.0343 30.274C74.2708 30.6408 74.7595 30.7365 75.122 30.4973L75.2403 30.4175H75.2481C75.5949 30.1783 75.7053 29.7 75.4846 29.3412C75.256 28.9664 74.7752 28.8548 74.4127 29.0781ZM77.0925 29.3731L77.2186 29.3093H77.2265C77.5891 29.1339 77.7546 28.7033 77.5969 28.3365C77.4393 27.9538 77.0058 27.7784 76.6275 27.9379L76.4856 28.0017C76.4856 28.0017 76.4698 28.0017 76.462 28.0097C76.0915 28.1851 75.926 28.6316 76.0994 29.0063C76.2728 29.381 76.7142 29.5485 77.0846 29.3731H77.0925ZM79.2127 28.5598L79.3467 28.5199H79.3546C79.7172 28.4083 79.93 28.0336 79.8354 27.6588C79.7408 27.2761 79.3546 27.0529 78.9841 27.1486L78.8344 27.1884C78.8344 27.1884 78.8186 27.1884 78.8107 27.1884C78.4403 27.3 78.2196 27.6907 78.33 28.0734C78.4403 28.4482 78.8265 28.6714 79.2048 28.5598H79.2127ZM81.4275 26.718L81.2699 26.7339C81.2699 26.7339 81.2541 26.7339 81.2462 26.7339C80.8837 26.7818 80.6315 27.1246 80.6787 27.4914C80.726 27.8582 81.065 28.1133 81.4275 28.0655L81.5694 28.0415H81.5773C81.932 27.9937 82.1842 27.6668 82.1448 27.308C82.1054 26.9412 81.7822 26.6702 81.4196 26.71L81.4275 26.718ZM83.8946 26.6622H83.7369C83.7369 26.6622 83.7211 26.6622 83.7133 26.6622C83.3665 26.6622 83.0827 26.9412 83.0827 27.2841C83.0827 27.6349 83.3586 27.9219 83.6975 27.9219H83.8394C84.1704 27.9219 84.4542 27.6588 84.4699 27.324C84.4857 26.9731 84.2177 26.6861 83.8788 26.6702L83.8946 26.6622ZM85.9832 28.1053L86.1251 28.1292C86.4325 28.1771 86.7241 27.9778 86.7872 27.6588C86.8503 27.3399 86.6453 27.029 86.33 26.9652L86.1803 26.9333H86.1645C85.8493 26.8775 85.5419 27.1007 85.4946 27.4196C85.4394 27.7386 85.6601 28.0495 85.9754 28.0974L85.9832 28.1053ZM88.2138 28.6316L88.3478 28.6794C88.6237 28.7671 88.9232 28.6236 89.0256 28.3445C89.1281 28.0575 88.9784 27.7465 88.6946 27.6429L88.5527 27.5871H88.537C88.2532 27.4914 87.9458 27.6509 87.8512 27.9459C87.7567 28.2329 87.9143 28.5439 88.2059 28.6395L88.2138 28.6316ZM90.3498 29.4927L90.4759 29.5564C90.7202 29.676 91.0119 29.5883 91.138 29.3412C91.272 29.094 91.1774 28.783 90.9331 28.6555L90.7991 28.5837C90.7991 28.5837 90.7912 28.5837 90.7833 28.5837C90.5311 28.4561 90.2316 28.5598 90.1055 28.8149C89.9793 29.0701 90.0818 29.3731 90.334 29.5006L90.3498 29.4927ZM92.3439 30.6727L92.4621 30.7524C92.6671 30.8959 92.9429 30.8561 93.0927 30.6488C93.2424 30.4415 93.203 30.1465 92.9981 29.995L92.872 29.8993C92.872 29.8993 92.8641 29.8993 92.8562 29.8913C92.6434 29.7398 92.3518 29.7956 92.2099 30.0109C92.0602 30.2262 92.1153 30.5212 92.3281 30.6647L92.3439 30.6727ZM94.7242 31.5178C94.5508 31.3584 94.2828 31.3584 94.1252 31.5338C93.9676 31.7092 93.9676 31.9803 94.141 32.1397L94.2434 32.2434C94.409 32.4029 94.6691 32.4029 94.8267 32.2434C94.9922 32.076 94.9922 31.8049 94.8267 31.6374L94.7163 31.5258C94.7163 31.5258 94.7164 31.5258 94.7085 31.5178H94.7242ZM95.7095 33.8699L95.7962 33.9815C95.9223 34.149 96.1587 34.1809 96.3242 34.0613C96.4977 33.9337 96.5292 33.6945 96.4031 33.5191L96.3164 33.3915C96.3164 33.3915 96.3164 33.3915 96.3164 33.3835C96.1824 33.2161 95.9459 33.1842 95.7725 33.3198C95.607 33.4553 95.5755 33.6945 95.7095 33.8699ZM97.609 35.4645C97.5144 35.2971 97.3016 35.2413 97.1361 35.337C96.9706 35.4326 96.9154 35.6479 97.01 35.8154L97.0809 35.9429C97.1755 36.1104 97.3725 36.1662 97.5381 36.0785C97.7036 35.9908 97.7666 35.7835 97.6799 35.6081L97.609 35.4725C97.609 35.4725 97.609 35.4725 97.609 35.4645ZM98.1844 37.5376C98.0267 37.6013 97.9479 37.7768 98.011 37.9362L98.0661 38.0718C98.1213 38.2312 98.2947 38.311 98.4445 38.2551C98.6021 38.1993 98.6888 38.0239 98.6336 37.8645L98.5863 37.7209C98.5863 37.7209 98.5863 37.7209 98.5863 37.713C98.5233 37.5535 98.3499 37.4738 98.1923 37.5376H98.1844ZM98.6888 40.1926L98.7203 40.3361C98.7519 40.4796 98.8859 40.5674 99.0277 40.5434C99.1696 40.5195 99.2642 40.376 99.2405 40.2325L99.209 40.081C99.209 40.081 99.209 40.081 99.209 40.073C99.1775 39.9295 99.0356 39.8338 98.8937 39.8657C98.7519 39.8976 98.6573 40.0411 98.6888 40.1846V40.1926ZM99.4928 42.6643V42.5128C99.4849 42.3852 99.3745 42.2896 99.2484 42.2975C99.1223 42.3055 99.0277 42.4171 99.0356 42.5447L99.0435 42.6962C99.0514 42.8158 99.1538 42.9115 99.2721 42.9115C99.3982 42.9115 99.4928 42.7998 99.4849 42.6802L99.4928 42.6643ZM99.0356 44.9047L99.0277 45.0562C99.0277 45.1599 99.0908 45.2476 99.1932 45.2556C99.2957 45.2635 99.3824 45.1918 99.3982 45.0881L99.4139 44.9366C99.4218 44.833 99.343 44.7453 99.2405 44.7373C99.1381 44.7293 99.0514 44.8091 99.0435 44.9127L99.0356 44.9047ZM98.7598 47.5757C98.8386 47.5997 98.9174 47.5518 98.9331 47.4721L98.9726 47.3286C98.9883 47.2488 98.941 47.1691 98.8622 47.1532C98.7834 47.1372 98.7046 47.1851 98.6888 47.2648L98.6573 47.4083C98.6415 47.488 98.6888 47.5598 98.7598 47.5837V47.5757ZM98.1371 49.7524L98.2001 49.6169C98.2238 49.5611 98.2001 49.4973 98.1371 49.4813C98.0819 49.4574 98.0188 49.4813 98.0031 49.5451L97.9479 49.6886C97.9243 49.7444 97.9479 49.8003 98.0031 49.8242C98.0583 49.8481 98.1134 49.8242 98.1371 49.7684V49.7524ZM96.9784 51.6899L96.9075 51.8175C96.9075 51.8175 96.8996 51.8892 96.9312 51.9052C96.9627 51.9211 97.0021 51.9131 97.0179 51.8812L97.0967 51.7537C97.1124 51.7218 97.0967 51.6819 97.073 51.666C97.0494 51.65 97.0021 51.666 96.9863 51.6899H96.9784ZM95.5518 53.7868C95.5518 53.7868 95.5518 53.8107 95.5518 53.8187C95.5597 53.8267 95.5755 53.8187 95.5834 53.8187L95.6779 53.7071C95.6858 53.6991 95.6779 53.6752 95.6779 53.6672C95.6701 53.6592 95.6464 53.6672 95.6385 53.6672L95.5439 53.7868H95.5518ZM66.9091 36.501C67.3899 36.7243 67.9574 36.509 68.1781 36.0227L68.2412 35.8712C68.454 35.3848 68.2569 34.8267 67.7998 34.5955C67.3269 34.3563 66.7515 34.5476 66.515 35.026L66.4362 35.1855C66.4362 35.1855 66.4283 35.2094 66.4205 35.2174C66.1998 35.7037 66.4126 36.2778 66.8934 36.501H66.9091ZM69.3762 33.7982L69.4629 33.6626C69.7308 33.24 69.6205 32.6819 69.2185 32.3949C68.8087 32.0999 68.2333 32.2035 67.9495 32.6261L67.8471 32.7696C67.8471 32.7696 67.8313 32.7856 67.8313 32.7935C67.5555 33.2241 67.6737 33.7982 68.0993 34.0772C68.5249 34.3563 69.0924 34.2367 69.3683 33.8061L69.3762 33.7982ZM70.8816 31.773L70.9841 31.6454C71.2915 31.2866 71.2678 30.7444 70.9289 30.4175C70.5821 30.0827 70.0304 30.0986 69.6993 30.4494L69.5811 30.577C69.5811 30.577 69.5653 30.593 69.5574 30.6009C69.2422 30.9677 69.2737 31.5258 69.6284 31.8447C69.9909 32.1637 70.5427 32.1318 70.8579 31.773H70.8816ZM71.7722 28.5837L71.6383 28.6874C71.6383 28.6874 71.6225 28.7033 71.6146 28.7033C71.2678 28.9983 71.2205 29.5245 71.5121 29.8833C71.8038 30.2342 72.324 30.282 72.6787 29.987L72.7969 29.8833H72.8048C73.1437 29.5883 73.1989 29.0781 72.923 28.7272C72.6392 28.3605 72.1269 28.2967 71.7644 28.5837H71.7722ZM74.0738 27.0449L73.924 27.1326C73.924 27.1326 73.9082 27.1406 73.9004 27.1486C73.5299 27.3718 73.4117 27.8661 73.6402 28.2329C73.8688 28.5997 74.3496 28.7272 74.7122 28.496L74.8462 28.4083H74.8541C75.2087 28.1851 75.3348 27.7146 75.1299 27.3399C74.9171 26.9572 74.4442 26.8217 74.0659 27.0369L74.0738 27.0449ZM76.9585 27.324L77.1083 27.2602H77.1161C77.4787 27.1007 77.66 26.6781 77.5181 26.3034C77.3763 25.9207 76.9506 25.7293 76.5723 25.8728L76.4147 25.9366C76.4147 25.9366 76.3989 25.9366 76.391 25.9446C76.0127 26.1041 75.8393 26.5426 75.9969 26.9253C76.1546 27.308 76.5881 27.4834 76.9664 27.324H76.9585ZM79.3546 26.4948L79.5044 26.4549H79.5122C79.8748 26.3592 80.0955 25.9924 80.0167 25.6257C79.9379 25.2509 79.5674 25.0117 79.197 25.0915L79.0314 25.1313C79.0314 25.1313 79.0157 25.1313 79.0078 25.1313C78.6373 25.227 78.4088 25.6097 78.5034 25.9845C78.5979 26.3592 78.9763 26.5904 79.3467 26.4948H79.3546ZM82.6019 25.3227C82.5783 24.9639 82.2709 24.6928 81.9162 24.7167H81.7428C81.7428 24.7167 81.727 24.7327 81.7192 24.7327C81.3645 24.7726 81.1044 25.0915 81.1359 25.4503C81.1753 25.8091 81.4906 26.0722 81.8453 26.0403L82.0029 26.0243H82.0108C82.3576 25.9845 82.6098 25.6815 82.5862 25.3307L82.6019 25.3227ZM84.5645 25.9606C84.8877 25.9765 85.1635 25.7293 85.1951 25.4024C85.2187 25.0676 84.9744 24.7726 84.6433 24.7486L84.4699 24.7327C84.4699 24.7327 84.4542 24.7327 84.4463 24.7327C84.1152 24.7167 83.8315 24.9799 83.8157 25.3147C83.8 25.6496 84.0601 25.9366 84.3911 25.9526H84.5487L84.5645 25.9606ZM86.9291 26.2556L87.0867 26.2875C87.3783 26.3512 87.67 26.1599 87.7409 25.8649C87.8118 25.5619 87.6227 25.2589 87.3232 25.1872L87.1576 25.1473H87.1419C86.8345 25.0835 86.5429 25.2828 86.4798 25.5938C86.4167 25.9047 86.6138 26.1997 86.9212 26.2635L86.9291 26.2556ZM89.9163 26.0243L89.7587 25.9606C89.7587 25.9606 89.7508 25.9606 89.7429 25.9606C89.4749 25.8649 89.1754 26.0004 89.0808 26.2715C88.9862 26.5426 89.1202 26.8456 89.3882 26.9412L89.538 26.9971C89.7981 27.0927 90.0897 26.9652 90.1922 26.7021C90.2946 26.4389 90.1685 26.136 89.9084 26.0243H89.9163ZM91.737 27.9857L91.8789 28.0655C92.0996 28.1851 92.3754 28.1133 92.5094 27.8901C92.6434 27.6668 92.5646 27.3718 92.3439 27.2363L92.1942 27.1486C92.1942 27.1486 92.1863 27.1486 92.1784 27.1486C91.9498 27.021 91.6582 27.1087 91.54 27.3399C91.4217 27.5711 91.5005 27.8661 91.7291 27.9857H91.737ZM94.4326 28.6953C94.4326 28.6953 94.4247 28.6953 94.4247 28.6874C94.2356 28.5439 93.9676 28.5837 93.8257 28.7751C93.6838 28.9664 93.7232 29.2375 93.9124 29.381L94.0385 29.4847C94.2198 29.6282 94.4799 29.5963 94.6218 29.4129C94.7715 29.2295 94.74 28.9585 94.5587 28.807L94.4247 28.7033L94.4326 28.6953ZM96.4031 30.5371C96.2533 30.3856 96.009 30.3856 95.8592 30.5371C95.7095 30.6886 95.7095 30.9358 95.8592 31.0873L95.9696 31.2069C96.1114 31.3584 96.3479 31.3663 96.4977 31.2228C96.6553 31.0793 96.6632 30.8321 96.5213 30.6807L96.4031 30.5531C96.4031 30.5531 96.4031 30.5531 96.3952 30.5451L96.4031 30.5371ZM98.0977 33.2879C98.2553 33.1842 98.2947 32.9689 98.1844 32.8175L98.0898 32.6739C98.0898 32.6739 98.0898 32.6739 98.0898 32.666C97.9794 32.5145 97.7666 32.4746 97.6169 32.5862C97.4671 32.6979 97.4277 32.9131 97.5381 33.0646L97.6326 33.2002C97.7351 33.3517 97.94 33.3915 98.0898 33.2879H98.0977ZM98.9095 35.2971L98.9804 35.4406C99.0514 35.5841 99.2248 35.6399 99.3666 35.5762C99.5085 35.5044 99.5716 35.329 99.5006 35.1855L99.4297 35.034C99.4297 35.034 99.4297 35.034 99.4297 35.026C99.3509 34.8825 99.1775 34.8187 99.0277 34.8984C98.8859 34.9782 98.8228 35.1536 98.9016 35.3051L98.9095 35.2971ZM100.47 37.713L100.423 37.5535C100.423 37.5535 100.423 37.5535 100.423 37.5455C100.376 37.41 100.234 37.3462 100.108 37.3861C99.9736 37.4339 99.9105 37.5774 99.9499 37.705L100.005 37.8645C100.052 37.992 100.186 38.0638 100.312 38.0239C100.446 37.9841 100.517 37.8405 100.478 37.713H100.47ZM100.651 40.4159C100.675 40.5275 100.77 40.5992 100.88 40.5833C100.99 40.5674 101.069 40.4637 101.053 40.3521L101.03 40.1846C101.006 40.073 100.904 39.9933 100.785 40.0172C100.667 40.0411 100.596 40.1448 100.62 40.2644L100.651 40.4318V40.4159ZM101.243 43.039V42.8716C101.243 42.7839 101.164 42.7121 101.077 42.7121C100.99 42.7121 100.919 42.7919 100.919 42.8796V43.047C100.919 43.1347 100.99 43.2065 101.077 43.2065C101.164 43.2065 101.235 43.1347 101.235 43.047L101.243 43.039ZM100.825 45.5266L100.809 45.6941C100.809 45.7579 100.848 45.8137 100.904 45.8217C100.967 45.8296 101.022 45.7898 101.038 45.726L101.061 45.5585C101.061 45.4948 101.022 45.431 100.959 45.423C100.896 45.423 100.833 45.4629 100.825 45.5266ZM100.344 48.1339L100.305 48.2933C100.305 48.2933 100.312 48.3731 100.352 48.381C100.391 48.389 100.431 48.3731 100.439 48.3332L100.486 48.1737C100.494 48.1339 100.47 48.094 100.431 48.086C100.391 48.0781 100.352 48.102 100.344 48.1418V48.1339ZM99.4612 50.8208L99.5322 50.6693C99.5322 50.6534 99.5322 50.6374 99.5164 50.6295C99.5006 50.6215 99.4849 50.6295 99.477 50.6454L99.4139 50.7969C99.4139 50.7969 99.4139 50.8288 99.4297 50.8288C99.4455 50.8288 99.4612 50.8288 99.4691 50.8128L99.4612 50.8208ZM63.7564 40.5833C64.3396 40.679 64.8914 40.2883 64.986 39.6983L65.0175 39.5149V39.499C65.1121 38.9329 64.7495 38.3827 64.182 38.2711C63.6066 38.1515 63.047 38.5262 62.9288 39.1083L62.8894 39.2996C62.8894 39.2996 62.8894 39.3235 62.8894 39.3315C62.7948 39.9215 63.181 40.4796 63.7643 40.5753L63.7564 40.5833ZM65.6323 36.9635L65.6874 36.7881V36.7721C65.8608 36.2459 65.585 35.6798 65.0727 35.4885C64.5446 35.2971 63.9613 35.5682 63.7722 36.1024L63.7091 36.2858C63.7091 36.2858 63.7012 36.3097 63.7012 36.3177C63.5278 36.8598 63.8194 37.4419 64.3554 37.6173C64.8914 37.7927 65.4668 37.4977 65.6402 36.9555L65.6323 36.9635ZM66.6727 34.3483L66.7515 34.1809C66.9801 33.7025 66.8067 33.1284 66.3495 32.8733C65.8845 32.6181 65.2934 32.7935 65.0411 33.264L64.9466 33.4314C64.9466 33.4314 64.9387 33.4553 64.9308 33.4633C64.6943 33.9496 64.8835 34.5317 65.3643 34.7788C65.8451 35.026 66.4205 34.8267 66.6648 34.3403L66.6727 34.3483ZM66.8146 32.1397C67.2323 32.4347 67.7998 32.3311 68.0914 31.9165L68.1939 31.765C68.4776 31.3504 68.3909 30.7843 67.9968 30.4813C67.5949 30.1704 67.0195 30.2501 66.7121 30.6647L66.5939 30.8162C66.5939 30.8162 66.5781 30.8321 66.5781 30.8401C66.2865 31.2627 66.3889 31.8368 66.7988 32.1318L66.8146 32.1397ZM69.8648 29.7159L69.9831 29.5804C70.3062 29.2295 70.3062 28.6953 69.9752 28.3525C69.6441 28.0097 69.0924 28.0017 68.7535 28.3365L68.6195 28.4721C68.6195 28.4721 68.6037 28.488 68.5959 28.496C68.2648 28.8468 68.2727 29.405 68.6274 29.7398C68.9742 30.0747 69.5259 30.0667 69.8569 29.7079L69.8648 29.7159ZM71.1102 26.3592L70.9525 26.4708C70.9525 26.4708 70.9368 26.4788 70.9289 26.4868C70.5742 26.7658 70.5033 27.2921 70.7791 27.6509C71.055 28.0097 71.5752 28.0814 71.9299 27.8023L72.0718 27.6907H72.0796C72.4264 27.4117 72.4974 26.9094 72.2373 26.5506C71.9693 26.1838 71.4649 26.0961 71.0944 26.3672L71.1102 26.3592ZM73.7112 24.7566L73.5457 24.8443C73.5457 24.8443 73.5299 24.8523 73.522 24.8603C73.1516 25.0676 73.0176 25.546 73.2304 25.9207C73.4353 26.2954 73.9082 26.431 74.2787 26.2157L74.4284 26.128H74.4363C74.7989 25.9207 74.9329 25.4582 74.7437 25.0915C74.5467 24.7088 74.0816 24.5653 73.7112 24.7566ZM76.8245 24.9958L76.99 24.932H76.9979C77.3605 24.7885 77.5497 24.3898 77.4235 24.0151C77.2974 23.6324 76.8876 23.4331 76.5092 23.5606L76.328 23.6244C76.328 23.6244 76.3122 23.6244 76.3043 23.6324C75.9339 23.7759 75.7447 24.1985 75.8866 24.5732C76.0285 24.948 76.4462 25.1393 76.8166 24.9958H76.8245ZM79.5359 24.1666L79.7093 24.1267H79.7172C80.064 24.047 80.3004 23.7042 80.2295 23.3454C80.1664 22.9786 79.8117 22.7314 79.4492 22.8032L79.26 22.8351C79.26 22.8351 79.2442 22.8351 79.2364 22.8351C78.8738 22.9148 78.6452 23.2736 78.724 23.6483C78.8029 24.0151 79.1576 24.2463 79.528 24.1666H79.5359ZM81.6797 23.162C81.7034 23.5128 81.995 23.7759 82.3418 23.752L82.5152 23.744C82.8463 23.7201 83.1064 23.441 83.0906 23.0982C83.0827 22.7554 82.7911 22.4763 82.4522 22.4922H82.263C82.263 22.4922 82.2472 22.4922 82.2394 22.4922C81.8926 22.5162 81.6325 22.8112 81.6561 23.162H81.6797ZM85.1872 23.7679L85.3685 23.7839C85.6758 23.8078 85.9438 23.5846 85.9832 23.2736C86.0227 22.9547 85.7941 22.6676 85.4867 22.6278L85.2975 22.6039H85.2818C84.9665 22.5799 84.6906 22.8112 84.6591 23.1301C84.6355 23.449 84.864 23.7281 85.1793 23.76L85.1872 23.7679ZM88.001 24.2144L88.1744 24.2543C88.4503 24.3181 88.7261 24.1586 88.7971 23.8796C88.8759 23.6005 88.7104 23.3055 88.4345 23.2337L88.2532 23.1859H88.2375C87.9537 23.1141 87.67 23.2975 87.6069 23.5766C87.536 23.8636 87.7173 24.1507 87.9931 24.2144H88.001ZM91.5084 24.8922C91.6109 24.653 91.5084 24.3659 91.2641 24.2623L91.0907 24.1825C91.0907 24.1825 91.0828 24.1825 91.0749 24.1825C90.8306 24.0869 90.5547 24.2065 90.4601 24.4536C90.3656 24.7008 90.4838 24.9799 90.7281 25.0755L90.8936 25.1473C91.1301 25.243 91.3981 25.1313 91.5005 24.9001L91.5084 24.8922ZM93.3055 26.3353L93.4631 26.431C93.6602 26.5506 93.9124 26.4868 94.0306 26.2954C94.1567 26.0961 94.0937 25.833 93.8966 25.7054L93.739 25.6018C93.739 25.6018 93.7311 25.6018 93.7232 25.6018C93.5183 25.4822 93.2582 25.5539 93.14 25.7533C93.0217 25.9526 93.0927 26.2237 93.2897 26.3433L93.3055 26.3353ZM95.8198 28.0974C95.9774 28.2249 96.206 28.209 96.34 28.0495C96.474 27.8901 96.4582 27.6509 96.3006 27.5153L96.1587 27.3957C96.1587 27.3957 96.1587 27.3957 96.1508 27.3877C95.9853 27.2522 95.7489 27.2841 95.6228 27.4436C95.4967 27.603 95.5203 27.8502 95.6779 27.9778L95.8198 28.0974ZM98.279 29.5245C98.279 29.5245 98.279 29.5245 98.279 29.5166C98.1528 29.381 97.9479 29.3731 97.8139 29.4927C97.6799 29.6202 97.6721 29.8275 97.7903 29.9631L97.9085 30.0986C98.0267 30.2342 98.2238 30.2421 98.3578 30.1305C98.4918 30.0109 98.5075 29.8036 98.3972 29.6681L98.279 29.5245ZM99.5873 32.2514L99.6898 32.4029C99.7686 32.5304 99.942 32.5623 100.068 32.4826C100.194 32.4029 100.234 32.2274 100.155 32.0999L100.052 31.9404C99.9657 31.8128 99.7923 31.7809 99.6662 31.8607C99.54 31.9404 99.5085 32.1238 99.5873 32.2514ZM101.038 34.7868L101.116 34.9543C101.172 35.0659 101.298 35.1137 101.408 35.0659C101.526 35.018 101.574 34.8825 101.526 34.7629L101.455 34.5875C101.4 34.4679 101.266 34.4201 101.148 34.4759C101.03 34.5317 100.982 34.6672 101.038 34.7868ZM102.448 37.41C102.417 37.3143 102.322 37.2585 102.22 37.2904C102.125 37.3223 102.07 37.418 102.102 37.5216L102.157 37.697C102.188 37.7927 102.283 37.8485 102.37 37.8166C102.464 37.7927 102.519 37.689 102.496 37.5934L102.448 37.41ZM102.779 40.5674C102.787 40.6391 102.85 40.6869 102.921 40.679C102.992 40.671 103.04 40.6072 103.032 40.5355L103.008 40.3521C103 40.2803 102.929 40.2325 102.858 40.2405C102.787 40.2484 102.74 40.3202 102.748 40.3919L102.772 40.5753L102.779 40.5674ZM102.977 43.3261V43.5094C102.977 43.5493 103.008 43.5892 103.055 43.5892C103.103 43.5892 103.134 43.5573 103.134 43.5094V43.3261C103.134 43.2782 103.095 43.2463 103.055 43.2463C103.008 43.2463 102.977 43.2862 102.977 43.3261ZM102.795 46.4675L102.827 46.2841C102.827 46.2681 102.819 46.2522 102.795 46.2442C102.779 46.2442 102.764 46.2522 102.756 46.2761L102.724 46.4595C102.724 46.4595 102.732 46.4914 102.748 46.4914C102.764 46.4914 102.779 46.4914 102.779 46.4675H102.795ZM61.5652 45.8695C62.2194 45.8057 62.6923 45.2237 62.6372 44.5619L62.6214 44.3626V44.3466C62.5583 43.7088 62.0066 43.2304 61.3682 43.2702C60.714 43.3101 60.2174 43.8762 60.2568 44.538L60.2726 44.7533C60.2726 44.7533 60.2726 44.7851 60.2726 44.7931C60.3357 45.4549 60.911 45.9333 61.5652 45.8775V45.8695ZM62.5505 41.4284V41.2291L62.5583 41.2132C62.5899 40.5992 62.1327 40.073 61.5337 40.0172C60.911 39.9614 60.3672 40.4238 60.312 41.0537L60.2963 41.269C60.2963 41.269 60.2963 41.2929 60.2963 41.3089C60.2647 41.9387 60.7455 42.4809 61.3682 42.5128C61.9909 42.5447 62.5268 42.0583 62.5583 41.4284H62.5505ZM62.9288 38.3189L62.9682 38.1196V38.1036C63.0864 37.5376 62.7317 36.9715 62.1721 36.8359C61.5968 36.7004 61.0214 37.0592 60.8795 37.6412L60.8322 37.8485C60.8322 37.8485 60.8322 37.8724 60.8322 37.8804C60.714 38.4704 61.0923 39.0445 61.6677 39.1641C62.251 39.2837 62.8184 38.901 62.9367 38.3189H62.9288ZM62.448 35.911C62.9761 36.1104 63.5672 35.8313 63.7564 35.2971L63.8194 35.1057V35.0898C64.0086 34.5715 63.7564 33.9895 63.252 33.7822C62.7317 33.5669 62.1406 33.8221 61.9278 34.3483L61.849 34.5476C61.849 34.5476 61.8411 34.5715 61.8332 34.5795C61.6362 35.1137 61.912 35.7117 62.4401 35.9031L62.448 35.911ZM65.0333 32.4268L65.1278 32.2434C65.3722 31.773 65.2224 31.1989 64.7731 30.9278C64.316 30.6567 63.7249 30.8082 63.4569 31.2707L63.3465 31.4541C63.3465 31.4541 63.3386 31.478 63.3308 31.4859C63.0707 31.9564 63.2441 32.5543 63.717 32.8095C64.182 33.0726 64.7731 32.8972 65.0254 32.4188L65.0333 32.4268ZM65.4431 29.9471C65.8451 30.2581 66.4126 30.1783 66.72 29.7717L66.8382 29.6123C67.1298 29.2136 67.0668 28.6475 66.6884 28.3365C66.3022 28.0176 65.7269 28.0734 65.4116 28.4721L65.2776 28.6395C65.2776 28.6395 65.2618 28.6555 65.2618 28.6634C64.9544 29.0701 65.0332 29.6441 65.4352 29.9551L65.4431 29.9471ZM67.7604 25.9845L67.6027 26.128C67.6027 26.128 67.587 26.1439 67.5791 26.1519C67.2402 26.4868 67.2323 27.0369 67.5633 27.3798C67.8944 27.7226 68.4382 27.7306 68.7771 27.3957L68.919 27.2522C69.2501 26.9173 69.2658 26.3911 68.9505 26.0483C68.6353 25.6974 68.0914 25.6735 67.7446 25.9924L67.7604 25.9845ZM70.251 24.0071C70.251 24.0071 70.2353 24.0151 70.2274 24.0231C69.8648 24.2862 69.786 24.7965 70.0461 25.1553C70.3062 25.522 70.8107 25.6018 71.1653 25.3386L71.323 25.2191H71.3309C71.6777 24.9559 71.7644 24.4696 71.5279 24.1108C71.2836 23.744 70.787 23.6404 70.4166 23.8875L70.2432 24.0071H70.251ZM73.3644 22.2132L73.1752 22.3009C73.1752 22.3009 73.1595 22.3009 73.1516 22.3089C72.7811 22.5002 72.6393 22.9547 72.8284 23.3294C73.0176 23.7042 73.4668 23.8477 73.8373 23.6563L74.0107 23.5606H74.0186C74.3733 23.3693 74.523 22.9308 74.3496 22.564C74.1762 22.1893 73.7269 22.0298 73.3565 22.2052L73.3644 22.2132ZM76.7299 22.4045L76.9191 22.3407H76.927C77.2738 22.2211 77.4708 21.8384 77.3684 21.4796C77.258 21.1129 76.8718 20.9056 76.5092 21.0092L76.3043 21.073C76.3043 21.073 76.2886 21.073 76.2807 21.073C75.9181 21.2006 75.7211 21.5913 75.8472 21.958C75.9733 22.3248 76.3595 22.5241 76.7221 22.3966L76.7299 22.4045ZM79.7881 21.5992L79.9852 21.5594C80.3162 21.4956 80.5526 21.1767 80.4975 20.8338C80.4502 20.483 80.127 20.2358 79.7802 20.2916L79.5753 20.3235C79.5753 20.3235 79.5595 20.3235 79.5516 20.3235C79.2048 20.3873 78.9763 20.7222 79.0314 21.073C79.0945 21.4238 79.4255 21.6551 79.7723 21.5992H79.7881ZM82.9408 21.2564H83.1379C83.4453 21.2484 83.6975 20.9933 83.6975 20.6744C83.6975 20.3475 83.4374 20.0843 83.1221 20.0843H82.9093H82.8936C82.5704 20.0923 82.3182 20.3634 82.3261 20.6903C82.3339 21.0172 82.6019 21.2723 82.9251 21.2644L82.9408 21.2564ZM85.6522 20.794C85.6207 21.089 85.8256 21.3521 86.1172 21.3919L86.3143 21.4159C86.5901 21.4478 86.8503 21.2564 86.8975 20.9694C86.9448 20.6823 86.7478 20.4112 86.4562 20.3634L86.2512 20.3315H86.2355C85.9438 20.2996 85.6837 20.5069 85.6443 20.8019L85.6522 20.794ZM88.9074 21.4079C88.8365 21.663 88.9862 21.9261 89.2385 21.9979L89.4276 22.0537C89.672 22.1255 89.9242 21.982 90.003 21.7348C90.0818 21.4876 89.9399 21.2165 89.6956 21.1368L89.4986 21.073C89.4986 21.073 89.4907 21.073 89.4828 21.073C89.2306 21.0013 88.9705 21.1527 88.8995 21.4079H88.9074ZM92.2493 23.0743L92.4306 23.154C92.6355 23.2497 92.872 23.154 92.9745 22.9547C93.0769 22.7474 92.9902 22.4922 92.7853 22.3886L92.5961 22.3009C92.5961 22.3009 92.5882 22.3009 92.5804 22.3009C92.3676 22.2052 92.1232 22.3009 92.0286 22.5162C91.9341 22.7314 92.0286 22.9786 92.2414 23.0743H92.2493ZM95.071 24.5971L95.2366 24.7088C95.4021 24.8124 95.6149 24.7726 95.7252 24.6131C95.8356 24.4457 95.7962 24.2224 95.6306 24.1028L95.4572 23.9832C95.4572 23.9832 95.4572 23.9832 95.4494 23.9832C95.276 23.8716 95.0553 23.9274 94.9449 24.0948C94.8346 24.2702 94.8897 24.4935 95.0553 24.6051L95.071 24.5971ZM97.6484 26.5266L97.7982 26.6622C97.9243 26.7738 98.1134 26.7658 98.2238 26.6383C98.342 26.5107 98.3341 26.3193 98.208 26.1997L98.0583 26.0562C97.9322 25.9446 97.7351 25.9526 97.6248 26.0881C97.5144 26.2157 97.5223 26.415 97.6563 26.5266H97.6484ZM100.312 28.496C100.218 28.3844 100.06 28.3764 99.9499 28.4641C99.8396 28.5598 99.8317 28.7193 99.9184 28.8309L100.052 28.9903C100.139 29.094 100.297 29.1099 100.399 29.0222C100.51 28.9345 100.525 28.7751 100.439 28.6634L100.312 28.504V28.496ZM101.905 31.175C101.81 31.2308 101.779 31.3584 101.842 31.4541L101.952 31.6295C102.007 31.7251 102.125 31.7491 102.22 31.7012C102.314 31.6454 102.346 31.5258 102.291 31.4301L102.188 31.2467C102.133 31.1511 102.007 31.1192 101.912 31.183L101.905 31.175ZM103.355 34.3403L103.434 34.5317C103.465 34.6034 103.544 34.6353 103.615 34.6114C103.686 34.5795 103.725 34.4998 103.694 34.428L103.615 34.2367C103.583 34.1649 103.497 34.1251 103.426 34.1569C103.355 34.1888 103.315 34.2765 103.347 34.3483L103.355 34.3403ZM104.608 37.3861C104.592 37.3382 104.545 37.3063 104.498 37.3223C104.45 37.3382 104.419 37.3861 104.435 37.4339L104.49 37.6332C104.506 37.6811 104.545 37.705 104.592 37.697C104.64 37.689 104.671 37.6412 104.655 37.5934L104.608 37.394V37.3861ZM105.113 40.6551C105.113 40.6551 105.089 40.6232 105.073 40.6232C105.049 40.6232 105.042 40.6471 105.042 40.663L105.065 40.8703C105.065 40.8703 105.081 40.9022 105.097 40.9022C105.113 40.9022 105.128 40.8863 105.128 40.8703L105.113 40.663V40.6551ZM61.4785 50.5019L61.4076 50.2866V50.2707C61.1554 49.6009 60.4302 49.2501 59.7524 49.4734C59.0667 49.7046 58.6962 50.462 58.9248 51.1557L59.0036 51.3869C59.0036 51.3869 59.0115 51.4188 59.0194 51.4268C59.2716 52.1125 60.0283 52.4712 60.714 52.2081C61.3918 51.953 61.7465 51.1876 61.4864 50.4939L61.4785 50.5019ZM60.5012 47.1611L60.4539 46.9459V46.9299C60.312 46.2682 59.6736 45.8296 59.0036 45.9492C58.3258 46.0688 57.8686 46.7306 57.9869 47.4163L58.0263 47.6555C58.0263 47.6555 58.0263 47.6874 58.0342 47.6953C58.176 48.381 58.846 48.8196 59.5238 48.676C60.2017 48.5325 60.6352 47.8548 60.4933 47.1691L60.5012 47.1611ZM58.9012 44.9924C59.5632 44.9526 60.0598 44.3785 60.0204 43.7088L60.0046 43.4855V43.4696C59.9652 42.8237 59.4292 42.3214 58.7829 42.3374C58.1287 42.3533 57.6085 42.9115 57.6243 43.5732V43.8124C57.6243 43.8124 57.6243 43.8443 57.6322 43.8523C57.6716 44.522 58.2391 45.0243 58.9012 44.9845V44.9924ZM60.0598 40.2165L60.0756 40.0013V39.9853C60.1307 39.3714 59.6972 38.8292 59.0903 38.7495C58.4677 38.6697 57.9081 39.1162 57.8292 39.7461L57.7977 39.9853C57.7977 39.9853 57.7977 40.0092 57.7977 40.0252C57.7425 40.6551 58.1997 41.2132 58.8223 41.269C59.445 41.3248 59.9967 40.8624 60.0519 40.2325L60.0598 40.2165ZM60.6115 36.7642L60.6667 36.5409V36.525C60.8086 35.9589 60.4775 35.3848 59.9179 35.2253C59.3504 35.0659 58.7593 35.4008 58.6017 35.9748L58.5386 36.206C58.5386 36.206 58.5386 36.23 58.5307 36.2379C58.3888 36.82 58.7435 37.41 59.3189 37.5535C59.8943 37.697 60.4775 37.3382 60.6194 36.7562L60.6115 36.7642ZM61.6677 33.4234L61.7465 33.2161C61.9514 32.6979 61.7229 32.1158 61.2263 31.8926C60.714 31.6614 60.1228 31.8926 59.8943 32.4029L59.7997 32.6181C59.7997 32.6181 59.7918 32.642 59.7839 32.65C59.5711 33.1762 59.8233 33.7742 60.3357 33.9895C60.848 34.2048 61.447 33.9496 61.6598 33.4314L61.6677 33.4234ZM61.8963 30.6009C62.3455 30.872 62.9288 30.7205 63.2047 30.2661L63.315 30.0667C63.5751 29.6123 63.4411 29.0382 63.0076 28.7591C62.5662 28.4721 61.983 28.5997 61.6992 29.0462L61.5731 29.2455C61.5731 29.2455 61.5574 29.2614 61.5574 29.2694C61.2894 29.7239 61.4391 30.3139 61.8884 30.5929L61.8963 30.6009ZM63.9771 26.0243L63.8194 26.1997C63.8194 26.1997 63.8037 26.2157 63.8037 26.2237C63.4963 26.6064 63.5515 27.1804 63.9298 27.4914C64.3081 27.8023 64.8756 27.7465 65.183 27.3638L65.317 27.1884C65.6165 26.8057 65.5692 26.2556 65.2145 25.9366C64.8441 25.6097 64.2845 25.6496 63.9613 26.0243H63.9771ZM66.6569 23.3773L66.4756 23.5287C66.4756 23.5287 66.4599 23.5447 66.452 23.5447C66.1131 23.8556 66.0894 24.3898 66.3968 24.7327C66.7042 25.0755 67.2323 25.0995 67.5712 24.7885L67.7367 24.637C68.0678 24.3261 68.0993 23.8158 67.8077 23.4729C67.516 23.1221 66.988 23.0743 66.6412 23.3773H66.6569ZM69.4944 21.2883C69.4944 21.2883 69.4786 21.2963 69.4707 21.3042C69.1161 21.5434 69.0215 22.0298 69.2579 22.3806C69.4944 22.7314 69.9752 22.8351 70.322 22.5959L70.5033 22.4683C70.8422 22.2291 70.9446 21.7667 70.7318 21.4079C70.5111 21.0411 70.0382 20.9295 69.6757 21.1607L69.4786 21.2883H69.4944ZM73.0097 19.4385L72.7969 19.5342C72.7969 19.5342 72.7811 19.5342 72.7732 19.5422C72.4186 19.7096 72.2688 20.1402 72.4343 20.499C72.5998 20.8577 73.0255 21.0092 73.3801 20.8418L73.5772 20.7461C73.9161 20.5787 74.0738 20.1721 73.924 19.8133C73.7742 19.4545 73.3565 19.287 73.0018 19.4385H73.0097ZM76.659 19.5581L76.8718 19.4943C77.2029 19.3907 77.3999 19.0399 77.3132 18.705C77.2265 18.3542 76.8718 18.1469 76.525 18.2426L76.3043 18.2984C76.3043 18.2984 76.2886 18.2984 76.2807 18.2984C75.9339 18.402 75.7447 18.7688 75.8472 19.1116C75.9496 19.4624 76.3122 19.6538 76.6511 19.5501L76.659 19.5581ZM80.1034 18.7768L80.3241 18.7449C80.6315 18.697 80.8521 18.41 80.8206 18.099C80.7891 17.7721 80.4975 17.5409 80.1743 17.5728L79.9457 17.5967H79.93C79.6068 17.6446 79.3861 17.9475 79.4334 18.2665C79.4807 18.5934 79.7802 18.8166 80.0955 18.7688L80.1034 18.7768ZM83.6345 18.5136H83.8551C84.1389 18.5136 84.3675 18.2904 84.3832 18.0034C84.3911 17.7084 84.1704 17.4692 83.8788 17.4532H83.6502L83.6345 17.4452C83.3428 17.4452 83.1064 17.6765 83.1064 17.9715C83.1064 18.2665 83.3349 18.5057 83.6266 18.5057L83.6345 18.5136ZM86.7793 18.2505C86.7399 18.5057 86.9133 18.7528 87.1655 18.7927L87.3862 18.8246C87.6306 18.8645 87.867 18.697 87.9143 18.4499C87.9616 18.1947 87.7961 17.9475 87.5517 17.8997L87.3232 17.8519C87.3232 17.8519 87.3153 17.8519 87.3074 17.8519C87.0552 17.812 86.8108 17.9874 86.7714 18.2426L86.7793 18.2505ZM90.6335 19.598L90.8464 19.6697C91.0513 19.7335 91.272 19.6299 91.3429 19.4226C91.4138 19.2073 91.3035 18.9761 91.0986 18.9043L90.8779 18.8246C90.8779 18.8246 90.87 18.8246 90.8621 18.8246C90.6493 18.7528 90.4207 18.8724 90.3577 19.0957C90.2867 19.311 90.405 19.5422 90.6257 19.606L90.6335 19.598ZM93.9518 20.9215L94.1488 21.0252C94.3144 21.1049 94.5114 21.0411 94.5981 20.8817C94.6848 20.7142 94.6218 20.5069 94.4562 20.4192L94.2513 20.3076C94.2513 20.3076 94.2513 20.3076 94.2434 20.3076C94.07 20.2199 93.8651 20.2916 93.7863 20.4671C93.6996 20.6425 93.7705 20.8498 93.9439 20.9295L93.9518 20.9215ZM97.0494 22.7314L97.2307 22.859C97.3568 22.9467 97.5223 22.9148 97.6169 22.7952C97.7115 22.6676 97.6799 22.4922 97.5617 22.3966L97.3804 22.261C97.2543 22.1733 97.073 22.2052 96.9863 22.3328C96.8996 22.4603 96.9312 22.6437 97.0573 22.7314H97.0494ZM99.8553 24.9878L100.021 25.1393C100.108 25.2191 100.242 25.2191 100.328 25.1393C100.415 25.0516 100.415 24.9161 100.328 24.8284L100.163 24.6689C100.076 24.5812 99.9341 24.5892 99.8474 24.6769C99.7607 24.7646 99.7686 24.9081 99.8553 24.9958V24.9878ZM102.559 27.4436C102.504 27.3718 102.401 27.3638 102.33 27.4196C102.259 27.4755 102.251 27.5791 102.307 27.6509L102.448 27.8263C102.504 27.898 102.598 27.906 102.669 27.8582C102.74 27.8023 102.756 27.7067 102.701 27.6349L102.567 27.4515L102.559 27.4436ZM104.45 30.8481C104.474 30.8959 104.537 30.9119 104.584 30.888C104.632 30.864 104.647 30.8003 104.624 30.7524L104.521 30.5531C104.49 30.5052 104.435 30.4893 104.38 30.5132C104.332 30.5451 104.316 30.6009 104.34 30.6567L104.45 30.8561V30.8481ZM106.035 34.1729C106.035 34.1729 106.066 34.149 106.058 34.125L105.98 33.9098C105.972 33.8859 105.948 33.8779 105.924 33.8859C105.901 33.8938 105.893 33.9178 105.901 33.9417L105.98 34.1569C105.98 34.1569 106.011 34.1888 106.027 34.1809L106.035 34.1729ZM61.9514 57.1674L61.8096 56.9601V56.9442C61.3445 56.2984 60.4618 56.1309 59.8076 56.5694C59.1376 57.0159 58.9485 57.9328 59.3977 58.6106L59.5475 58.8338C59.5475 58.8338 59.5632 58.8657 59.579 58.8737C60.044 59.5434 60.9583 59.6949 61.6204 59.2245C62.2825 58.7541 62.4322 57.8292 61.9672 57.1595L61.9514 57.1674ZM57.3406 54.8712L57.4509 55.1104C57.4509 55.1104 57.4667 55.1423 57.4745 55.1502C57.8213 55.8439 58.6647 56.1229 59.3504 55.7642C60.0362 55.4133 60.312 54.5602 59.9573 53.8666L59.847 53.6433V53.6274C59.5002 52.9576 58.6884 52.6706 58.0105 52.9975C57.3169 53.3244 57.0174 54.1616 57.3406 54.8712ZM58.4598 50.3105L58.381 50.0793V50.0634C58.1524 49.3856 57.4273 49.0029 56.7415 49.2023C56.04 49.4096 55.6381 50.159 55.8509 50.8687L55.9297 51.1238C55.9297 51.1238 55.9376 51.1557 55.9455 51.1637C56.174 51.8653 56.9307 52.248 57.6243 52.0088C58.3179 51.7776 58.6962 51.0122 58.4598 50.3105ZM56.4814 48.0302C57.1672 47.9106 57.6243 47.2488 57.5061 46.5552L57.4667 46.308V46.2921C57.3484 45.6223 56.7258 45.1599 56.0558 45.2556C55.3701 45.3512 54.8893 45.9971 54.9839 46.6907L55.0233 46.9538C55.0233 46.9538 55.0233 46.9857 55.0233 46.9937C55.1415 47.6874 55.7957 48.1498 56.4814 48.0302ZM54.7317 42.7042C54.7317 42.7042 54.7317 42.736 54.7317 42.744C54.7474 43.4138 55.2913 43.94 55.9533 43.924C56.6154 43.9081 57.1356 43.358 57.1199 42.6882V42.4331V42.4171C57.1041 41.7713 56.5839 41.253 55.9455 41.2451C55.2913 41.2451 54.7474 41.7713 54.7474 42.4331V42.6962L54.7317 42.7042ZM55.0706 38.4784C55.0706 38.4784 55.0706 38.5023 55.0706 38.5183C54.9918 39.1402 55.4253 39.7142 56.0479 39.794C56.6627 39.8737 57.2302 39.4352 57.309 38.8053L57.3406 38.5581V38.5422C57.4194 37.9362 57.0095 37.3781 56.4105 37.2824C55.7957 37.1867 55.2203 37.6013 55.1258 38.2232L55.0863 38.4864L55.0706 38.4784ZM56.1031 34.1011L56.0243 34.3563C56.0243 34.3563 56.0243 34.3802 56.0164 34.3882C55.8588 34.9543 56.1898 35.5443 56.7494 35.7117C57.309 35.8712 57.8923 35.5363 58.0578 34.9702L58.1209 34.723V34.7071C58.2785 34.1569 57.9711 33.5829 57.4273 33.4075C56.8755 33.2321 56.2765 33.543 56.1031 34.1011ZM58.9957 29.7318C58.5071 29.4927 57.9159 29.692 57.6795 30.1863L57.5612 30.4255C57.5612 30.4255 57.5534 30.4494 57.5455 30.4574C57.3248 30.9597 57.5455 31.5577 58.042 31.7809C58.5386 32.0042 59.1297 31.7809 59.3504 31.2786L59.4529 31.0474C59.6657 30.5451 59.4687 29.971 58.9879 29.7318H58.9957ZM59.7997 26.5665L59.6499 26.7818C59.6499 26.7818 59.6342 26.7977 59.6342 26.8057C59.3583 27.2363 59.4844 27.8183 59.91 28.0974C60.3357 28.3764 60.911 28.2488 61.1869 27.8183L61.3209 27.603C61.5889 27.1725 61.4785 26.6144 61.0687 26.3273C60.6509 26.0323 60.0756 26.1439 59.7918 26.5665H59.7997ZM62.4244 23.3135L62.2431 23.5048C62.2431 23.5048 62.2273 23.5208 62.2273 23.5287C61.912 23.8875 61.9514 24.4377 62.3061 24.7486C62.6608 25.0676 63.2047 25.0277 63.5121 24.6689L63.6697 24.4775C63.9692 24.1188 63.9456 23.5925 63.6145 23.2736C63.2756 22.9467 62.7318 22.9627 62.4086 23.3135H62.4244ZM65.4983 20.499L65.2934 20.6584C65.2934 20.6584 65.2776 20.6664 65.2697 20.6744C64.9387 20.9614 64.8914 21.4637 65.1751 21.7986C65.4589 22.1334 65.9554 22.1813 66.2865 21.8943L66.4756 21.7348C66.7988 21.4557 66.8461 20.9694 66.586 20.6345C66.318 20.2916 65.8293 20.2279 65.4825 20.499H65.4983ZM68.7141 18.3143C68.7141 18.3143 68.6983 18.3223 68.6904 18.3303C68.3515 18.5376 68.2491 18.992 68.454 19.3349C68.6589 19.6777 69.1082 19.7814 69.4471 19.5741L69.652 19.4385C69.9752 19.2312 70.0855 18.8007 69.8964 18.4578C69.6993 18.107 69.2658 17.9874 68.919 18.1867L68.6983 18.3143H68.7141ZM72.6708 16.4087L72.4343 16.5044C72.4343 16.5044 72.4186 16.5044 72.4107 16.5124C72.0796 16.6559 71.922 17.0466 72.0639 17.3815C72.2057 17.7163 72.592 17.8758 72.923 17.7323L73.1516 17.6286C73.4747 17.4851 73.6245 17.1183 73.4984 16.7835C73.3723 16.4486 72.9939 16.2812 72.6629 16.4087H72.6708ZM76.6354 16.4167L76.8718 16.3529C77.1713 16.2732 77.3605 15.9622 77.2896 15.6513C77.2186 15.3324 76.9112 15.133 76.5959 15.2048L76.3437 15.2606H76.328C76.0127 15.3403 75.8314 15.6672 75.9102 15.9862C75.989 16.3051 76.3122 16.4885 76.6275 16.4087L76.6354 16.4167ZM80.5053 15.6832L80.7497 15.6593C81.0256 15.6274 81.2305 15.3882 81.2068 15.1091C81.1832 14.8221 80.9389 14.6068 80.6551 14.6307L80.4029 14.6467H80.3871C80.1034 14.6786 79.8985 14.9337 79.93 15.2207C79.9615 15.5078 80.2137 15.7151 80.4975 15.6832H80.5053ZM84.4542 15.5476L84.6985 15.5556C84.935 15.5636 85.1399 15.3802 85.1635 15.141C85.1793 14.8938 84.998 14.6786 84.7537 14.6546L84.5015 14.6307C84.5015 14.6307 84.4936 14.6307 84.4857 14.6307C84.2335 14.6227 84.0285 14.8141 84.0128 15.0692C84.0049 15.3244 84.1941 15.5317 84.4463 15.5476H84.4542ZM88.0877 15.5476C88.0483 15.7549 88.1823 15.9622 88.3872 16.0021L88.6315 16.0499C88.8286 16.0898 89.0256 15.9622 89.0729 15.7629C89.1202 15.5556 88.9941 15.3483 88.7892 15.3005L88.537 15.2446C88.537 15.2446 88.5291 15.2446 88.5212 15.2446C88.3163 15.2048 88.1113 15.3403 88.0719 15.5476H88.0877ZM92.2257 17.0386L92.4621 17.1263C92.6198 17.1821 92.7932 17.1024 92.8562 16.9429C92.9193 16.7835 92.8405 16.6001 92.6828 16.5363L92.4464 16.4406C92.4464 16.4406 92.4464 16.4406 92.4385 16.4406C92.273 16.3848 92.0917 16.4725 92.0365 16.632C91.9813 16.7914 92.068 16.9828 92.2257 17.0386ZM95.875 18.6412L96.0957 18.7608C96.2139 18.8246 96.3558 18.7847 96.4188 18.6651C96.4898 18.5455 96.4425 18.394 96.3321 18.3303L96.1114 18.2027C95.9932 18.1389 95.8435 18.1867 95.7804 18.3063C95.7173 18.4259 95.7646 18.5774 95.8829 18.6412H95.875ZM99.2563 20.786L99.4533 20.9375C99.5322 20.9933 99.6346 20.9853 99.6977 20.9056C99.7607 20.8258 99.745 20.7142 99.6662 20.6584L99.4691 20.499C99.3903 20.4352 99.2799 20.4591 99.2169 20.5388C99.1538 20.6185 99.1775 20.7302 99.2563 20.794V20.786ZM102.472 23.6005C102.512 23.6404 102.582 23.6483 102.622 23.6005C102.669 23.5606 102.669 23.4889 102.622 23.449L102.448 23.2656C102.401 23.2178 102.33 23.2258 102.291 23.2656C102.244 23.3135 102.251 23.3852 102.291 23.4251L102.464 23.6085L102.472 23.6005ZM105.065 26.6941C105.065 26.6941 105.105 26.718 105.12 26.7021C105.136 26.6861 105.144 26.6622 105.128 26.6462L104.986 26.4389C104.971 26.415 104.947 26.415 104.923 26.431C104.9 26.4469 104.9 26.4708 104.915 26.4948L105.065 26.7021V26.6941ZM64.3396 64.1997L64.1347 64.0323L64.119 64.0164C63.449 63.4582 62.4559 63.53 61.8726 64.1918C61.2815 64.8695 61.3445 65.906 62.0145 66.504L62.2352 66.7033C62.2352 66.7033 62.2667 66.7272 62.2746 66.7432C62.9682 67.3252 63.9929 67.2216 64.5603 66.5279C65.1357 65.8263 65.0332 64.7898 64.3475 64.2157H64.3396V64.1997ZM61.2657 61.2417L61.0844 61.0424L61.0687 61.0264C60.5169 60.4045 59.5632 60.3328 58.9248 60.8749C58.2706 61.4331 58.1839 62.4138 58.7356 63.0755L58.9248 63.3068C58.9248 63.3068 58.9485 63.3386 58.9563 63.3466C59.5317 63.9924 60.5091 64.0403 61.1475 63.4662C61.7859 62.8842 61.8332 61.8955 61.2657 61.2497V61.2417ZM58.6568 57.8611L58.5071 57.6299V57.6139C58.0578 56.9522 57.1829 56.7449 56.5051 57.1674C55.8115 57.598 55.5987 58.5149 56.0243 59.2165L56.174 59.4717C56.174 59.4717 56.1898 59.5036 56.1977 59.5115C56.647 60.1972 57.5612 60.3886 58.2391 59.9341C58.9169 59.4796 59.1061 58.5548 58.6568 57.8691V57.8611ZM53.8883 54.9908L53.9986 55.2619C53.9986 55.2619 54.0144 55.2937 54.0144 55.3017C54.3376 56.0113 55.173 56.3223 55.8745 55.9954C56.576 55.6685 56.8834 54.8233 56.5603 54.1137L56.4499 53.8586V53.8426C56.1268 53.1569 55.3307 52.838 54.6371 53.141C53.9277 53.444 53.5967 54.2732 53.8962 54.9908H53.8883ZM53.3681 48.8833C52.6587 49.0667 52.2331 49.7923 52.4144 50.5099L52.4853 50.7969C52.4853 50.7969 52.4932 50.8288 52.4932 50.8368C52.6981 51.5464 53.4312 51.953 54.1405 51.7457C54.842 51.5384 55.244 50.7969 55.0391 50.0793L54.9602 49.8082V49.7923C54.7553 49.1066 54.0538 48.7 53.3602 48.8754L53.3681 48.8833ZM53.0607 47.2807C53.7464 47.1851 54.2272 46.5472 54.1326 45.8535L54.0932 45.5745V45.5585C53.9986 44.8888 53.3996 44.4104 52.7297 44.4742C52.0439 44.5459 51.5474 45.1599 51.6183 45.8535L51.6498 46.1486C51.6498 46.1486 51.6498 46.1804 51.6498 46.1884C51.7444 46.8821 52.375 47.3684 53.0607 47.2728V47.2807ZM51.508 41.1653L51.4922 41.4603C51.4922 41.4603 51.4922 41.4922 51.4922 41.5002C51.4843 42.154 52.0045 42.6962 52.6508 42.7042C53.2972 42.7121 53.8331 42.1859 53.841 41.5321V41.253V41.2371C53.841 40.5992 53.3602 40.073 52.7218 40.0411C52.0755 40.0092 51.5316 40.5195 51.5001 41.1733L51.508 41.1653ZM53.3681 35.6399C52.777 35.5204 52.2016 35.911 52.0834 36.517L52.0282 36.804C52.0282 36.804 52.0282 36.8279 52.0282 36.8439C51.9336 37.4499 52.3356 38.0239 52.9425 38.1196C53.5415 38.2153 54.109 37.8086 54.2036 37.1947L54.243 36.9156V36.8997C54.3376 36.3097 53.9592 35.7516 53.376 35.6399H53.3681ZM53.3287 32.0042L53.2341 32.2833C53.2341 32.2833 53.2262 32.3072 53.2262 32.3151C53.0528 32.8573 53.3523 33.4473 53.8883 33.6227C54.4243 33.7982 55.0075 33.4952 55.1809 32.953L55.2597 32.6819V32.666C55.4331 32.1397 55.1573 31.5657 54.6371 31.3823C54.109 31.1909 53.5257 31.47 53.3366 32.0042H53.3287ZM56.5051 27.3559C56.0479 27.1087 55.4726 27.2841 55.2282 27.7465L55.0942 28.0017C55.0942 28.0017 55.0863 28.0256 55.0785 28.0336C54.842 28.512 55.0391 29.086 55.512 29.3252C55.9849 29.5644 56.5524 29.3651 56.7888 28.8867L56.9071 28.6316C57.1277 28.1611 56.9543 27.603 56.5051 27.3559ZM57.7189 23.8317L57.5455 24.0629C57.5455 24.0629 57.5297 24.0789 57.5297 24.0869C57.2539 24.4855 57.3484 25.0436 57.7504 25.3227C58.1524 25.6018 58.6962 25.5061 58.9721 25.0995L59.1297 24.8682C59.3977 24.4696 59.311 23.9354 58.9406 23.6483C58.5544 23.3533 58.0105 23.4331 57.7189 23.8238V23.8317ZM60.7534 20.3475L60.5485 20.5548L60.5327 20.5707C60.2253 20.8976 60.2411 21.4079 60.5642 21.7188C60.8874 22.0298 61.3918 22.0138 61.6992 21.6869L61.8884 21.4796C62.18 21.1607 62.18 20.6664 61.8726 20.3554C61.5652 20.0365 61.0608 20.0365 60.7455 20.3554L60.7534 20.3475ZM63.8825 18.5695C64.1268 18.8884 64.584 18.9442 64.8993 18.689L65.1121 18.5136C65.4116 18.2665 65.4746 17.82 65.2461 17.509C65.0096 17.1821 64.5603 17.1104 64.2372 17.3496L64.0086 17.517C64.0086 17.517 63.9928 17.525 63.9928 17.5329C63.6776 17.7801 63.6224 18.2426 63.8746 18.5615L63.8825 18.5695ZM67.8944 15.0533C67.8944 15.0533 67.8786 15.0533 67.8786 15.0613C67.5633 15.2367 67.4609 15.6433 67.6343 15.9543C67.8077 16.2732 68.2096 16.3768 68.517 16.2014L68.7535 16.0659C69.053 15.8905 69.1634 15.5078 69.0057 15.1888C68.8402 14.8699 68.454 14.7503 68.1308 14.9178L67.8786 15.0533H67.8944ZM72.3397 13.1078L72.0718 13.2035H72.056C71.7565 13.3151 71.6146 13.658 71.725 13.953C71.8353 14.256 72.1742 14.3995 72.4659 14.2879L72.7181 14.1842C73.0018 14.0726 73.1516 13.7457 73.0491 13.4587C72.9466 13.1557 72.6235 12.9962 72.324 13.0999L72.3397 13.1078ZM76.659 12.9962L76.927 12.9324C77.1871 12.8766 77.3526 12.6135 77.3053 12.3504C77.258 12.0793 76.9979 11.8959 76.7299 11.9517L76.4541 12.0076C76.4541 12.0076 76.4462 12.0076 76.4383 12.0076C76.1703 12.0713 75.9969 12.3345 76.06 12.6135C76.123 12.8846 76.3831 13.06 76.659 12.9962ZM81.0098 12.3424L81.2857 12.3265C81.5142 12.3105 81.6876 12.1192 81.6797 11.888C81.6719 11.6567 81.4748 11.4734 81.2462 11.4813H80.9625C80.9625 11.4813 80.9546 11.4893 80.9467 11.4893C80.7103 11.5052 80.5369 11.7125 80.5526 11.9517C80.5684 12.1909 80.7733 12.3663 81.0098 12.3504V12.3424ZM85.4236 12.3424L85.6995 12.3663C85.8808 12.3823 86.0463 12.2467 86.0699 12.0554C86.0936 11.864 85.9517 11.6886 85.7626 11.6727L85.4788 11.6408H85.4709C85.2818 11.6248 85.1084 11.7684 85.0926 11.9677C85.0768 12.159 85.2187 12.3345 85.4158 12.3504L85.4236 12.3424ZM89.7981 13.0042L90.066 13.068C90.2079 13.0999 90.3498 13.0122 90.3892 12.8766C90.4286 12.7331 90.3419 12.5816 90.2 12.5418L89.9242 12.47C89.9242 12.47 89.9242 12.47 89.9163 12.47C89.7665 12.4381 89.6247 12.5258 89.5853 12.6773C89.5537 12.8288 89.6404 12.9723 89.7902 13.0122L89.7981 13.0042ZM94.0385 14.3198L94.2986 14.4234C94.3932 14.4633 94.5035 14.4234 94.5508 14.3198C94.5902 14.2161 94.5508 14.1045 94.4484 14.0567L94.1883 13.945C94.0858 13.9052 93.9676 13.953 93.9282 14.0567C93.8888 14.1603 93.936 14.2799 94.0385 14.3198ZM98.2868 16.4087C98.342 16.4406 98.4129 16.4247 98.4524 16.3689C98.4839 16.3131 98.4681 16.2333 98.4129 16.2014L98.1765 16.0499C98.1134 16.018 98.0425 16.034 98.0031 16.0978C97.9716 16.1616 97.9873 16.2333 98.0504 16.2732L98.2947 16.4167L98.2868 16.4087ZM101.952 18.9761C101.952 18.9761 101.999 18.992 102.015 18.9761C102.031 18.9601 102.031 18.9282 102.015 18.9123L101.802 18.7289C101.779 18.713 101.747 18.713 101.731 18.7369C101.715 18.7608 101.715 18.7927 101.739 18.8086L101.96 18.9841L101.952 18.9761ZM67.0668 74.23L67.3584 74.3814C67.3584 74.3814 67.3978 74.3974 67.4136 74.4054C68.32 74.8279 69.3919 74.4213 69.8097 73.5044C70.2274 72.5875 69.8254 71.5031 68.919 71.0806H68.9032L68.6353 70.953H68.6116C67.7367 70.5384 66.6884 70.9052 66.2549 71.7902C65.8136 72.6911 66.1761 73.7835 67.0589 74.23H67.0668ZM64.5209 68.6408L64.5052 68.6248C63.7327 68.1146 62.6923 68.3219 62.1643 69.0873C61.6204 69.8766 61.8096 70.961 62.5899 71.5031L62.8579 71.6945C62.8579 71.6945 62.8894 71.7184 62.9051 71.7264C63.7012 72.2526 64.7732 72.0214 65.2855 71.2161C65.8057 70.4108 65.5771 69.3265 64.781 68.8082H64.7731L64.5288 68.6408H64.5209ZM58.7908 68.3856C58.7908 68.3856 58.8223 68.4096 58.8302 68.4255C59.5081 69.0315 60.5406 68.9677 61.1475 68.282C61.7465 67.5963 61.6835 66.5518 61.0056 65.9379H60.9977L60.777 65.7306L60.7613 65.7146C60.1071 65.1246 59.0982 65.1645 58.4913 65.8183C57.8686 66.4801 57.9002 67.5245 58.5544 68.1544L58.7908 68.3777V68.3856ZM55.2755 64.5027C55.2755 64.5027 55.2991 64.5346 55.307 64.5426C55.8588 65.2123 56.8361 65.3 57.4982 64.7419C58.1603 64.1838 58.247 63.1951 57.6952 62.5254L57.5061 62.2862L57.4903 62.2702C56.9543 61.6244 56.0085 61.5208 55.3464 62.039C54.6686 62.5732 54.5504 63.5539 55.0785 64.2396L55.2755 64.5027ZM52.375 60.1414C52.375 60.1414 52.3907 60.1733 52.3986 60.1813C52.8242 60.8829 53.7307 61.1062 54.4243 60.6836C55.1179 60.253 55.3386 59.3361 54.9208 58.6345L54.7632 58.3714V58.3554C54.3454 57.6777 53.4706 57.4385 52.7848 57.8372C52.0755 58.2358 51.8311 59.1448 52.2252 59.8624L52.3829 60.1494L52.375 60.1414ZM51.9967 56.2027C52.706 55.8997 53.0371 55.0785 52.7375 54.3609L52.6193 54.0739V54.0579C52.3277 53.3642 51.5474 53.0214 50.8459 53.2925C50.1287 53.5715 49.774 54.3768 50.042 55.1024L50.1602 55.4054C50.1602 55.4054 50.1759 55.4373 50.1759 55.4532C50.4755 56.1708 51.2873 56.5057 51.9967 56.2027ZM49.5848 48.5245C48.8833 48.684 48.4419 49.3856 48.5917 50.0953L48.6626 50.4142C48.6626 50.4142 48.6626 50.4461 48.6705 50.454C48.8518 51.1637 49.5612 51.5862 50.2548 51.4108C50.9562 51.2274 51.374 50.5099 51.2006 49.8082L51.1296 49.5052V49.4893C50.9562 48.8036 50.2705 48.381 49.5848 48.5325V48.5245ZM47.9138 45.2556C47.9138 45.2556 47.9138 45.2875 47.9138 45.2954C47.9848 45.9731 48.5838 46.4675 49.2538 46.4037C49.9237 46.3319 50.4124 45.726 50.3493 45.0483L50.3178 44.7373V44.7214C50.2469 44.0676 49.6794 43.5732 49.0252 43.6211C48.3552 43.6689 47.8508 44.2509 47.8902 44.9366L47.9138 45.2635V45.2556ZM49.0094 41.3009C49.64 41.3328 50.1681 40.8384 50.1996 40.2086L50.2154 39.8976V39.8817C50.2469 39.2677 49.7897 38.7335 49.1749 38.6857C48.5523 38.6379 48.0005 39.1083 47.9533 39.7381L47.9296 40.065C47.9296 40.065 47.9296 40.089 47.9296 40.1049C47.8981 40.7428 48.3868 41.277 49.0094 41.3089V41.3009ZM48.702 34.9224C48.702 34.9224 48.702 34.9463 48.702 34.9543C48.5838 35.5363 48.9621 36.0944 49.5296 36.214C50.105 36.3336 50.6567 35.9509 50.775 35.3768L50.8301 35.0739V35.0579C50.9405 34.4998 50.5937 33.9496 50.042 33.8141C49.4745 33.6786 48.9148 34.0373 48.7808 34.6034L48.7099 34.9224H48.702ZM50.3415 29.676L50.2232 29.979C50.2232 29.979 50.2154 30.0029 50.2154 30.0109C50.0341 30.5212 50.2942 31.0873 50.7986 31.2707C51.303 31.4541 51.8627 31.1909 52.0439 30.6807L52.1464 30.3856C52.3198 29.8833 52.0834 29.3332 51.5947 29.1339C51.0981 28.9345 50.5385 29.1737 50.3336 29.676H50.3415ZM52.7927 26.5745C53.2262 26.8137 53.7622 26.6462 53.9986 26.2077L54.1405 25.9287C54.3691 25.4981 54.2193 24.9639 53.8095 24.7247C53.3917 24.4775 52.8479 24.6211 52.6036 25.0436L52.4459 25.3227C52.4459 25.3227 52.438 25.3386 52.4301 25.3466C52.1937 25.7851 52.3592 26.3273 52.7927 26.5665V26.5745ZM55.512 20.8179L55.3149 21.065C55.3149 21.065 55.2992 21.081 55.2992 21.089C55.0312 21.4478 55.1021 21.958 55.4647 22.2291C55.8194 22.5002 56.3238 22.4285 56.5918 22.0617L56.7731 21.8145C57.0332 21.4557 56.9701 20.9614 56.6312 20.6903C56.2844 20.4112 55.7799 20.4671 55.5041 20.8179H55.512ZM59.7603 18.3542L59.9731 18.1309C60.249 17.8519 60.2568 17.4054 59.9967 17.1183C59.7288 16.8233 59.2716 16.8074 58.98 17.0785L58.7435 17.2937C58.7435 17.2937 58.7278 17.3017 58.7278 17.3097C58.444 17.5967 58.444 18.0592 58.7278 18.3462C59.0115 18.6332 59.4687 18.6332 59.7524 18.3462L59.7603 18.3542ZM62.5662 15.0134C62.7712 15.3005 63.1731 15.3642 63.4569 15.1569L63.7012 14.9736C63.9771 14.7663 64.048 14.3756 63.851 14.0885C63.6539 13.7935 63.2598 13.7218 62.9682 13.9131L62.7081 14.0885C62.7081 14.0885 62.6923 14.0965 62.6923 14.1045C62.4086 14.3118 62.3455 14.7184 62.5505 15.0055L62.5662 15.0134ZM67.0825 11.5451C66.8067 11.6886 66.7042 12.0315 66.8461 12.3026C66.988 12.5816 67.3269 12.6853 67.5949 12.5418L67.8628 12.3982C68.1229 12.2547 68.2333 11.9358 68.1072 11.6647C67.9732 11.3856 67.65 11.2661 67.3742 11.4016L67.0904 11.5371C67.0904 11.5371 67.0747 11.5371 67.0747 11.5451H67.0825ZM72.0875 9.56777L71.788 9.66345C71.788 9.66345 71.7801 9.66345 71.7722 9.66345C71.5279 9.75115 71.3939 10.0222 71.4806 10.2694C71.5673 10.5166 71.8353 10.6521 72.0796 10.5644L72.3713 10.4608C72.6077 10.3731 72.7417 10.1179 72.6629 9.87075C72.5841 9.62358 72.324 9.48007 72.0796 9.5598L72.0875 9.56777ZM76.8166 9.28871L77.1161 9.2329C77.3211 9.19303 77.4551 9.00168 77.4235 8.79438C77.392 8.5791 77.195 8.43559 76.99 8.46748L76.6826 8.51532C76.6826 8.51532 76.6748 8.51532 76.6669 8.51532C76.4541 8.55518 76.3201 8.76248 76.3516 8.96979C76.391 9.18506 76.5959 9.3206 76.8009 9.28871H76.8166ZM81.7034 8.72262L82.0108 8.71465C82.1684 8.71465 82.3024 8.57113 82.3024 8.41167C82.3024 8.24423 82.1684 8.10869 82.0029 8.10869H81.6876C81.6876 8.10869 81.6876 8.10869 81.6797 8.10869C81.5142 8.10869 81.3802 8.26018 81.3881 8.42761C81.3881 8.59505 81.5379 8.73059 81.7034 8.72262ZM86.6296 8.89803L86.937 8.93789C87.0552 8.95384 87.1576 8.86614 87.1734 8.75451C87.1892 8.63491 87.1104 8.52329 86.9921 8.50734L86.6847 8.45951C86.5665 8.44356 86.4562 8.53126 86.4404 8.65883C86.4246 8.77843 86.5113 8.89005 86.6374 8.906L86.6296 8.89803ZM91.4848 9.82291L91.7843 9.90264C91.8552 9.91859 91.9262 9.87872 91.9498 9.81494C91.9735 9.74318 91.9341 9.67142 91.8631 9.6475L91.5636 9.55183C91.4927 9.53588 91.4138 9.57574 91.3981 9.65548C91.3823 9.72723 91.4217 9.80697 91.5005 9.82291H91.4848ZM96.4425 11.593C96.4425 11.593 96.4977 11.5929 96.5055 11.569C96.5213 11.5451 96.5055 11.5132 96.4819 11.5052L96.1981 11.3697C96.1666 11.3538 96.1351 11.3697 96.1272 11.4016C96.1114 11.4335 96.1272 11.4654 96.1587 11.4734L96.4425 11.6009V11.593ZM77.4393 79.851C77.6206 78.7428 76.8876 77.6983 75.792 77.5069H75.7762L75.4531 77.4511H75.4294C74.3733 77.2677 73.3565 77.9694 73.1358 79.0378C72.9151 80.1301 73.6166 81.1985 74.6964 81.4217L75.0511 81.4935C75.0511 81.4935 75.0984 81.5015 75.1142 81.5094C76.2097 81.6928 77.2423 80.9513 77.4314 79.8431L77.4393 79.851ZM71.9378 78.3282C72.2609 77.3076 71.7171 76.2153 70.7082 75.8884H70.6924L70.3772 75.7847H70.3535C69.3762 75.4578 68.3279 75.9761 67.9732 76.9568C67.6106 77.9614 68.1229 79.0697 69.1161 79.4284L69.455 79.556C69.455 79.556 69.4944 79.572 69.518 79.5799C70.5269 79.9068 71.6067 79.3567 71.9299 78.3361L71.9378 78.3282ZM66.6648 76.3747C67.1141 75.4658 66.7515 74.3575 65.853 73.9031H65.8372L65.5456 73.7516H65.5219C64.647 73.3051 63.583 73.6399 63.118 74.509C62.6372 75.402 62.9682 76.5182 63.851 76.9966L64.1663 77.172C64.1663 77.172 64.2057 77.196 64.2214 77.2039C65.12 77.6584 66.2155 77.2916 66.6648 76.3827V76.3747ZM61.7465 73.6399C62.2982 72.8506 62.1091 71.7583 61.3288 71.2002H61.3209L61.0529 71.0008L61.0372 70.9849C60.2805 70.4507 59.2322 70.6102 58.6726 71.3596C58.0972 72.1251 58.247 73.2174 59.0115 73.7994L59.3031 74.0227C59.3031 74.0227 59.3347 74.0466 59.3504 74.0546C60.1307 74.6127 61.2105 74.4213 61.7623 73.632L61.7465 73.6399ZM54.9445 70.1955C54.9445 70.1955 54.9681 70.2274 54.9839 70.2354C55.6381 70.8653 56.6706 70.8414 57.3011 70.1796C57.9238 69.5178 57.9002 68.4733 57.246 67.8355H57.2381L57.0016 67.5963L56.9859 67.5804C56.3553 66.9664 55.3543 66.9744 54.7238 67.5963C54.0775 68.2342 54.0696 69.2786 54.7001 69.9324L54.9524 70.1955H54.9445ZM53.6834 63.8808L53.4784 63.6177V63.6018C52.9582 62.94 52.0282 62.8044 51.3503 63.2988C50.6646 63.8011 50.507 64.7738 51.0035 65.4675L51.2164 65.7625C51.2164 65.7625 51.24 65.7944 51.2479 65.8023C51.7681 66.488 52.7375 66.6076 53.4154 66.0814C54.0932 65.5552 54.2115 64.5745 53.6913 63.8888L53.6834 63.8808ZM48.1897 60.8191C48.1897 60.8191 48.2055 60.851 48.2134 60.859C48.6074 61.5686 49.4902 61.8158 50.1917 61.4171C50.8932 61.0185 51.1375 60.1255 50.7434 59.4159L50.5779 59.1129V59.0969C50.1917 58.4112 49.3405 58.1561 48.6469 58.5149C47.9375 58.8896 47.6616 59.7667 48.0242 60.4843L48.1897 60.8032V60.8191ZM45.9197 55.501C45.9197 55.501 45.9276 55.5329 45.9355 55.5409C46.2035 56.2505 46.9838 56.6093 47.6853 56.3382C48.3868 56.0671 48.7414 55.2778 48.4735 54.5682L48.3552 54.2413V54.2253C48.0872 53.5396 47.3385 53.1809 46.6449 53.4201C45.9355 53.6672 45.5572 54.4406 45.8015 55.1582L45.9197 55.501ZM44.4537 49.9119C44.4537 49.9119 44.4537 49.9438 44.4616 49.9517C44.6113 50.6454 45.2813 51.0839 45.967 50.9324C46.6527 50.7809 47.0863 50.1032 46.9365 49.4096L46.8656 49.0667V49.0508C46.7158 48.381 46.0774 47.9425 45.4074 48.0701C44.7217 48.1977 44.2724 48.8594 44.3907 49.5531L44.4537 49.9119ZM43.8232 44.1792C43.8232 44.1792 43.8232 44.2111 43.8232 44.2191C43.8626 44.8728 44.4222 45.3672 45.0685 45.3273C45.7148 45.2875 46.2035 44.7214 46.1641 44.0676L46.1404 43.7167V43.7008C46.101 43.0709 45.5729 42.5766 44.9424 42.6005C44.2961 42.6164 43.7916 43.1666 43.8074 43.8204V44.1792H43.8232ZM45.037 39.6504C45.6281 39.6983 46.1562 39.2598 46.2035 38.6538L46.235 38.311V38.295C46.2823 37.713 45.8724 37.1947 45.2892 37.123C44.698 37.0512 44.1621 37.4738 44.0911 38.0718L44.0517 38.4305C44.0517 38.4305 44.0517 38.4545 44.0517 38.4704C44.0044 39.0684 44.4379 39.6026 45.037 39.6504ZM45.1158 32.8254C44.9897 33.3596 45.3207 33.9018 45.8488 34.0294C46.3769 34.1569 46.9128 33.8221 47.039 33.2879L47.1178 32.953C47.236 32.4268 46.9365 31.9005 46.4242 31.757C45.904 31.6135 45.3601 31.9245 45.2182 32.4507L45.1237 32.7935C45.1237 32.7935 45.1237 32.8175 45.1158 32.8254ZM47.1335 27.0608L46.9917 27.3877C46.9917 27.3877 46.9838 27.4037 46.9838 27.4196C46.8025 27.8821 47.0232 28.4083 47.4803 28.5997C47.9375 28.783 48.4577 28.5598 48.6469 28.0974L48.773 27.7705C48.9464 27.316 48.7414 26.7977 48.3079 26.6064C47.8587 26.407 47.3306 26.6064 47.1335 27.0688V27.0608ZM49.8922 23.4729C50.2784 23.6962 50.7671 23.5686 50.9878 23.1859L51.1612 22.8829C51.374 22.5002 51.2636 22.0218 50.9011 21.7906C50.5306 21.5514 50.0341 21.663 49.8055 22.0378L49.6163 22.3407C49.6163 22.3407 49.6084 22.3567 49.6006 22.3647C49.3799 22.7554 49.506 23.2497 49.8843 23.4729H49.8922ZM53.0449 18.7768C53.3523 19.0239 53.7937 18.9761 54.0459 18.6731L54.2587 18.402C54.4952 18.099 54.4558 17.6605 54.172 17.4133C53.8804 17.1582 53.4312 17.1901 53.1789 17.4851L52.9504 17.7562C52.9504 17.7562 52.9425 17.7721 52.9346 17.7721C52.6903 18.0831 52.7375 18.5296 53.0371 18.7847L53.0449 18.7768ZM57.7346 14.6626L57.9869 14.4234C58.2312 14.1922 58.2548 13.8175 58.0342 13.5623C57.8135 13.2992 57.4273 13.2753 57.175 13.4906L56.9071 13.7218C56.9071 13.7218 56.8992 13.7298 56.8913 13.7377C56.6391 13.9689 56.6233 14.3676 56.8519 14.6227C57.0805 14.8779 57.4745 14.8938 57.7268 14.6626H57.7346ZM61.9909 11.2421L62.2746 11.0508C62.5032 10.8913 62.5741 10.5724 62.4244 10.3332C62.2746 10.086 61.9514 10.0143 61.7071 10.1658L61.4076 10.3571C61.4076 10.3571 61.3997 10.3571 61.3918 10.3651C61.1554 10.5325 61.0844 10.8594 61.25 11.0986C61.4155 11.3378 61.7386 11.4096 61.9751 11.2421H61.9909ZM66.3338 7.70206C66.1209 7.80571 66.0264 8.06882 66.1288 8.2841C66.2313 8.49937 66.4914 8.59505 66.7042 8.4914L67.0116 8.33991C67.2165 8.23626 67.3111 7.98909 67.2165 7.77381C67.1219 7.55854 66.8697 7.45489 66.6569 7.55057L66.3338 7.69408C66.3338 7.69408 66.3259 7.69408 66.318 7.69408L66.3338 7.70206ZM71.788 6.46622L72.1112 6.36257C72.2846 6.30676 72.3791 6.13135 72.3319 5.94796C72.2846 5.76458 72.1033 5.66093 71.922 5.70877L71.5831 5.79647C71.5831 5.79647 71.5831 5.79647 71.5752 5.79647C71.3939 5.85229 71.2915 6.04364 71.3466 6.22702C71.4018 6.41041 71.591 6.51406 71.7722 6.45825L71.788 6.46622ZM77.124 5.22241L77.463 5.17457C77.5891 5.15862 77.6836 5.03903 77.6679 4.90348C77.6521 4.76794 77.5339 4.67226 77.3999 4.68821L77.0531 4.72807C77.0531 4.72807 77.0531 4.72807 77.0452 4.72807C76.9112 4.75199 76.8166 4.87159 76.8403 5.01511C76.8639 5.15862 76.9822 5.24633 77.124 5.22241ZM82.594 4.79983H82.9408C83.0197 4.79983 83.0906 4.73605 83.0906 4.65632C83.0906 4.57658 83.0275 4.50483 82.9487 4.50483L82.6019 4.48888C82.5152 4.48888 82.4522 4.56064 82.4522 4.64834C82.4522 4.73605 82.5231 4.79983 82.6098 4.79983H82.594ZM88.0798 5.20646L88.4187 5.26227C88.4187 5.26227 88.4739 5.24633 88.4818 5.21444C88.4818 5.18254 88.466 5.15065 88.4345 5.15065L88.0956 5.08687C88.0641 5.08687 88.0325 5.10281 88.0247 5.14268C88.0247 5.17457 88.0404 5.20646 88.0798 5.21444V5.20646ZM74.8304 82.4423C74.791 82.3147 74.7437 82.1951 74.6807 82.0755C74.6176 81.9559 74.5467 81.8523 74.4678 81.7486C74.389 81.645 74.2944 81.5493 74.192 81.4696C73.9949 81.3021 73.7585 81.1666 73.4984 81.0869C73.4353 81.0629 73.3644 81.047 73.3013 81.0311H73.2856L72.9309 80.9513H72.9072C72.7732 80.9194 72.6393 80.9035 72.5131 80.9035C72.119 80.9035 71.7486 81.0151 71.4254 81.2224C71.2126 81.3579 71.0235 81.5334 70.8737 81.7486C70.724 81.9559 70.6136 82.2031 70.5427 82.4662C70.4796 82.7373 70.4717 83.0164 70.5111 83.2795C70.6373 84.0608 71.2205 84.7306 72.0323 84.9299L72.4264 85.0256C72.4264 85.0256 72.4737 85.0336 72.4895 85.0415C72.5604 85.0575 72.6235 85.0655 72.6944 85.0734C73.2383 85.1292 73.7664 84.9538 74.1683 84.6269C74.2708 84.5472 74.3654 84.4515 74.4442 84.3479C74.657 84.0927 74.8068 83.7898 74.8777 83.4389C74.9171 83.2316 74.925 83.0243 74.9092 82.825C74.8935 82.6895 74.8698 82.5619 74.8304 82.4343V82.4423ZM49.1434 65.3399L48.9306 65.0369V65.021C48.6863 64.6941 48.3395 64.4868 47.969 64.415C47.8744 64.3991 47.7799 64.3911 47.6853 64.3911C47.4015 64.3911 47.1178 64.4788 46.8656 64.6462C46.4321 64.9412 46.2035 65.4196 46.2035 65.906C46.2035 66.201 46.2823 66.496 46.4557 66.7591L46.6764 67.094C46.6764 67.094 46.7 67.1259 46.7079 67.1339C46.9523 67.4767 47.3069 67.684 47.6932 67.7478C47.7877 67.7637 47.8823 67.7717 47.9848 67.7637C48.0872 67.7558 48.1818 67.7478 48.2764 67.7239C48.371 67.7 48.4656 67.6681 48.5602 67.6282C48.6547 67.5883 48.7414 67.5325 48.8281 67.4767C49.0804 67.2933 49.2616 67.0382 49.3641 66.7671C49.3956 66.6714 49.4193 66.5837 49.435 66.4801C49.4981 66.0974 49.4114 65.6827 49.1671 65.3399H49.1434ZM43.6892 54.7436L43.6261 54.5522L43.5631 54.3768V54.3609C43.5315 54.2812 43.5 54.2014 43.4606 54.1217C43.3739 53.9782 43.2635 53.8506 43.1374 53.747C43.0113 53.6433 42.8616 53.5715 42.7039 53.5237C42.6251 53.4998 42.5463 53.4838 42.4596 53.4759C42.3808 53.4679 42.2941 53.4679 42.2074 53.4759C42.1207 53.4838 42.0419 53.4998 41.9552 53.5237C41.6951 53.6034 41.4822 53.7549 41.3246 53.9463C41.2694 54.0101 41.2221 54.0818 41.1827 54.1536C41.0251 54.4486 40.9778 54.8074 41.0803 55.1502L41.1906 55.5329C41.1906 55.5329 41.1985 55.5648 41.2064 55.5728C41.435 56.2665 42.1758 56.6332 42.8616 56.402C43.035 56.3462 43.1847 56.2505 43.3108 56.1389C43.6892 55.7961 43.8547 55.2459 43.6813 54.7277L43.6892 54.7436ZM40.4813 44.0676C41.0882 44.0516 41.5611 43.5413 41.5453 42.9274V42.9194V42.5447L41.5374 42.5287C41.5295 42.162 41.3325 41.8351 41.0487 41.6437C40.8753 41.5321 40.6704 41.4603 40.4497 41.4603C40.2211 41.4603 40.0162 41.5241 39.8349 41.6437C39.7167 41.7235 39.6142 41.8271 39.5354 41.9387C39.496 41.9945 39.4645 42.0583 39.433 42.1221C39.3778 42.2577 39.3463 42.4012 39.3463 42.5527V42.9513C39.3463 42.9513 39.3463 42.9752 39.3463 42.9912C39.362 43.4536 39.6458 43.8363 40.0477 43.9958C40.1817 44.0516 40.3236 44.0755 40.4734 44.0676H40.4813ZM41.8212 31.5577C42.2941 31.6932 42.7906 31.4062 42.9167 30.9278L43.0192 30.5531C43.0823 30.3139 43.0507 30.0747 42.9404 29.8754C42.83 29.676 42.6566 29.5245 42.4281 29.4528C42.3098 29.4129 42.1916 29.405 42.0813 29.4129C41.7345 29.4448 41.435 29.684 41.3246 30.0348L41.2064 30.4096C41.2064 30.4096 41.2064 30.4335 41.1985 30.4415C41.0645 30.9198 41.3483 31.4222 41.8212 31.5497V31.5577ZM65.5535 4.0982C65.6323 4.16995 65.7505 4.19387 65.853 4.15401L66.1998 4.00252C66.1998 4.00252 66.2628 3.96265 66.2865 3.93873C66.3338 3.89089 66.3574 3.82711 66.3653 3.75535C66.3653 3.72346 66.3653 3.68359 66.3495 3.6517C66.3259 3.57994 66.2707 3.5321 66.2076 3.50021C66.1446 3.47629 66.0737 3.46832 66.0027 3.50021L65.6402 3.64373C65.6402 3.64373 65.6402 3.64373 65.6323 3.64373C65.5298 3.69157 65.4668 3.79522 65.4668 3.89887C65.4668 3.93873 65.4668 3.97063 65.4904 4.01049C65.514 4.05036 65.5298 4.07428 65.5535 4.0982ZM84.8798 81.6769H84.864L84.5015 81.7167H84.4699C83.2798 81.8363 82.3891 82.8808 82.4679 84.0927C82.5389 85.3365 83.595 86.2774 84.8246 86.1976L85.2266 86.1737C85.2266 86.1737 85.2818 86.1737 85.3054 86.1737C86.535 86.0541 87.4335 84.9538 87.3153 83.718C87.1971 82.4742 86.1094 81.5652 84.8877 81.6848L84.8798 81.6769ZM79.0709 81.8284H79.0551L78.6925 81.8044H78.6689C77.5339 81.7407 76.5487 82.6097 76.4462 83.7579C76.3437 84.9379 77.2107 85.9744 78.3773 86.078L78.7792 86.1099C78.7792 86.1099 78.8265 86.1099 78.8502 86.1099C80.0246 86.1737 81.0256 85.2568 81.0886 84.0768C81.1517 82.8888 80.2452 81.8762 79.0787 81.8124L79.0709 81.8284ZM67.6658 79.5321H67.65L67.3032 79.3966H67.2796C66.318 79.0298 65.2382 79.5082 64.852 80.4809C64.8047 80.6085 64.7653 80.7281 64.7416 80.8556C64.6234 81.4855 64.8283 82.1313 65.2697 82.5778C65.4431 82.7533 65.6559 82.9047 65.9003 83.0004L66.2707 83.1519C66.2707 83.1519 66.3101 83.1679 66.3338 83.1758C66.4599 83.2237 66.586 83.2556 66.7121 83.2715C66.8382 83.2874 66.9643 83.2954 67.0904 83.2875C67.2165 83.2875 67.3348 83.2635 67.4609 83.2316C68.0599 83.0801 68.5801 82.6416 68.8087 82.0117C68.99 81.5094 68.9584 80.9752 68.7456 80.5287C68.5407 80.0743 68.1624 79.7075 67.6658 79.5241V79.5321ZM62.6293 77.3235C62.5347 77.2438 62.4322 77.172 62.3219 77.1162H62.3061L61.983 76.9329H61.9593C61.4234 76.6299 60.8086 76.6299 60.2963 76.885C59.9889 77.0365 59.7209 77.2757 59.5317 77.5946C59.4687 77.7063 59.4135 77.8179 59.3741 77.9295C59.2164 78.3919 59.248 78.8863 59.4529 79.3088C59.5554 79.5241 59.6894 79.7155 59.8706 79.8829C59.9573 79.9626 60.0598 80.0424 60.1623 80.1062L60.5091 80.3135C60.5091 80.3135 60.5248 80.3214 60.5327 80.3294C60.5406 80.3294 60.5485 80.3374 60.5564 80.3454C60.6667 80.4091 60.7771 80.457 60.8953 80.4889C61.0135 80.5287 61.1317 80.5527 61.2421 80.5606C61.3603 80.5766 61.4785 80.5766 61.5968 80.5606C62.18 80.5048 62.7239 80.17 63.0234 79.6118C63.449 78.8305 63.252 77.8817 62.6056 77.3235H62.6293ZM57.3878 73.9031H57.38L57.0883 73.6718L57.0726 73.6559C56.7967 73.4486 56.4814 73.329 56.1583 73.313C55.7327 73.2812 55.2992 73.4167 54.9524 73.7037C54.8657 73.7755 54.7868 73.8552 54.7159 73.9509C54.4164 74.3177 54.2982 74.7801 54.3376 75.2186C54.3454 75.3303 54.3691 75.4339 54.4006 75.5455C54.4952 75.8645 54.6844 76.1595 54.9602 76.3827L55.2676 76.6378C55.2676 76.6378 55.2992 76.6618 55.3149 76.6777C55.4095 76.7495 55.512 76.8133 55.6144 76.8611C55.8194 76.9647 56.04 77.0126 56.2607 77.0285C56.5918 77.0445 56.9228 76.9727 57.2144 76.7973C57.4115 76.6857 57.5849 76.5342 57.7268 76.3428C58.0105 75.9601 58.1209 75.4977 58.0578 75.0592C57.9948 74.6206 57.7741 74.1981 57.3957 73.911L57.3878 73.9031ZM52.9504 69.9723L52.6903 69.7092L52.6745 69.6932C52.5247 69.5338 52.3513 69.4222 52.1622 69.3344C51.973 69.2547 51.776 69.2069 51.571 69.2069C51.3661 69.2069 51.1691 69.2308 50.972 69.3026C50.8774 69.3344 50.7828 69.3823 50.6961 69.4381C50.6094 69.4939 50.5227 69.5577 50.4439 69.6295C50.1996 69.8527 50.042 70.1397 49.9631 70.4427C49.9395 70.5464 49.9237 70.65 49.9158 70.7537C49.9001 71.1683 50.0341 71.5909 50.3336 71.9257L50.6016 72.2207C50.6016 72.2207 50.6252 72.2526 50.641 72.2606C50.8774 72.4998 51.1612 72.6592 51.4686 72.7151C51.8705 72.8028 52.304 72.723 52.6666 72.4918C52.7533 72.436 52.84 72.3642 52.9188 72.2845C52.9976 72.2048 53.0686 72.1171 53.1316 72.0294C53.5494 71.3995 53.4942 70.5384 52.9504 69.9723ZM46.0222 60.3407L45.8488 59.9979V59.9819C45.4941 59.3042 44.6823 59.0252 43.9966 59.3521C43.5631 59.5594 43.2793 59.966 43.2084 60.4205C43.169 60.6916 43.2084 60.9706 43.3266 61.2417L43.5 61.6005C43.5 61.6005 43.5158 61.6324 43.5236 61.6404C43.5709 61.7281 43.6182 61.8078 43.6813 61.8796C43.9729 62.2463 44.4301 62.4377 44.8872 62.4058C45.0685 62.3898 45.2498 62.342 45.4232 62.2543C45.5099 62.2065 45.5887 62.1586 45.6596 62.0948C45.8015 61.9752 45.9197 61.8317 46.0064 61.6723C46.0931 61.5128 46.1483 61.3374 46.172 61.154C46.1956 60.9706 46.1798 60.7872 46.1325 60.6039C46.1089 60.5162 46.0695 60.4205 46.0301 60.3328L46.0222 60.3407ZM41.9788 49.9198C42.0655 49.7923 42.1286 49.6488 42.168 49.4973C42.2074 49.3458 42.2074 49.1783 42.1758 49.0189L42.1128 48.6362V48.6202C42.0103 48.0621 41.5453 47.6555 41.0015 47.6316C40.9226 47.6316 40.8438 47.6316 40.765 47.6395C40.6862 47.6475 40.6074 47.6714 40.5285 47.6953C40.229 47.807 39.9926 48.0302 39.8586 48.3093C39.7561 48.5166 39.7167 48.7558 39.7482 49.0109L39.8034 49.4096C39.8034 49.4096 39.8034 49.4415 39.8034 49.4494C39.8349 49.6169 39.8901 49.7684 39.9768 49.8959C40.1029 50.0953 40.2842 50.2467 40.497 50.3424C40.7098 50.4381 40.9463 50.47 41.1906 50.4301C41.5138 50.3743 41.7896 50.183 41.963 49.9278L41.9788 49.9198ZM40.1423 37.6173C40.2842 37.7449 40.4734 37.8326 40.6783 37.8565C40.7492 37.8645 40.8123 37.8645 40.8832 37.8565C40.9542 37.8485 41.0172 37.8405 41.0724 37.8246C41.3246 37.7528 41.5295 37.5854 41.6635 37.3542C41.7266 37.2426 41.7739 37.115 41.7896 36.9715L41.8369 36.5888C41.8606 36.3735 41.8212 36.1821 41.7423 36.0147C41.6005 35.7356 41.3404 35.5204 41.0093 35.4725C40.4734 35.3848 39.9689 35.7595 39.8822 36.3097L39.8192 36.7004C39.8192 36.7004 39.8192 36.7083 39.8192 36.7163C39.8192 36.7163 39.8192 36.7243 39.8192 36.7323C39.8034 36.8678 39.8192 37.0034 39.8507 37.1309C39.9059 37.3223 40.0083 37.4897 40.1581 37.6173H40.1423ZM43.8626 25.6974C43.9099 25.7214 43.965 25.7373 44.0123 25.7453C44.367 25.825 44.7453 25.6416 44.903 25.2908L45.0527 24.94C45.2261 24.5413 45.0527 24.0869 44.6823 23.8955C44.5877 23.8477 44.4852 23.8238 44.3828 23.8158C44.0754 23.7998 43.7759 23.9673 43.634 24.2623L43.4606 24.6131C43.4606 24.6131 43.4527 24.629 43.4527 24.637C43.4054 24.7407 43.3897 24.8443 43.3818 24.948C43.3818 25.1553 43.4527 25.3546 43.5946 25.5061C43.6655 25.5778 43.7522 25.6416 43.8468 25.6895L43.8626 25.6974ZM46.5897 19.9329C46.637 20.0046 46.7079 20.0764 46.7867 20.1242C46.8261 20.1481 46.8656 20.1721 46.9128 20.188C47.0863 20.2518 47.2675 20.2438 47.4331 20.18C47.5119 20.1481 47.5907 20.0923 47.6537 20.0285C47.6853 19.9966 47.7168 19.9568 47.7404 19.9169L47.9454 19.59C47.969 19.5422 47.9927 19.5023 48.0084 19.4624C48.0242 19.4226 48.04 19.3747 48.04 19.3349C48.0872 19.0797 47.9848 18.8086 47.7562 18.6492C47.638 18.5695 47.5119 18.5296 47.3779 18.5296C47.2912 18.5296 47.2045 18.5455 47.1257 18.5774C47.0863 18.5934 47.0468 18.6173 47.0074 18.6412C46.9365 18.689 46.8656 18.7528 46.8104 18.8326L46.5897 19.1595C46.5897 19.1595 46.5818 19.1754 46.5739 19.1754C46.4951 19.295 46.4636 19.4305 46.4636 19.5661C46.4636 19.6538 46.4872 19.7415 46.5188 19.8212C46.5345 19.8611 46.5582 19.901 46.5818 19.9408L46.5897 19.9329ZM50.507 15.0613C50.57 15.1171 50.6331 15.1569 50.7119 15.1809C50.7907 15.2048 50.8617 15.2128 50.9326 15.2048C51.0035 15.2048 51.0824 15.1809 51.1454 15.149C51.2163 15.1171 51.2794 15.0692 51.3267 15.0055L51.571 14.7104C51.776 14.4713 51.7602 14.1125 51.5316 13.8972C51.4134 13.7856 51.2636 13.7377 51.1218 13.7377C50.9799 13.7377 50.8301 13.8015 50.7198 13.9211L50.4518 14.2081C50.4518 14.2081 50.4439 14.2161 50.436 14.2241C50.4124 14.256 50.3888 14.2879 50.3651 14.3198C50.3099 14.4234 50.2863 14.535 50.2942 14.6467C50.2942 14.6865 50.3021 14.7184 50.3099 14.7583C50.3415 14.8699 50.3966 14.9736 50.4912 15.0533L50.507 15.0613ZM54.9366 10.6202C54.976 10.6681 55.0312 10.7079 55.0863 10.7398C55.1415 10.7717 55.2046 10.7877 55.2597 10.7877C55.3859 10.7956 55.512 10.7637 55.6065 10.676L55.8982 10.4289C55.9455 10.381 55.9849 10.3332 56.0085 10.2774C56.0322 10.2216 56.0558 10.1658 56.0558 10.102C56.0637 9.98238 56.0322 9.8548 55.9533 9.75913C55.9139 9.71129 55.8666 9.66345 55.8115 9.63953C55.646 9.55183 55.441 9.5598 55.2913 9.68737L54.9918 9.93454C54.9918 9.93454 54.9839 9.93454 54.976 9.94251C54.8262 10.0701 54.7711 10.2774 54.8262 10.4608C54.842 10.5245 54.8735 10.5804 54.9208 10.6282L54.9366 10.6202ZM60.2096 7.07218C60.2568 7.08015 60.3041 7.08812 60.3514 7.07218C60.3987 7.05623 60.446 7.04826 60.4933 7.01637L60.8165 6.80906C60.9032 6.75325 60.9583 6.67352 60.982 6.58582C61.0056 6.49811 60.9899 6.39446 60.9426 6.30676C60.8637 6.17121 60.7219 6.10743 60.5721 6.12337C60.5248 6.12337 60.4775 6.14729 60.4302 6.17121L60.0992 6.37054C60.0992 6.37054 60.0992 6.37054 60.0913 6.37054C60.044 6.39446 60.0125 6.43433 59.981 6.47419C59.8943 6.59379 59.8864 6.76123 59.9731 6.89677C60.0283 6.98447 60.115 7.04826 60.2096 7.06421V7.07218ZM71.4885 2.07302C71.4885 2.07302 71.5752 2.10491 71.6146 2.08896L71.9851 1.99329C71.9851 1.99329 72.0245 1.97734 72.0402 1.96139C72.0875 1.92153 72.119 1.85774 72.1033 1.79396C72.1033 1.77004 72.0875 1.75409 72.0796 1.73017C72.056 1.69828 72.0166 1.67436 71.9772 1.66639C71.9535 1.66639 71.9378 1.66639 71.9141 1.66639L71.5358 1.75409C71.4885 1.77004 71.457 1.79396 71.4333 1.83382C71.4097 1.87369 71.4018 1.92153 71.4176 1.96139C71.4333 2.00126 71.457 2.04112 71.4964 2.06504L71.4885 2.07302ZM77.5733 0.916911C77.5733 0.916911 77.6048 0.932858 77.6206 0.932858L77.9989 0.892992C77.9989 0.892992 78.0304 0.885019 78.0383 0.869073C78.0462 0.853126 78.0541 0.845153 78.0541 0.821234C78.0541 0.789341 78.0226 0.757449 77.991 0.765422L77.6048 0.797314C77.5733 0.797314 77.5575 0.821234 77.5497 0.845153C77.5497 0.853126 77.5418 0.861099 77.5497 0.869073C77.5497 0.885019 77.5654 0.900965 77.5733 0.916911ZM84.328 0C84.328 0 88.7892 0.191355 93.8099 1.55476C113.885 7.00839 122.665 31.0315 115.343 49.6567C111.733 58.2996 102.732 64.7658 91.0513 64.2715C91.0513 64.2715 80.8206 64.6223 73.79 57.0877C70.6845 53.7629 68.8008 49.4096 68.7614 44.833C68.722 40.2644 70.4087 35.3449 75.327 31.7491C80.4108 27.898 87.4887 28.8787 92.2336 33.1523C93.802 34.2765 97.341 38.8133 97.3804 44.3068C97.3804 44.3227 97.3725 44.3386 97.3725 44.3546V44.4901C97.3725 44.4901 97.3725 44.5539 97.3883 44.5858C97.3804 45.1599 97.3331 45.7419 97.2385 46.3319C97.1913 46.3638 97.1518 46.4117 97.1361 46.4675L97.1124 46.603C97.0967 46.6668 97.1203 46.7306 97.1597 46.7705C97.0573 47.3126 96.9075 47.8708 96.7183 48.4209C96.6632 48.4289 96.6159 48.4687 96.5922 48.5245L96.5449 48.6521C96.5292 48.7079 96.5449 48.7717 96.5765 48.8116C96.5607 48.8594 96.5449 48.9152 96.5213 48.9631C96.5449 48.9152 96.5607 48.8674 96.5844 48.8196C96.6001 48.8355 96.6238 48.8514 96.6474 48.8674C96.7341 48.8993 96.8287 48.8594 96.8602 48.7717L96.9075 48.6441C96.939 48.5564 96.8917 48.4608 96.805 48.4289C96.7814 48.4289 96.7656 48.4209 96.742 48.4209C96.939 47.9106 97.1124 47.3764 97.2543 46.8422C97.3647 46.8661 97.4671 46.8023 97.4986 46.6907L97.5302 46.5552C97.5538 46.4515 97.4829 46.3479 97.3804 46.316C97.4986 45.7977 97.5854 45.2715 97.6484 44.7373C97.7509 44.7134 97.8297 44.6337 97.8376 44.522V44.3865C97.8376 44.3865 97.8455 44.3865 97.8455 44.3785C97.8455 44.2749 97.7903 44.1872 97.6957 44.1473C97.7272 43.629 97.7351 43.1108 97.7115 42.5846C97.7982 42.5367 97.8612 42.4331 97.8533 42.3294V42.1939C97.8533 42.1939 97.8455 42.1939 97.8455 42.1859C97.8376 42.0743 97.7588 41.9945 97.6642 41.9547C97.6169 41.4603 97.5381 40.958 97.4277 40.4557C97.5223 40.384 97.5696 40.2644 97.5381 40.1448L97.5065 40.0092C97.5065 40.0092 97.5065 40.0092 97.5065 40.0013C97.475 39.8737 97.3725 39.794 97.2543 39.77C97.1361 39.3235 96.9863 38.8691 96.8129 38.4146C96.9233 38.3189 96.9627 38.1674 96.9154 38.0239L96.8681 37.8963C96.8681 37.8963 96.8681 37.8963 96.8681 37.8884C96.805 37.7449 96.6632 37.6651 96.5213 37.6811C96.34 37.2824 96.143 36.8838 95.9144 36.4851C96.0405 36.3655 96.072 36.1741 95.9853 36.0227L95.9144 35.9031C95.9144 35.9031 95.9144 35.9031 95.9144 35.8951C95.8198 35.7356 95.6306 35.6798 95.4651 35.7356C95.2444 35.3928 95.008 35.042 94.7558 34.6991C94.874 34.5476 94.8897 34.3324 94.7715 34.1729L94.6848 34.0613C94.6848 34.0613 94.6848 34.0613 94.6769 34.0533C94.5508 33.9018 94.3459 33.8699 94.1804 33.9496C93.936 33.6467 93.6681 33.3437 93.3922 33.0407C93.471 32.8653 93.4395 32.658 93.2976 32.5224L93.1951 32.4268C93.1951 32.4268 93.1873 32.4268 93.1873 32.4188C93.0533 32.2992 92.8799 32.2833 92.7222 32.3391C92.7065 32.3231 92.6828 32.2992 92.6671 32.2833C92.3833 32.0201 92.0917 31.773 91.7922 31.5418C91.7922 31.3823 91.7291 31.2149 91.5872 31.1192L91.4769 31.0394C91.4769 31.0394 91.469 31.0394 91.4611 31.0315C91.3271 30.9438 91.1695 30.9358 91.0355 30.9916C90.6887 30.7604 90.334 30.5451 89.9636 30.3458C89.9321 30.1943 89.8375 30.0508 89.6877 29.979L89.5616 29.9152C89.5616 29.9152 89.5537 29.9152 89.5458 29.9152C89.3961 29.8514 89.2385 29.8594 89.1045 29.9152C88.734 29.7478 88.3636 29.6043 87.9852 29.4687C87.9301 29.3172 87.804 29.1817 87.6306 29.1339L87.4966 29.094H87.4808C87.3074 29.0462 87.134 29.086 86.9921 29.1897C86.6374 29.094 86.2749 29.0143 85.9123 28.9505C85.8335 28.7751 85.668 28.6475 85.4709 28.6076L85.3369 28.5837C85.3369 28.5837 85.3212 28.5837 85.3133 28.5837C85.1005 28.5598 84.9034 28.6475 84.7773 28.799C84.4542 28.7671 84.1231 28.7512 83.8 28.7432C83.6975 28.5438 83.4926 28.4003 83.2482 28.4003H83.1064C83.1064 28.4003 83.0906 28.4003 83.0827 28.4003C82.8305 28.4003 82.6256 28.5598 82.5231 28.7751C82.2394 28.791 81.9556 28.8229 81.6797 28.8628C81.5458 28.6395 81.2857 28.504 81.0177 28.5438L80.8758 28.5598C80.8758 28.5598 80.86 28.5598 80.8521 28.5598C80.5684 28.6076 80.3635 28.8309 80.3083 29.102C80.064 29.1578 79.8275 29.2136 79.5911 29.2774C79.4177 29.0382 79.1181 28.9186 78.8186 29.0063L78.6846 29.0462C78.6846 29.0462 78.6689 29.0462 78.661 29.0462C78.3615 29.1498 78.1802 29.4289 78.1802 29.7318C77.9753 29.8116 77.7782 29.8913 77.5733 29.979C77.3605 29.7398 77.0137 29.6601 76.7142 29.8036L76.5881 29.8674C76.5881 29.8674 76.5723 29.8674 76.5644 29.8754C76.2649 30.0269 76.123 30.3538 76.1703 30.6727C75.9969 30.7684 75.8314 30.864 75.6659 30.9677C75.4137 30.7524 75.0353 30.7205 74.7437 30.9119L74.6255 30.9916C74.6255 30.9916 74.6097 30.9996 74.6018 31.0076C74.3181 31.2069 74.2156 31.5657 74.3102 31.8846C74.1683 31.9883 74.0343 32.0999 73.9004 32.2115C73.6008 32.0361 73.2146 32.06 72.9466 32.3072L72.8442 32.4029C72.8442 32.4029 72.8284 32.4188 72.8205 32.4188C72.5683 32.666 72.5131 33.0327 72.6393 33.3357C72.5289 33.4473 72.4186 33.5669 72.3082 33.6865C71.9851 33.5749 71.6067 33.6626 71.3703 33.9496L71.2836 34.0613C71.2836 34.0613 71.2678 34.0772 71.2678 34.0852C71.055 34.3642 71.0392 34.731 71.1969 35.018C71.1102 35.1376 71.0235 35.2652 70.9368 35.3928C70.787 35.3689 70.6294 35.3928 70.4875 35.4566C70.4875 35.4566 70.4954 35.4486 70.5033 35.4406L70.5742 35.313C70.7555 35.0021 70.7634 34.6194 70.5584 34.3324C70.1565 33.7583 69.3762 33.8141 69.0451 34.3324L68.9584 34.4679C68.9584 34.4679 68.9505 34.4838 68.9427 34.4918C68.6826 34.9224 68.8244 35.4885 69.2501 35.7436C69.5023 35.8951 69.8018 35.911 70.0619 35.7994C70.0619 35.7994 70.0619 35.8074 70.054 35.8154L69.9831 35.935C69.9831 35.935 69.9752 35.9509 69.9673 35.9589C69.8018 36.2619 69.8333 36.6127 70.0067 36.8838C69.9358 37.0193 69.8648 37.1548 69.8018 37.2904C69.7151 37.2984 69.6284 37.3143 69.5417 37.3542L69.5574 37.3143C69.7624 36.7961 69.5102 36.206 68.9742 36.0306C68.5092 35.8791 68.0126 36.1423 67.8077 36.5888L67.7604 36.6844C67.7604 36.6844 67.7525 36.7083 67.7446 36.7163C67.5476 37.2027 67.7761 37.7608 68.2569 37.9601C68.4934 38.0638 68.7535 38.0558 68.9742 37.9601V37.9841C68.9742 37.9841 68.9584 38.008 68.9505 38.0159C68.8402 38.3269 68.8954 38.6538 69.0845 38.901C69.0294 39.0525 68.9663 39.2039 68.9111 39.3634C68.8875 39.3714 68.8638 39.3794 68.8481 39.3953C68.9427 38.893 68.651 38.3907 68.1545 38.2472C67.8471 38.1595 67.5318 38.2312 67.2953 38.4146C67.2953 38.4146 67.2953 38.3987 67.3032 38.3907L67.3426 38.2312V38.2153C67.5003 37.6731 67.185 37.099 66.6254 36.9555C66.1052 36.82 65.5771 37.1628 65.4116 37.6811L65.3722 37.7927C65.3722 37.7927 65.3722 37.8166 65.3643 37.8246C65.2145 38.3668 65.5219 38.9249 66.05 39.0843C66.3653 39.18 66.6884 39.1003 66.9328 38.9089C66.9328 38.9089 66.9328 38.9169 66.9328 38.9249L66.8934 39.0764C66.8934 39.0764 66.8934 39.1003 66.8855 39.1083C66.7515 39.6425 67.0747 40.1846 67.6027 40.3122C67.8313 40.368 68.052 40.3361 68.249 40.2484C68.2018 40.5195 68.2806 40.7826 68.4303 40.9899C68.4146 41.0537 68.3988 41.1175 68.383 41.1893C68.2491 40.8464 67.9495 40.5833 67.5633 40.5355C67.2875 40.5036 67.0274 40.5753 66.8224 40.7348V40.6869V40.671C66.9013 40.089 66.4835 39.5388 65.8845 39.483C65.3249 39.4272 64.8362 39.8577 64.7416 40.4238L64.7259 40.5434C64.7259 40.5434 64.7259 40.5674 64.7259 40.5753C64.647 41.1574 65.0569 41.6916 65.6323 41.7633C65.916 41.8032 66.1919 41.7155 66.4047 41.556V41.5879C66.4047 41.5879 66.4047 41.6118 66.4047 41.6198C66.3495 42.1859 66.7673 42.6962 67.3269 42.744C67.6422 42.7759 67.9338 42.6563 68.1387 42.441C68.0993 42.6723 68.0599 42.9035 68.0284 43.1427C67.8392 42.9752 67.587 42.8716 67.319 42.8796C67.0747 42.8796 66.854 42.9752 66.6806 43.1188C66.6412 42.5527 66.184 42.0982 65.6086 42.0902C65.2539 42.0902 64.9387 42.2577 64.7337 42.5208C64.7337 42.5128 64.7337 42.5048 64.7337 42.4968V42.3135V42.2975C64.7416 41.6676 64.2372 41.1414 63.6066 41.1574C63.0076 41.1574 62.5426 41.6836 62.5111 42.2896V42.4251C62.5111 42.4251 62.5032 42.449 62.5032 42.465C62.4953 43.0869 62.984 43.6051 63.5988 43.6131C63.9692 43.6131 64.2924 43.4457 64.4973 43.1746C64.4973 43.1746 64.4973 43.1905 64.4973 43.1985V43.3739C64.4973 43.3739 64.4973 43.3978 64.4973 43.4138C64.5052 44.0277 65.0096 44.5061 65.6086 44.4981C65.8687 44.4981 66.0973 44.3945 66.2865 44.243C66.3416 44.8091 66.8303 45.2396 67.3978 45.2077C67.5633 45.1997 67.7131 45.1519 67.8471 45.0722C67.8471 45.1439 67.8392 45.2077 67.8313 45.2795C67.6894 45.2476 67.5476 45.2396 67.3978 45.2635C67.185 45.3034 67.0037 45.3991 66.854 45.5346C66.6884 45.0164 66.1761 44.6655 65.6244 44.7453C65.317 44.7851 65.0648 44.9446 64.8835 45.1758V45.128L64.8756 45.112C64.7889 44.4582 64.1899 44.0038 63.5357 44.1074C62.9209 44.2111 62.5189 44.817 62.5741 45.4469L62.5899 45.5825C62.5899 45.5825 62.5899 45.6144 62.5899 45.6223C62.6766 46.2682 63.2598 46.7226 63.8983 46.6349C64.2135 46.595 64.4894 46.4276 64.6707 46.1884V46.2203C64.6707 46.2203 64.6786 46.2442 64.6786 46.2602C64.781 46.8901 65.3722 47.3047 65.987 47.201C66.2155 47.1611 66.4126 47.0575 66.5702 46.906C66.7436 47.4003 67.2323 47.7033 67.7525 47.6316C67.6027 47.6953 67.4688 47.783 67.3663 47.8947C67.0983 47.4322 66.5545 47.193 66.0185 47.3525C65.7584 47.4322 65.5456 47.5917 65.4037 47.799C65.1988 47.201 64.584 46.8502 63.9692 47.0097C63.583 47.1053 63.2992 47.3844 63.1574 47.7193C63.1574 47.7113 63.1574 47.7033 63.1574 47.6874L63.1101 47.488V47.4721C62.9367 46.7944 62.251 46.3798 61.5652 46.5711C60.9268 46.7545 60.5721 47.4482 60.7061 48.102L60.7376 48.2455C60.7376 48.2455 60.7376 48.2774 60.7455 48.2854C60.911 48.9551 61.581 49.3697 62.251 49.2023C62.6451 49.1066 62.9446 48.8196 63.0943 48.4687C63.0943 48.4687 63.0943 48.4847 63.0943 48.4927L63.1416 48.684C63.1416 48.684 63.1416 48.7159 63.1495 48.7239C63.3387 49.3777 64.0086 49.7524 64.6549 49.5611C64.9308 49.4813 65.1515 49.3059 65.3012 49.0906C65.5219 49.6886 66.1682 50.0076 66.7673 49.8082C66.9643 49.7444 67.1298 49.6248 67.2638 49.4734C67.3426 49.5929 67.4372 49.6966 67.5476 49.7843C67.2953 49.7285 67.0352 49.7524 66.783 49.864C66.5702 49.9677 66.3968 50.1192 66.2707 50.3105C65.9475 49.8003 65.3012 49.577 64.7259 49.8162C64.4106 49.9517 64.182 50.1989 64.0559 50.4939L64.0323 50.4461V50.4301C63.7485 49.7604 62.9761 49.4335 62.2982 49.7444C61.6677 50.0315 61.4076 50.8049 61.6519 51.4587L61.6992 51.5942C61.6992 51.5942 61.7071 51.6261 61.715 51.6341C61.9909 52.3038 62.7475 52.6227 63.4096 52.3437C63.7406 52.2081 63.985 51.945 64.1111 51.6341L64.1268 51.666C64.1268 51.666 64.1426 51.6979 64.1426 51.7058C64.4342 52.3437 65.183 52.6307 65.8214 52.3357C66.0579 52.2241 66.2392 52.0566 66.3653 51.8493C66.6884 52.3277 67.3032 52.5111 67.8392 52.2879C67.6973 52.3995 67.5791 52.535 67.5003 52.6865C67.0825 52.2639 66.4283 52.1683 65.9003 52.4952C65.6402 52.6546 65.4668 52.8859 65.3643 53.149C64.9781 52.5669 64.2135 52.3676 63.5988 52.7184C63.2125 52.9337 62.984 53.3084 62.9288 53.723C62.9288 53.7151 62.9288 53.6991 62.913 53.6911L62.8106 53.4918V53.4759C62.4322 52.7982 61.5731 52.551 60.8953 52.9576C60.2647 53.3403 60.0756 54.1855 60.4066 54.8472L60.4775 54.9987C60.4775 54.9987 60.4933 55.0306 60.5012 55.0386C60.8716 55.7083 61.7071 55.9555 62.3771 55.5808C62.7712 55.3575 63.0155 54.9668 63.0707 54.5443C63.0707 54.5443 63.0707 54.5602 63.0785 54.5682L63.181 54.7595C63.181 54.7595 63.1968 54.7914 63.2047 54.7994C63.5909 55.4452 64.4185 55.6525 65.0569 55.2619C65.3328 55.0944 65.514 54.8473 65.6165 54.5602C66.0264 55.1343 66.8067 55.2937 67.3978 54.9031C67.5949 54.7755 67.7367 54.6001 67.8392 54.4007C67.9574 54.5124 68.0914 54.5921 68.2333 54.6479C67.9495 54.6639 67.6737 54.7595 67.4372 54.9589C67.2323 55.1263 67.0983 55.3496 67.0195 55.5887C66.5229 55.1343 65.7663 55.0785 65.2224 55.509C64.9229 55.7402 64.7416 56.0751 64.6943 56.4259L64.6549 56.3781V56.3621C64.1584 55.7243 63.2283 55.6047 62.5978 56.1309C62.0066 56.6253 61.9436 57.5262 62.3849 58.1641L62.4795 58.2996C62.4795 58.2996 62.5032 58.3315 62.5111 58.3395C62.9918 58.9773 63.8983 59.0969 64.5288 58.6026C64.8441 58.3554 65.0254 58.0126 65.0805 57.6378L65.1042 57.6697C65.1042 57.6697 65.1278 57.6937 65.1357 57.7096C65.6323 58.3156 66.515 58.3953 67.1141 57.901C67.3348 57.7176 67.4845 57.4784 67.5633 57.2232C68.052 57.6378 68.7614 57.6618 69.2737 57.2631C69.1476 57.4226 69.0688 57.598 69.0215 57.7893C68.454 57.4624 67.721 57.5501 67.2481 58.0445C67.0195 58.2916 66.8934 58.5946 66.854 58.9056C66.2707 58.3953 65.3958 58.4033 64.8362 58.9614C64.4894 59.3042 64.3475 59.7746 64.4027 60.2291C64.3948 60.2211 64.3869 60.2132 64.3791 60.1972H64.3712L64.2057 60.0138L64.1899 59.9979C63.5988 59.376 62.6056 59.3601 61.9987 59.9979C61.4312 60.5879 61.4706 61.5527 62.0145 62.1666L62.1406 62.3021C62.1406 62.3021 62.1643 62.3261 62.1721 62.342C62.7554 62.9559 63.7249 62.9719 64.3396 62.3819C64.7022 62.0311 64.852 61.5367 64.7889 61.0663C64.7889 61.0663 64.7968 61.0822 64.8047 61.0902L64.9702 61.2656C64.9702 61.2656 64.9938 61.2895 65.0096 61.3055C65.6086 61.8875 66.5545 61.8636 67.1298 61.2656C67.3742 61.0105 67.5082 60.6836 67.5318 60.3487C68.1308 60.843 69.0136 60.7872 69.5417 60.1972C69.7151 59.9979 69.8175 59.7747 69.8727 59.5355C70.0304 59.6152 70.1959 59.671 70.3693 59.6869C70.0698 59.7826 69.7939 59.974 69.6047 60.253C69.4313 60.4922 69.3525 60.7713 69.3368 61.0504C68.6747 60.7075 67.8471 60.867 67.382 61.4889C67.1298 61.8237 67.0274 62.2383 67.0747 62.629L67.0195 62.5892L67.0037 62.5732C66.2943 62.0231 65.2697 62.1666 64.7416 62.9161C64.2451 63.6177 64.4342 64.6064 65.0963 65.1565L65.2382 65.2681C65.2382 65.2681 65.2697 65.2921 65.2776 65.3C65.9791 65.8422 66.9801 65.7067 67.516 64.9971C67.784 64.6462 67.8865 64.2157 67.8313 63.8091L67.8628 63.833C67.8628 63.833 67.8944 63.8569 67.9023 63.8649C68.6037 64.3672 69.5811 64.1997 70.0776 63.4901C70.2589 63.227 70.3535 62.932 70.3614 62.629C70.9998 62.932 71.7722 62.7566 72.2057 62.1746C72.119 62.3819 72.0796 62.5971 72.0796 62.8124C71.3782 62.6211 70.6136 62.932 70.251 63.6018C70.0698 63.9287 70.0225 64.2954 70.0776 64.6383C69.3131 64.2556 68.3673 64.5266 67.9259 65.2841C67.65 65.7545 67.6343 66.3047 67.8156 66.7751C67.8077 66.7751 67.7919 66.7591 67.784 66.7511H67.7761L67.5476 66.6076H67.5318C66.6963 66.0894 65.6007 66.3924 65.1436 67.3013C64.7495 68.0906 65.0569 69.0634 65.7978 69.5497L65.987 69.6773C65.987 69.6773 66.0185 69.7012 66.0342 69.7092C66.8382 70.1955 67.8865 69.9404 68.3673 69.1192C68.6589 68.6328 68.6747 68.0667 68.4776 67.5804C68.4855 67.5804 68.4934 67.5963 68.5013 67.5963L68.7298 67.7318C68.7298 67.7318 68.7614 67.7558 68.7771 67.7637C69.5811 68.2102 70.5978 67.9152 71.0392 67.102C71.2284 66.7512 71.2757 66.3684 71.2126 66.0017C72.0008 66.3605 72.9309 66.0415 73.325 65.2522C73.459 64.9891 73.5063 64.71 73.4905 64.4389C73.6797 64.4788 73.8767 64.4868 74.0659 64.4629C73.7742 64.6542 73.5299 64.9333 73.4038 65.2921C73.2934 65.603 73.2777 65.9219 73.3407 66.2249C72.5368 66.0415 71.6934 66.4641 71.3703 67.2614C71.189 67.7 71.2048 68.1704 71.3703 68.577L71.2993 68.5451H71.2757C70.3377 68.1464 69.2501 68.6328 68.919 69.6374C68.6353 70.5145 69.1003 71.4713 69.9358 71.854L70.1407 71.9496C70.1407 71.9496 70.1801 71.9656 70.1959 71.9736C71.1023 72.3563 72.1427 71.9177 72.5131 71.0008C72.7023 70.5464 72.6865 70.052 72.5131 69.6295L72.5604 69.6454C72.5604 69.6454 72.5998 69.6613 72.6156 69.6693C73.5141 70.0042 74.5072 69.5417 74.8462 68.6328C74.9723 68.2979 74.9802 67.9471 74.9092 67.6282C75.6816 67.7717 76.4541 67.3491 76.7615 66.6076C76.7299 66.8548 76.7457 67.102 76.8088 67.3252C76.0048 67.3252 75.2718 67.8833 75.0669 68.7046C74.9723 69.1112 75.0196 69.5099 75.1772 69.8687C74.2471 69.6853 73.3092 70.2434 73.0491 71.1842C72.8836 71.7663 73.0255 72.3642 73.3565 72.8107C73.3407 72.8107 73.3329 72.7948 73.3171 72.7948H73.3013L73.0176 72.7071H72.9939C71.9535 72.3961 70.8579 73.042 70.6294 74.1502C70.4323 75.115 71.0392 76.0638 71.9693 76.3747L72.2057 76.4545C72.2057 76.4545 72.2452 76.4704 72.2688 76.4704C73.2698 76.7654 74.3181 76.1754 74.6097 75.1628C74.7831 74.5569 74.6412 73.9429 74.2866 73.4725C74.2944 73.4725 74.3102 73.4805 74.3181 73.4885L74.6018 73.5682C74.6018 73.5682 74.6412 73.5762 74.6649 73.5841C75.658 73.8313 76.659 73.2174 76.9033 72.2128C77.0058 71.7822 76.9506 71.3596 76.7772 70.9849C77.7231 71.1444 78.6295 70.5224 78.8344 69.5657C78.8974 69.2467 78.8738 68.9358 78.7792 68.6488C78.9999 68.6408 79.2048 68.5929 79.4019 68.5052C79.1418 68.8002 78.9605 69.167 78.929 69.5896C78.8974 69.9564 78.9684 70.3072 79.126 70.6102C78.2117 70.65 77.4235 71.3437 77.3053 72.3005C77.2423 72.8187 77.3841 73.321 77.6758 73.7117H77.5969L77.5733 73.6958C76.4541 73.5522 75.4215 74.3894 75.3585 75.5615C75.3033 76.59 76.0757 77.475 77.0846 77.6425L77.329 77.6823C77.329 77.6823 77.3763 77.6823 77.392 77.6903C78.4718 77.8338 79.4649 77.0604 79.6068 75.9681C79.6778 75.4259 79.5201 74.8997 79.2206 74.501H79.2758C79.2758 74.501 79.3231 74.517 79.3388 74.517C80.395 74.6206 81.3408 73.8313 81.4354 72.7629C81.4748 72.3642 81.3881 71.9895 81.2147 71.6626C82.0817 71.5909 82.799 70.9131 82.9093 70.0281C82.9408 70.3072 83.0275 70.5623 83.1615 70.7856C82.2945 71.0248 81.6719 71.83 81.6876 72.7709C81.6955 73.2333 81.8689 73.6559 82.129 73.9908C81.0728 74.0625 80.2374 74.9396 80.2216 76.0239C80.2137 76.7016 80.529 77.2916 81.0098 77.6823C80.994 77.6823 80.9783 77.6823 80.9625 77.6823H80.9467H80.6236H80.5999C79.4019 77.6584 78.4088 78.671 78.4718 79.9228C78.5349 81.0151 79.4571 81.8603 80.5369 81.9161L80.8127 81.932C80.8127 81.932 80.86 81.932 80.8837 81.932C82.0423 81.9559 83.0039 81.0231 83.0197 79.851C83.0354 79.1574 82.7123 78.5355 82.2078 78.1368C82.2157 78.1368 82.2236 78.1368 82.2394 78.1368H82.5704C82.5704 78.1368 82.6177 78.1368 82.6413 78.1368C83.7763 78.1129 84.6827 77.1641 84.6591 76.0159C84.6512 75.5216 84.4621 75.0831 84.1783 74.7323C85.2345 74.6286 86.0384 73.7037 85.9832 72.6114C85.9675 72.2526 85.8493 71.9257 85.668 71.6387C85.8965 71.5669 86.1094 71.4473 86.2985 71.3038C86.1015 71.6945 86.0148 72.141 86.0936 72.6034C86.1645 73.0021 86.3379 73.3529 86.5823 73.6399C85.6128 73.9509 84.9744 74.9316 85.1162 75.984C85.1951 76.5661 85.4946 77.0525 85.9123 77.3873H85.8256L85.7941 77.4033C84.5566 77.5707 83.6817 78.7667 83.9497 80.0583C84.1783 81.1746 85.266 81.9001 86.3931 81.7885L86.669 81.7646C86.669 81.7646 86.7241 81.7646 86.7399 81.7566C87.938 81.5971 88.7813 80.4809 88.6237 79.269C88.5449 78.663 88.2296 78.1448 87.7882 77.8019H87.8434C87.8434 77.8019 87.8907 77.786 87.9143 77.786C89.0808 77.5867 89.8611 76.4704 89.6641 75.2904C89.5931 74.8598 89.3961 74.4771 89.1202 74.1821C90.0109 73.8552 90.5863 72.9543 90.4838 71.9895C90.5941 72.2526 90.7597 72.4759 90.9488 72.6672C90.0976 73.1775 89.6562 74.222 89.9399 75.2266C90.0818 75.7209 90.3734 76.1196 90.7518 76.3987C89.6483 76.7893 89.002 77.9694 89.2936 79.1334C89.4749 79.859 89.9715 80.4091 90.602 80.6802C90.5863 80.6802 90.5784 80.6802 90.5626 80.6802H90.5468L90.1922 80.7759H90.1606C88.868 81.1108 88.0877 82.4822 88.5212 83.8057C88.8995 84.9618 90.1291 85.5997 91.3035 85.3445L91.603 85.2807C91.603 85.2807 91.6582 85.2648 91.6818 85.2648C92.9351 84.9538 93.6917 83.6702 93.3843 82.4024C93.203 81.653 92.6749 81.0789 92.0286 80.7998C92.0365 80.7998 92.0523 80.7998 92.0602 80.7998L92.4148 80.7121C92.4148 80.7121 92.47 80.6962 92.4858 80.6882C93.6996 80.3374 94.4011 79.0537 94.0464 77.8258C93.8966 77.3076 93.5814 76.877 93.1794 76.59C94.275 76.1674 94.8661 74.9396 94.4957 73.7914C94.3695 73.4087 94.1567 73.0898 93.8888 72.8347C94.1095 72.6911 94.2986 72.5157 94.4484 72.3084C94.3538 72.7788 94.3932 73.2812 94.606 73.7516C94.7952 74.1582 95.0789 74.4851 95.4257 74.7163C94.472 75.3303 94.07 76.5661 94.5193 77.6584C94.7636 78.2564 95.2287 78.6949 95.7725 78.9341L95.6779 78.974L95.6464 78.9899C94.409 79.5082 93.8178 80.9593 94.3459 82.227C94.874 83.4948 96.2927 83.9971 97.5302 83.5266L97.8218 83.415C97.8218 83.415 97.877 83.3911 97.9006 83.3831C97.9322 83.3672 97.9558 83.3592 97.9873 83.3433C99.0514 83.136 123.462 74.5808 125.227 45.3353C125.708 29.1339 115.737 2.36802 84.2965 0.0398657L84.328 0ZM68.3988 51.8493C68.454 51.9052 68.5092 51.953 68.5643 51.9929C68.4382 52.0008 68.3121 52.0248 68.186 52.0726C68.2648 52.0088 68.3358 51.9291 68.3988 51.8493ZM69.0845 54.8233C68.9978 54.7675 68.9111 54.7276 68.8244 54.6958C68.9505 54.6958 69.0845 54.6639 69.2106 54.6081C69.1633 54.6798 69.1239 54.7516 69.0924 54.8233H69.0845ZM69.7387 56.6412C69.8097 56.6811 69.8806 56.7209 69.9594 56.7449C69.8254 56.7927 69.6914 56.8565 69.5811 56.9442C69.652 56.8485 69.6993 56.7449 69.7387 56.6412ZM72.8127 61.441C72.6787 61.5287 72.5604 61.6324 72.458 61.76C72.5053 61.6404 72.5289 61.5128 72.5447 61.3932C72.6314 61.4171 72.726 61.4331 72.8127 61.441ZM74.3811 60.1095C74.3811 60.0218 74.389 59.9421 74.3811 59.8624C74.4127 59.9182 74.4363 59.982 74.4678 60.0457C74.4363 60.0697 74.4048 60.0936 74.3733 60.1175L74.3811 60.1095ZM75.5161 62.8762C75.5161 62.8762 75.4688 62.94 75.4373 62.9719C75.4373 62.94 75.4373 62.9081 75.4373 62.8762C75.461 62.8762 75.4846 62.8762 75.5082 62.8762H75.5161ZM80.3635 67.6521C80.3792 67.7318 80.4029 67.8116 80.4265 67.8913C80.2925 67.9232 80.1664 67.9631 80.0482 68.0189C80.1507 67.9073 80.2295 67.7717 80.3004 67.6362C80.3241 67.6362 80.3398 67.6521 80.3635 67.6601V67.6521ZM83.1221 68.8879C83.0354 69.0634 82.9724 69.2547 82.9408 69.454C82.9172 69.2946 82.8699 69.1511 82.8069 69.0075C82.9172 68.9757 83.0197 68.9438 83.1221 68.8879ZM87.0237 70.0281C87.0788 70.1477 87.1419 70.2514 87.2128 70.355C87.0788 70.4268 86.9527 70.5065 86.8424 70.6022C86.9291 70.4268 86.9921 70.2274 87.0237 70.0281ZM90.3813 70.658C90.3419 70.8653 90.334 71.0885 90.3577 71.3038C90.2867 71.1444 90.2 70.9929 90.0976 70.8653C90.2 70.8015 90.3025 70.7377 90.3892 70.658H90.3813ZM91.0828 69.3185C91.0828 69.3185 91.1222 69.3663 91.138 69.3823C91.1143 69.3982 91.0986 69.4142 91.0749 69.4381C91.0749 69.3982 91.0749 69.3584 91.0749 69.3185H91.0828ZM68.2412 49.9677C68.2412 50.0155 68.2569 50.0554 68.2648 50.1032C68.2648 50.1032 68.2648 50.1112 68.2569 50.1192C68.1939 50.0554 68.1308 49.9916 68.0599 49.9438C68.1229 49.9597 68.186 49.9677 68.249 49.9677H68.2412ZM71.0156 59.5753C71.1496 59.5275 71.2836 59.4637 71.4018 59.376C71.3703 59.4637 71.3466 59.5514 71.3309 59.6471C71.2284 59.6152 71.118 59.5913 71.0156 59.5833V59.5753ZM73.79 61.1779C73.79 61.1779 73.8373 61.1301 73.8609 61.1141C73.8609 61.1381 73.8531 61.162 73.8531 61.1859C73.8294 61.1859 73.8137 61.1859 73.79 61.1779ZM75.1063 63.841C75.0984 63.9446 75.0984 64.0483 75.1063 64.1519C74.988 64.1519 74.8619 64.1519 74.7437 64.1758C74.8777 64.0881 74.9959 63.9765 75.0984 63.8489L75.1063 63.841ZM94.3223 69.462C94.3223 69.462 94.3617 69.4221 94.3853 69.4062C94.3853 69.454 94.3853 69.5019 94.3932 69.5497C94.3695 69.5178 94.3459 69.4939 94.3144 69.462H94.3223ZM94.8897 71.3756C94.9292 71.1683 94.937 70.961 94.9134 70.7457C95.0001 70.8493 95.0947 70.945 95.1971 71.0247C95.0789 71.1284 94.9764 71.248 94.8897 71.3756ZM95.7568 50.4939L95.6937 50.6135C95.6937 50.6135 95.6937 50.6374 95.6937 50.6454C94.9686 51.9211 94.0937 53.0692 93.1557 54.042C93.6838 53.5078 94.141 52.9656 94.5587 52.4154C94.5272 52.4553 94.5351 52.5111 94.5745 52.543C94.6139 52.5749 94.6769 52.5669 94.7085 52.5271L94.7952 52.4234C94.8267 52.3835 94.8188 52.3198 94.7715 52.2879C94.7321 52.256 94.6769 52.264 94.6454 52.3038C95.0395 51.7776 95.3942 51.2434 95.6937 50.7092C95.7016 50.7411 95.7173 50.765 95.7489 50.7809C95.8119 50.8208 95.8907 50.7969 95.9223 50.7331L95.9932 50.6135C96.0247 50.5497 96.0011 50.47 95.938 50.4301C95.9065 50.4142 95.8829 50.4142 95.8513 50.4222C96.1114 49.9358 96.34 49.4494 96.5371 48.9631C96.3164 49.4734 96.072 49.9597 95.8119 50.4381C95.7962 50.454 95.7725 50.462 95.7646 50.4859L95.7568 50.4939ZM93.2503 53.9463L93.1557 54.042C93.1557 54.042 93.1321 54.0978 93.1557 54.1217C93.1794 54.1456 93.2109 54.1456 93.2346 54.1217L93.3291 54.026C93.3528 54.0021 93.3528 53.9622 93.3291 53.9383C93.3055 53.9144 93.2661 53.9144 93.2424 53.9383L93.2503 53.9463ZM14.3135 147.503V151.697H12.8238V142.121H19.3579C20.3273 142.121 21.084 142.36 21.6357 142.831C22.1874 143.301 22.4554 143.955 22.4554 144.8C22.4554 145.478 22.2347 146.068 21.8091 146.57C21.3756 147.065 20.8081 147.376 20.1145 147.487L22.7471 151.697H21.1392L18.4514 147.503H14.3213H14.3135ZM14.3135 146.1H19.3579C19.8702 146.1 20.2564 145.988 20.5323 145.765C20.8002 145.542 20.9342 145.215 20.9342 144.8C20.9342 144.386 20.8002 144.059 20.5323 143.836C20.2643 143.612 19.8702 143.501 19.3579 143.501H14.3135V146.1ZM31.6378 151.697V142.097H40.5364V143.501H33.1275V145.893H37.9906V147.272H33.1275V150.31H40.9463V151.689H31.6378V151.697ZM48.7493 150.469L49.4745 149.209C50.1287 149.648 50.838 149.999 51.6104 150.246C52.3829 150.493 53.1159 150.621 53.8174 150.621C54.6607 150.621 55.3464 150.445 55.8588 150.094C56.379 149.744 56.6391 149.297 56.6391 148.755C56.6391 148.213 56.4026 147.798 55.9297 147.535C55.4568 147.272 54.708 147.12 53.6834 147.089C51.9572 147.065 50.775 146.865 50.1286 146.483C49.4823 146.1 49.1592 145.47 49.1592 144.585C49.1592 143.764 49.5139 143.094 50.2232 142.6C50.9326 142.097 51.8784 141.85 53.0765 141.85C53.8883 141.85 54.6844 141.97 55.4489 142.201C56.2134 142.432 56.9543 142.775 57.6637 143.238L56.9228 144.481C56.3317 144.075 55.6932 143.764 55.0154 143.54C54.3376 143.317 53.6834 143.206 53.0607 143.206C52.3435 143.206 51.7681 143.333 51.3267 143.588C50.8853 143.843 50.6725 144.178 50.6725 144.585C50.6725 144.992 50.8932 145.319 51.3346 145.494C51.776 145.677 52.5405 145.765 53.6282 145.765C55.1415 145.765 56.2765 146.02 57.0489 146.538C57.8213 147.057 58.2076 147.822 58.2076 148.843C58.2076 149.752 57.8135 150.501 57.0332 151.099C56.2529 151.697 55.2361 152 53.9986 152C53.0844 152 52.1701 151.864 51.2636 151.601C50.3572 151.338 49.5217 150.956 48.773 150.469H48.7493ZM67.3505 151.697V142.081H68.8638V151.697H67.3505ZM82.862 142.097C84.4069 142.097 85.6601 142.544 86.6059 143.437C87.5517 144.33 88.0247 145.494 88.0247 146.929C88.0247 148.364 87.5596 149.528 86.6296 150.397C85.6995 151.266 84.4463 151.697 82.862 151.697H78.6531V142.097H82.862ZM82.8857 143.477H80.1428V150.31H82.8857C84.0128 150.31 84.8955 150.007 85.5419 149.393C86.1882 148.779 86.5113 147.95 86.5113 146.905C86.5113 145.861 86.1803 145.071 85.5103 144.433C84.8404 143.796 83.9734 143.477 82.8857 143.477ZM96.876 151.689V142.089H105.775V143.493H98.3657V145.885H103.229V147.264H98.3657V150.302H106.184V151.681H96.876V151.689ZM114.823 151.689V142.089H115.603L121.633 148.835V142.089H123.091V151.689H122.311L116.289 144.968V151.689H114.823ZM142.875 149.337C142.331 150.198 141.621 150.852 140.746 151.306C139.872 151.761 138.871 151.984 137.751 151.984C136.088 151.984 134.717 151.506 133.637 150.549C132.557 149.592 132.021 148.38 132.021 146.913C132.021 145.446 132.557 144.226 133.637 143.269C134.717 142.305 136.088 141.826 137.751 141.826C138.792 141.826 139.73 142.026 140.573 142.416C141.416 142.807 142.102 143.365 142.614 144.083L141.44 144.912C141.046 144.362 140.534 143.947 139.887 143.644C139.249 143.349 138.532 143.198 137.751 143.198C136.538 143.198 135.529 143.548 134.733 144.25C133.937 144.952 133.542 145.829 133.542 146.881C133.542 147.934 133.944 148.819 134.74 149.512C135.537 150.214 136.545 150.565 137.751 150.565C138.595 150.565 139.343 150.397 139.982 150.063C140.62 149.728 141.196 149.201 141.684 148.492L142.875 149.321V149.337ZM151.868 151.689V142.089H160.766V143.493H153.357V145.885H158.221V147.264H153.357V150.302H161.176V151.681H151.868V151.689Z" fill="#041946"/>
</svg>
