<svg width="43" height="17" viewBox="0 0 43 17" fill="none" xmlns="http://www.w3.org/2000/svg">
<path d="M2 7.5L1 7.5L1 9.5L2 9.5L2 7.5ZM42.7071 9.2071C43.0976 8.81658 43.0976 8.18341 42.7071 7.79289L36.3431 1.42893C35.9526 1.0384 35.3195 1.0384 34.9289 1.42893C34.5384 1.81945 34.5384 2.45262 34.9289 2.84314L40.5858 8.5L34.9289 14.1569C34.5384 14.5474 34.5384 15.1805 34.9289 15.5711C35.3195 15.9616 35.9526 15.9616 36.3431 15.5711L42.7071 9.2071ZM2 9.5L42 9.5L42 7.5L2 7.5L2 9.5Z" fill="black"/>
</svg>
