<svg width="42" height="42" viewBox="0 0 42 42" fill="none" xmlns="http://www.w3.org/2000/svg">
<path d="M17.5048 21.0543C17.5048 19.1196 19.0722 17.5509 21.0063 17.5509C22.9404 17.5509 24.5087 19.1196 24.5087 21.0543C24.5087 22.9889 22.9404 24.5576 21.0063 24.5576C19.0722 24.5576 17.5048 22.9889 17.5048 21.0543ZM15.6114 21.0543C15.6114 24.0347 18.0267 26.4507 21.0063 26.4507C23.9859 26.4507 26.4012 24.0347 26.4012 21.0543C26.4012 18.0738 23.9859 15.6578 21.0063 15.6578C18.0267 15.6578 15.6114 18.0738 15.6114 21.0543ZM25.354 15.4439C25.3539 15.6933 25.4277 15.9371 25.5662 16.1446C25.7046 16.352 25.9015 16.5138 26.1318 16.6093C26.3621 16.7048 26.6156 16.7299 26.8602 16.6814C27.1048 16.6328 27.3295 16.5128 27.5059 16.3365C27.6823 16.1602 27.8024 15.9355 27.8512 15.6909C27.8999 15.4463 27.875 15.1927 27.7797 14.9622C27.6844 14.7318 27.5229 14.5347 27.3156 14.3961C27.1083 14.2574 26.8646 14.1834 26.6152 14.1833H26.6147C26.2805 14.1834 25.96 14.3163 25.7236 14.5526C25.4872 14.789 25.3543 15.1095 25.354 15.4439ZM16.7618 29.6086C15.7374 29.5619 15.1807 29.3913 14.8107 29.2471C14.3202 29.0561 13.9702 28.8286 13.6022 28.461C13.2342 28.0934 13.0065 27.7437 12.8163 27.253C12.6721 26.8831 12.5015 26.326 12.4549 25.3014C12.404 24.1936 12.3938 23.8608 12.3938 21.0543C12.3938 18.2478 12.4048 17.916 12.4549 16.8073C12.5016 15.7827 12.6735 15.2267 12.8163 14.8557C13.0073 14.365 13.2347 14.0149 13.6022 13.6469C13.9697 13.2788 14.3193 13.0509 14.8107 12.8608C15.1805 12.7165 15.7374 12.5458 16.7618 12.4992C17.8692 12.4483 18.2019 12.4381 21.0063 12.4381C23.8107 12.4381 24.1437 12.4491 25.2521 12.4992C26.2764 12.5459 26.8323 12.7178 27.2032 12.8608C27.6937 13.0509 28.0437 13.2793 28.4116 13.6469C28.7796 14.0144 29.0066 14.365 29.1975 14.8557C29.3417 15.2256 29.5124 15.7827 29.5589 16.8073C29.6099 17.916 29.62 18.2478 29.62 21.0543C29.62 23.8608 29.6099 24.1927 29.5589 25.3014C29.5123 26.326 29.3408 26.8829 29.1975 27.253C29.0066 27.7437 28.7791 28.0937 28.4116 28.461C28.0442 28.8282 27.6937 29.0561 27.2032 29.2471C26.8333 29.3914 26.2764 29.562 25.2521 29.6086C24.1447 29.6596 23.812 29.6697 21.0063 29.6697C18.2006 29.6697 17.8689 29.6596 16.7618 29.6086ZM16.6748 10.6086C15.5563 10.6595 14.792 10.8369 14.1246 11.0967C13.4334 11.365 12.8482 11.7249 12.2635 12.3089C11.6787 12.8929 11.3198 13.4791 11.0516 14.1706C10.7919 14.8386 10.6146 15.6027 10.5636 16.7215C10.5119 17.842 10.5 18.2003 10.5 21.0543C10.5 23.9083 10.5119 24.2665 10.5636 25.387C10.6146 26.5059 10.7919 27.2699 11.0516 27.938C11.3198 28.629 11.6788 29.2159 12.2635 29.7996C12.8481 30.3834 13.4334 30.7428 14.1246 31.0118C14.7933 31.2716 15.5563 31.449 16.6748 31.4999C17.7956 31.5509 18.1531 31.5636 21.0063 31.5636C23.8595 31.5636 24.2176 31.5517 25.3378 31.4999C26.4564 31.449 27.2201 31.2716 27.888 31.0118C28.5788 30.7428 29.1644 30.3836 29.7491 29.7996C30.3339 29.2156 30.692 28.629 30.961 27.938C31.2207 27.2699 31.3989 26.5058 31.449 25.387C31.4999 24.2657 31.5118 23.9083 31.5118 21.0543C31.5118 18.2003 31.4999 17.842 31.449 16.7215C31.398 15.6026 31.2207 14.8382 30.961 14.1706C30.692 13.4795 30.333 12.8938 29.7491 12.3089C29.1653 11.724 28.5788 11.365 27.8889 11.0967C27.2201 10.8369 26.4563 10.6587 25.3387 10.6086C24.2185 10.5576 23.8603 10.5449 21.0071 10.5449C18.154 10.5449 17.7956 10.5568 16.6748 10.6086Z" fill="black"/>
<path d="M17.5048 21.0543C17.5048 19.1196 19.0722 17.5509 21.0063 17.5509C22.9404 17.5509 24.5087 19.1196 24.5087 21.0543C24.5087 22.9889 22.9404 24.5576 21.0063 24.5576C19.0722 24.5576 17.5048 22.9889 17.5048 21.0543ZM15.6114 21.0543C15.6114 24.0347 18.0267 26.4507 21.0063 26.4507C23.9859 26.4507 26.4012 24.0347 26.4012 21.0543C26.4012 18.0738 23.9859 15.6578 21.0063 15.6578C18.0267 15.6578 15.6114 18.0738 15.6114 21.0543ZM25.354 15.4439C25.3539 15.6933 25.4277 15.9371 25.5662 16.1446C25.7046 16.352 25.9015 16.5138 26.1318 16.6093C26.3621 16.7048 26.6156 16.7299 26.8602 16.6814C27.1048 16.6328 27.3295 16.5128 27.5059 16.3365C27.6823 16.1602 27.8024 15.9355 27.8512 15.6909C27.8999 15.4463 27.875 15.1927 27.7797 14.9622C27.6844 14.7318 27.5229 14.5347 27.3156 14.3961C27.1083 14.2574 26.8646 14.1834 26.6152 14.1833H26.6147C26.2805 14.1834 25.96 14.3163 25.7236 14.5526C25.4872 14.789 25.3543 15.1095 25.354 15.4439ZM16.7618 29.6086C15.7374 29.5619 15.1807 29.3913 14.8107 29.2471C14.3202 29.0561 13.9702 28.8286 13.6022 28.461C13.2342 28.0934 13.0065 27.7437 12.8163 27.253C12.6721 26.8831 12.5015 26.326 12.4549 25.3014C12.404 24.1936 12.3938 23.8608 12.3938 21.0543C12.3938 18.2478 12.4048 17.916 12.4549 16.8073C12.5016 15.7827 12.6735 15.2267 12.8163 14.8557C13.0073 14.365 13.2347 14.0149 13.6022 13.6469C13.9697 13.2788 14.3193 13.0509 14.8107 12.8608C15.1805 12.7165 15.7374 12.5458 16.7618 12.4992C17.8692 12.4483 18.2019 12.4381 21.0063 12.4381C23.8107 12.4381 24.1437 12.4491 25.2521 12.4992C26.2764 12.5459 26.8323 12.7178 27.2032 12.8608C27.6937 13.0509 28.0437 13.2793 28.4116 13.6469C28.7796 14.0144 29.0066 14.365 29.1975 14.8557C29.3417 15.2256 29.5124 15.7827 29.5589 16.8073C29.6099 17.916 29.62 18.2478 29.62 21.0543C29.62 23.8608 29.6099 24.1927 29.5589 25.3014C29.5123 26.326 29.3408 26.8829 29.1975 27.253C29.0066 27.7437 28.7791 28.0937 28.4116 28.461C28.0442 28.8282 27.6937 29.0561 27.2032 29.2471C26.8333 29.3914 26.2764 29.562 25.2521 29.6086C24.1447 29.6596 23.812 29.6697 21.0063 29.6697C18.2006 29.6697 17.8689 29.6596 16.7618 29.6086ZM16.6748 10.6086C15.5563 10.6595 14.792 10.8369 14.1246 11.0967C13.4334 11.365 12.8482 11.7249 12.2635 12.3089C11.6787 12.8929 11.3198 13.4791 11.0516 14.1706C10.7919 14.8386 10.6146 15.6027 10.5636 16.7215C10.5119 17.842 10.5 18.2003 10.5 21.0543C10.5 23.9083 10.5119 24.2665 10.5636 25.387C10.6146 26.5059 10.7919 27.2699 11.0516 27.938C11.3198 28.629 11.6788 29.2159 12.2635 29.7996C12.8481 30.3834 13.4334 30.7428 14.1246 31.0118C14.7933 31.2716 15.5563 31.449 16.6748 31.4999C17.7956 31.5509 18.1531 31.5636 21.0063 31.5636C23.8595 31.5636 24.2176 31.5517 25.3378 31.4999C26.4564 31.449 27.2201 31.2716 27.888 31.0118C28.5788 30.7428 29.1644 30.3836 29.7491 29.7996C30.3339 29.2156 30.692 28.629 30.961 27.938C31.2207 27.2699 31.3989 26.5058 31.449 25.387C31.4999 24.2657 31.5118 23.9083 31.5118 21.0543C31.5118 18.2003 31.4999 17.842 31.449 16.7215C31.398 15.6026 31.2207 14.8382 30.961 14.1706C30.692 13.4795 30.333 12.8938 29.7491 12.3089C29.1653 11.724 28.5788 11.365 27.8889 11.0967C27.2201 10.8369 26.4563 10.6587 25.3387 10.6086C24.2185 10.5576 23.8603 10.5449 21.0071 10.5449C18.154 10.5449 17.7956 10.5568 16.6748 10.6086Z" fill="black"/>
</svg>
