<svg width="56" height="80" viewBox="0 0 56 80" fill="none" xmlns="http://www.w3.org/2000/svg">
<path d="M28 0C12.52 0 0 12.52 0 28C0 49 28 80 28 80C28 80 56 49 56 28C56 12.52 43.48 0 28 0ZM28 38C25.3478 38 22.8043 36.9464 20.9289 35.0711C19.0536 33.1957 18 30.6522 18 28C18 25.3478 19.0536 22.8043 20.9289 20.9289C22.8043 19.0536 25.3478 18 28 18C30.6522 18 33.1957 19.0536 35.0711 20.9289C36.9464 22.8043 38 25.3478 38 28C38 30.6522 36.9464 33.1957 35.0711 35.0711C33.1957 36.9464 30.6522 38 28 38Z" fill="#001E49"/>
</svg>
