<svg width="42" height="42" viewBox="0 0 42 42" fill="none" xmlns="http://www.w3.org/2000/svg">
<path d="M11.6845 20.2561C11.6845 20.2561 20.2292 16.6572 23.1927 15.3899C24.3288 14.883 28.1813 13.2609 28.1813 13.2609C28.1813 13.2609 29.9594 12.5513 29.8112 14.2747C29.7618 14.9844 29.3667 17.4682 28.9716 20.1547C28.3788 23.9564 27.7368 28.1129 27.7368 28.1129C27.7368 28.1129 27.638 29.2788 26.7983 29.4816C25.9587 29.6843 24.5757 28.772 24.3288 28.5691C24.1311 28.4171 20.6244 26.1361 19.3402 25.0209C18.9944 24.7168 18.5993 24.1085 19.3895 23.3989C21.1677 21.7261 23.2915 19.6478 24.5757 18.3299C25.1684 17.7216 25.7611 16.3023 23.2915 18.0257C19.7847 20.5095 16.3273 22.8413 16.3273 22.8413C16.3273 22.8413 15.537 23.3481 14.0553 22.8919C12.5735 22.4358 10.8448 21.8275 10.8448 21.8275C10.8448 21.8275 9.65943 21.0671 11.6845 20.2561Z" fill="black"/>
</svg>
