<svg width="42" height="42" viewBox="0 0 42 42" fill="none" xmlns="http://www.w3.org/2000/svg">
<path d="M10.5 30.7228L12.0067 25.1205C10.7916 22.9381 10.4055 20.3915 10.9194 17.9479C11.4332 15.5043 12.8125 13.3276 14.8041 11.8173C16.7958 10.3071 19.2661 9.56445 21.7619 9.7258C24.2577 9.88714 26.6115 10.9416 28.3914 12.6957C30.1713 14.4498 31.2579 16.7859 31.4518 19.2752C31.6457 21.7646 30.9338 24.2402 29.447 26.2479C27.9601 28.2556 25.7978 29.6607 23.357 30.2053C20.9162 30.7498 18.3606 30.3974 16.159 29.2126L10.5 30.7228ZM16.4319 27.1162L16.7819 27.3235C18.3765 28.2671 20.239 28.6576 22.0791 28.4341C23.9192 28.2106 25.6336 27.3857 26.9551 26.0879C28.2766 24.7901 29.1309 23.0924 29.385 21.2592C29.6391 19.4261 29.2786 17.5605 28.3598 15.9532C27.441 14.346 26.0154 13.0873 24.3052 12.3733C22.595 11.6594 20.6963 11.5303 18.9049 12.0061C17.1136 12.482 15.5302 13.536 14.4016 15.0041C13.2729 16.4721 12.6624 18.2717 12.6651 20.1223C12.6636 21.6567 13.0887 23.1615 13.893 24.4691L14.1125 24.8303L13.2702 27.9572L16.4319 27.1162Z" fill="black"/>
<path fill-rule="evenodd" clip-rule="evenodd" d="M24.9264 21.56C24.7212 21.3948 24.481 21.2785 24.224 21.22C23.967 21.1615 23.7001 21.1624 23.4434 21.2225C23.0579 21.3824 22.8087 21.9864 22.5596 22.2884C22.507 22.3608 22.4298 22.4116 22.3425 22.4312C22.2551 22.4509 22.1636 22.438 22.085 22.395C20.6734 21.8431 19.4902 20.8309 18.7276 19.5228C18.6625 19.4412 18.6317 19.3376 18.6417 19.2337C18.6517 19.1299 18.7016 19.034 18.781 18.9662C19.0588 18.6915 19.2629 18.3514 19.3742 17.9772C19.3989 17.5644 19.3041 17.1533 19.1013 16.7928C18.9445 16.2873 18.646 15.8373 18.2412 15.4958C18.0324 15.4021 17.8008 15.3706 17.5745 15.4053C17.3482 15.44 17.1368 15.5393 16.9658 15.6913C16.6689 15.947 16.4332 16.266 16.2762 16.6247C16.1191 16.9834 16.0446 17.3727 16.0582 17.764C16.0591 17.9837 16.087 18.2025 16.1413 18.4154C16.279 18.927 16.4908 19.4158 16.77 19.8663C16.9715 20.2114 17.1913 20.5455 17.4285 20.8671C18.1994 21.9236 19.1684 22.8206 20.2817 23.5084C20.8404 23.8579 21.4375 24.142 22.0613 24.3552C22.7093 24.6485 23.4247 24.761 24.1315 24.681C24.5343 24.6201 24.9159 24.4613 25.2427 24.2187C25.5696 23.976 25.8317 23.6568 26.006 23.2893C26.1084 23.0672 26.1395 22.819 26.095 22.5786C25.9882 22.0871 25.3298 21.7969 24.9264 21.56Z" fill="black"/>
</svg>
